M48
; DRILL file {KiCad 6.0.0-d3dd2cf0fa~116~ubuntu20.04.1} date Wed 05 Jan 2022 21:30:34 GMT
; FORMAT={-:-/ absolute / inch / decimal}
; #@! TF.CreationDate,2022-01-05T21:30:34+00:00
; #@! TF.GenerationSoftware,Kicad,Pcbnew,6.0.0-d3dd2cf0fa~116~ubuntu20.04.1
; #@! TF.FileFunction,Plated,1,4,PTH
FMAT,2
INCH
; #@! TA.AperFunction,Plated,PTH,ViaDrill
T1C0.0157
; #@! TA.AperFunction,Plated,PTH,ComponentDrill
T2C0.0256
; #@! TA.AperFunction,Plated,PTH,ComponentDrill
T3C0.0394
; #@! TA.AperFunction,Plated,PTH,ComponentDrill
T4C0.1063
%
G90
G05
T1
X4.7638Y-2.5984
X4.7638Y-2.6772
X4.874Y-3.6224
X4.8819Y-2.5984
X4.8819Y-2.6772
X4.8819Y-2.874
X4.8819Y-2.9528
X4.8819Y-3.1102
X4.9606Y-3.937
X4.9606Y-4.0551
X4.9606Y-4.1732
X5.0091Y-3.365
X5.0465Y-3.7335
X5.0634Y-3.3437
X5.0882Y-4.1787
X5.1268Y-4.135
X5.1705Y-4.1343
X5.2146Y-4.1339
X5.2583Y-4.178
X5.3Y-3.47
X5.315Y-3.3858
X5.315Y-3.622
X5.315Y-3.7795
X5.315Y-3.937
X5.3232Y-4.0945
X5.3232Y-4.1732
X5.35Y-3.52
X5.4331Y-4.0945
X5.4331Y-4.1732
X5.5118Y-3.3858
X5.5118Y-3.622
X5.5118Y-3.7795
X5.5118Y-3.937
X5.5512Y-4.0945
X5.5512Y-4.1732
X5.6693Y-4.0945
X5.6693Y-4.1732
X5.7087Y-3.3858
X5.7087Y-3.622
X5.7087Y-3.7795
X5.7087Y-3.937
X5.7874Y-4.0945
X5.7874Y-4.1732
X5.935Y-3.6152
X5.9803Y-3.6585
X5.9843Y-3.937
X5.9843Y-4.0551
X5.9843Y-4.1732
X6.0299Y-3.472
X6.0783Y-3.4327
X6.0787Y-3.3583
X6.1417Y-3.6331
X6.1449Y-3.4815
X6.1811Y-4.0551
X6.1811Y-4.1732
X6.2205Y-3.6331
X6.2492Y-3.4012
X6.389Y-3.6331
X6.3967Y-3.749
X6.4104Y-3.7008
X6.4114Y-3.7943
X6.4173Y-3.5039
X6.4323Y-3.5906
X6.4433Y-4.0797
X6.4459Y-3.8652
X6.4606Y-3.6969
X6.4636Y-3.7992
X6.4843Y-3.5906
X6.5276Y-4.3632
X6.5374Y-3.8819
X6.5378Y-3.624
X6.5748Y-3.5039
X6.5909Y-3.624
X6.62Y-4.14
X6.6469Y-3.6244
X6.7012Y-3.626
X6.7425Y-3.6244
X6.7555Y-3.9067
X6.7744Y-3.7067
X6.7862Y-3.5984
X6.8114Y-3.7067
X6.8142Y-4.4028
X6.8232Y-3.598
X6.8484Y-3.7063
X6.865Y-4.3335
T2
X6.526Y-4.2596
X6.526Y-4.3096
X6.576Y-4.2596
X6.576Y-4.3096
X6.626Y-4.2596
X6.626Y-4.3096
X6.676Y-4.2596
X6.676Y-4.3096
X6.726Y-4.2596
X6.726Y-4.3096
T3
X4.7795Y-2.8031
X4.7795Y-2.9031
X4.7795Y-3.0031
X4.7795Y-3.1031
X4.7795Y-3.2031
X4.7795Y-3.3031
X4.7795Y-3.4031
X4.7795Y-3.5031
X4.7795Y-3.6031
X4.7795Y-3.7031
X4.7795Y-3.8031
X4.7795Y-3.9031
X4.7795Y-4.0031
X4.9362Y-3.4232
X4.9362Y-3.5232
X4.9362Y-3.6232
X4.9362Y-3.7232
X6.4754Y-3.3986
X6.5754Y-3.3986
X6.6234Y-3.9882
X6.6754Y-3.3986
X6.7234Y-3.9882
X6.7754Y-3.3986
X6.9315Y-2.8039
X6.9315Y-2.9039
X6.9315Y-3.0039
X6.9315Y-3.1039
X6.9315Y-3.2039
X6.9315Y-3.3039
X6.9315Y-3.4039
X6.9315Y-3.5039
X6.9315Y-3.6039
X6.9315Y-3.7039
X6.9315Y-3.8039
X6.9315Y-3.9039
X6.9315Y-4.0039
X7.0315Y-2.8039
X7.0315Y-2.9039
X7.0315Y-3.0039
X7.0315Y-3.1039
X7.0315Y-3.2039
X7.0315Y-3.3039
X7.0315Y-3.4039
X7.0315Y-3.5039
X7.0315Y-3.6039
X7.0315Y-3.7039
X7.0315Y-3.8039
X7.0315Y-3.9039
X7.0315Y-4.0039
T4
X4.8228Y-2.4606
X4.8228Y-4.3504
X6.9882Y-2.4606
X6.9882Y-4.3504
T0
M30
