%TF.GenerationSoftware,KiCad,Pcbnew,6.0.0-d3dd2cf0fa~116~ubuntu20.04.1*%
%TF.CreationDate,2022-01-05T21:30:45+00:00*%
%TF.ProjectId,opizero2_cc2652p,6f70697a-6572-46f3-925f-636332363532,rev?*%
%TF.SameCoordinates,Original*%
%TF.FileFunction,Legend,Top*%
%TF.FilePolarity,Positive*%
%FSLAX46Y46*%
G04 Gerber Fmt 4.6, Leading zero omitted, Abs format (unit mm)*
G04 Created by KiCad (PCBNEW 6.0.0-d3dd2cf0fa~116~ubuntu20.04.1) date 2022-01-05 21:30:45*
%MOMM*%
%LPD*%
G01*
G04 APERTURE LIST*
%ADD10C,0.245294*%
%ADD11C,0.300000*%
%ADD12C,0.150000*%
%ADD13C,0.120000*%
%ADD14C,0.250000*%
G04 APERTURE END LIST*
D10*
X121502647Y-69420000D02*
G75*
G03*
X121502647Y-69420000I-122647J0D01*
G01*
X178622647Y-103620000D02*
G75*
G03*
X178622647Y-103620000I-122647J0D01*
G01*
X150582647Y-102060000D02*
G75*
G03*
X150582647Y-102060000I-122647J0D01*
G01*
X169152647Y-99270000D02*
G75*
G03*
X169152647Y-99270000I-122647J0D01*
G01*
D11*
X133271428Y-108838571D02*
X133271428Y-109910000D01*
X133200000Y-110124285D01*
X133057142Y-110267142D01*
X132842857Y-110338571D01*
X132700000Y-110338571D01*
X134700000Y-110338571D02*
X133985714Y-110338571D01*
X133985714Y-108838571D01*
X136057142Y-110195714D02*
X135985714Y-110267142D01*
X135771428Y-110338571D01*
X135628571Y-110338571D01*
X135414285Y-110267142D01*
X135271428Y-110124285D01*
X135200000Y-109981428D01*
X135128571Y-109695714D01*
X135128571Y-109481428D01*
X135200000Y-109195714D01*
X135271428Y-109052857D01*
X135414285Y-108910000D01*
X135628571Y-108838571D01*
X135771428Y-108838571D01*
X135985714Y-108910000D01*
X136057142Y-108981428D01*
X137128571Y-108838571D02*
X137128571Y-109910000D01*
X137057142Y-110124285D01*
X136914285Y-110267142D01*
X136700000Y-110338571D01*
X136557142Y-110338571D01*
X138557142Y-110338571D02*
X137842857Y-110338571D01*
X137842857Y-108838571D01*
X139914285Y-110195714D02*
X139842857Y-110267142D01*
X139628571Y-110338571D01*
X139485714Y-110338571D01*
X139271428Y-110267142D01*
X139128571Y-110124285D01*
X139057142Y-109981428D01*
X138985714Y-109695714D01*
X138985714Y-109481428D01*
X139057142Y-109195714D01*
X139128571Y-109052857D01*
X139271428Y-108910000D01*
X139485714Y-108838571D01*
X139628571Y-108838571D01*
X139842857Y-108910000D01*
X139914285Y-108981428D01*
X140985714Y-108838571D02*
X140985714Y-109910000D01*
X140914285Y-110124285D01*
X140771428Y-110267142D01*
X140557142Y-110338571D01*
X140414285Y-110338571D01*
X142414285Y-110338571D02*
X141700000Y-110338571D01*
X141700000Y-108838571D01*
X143771428Y-110195714D02*
X143700000Y-110267142D01*
X143485714Y-110338571D01*
X143342857Y-110338571D01*
X143128571Y-110267142D01*
X142985714Y-110124285D01*
X142914285Y-109981428D01*
X142842857Y-109695714D01*
X142842857Y-109481428D01*
X142914285Y-109195714D01*
X142985714Y-109052857D01*
X143128571Y-108910000D01*
X143342857Y-108838571D01*
X143485714Y-108838571D01*
X143700000Y-108910000D01*
X143771428Y-108981428D01*
X144842857Y-108838571D02*
X144842857Y-109910000D01*
X144771428Y-110124285D01*
X144628571Y-110267142D01*
X144414285Y-110338571D01*
X144271428Y-110338571D01*
X146271428Y-110338571D02*
X145557142Y-110338571D01*
X145557142Y-108838571D01*
X147628571Y-110195714D02*
X147557142Y-110267142D01*
X147342857Y-110338571D01*
X147200000Y-110338571D01*
X146985714Y-110267142D01*
X146842857Y-110124285D01*
X146771428Y-109981428D01*
X146700000Y-109695714D01*
X146700000Y-109481428D01*
X146771428Y-109195714D01*
X146842857Y-109052857D01*
X146985714Y-108910000D01*
X147200000Y-108838571D01*
X147342857Y-108838571D01*
X147557142Y-108910000D01*
X147628571Y-108981428D01*
D12*
X167744761Y-88042380D02*
X167744761Y-88851904D01*
X167792380Y-88947142D01*
X167840000Y-88994761D01*
X167935238Y-89042380D01*
X168125714Y-89042380D01*
X168220952Y-88994761D01*
X168268571Y-88947142D01*
X168316190Y-88851904D01*
X168316190Y-88042380D01*
X168744761Y-88756666D02*
X169220952Y-88756666D01*
X168649523Y-89042380D02*
X168982857Y-88042380D01*
X169316190Y-89042380D01*
X170220952Y-89042380D02*
X169887619Y-88566190D01*
X169649523Y-89042380D02*
X169649523Y-88042380D01*
X170030476Y-88042380D01*
X170125714Y-88090000D01*
X170173333Y-88137619D01*
X170220952Y-88232857D01*
X170220952Y-88375714D01*
X170173333Y-88470952D01*
X170125714Y-88518571D01*
X170030476Y-88566190D01*
X169649523Y-88566190D01*
X170506666Y-88042380D02*
X171078095Y-88042380D01*
X170792380Y-89042380D02*
X170792380Y-88042380D01*
X164331904Y-101238571D02*
X164474761Y-101286190D01*
X164522380Y-101333809D01*
X164570000Y-101429047D01*
X164570000Y-101571904D01*
X164522380Y-101667142D01*
X164474761Y-101714761D01*
X164379523Y-101762380D01*
X163998571Y-101762380D01*
X163998571Y-100762380D01*
X164331904Y-100762380D01*
X164427142Y-100810000D01*
X164474761Y-100857619D01*
X164522380Y-100952857D01*
X164522380Y-101048095D01*
X164474761Y-101143333D01*
X164427142Y-101190952D01*
X164331904Y-101238571D01*
X163998571Y-101238571D01*
X164950952Y-101476666D02*
X165427142Y-101476666D01*
X164855714Y-101762380D02*
X165189047Y-100762380D01*
X165522380Y-101762380D01*
X165712857Y-100762380D02*
X166284285Y-100762380D01*
X165998571Y-101762380D02*
X165998571Y-100762380D01*
D13*
X125995000Y-96405000D02*
X126745000Y-97155000D01*
X126745000Y-97155000D02*
X126245000Y-97155000D01*
X126245000Y-97155000D02*
X126245000Y-98155000D01*
X126245000Y-98155000D02*
X125745000Y-98155000D01*
X125745000Y-98155000D02*
X125745000Y-97155000D01*
X125245000Y-97155000D02*
X125995000Y-96405000D01*
X125745000Y-97155000D02*
X125245000Y-97155000D01*
X164475000Y-87975000D02*
X165225000Y-88725000D01*
X165225000Y-88725000D02*
X164725000Y-88725000D01*
X164725000Y-88725000D02*
X164725000Y-89725000D01*
X164725000Y-89725000D02*
X164225000Y-89725000D01*
X164225000Y-89725000D02*
X164225000Y-88725000D01*
X163725000Y-88725000D02*
X164475000Y-87975000D01*
X164225000Y-88725000D02*
X163725000Y-88725000D01*
X172255000Y-101315000D02*
X173005000Y-100565000D01*
X173005000Y-100565000D02*
X173005000Y-101065000D01*
X173005000Y-101065000D02*
X174005000Y-101065000D01*
X174005000Y-101065000D02*
X174005000Y-101565000D01*
X174005000Y-101565000D02*
X173005000Y-101565000D01*
X173005000Y-102065000D02*
X172255000Y-101315000D01*
X173005000Y-101565000D02*
X173005000Y-102065000D01*
X164405000Y-109455000D02*
X163655000Y-110205000D01*
X163655000Y-110205000D02*
X163655000Y-109705000D01*
X163655000Y-109705000D02*
X162655000Y-109705000D01*
X162655000Y-109705000D02*
X162655000Y-109205000D01*
X162655000Y-109205000D02*
X163655000Y-109205000D01*
X163655000Y-108705000D02*
X164405000Y-109455000D01*
X163655000Y-109205000D02*
X163655000Y-108705000D01*
D12*
X166912857Y-106814761D02*
X167055714Y-106862380D01*
X167293809Y-106862380D01*
X167389047Y-106814761D01*
X167436666Y-106767142D01*
X167484285Y-106671904D01*
X167484285Y-106576666D01*
X167436666Y-106481428D01*
X167389047Y-106433809D01*
X167293809Y-106386190D01*
X167103333Y-106338571D01*
X167008095Y-106290952D01*
X166960476Y-106243333D01*
X166912857Y-106148095D01*
X166912857Y-106052857D01*
X166960476Y-105957619D01*
X167008095Y-105910000D01*
X167103333Y-105862380D01*
X167341428Y-105862380D01*
X167484285Y-105910000D01*
X167817619Y-105862380D02*
X168055714Y-106862380D01*
X168246190Y-106148095D01*
X168436666Y-106862380D01*
X168674761Y-105862380D01*
X169055714Y-106862380D02*
X169055714Y-105862380D01*
X169293809Y-105862380D01*
X169436666Y-105910000D01*
X169531904Y-106005238D01*
X169579523Y-106100476D01*
X169627142Y-106290952D01*
X169627142Y-106433809D01*
X169579523Y-106624285D01*
X169531904Y-106719523D01*
X169436666Y-106814761D01*
X169293809Y-106862380D01*
X169055714Y-106862380D01*
X157970476Y-90238571D02*
X158113333Y-90286190D01*
X158160952Y-90333809D01*
X158208571Y-90429047D01*
X158208571Y-90571904D01*
X158160952Y-90667142D01*
X158113333Y-90714761D01*
X158018095Y-90762380D01*
X157637142Y-90762380D01*
X157637142Y-89762380D01*
X157970476Y-89762380D01*
X158065714Y-89810000D01*
X158113333Y-89857619D01*
X158160952Y-89952857D01*
X158160952Y-90048095D01*
X158113333Y-90143333D01*
X158065714Y-90190952D01*
X157970476Y-90238571D01*
X157637142Y-90238571D01*
X158589523Y-90714761D02*
X158732380Y-90762380D01*
X158970476Y-90762380D01*
X159065714Y-90714761D01*
X159113333Y-90667142D01*
X159160952Y-90571904D01*
X159160952Y-90476666D01*
X159113333Y-90381428D01*
X159065714Y-90333809D01*
X158970476Y-90286190D01*
X158780000Y-90238571D01*
X158684761Y-90190952D01*
X158637142Y-90143333D01*
X158589523Y-90048095D01*
X158589523Y-89952857D01*
X158637142Y-89857619D01*
X158684761Y-89810000D01*
X158780000Y-89762380D01*
X159018095Y-89762380D01*
X159160952Y-89810000D01*
X160065714Y-90762380D02*
X159589523Y-90762380D01*
X159589523Y-89762380D01*
X128752380Y-90956190D02*
X127752380Y-90956190D01*
X127847619Y-90527619D02*
X127800000Y-90480000D01*
X127752380Y-90384761D01*
X127752380Y-90146666D01*
X127800000Y-90051428D01*
X127847619Y-90003809D01*
X127942857Y-89956190D01*
X128038095Y-89956190D01*
X128180952Y-90003809D01*
X128752380Y-90575238D01*
X128752380Y-89956190D01*
X128657142Y-88956190D02*
X128704761Y-89003809D01*
X128752380Y-89146666D01*
X128752380Y-89241904D01*
X128704761Y-89384761D01*
X128609523Y-89480000D01*
X128514285Y-89527619D01*
X128323809Y-89575238D01*
X128180952Y-89575238D01*
X127990476Y-89527619D01*
X127895238Y-89480000D01*
X127800000Y-89384761D01*
X127752380Y-89241904D01*
X127752380Y-89146666D01*
X127800000Y-89003809D01*
X127847619Y-88956190D01*
X152628571Y-107662380D02*
X152819047Y-107662380D01*
X152914285Y-107710000D01*
X153009523Y-107805238D01*
X153057142Y-107995714D01*
X153057142Y-108329047D01*
X153009523Y-108519523D01*
X152914285Y-108614761D01*
X152819047Y-108662380D01*
X152628571Y-108662380D01*
X152533333Y-108614761D01*
X152438095Y-108519523D01*
X152390476Y-108329047D01*
X152390476Y-107995714D01*
X152438095Y-107805238D01*
X152533333Y-107710000D01*
X152628571Y-107662380D01*
X153485714Y-108662380D02*
X153485714Y-107662380D01*
X153866666Y-107662380D01*
X153961904Y-107710000D01*
X154009523Y-107757619D01*
X154057142Y-107852857D01*
X154057142Y-107995714D01*
X154009523Y-108090952D01*
X153961904Y-108138571D01*
X153866666Y-108186190D01*
X153485714Y-108186190D01*
X154485714Y-108662380D02*
X154485714Y-107995714D01*
X154485714Y-107662380D02*
X154438095Y-107710000D01*
X154485714Y-107757619D01*
X154533333Y-107710000D01*
X154485714Y-107662380D01*
X154485714Y-107757619D01*
X155628571Y-107662380D02*
X156295238Y-107662380D01*
X155628571Y-108662380D01*
X156295238Y-108662380D01*
X156676190Y-108662380D02*
X156676190Y-107995714D01*
X156676190Y-107662380D02*
X156628571Y-107710000D01*
X156676190Y-107757619D01*
X156723809Y-107710000D01*
X156676190Y-107662380D01*
X156676190Y-107757619D01*
X157580952Y-107995714D02*
X157580952Y-108805238D01*
X157533333Y-108900476D01*
X157485714Y-108948095D01*
X157390476Y-108995714D01*
X157247619Y-108995714D01*
X157152380Y-108948095D01*
X157580952Y-108614761D02*
X157485714Y-108662380D01*
X157295238Y-108662380D01*
X157200000Y-108614761D01*
X157152380Y-108567142D01*
X157104761Y-108471904D01*
X157104761Y-108186190D01*
X157152380Y-108090952D01*
X157200000Y-108043333D01*
X157295238Y-107995714D01*
X157485714Y-107995714D01*
X157580952Y-108043333D01*
X158057142Y-108662380D02*
X158057142Y-107662380D01*
X158057142Y-108043333D02*
X158152380Y-107995714D01*
X158342857Y-107995714D01*
X158438095Y-108043333D01*
X158485714Y-108090952D01*
X158533333Y-108186190D01*
X158533333Y-108471904D01*
X158485714Y-108567142D01*
X158438095Y-108614761D01*
X158342857Y-108662380D01*
X158152380Y-108662380D01*
X158057142Y-108614761D01*
X159342857Y-108614761D02*
X159247619Y-108662380D01*
X159057142Y-108662380D01*
X158961904Y-108614761D01*
X158914285Y-108519523D01*
X158914285Y-108138571D01*
X158961904Y-108043333D01*
X159057142Y-107995714D01*
X159247619Y-107995714D01*
X159342857Y-108043333D01*
X159390476Y-108138571D01*
X159390476Y-108233809D01*
X158914285Y-108329047D01*
X160200000Y-108614761D02*
X160104761Y-108662380D01*
X159914285Y-108662380D01*
X159819047Y-108614761D01*
X159771428Y-108519523D01*
X159771428Y-108138571D01*
X159819047Y-108043333D01*
X159914285Y-107995714D01*
X160104761Y-107995714D01*
X160200000Y-108043333D01*
X160247619Y-108138571D01*
X160247619Y-108233809D01*
X159771428Y-108329047D01*
X152771428Y-110177142D02*
X152723809Y-110224761D01*
X152580952Y-110272380D01*
X152485714Y-110272380D01*
X152342857Y-110224761D01*
X152247619Y-110129523D01*
X152200000Y-110034285D01*
X152152380Y-109843809D01*
X152152380Y-109700952D01*
X152200000Y-109510476D01*
X152247619Y-109415238D01*
X152342857Y-109320000D01*
X152485714Y-109272380D01*
X152580952Y-109272380D01*
X152723809Y-109320000D01*
X152771428Y-109367619D01*
X153342857Y-110272380D02*
X153247619Y-110224761D01*
X153200000Y-110177142D01*
X153152380Y-110081904D01*
X153152380Y-109796190D01*
X153200000Y-109700952D01*
X153247619Y-109653333D01*
X153342857Y-109605714D01*
X153485714Y-109605714D01*
X153580952Y-109653333D01*
X153628571Y-109700952D01*
X153676190Y-109796190D01*
X153676190Y-110081904D01*
X153628571Y-110177142D01*
X153580952Y-110224761D01*
X153485714Y-110272380D01*
X153342857Y-110272380D01*
X154247619Y-110272380D02*
X154152380Y-110224761D01*
X154104761Y-110177142D01*
X154057142Y-110081904D01*
X154057142Y-109796190D01*
X154104761Y-109700952D01*
X154152380Y-109653333D01*
X154247619Y-109605714D01*
X154390476Y-109605714D01*
X154485714Y-109653333D01*
X154533333Y-109700952D01*
X154580952Y-109796190D01*
X154580952Y-110081904D01*
X154533333Y-110177142D01*
X154485714Y-110224761D01*
X154390476Y-110272380D01*
X154247619Y-110272380D01*
X155009523Y-110272380D02*
X155009523Y-109605714D01*
X155009523Y-109796190D02*
X155057142Y-109700952D01*
X155104761Y-109653333D01*
X155200000Y-109605714D01*
X155295238Y-109605714D01*
X156057142Y-110272380D02*
X156057142Y-109272380D01*
X156057142Y-110224761D02*
X155961904Y-110272380D01*
X155771428Y-110272380D01*
X155676190Y-110224761D01*
X155628571Y-110177142D01*
X155580952Y-110081904D01*
X155580952Y-109796190D01*
X155628571Y-109700952D01*
X155676190Y-109653333D01*
X155771428Y-109605714D01*
X155961904Y-109605714D01*
X156057142Y-109653333D01*
X156533333Y-110272380D02*
X156533333Y-109605714D01*
X156533333Y-109272380D02*
X156485714Y-109320000D01*
X156533333Y-109367619D01*
X156580952Y-109320000D01*
X156533333Y-109272380D01*
X156533333Y-109367619D01*
X157009523Y-109605714D02*
X157009523Y-110272380D01*
X157009523Y-109700952D02*
X157057142Y-109653333D01*
X157152380Y-109605714D01*
X157295238Y-109605714D01*
X157390476Y-109653333D01*
X157438095Y-109748571D01*
X157438095Y-110272380D01*
X158342857Y-110272380D02*
X158342857Y-109748571D01*
X158295238Y-109653333D01*
X158200000Y-109605714D01*
X158009523Y-109605714D01*
X157914285Y-109653333D01*
X158342857Y-110224761D02*
X158247619Y-110272380D01*
X158009523Y-110272380D01*
X157914285Y-110224761D01*
X157866666Y-110129523D01*
X157866666Y-110034285D01*
X157914285Y-109939047D01*
X158009523Y-109891428D01*
X158247619Y-109891428D01*
X158342857Y-109843809D01*
X158676190Y-109605714D02*
X159057142Y-109605714D01*
X158819047Y-109272380D02*
X158819047Y-110129523D01*
X158866666Y-110224761D01*
X158961904Y-110272380D01*
X159057142Y-110272380D01*
X159533333Y-110272380D02*
X159438095Y-110224761D01*
X159390476Y-110177142D01*
X159342857Y-110081904D01*
X159342857Y-109796190D01*
X159390476Y-109700952D01*
X159438095Y-109653333D01*
X159533333Y-109605714D01*
X159676190Y-109605714D01*
X159771428Y-109653333D01*
X159819047Y-109700952D01*
X159866666Y-109796190D01*
X159866666Y-110081904D01*
X159819047Y-110177142D01*
X159771428Y-110224761D01*
X159676190Y-110272380D01*
X159533333Y-110272380D01*
X160295238Y-110272380D02*
X160295238Y-109605714D01*
X160295238Y-109796190D02*
X160342857Y-109700952D01*
X160390476Y-109653333D01*
X160485714Y-109605714D01*
X160580952Y-109605714D01*
X154104761Y-111787142D02*
X154057142Y-111834761D01*
X153914285Y-111882380D01*
X153819047Y-111882380D01*
X153676190Y-111834761D01*
X153580952Y-111739523D01*
X153533333Y-111644285D01*
X153485714Y-111453809D01*
X153485714Y-111310952D01*
X153533333Y-111120476D01*
X153580952Y-111025238D01*
X153676190Y-110930000D01*
X153819047Y-110882380D01*
X153914285Y-110882380D01*
X154057142Y-110930000D01*
X154104761Y-110977619D01*
X155104761Y-111787142D02*
X155057142Y-111834761D01*
X154914285Y-111882380D01*
X154819047Y-111882380D01*
X154676190Y-111834761D01*
X154580952Y-111739523D01*
X154533333Y-111644285D01*
X154485714Y-111453809D01*
X154485714Y-111310952D01*
X154533333Y-111120476D01*
X154580952Y-111025238D01*
X154676190Y-110930000D01*
X154819047Y-110882380D01*
X154914285Y-110882380D01*
X155057142Y-110930000D01*
X155104761Y-110977619D01*
X155485714Y-110977619D02*
X155533333Y-110930000D01*
X155628571Y-110882380D01*
X155866666Y-110882380D01*
X155961904Y-110930000D01*
X156009523Y-110977619D01*
X156057142Y-111072857D01*
X156057142Y-111168095D01*
X156009523Y-111310952D01*
X155438095Y-111882380D01*
X156057142Y-111882380D01*
X156914285Y-110882380D02*
X156723809Y-110882380D01*
X156628571Y-110930000D01*
X156580952Y-110977619D01*
X156485714Y-111120476D01*
X156438095Y-111310952D01*
X156438095Y-111691904D01*
X156485714Y-111787142D01*
X156533333Y-111834761D01*
X156628571Y-111882380D01*
X156819047Y-111882380D01*
X156914285Y-111834761D01*
X156961904Y-111787142D01*
X157009523Y-111691904D01*
X157009523Y-111453809D01*
X156961904Y-111358571D01*
X156914285Y-111310952D01*
X156819047Y-111263333D01*
X156628571Y-111263333D01*
X156533333Y-111310952D01*
X156485714Y-111358571D01*
X156438095Y-111453809D01*
X157914285Y-110882380D02*
X157438095Y-110882380D01*
X157390476Y-111358571D01*
X157438095Y-111310952D01*
X157533333Y-111263333D01*
X157771428Y-111263333D01*
X157866666Y-111310952D01*
X157914285Y-111358571D01*
X157961904Y-111453809D01*
X157961904Y-111691904D01*
X157914285Y-111787142D01*
X157866666Y-111834761D01*
X157771428Y-111882380D01*
X157533333Y-111882380D01*
X157438095Y-111834761D01*
X157390476Y-111787142D01*
X158342857Y-110977619D02*
X158390476Y-110930000D01*
X158485714Y-110882380D01*
X158723809Y-110882380D01*
X158819047Y-110930000D01*
X158866666Y-110977619D01*
X158914285Y-111072857D01*
X158914285Y-111168095D01*
X158866666Y-111310952D01*
X158295238Y-111882380D01*
X158914285Y-111882380D01*
X159342857Y-111882380D02*
X159342857Y-110882380D01*
X159723809Y-110882380D01*
X159819047Y-110930000D01*
X159866666Y-110977619D01*
X159914285Y-111072857D01*
X159914285Y-111215714D01*
X159866666Y-111310952D01*
X159819047Y-111358571D01*
X159723809Y-111406190D01*
X159342857Y-111406190D01*
D14*
%TO.C,SW1*%
X161910000Y-86440000D02*
G75*
G03*
X161910000Y-86440000I-125000J0D01*
G01*
D12*
X157760000Y-83515000D02*
X159660000Y-83515000D01*
X157760000Y-84090000D02*
X157760000Y-83515000D01*
X159660000Y-84090000D02*
X159660000Y-83515000D01*
X157760000Y-84090000D02*
X156860000Y-84090000D01*
X160560000Y-84090000D02*
X159660000Y-84090000D01*
X156860000Y-87340000D02*
X160560000Y-87340000D01*
D13*
%TO.C,R1*%
X158977064Y-89165000D02*
X158522936Y-89165000D01*
X158977064Y-87695000D02*
X158522936Y-87695000D01*
%TO.C,C3*%
X163174000Y-94437252D02*
X163174000Y-93014748D01*
X164994000Y-94437252D02*
X164994000Y-93014748D01*
%TO.C,U2*%
X149826100Y-83975900D02*
X149749900Y-114074900D01*
X149826100Y-83975900D02*
X129785500Y-83975900D01*
X149749900Y-114074900D02*
X129785500Y-114074900D01*
X129785500Y-83975900D02*
X129785500Y-114074900D01*
%TO.C,J4*%
X166905000Y-99970000D02*
X166905000Y-102630000D01*
X169505000Y-99970000D02*
X166905000Y-99970000D01*
X169505000Y-102630000D02*
X166905000Y-102630000D01*
X169505000Y-99970000D02*
X169505000Y-102630000D01*
X170775000Y-99970000D02*
X172105000Y-99970000D01*
X172105000Y-99970000D02*
X172105000Y-101300000D01*
%TO.C,R6*%
X166887064Y-112775000D02*
X166432936Y-112775000D01*
X166887064Y-111305000D02*
X166432936Y-111305000D01*
%TO.C,R5*%
X128915000Y-92522936D02*
X128915000Y-92977064D01*
X127445000Y-92522936D02*
X127445000Y-92977064D01*
%TO.C,R4*%
X127505000Y-87517064D02*
X127505000Y-87062936D01*
X128975000Y-87517064D02*
X128975000Y-87062936D01*
%TO.C,R3*%
X173785000Y-108922936D02*
X173785000Y-109377064D01*
X172315000Y-108922936D02*
X172315000Y-109377064D01*
%TO.C,R2*%
X170877064Y-98735000D02*
X170422936Y-98735000D01*
X170877064Y-97265000D02*
X170422936Y-97265000D01*
%TO.C,J5*%
X126710000Y-85620000D02*
X124050000Y-85620000D01*
X126710000Y-93300000D02*
X126710000Y-85620000D01*
X124050000Y-93300000D02*
X124050000Y-85620000D01*
X126710000Y-93300000D02*
X124050000Y-93300000D01*
X126710000Y-94570000D02*
X126710000Y-95900000D01*
X126710000Y-95900000D02*
X125380000Y-95900000D01*
D12*
%TO.C,D1*%
X166900000Y-96400000D02*
X166650000Y-96400000D01*
X166900000Y-97500000D02*
X166650000Y-97500000D01*
D14*
X169550000Y-96650000D02*
G75*
G03*
X169550000Y-96650000I-125000J0D01*
G01*
D13*
%TO.C,J3*%
X173425000Y-87655000D02*
X173425000Y-84995000D01*
X165745000Y-87655000D02*
X173425000Y-87655000D01*
X165745000Y-84995000D02*
X173425000Y-84995000D01*
X165745000Y-87655000D02*
X165745000Y-84995000D01*
X164475000Y-87655000D02*
X163145000Y-87655000D01*
X163145000Y-87655000D02*
X163145000Y-86325000D01*
%TO.C,C2*%
X170140000Y-94536252D02*
X170140000Y-94013748D01*
X171610000Y-94536252D02*
X171610000Y-94013748D01*
%TO.C,U1*%
X167640000Y-92674000D02*
X166840000Y-92674000D01*
X167640000Y-92674000D02*
X168440000Y-92674000D01*
X167640000Y-95794000D02*
X166840000Y-95794000D01*
X167640000Y-95794000D02*
X169440000Y-95794000D01*
%TO.C,C4*%
X152415000Y-86486252D02*
X152415000Y-85963748D01*
X153885000Y-86486252D02*
X153885000Y-85963748D01*
%TO.C,J6*%
X171535000Y-110595000D02*
X171535000Y-109772530D01*
X171535000Y-107887470D02*
X171535000Y-107065000D01*
X171535000Y-109157470D02*
X171535000Y-108502530D01*
X166520000Y-110595000D02*
X171535000Y-110595000D01*
X165065000Y-107065000D02*
X171535000Y-107065000D01*
X166520000Y-110595000D02*
X166520000Y-110028471D01*
X166520000Y-108901529D02*
X166520000Y-108758471D01*
X166466529Y-108705000D02*
X166323471Y-108705000D01*
X165196529Y-108705000D02*
X165065000Y-108705000D01*
X165065000Y-108705000D02*
X165065000Y-108502530D01*
X165065000Y-107887470D02*
X165065000Y-107065000D01*
X165760000Y-110595000D02*
X165000000Y-110595000D01*
X165000000Y-110595000D02*
X165000000Y-109465000D01*
%TO.C,J2*%
X120070000Y-103010000D02*
X122730000Y-103010000D01*
X120070000Y-72470000D02*
X120070000Y-103010000D01*
X122730000Y-72470000D02*
X122730000Y-103010000D01*
X120070000Y-72470000D02*
X122730000Y-72470000D01*
X120070000Y-71200000D02*
X120070000Y-69870000D01*
X120070000Y-69870000D02*
X121400000Y-69870000D01*
%TO.C,J1*%
X179930000Y-103030000D02*
X178600000Y-103030000D01*
X179930000Y-101700000D02*
X179930000Y-103030000D01*
X177330000Y-103030000D02*
X174730000Y-103030000D01*
X177330000Y-100430000D02*
X177330000Y-103030000D01*
X179930000Y-100430000D02*
X177330000Y-100430000D01*
X174730000Y-103030000D02*
X174730000Y-69890000D01*
X179930000Y-100430000D02*
X179930000Y-69890000D01*
X179930000Y-69890000D02*
X174730000Y-69890000D01*
%TO.C,FB1*%
X172787500Y-98514724D02*
X172787500Y-98005276D01*
X173832500Y-98514724D02*
X173832500Y-98005276D01*
D14*
%TO.C,D3*%
X173209000Y-111825000D02*
G75*
G03*
X173209000Y-111825000I-125000J0D01*
G01*
D12*
X170559000Y-112675000D02*
X170309000Y-112675000D01*
X170559000Y-111575000D02*
X170309000Y-111575000D01*
D13*
%TO.C,C5*%
X150365000Y-86486252D02*
X150365000Y-85963748D01*
X151835000Y-86486252D02*
X151835000Y-85963748D01*
%TO.C,C1*%
X172190000Y-95001252D02*
X172190000Y-93578748D01*
X174010000Y-95001252D02*
X174010000Y-93578748D01*
%TD*%
M02*
