%TF.GenerationSoftware,KiCad,Pcbnew,6.0.0-d3dd2cf0fa~116~ubuntu20.04.1*%
%TF.CreationDate,2022-01-05T21:30:44+00:00*%
%TF.ProjectId,opizero2_cc2652p,6f70697a-6572-46f3-925f-636332363532,rev?*%
%TF.SameCoordinates,Original*%
%TF.FileFunction,Copper,L2,Inr*%
%TF.FilePolarity,Positive*%
%FSLAX46Y46*%
G04 Gerber Fmt 4.6, Leading zero omitted, Abs format (unit mm)*
G04 Created by KiCad (PCBNEW 6.0.0-d3dd2cf0fa~116~ubuntu20.04.1) date 2022-01-05 21:30:44*
%MOMM*%
%LPD*%
G01*
G04 APERTURE LIST*
%TA.AperFunction,ComponentPad*%
%ADD10R,1.700000X1.700000*%
%TD*%
%TA.AperFunction,ComponentPad*%
%ADD11O,1.700000X1.700000*%
%TD*%
%TA.AperFunction,ComponentPad*%
%ADD12R,1.000000X1.000000*%
%TD*%
%TA.AperFunction,ComponentPad*%
%ADD13O,1.000000X1.000000*%
%TD*%
%TA.AperFunction,ComponentPad*%
%ADD14C,4.500000*%
%TD*%
%TA.AperFunction,ViaPad*%
%ADD15C,0.800000*%
%TD*%
G04 APERTURE END LIST*
D10*
%TO.N,Net-(D2-Pad1)*%
%TO.C,J4*%
X170775000Y-101300000D03*
D11*
%TO.N,GND*%
X168235000Y-101300000D03*
%TD*%
D10*
%TO.N,+3V3*%
%TO.C,J5*%
X125380000Y-94570000D03*
D11*
%TO.N,GND*%
X125380000Y-92030000D03*
%TO.N,/SCL*%
X125380000Y-89490000D03*
%TO.N,/SDA*%
X125380000Y-86950000D03*
%TD*%
D10*
%TO.N,+3V3*%
%TO.C,J3*%
X164475000Y-86325000D03*
D11*
%TO.N,/UART_RX*%
X167015000Y-86325000D03*
%TO.N,/UART_TX*%
X169555000Y-86325000D03*
%TO.N,GND*%
X172095000Y-86325000D03*
%TD*%
D12*
%TO.N,+3V3*%
%TO.C,J6*%
X165760000Y-109465000D03*
D13*
%TO.N,XDS_TMS*%
X165760000Y-108195000D03*
%TO.N,GND*%
X167030000Y-109465000D03*
%TO.N,XDS_TCK*%
X167030000Y-108195000D03*
%TO.N,GND*%
X168300000Y-109465000D03*
%TO.N,XDS_TDO*%
X168300000Y-108195000D03*
%TO.N,unconnected-(J6-Pad7)*%
X169570000Y-109465000D03*
%TO.N,XDS_TDI*%
X169570000Y-108195000D03*
%TO.N,GND*%
X170840000Y-109465000D03*
%TO.N,{slash}RESET*%
X170840000Y-108195000D03*
%TD*%
D10*
%TO.N,+5VP*%
%TO.C,J2*%
X121400000Y-71200000D03*
D11*
%TO.N,GND*%
X121400000Y-73740000D03*
%TO.N,/USB2_D-*%
X121400000Y-76280000D03*
%TO.N,/USB2_D+*%
X121400000Y-78820000D03*
%TO.N,/USB3_D-*%
X121400000Y-81360000D03*
%TO.N,/USB3_D+*%
X121400000Y-83900000D03*
%TO.N,/LINEOUT_R*%
X121400000Y-86440000D03*
%TO.N,/LINEOUT_L*%
X121400000Y-88980000D03*
%TO.N,/TV_OUT*%
X121400000Y-91520000D03*
%TO.N,/PC1*%
X121400000Y-94060000D03*
%TO.N,/PI16*%
X121400000Y-96600000D03*
%TO.N,/PI6*%
X121400000Y-99140000D03*
%TO.N,/IR_RX*%
X121400000Y-101680000D03*
%TD*%
%TO.N,/PC10*%
%TO.C,J1*%
X176060000Y-71220000D03*
%TO.N,GND*%
X178600000Y-71220000D03*
%TO.N,/SPI_CS*%
X176060000Y-73760000D03*
%TO.N,/SPI_CLK*%
X178600000Y-73760000D03*
%TO.N,/PC7*%
X176060000Y-76300000D03*
%TO.N,/SPI_MISO*%
X178600000Y-76300000D03*
%TO.N,GND*%
X176060000Y-78840000D03*
%TO.N,/SPI_MOSI*%
X178600000Y-78840000D03*
%TO.N,/PC14*%
X176060000Y-81380000D03*
%TO.N,+3.3VP*%
X178600000Y-81380000D03*
%TO.N,/PC15*%
X176060000Y-83920000D03*
%TO.N,/PC8*%
X178600000Y-83920000D03*
%TO.N,GND*%
X176060000Y-86460000D03*
%TO.N,/PC5*%
X178600000Y-86460000D03*
%TO.N,/PC11*%
X176060000Y-89000000D03*
%TO.N,/PC6*%
X178600000Y-89000000D03*
%TO.N,/UART_RX*%
X176060000Y-91540000D03*
%TO.N,GND*%
X178600000Y-91540000D03*
%TO.N,/UART_TX*%
X176060000Y-94080000D03*
%TO.N,/PC9*%
X178600000Y-94080000D03*
%TO.N,GND*%
X176060000Y-96620000D03*
%TO.N,/opSCL*%
X178600000Y-96620000D03*
%TO.N,+5V*%
X176060000Y-99160000D03*
%TO.N,/opSDA*%
X178600000Y-99160000D03*
%TO.N,+5V*%
X176060000Y-101700000D03*
D10*
%TO.N,+3.3VP*%
X178600000Y-101700000D03*
%TD*%
D14*
%TO.N,N/C*%
%TO.C,H4*%
X122500000Y-110500000D03*
%TD*%
%TO.N,N/C*%
%TO.C,H3*%
X177500000Y-110500000D03*
%TD*%
%TO.N,N/C*%
%TO.C,H2*%
X177500000Y-62500000D03*
%TD*%
%TO.N,N/C*%
%TO.C,H1*%
X122500000Y-62500000D03*
%TD*%
D15*
%TO.N,+3V3*%
X127230000Y-85470000D03*
X128180000Y-94830000D03*
%TO.N,GND*%
X158730000Y-86390000D03*
%TO.N,/BSL*%
X128610000Y-84930000D03*
X156080000Y-88430000D03*
%TO.N,GND*%
X164700000Y-91200000D03*
X123800000Y-92010000D03*
X124000000Y-79000000D03*
X124000000Y-75000000D03*
X124000000Y-73000000D03*
X121000000Y-68000000D03*
X124000000Y-68000000D03*
X124000000Y-66000000D03*
X121000000Y-66000000D03*
X163000000Y-89000000D03*
X167000000Y-89000000D03*
X156000000Y-92280000D03*
X158000000Y-92280000D03*
X152000000Y-100000000D03*
X152000000Y-103000000D03*
X157000000Y-103000000D03*
X157000000Y-106000000D03*
X152000000Y-106000000D03*
X126000000Y-100000000D03*
X126000000Y-103000000D03*
X126000000Y-106000000D03*
X145000000Y-86000000D03*
X140000000Y-86000000D03*
X135000000Y-86000000D03*
X145000000Y-100000000D03*
X145000000Y-96000000D03*
X145000000Y-92000000D03*
X140000000Y-92000000D03*
X140000000Y-96000000D03*
X140000000Y-100000000D03*
X135000000Y-92000000D03*
X135000000Y-96000000D03*
X135000000Y-100000000D03*
X135210000Y-104000000D03*
X138000000Y-104000000D03*
X141000000Y-104000000D03*
X144000000Y-104000000D03*
X147000000Y-104000000D03*
X147000000Y-106000000D03*
X144000000Y-106000000D03*
X141000000Y-106000000D03*
X138000000Y-106000000D03*
X133560000Y-106120000D03*
X135210000Y-106000000D03*
X132450000Y-105000000D03*
X131330000Y-105010000D03*
X130220000Y-105030000D03*
X129240000Y-106140000D03*
X163380000Y-91200000D03*
X162280000Y-92280000D03*
X166060000Y-92050000D03*
X167410000Y-92050000D03*
X168830000Y-92060000D03*
X171590000Y-99230000D03*
X172070000Y-94150000D03*
X173010000Y-94150000D03*
X173950000Y-94140000D03*
X173310000Y-91390000D03*
X172370000Y-91400000D03*
X171260000Y-92060000D03*
X170210000Y-92100000D03*
X173080000Y-111830000D03*
%TO.N,+3V3*%
X174370000Y-110070000D03*
X154390000Y-87190000D03*
X153160000Y-88190000D03*
X163725000Y-98175000D03*
X166050000Y-98600000D03*
%TO.N,GND*%
X154400000Y-85300000D03*
%TO.N,{slash}RESET*%
X163659970Y-103625000D03*
%TO.N,+3V3*%
X165800000Y-110825000D03*
X162825000Y-94000000D03*
X162850000Y-96375000D03*
X164100000Y-93900000D03*
X164175000Y-96500000D03*
X162475000Y-95225000D03*
%TO.N,/UART_TX*%
X151900000Y-92925000D03*
%TO.N,/UART_RX*%
X150750000Y-91825000D03*
%TO.N,XDS_TDO*%
X168148000Y-105156000D03*
%TO.N,XDS_TDI*%
X135890000Y-89408000D03*
%TO.N,XDS_TDO*%
X134620000Y-88138000D03*
%TD*%
%TA.AperFunction,Conductor*%
%TO.N,GND*%
G36*
X124947716Y-64059860D02*
G01*
X124986596Y-64119264D01*
X124992000Y-64155768D01*
X124992000Y-83991298D01*
X124991998Y-83992068D01*
X124991524Y-84069652D01*
X124993990Y-84078281D01*
X124993991Y-84078286D01*
X124999639Y-84098048D01*
X125003217Y-84114809D01*
X125006130Y-84135152D01*
X125006133Y-84135162D01*
X125007405Y-84144045D01*
X125018021Y-84167395D01*
X125024464Y-84184907D01*
X125031512Y-84209565D01*
X125047274Y-84234548D01*
X125055404Y-84249614D01*
X125067633Y-84276510D01*
X125084374Y-84295939D01*
X125095479Y-84310947D01*
X125109160Y-84332631D01*
X125115888Y-84338573D01*
X125131296Y-84352181D01*
X125143340Y-84364373D01*
X125162619Y-84386747D01*
X125170147Y-84391626D01*
X125170150Y-84391629D01*
X125184139Y-84400696D01*
X125199013Y-84411986D01*
X125218228Y-84428956D01*
X125226354Y-84432771D01*
X125226355Y-84432772D01*
X125232021Y-84435432D01*
X125244966Y-84441510D01*
X125259935Y-84449824D01*
X125284727Y-84465893D01*
X125293327Y-84468465D01*
X125309290Y-84473239D01*
X125326736Y-84479901D01*
X125349948Y-84490799D01*
X125379130Y-84495343D01*
X125395849Y-84499126D01*
X125415536Y-84505014D01*
X125415539Y-84505015D01*
X125424141Y-84507587D01*
X125433116Y-84507642D01*
X125433117Y-84507642D01*
X125439810Y-84507683D01*
X125458556Y-84507797D01*
X125459328Y-84507830D01*
X125460423Y-84508000D01*
X125491298Y-84508000D01*
X125492068Y-84508002D01*
X125565716Y-84508452D01*
X125565717Y-84508452D01*
X125569652Y-84508476D01*
X125570996Y-84508092D01*
X125572341Y-84508000D01*
X126620659Y-84508000D01*
X126688780Y-84528002D01*
X126735273Y-84581658D01*
X126745377Y-84651932D01*
X126715883Y-84716512D01*
X126694720Y-84735936D01*
X126679994Y-84746635D01*
X126618747Y-84791134D01*
X126614326Y-84796044D01*
X126614325Y-84796045D01*
X126607623Y-84803489D01*
X126490960Y-84933056D01*
X126447632Y-85008102D01*
X126400792Y-85089232D01*
X126395473Y-85098444D01*
X126336458Y-85280072D01*
X126335768Y-85286633D01*
X126335768Y-85286635D01*
X126320670Y-85430283D01*
X126316496Y-85470000D01*
X126317186Y-85476565D01*
X126335051Y-85646538D01*
X126336458Y-85659928D01*
X126345264Y-85687030D01*
X126347293Y-85757996D01*
X126310632Y-85818794D01*
X126246921Y-85850121D01*
X126176387Y-85842030D01*
X126147343Y-85824852D01*
X126138411Y-85817798D01*
X126138410Y-85817798D01*
X126134359Y-85814598D01*
X126108984Y-85800590D01*
X125969883Y-85723803D01*
X125938789Y-85706638D01*
X125933920Y-85704914D01*
X125933916Y-85704912D01*
X125733087Y-85633795D01*
X125733083Y-85633794D01*
X125728212Y-85632069D01*
X125723119Y-85631162D01*
X125723116Y-85631161D01*
X125513373Y-85593800D01*
X125513367Y-85593799D01*
X125508284Y-85592894D01*
X125434452Y-85591992D01*
X125290081Y-85590228D01*
X125290079Y-85590228D01*
X125284911Y-85590165D01*
X125064091Y-85623955D01*
X124851756Y-85693357D01*
X124821443Y-85709137D01*
X124681502Y-85781986D01*
X124653607Y-85796507D01*
X124649474Y-85799610D01*
X124649471Y-85799612D01*
X124534810Y-85885702D01*
X124474965Y-85930635D01*
X124320629Y-86092138D01*
X124194743Y-86276680D01*
X124167157Y-86336109D01*
X124117371Y-86443365D01*
X124100688Y-86479305D01*
X124040989Y-86694570D01*
X124017251Y-86916695D01*
X124017548Y-86921848D01*
X124017548Y-86921851D01*
X124023670Y-87028028D01*
X124030110Y-87139715D01*
X124031247Y-87144761D01*
X124031248Y-87144767D01*
X124049675Y-87226531D01*
X124079222Y-87357639D01*
X124117461Y-87451811D01*
X124159093Y-87554338D01*
X124163266Y-87564616D01*
X124189100Y-87606774D01*
X124264089Y-87729144D01*
X124279987Y-87755088D01*
X124426250Y-87923938D01*
X124598126Y-88066632D01*
X124627239Y-88083644D01*
X124671445Y-88109476D01*
X124720169Y-88161114D01*
X124733240Y-88230897D01*
X124706509Y-88296669D01*
X124666055Y-88330027D01*
X124653607Y-88336507D01*
X124649474Y-88339610D01*
X124649471Y-88339612D01*
X124520342Y-88436565D01*
X124474965Y-88470635D01*
X124320629Y-88632138D01*
X124194743Y-88816680D01*
X124166187Y-88878199D01*
X124105859Y-89008166D01*
X124100688Y-89019305D01*
X124040989Y-89234570D01*
X124017251Y-89456695D01*
X124017548Y-89461848D01*
X124017548Y-89461851D01*
X124023011Y-89556590D01*
X124030110Y-89679715D01*
X124031247Y-89684761D01*
X124031248Y-89684767D01*
X124051119Y-89772939D01*
X124079222Y-89897639D01*
X124117461Y-89991811D01*
X124156059Y-90086866D01*
X124163266Y-90104616D01*
X124172229Y-90119242D01*
X124264089Y-90269144D01*
X124279987Y-90295088D01*
X124426250Y-90463938D01*
X124598126Y-90606632D01*
X124671955Y-90649774D01*
X124720679Y-90701412D01*
X124733750Y-90771195D01*
X124707019Y-90836967D01*
X124666562Y-90870327D01*
X124658457Y-90874546D01*
X124649738Y-90880036D01*
X124479433Y-91007905D01*
X124471726Y-91014748D01*
X124324590Y-91168717D01*
X124318104Y-91176727D01*
X124198098Y-91352649D01*
X124193000Y-91361623D01*
X124103338Y-91554783D01*
X124099775Y-91564470D01*
X124044389Y-91764183D01*
X124045912Y-91772607D01*
X124058292Y-91776000D01*
X126698344Y-91776000D01*
X126711875Y-91772027D01*
X126713180Y-91762947D01*
X126671214Y-91595875D01*
X126667894Y-91586124D01*
X126582972Y-91390814D01*
X126578105Y-91381739D01*
X126462426Y-91202926D01*
X126456136Y-91194757D01*
X126312806Y-91037240D01*
X126305273Y-91030215D01*
X126138139Y-90898222D01*
X126129556Y-90892520D01*
X126092602Y-90872120D01*
X126042631Y-90821687D01*
X126027859Y-90752245D01*
X126052975Y-90685839D01*
X126080327Y-90659232D01*
X126103797Y-90642491D01*
X126259860Y-90531173D01*
X126266308Y-90524748D01*
X126401491Y-90390036D01*
X126418096Y-90373489D01*
X126460033Y-90315128D01*
X126545435Y-90196277D01*
X126548453Y-90192077D01*
X126558922Y-90170896D01*
X126645136Y-89996453D01*
X126645137Y-89996451D01*
X126647430Y-89991811D01*
X126686417Y-89863489D01*
X126710865Y-89783023D01*
X126710865Y-89783021D01*
X126712370Y-89778069D01*
X126741529Y-89556590D01*
X126741611Y-89553240D01*
X126743074Y-89493365D01*
X126743074Y-89493361D01*
X126743156Y-89490000D01*
X126724852Y-89267361D01*
X126670431Y-89050702D01*
X126581354Y-88845840D01*
X126519163Y-88749707D01*
X126462822Y-88662617D01*
X126462820Y-88662614D01*
X126460014Y-88658277D01*
X126309670Y-88493051D01*
X126305619Y-88489852D01*
X126305615Y-88489848D01*
X126138414Y-88357800D01*
X126138410Y-88357798D01*
X126134359Y-88354598D01*
X126093053Y-88331796D01*
X126043084Y-88281364D01*
X126028312Y-88211921D01*
X126053428Y-88145516D01*
X126061154Y-88138000D01*
X133706496Y-88138000D01*
X133707186Y-88144565D01*
X133723483Y-88299618D01*
X133726458Y-88327928D01*
X133785473Y-88509556D01*
X133880960Y-88674944D01*
X133885378Y-88679851D01*
X133885379Y-88679852D01*
X133959815Y-88762522D01*
X134008747Y-88816866D01*
X134163248Y-88929118D01*
X134169276Y-88931802D01*
X134169278Y-88931803D01*
X134277531Y-88980000D01*
X134337712Y-89006794D01*
X134420057Y-89024297D01*
X134518056Y-89045128D01*
X134518061Y-89045128D01*
X134524513Y-89046500D01*
X134715487Y-89046500D01*
X134721939Y-89045128D01*
X134721944Y-89045128D01*
X134863716Y-89014993D01*
X134934507Y-89020395D01*
X134991139Y-89063212D01*
X135015633Y-89129850D01*
X135009746Y-89177176D01*
X134996458Y-89218072D01*
X134995768Y-89224633D01*
X134995768Y-89224635D01*
X134991203Y-89268069D01*
X134976496Y-89408000D01*
X134996458Y-89597928D01*
X135055473Y-89779556D01*
X135058776Y-89785278D01*
X135058777Y-89785279D01*
X135067674Y-89800689D01*
X135150960Y-89944944D01*
X135155378Y-89949851D01*
X135155379Y-89949852D01*
X135193159Y-89991811D01*
X135278747Y-90086866D01*
X135433248Y-90199118D01*
X135439276Y-90201802D01*
X135439278Y-90201803D01*
X135590597Y-90269174D01*
X135607712Y-90276794D01*
X135693778Y-90295088D01*
X135788056Y-90315128D01*
X135788061Y-90315128D01*
X135794513Y-90316500D01*
X135985487Y-90316500D01*
X135991939Y-90315128D01*
X135991944Y-90315128D01*
X136086222Y-90295088D01*
X136172288Y-90276794D01*
X136189403Y-90269174D01*
X136340722Y-90201803D01*
X136340724Y-90201802D01*
X136346752Y-90199118D01*
X136501253Y-90086866D01*
X136586841Y-89991811D01*
X136624621Y-89949852D01*
X136624622Y-89949851D01*
X136629040Y-89944944D01*
X136712326Y-89800689D01*
X136721223Y-89785279D01*
X136721224Y-89785278D01*
X136724527Y-89779556D01*
X136783542Y-89597928D01*
X136803504Y-89408000D01*
X136788797Y-89268069D01*
X136784232Y-89224635D01*
X136784232Y-89224633D01*
X136783542Y-89218072D01*
X136724527Y-89036444D01*
X136629040Y-88871056D01*
X136610613Y-88850590D01*
X136505675Y-88734045D01*
X136505674Y-88734044D01*
X136501253Y-88729134D01*
X136367750Y-88632138D01*
X136352094Y-88620763D01*
X136352093Y-88620762D01*
X136346752Y-88616882D01*
X136340724Y-88614198D01*
X136340722Y-88614197D01*
X136178319Y-88541891D01*
X136178318Y-88541891D01*
X136172288Y-88539206D01*
X136059721Y-88515279D01*
X135991944Y-88500872D01*
X135991939Y-88500872D01*
X135985487Y-88499500D01*
X135794513Y-88499500D01*
X135788061Y-88500872D01*
X135788056Y-88500872D01*
X135646284Y-88531007D01*
X135575493Y-88525605D01*
X135518861Y-88482788D01*
X135494367Y-88416150D01*
X135500254Y-88368824D01*
X135509428Y-88340590D01*
X135513542Y-88327928D01*
X135516518Y-88299618D01*
X135528039Y-88190000D01*
X152246496Y-88190000D01*
X152247186Y-88196565D01*
X152263534Y-88352104D01*
X152266458Y-88379928D01*
X152325473Y-88561556D01*
X152420960Y-88726944D01*
X152425378Y-88731851D01*
X152425379Y-88731852D01*
X152501926Y-88816866D01*
X152548747Y-88868866D01*
X152635372Y-88931803D01*
X152683397Y-88966695D01*
X152703248Y-88981118D01*
X152709276Y-88983802D01*
X152709278Y-88983803D01*
X152871681Y-89056109D01*
X152877712Y-89058794D01*
X152971113Y-89078647D01*
X153058056Y-89097128D01*
X153058061Y-89097128D01*
X153064513Y-89098500D01*
X153255487Y-89098500D01*
X153261939Y-89097128D01*
X153261944Y-89097128D01*
X153348887Y-89078647D01*
X153442288Y-89058794D01*
X153448319Y-89056109D01*
X153610722Y-88983803D01*
X153610724Y-88983802D01*
X153616752Y-88981118D01*
X153636604Y-88966695D01*
X153684628Y-88931803D01*
X153771253Y-88868866D01*
X153818074Y-88816866D01*
X153894621Y-88731852D01*
X153894622Y-88731851D01*
X153899040Y-88726944D01*
X153994527Y-88561556D01*
X154037272Y-88430000D01*
X155166496Y-88430000D01*
X155167186Y-88436565D01*
X155178659Y-88545720D01*
X155186458Y-88619928D01*
X155245473Y-88801556D01*
X155248776Y-88807278D01*
X155248777Y-88807279D01*
X155268530Y-88841492D01*
X155340960Y-88966944D01*
X155345378Y-88971851D01*
X155345379Y-88971852D01*
X155415661Y-89049908D01*
X155468747Y-89108866D01*
X155497629Y-89129850D01*
X155610415Y-89211794D01*
X155623248Y-89221118D01*
X155629276Y-89223802D01*
X155629278Y-89223803D01*
X155739829Y-89273023D01*
X155797712Y-89298794D01*
X155891113Y-89318647D01*
X155978056Y-89337128D01*
X155978061Y-89337128D01*
X155984513Y-89338500D01*
X156175487Y-89338500D01*
X156181939Y-89337128D01*
X156181944Y-89337128D01*
X156268887Y-89318647D01*
X156362288Y-89298794D01*
X156420171Y-89273023D01*
X156530722Y-89223803D01*
X156530724Y-89223802D01*
X156536752Y-89221118D01*
X156549586Y-89211794D01*
X156662371Y-89129850D01*
X156691253Y-89108866D01*
X156744339Y-89049908D01*
X156814621Y-88971852D01*
X156814622Y-88971851D01*
X156819040Y-88966944D01*
X156891470Y-88841492D01*
X156911223Y-88807279D01*
X156911224Y-88807278D01*
X156914527Y-88801556D01*
X156973542Y-88619928D01*
X156981342Y-88545720D01*
X156992814Y-88436565D01*
X156993504Y-88430000D01*
X156988241Y-88379928D01*
X156974232Y-88246635D01*
X156974232Y-88246633D01*
X156973542Y-88240072D01*
X156914527Y-88058444D01*
X156901786Y-88036375D01*
X156852406Y-87950848D01*
X156819040Y-87893056D01*
X156796300Y-87867800D01*
X156695675Y-87756045D01*
X156695674Y-87756044D01*
X156691253Y-87751134D01*
X156591635Y-87678757D01*
X156542094Y-87642763D01*
X156542093Y-87642762D01*
X156536752Y-87638882D01*
X156530724Y-87636198D01*
X156530722Y-87636197D01*
X156368319Y-87563891D01*
X156368318Y-87563891D01*
X156362288Y-87561206D01*
X156254341Y-87538261D01*
X156181944Y-87522872D01*
X156181939Y-87522872D01*
X156175487Y-87521500D01*
X155984513Y-87521500D01*
X155978061Y-87522872D01*
X155978056Y-87522872D01*
X155905659Y-87538261D01*
X155797712Y-87561206D01*
X155791682Y-87563891D01*
X155791681Y-87563891D01*
X155629278Y-87636197D01*
X155629276Y-87636198D01*
X155623248Y-87638882D01*
X155617907Y-87642762D01*
X155617906Y-87642763D01*
X155568365Y-87678757D01*
X155468747Y-87751134D01*
X155464326Y-87756044D01*
X155464325Y-87756045D01*
X155363701Y-87867800D01*
X155340960Y-87893056D01*
X155307594Y-87950848D01*
X155258215Y-88036375D01*
X155245473Y-88058444D01*
X155186458Y-88240072D01*
X155185768Y-88246633D01*
X155185768Y-88246635D01*
X155171759Y-88379928D01*
X155166496Y-88430000D01*
X154037272Y-88430000D01*
X154053542Y-88379928D01*
X154056467Y-88352104D01*
X154073113Y-88193721D01*
X154100126Y-88128064D01*
X154158348Y-88087434D01*
X154224620Y-88083644D01*
X154288056Y-88097128D01*
X154288061Y-88097128D01*
X154294513Y-88098500D01*
X154485487Y-88098500D01*
X154491939Y-88097128D01*
X154491944Y-88097128D01*
X154578888Y-88078647D01*
X154672288Y-88058794D01*
X154678319Y-88056109D01*
X154840722Y-87983803D01*
X154840724Y-87983802D01*
X154846752Y-87981118D01*
X155001253Y-87868866D01*
X155051806Y-87812721D01*
X155124621Y-87731852D01*
X155124622Y-87731851D01*
X155129040Y-87726944D01*
X155191244Y-87619203D01*
X155221223Y-87567279D01*
X155221224Y-87567278D01*
X155224527Y-87561556D01*
X155283542Y-87379928D01*
X155284713Y-87368792D01*
X155300022Y-87223134D01*
X163116500Y-87223134D01*
X163123255Y-87285316D01*
X163174385Y-87421705D01*
X163261739Y-87538261D01*
X163378295Y-87625615D01*
X163514684Y-87676745D01*
X163576866Y-87683500D01*
X165373134Y-87683500D01*
X165435316Y-87676745D01*
X165571705Y-87625615D01*
X165688261Y-87538261D01*
X165775615Y-87421705D01*
X165797838Y-87362425D01*
X165819598Y-87304382D01*
X165862240Y-87247618D01*
X165928802Y-87222918D01*
X165998150Y-87238126D01*
X166032817Y-87266114D01*
X166061250Y-87298938D01*
X166131956Y-87357639D01*
X166223859Y-87433938D01*
X166233126Y-87441632D01*
X166426000Y-87554338D01*
X166430825Y-87556180D01*
X166430826Y-87556181D01*
X166443985Y-87561206D01*
X166634692Y-87634030D01*
X166639760Y-87635061D01*
X166639763Y-87635062D01*
X166723395Y-87652077D01*
X166853597Y-87678567D01*
X166858772Y-87678757D01*
X166858774Y-87678757D01*
X167071673Y-87686564D01*
X167071677Y-87686564D01*
X167076837Y-87686753D01*
X167081957Y-87686097D01*
X167081959Y-87686097D01*
X167293288Y-87659025D01*
X167293289Y-87659025D01*
X167298416Y-87658368D01*
X167303366Y-87656883D01*
X167507429Y-87595661D01*
X167507434Y-87595659D01*
X167512384Y-87594174D01*
X167712994Y-87495896D01*
X167894860Y-87366173D01*
X167937694Y-87323489D01*
X168028560Y-87232939D01*
X168053096Y-87208489D01*
X168069056Y-87186279D01*
X168183453Y-87027077D01*
X168184776Y-87028028D01*
X168231645Y-86984857D01*
X168301580Y-86972625D01*
X168367026Y-87000144D01*
X168394875Y-87031994D01*
X168454987Y-87130088D01*
X168458367Y-87133990D01*
X168458963Y-87134678D01*
X168601250Y-87298938D01*
X168671956Y-87357639D01*
X168763859Y-87433938D01*
X168773126Y-87441632D01*
X168966000Y-87554338D01*
X168970825Y-87556180D01*
X168970826Y-87556181D01*
X168983985Y-87561206D01*
X169174692Y-87634030D01*
X169179760Y-87635061D01*
X169179763Y-87635062D01*
X169263395Y-87652077D01*
X169393597Y-87678567D01*
X169398772Y-87678757D01*
X169398774Y-87678757D01*
X169611673Y-87686564D01*
X169611677Y-87686564D01*
X169616837Y-87686753D01*
X169621957Y-87686097D01*
X169621959Y-87686097D01*
X169833288Y-87659025D01*
X169833289Y-87659025D01*
X169838416Y-87658368D01*
X169843366Y-87656883D01*
X170047429Y-87595661D01*
X170047434Y-87595659D01*
X170052384Y-87594174D01*
X170252994Y-87495896D01*
X170434860Y-87366173D01*
X170477694Y-87323489D01*
X170568560Y-87232939D01*
X170593096Y-87208489D01*
X170609056Y-87186279D01*
X170723453Y-87027077D01*
X170724640Y-87027930D01*
X170771960Y-86984362D01*
X170841897Y-86972145D01*
X170907338Y-86999678D01*
X170935166Y-87031511D01*
X170992694Y-87125388D01*
X170998777Y-87133699D01*
X171138213Y-87294667D01*
X171145580Y-87301883D01*
X171309434Y-87437916D01*
X171317881Y-87443831D01*
X171501756Y-87551279D01*
X171511042Y-87555729D01*
X171710001Y-87631703D01*
X171719899Y-87634579D01*
X171823250Y-87655606D01*
X171837299Y-87654410D01*
X171841000Y-87644065D01*
X171841000Y-87643517D01*
X172349000Y-87643517D01*
X172353064Y-87657359D01*
X172366478Y-87659393D01*
X172373184Y-87658534D01*
X172383262Y-87656392D01*
X172587255Y-87595191D01*
X172596842Y-87591433D01*
X172788095Y-87497739D01*
X172796945Y-87492464D01*
X172970328Y-87368792D01*
X172978200Y-87362139D01*
X173129052Y-87211812D01*
X173135730Y-87203965D01*
X173260003Y-87031020D01*
X173265313Y-87022183D01*
X173359670Y-86831267D01*
X173363469Y-86821672D01*
X173425377Y-86617910D01*
X173427555Y-86607837D01*
X173428986Y-86596962D01*
X173426775Y-86582778D01*
X173413617Y-86579000D01*
X172367115Y-86579000D01*
X172351876Y-86583475D01*
X172350671Y-86584865D01*
X172349000Y-86592548D01*
X172349000Y-87643517D01*
X171841000Y-87643517D01*
X171841000Y-86052885D01*
X172349000Y-86052885D01*
X172353475Y-86068124D01*
X172354865Y-86069329D01*
X172362548Y-86071000D01*
X173413344Y-86071000D01*
X173426875Y-86067027D01*
X173428180Y-86057947D01*
X173386214Y-85890875D01*
X173382894Y-85881124D01*
X173297972Y-85685814D01*
X173293105Y-85676739D01*
X173177426Y-85497926D01*
X173171136Y-85489757D01*
X173027806Y-85332240D01*
X173020273Y-85325215D01*
X172853139Y-85193222D01*
X172844552Y-85187517D01*
X172658117Y-85084599D01*
X172648705Y-85080369D01*
X172447959Y-85009280D01*
X172437988Y-85006646D01*
X172366837Y-84993972D01*
X172353540Y-84995432D01*
X172349000Y-85009989D01*
X172349000Y-86052885D01*
X171841000Y-86052885D01*
X171841000Y-85008102D01*
X171837082Y-84994758D01*
X171822806Y-84992771D01*
X171784324Y-84998660D01*
X171774288Y-85001051D01*
X171571868Y-85067212D01*
X171562359Y-85071209D01*
X171373463Y-85169542D01*
X171364738Y-85175036D01*
X171194433Y-85302905D01*
X171186726Y-85309748D01*
X171039590Y-85463717D01*
X171033109Y-85471722D01*
X170928498Y-85625074D01*
X170873587Y-85670076D01*
X170803062Y-85678247D01*
X170739315Y-85646993D01*
X170718618Y-85622509D01*
X170637822Y-85497617D01*
X170637820Y-85497614D01*
X170635014Y-85493277D01*
X170484670Y-85328051D01*
X170480619Y-85324852D01*
X170480615Y-85324848D01*
X170313414Y-85192800D01*
X170313410Y-85192798D01*
X170309359Y-85189598D01*
X170298054Y-85183357D01*
X170236428Y-85149338D01*
X170113789Y-85081638D01*
X170108920Y-85079914D01*
X170108916Y-85079912D01*
X169908087Y-85008795D01*
X169908083Y-85008794D01*
X169903212Y-85007069D01*
X169898119Y-85006162D01*
X169898116Y-85006161D01*
X169688373Y-84968800D01*
X169688367Y-84968799D01*
X169683284Y-84967894D01*
X169609452Y-84966992D01*
X169465081Y-84965228D01*
X169465079Y-84965228D01*
X169459911Y-84965165D01*
X169239091Y-84998955D01*
X169026756Y-85068357D01*
X168986656Y-85089232D01*
X168847022Y-85161921D01*
X168828607Y-85171507D01*
X168824474Y-85174610D01*
X168824471Y-85174612D01*
X168654100Y-85302530D01*
X168649965Y-85305635D01*
X168646035Y-85309748D01*
X168501279Y-85461226D01*
X168495629Y-85467138D01*
X168388201Y-85624621D01*
X168333293Y-85669621D01*
X168262768Y-85677792D01*
X168199021Y-85646538D01*
X168178324Y-85622054D01*
X168097822Y-85497617D01*
X168097820Y-85497614D01*
X168095014Y-85493277D01*
X167944670Y-85328051D01*
X167940619Y-85324852D01*
X167940615Y-85324848D01*
X167773414Y-85192800D01*
X167773410Y-85192798D01*
X167769359Y-85189598D01*
X167758054Y-85183357D01*
X167696428Y-85149338D01*
X167573789Y-85081638D01*
X167568920Y-85079914D01*
X167568916Y-85079912D01*
X167368087Y-85008795D01*
X167368083Y-85008794D01*
X167363212Y-85007069D01*
X167358119Y-85006162D01*
X167358116Y-85006161D01*
X167148373Y-84968800D01*
X167148367Y-84968799D01*
X167143284Y-84967894D01*
X167069452Y-84966992D01*
X166925081Y-84965228D01*
X166925079Y-84965228D01*
X166919911Y-84965165D01*
X166699091Y-84998955D01*
X166486756Y-85068357D01*
X166446656Y-85089232D01*
X166307022Y-85161921D01*
X166288607Y-85171507D01*
X166284474Y-85174610D01*
X166284471Y-85174612D01*
X166114100Y-85302530D01*
X166109965Y-85305635D01*
X166053537Y-85364684D01*
X166029283Y-85390064D01*
X165967759Y-85425494D01*
X165896846Y-85422037D01*
X165839060Y-85380791D01*
X165820207Y-85347243D01*
X165778767Y-85236703D01*
X165775615Y-85228295D01*
X165688261Y-85111739D01*
X165571705Y-85024385D01*
X165435316Y-84973255D01*
X165373134Y-84966500D01*
X163576866Y-84966500D01*
X163514684Y-84973255D01*
X163378295Y-85024385D01*
X163261739Y-85111739D01*
X163174385Y-85228295D01*
X163123255Y-85364684D01*
X163116500Y-85426866D01*
X163116500Y-87223134D01*
X155300022Y-87223134D01*
X155302814Y-87196565D01*
X155303504Y-87190000D01*
X155297980Y-87137438D01*
X155284232Y-87006635D01*
X155284232Y-87006633D01*
X155283542Y-87000072D01*
X155224527Y-86818444D01*
X155129040Y-86653056D01*
X155097395Y-86617910D01*
X155005675Y-86516045D01*
X155005674Y-86516044D01*
X155001253Y-86511134D01*
X154846752Y-86398882D01*
X154840724Y-86396198D01*
X154840722Y-86396197D01*
X154678319Y-86323891D01*
X154678318Y-86323891D01*
X154672288Y-86321206D01*
X154578888Y-86301353D01*
X154491944Y-86282872D01*
X154491939Y-86282872D01*
X154485487Y-86281500D01*
X154294513Y-86281500D01*
X154288061Y-86282872D01*
X154288056Y-86282872D01*
X154201113Y-86301353D01*
X154107712Y-86321206D01*
X154101682Y-86323891D01*
X154101681Y-86323891D01*
X153939278Y-86396197D01*
X153939276Y-86396198D01*
X153933248Y-86398882D01*
X153778747Y-86511134D01*
X153774326Y-86516044D01*
X153774325Y-86516045D01*
X153682606Y-86617910D01*
X153650960Y-86653056D01*
X153555473Y-86818444D01*
X153496458Y-87000072D01*
X153495768Y-87006633D01*
X153495768Y-87006635D01*
X153476887Y-87186279D01*
X153449874Y-87251936D01*
X153391652Y-87292566D01*
X153325380Y-87296356D01*
X153261944Y-87282872D01*
X153261939Y-87282872D01*
X153255487Y-87281500D01*
X153064513Y-87281500D01*
X153058061Y-87282872D01*
X153058056Y-87282872D01*
X153000850Y-87295032D01*
X152877712Y-87321206D01*
X152871682Y-87323891D01*
X152871681Y-87323891D01*
X152709278Y-87396197D01*
X152709276Y-87396198D01*
X152703248Y-87398882D01*
X152697907Y-87402762D01*
X152697906Y-87402763D01*
X152671835Y-87421705D01*
X152548747Y-87511134D01*
X152544326Y-87516044D01*
X152544325Y-87516045D01*
X152429056Y-87644065D01*
X152420960Y-87653056D01*
X152325473Y-87818444D01*
X152266458Y-88000072D01*
X152265768Y-88006633D01*
X152265768Y-88006635D01*
X152262642Y-88036375D01*
X152246496Y-88190000D01*
X135528039Y-88190000D01*
X135532814Y-88144565D01*
X135533504Y-88138000D01*
X135525179Y-88058794D01*
X135514232Y-87954635D01*
X135514232Y-87954633D01*
X135513542Y-87948072D01*
X135454527Y-87766444D01*
X135450224Y-87758990D01*
X135408408Y-87686564D01*
X135359040Y-87601056D01*
X135354183Y-87595661D01*
X135235675Y-87464045D01*
X135235674Y-87464044D01*
X135231253Y-87459134D01*
X135107430Y-87369171D01*
X135082094Y-87350763D01*
X135082093Y-87350762D01*
X135076752Y-87346882D01*
X135070724Y-87344198D01*
X135070722Y-87344197D01*
X134908319Y-87271891D01*
X134908318Y-87271891D01*
X134902288Y-87269206D01*
X134800725Y-87247618D01*
X134721944Y-87230872D01*
X134721939Y-87230872D01*
X134715487Y-87229500D01*
X134524513Y-87229500D01*
X134518061Y-87230872D01*
X134518056Y-87230872D01*
X134439275Y-87247618D01*
X134337712Y-87269206D01*
X134331682Y-87271891D01*
X134331681Y-87271891D01*
X134169278Y-87344197D01*
X134169276Y-87344198D01*
X134163248Y-87346882D01*
X134157907Y-87350762D01*
X134157906Y-87350763D01*
X134132570Y-87369171D01*
X134008747Y-87459134D01*
X134004326Y-87464044D01*
X134004325Y-87464045D01*
X133885818Y-87595661D01*
X133880960Y-87601056D01*
X133831592Y-87686564D01*
X133789777Y-87758990D01*
X133785473Y-87766444D01*
X133726458Y-87948072D01*
X133725768Y-87954633D01*
X133725768Y-87954635D01*
X133714821Y-88058794D01*
X133706496Y-88138000D01*
X126061154Y-88138000D01*
X126080780Y-88118909D01*
X126130220Y-88083644D01*
X126259860Y-87991173D01*
X126268011Y-87983051D01*
X126363246Y-87888148D01*
X126418096Y-87833489D01*
X126466273Y-87766444D01*
X126545435Y-87656277D01*
X126548453Y-87652077D01*
X126552992Y-87642894D01*
X126645136Y-87456453D01*
X126645137Y-87456451D01*
X126647430Y-87451811D01*
X126687528Y-87319834D01*
X126710865Y-87243023D01*
X126710865Y-87243021D01*
X126712370Y-87238069D01*
X126741529Y-87016590D01*
X126742086Y-86993794D01*
X126743074Y-86953365D01*
X126743074Y-86953361D01*
X126743156Y-86950000D01*
X126724852Y-86727361D01*
X126670431Y-86510702D01*
X126640371Y-86441569D01*
X126631551Y-86371124D01*
X126662218Y-86307092D01*
X126722634Y-86269804D01*
X126793619Y-86271100D01*
X126807170Y-86276221D01*
X126908209Y-86321206D01*
X126947712Y-86338794D01*
X127041113Y-86358647D01*
X127128056Y-86377128D01*
X127128061Y-86377128D01*
X127134513Y-86378500D01*
X127325487Y-86378500D01*
X127331939Y-86377128D01*
X127331944Y-86377128D01*
X127418887Y-86358647D01*
X127512288Y-86338794D01*
X127545761Y-86323891D01*
X127680722Y-86263803D01*
X127680724Y-86263802D01*
X127686752Y-86261118D01*
X127841253Y-86148866D01*
X127845675Y-86143955D01*
X127964621Y-86011852D01*
X127964622Y-86011851D01*
X127969040Y-86006944D01*
X128064527Y-85841556D01*
X128066567Y-85835278D01*
X128066570Y-85835271D01*
X128066685Y-85834916D01*
X128066807Y-85834737D01*
X128069254Y-85829242D01*
X128070259Y-85829689D01*
X128106760Y-85776311D01*
X128172157Y-85748676D01*
X128237765Y-85758748D01*
X128321677Y-85796108D01*
X128321685Y-85796111D01*
X128327712Y-85798794D01*
X128395675Y-85813240D01*
X128508056Y-85837128D01*
X128508061Y-85837128D01*
X128514513Y-85838500D01*
X128705487Y-85838500D01*
X128711939Y-85837128D01*
X128711944Y-85837128D01*
X128824325Y-85813240D01*
X128892288Y-85798794D01*
X128902791Y-85794118D01*
X129060722Y-85723803D01*
X129060724Y-85723802D01*
X129066752Y-85721118D01*
X129083243Y-85709137D01*
X129150972Y-85659928D01*
X129221253Y-85608866D01*
X129230676Y-85598401D01*
X129344621Y-85471852D01*
X129344622Y-85471851D01*
X129349040Y-85466944D01*
X129429230Y-85328051D01*
X129441223Y-85307279D01*
X129441224Y-85307278D01*
X129444527Y-85301556D01*
X129503542Y-85119928D01*
X129505140Y-85104729D01*
X129522814Y-84936565D01*
X129523504Y-84930000D01*
X129503542Y-84740072D01*
X129481728Y-84672936D01*
X129479700Y-84601969D01*
X129516363Y-84541171D01*
X129580075Y-84509845D01*
X129601561Y-84508000D01*
X174491298Y-84508000D01*
X174492069Y-84508002D01*
X174569652Y-84508476D01*
X174578281Y-84506010D01*
X174578286Y-84506009D01*
X174598048Y-84500361D01*
X174614809Y-84496783D01*
X174635152Y-84493870D01*
X174635162Y-84493867D01*
X174644045Y-84492595D01*
X174667395Y-84481979D01*
X174684907Y-84475536D01*
X174697489Y-84471940D01*
X174768484Y-84472452D01*
X174827931Y-84511266D01*
X174842941Y-84533815D01*
X174843266Y-84534616D01*
X174845966Y-84539022D01*
X174845967Y-84539024D01*
X174957291Y-84720688D01*
X174959987Y-84725088D01*
X175106250Y-84893938D01*
X175278126Y-85036632D01*
X175351955Y-85079774D01*
X175400679Y-85131412D01*
X175413750Y-85201195D01*
X175387019Y-85266967D01*
X175346562Y-85300327D01*
X175338457Y-85304546D01*
X175329738Y-85310036D01*
X175159433Y-85437905D01*
X175151726Y-85444748D01*
X175004590Y-85598717D01*
X174998104Y-85606727D01*
X174878098Y-85782649D01*
X174873000Y-85791623D01*
X174783338Y-85984783D01*
X174779775Y-85994470D01*
X174724389Y-86194183D01*
X174725912Y-86202607D01*
X174738292Y-86206000D01*
X176188000Y-86206000D01*
X176256121Y-86226002D01*
X176302614Y-86279658D01*
X176314000Y-86332000D01*
X176314000Y-86588000D01*
X176293998Y-86656121D01*
X176240342Y-86702614D01*
X176188000Y-86714000D01*
X174743225Y-86714000D01*
X174729694Y-86717973D01*
X174728257Y-86727966D01*
X174758565Y-86862446D01*
X174761645Y-86872275D01*
X174841770Y-87069603D01*
X174846413Y-87078794D01*
X174957694Y-87260388D01*
X174963777Y-87268699D01*
X175103213Y-87429667D01*
X175110580Y-87436883D01*
X175274434Y-87572916D01*
X175282881Y-87578831D01*
X175351969Y-87619203D01*
X175400693Y-87670842D01*
X175413764Y-87740625D01*
X175387033Y-87806396D01*
X175346584Y-87839752D01*
X175333607Y-87846507D01*
X175329474Y-87849610D01*
X175329471Y-87849612D01*
X175159100Y-87977530D01*
X175154965Y-87980635D01*
X175151393Y-87984373D01*
X175031842Y-88109476D01*
X175000629Y-88142138D01*
X174997720Y-88146403D01*
X174997714Y-88146411D01*
X174933823Y-88240072D01*
X174874743Y-88326680D01*
X174853073Y-88373365D01*
X174787199Y-88515279D01*
X174780688Y-88529305D01*
X174720989Y-88744570D01*
X174697251Y-88966695D01*
X174697548Y-88971848D01*
X174697548Y-88971851D01*
X174704851Y-89098500D01*
X174710110Y-89189715D01*
X174711247Y-89194761D01*
X174711248Y-89194767D01*
X174734087Y-89296109D01*
X174759222Y-89407639D01*
X174843266Y-89614616D01*
X174881763Y-89677438D01*
X174957291Y-89800688D01*
X174959987Y-89805088D01*
X175106250Y-89973938D01*
X175278126Y-90116632D01*
X175333362Y-90148909D01*
X175351445Y-90159476D01*
X175400169Y-90211114D01*
X175413240Y-90280897D01*
X175386509Y-90346669D01*
X175346055Y-90380027D01*
X175333607Y-90386507D01*
X175329474Y-90389610D01*
X175329471Y-90389612D01*
X175159100Y-90517530D01*
X175154965Y-90520635D01*
X175151393Y-90524373D01*
X175022519Y-90659232D01*
X175000629Y-90682138D01*
X174874743Y-90866680D01*
X174780688Y-91069305D01*
X174720989Y-91284570D01*
X174697251Y-91506695D01*
X174697548Y-91511848D01*
X174697548Y-91511851D01*
X174702049Y-91589908D01*
X174710110Y-91729715D01*
X174711247Y-91734761D01*
X174711248Y-91734767D01*
X174730104Y-91818435D01*
X174759222Y-91947639D01*
X174820673Y-92098976D01*
X174833757Y-92131197D01*
X174843266Y-92154616D01*
X174845965Y-92159020D01*
X174940224Y-92312837D01*
X174959987Y-92345088D01*
X175106250Y-92513938D01*
X175278126Y-92656632D01*
X175333362Y-92688909D01*
X175351445Y-92699476D01*
X175400169Y-92751114D01*
X175413240Y-92820897D01*
X175386509Y-92886669D01*
X175346055Y-92920027D01*
X175333607Y-92926507D01*
X175329474Y-92929610D01*
X175329471Y-92929612D01*
X175164733Y-93053301D01*
X175154965Y-93060635D01*
X175151393Y-93064373D01*
X175015863Y-93206197D01*
X175000629Y-93222138D01*
X174997720Y-93226403D01*
X174997714Y-93226411D01*
X174929748Y-93326045D01*
X174874743Y-93406680D01*
X174839919Y-93481703D01*
X174783213Y-93603866D01*
X174780688Y-93609305D01*
X174720989Y-93824570D01*
X174697251Y-94046695D01*
X174697548Y-94051848D01*
X174697548Y-94051851D01*
X174709812Y-94264547D01*
X174710110Y-94269715D01*
X174711247Y-94274761D01*
X174711248Y-94274767D01*
X174733061Y-94371556D01*
X174759222Y-94487639D01*
X174818569Y-94633794D01*
X174836871Y-94678866D01*
X174843266Y-94694616D01*
X174881763Y-94757438D01*
X174957291Y-94880688D01*
X174959987Y-94885088D01*
X175106250Y-95053938D01*
X175278126Y-95196632D01*
X175315438Y-95218435D01*
X175351955Y-95239774D01*
X175400679Y-95291412D01*
X175413750Y-95361195D01*
X175387019Y-95426967D01*
X175346562Y-95460327D01*
X175338457Y-95464546D01*
X175329738Y-95470036D01*
X175159433Y-95597905D01*
X175151726Y-95604748D01*
X175004590Y-95758717D01*
X174998104Y-95766727D01*
X174878098Y-95942649D01*
X174873000Y-95951623D01*
X174783338Y-96144783D01*
X174779775Y-96154470D01*
X174724389Y-96354183D01*
X174725912Y-96362607D01*
X174738292Y-96366000D01*
X176188000Y-96366000D01*
X176256121Y-96386002D01*
X176302614Y-96439658D01*
X176314000Y-96492000D01*
X176314000Y-96748000D01*
X176293998Y-96816121D01*
X176240342Y-96862614D01*
X176188000Y-96874000D01*
X174743225Y-96874000D01*
X174729694Y-96877973D01*
X174728257Y-96887966D01*
X174758565Y-97022446D01*
X174761645Y-97032275D01*
X174841770Y-97229603D01*
X174846413Y-97238794D01*
X174957694Y-97420388D01*
X174963777Y-97428699D01*
X175103213Y-97589667D01*
X175110580Y-97596883D01*
X175274434Y-97732916D01*
X175282881Y-97738831D01*
X175351969Y-97779203D01*
X175400693Y-97830842D01*
X175413764Y-97900625D01*
X175387033Y-97966396D01*
X175346584Y-97999752D01*
X175333607Y-98006507D01*
X175329474Y-98009610D01*
X175329471Y-98009612D01*
X175164733Y-98133301D01*
X175154965Y-98140635D01*
X175000629Y-98302138D01*
X174997720Y-98306403D01*
X174997714Y-98306411D01*
X174953514Y-98371206D01*
X174874743Y-98486680D01*
X174780688Y-98689305D01*
X174720989Y-98904570D01*
X174697251Y-99126695D01*
X174697548Y-99131848D01*
X174697548Y-99131851D01*
X174702049Y-99209908D01*
X174710110Y-99349715D01*
X174711247Y-99354761D01*
X174711248Y-99354767D01*
X174735304Y-99461508D01*
X174759222Y-99567639D01*
X174843266Y-99774616D01*
X174881763Y-99837438D01*
X174957291Y-99960688D01*
X174959987Y-99965088D01*
X175106250Y-100133938D01*
X175278126Y-100276632D01*
X175292015Y-100284748D01*
X175351445Y-100319476D01*
X175400169Y-100371114D01*
X175413240Y-100440897D01*
X175386509Y-100506669D01*
X175346055Y-100540027D01*
X175333607Y-100546507D01*
X175329474Y-100549610D01*
X175329471Y-100549612D01*
X175159100Y-100677530D01*
X175154965Y-100680635D01*
X175115525Y-100721907D01*
X175061280Y-100778671D01*
X175000629Y-100842138D01*
X174874743Y-101026680D01*
X174780688Y-101229305D01*
X174720989Y-101444570D01*
X174697251Y-101666695D01*
X174697548Y-101671848D01*
X174697548Y-101671851D01*
X174702049Y-101749908D01*
X174710110Y-101889715D01*
X174711247Y-101894761D01*
X174711248Y-101894767D01*
X174735304Y-102001508D01*
X174759222Y-102107639D01*
X174843266Y-102314616D01*
X174845965Y-102319020D01*
X174940164Y-102472739D01*
X174959987Y-102505088D01*
X175106250Y-102673938D01*
X175278126Y-102816632D01*
X175471000Y-102929338D01*
X175475825Y-102931180D01*
X175475826Y-102931181D01*
X175548612Y-102958975D01*
X175679692Y-103009030D01*
X175684760Y-103010061D01*
X175684763Y-103010062D01*
X175792017Y-103031883D01*
X175898597Y-103053567D01*
X175903772Y-103053757D01*
X175903774Y-103053757D01*
X176116673Y-103061564D01*
X176116677Y-103061564D01*
X176121837Y-103061753D01*
X176126957Y-103061097D01*
X176126959Y-103061097D01*
X176338288Y-103034025D01*
X176338289Y-103034025D01*
X176343416Y-103033368D01*
X176348366Y-103031883D01*
X176552429Y-102970661D01*
X176552434Y-102970659D01*
X176557384Y-102969174D01*
X176757994Y-102870896D01*
X176939860Y-102741173D01*
X177048091Y-102633319D01*
X177110462Y-102599404D01*
X177181268Y-102604592D01*
X177238030Y-102647238D01*
X177255012Y-102678341D01*
X177299385Y-102796705D01*
X177386739Y-102913261D01*
X177503295Y-103000615D01*
X177639684Y-103051745D01*
X177701866Y-103058500D01*
X179366000Y-103058500D01*
X179434121Y-103078502D01*
X179480614Y-103132158D01*
X179492000Y-103184500D01*
X179492000Y-108297953D01*
X179471998Y-108366074D01*
X179418342Y-108412567D01*
X179348068Y-108422671D01*
X179287994Y-108396903D01*
X179080172Y-108233070D01*
X179077191Y-108230720D01*
X178793144Y-108057677D01*
X178662259Y-107998167D01*
X178493817Y-107921580D01*
X178493809Y-107921577D01*
X178490365Y-107920011D01*
X178173240Y-107819718D01*
X177950896Y-107777906D01*
X177850087Y-107758949D01*
X177850085Y-107758949D01*
X177846364Y-107758249D01*
X177514470Y-107736496D01*
X177510690Y-107736704D01*
X177510689Y-107736704D01*
X177412918Y-107742085D01*
X177182366Y-107754773D01*
X177178639Y-107755434D01*
X177178635Y-107755434D01*
X176950944Y-107795787D01*
X176854864Y-107812815D01*
X176851239Y-107813920D01*
X176851234Y-107813921D01*
X176643683Y-107877178D01*
X176536707Y-107909782D01*
X176533243Y-107911313D01*
X176533236Y-107911316D01*
X176368137Y-107984306D01*
X176232503Y-108044269D01*
X176229249Y-108046205D01*
X176229243Y-108046208D01*
X175973225Y-108198523D01*
X175946659Y-108214328D01*
X175943658Y-108216643D01*
X175943654Y-108216646D01*
X175935036Y-108223295D01*
X175683316Y-108417496D01*
X175446288Y-108650829D01*
X175239009Y-108910949D01*
X175064481Y-109194086D01*
X175062895Y-109197527D01*
X175039828Y-109247563D01*
X174993144Y-109301052D01*
X174924952Y-109320810D01*
X174851341Y-109296747D01*
X174832094Y-109282763D01*
X174832093Y-109282762D01*
X174826752Y-109278882D01*
X174820724Y-109276198D01*
X174820722Y-109276197D01*
X174658319Y-109203891D01*
X174658318Y-109203891D01*
X174652288Y-109201206D01*
X174558888Y-109181353D01*
X174471944Y-109162872D01*
X174471939Y-109162872D01*
X174465487Y-109161500D01*
X174274513Y-109161500D01*
X174268061Y-109162872D01*
X174268056Y-109162872D01*
X174181113Y-109181353D01*
X174087712Y-109201206D01*
X174081682Y-109203891D01*
X174081681Y-109203891D01*
X173919278Y-109276197D01*
X173919276Y-109276198D01*
X173913248Y-109278882D01*
X173758747Y-109391134D01*
X173754326Y-109396044D01*
X173754325Y-109396045D01*
X173704978Y-109450851D01*
X173630960Y-109533056D01*
X173535473Y-109698444D01*
X173476458Y-109880072D01*
X173456496Y-110070000D01*
X173457186Y-110076565D01*
X173471390Y-110211705D01*
X173476458Y-110259928D01*
X173535473Y-110441556D01*
X173538776Y-110447278D01*
X173538777Y-110447279D01*
X173550645Y-110467834D01*
X173630960Y-110606944D01*
X173635378Y-110611851D01*
X173635379Y-110611852D01*
X173662196Y-110641635D01*
X173758747Y-110748866D01*
X173913248Y-110861118D01*
X173919276Y-110863802D01*
X173919278Y-110863803D01*
X173972386Y-110887448D01*
X174087712Y-110938794D01*
X174181112Y-110958647D01*
X174268056Y-110977128D01*
X174268061Y-110977128D01*
X174274513Y-110978500D01*
X174465487Y-110978500D01*
X174471939Y-110977128D01*
X174471944Y-110977128D01*
X174643878Y-110940582D01*
X174714669Y-110945984D01*
X174771302Y-110988801D01*
X174794255Y-111042490D01*
X174809474Y-111131057D01*
X174810562Y-111134696D01*
X174810563Y-111134699D01*
X174879992Y-111366852D01*
X174904774Y-111449718D01*
X174906287Y-111453189D01*
X174906289Y-111453195D01*
X174975608Y-111612237D01*
X175037666Y-111754622D01*
X175206226Y-112041352D01*
X175208527Y-112044367D01*
X175395651Y-112289558D01*
X175421078Y-112355845D01*
X175406631Y-112425356D01*
X175356897Y-112476022D01*
X175295488Y-112492000D01*
X163876000Y-112492000D01*
X163807879Y-112471998D01*
X163761386Y-112418342D01*
X163750000Y-112366000D01*
X163750000Y-108180851D01*
X164746719Y-108180851D01*
X164763268Y-108377934D01*
X164817783Y-108568050D01*
X164824150Y-108580438D01*
X164837496Y-108650165D01*
X164817300Y-108702266D01*
X164819079Y-108703240D01*
X164814771Y-108711108D01*
X164809385Y-108718295D01*
X164758255Y-108854684D01*
X164751500Y-108916866D01*
X164751500Y-110013134D01*
X164758255Y-110075316D01*
X164809385Y-110211705D01*
X164896739Y-110328261D01*
X164903920Y-110333643D01*
X164912607Y-110340154D01*
X164955121Y-110397015D01*
X164960144Y-110467834D01*
X164956872Y-110479914D01*
X164906458Y-110635072D01*
X164886496Y-110825000D01*
X164906458Y-111014928D01*
X164965473Y-111196556D01*
X165060960Y-111361944D01*
X165188747Y-111503866D01*
X165343248Y-111616118D01*
X165349276Y-111618802D01*
X165349278Y-111618803D01*
X165511681Y-111691109D01*
X165517712Y-111693794D01*
X165611113Y-111713647D01*
X165698056Y-111732128D01*
X165698061Y-111732128D01*
X165704513Y-111733500D01*
X165895487Y-111733500D01*
X165901939Y-111732128D01*
X165901944Y-111732128D01*
X165988887Y-111713647D01*
X166082288Y-111693794D01*
X166088319Y-111691109D01*
X166250722Y-111618803D01*
X166250724Y-111618802D01*
X166256752Y-111616118D01*
X166411253Y-111503866D01*
X166539040Y-111361944D01*
X166634527Y-111196556D01*
X166693542Y-111014928D01*
X166713504Y-110825000D01*
X166693542Y-110635072D01*
X166683134Y-110603040D01*
X166681106Y-110532073D01*
X166717769Y-110471275D01*
X166744147Y-110458306D01*
X166742967Y-110456349D01*
X166772080Y-110438793D01*
X166776000Y-110430821D01*
X166776000Y-110422564D01*
X167284000Y-110422564D01*
X167287973Y-110436095D01*
X167296188Y-110437276D01*
X167390337Y-110410989D01*
X167401787Y-110406548D01*
X167567224Y-110322980D01*
X167577589Y-110316402D01*
X167586503Y-110309438D01*
X167652497Y-110283261D01*
X167725545Y-110298740D01*
X167889116Y-110390156D01*
X167900356Y-110395067D01*
X168028768Y-110436790D01*
X168042867Y-110437193D01*
X168046000Y-110430821D01*
X168046000Y-109737115D01*
X168041525Y-109721876D01*
X168040135Y-109720671D01*
X168032452Y-109719000D01*
X167302115Y-109719000D01*
X167286876Y-109723475D01*
X167285671Y-109724865D01*
X167284000Y-109732548D01*
X167284000Y-110422564D01*
X166776000Y-110422564D01*
X166776000Y-109337000D01*
X166796002Y-109268879D01*
X166849658Y-109222386D01*
X166902000Y-109211000D01*
X168428000Y-109211000D01*
X168496121Y-109231002D01*
X168542614Y-109284658D01*
X168554000Y-109337000D01*
X168554000Y-110422564D01*
X168557973Y-110436095D01*
X168566188Y-110437276D01*
X168660337Y-110410989D01*
X168671787Y-110406548D01*
X168837226Y-110322979D01*
X168847588Y-110316403D01*
X168856074Y-110309773D01*
X168922068Y-110283595D01*
X168995117Y-110299074D01*
X169164294Y-110393624D01*
X169352392Y-110454740D01*
X169548777Y-110478158D01*
X169554912Y-110477686D01*
X169554914Y-110477686D01*
X169739830Y-110463457D01*
X169739834Y-110463456D01*
X169745972Y-110462984D01*
X169936463Y-110409798D01*
X169941967Y-110407018D01*
X169941969Y-110407017D01*
X170107493Y-110323405D01*
X170107495Y-110323404D01*
X170112996Y-110320625D01*
X170118402Y-110316402D01*
X170126973Y-110309705D01*
X170192967Y-110283525D01*
X170266020Y-110299004D01*
X170429121Y-110390159D01*
X170440356Y-110395067D01*
X170568768Y-110436790D01*
X170582867Y-110437193D01*
X170586000Y-110430821D01*
X170586000Y-110422564D01*
X171094000Y-110422564D01*
X171097973Y-110436095D01*
X171106188Y-110437276D01*
X171200337Y-110410989D01*
X171211787Y-110406548D01*
X171377226Y-110322979D01*
X171387585Y-110316404D01*
X171533639Y-110202295D01*
X171542527Y-110193831D01*
X171663643Y-110053517D01*
X171670711Y-110043497D01*
X171762262Y-109882337D01*
X171767256Y-109871121D01*
X171812142Y-109736190D01*
X171812643Y-109722097D01*
X171806454Y-109719000D01*
X171112115Y-109719000D01*
X171096876Y-109723475D01*
X171095671Y-109724865D01*
X171094000Y-109732548D01*
X171094000Y-110422564D01*
X170586000Y-110422564D01*
X170586000Y-109337000D01*
X170606002Y-109268879D01*
X170659658Y-109222386D01*
X170712000Y-109211000D01*
X171798183Y-109211000D01*
X171811714Y-109207027D01*
X171812806Y-109199433D01*
X171778231Y-109084919D01*
X171773560Y-109073586D01*
X171686537Y-108909918D01*
X171679435Y-108899228D01*
X171658398Y-108831420D01*
X171674827Y-108767264D01*
X171762723Y-108612542D01*
X171762725Y-108612537D01*
X171765769Y-108607179D01*
X171828197Y-108419513D01*
X171852985Y-108223295D01*
X171853380Y-108195000D01*
X171834080Y-107998167D01*
X171776916Y-107808831D01*
X171684066Y-107634204D01*
X171613709Y-107547938D01*
X171562960Y-107485713D01*
X171562957Y-107485710D01*
X171559065Y-107480938D01*
X171552724Y-107475692D01*
X171411425Y-107358799D01*
X171411421Y-107358797D01*
X171406675Y-107354870D01*
X171232701Y-107260802D01*
X171043768Y-107202318D01*
X171037643Y-107201674D01*
X171037642Y-107201674D01*
X170853204Y-107182289D01*
X170853202Y-107182289D01*
X170847075Y-107181645D01*
X170764576Y-107189153D01*
X170656251Y-107199011D01*
X170656248Y-107199012D01*
X170650112Y-107199570D01*
X170644206Y-107201308D01*
X170644202Y-107201309D01*
X170539076Y-107232249D01*
X170460381Y-107255410D01*
X170454923Y-107258263D01*
X170454919Y-107258265D01*
X170359135Y-107308340D01*
X170285110Y-107347040D01*
X170280310Y-107350900D01*
X170275153Y-107354274D01*
X170273769Y-107352158D01*
X170218365Y-107375027D01*
X170148512Y-107362334D01*
X170138898Y-107356709D01*
X170136675Y-107354870D01*
X169962701Y-107260802D01*
X169773768Y-107202318D01*
X169767643Y-107201674D01*
X169767642Y-107201674D01*
X169583204Y-107182289D01*
X169583202Y-107182289D01*
X169577075Y-107181645D01*
X169494576Y-107189153D01*
X169386251Y-107199011D01*
X169386248Y-107199012D01*
X169380112Y-107199570D01*
X169374206Y-107201308D01*
X169374202Y-107201309D01*
X169269076Y-107232249D01*
X169190381Y-107255410D01*
X169184923Y-107258263D01*
X169184919Y-107258265D01*
X169089135Y-107308340D01*
X169015110Y-107347040D01*
X169010310Y-107350900D01*
X169005153Y-107354274D01*
X169003769Y-107352158D01*
X168948365Y-107375027D01*
X168878512Y-107362334D01*
X168868898Y-107356709D01*
X168866675Y-107354870D01*
X168692701Y-107260802D01*
X168503768Y-107202318D01*
X168497643Y-107201674D01*
X168497642Y-107201674D01*
X168313204Y-107182289D01*
X168313202Y-107182289D01*
X168307075Y-107181645D01*
X168224576Y-107189153D01*
X168116251Y-107199011D01*
X168116248Y-107199012D01*
X168110112Y-107199570D01*
X168104206Y-107201308D01*
X168104202Y-107201309D01*
X167999076Y-107232249D01*
X167920381Y-107255410D01*
X167914923Y-107258263D01*
X167914919Y-107258265D01*
X167819135Y-107308340D01*
X167745110Y-107347040D01*
X167740310Y-107350900D01*
X167735153Y-107354274D01*
X167733769Y-107352158D01*
X167678365Y-107375027D01*
X167608512Y-107362334D01*
X167598898Y-107356709D01*
X167596675Y-107354870D01*
X167422701Y-107260802D01*
X167233768Y-107202318D01*
X167227643Y-107201674D01*
X167227642Y-107201674D01*
X167043204Y-107182289D01*
X167043202Y-107182289D01*
X167037075Y-107181645D01*
X166954576Y-107189153D01*
X166846251Y-107199011D01*
X166846248Y-107199012D01*
X166840112Y-107199570D01*
X166834206Y-107201308D01*
X166834202Y-107201309D01*
X166729076Y-107232249D01*
X166650381Y-107255410D01*
X166644923Y-107258263D01*
X166644919Y-107258265D01*
X166549135Y-107308340D01*
X166475110Y-107347040D01*
X166470310Y-107350900D01*
X166465153Y-107354274D01*
X166463769Y-107352158D01*
X166408365Y-107375027D01*
X166338512Y-107362334D01*
X166328898Y-107356709D01*
X166326675Y-107354870D01*
X166152701Y-107260802D01*
X165963768Y-107202318D01*
X165957643Y-107201674D01*
X165957642Y-107201674D01*
X165773204Y-107182289D01*
X165773202Y-107182289D01*
X165767075Y-107181645D01*
X165684576Y-107189153D01*
X165576251Y-107199011D01*
X165576248Y-107199012D01*
X165570112Y-107199570D01*
X165564206Y-107201308D01*
X165564202Y-107201309D01*
X165459076Y-107232249D01*
X165380381Y-107255410D01*
X165374923Y-107258263D01*
X165374919Y-107258265D01*
X165284147Y-107305720D01*
X165205110Y-107347040D01*
X165050975Y-107470968D01*
X164923846Y-107622474D01*
X164920879Y-107627872D01*
X164920875Y-107627877D01*
X164848819Y-107758949D01*
X164828567Y-107795787D01*
X164826706Y-107801654D01*
X164826705Y-107801656D01*
X164789161Y-107920011D01*
X164768765Y-107984306D01*
X164746719Y-108180851D01*
X163750000Y-108180851D01*
X163750000Y-106750000D01*
X120634000Y-106750000D01*
X120565879Y-106729998D01*
X120519386Y-106676342D01*
X120508000Y-106624000D01*
X120508000Y-105156000D01*
X167234496Y-105156000D01*
X167254458Y-105345928D01*
X167313473Y-105527556D01*
X167408960Y-105692944D01*
X167536747Y-105834866D01*
X167691248Y-105947118D01*
X167697276Y-105949802D01*
X167697278Y-105949803D01*
X167859681Y-106022109D01*
X167865712Y-106024794D01*
X167959113Y-106044647D01*
X168046056Y-106063128D01*
X168046061Y-106063128D01*
X168052513Y-106064500D01*
X168243487Y-106064500D01*
X168249939Y-106063128D01*
X168249944Y-106063128D01*
X168336887Y-106044647D01*
X168430288Y-106024794D01*
X168436319Y-106022109D01*
X168598722Y-105949803D01*
X168598724Y-105949802D01*
X168604752Y-105947118D01*
X168759253Y-105834866D01*
X168887040Y-105692944D01*
X168982527Y-105527556D01*
X169041542Y-105345928D01*
X169061504Y-105156000D01*
X169041542Y-104966072D01*
X168982527Y-104784444D01*
X168887040Y-104619056D01*
X168759253Y-104477134D01*
X168604752Y-104364882D01*
X168598724Y-104362198D01*
X168598722Y-104362197D01*
X168436319Y-104289891D01*
X168436318Y-104289891D01*
X168430288Y-104287206D01*
X168336887Y-104267353D01*
X168249944Y-104248872D01*
X168249939Y-104248872D01*
X168243487Y-104247500D01*
X168052513Y-104247500D01*
X168046061Y-104248872D01*
X168046056Y-104248872D01*
X167959113Y-104267353D01*
X167865712Y-104287206D01*
X167859682Y-104289891D01*
X167859681Y-104289891D01*
X167697278Y-104362197D01*
X167697276Y-104362198D01*
X167691248Y-104364882D01*
X167536747Y-104477134D01*
X167408960Y-104619056D01*
X167313473Y-104784444D01*
X167254458Y-104966072D01*
X167234496Y-105156000D01*
X120508000Y-105156000D01*
X120508000Y-103625000D01*
X162746466Y-103625000D01*
X162766428Y-103814928D01*
X162825443Y-103996556D01*
X162920930Y-104161944D01*
X163048717Y-104303866D01*
X163203218Y-104416118D01*
X163209246Y-104418802D01*
X163209248Y-104418803D01*
X163351293Y-104482045D01*
X163377682Y-104493794D01*
X163471083Y-104513647D01*
X163558026Y-104532128D01*
X163558031Y-104532128D01*
X163564483Y-104533500D01*
X163755457Y-104533500D01*
X163761909Y-104532128D01*
X163761914Y-104532128D01*
X163848857Y-104513647D01*
X163942258Y-104493794D01*
X163968647Y-104482045D01*
X164110692Y-104418803D01*
X164110694Y-104418802D01*
X164116722Y-104416118D01*
X164271223Y-104303866D01*
X164399010Y-104161944D01*
X164494497Y-103996556D01*
X164553512Y-103814928D01*
X164573474Y-103625000D01*
X164553512Y-103435072D01*
X164494497Y-103253444D01*
X164399010Y-103088056D01*
X164372066Y-103058131D01*
X164275645Y-102951045D01*
X164275644Y-102951044D01*
X164271223Y-102946134D01*
X164116722Y-102833882D01*
X164110694Y-102831198D01*
X164110692Y-102831197D01*
X163948289Y-102758891D01*
X163948288Y-102758891D01*
X163942258Y-102756206D01*
X163848857Y-102736353D01*
X163761914Y-102717872D01*
X163761909Y-102717872D01*
X163755457Y-102716500D01*
X163564483Y-102716500D01*
X163558031Y-102717872D01*
X163558026Y-102717872D01*
X163471083Y-102736353D01*
X163377682Y-102756206D01*
X163371652Y-102758891D01*
X163371651Y-102758891D01*
X163209248Y-102831197D01*
X163209246Y-102831198D01*
X163203218Y-102833882D01*
X163048717Y-102946134D01*
X163044296Y-102951044D01*
X163044295Y-102951045D01*
X162947875Y-103058131D01*
X162920930Y-103088056D01*
X162825443Y-103253444D01*
X162766428Y-103435072D01*
X162746466Y-103625000D01*
X120508000Y-103625000D01*
X120508000Y-102951843D01*
X120528002Y-102883722D01*
X120581658Y-102837229D01*
X120651932Y-102827125D01*
X120697569Y-102843055D01*
X120811000Y-102909338D01*
X120815825Y-102911180D01*
X120815826Y-102911181D01*
X120863375Y-102929338D01*
X121019692Y-102989030D01*
X121024760Y-102990061D01*
X121024763Y-102990062D01*
X121123067Y-103010062D01*
X121238597Y-103033567D01*
X121243772Y-103033757D01*
X121243774Y-103033757D01*
X121456673Y-103041564D01*
X121456677Y-103041564D01*
X121461837Y-103041753D01*
X121466957Y-103041097D01*
X121466959Y-103041097D01*
X121678288Y-103014025D01*
X121678289Y-103014025D01*
X121683416Y-103013368D01*
X121688366Y-103011883D01*
X121892429Y-102950661D01*
X121892434Y-102950659D01*
X121897384Y-102949174D01*
X122097994Y-102850896D01*
X122279860Y-102721173D01*
X122284550Y-102716500D01*
X122418026Y-102583489D01*
X122438096Y-102563489D01*
X122568453Y-102382077D01*
X122632514Y-102252460D01*
X122665136Y-102186453D01*
X122665137Y-102186451D01*
X122667430Y-102181811D01*
X122732370Y-101968069D01*
X122761529Y-101746590D01*
X122761611Y-101743240D01*
X122763074Y-101683365D01*
X122763074Y-101683361D01*
X122763156Y-101680000D01*
X122753945Y-101567966D01*
X166903257Y-101567966D01*
X166933565Y-101702446D01*
X166936645Y-101712275D01*
X167016770Y-101909603D01*
X167021413Y-101918794D01*
X167132694Y-102100388D01*
X167138777Y-102108699D01*
X167278213Y-102269667D01*
X167285580Y-102276883D01*
X167449434Y-102412916D01*
X167457881Y-102418831D01*
X167641756Y-102526279D01*
X167651042Y-102530729D01*
X167850001Y-102606703D01*
X167859899Y-102609579D01*
X167963250Y-102630606D01*
X167977299Y-102629410D01*
X167981000Y-102619065D01*
X167981000Y-102618517D01*
X168489000Y-102618517D01*
X168493064Y-102632359D01*
X168506478Y-102634393D01*
X168513184Y-102633534D01*
X168523262Y-102631392D01*
X168727255Y-102570191D01*
X168736842Y-102566433D01*
X168928095Y-102472739D01*
X168936945Y-102467464D01*
X169110328Y-102343792D01*
X169118193Y-102337145D01*
X169222897Y-102232805D01*
X169285268Y-102198889D01*
X169356075Y-102204077D01*
X169412837Y-102246723D01*
X169429819Y-102277826D01*
X169443611Y-102314616D01*
X169474385Y-102396705D01*
X169561739Y-102513261D01*
X169678295Y-102600615D01*
X169814684Y-102651745D01*
X169876866Y-102658500D01*
X171673134Y-102658500D01*
X171735316Y-102651745D01*
X171871705Y-102600615D01*
X171988261Y-102513261D01*
X172075615Y-102396705D01*
X172126745Y-102260316D01*
X172133500Y-102198134D01*
X172133500Y-100401866D01*
X172126745Y-100339684D01*
X172075615Y-100203295D01*
X171988261Y-100086739D01*
X171871705Y-99999385D01*
X171735316Y-99948255D01*
X171673134Y-99941500D01*
X169876866Y-99941500D01*
X169814684Y-99948255D01*
X169678295Y-99999385D01*
X169561739Y-100086739D01*
X169474385Y-100203295D01*
X169471233Y-100211703D01*
X169471232Y-100211705D01*
X169429722Y-100322433D01*
X169387081Y-100379198D01*
X169320519Y-100403898D01*
X169251170Y-100388691D01*
X169218546Y-100363004D01*
X169167799Y-100307234D01*
X169160273Y-100300215D01*
X168993139Y-100168222D01*
X168984552Y-100162517D01*
X168798117Y-100059599D01*
X168788705Y-100055369D01*
X168587959Y-99984280D01*
X168577988Y-99981646D01*
X168506837Y-99968972D01*
X168493540Y-99970432D01*
X168489000Y-99984989D01*
X168489000Y-102618517D01*
X167981000Y-102618517D01*
X167981000Y-101572115D01*
X167976525Y-101556876D01*
X167975135Y-101555671D01*
X167967452Y-101554000D01*
X166918225Y-101554000D01*
X166904694Y-101557973D01*
X166903257Y-101567966D01*
X122753945Y-101567966D01*
X122744852Y-101457361D01*
X122690431Y-101240702D01*
X122601354Y-101035840D01*
X122600282Y-101034183D01*
X166899389Y-101034183D01*
X166900912Y-101042607D01*
X166913292Y-101046000D01*
X167962885Y-101046000D01*
X167978124Y-101041525D01*
X167979329Y-101040135D01*
X167981000Y-101032452D01*
X167981000Y-99983102D01*
X167977082Y-99969758D01*
X167962806Y-99967771D01*
X167924324Y-99973660D01*
X167914288Y-99976051D01*
X167711868Y-100042212D01*
X167702359Y-100046209D01*
X167513463Y-100144542D01*
X167504738Y-100150036D01*
X167334433Y-100277905D01*
X167326726Y-100284748D01*
X167179590Y-100438717D01*
X167173104Y-100446727D01*
X167053098Y-100622649D01*
X167048000Y-100631623D01*
X166958338Y-100824783D01*
X166954775Y-100834470D01*
X166899389Y-101034183D01*
X122600282Y-101034183D01*
X122480014Y-100848277D01*
X122329670Y-100683051D01*
X122325619Y-100679852D01*
X122325615Y-100679848D01*
X122158414Y-100547800D01*
X122158410Y-100547798D01*
X122154359Y-100544598D01*
X122113053Y-100521796D01*
X122063084Y-100471364D01*
X122048312Y-100401921D01*
X122073428Y-100335516D01*
X122100780Y-100308909D01*
X122237058Y-100211703D01*
X122279860Y-100181173D01*
X122292857Y-100168222D01*
X122380024Y-100081358D01*
X122438096Y-100023489D01*
X122455417Y-99999385D01*
X122565435Y-99846277D01*
X122568453Y-99842077D01*
X122571880Y-99835144D01*
X122665136Y-99646453D01*
X122665137Y-99646451D01*
X122667430Y-99641811D01*
X122732370Y-99428069D01*
X122761529Y-99206590D01*
X122763156Y-99140000D01*
X122744852Y-98917361D01*
X122690431Y-98700702D01*
X122601354Y-98495840D01*
X122516663Y-98364928D01*
X122482822Y-98312617D01*
X122482820Y-98312614D01*
X122480014Y-98308277D01*
X122329670Y-98143051D01*
X122325619Y-98139852D01*
X122325615Y-98139848D01*
X122158414Y-98007800D01*
X122158410Y-98007798D01*
X122154359Y-98004598D01*
X122113053Y-97981796D01*
X122063084Y-97931364D01*
X122048312Y-97861921D01*
X122073428Y-97795516D01*
X122100780Y-97768909D01*
X122207380Y-97692872D01*
X122279860Y-97641173D01*
X122438096Y-97483489D01*
X122483439Y-97420388D01*
X122565435Y-97306277D01*
X122568453Y-97302077D01*
X122572543Y-97293803D01*
X122665136Y-97106453D01*
X122665137Y-97106451D01*
X122667430Y-97101811D01*
X122725116Y-96911944D01*
X122730865Y-96893023D01*
X122730865Y-96893021D01*
X122732370Y-96888069D01*
X122761529Y-96666590D01*
X122763156Y-96600000D01*
X122744852Y-96377361D01*
X122690431Y-96160702D01*
X122601354Y-95955840D01*
X122548259Y-95873767D01*
X122482822Y-95772617D01*
X122482820Y-95772614D01*
X122480014Y-95768277D01*
X122329670Y-95603051D01*
X122325619Y-95599852D01*
X122325615Y-95599848D01*
X122158837Y-95468134D01*
X124021500Y-95468134D01*
X124028255Y-95530316D01*
X124079385Y-95666705D01*
X124166739Y-95783261D01*
X124283295Y-95870615D01*
X124419684Y-95921745D01*
X124481866Y-95928500D01*
X126278134Y-95928500D01*
X126340316Y-95921745D01*
X126476705Y-95870615D01*
X126593261Y-95783261D01*
X126680615Y-95666705D01*
X126731745Y-95530316D01*
X126738500Y-95468134D01*
X126738500Y-94830000D01*
X127266496Y-94830000D01*
X127267186Y-94836565D01*
X127280910Y-94967137D01*
X127286458Y-95019928D01*
X127345473Y-95201556D01*
X127348776Y-95207278D01*
X127348777Y-95207279D01*
X127376627Y-95255516D01*
X127440960Y-95366944D01*
X127445378Y-95371851D01*
X127445379Y-95371852D01*
X127533784Y-95470036D01*
X127568747Y-95508866D01*
X127608454Y-95537715D01*
X127700201Y-95604373D01*
X127723248Y-95621118D01*
X127729276Y-95623802D01*
X127729278Y-95623803D01*
X127891681Y-95696109D01*
X127897712Y-95698794D01*
X127963431Y-95712763D01*
X128078056Y-95737128D01*
X128078061Y-95737128D01*
X128084513Y-95738500D01*
X128275487Y-95738500D01*
X128281939Y-95737128D01*
X128281944Y-95737128D01*
X128396569Y-95712763D01*
X128462288Y-95698794D01*
X128468319Y-95696109D01*
X128630722Y-95623803D01*
X128630724Y-95623802D01*
X128636752Y-95621118D01*
X128659800Y-95604373D01*
X128751546Y-95537715D01*
X128791253Y-95508866D01*
X128826216Y-95470036D01*
X128914621Y-95371852D01*
X128914622Y-95371851D01*
X128919040Y-95366944D01*
X128983373Y-95255516D01*
X129000992Y-95225000D01*
X161561496Y-95225000D01*
X161562186Y-95231565D01*
X161577434Y-95376638D01*
X161581458Y-95414928D01*
X161640473Y-95596556D01*
X161643776Y-95602278D01*
X161643777Y-95602279D01*
X161654654Y-95621118D01*
X161735960Y-95761944D01*
X161740378Y-95766851D01*
X161740379Y-95766852D01*
X161789255Y-95821134D01*
X161863747Y-95903866D01*
X161929479Y-95951623D01*
X161938611Y-95958258D01*
X161981964Y-96014481D01*
X161988039Y-96085217D01*
X161984382Y-96099130D01*
X161972815Y-96134729D01*
X161956458Y-96185072D01*
X161936496Y-96375000D01*
X161956458Y-96564928D01*
X162015473Y-96746556D01*
X162110960Y-96911944D01*
X162115378Y-96916851D01*
X162115379Y-96916852D01*
X162234325Y-97048955D01*
X162238747Y-97053866D01*
X162393248Y-97166118D01*
X162399276Y-97168802D01*
X162399278Y-97168803D01*
X162561681Y-97241109D01*
X162567712Y-97243794D01*
X162661113Y-97263647D01*
X162748056Y-97282128D01*
X162748061Y-97282128D01*
X162754513Y-97283500D01*
X162945487Y-97283500D01*
X162951939Y-97282128D01*
X162951944Y-97282128D01*
X163017196Y-97268258D01*
X163087987Y-97273660D01*
X163144620Y-97316477D01*
X163169113Y-97383115D01*
X163153692Y-97452416D01*
X163123195Y-97486941D01*
X163123998Y-97487833D01*
X163119091Y-97492251D01*
X163113747Y-97496134D01*
X163109326Y-97501044D01*
X163109325Y-97501045D01*
X163029530Y-97589667D01*
X162985960Y-97638056D01*
X162955104Y-97691500D01*
X162897718Y-97790896D01*
X162890473Y-97803444D01*
X162831458Y-97985072D01*
X162830768Y-97991633D01*
X162830768Y-97991635D01*
X162815879Y-98133301D01*
X162811496Y-98175000D01*
X162812186Y-98181565D01*
X162824859Y-98302138D01*
X162831458Y-98364928D01*
X162890473Y-98546556D01*
X162985960Y-98711944D01*
X163113747Y-98853866D01*
X163268248Y-98966118D01*
X163274276Y-98968802D01*
X163274278Y-98968803D01*
X163293316Y-98977279D01*
X163442712Y-99043794D01*
X163536113Y-99063647D01*
X163623056Y-99082128D01*
X163623061Y-99082128D01*
X163629513Y-99083500D01*
X163820487Y-99083500D01*
X163826939Y-99082128D01*
X163826944Y-99082128D01*
X163913888Y-99063647D01*
X164007288Y-99043794D01*
X164156684Y-98977279D01*
X164175722Y-98968803D01*
X164175724Y-98968802D01*
X164181752Y-98966118D01*
X164336253Y-98853866D01*
X164464040Y-98711944D01*
X164528671Y-98600000D01*
X165136496Y-98600000D01*
X165156458Y-98789928D01*
X165215473Y-98971556D01*
X165310960Y-99136944D01*
X165438747Y-99278866D01*
X165593248Y-99391118D01*
X165599276Y-99393802D01*
X165599278Y-99393803D01*
X165761681Y-99466109D01*
X165767712Y-99468794D01*
X165861112Y-99488647D01*
X165948056Y-99507128D01*
X165948061Y-99507128D01*
X165954513Y-99508500D01*
X166145487Y-99508500D01*
X166151939Y-99507128D01*
X166151944Y-99507128D01*
X166238888Y-99488647D01*
X166332288Y-99468794D01*
X166338319Y-99466109D01*
X166500722Y-99393803D01*
X166500724Y-99393802D01*
X166506752Y-99391118D01*
X166661253Y-99278866D01*
X166789040Y-99136944D01*
X166884527Y-98971556D01*
X166943542Y-98789928D01*
X166963504Y-98600000D01*
X166953056Y-98500590D01*
X166944232Y-98416635D01*
X166944232Y-98416633D01*
X166943542Y-98410072D01*
X166884527Y-98228444D01*
X166789040Y-98063056D01*
X166757296Y-98027800D01*
X166665675Y-97926045D01*
X166665674Y-97926044D01*
X166661253Y-97921134D01*
X166506752Y-97808882D01*
X166500724Y-97806198D01*
X166500722Y-97806197D01*
X166338319Y-97733891D01*
X166338318Y-97733891D01*
X166332288Y-97731206D01*
X166238887Y-97711353D01*
X166151944Y-97692872D01*
X166151939Y-97692872D01*
X166145487Y-97691500D01*
X165954513Y-97691500D01*
X165948061Y-97692872D01*
X165948056Y-97692872D01*
X165861113Y-97711353D01*
X165767712Y-97731206D01*
X165761682Y-97733891D01*
X165761681Y-97733891D01*
X165599278Y-97806197D01*
X165599276Y-97806198D01*
X165593248Y-97808882D01*
X165438747Y-97921134D01*
X165434326Y-97926044D01*
X165434325Y-97926045D01*
X165342705Y-98027800D01*
X165310960Y-98063056D01*
X165215473Y-98228444D01*
X165156458Y-98410072D01*
X165155768Y-98416633D01*
X165155768Y-98416635D01*
X165146944Y-98500590D01*
X165136496Y-98600000D01*
X164528671Y-98600000D01*
X164559527Y-98546556D01*
X164618542Y-98364928D01*
X164625142Y-98302138D01*
X164637814Y-98181565D01*
X164638504Y-98175000D01*
X164634121Y-98133301D01*
X164619232Y-97991635D01*
X164619232Y-97991633D01*
X164618542Y-97985072D01*
X164559527Y-97803444D01*
X164552283Y-97790896D01*
X164494896Y-97691500D01*
X164464040Y-97638056D01*
X164404262Y-97571666D01*
X164373546Y-97507660D01*
X164382310Y-97437206D01*
X164427772Y-97382675D01*
X164455619Y-97369149D01*
X164457288Y-97368794D01*
X164463318Y-97366109D01*
X164463322Y-97366108D01*
X164625722Y-97293803D01*
X164625724Y-97293802D01*
X164631752Y-97291118D01*
X164786253Y-97178866D01*
X164895307Y-97057749D01*
X164909621Y-97041852D01*
X164909622Y-97041851D01*
X164914040Y-97036944D01*
X165009527Y-96871556D01*
X165068542Y-96689928D01*
X165088504Y-96500000D01*
X165082162Y-96439658D01*
X165069232Y-96316635D01*
X165069232Y-96316633D01*
X165068542Y-96310072D01*
X165009527Y-96128444D01*
X164914040Y-95963056D01*
X164895666Y-95942649D01*
X164790675Y-95826045D01*
X164790674Y-95826044D01*
X164786253Y-95821134D01*
X164631752Y-95708882D01*
X164625724Y-95706198D01*
X164625722Y-95706197D01*
X164463319Y-95633891D01*
X164463318Y-95633891D01*
X164457288Y-95631206D01*
X164332814Y-95604748D01*
X164276944Y-95592872D01*
X164276939Y-95592872D01*
X164270487Y-95591500D01*
X164079513Y-95591500D01*
X164073061Y-95592872D01*
X164073056Y-95592872D01*
X164017186Y-95604748D01*
X163892712Y-95631206D01*
X163886682Y-95633891D01*
X163886681Y-95633891D01*
X163724278Y-95706197D01*
X163724276Y-95706198D01*
X163718248Y-95708882D01*
X163712907Y-95712762D01*
X163712906Y-95712763D01*
X163661610Y-95750032D01*
X163594742Y-95773891D01*
X163525591Y-95757810D01*
X163493913Y-95732407D01*
X163461253Y-95696134D01*
X163386389Y-95641742D01*
X163343036Y-95585519D01*
X163336961Y-95514783D01*
X163340618Y-95500870D01*
X163366502Y-95421206D01*
X163368542Y-95414928D01*
X163372567Y-95376638D01*
X163387814Y-95231565D01*
X163388504Y-95225000D01*
X163377907Y-95124171D01*
X163369232Y-95041635D01*
X163369232Y-95041633D01*
X163368542Y-95035072D01*
X163316128Y-94873759D01*
X163314100Y-94802792D01*
X163350763Y-94741994D01*
X163361900Y-94732887D01*
X163430909Y-94682749D01*
X163430911Y-94682747D01*
X163436253Y-94678866D01*
X163440674Y-94673956D01*
X163444762Y-94670275D01*
X163508770Y-94639557D01*
X163579223Y-94648320D01*
X163603135Y-94661974D01*
X163626385Y-94678866D01*
X163643248Y-94691118D01*
X163649276Y-94693802D01*
X163649278Y-94693803D01*
X163802625Y-94762077D01*
X163817712Y-94768794D01*
X163903336Y-94786994D01*
X163998056Y-94807128D01*
X163998061Y-94807128D01*
X164004513Y-94808500D01*
X164195487Y-94808500D01*
X164201939Y-94807128D01*
X164201944Y-94807128D01*
X164296664Y-94786994D01*
X164382288Y-94768794D01*
X164397375Y-94762077D01*
X164550722Y-94693803D01*
X164550724Y-94693802D01*
X164556752Y-94691118D01*
X164573616Y-94678866D01*
X164617977Y-94646635D01*
X164711253Y-94578866D01*
X164814022Y-94464729D01*
X164834621Y-94441852D01*
X164834622Y-94441851D01*
X164839040Y-94436944D01*
X164934527Y-94271556D01*
X164993542Y-94089928D01*
X164998626Y-94041562D01*
X165012814Y-93906565D01*
X165013504Y-93900000D01*
X165007463Y-93842522D01*
X164994232Y-93716635D01*
X164994232Y-93716633D01*
X164993542Y-93710072D01*
X164934527Y-93528444D01*
X164839040Y-93363056D01*
X164751860Y-93266232D01*
X164715675Y-93226045D01*
X164715674Y-93226044D01*
X164711253Y-93221134D01*
X164585590Y-93129834D01*
X164562094Y-93112763D01*
X164562093Y-93112762D01*
X164556752Y-93108882D01*
X164550724Y-93106198D01*
X164550722Y-93106197D01*
X164388319Y-93033891D01*
X164388318Y-93033891D01*
X164382288Y-93031206D01*
X164287156Y-93010985D01*
X164201944Y-92992872D01*
X164201939Y-92992872D01*
X164195487Y-92991500D01*
X164004513Y-92991500D01*
X163998061Y-92992872D01*
X163998056Y-92992872D01*
X163912844Y-93010985D01*
X163817712Y-93031206D01*
X163811682Y-93033891D01*
X163811681Y-93033891D01*
X163649278Y-93106197D01*
X163649276Y-93106198D01*
X163643248Y-93108882D01*
X163637907Y-93112762D01*
X163637906Y-93112763D01*
X163500269Y-93212763D01*
X163488747Y-93221134D01*
X163484326Y-93226044D01*
X163480238Y-93229725D01*
X163416230Y-93260443D01*
X163345777Y-93251680D01*
X163321865Y-93238026D01*
X163287094Y-93212763D01*
X163287093Y-93212762D01*
X163281752Y-93208882D01*
X163275724Y-93206198D01*
X163275722Y-93206197D01*
X163113319Y-93133891D01*
X163113318Y-93133891D01*
X163107288Y-93131206D01*
X163013888Y-93111353D01*
X162926944Y-93092872D01*
X162926939Y-93092872D01*
X162920487Y-93091500D01*
X162729513Y-93091500D01*
X162723061Y-93092872D01*
X162723056Y-93092872D01*
X162636112Y-93111353D01*
X162542712Y-93131206D01*
X162536682Y-93133891D01*
X162536681Y-93133891D01*
X162374278Y-93206197D01*
X162374276Y-93206198D01*
X162368248Y-93208882D01*
X162362907Y-93212762D01*
X162362906Y-93212763D01*
X162344121Y-93226411D01*
X162213747Y-93321134D01*
X162209326Y-93326044D01*
X162209325Y-93326045D01*
X162124197Y-93420590D01*
X162085960Y-93463056D01*
X162027686Y-93563990D01*
X162004234Y-93604610D01*
X161990473Y-93628444D01*
X161931458Y-93810072D01*
X161930768Y-93816633D01*
X161930768Y-93816635D01*
X161919602Y-93922872D01*
X161911496Y-94000000D01*
X161912186Y-94006565D01*
X161927381Y-94151134D01*
X161931458Y-94189928D01*
X161933498Y-94196206D01*
X161983872Y-94351241D01*
X161985900Y-94422208D01*
X161949237Y-94483006D01*
X161938100Y-94492113D01*
X161863747Y-94546134D01*
X161859326Y-94551044D01*
X161859325Y-94551045D01*
X161773256Y-94646635D01*
X161735960Y-94688056D01*
X161640473Y-94853444D01*
X161581458Y-95035072D01*
X161580768Y-95041633D01*
X161580768Y-95041635D01*
X161572093Y-95124171D01*
X161561496Y-95225000D01*
X129000992Y-95225000D01*
X129011223Y-95207279D01*
X129011224Y-95207278D01*
X129014527Y-95201556D01*
X129073542Y-95019928D01*
X129079091Y-94967137D01*
X129092814Y-94836565D01*
X129093504Y-94830000D01*
X129078499Y-94687237D01*
X129074232Y-94646635D01*
X129074232Y-94646633D01*
X129073542Y-94640072D01*
X129014527Y-94458444D01*
X128919040Y-94293056D01*
X128904835Y-94277279D01*
X128795675Y-94156045D01*
X128795674Y-94156044D01*
X128791253Y-94151134D01*
X128636752Y-94038882D01*
X128630724Y-94036198D01*
X128630722Y-94036197D01*
X128468319Y-93963891D01*
X128468318Y-93963891D01*
X128462288Y-93961206D01*
X128368888Y-93941353D01*
X128281944Y-93922872D01*
X128281939Y-93922872D01*
X128275487Y-93921500D01*
X128084513Y-93921500D01*
X128078061Y-93922872D01*
X128078056Y-93922872D01*
X127991112Y-93941353D01*
X127897712Y-93961206D01*
X127891682Y-93963891D01*
X127891681Y-93963891D01*
X127729278Y-94036197D01*
X127729276Y-94036198D01*
X127723248Y-94038882D01*
X127568747Y-94151134D01*
X127564326Y-94156044D01*
X127564325Y-94156045D01*
X127455166Y-94277279D01*
X127440960Y-94293056D01*
X127345473Y-94458444D01*
X127286458Y-94640072D01*
X127285768Y-94646633D01*
X127285768Y-94646635D01*
X127281501Y-94687237D01*
X127266496Y-94830000D01*
X126738500Y-94830000D01*
X126738500Y-93671866D01*
X126731745Y-93609684D01*
X126680615Y-93473295D01*
X126593261Y-93356739D01*
X126476705Y-93269385D01*
X126449321Y-93259119D01*
X126357687Y-93224767D01*
X126300923Y-93182125D01*
X126276223Y-93115564D01*
X126291430Y-93046215D01*
X126312977Y-93017535D01*
X126414052Y-92916812D01*
X126420730Y-92908965D01*
X126545003Y-92736020D01*
X126550313Y-92727183D01*
X126644670Y-92536267D01*
X126648469Y-92526672D01*
X126710377Y-92322910D01*
X126712555Y-92312837D01*
X126713986Y-92301962D01*
X126711775Y-92287778D01*
X126698617Y-92284000D01*
X124063225Y-92284000D01*
X124049694Y-92287973D01*
X124048257Y-92297966D01*
X124078565Y-92432446D01*
X124081645Y-92442275D01*
X124161770Y-92639603D01*
X124166413Y-92648794D01*
X124277694Y-92830388D01*
X124283777Y-92838699D01*
X124423213Y-92999667D01*
X124430577Y-93006879D01*
X124435522Y-93010985D01*
X124475156Y-93069889D01*
X124476653Y-93140870D01*
X124439537Y-93201392D01*
X124399264Y-93225910D01*
X124291705Y-93266232D01*
X124291704Y-93266233D01*
X124283295Y-93269385D01*
X124166739Y-93356739D01*
X124079385Y-93473295D01*
X124028255Y-93609684D01*
X124021500Y-93671866D01*
X124021500Y-95468134D01*
X122158837Y-95468134D01*
X122158414Y-95467800D01*
X122158410Y-95467798D01*
X122154359Y-95464598D01*
X122113053Y-95441796D01*
X122063084Y-95391364D01*
X122048312Y-95321921D01*
X122073428Y-95255516D01*
X122100780Y-95228909D01*
X122174070Y-95176632D01*
X122279860Y-95101173D01*
X122438096Y-94943489D01*
X122568453Y-94762077D01*
X122571880Y-94755144D01*
X122665136Y-94566453D01*
X122665137Y-94566451D01*
X122667430Y-94561811D01*
X122732370Y-94348069D01*
X122761529Y-94126590D01*
X122761611Y-94123240D01*
X122763074Y-94063365D01*
X122763074Y-94063361D01*
X122763156Y-94060000D01*
X122744852Y-93837361D01*
X122690431Y-93620702D01*
X122601354Y-93415840D01*
X122537574Y-93317251D01*
X122482822Y-93232617D01*
X122482820Y-93232614D01*
X122480014Y-93228277D01*
X122329670Y-93063051D01*
X122325619Y-93059852D01*
X122325615Y-93059848D01*
X122158414Y-92927800D01*
X122158410Y-92927798D01*
X122154359Y-92924598D01*
X122113053Y-92901796D01*
X122063084Y-92851364D01*
X122048312Y-92781921D01*
X122073428Y-92715516D01*
X122100780Y-92688909D01*
X122157019Y-92648794D01*
X122279860Y-92561173D01*
X122438096Y-92403489D01*
X122452713Y-92383148D01*
X122565435Y-92226277D01*
X122568453Y-92222077D01*
X122579680Y-92199362D01*
X122665136Y-92026453D01*
X122665137Y-92026451D01*
X122667430Y-92021811D01*
X122727226Y-91825000D01*
X149836496Y-91825000D01*
X149856458Y-92014928D01*
X149915473Y-92196556D01*
X149918776Y-92202278D01*
X149918777Y-92202279D01*
X149932632Y-92226277D01*
X150010960Y-92361944D01*
X150138747Y-92503866D01*
X150215636Y-92559729D01*
X150245151Y-92581173D01*
X150293248Y-92616118D01*
X150299276Y-92618802D01*
X150299278Y-92618803D01*
X150456740Y-92688909D01*
X150467712Y-92693794D01*
X150548170Y-92710896D01*
X150648056Y-92732128D01*
X150648061Y-92732128D01*
X150654513Y-92733500D01*
X150845487Y-92733500D01*
X150851948Y-92732127D01*
X150853752Y-92731937D01*
X150923591Y-92744709D01*
X150975438Y-92793211D01*
X150992832Y-92862044D01*
X150992234Y-92870410D01*
X150986496Y-92925000D01*
X150987186Y-92931565D01*
X151003996Y-93091500D01*
X151006458Y-93114928D01*
X151065473Y-93296556D01*
X151068776Y-93302278D01*
X151068777Y-93302279D01*
X151097113Y-93351358D01*
X151160960Y-93461944D01*
X151288747Y-93603866D01*
X151322576Y-93628444D01*
X151426286Y-93703794D01*
X151443248Y-93716118D01*
X151449276Y-93718802D01*
X151449278Y-93718803D01*
X151611681Y-93791109D01*
X151617712Y-93793794D01*
X151694294Y-93810072D01*
X151798056Y-93832128D01*
X151798061Y-93832128D01*
X151804513Y-93833500D01*
X151995487Y-93833500D01*
X152001939Y-93832128D01*
X152001944Y-93832128D01*
X152105706Y-93810072D01*
X152182288Y-93793794D01*
X152188319Y-93791109D01*
X152350722Y-93718803D01*
X152350724Y-93718802D01*
X152356752Y-93716118D01*
X152373715Y-93703794D01*
X152477424Y-93628444D01*
X152511253Y-93603866D01*
X152639040Y-93461944D01*
X152702887Y-93351358D01*
X152731223Y-93302279D01*
X152731224Y-93302278D01*
X152734527Y-93296556D01*
X152793542Y-93114928D01*
X152796005Y-93091500D01*
X152812814Y-92931565D01*
X152813504Y-92925000D01*
X152802821Y-92823357D01*
X152794232Y-92741635D01*
X152794232Y-92741633D01*
X152793542Y-92735072D01*
X152734527Y-92553444D01*
X152713419Y-92516883D01*
X152670343Y-92442275D01*
X152639040Y-92388056D01*
X152600352Y-92345088D01*
X152515675Y-92251045D01*
X152515674Y-92251044D01*
X152511253Y-92246134D01*
X152356752Y-92133882D01*
X152350724Y-92131198D01*
X152350722Y-92131197D01*
X152188319Y-92058891D01*
X152188318Y-92058891D01*
X152182288Y-92056206D01*
X152088888Y-92036353D01*
X152001944Y-92017872D01*
X152001939Y-92017872D01*
X151995487Y-92016500D01*
X151804513Y-92016500D01*
X151798052Y-92017873D01*
X151796248Y-92018063D01*
X151726409Y-92005291D01*
X151674562Y-91956789D01*
X151657168Y-91887956D01*
X151657767Y-91879582D01*
X151662814Y-91831564D01*
X151663504Y-91825000D01*
X151643542Y-91635072D01*
X151584527Y-91453444D01*
X151489040Y-91288056D01*
X151481416Y-91279588D01*
X151365675Y-91151045D01*
X151365674Y-91151044D01*
X151361253Y-91146134D01*
X151206752Y-91033882D01*
X151200724Y-91031198D01*
X151200722Y-91031197D01*
X151038319Y-90958891D01*
X151038318Y-90958891D01*
X151032288Y-90956206D01*
X150938888Y-90936353D01*
X150851944Y-90917872D01*
X150851939Y-90917872D01*
X150845487Y-90916500D01*
X150654513Y-90916500D01*
X150648061Y-90917872D01*
X150648056Y-90917872D01*
X150561113Y-90936353D01*
X150467712Y-90956206D01*
X150461682Y-90958891D01*
X150461681Y-90958891D01*
X150299278Y-91031197D01*
X150299276Y-91031198D01*
X150293248Y-91033882D01*
X150138747Y-91146134D01*
X150134326Y-91151044D01*
X150134325Y-91151045D01*
X150018585Y-91279588D01*
X150010960Y-91288056D01*
X149915473Y-91453444D01*
X149856458Y-91635072D01*
X149836496Y-91825000D01*
X122727226Y-91825000D01*
X122732370Y-91808069D01*
X122761529Y-91586590D01*
X122761611Y-91583240D01*
X122763074Y-91523365D01*
X122763074Y-91523361D01*
X122763156Y-91520000D01*
X122744852Y-91297361D01*
X122690431Y-91080702D01*
X122601354Y-90875840D01*
X122521397Y-90752245D01*
X122482822Y-90692617D01*
X122482820Y-90692614D01*
X122480014Y-90688277D01*
X122329670Y-90523051D01*
X122325619Y-90519852D01*
X122325615Y-90519848D01*
X122158414Y-90387800D01*
X122158410Y-90387798D01*
X122154359Y-90384598D01*
X122113053Y-90361796D01*
X122063084Y-90311364D01*
X122048312Y-90241921D01*
X122073428Y-90175516D01*
X122100780Y-90148909D01*
X122156702Y-90109020D01*
X122279860Y-90021173D01*
X122438096Y-89863489D01*
X122568453Y-89682077D01*
X122571880Y-89675144D01*
X122665136Y-89486453D01*
X122665137Y-89486451D01*
X122667430Y-89481811D01*
X122732370Y-89268069D01*
X122761529Y-89046590D01*
X122762301Y-89014993D01*
X122763074Y-88983365D01*
X122763074Y-88983361D01*
X122763156Y-88980000D01*
X122744852Y-88757361D01*
X122690431Y-88540702D01*
X122601354Y-88335840D01*
X122539399Y-88240072D01*
X122482822Y-88152617D01*
X122482820Y-88152614D01*
X122480014Y-88148277D01*
X122329670Y-87983051D01*
X122325619Y-87979852D01*
X122325615Y-87979848D01*
X122158414Y-87847800D01*
X122158410Y-87847798D01*
X122154359Y-87844598D01*
X122113053Y-87821796D01*
X122063084Y-87771364D01*
X122048312Y-87701921D01*
X122073428Y-87635516D01*
X122100780Y-87608909D01*
X122159143Y-87567279D01*
X122279860Y-87481173D01*
X122319540Y-87441632D01*
X122392634Y-87368792D01*
X122438096Y-87323489D01*
X122453622Y-87301883D01*
X122565435Y-87146277D01*
X122568453Y-87142077D01*
X122574379Y-87130088D01*
X122665136Y-86946453D01*
X122665137Y-86946451D01*
X122667430Y-86941811D01*
X122732370Y-86728069D01*
X122761529Y-86506590D01*
X122762196Y-86479305D01*
X122763074Y-86443365D01*
X122763074Y-86443361D01*
X122763156Y-86440000D01*
X122744852Y-86217361D01*
X122690431Y-86000702D01*
X122601354Y-85795840D01*
X122519699Y-85669621D01*
X122482822Y-85612617D01*
X122482820Y-85612614D01*
X122480014Y-85608277D01*
X122329670Y-85443051D01*
X122325619Y-85439852D01*
X122325615Y-85439848D01*
X122158414Y-85307800D01*
X122158410Y-85307798D01*
X122154359Y-85304598D01*
X122113053Y-85281796D01*
X122063084Y-85231364D01*
X122048312Y-85161921D01*
X122073428Y-85095516D01*
X122100780Y-85068909D01*
X122186028Y-85008102D01*
X122279860Y-84941173D01*
X122288006Y-84933056D01*
X122418026Y-84803489D01*
X122438096Y-84783489D01*
X122568453Y-84602077D01*
X122571880Y-84595144D01*
X122665136Y-84406453D01*
X122665137Y-84406451D01*
X122667430Y-84401811D01*
X122703434Y-84283307D01*
X122730865Y-84193023D01*
X122730865Y-84193021D01*
X122732370Y-84188069D01*
X122761529Y-83966590D01*
X122763156Y-83900000D01*
X122744852Y-83677361D01*
X122690431Y-83460702D01*
X122601354Y-83255840D01*
X122561906Y-83194862D01*
X122482822Y-83072617D01*
X122482820Y-83072614D01*
X122480014Y-83068277D01*
X122329670Y-82903051D01*
X122325619Y-82899852D01*
X122325615Y-82899848D01*
X122158414Y-82767800D01*
X122158410Y-82767798D01*
X122154359Y-82764598D01*
X122113053Y-82741796D01*
X122063084Y-82691364D01*
X122048312Y-82621921D01*
X122073428Y-82555516D01*
X122100780Y-82528909D01*
X122220104Y-82443796D01*
X122279860Y-82401173D01*
X122438096Y-82243489D01*
X122568453Y-82062077D01*
X122571880Y-82055144D01*
X122665136Y-81866453D01*
X122665137Y-81866451D01*
X122667430Y-81861811D01*
X122732370Y-81648069D01*
X122761529Y-81426590D01*
X122763156Y-81360000D01*
X122744852Y-81137361D01*
X122690431Y-80920702D01*
X122601354Y-80715840D01*
X122561906Y-80654862D01*
X122482822Y-80532617D01*
X122482820Y-80532614D01*
X122480014Y-80528277D01*
X122329670Y-80363051D01*
X122325619Y-80359852D01*
X122325615Y-80359848D01*
X122158414Y-80227800D01*
X122158410Y-80227798D01*
X122154359Y-80224598D01*
X122113053Y-80201796D01*
X122063084Y-80151364D01*
X122048312Y-80081921D01*
X122073428Y-80015516D01*
X122100780Y-79988909D01*
X122180607Y-79931969D01*
X122279860Y-79861173D01*
X122438096Y-79703489D01*
X122550896Y-79546511D01*
X122565435Y-79526277D01*
X122568453Y-79522077D01*
X122579680Y-79499362D01*
X122665136Y-79326453D01*
X122665137Y-79326451D01*
X122667430Y-79321811D01*
X122732370Y-79108069D01*
X122761529Y-78886590D01*
X122763156Y-78820000D01*
X122744852Y-78597361D01*
X122690431Y-78380702D01*
X122601354Y-78175840D01*
X122495960Y-78012926D01*
X122482822Y-77992617D01*
X122482820Y-77992614D01*
X122480014Y-77988277D01*
X122329670Y-77823051D01*
X122325619Y-77819852D01*
X122325615Y-77819848D01*
X122158414Y-77687800D01*
X122158410Y-77687798D01*
X122154359Y-77684598D01*
X122113053Y-77661796D01*
X122063084Y-77611364D01*
X122048312Y-77541921D01*
X122073428Y-77475516D01*
X122100780Y-77448909D01*
X122220104Y-77363796D01*
X122279860Y-77321173D01*
X122438096Y-77163489D01*
X122568453Y-76982077D01*
X122571880Y-76975144D01*
X122665136Y-76786453D01*
X122665137Y-76786451D01*
X122667430Y-76781811D01*
X122732370Y-76568069D01*
X122761529Y-76346590D01*
X122763156Y-76280000D01*
X122744852Y-76057361D01*
X122690431Y-75840702D01*
X122601354Y-75635840D01*
X122561906Y-75574862D01*
X122482822Y-75452617D01*
X122482820Y-75452614D01*
X122480014Y-75448277D01*
X122329670Y-75283051D01*
X122325619Y-75279852D01*
X122325615Y-75279848D01*
X122158414Y-75147800D01*
X122158410Y-75147798D01*
X122154359Y-75144598D01*
X122112569Y-75121529D01*
X122062598Y-75071097D01*
X122047826Y-75001654D01*
X122072942Y-74935248D01*
X122100294Y-74908641D01*
X122275328Y-74783792D01*
X122283200Y-74777139D01*
X122434052Y-74626812D01*
X122440730Y-74618965D01*
X122565003Y-74446020D01*
X122570313Y-74437183D01*
X122664670Y-74246267D01*
X122668469Y-74236672D01*
X122730377Y-74032910D01*
X122732555Y-74022837D01*
X122733986Y-74011962D01*
X122731775Y-73997778D01*
X122718617Y-73994000D01*
X121272000Y-73994000D01*
X121203879Y-73973998D01*
X121157386Y-73920342D01*
X121146000Y-73868000D01*
X121146000Y-73612000D01*
X121166002Y-73543879D01*
X121219658Y-73497386D01*
X121272000Y-73486000D01*
X122718344Y-73486000D01*
X122731875Y-73482027D01*
X122733180Y-73472947D01*
X122691214Y-73305875D01*
X122687894Y-73296124D01*
X122602972Y-73100814D01*
X122598105Y-73091739D01*
X122482426Y-72912926D01*
X122476136Y-72904757D01*
X122332293Y-72746677D01*
X122301241Y-72682831D01*
X122309635Y-72612333D01*
X122354812Y-72557564D01*
X122381256Y-72543895D01*
X122488297Y-72503767D01*
X122496705Y-72500615D01*
X122613261Y-72413261D01*
X122700615Y-72296705D01*
X122751745Y-72160316D01*
X122758500Y-72098134D01*
X122758500Y-70301866D01*
X122751745Y-70239684D01*
X122700615Y-70103295D01*
X122613261Y-69986739D01*
X122496705Y-69899385D01*
X122360316Y-69848255D01*
X122298134Y-69841500D01*
X120634000Y-69841500D01*
X120565879Y-69821498D01*
X120519386Y-69767842D01*
X120508000Y-69715500D01*
X120508000Y-64700877D01*
X120528002Y-64632756D01*
X120581658Y-64586263D01*
X120651932Y-64576159D01*
X120713038Y-64602749D01*
X120899132Y-64752640D01*
X121181352Y-64928648D01*
X121482672Y-65069476D01*
X121798729Y-65173085D01*
X122124944Y-65237973D01*
X122128716Y-65238260D01*
X122128724Y-65238261D01*
X122452815Y-65262914D01*
X122452820Y-65262914D01*
X122456592Y-65263201D01*
X122788869Y-65248403D01*
X122793401Y-65247649D01*
X123113220Y-65194417D01*
X123113225Y-65194416D01*
X123116961Y-65193794D01*
X123436116Y-65100164D01*
X123439583Y-65098674D01*
X123439587Y-65098673D01*
X123738228Y-64970366D01*
X123738230Y-64970365D01*
X123741712Y-64968869D01*
X124029321Y-64801813D01*
X124032343Y-64799532D01*
X124032347Y-64799529D01*
X124291753Y-64603697D01*
X124291754Y-64603696D01*
X124294777Y-64601414D01*
X124534235Y-64370575D01*
X124744227Y-64112641D01*
X124759438Y-64088533D01*
X124812705Y-64041594D01*
X124882892Y-64030905D01*
X124947716Y-64059860D01*
G37*
%TD.AperFunction*%
%TA.AperFunction,Conductor*%
G36*
X175216512Y-64059176D02*
G01*
X175234162Y-64077957D01*
X175258182Y-64109431D01*
X175405712Y-64302742D01*
X175405717Y-64302748D01*
X175408012Y-64305755D01*
X175640102Y-64544002D01*
X175899132Y-64752640D01*
X176181352Y-64928648D01*
X176482672Y-65069476D01*
X176798729Y-65173085D01*
X177124944Y-65237973D01*
X177128716Y-65238260D01*
X177128724Y-65238261D01*
X177452815Y-65262914D01*
X177452820Y-65262914D01*
X177456592Y-65263201D01*
X177788869Y-65248403D01*
X177793401Y-65247649D01*
X178113220Y-65194417D01*
X178113225Y-65194416D01*
X178116961Y-65193794D01*
X178436116Y-65100164D01*
X178439583Y-65098674D01*
X178439587Y-65098673D01*
X178738228Y-64970366D01*
X178738230Y-64970365D01*
X178741712Y-64968869D01*
X179029321Y-64801813D01*
X179032350Y-64799526D01*
X179032355Y-64799523D01*
X179290084Y-64604958D01*
X179356503Y-64579878D01*
X179425938Y-64594689D01*
X179476342Y-64644688D01*
X179492000Y-64705520D01*
X179492000Y-69947673D01*
X179471998Y-70015794D01*
X179418342Y-70062287D01*
X179348068Y-70072391D01*
X179305106Y-70057982D01*
X179163107Y-69979594D01*
X179153705Y-69975369D01*
X178952959Y-69904280D01*
X178942988Y-69901646D01*
X178871837Y-69888972D01*
X178858540Y-69890432D01*
X178854000Y-69904989D01*
X178854000Y-71348000D01*
X178833998Y-71416121D01*
X178780342Y-71462614D01*
X178728000Y-71474000D01*
X178472000Y-71474000D01*
X178403879Y-71453998D01*
X178357386Y-71400342D01*
X178346000Y-71348000D01*
X178346000Y-69903102D01*
X178342082Y-69889758D01*
X178327806Y-69887771D01*
X178289324Y-69893660D01*
X178279288Y-69896051D01*
X178076868Y-69962212D01*
X178067359Y-69966209D01*
X177878463Y-70064542D01*
X177869738Y-70070036D01*
X177699433Y-70197905D01*
X177691726Y-70204748D01*
X177544590Y-70358717D01*
X177538109Y-70366722D01*
X177433498Y-70520074D01*
X177378587Y-70565076D01*
X177308062Y-70573247D01*
X177244315Y-70541993D01*
X177223618Y-70517509D01*
X177142822Y-70392617D01*
X177142820Y-70392614D01*
X177140014Y-70388277D01*
X176989670Y-70223051D01*
X176985619Y-70219852D01*
X176985615Y-70219848D01*
X176818414Y-70087800D01*
X176818410Y-70087798D01*
X176814359Y-70084598D01*
X176778028Y-70064542D01*
X176689720Y-70015794D01*
X176618789Y-69976638D01*
X176613920Y-69974914D01*
X176613916Y-69974912D01*
X176413087Y-69903795D01*
X176413083Y-69903794D01*
X176408212Y-69902069D01*
X176403119Y-69901162D01*
X176403116Y-69901161D01*
X176193373Y-69863800D01*
X176193367Y-69863799D01*
X176188284Y-69862894D01*
X176114452Y-69861992D01*
X175970081Y-69860228D01*
X175970079Y-69860228D01*
X175964911Y-69860165D01*
X175744091Y-69893955D01*
X175531756Y-69963357D01*
X175486840Y-69986739D01*
X175341714Y-70062287D01*
X175333607Y-70066507D01*
X175329474Y-70069610D01*
X175329471Y-70069612D01*
X175209653Y-70159574D01*
X175143168Y-70184480D01*
X175073772Y-70169488D01*
X175023499Y-70119357D01*
X175008000Y-70058814D01*
X175008000Y-64154400D01*
X175028002Y-64086279D01*
X175081658Y-64039786D01*
X175151932Y-64029682D01*
X175216512Y-64059176D01*
G37*
%TD.AperFunction*%
%TD*%
M02*
