%TF.GenerationSoftware,KiCad,Pcbnew,6.0.0-d3dd2cf0fa~116~ubuntu20.04.1*%
%TF.CreationDate,2022-01-05T21:30:44+00:00*%
%TF.ProjectId,opizero2_cc2652p,6f70697a-6572-46f3-925f-636332363532,rev?*%
%TF.SameCoordinates,Original*%
%TF.FileFunction,Copper,L3,Inr*%
%TF.FilePolarity,Positive*%
%FSLAX46Y46*%
G04 Gerber Fmt 4.6, Leading zero omitted, Abs format (unit mm)*
G04 Created by KiCad (PCBNEW 6.0.0-d3dd2cf0fa~116~ubuntu20.04.1) date 2022-01-05 21:30:44*
%MOMM*%
%LPD*%
G01*
G04 APERTURE LIST*
%TA.AperFunction,ComponentPad*%
%ADD10R,1.700000X1.700000*%
%TD*%
%TA.AperFunction,ComponentPad*%
%ADD11O,1.700000X1.700000*%
%TD*%
%TA.AperFunction,ComponentPad*%
%ADD12R,1.000000X1.000000*%
%TD*%
%TA.AperFunction,ComponentPad*%
%ADD13O,1.000000X1.000000*%
%TD*%
%TA.AperFunction,ComponentPad*%
%ADD14C,4.500000*%
%TD*%
%TA.AperFunction,ViaPad*%
%ADD15C,0.800000*%
%TD*%
G04 APERTURE END LIST*
D10*
%TO.N,Net-(D2-Pad1)*%
%TO.C,J4*%
X170775000Y-101300000D03*
D11*
%TO.N,GND*%
X168235000Y-101300000D03*
%TD*%
D10*
%TO.N,+3V3*%
%TO.C,J5*%
X125380000Y-94570000D03*
D11*
%TO.N,GND*%
X125380000Y-92030000D03*
%TO.N,/SCL*%
X125380000Y-89490000D03*
%TO.N,/SDA*%
X125380000Y-86950000D03*
%TD*%
D10*
%TO.N,+3V3*%
%TO.C,J3*%
X164475000Y-86325000D03*
D11*
%TO.N,/UART_RX*%
X167015000Y-86325000D03*
%TO.N,/UART_TX*%
X169555000Y-86325000D03*
%TO.N,GND*%
X172095000Y-86325000D03*
%TD*%
D12*
%TO.N,+3V3*%
%TO.C,J6*%
X165760000Y-109465000D03*
D13*
%TO.N,XDS_TMS*%
X165760000Y-108195000D03*
%TO.N,GND*%
X167030000Y-109465000D03*
%TO.N,XDS_TCK*%
X167030000Y-108195000D03*
%TO.N,GND*%
X168300000Y-109465000D03*
%TO.N,XDS_TDO*%
X168300000Y-108195000D03*
%TO.N,unconnected-(J6-Pad7)*%
X169570000Y-109465000D03*
%TO.N,XDS_TDI*%
X169570000Y-108195000D03*
%TO.N,GND*%
X170840000Y-109465000D03*
%TO.N,{slash}RESET*%
X170840000Y-108195000D03*
%TD*%
D10*
%TO.N,+5VP*%
%TO.C,J2*%
X121400000Y-71200000D03*
D11*
%TO.N,GND*%
X121400000Y-73740000D03*
%TO.N,/USB2_D-*%
X121400000Y-76280000D03*
%TO.N,/USB2_D+*%
X121400000Y-78820000D03*
%TO.N,/USB3_D-*%
X121400000Y-81360000D03*
%TO.N,/USB3_D+*%
X121400000Y-83900000D03*
%TO.N,/LINEOUT_R*%
X121400000Y-86440000D03*
%TO.N,/LINEOUT_L*%
X121400000Y-88980000D03*
%TO.N,/TV_OUT*%
X121400000Y-91520000D03*
%TO.N,/PC1*%
X121400000Y-94060000D03*
%TO.N,/PI16*%
X121400000Y-96600000D03*
%TO.N,/PI6*%
X121400000Y-99140000D03*
%TO.N,/IR_RX*%
X121400000Y-101680000D03*
%TD*%
%TO.N,/PC10*%
%TO.C,J1*%
X176060000Y-71220000D03*
%TO.N,GND*%
X178600000Y-71220000D03*
%TO.N,/SPI_CS*%
X176060000Y-73760000D03*
%TO.N,/SPI_CLK*%
X178600000Y-73760000D03*
%TO.N,/PC7*%
X176060000Y-76300000D03*
%TO.N,/SPI_MISO*%
X178600000Y-76300000D03*
%TO.N,GND*%
X176060000Y-78840000D03*
%TO.N,/SPI_MOSI*%
X178600000Y-78840000D03*
%TO.N,/PC14*%
X176060000Y-81380000D03*
%TO.N,+3.3VP*%
X178600000Y-81380000D03*
%TO.N,/PC15*%
X176060000Y-83920000D03*
%TO.N,/PC8*%
X178600000Y-83920000D03*
%TO.N,GND*%
X176060000Y-86460000D03*
%TO.N,/PC5*%
X178600000Y-86460000D03*
%TO.N,/PC11*%
X176060000Y-89000000D03*
%TO.N,/PC6*%
X178600000Y-89000000D03*
%TO.N,/UART_RX*%
X176060000Y-91540000D03*
%TO.N,GND*%
X178600000Y-91540000D03*
%TO.N,/UART_TX*%
X176060000Y-94080000D03*
%TO.N,/PC9*%
X178600000Y-94080000D03*
%TO.N,GND*%
X176060000Y-96620000D03*
%TO.N,/opSCL*%
X178600000Y-96620000D03*
%TO.N,+5V*%
X176060000Y-99160000D03*
%TO.N,/opSDA*%
X178600000Y-99160000D03*
%TO.N,+5V*%
X176060000Y-101700000D03*
D10*
%TO.N,+3.3VP*%
X178600000Y-101700000D03*
%TD*%
D14*
%TO.N,N/C*%
%TO.C,H4*%
X122500000Y-110500000D03*
%TD*%
%TO.N,N/C*%
%TO.C,H3*%
X177500000Y-110500000D03*
%TD*%
%TO.N,N/C*%
%TO.C,H2*%
X177500000Y-62500000D03*
%TD*%
%TO.N,N/C*%
%TO.C,H1*%
X122500000Y-62500000D03*
%TD*%
D15*
%TO.N,+3V3*%
X127230000Y-85470000D03*
X128180000Y-94830000D03*
%TO.N,GND*%
X158730000Y-86390000D03*
%TO.N,/BSL*%
X128610000Y-84930000D03*
X156080000Y-88430000D03*
%TO.N,GND*%
X164700000Y-91200000D03*
X123800000Y-92010000D03*
X124000000Y-79000000D03*
X124000000Y-75000000D03*
X124000000Y-73000000D03*
X121000000Y-68000000D03*
X124000000Y-68000000D03*
X124000000Y-66000000D03*
X121000000Y-66000000D03*
X163000000Y-89000000D03*
X167000000Y-89000000D03*
X156000000Y-92280000D03*
X158000000Y-92280000D03*
X152000000Y-100000000D03*
X152000000Y-103000000D03*
X157000000Y-103000000D03*
X157000000Y-106000000D03*
X152000000Y-106000000D03*
X126000000Y-100000000D03*
X126000000Y-103000000D03*
X126000000Y-106000000D03*
X145000000Y-86000000D03*
X140000000Y-86000000D03*
X135000000Y-86000000D03*
X145000000Y-100000000D03*
X145000000Y-96000000D03*
X145000000Y-92000000D03*
X140000000Y-92000000D03*
X140000000Y-96000000D03*
X140000000Y-100000000D03*
X135000000Y-92000000D03*
X135000000Y-96000000D03*
X135000000Y-100000000D03*
X135210000Y-104000000D03*
X138000000Y-104000000D03*
X141000000Y-104000000D03*
X144000000Y-104000000D03*
X147000000Y-104000000D03*
X147000000Y-106000000D03*
X144000000Y-106000000D03*
X141000000Y-106000000D03*
X138000000Y-106000000D03*
X133560000Y-106120000D03*
X135210000Y-106000000D03*
X132450000Y-105000000D03*
X131330000Y-105010000D03*
X130220000Y-105030000D03*
X129240000Y-106140000D03*
X163380000Y-91200000D03*
X162280000Y-92280000D03*
X166060000Y-92050000D03*
X167410000Y-92050000D03*
X168830000Y-92060000D03*
X171590000Y-99230000D03*
X172070000Y-94150000D03*
X173010000Y-94150000D03*
X173950000Y-94140000D03*
X173310000Y-91390000D03*
X172370000Y-91400000D03*
X171260000Y-92060000D03*
X170210000Y-92100000D03*
X173080000Y-111830000D03*
%TO.N,+3V3*%
X174370000Y-110070000D03*
X154390000Y-87190000D03*
X153160000Y-88190000D03*
X163725000Y-98175000D03*
X166050000Y-98600000D03*
%TO.N,GND*%
X154400000Y-85300000D03*
%TO.N,{slash}RESET*%
X163659970Y-103625000D03*
%TO.N,+3V3*%
X165800000Y-110825000D03*
X162825000Y-94000000D03*
X162850000Y-96375000D03*
X164100000Y-93900000D03*
X164175000Y-96500000D03*
X162475000Y-95225000D03*
%TO.N,/UART_TX*%
X151900000Y-92925000D03*
%TO.N,/UART_RX*%
X150750000Y-91825000D03*
%TO.N,XDS_TDO*%
X168148000Y-105156000D03*
%TO.N,XDS_TDI*%
X135890000Y-89408000D03*
%TO.N,XDS_TDO*%
X134620000Y-88138000D03*
%TD*%
%TA.AperFunction,Conductor*%
%TO.N,+3V3*%
G36*
X123286567Y-65164882D02*
G01*
X123346284Y-65203280D01*
X123375762Y-65267868D01*
X123365641Y-65338139D01*
X123344676Y-65370079D01*
X123260960Y-65463056D01*
X123165473Y-65628444D01*
X123106458Y-65810072D01*
X123086496Y-66000000D01*
X123106458Y-66189928D01*
X123165473Y-66371556D01*
X123260960Y-66536944D01*
X123388747Y-66678866D01*
X123543248Y-66791118D01*
X123549276Y-66793802D01*
X123549278Y-66793803D01*
X123711681Y-66866109D01*
X123717712Y-66868794D01*
X123755156Y-66876753D01*
X123817629Y-66910482D01*
X123851951Y-66972631D01*
X123847223Y-67043470D01*
X123804947Y-67100508D01*
X123755156Y-67123247D01*
X123717712Y-67131206D01*
X123711682Y-67133891D01*
X123711681Y-67133891D01*
X123549278Y-67206197D01*
X123549276Y-67206198D01*
X123543248Y-67208882D01*
X123388747Y-67321134D01*
X123260960Y-67463056D01*
X123165473Y-67628444D01*
X123106458Y-67810072D01*
X123086496Y-68000000D01*
X123106458Y-68189928D01*
X123165473Y-68371556D01*
X123260960Y-68536944D01*
X123388747Y-68678866D01*
X123543248Y-68791118D01*
X123549276Y-68793802D01*
X123549278Y-68793803D01*
X123711681Y-68866109D01*
X123717712Y-68868794D01*
X123811113Y-68888647D01*
X123898056Y-68907128D01*
X123898061Y-68907128D01*
X123904513Y-68908500D01*
X124095487Y-68908500D01*
X124101939Y-68907128D01*
X124101944Y-68907128D01*
X124188887Y-68888647D01*
X124282288Y-68868794D01*
X124288319Y-68866109D01*
X124450722Y-68793803D01*
X124450724Y-68793802D01*
X124456752Y-68791118D01*
X124611253Y-68678866D01*
X124739040Y-68536944D01*
X124756882Y-68506041D01*
X124808264Y-68457049D01*
X124877978Y-68443614D01*
X124943889Y-68470001D01*
X124985070Y-68527833D01*
X124992000Y-68569043D01*
X124992000Y-72430957D01*
X124971998Y-72499078D01*
X124918342Y-72545571D01*
X124848068Y-72555675D01*
X124783488Y-72526181D01*
X124756881Y-72493958D01*
X124739040Y-72463056D01*
X124699050Y-72418642D01*
X124615675Y-72326045D01*
X124615674Y-72326044D01*
X124611253Y-72321134D01*
X124456752Y-72208882D01*
X124450724Y-72206198D01*
X124450722Y-72206197D01*
X124288319Y-72133891D01*
X124288318Y-72133891D01*
X124282288Y-72131206D01*
X124169053Y-72107137D01*
X124101944Y-72092872D01*
X124101939Y-72092872D01*
X124095487Y-72091500D01*
X123904513Y-72091500D01*
X123898061Y-72092872D01*
X123898056Y-72092872D01*
X123830947Y-72107137D01*
X123717712Y-72131206D01*
X123711682Y-72133891D01*
X123711681Y-72133891D01*
X123549278Y-72206197D01*
X123549276Y-72206198D01*
X123543248Y-72208882D01*
X123388747Y-72321134D01*
X123384326Y-72326044D01*
X123384325Y-72326045D01*
X123300951Y-72418642D01*
X123260960Y-72463056D01*
X123224515Y-72526181D01*
X123179241Y-72604598D01*
X123165473Y-72628444D01*
X123106458Y-72810072D01*
X123105768Y-72816633D01*
X123105768Y-72816635D01*
X123096333Y-72906403D01*
X123086496Y-73000000D01*
X123087186Y-73006565D01*
X123092493Y-73057054D01*
X123106458Y-73189928D01*
X123165473Y-73371556D01*
X123260960Y-73536944D01*
X123388747Y-73678866D01*
X123543248Y-73791118D01*
X123549276Y-73793802D01*
X123549278Y-73793803D01*
X123585451Y-73809908D01*
X123717712Y-73868794D01*
X123755156Y-73876753D01*
X123817629Y-73910482D01*
X123851951Y-73972631D01*
X123847223Y-74043470D01*
X123804947Y-74100508D01*
X123755156Y-74123247D01*
X123717712Y-74131206D01*
X123711682Y-74133891D01*
X123711681Y-74133891D01*
X123549278Y-74206197D01*
X123549276Y-74206198D01*
X123543248Y-74208882D01*
X123388747Y-74321134D01*
X123384326Y-74326044D01*
X123384325Y-74326045D01*
X123279850Y-74442077D01*
X123260960Y-74463056D01*
X123165473Y-74628444D01*
X123106458Y-74810072D01*
X123105768Y-74816633D01*
X123105768Y-74816635D01*
X123101986Y-74852619D01*
X123086496Y-75000000D01*
X123087186Y-75006565D01*
X123103534Y-75162104D01*
X123106458Y-75189928D01*
X123165473Y-75371556D01*
X123260960Y-75536944D01*
X123265378Y-75541851D01*
X123265379Y-75541852D01*
X123346091Y-75631492D01*
X123388747Y-75678866D01*
X123543248Y-75791118D01*
X123549276Y-75793802D01*
X123549278Y-75793803D01*
X123711681Y-75866109D01*
X123717712Y-75868794D01*
X123811112Y-75888647D01*
X123898056Y-75907128D01*
X123898061Y-75907128D01*
X123904513Y-75908500D01*
X124095487Y-75908500D01*
X124101939Y-75907128D01*
X124101944Y-75907128D01*
X124188888Y-75888647D01*
X124282288Y-75868794D01*
X124288319Y-75866109D01*
X124450722Y-75793803D01*
X124450724Y-75793802D01*
X124456752Y-75791118D01*
X124611253Y-75678866D01*
X124653909Y-75631492D01*
X124734621Y-75541852D01*
X124734622Y-75541851D01*
X124739040Y-75536944D01*
X124756882Y-75506041D01*
X124808264Y-75457049D01*
X124877978Y-75443614D01*
X124943889Y-75470001D01*
X124985070Y-75527833D01*
X124992000Y-75569043D01*
X124992000Y-78430957D01*
X124971998Y-78499078D01*
X124918342Y-78545571D01*
X124848068Y-78555675D01*
X124783488Y-78526181D01*
X124756881Y-78493958D01*
X124742341Y-78468774D01*
X124739040Y-78463056D01*
X124669407Y-78385720D01*
X124615675Y-78326045D01*
X124615674Y-78326044D01*
X124611253Y-78321134D01*
X124456752Y-78208882D01*
X124450724Y-78206198D01*
X124450722Y-78206197D01*
X124288319Y-78133891D01*
X124288318Y-78133891D01*
X124282288Y-78131206D01*
X124188888Y-78111353D01*
X124101944Y-78092872D01*
X124101939Y-78092872D01*
X124095487Y-78091500D01*
X123904513Y-78091500D01*
X123898061Y-78092872D01*
X123898056Y-78092872D01*
X123811112Y-78111353D01*
X123717712Y-78131206D01*
X123711682Y-78133891D01*
X123711681Y-78133891D01*
X123549278Y-78206197D01*
X123549276Y-78206198D01*
X123543248Y-78208882D01*
X123388747Y-78321134D01*
X123384326Y-78326044D01*
X123384325Y-78326045D01*
X123330594Y-78385720D01*
X123260960Y-78463056D01*
X123257659Y-78468774D01*
X123186317Y-78592342D01*
X123165473Y-78628444D01*
X123106458Y-78810072D01*
X123105768Y-78816633D01*
X123105768Y-78816635D01*
X123105061Y-78823365D01*
X123086496Y-79000000D01*
X123106458Y-79189928D01*
X123165473Y-79371556D01*
X123260960Y-79536944D01*
X123265378Y-79541851D01*
X123265379Y-79541852D01*
X123384325Y-79673955D01*
X123388747Y-79678866D01*
X123543248Y-79791118D01*
X123549276Y-79793802D01*
X123549278Y-79793803D01*
X123711681Y-79866109D01*
X123717712Y-79868794D01*
X123811113Y-79888647D01*
X123898056Y-79907128D01*
X123898061Y-79907128D01*
X123904513Y-79908500D01*
X124095487Y-79908500D01*
X124101939Y-79907128D01*
X124101944Y-79907128D01*
X124188887Y-79888647D01*
X124282288Y-79868794D01*
X124288319Y-79866109D01*
X124450722Y-79793803D01*
X124450724Y-79793802D01*
X124456752Y-79791118D01*
X124611253Y-79678866D01*
X124615675Y-79673955D01*
X124734621Y-79541852D01*
X124734622Y-79541851D01*
X124739040Y-79536944D01*
X124756882Y-79506041D01*
X124808264Y-79457049D01*
X124877978Y-79443614D01*
X124943889Y-79470001D01*
X124985070Y-79527833D01*
X124992000Y-79569043D01*
X124992000Y-83991298D01*
X124991998Y-83992068D01*
X124991524Y-84069652D01*
X124993990Y-84078281D01*
X124993991Y-84078286D01*
X124999639Y-84098048D01*
X125003217Y-84114809D01*
X125006130Y-84135152D01*
X125006133Y-84135162D01*
X125007405Y-84144045D01*
X125018021Y-84167395D01*
X125024464Y-84184907D01*
X125031512Y-84209565D01*
X125047274Y-84234548D01*
X125055404Y-84249614D01*
X125067633Y-84276510D01*
X125084374Y-84295939D01*
X125095479Y-84310947D01*
X125109160Y-84332631D01*
X125115888Y-84338573D01*
X125131296Y-84352181D01*
X125143340Y-84364373D01*
X125162619Y-84386747D01*
X125170147Y-84391626D01*
X125170150Y-84391629D01*
X125184139Y-84400696D01*
X125199013Y-84411986D01*
X125218228Y-84428956D01*
X125226354Y-84432771D01*
X125226355Y-84432772D01*
X125232021Y-84435432D01*
X125244966Y-84441510D01*
X125259935Y-84449824D01*
X125284727Y-84465893D01*
X125293327Y-84468465D01*
X125309290Y-84473239D01*
X125326736Y-84479901D01*
X125349948Y-84490799D01*
X125379130Y-84495343D01*
X125395849Y-84499126D01*
X125415536Y-84505014D01*
X125415539Y-84505015D01*
X125424141Y-84507587D01*
X125433116Y-84507642D01*
X125433117Y-84507642D01*
X125439810Y-84507683D01*
X125458556Y-84507797D01*
X125459328Y-84507830D01*
X125460423Y-84508000D01*
X125491298Y-84508000D01*
X125492068Y-84508002D01*
X125565716Y-84508452D01*
X125565717Y-84508452D01*
X125569652Y-84508476D01*
X125570996Y-84508092D01*
X125572341Y-84508000D01*
X127618439Y-84508000D01*
X127686560Y-84528002D01*
X127733053Y-84581658D01*
X127743157Y-84651932D01*
X127738272Y-84672936D01*
X127716458Y-84740072D01*
X127715768Y-84746633D01*
X127715768Y-84746635D01*
X127714042Y-84763056D01*
X127696496Y-84930000D01*
X127697186Y-84936565D01*
X127713407Y-85090896D01*
X127716458Y-85119928D01*
X127775473Y-85301556D01*
X127778776Y-85307278D01*
X127778777Y-85307279D01*
X127786776Y-85321134D01*
X127870960Y-85466944D01*
X127875378Y-85471851D01*
X127875379Y-85471852D01*
X127987340Y-85596197D01*
X127998747Y-85608866D01*
X128050598Y-85646538D01*
X128146266Y-85716045D01*
X128153248Y-85721118D01*
X128159276Y-85723802D01*
X128159278Y-85723803D01*
X128311311Y-85791492D01*
X128327712Y-85798794D01*
X128402064Y-85814598D01*
X128508056Y-85837128D01*
X128508061Y-85837128D01*
X128514513Y-85838500D01*
X128705487Y-85838500D01*
X128711939Y-85837128D01*
X128711944Y-85837128D01*
X128817936Y-85814598D01*
X128892288Y-85798794D01*
X128908689Y-85791492D01*
X129060722Y-85723803D01*
X129060724Y-85723802D01*
X129066752Y-85721118D01*
X129073735Y-85716045D01*
X129169402Y-85646538D01*
X129221253Y-85608866D01*
X129232660Y-85596197D01*
X129344621Y-85471852D01*
X129344622Y-85471851D01*
X129349040Y-85466944D01*
X129433224Y-85321134D01*
X129441223Y-85307279D01*
X129441224Y-85307278D01*
X129444527Y-85301556D01*
X129503542Y-85119928D01*
X129506594Y-85090896D01*
X129522814Y-84936565D01*
X129523504Y-84930000D01*
X129505958Y-84763056D01*
X129504232Y-84746635D01*
X129504232Y-84746633D01*
X129503542Y-84740072D01*
X129481728Y-84672936D01*
X129479700Y-84601969D01*
X129516363Y-84541171D01*
X129580075Y-84509845D01*
X129601561Y-84508000D01*
X153607613Y-84508000D01*
X153675734Y-84528002D01*
X153722227Y-84581658D01*
X153732331Y-84651932D01*
X153701251Y-84718309D01*
X153660960Y-84763056D01*
X153565473Y-84928444D01*
X153506458Y-85110072D01*
X153505768Y-85116633D01*
X153505768Y-85116635D01*
X153497868Y-85191797D01*
X153486496Y-85300000D01*
X153487186Y-85306565D01*
X153504235Y-85468774D01*
X153506458Y-85489928D01*
X153565473Y-85671556D01*
X153568776Y-85677278D01*
X153568777Y-85677279D01*
X153587170Y-85709137D01*
X153660960Y-85836944D01*
X153788747Y-85978866D01*
X153843221Y-86018444D01*
X153911600Y-86068124D01*
X153943248Y-86091118D01*
X153949276Y-86093802D01*
X153949278Y-86093803D01*
X154004248Y-86118277D01*
X154117712Y-86168794D01*
X154186263Y-86183365D01*
X154298056Y-86207128D01*
X154298061Y-86207128D01*
X154304513Y-86208500D01*
X154495487Y-86208500D01*
X154501939Y-86207128D01*
X154501944Y-86207128D01*
X154613737Y-86183365D01*
X154682288Y-86168794D01*
X154795752Y-86118277D01*
X154850722Y-86093803D01*
X154850724Y-86093802D01*
X154856752Y-86091118D01*
X154888401Y-86068124D01*
X154956779Y-86018444D01*
X155011253Y-85978866D01*
X155139040Y-85836944D01*
X155212830Y-85709137D01*
X155231223Y-85677279D01*
X155231224Y-85677278D01*
X155234527Y-85671556D01*
X155293542Y-85489928D01*
X155295766Y-85468774D01*
X155312814Y-85306565D01*
X155313504Y-85300000D01*
X155302132Y-85191797D01*
X155294232Y-85116635D01*
X155294232Y-85116633D01*
X155293542Y-85110072D01*
X155234527Y-84928444D01*
X155139040Y-84763056D01*
X155098749Y-84718309D01*
X155068033Y-84654302D01*
X155076798Y-84583849D01*
X155122261Y-84529318D01*
X155192387Y-84508000D01*
X174491298Y-84508000D01*
X174492069Y-84508002D01*
X174569652Y-84508476D01*
X174578281Y-84506010D01*
X174578286Y-84506009D01*
X174598048Y-84500361D01*
X174614809Y-84496783D01*
X174635152Y-84493870D01*
X174635162Y-84493867D01*
X174644045Y-84492595D01*
X174667395Y-84481979D01*
X174684907Y-84475536D01*
X174697489Y-84471940D01*
X174768484Y-84472452D01*
X174827931Y-84511266D01*
X174842941Y-84533815D01*
X174843266Y-84534616D01*
X174845966Y-84539022D01*
X174845967Y-84539024D01*
X174957291Y-84720688D01*
X174959987Y-84725088D01*
X175106250Y-84893938D01*
X175278126Y-85036632D01*
X175329667Y-85066750D01*
X175351445Y-85079476D01*
X175400169Y-85131114D01*
X175413240Y-85200897D01*
X175386509Y-85266669D01*
X175346055Y-85300027D01*
X175333607Y-85306507D01*
X175329474Y-85309610D01*
X175329471Y-85309612D01*
X175164733Y-85433301D01*
X175154965Y-85440635D01*
X175000629Y-85602138D01*
X174874743Y-85786680D01*
X174843353Y-85854305D01*
X174785534Y-85978866D01*
X174780688Y-85989305D01*
X174720989Y-86204570D01*
X174697251Y-86426695D01*
X174697548Y-86431848D01*
X174697548Y-86431851D01*
X174706291Y-86583475D01*
X174710110Y-86649715D01*
X174711247Y-86654761D01*
X174711248Y-86654767D01*
X174733898Y-86755271D01*
X174759222Y-86867639D01*
X174843266Y-87074616D01*
X174881763Y-87137438D01*
X174957291Y-87260688D01*
X174959987Y-87265088D01*
X175106250Y-87433938D01*
X175278126Y-87576632D01*
X175311524Y-87596148D01*
X175351445Y-87619476D01*
X175400169Y-87671114D01*
X175413240Y-87740897D01*
X175386509Y-87806669D01*
X175346055Y-87840027D01*
X175333607Y-87846507D01*
X175329474Y-87849610D01*
X175329471Y-87849612D01*
X175164733Y-87973301D01*
X175154965Y-87980635D01*
X175151393Y-87984373D01*
X175031842Y-88109476D01*
X175000629Y-88142138D01*
X174997720Y-88146403D01*
X174997714Y-88146411D01*
X174933823Y-88240072D01*
X174874743Y-88326680D01*
X174833213Y-88416150D01*
X174787199Y-88515279D01*
X174780688Y-88529305D01*
X174720989Y-88744570D01*
X174697251Y-88966695D01*
X174697548Y-88971848D01*
X174697548Y-88971851D01*
X174702049Y-89049908D01*
X174710110Y-89189715D01*
X174711247Y-89194761D01*
X174711248Y-89194767D01*
X174734087Y-89296109D01*
X174759222Y-89407639D01*
X174843266Y-89614616D01*
X174881763Y-89677438D01*
X174957291Y-89800688D01*
X174959987Y-89805088D01*
X175106250Y-89973938D01*
X175278126Y-90116632D01*
X175333362Y-90148909D01*
X175351445Y-90159476D01*
X175400169Y-90211114D01*
X175413240Y-90280897D01*
X175386509Y-90346669D01*
X175346055Y-90380027D01*
X175333607Y-90386507D01*
X175329474Y-90389610D01*
X175329471Y-90389612D01*
X175164733Y-90513301D01*
X175154965Y-90520635D01*
X175151393Y-90524373D01*
X175031842Y-90649476D01*
X175000629Y-90682138D01*
X174997720Y-90686403D01*
X174997714Y-90686411D01*
X174975253Y-90719338D01*
X174874743Y-90866680D01*
X174850981Y-90917872D01*
X174796737Y-91034731D01*
X174780688Y-91069305D01*
X174720989Y-91284570D01*
X174697251Y-91506695D01*
X174697548Y-91511848D01*
X174697548Y-91511851D01*
X174703941Y-91622721D01*
X174710110Y-91729715D01*
X174711247Y-91734761D01*
X174711248Y-91734767D01*
X174730104Y-91818435D01*
X174759222Y-91947639D01*
X174804533Y-92059228D01*
X174833757Y-92131197D01*
X174843266Y-92154616D01*
X174881763Y-92217438D01*
X174957291Y-92340688D01*
X174959987Y-92345088D01*
X175106250Y-92513938D01*
X175278126Y-92656632D01*
X175307771Y-92673955D01*
X175351445Y-92699476D01*
X175400169Y-92751114D01*
X175413240Y-92820897D01*
X175386509Y-92886669D01*
X175346055Y-92920027D01*
X175333607Y-92926507D01*
X175329474Y-92929610D01*
X175329471Y-92929612D01*
X175164733Y-93053301D01*
X175154965Y-93060635D01*
X175000629Y-93222138D01*
X174997720Y-93226403D01*
X174997714Y-93226411D01*
X174922301Y-93336963D01*
X174874743Y-93406680D01*
X174872565Y-93411373D01*
X174872560Y-93411381D01*
X174831728Y-93499346D01*
X174784904Y-93552713D01*
X174716661Y-93572293D01*
X174648665Y-93551869D01*
X174623805Y-93530605D01*
X174565675Y-93466045D01*
X174565674Y-93466044D01*
X174561253Y-93461134D01*
X174445527Y-93377054D01*
X174412094Y-93352763D01*
X174412093Y-93352762D01*
X174406752Y-93348882D01*
X174400724Y-93346198D01*
X174400722Y-93346197D01*
X174238319Y-93273891D01*
X174238318Y-93273891D01*
X174232288Y-93271206D01*
X174138887Y-93251353D01*
X174051944Y-93232872D01*
X174051939Y-93232872D01*
X174045487Y-93231500D01*
X173854513Y-93231500D01*
X173848061Y-93232872D01*
X173848056Y-93232872D01*
X173761113Y-93251353D01*
X173667712Y-93271206D01*
X173661682Y-93273891D01*
X173661681Y-93273891D01*
X173520019Y-93336963D01*
X173449652Y-93346397D01*
X173417521Y-93336963D01*
X173298319Y-93283891D01*
X173298318Y-93283891D01*
X173292288Y-93281206D01*
X173189408Y-93259338D01*
X173111944Y-93242872D01*
X173111939Y-93242872D01*
X173105487Y-93241500D01*
X172914513Y-93241500D01*
X172908061Y-93242872D01*
X172908056Y-93242872D01*
X172830592Y-93259338D01*
X172727712Y-93281206D01*
X172721682Y-93283891D01*
X172721681Y-93283891D01*
X172591249Y-93341963D01*
X172520882Y-93351397D01*
X172488751Y-93341963D01*
X172358319Y-93283891D01*
X172358318Y-93283891D01*
X172352288Y-93281206D01*
X172249408Y-93259338D01*
X172171944Y-93242872D01*
X172171939Y-93242872D01*
X172165487Y-93241500D01*
X171974513Y-93241500D01*
X171968061Y-93242872D01*
X171968056Y-93242872D01*
X171890592Y-93259338D01*
X171787712Y-93281206D01*
X171781682Y-93283891D01*
X171781681Y-93283891D01*
X171619278Y-93356197D01*
X171619276Y-93356198D01*
X171613248Y-93358882D01*
X171607907Y-93362762D01*
X171607906Y-93362763D01*
X171606882Y-93363507D01*
X171458747Y-93471134D01*
X171454326Y-93476044D01*
X171454325Y-93476045D01*
X171343657Y-93598955D01*
X171330960Y-93613056D01*
X171235473Y-93778444D01*
X171176458Y-93960072D01*
X171156496Y-94150000D01*
X171157186Y-94156565D01*
X171173327Y-94310135D01*
X171176458Y-94339928D01*
X171235473Y-94521556D01*
X171238776Y-94527278D01*
X171238777Y-94527279D01*
X171255854Y-94556857D01*
X171330960Y-94686944D01*
X171458747Y-94828866D01*
X171470697Y-94837548D01*
X171594143Y-94927237D01*
X171613248Y-94941118D01*
X171619276Y-94943802D01*
X171619278Y-94943803D01*
X171768333Y-95010166D01*
X171787712Y-95018794D01*
X171881112Y-95038647D01*
X171968056Y-95057128D01*
X171968061Y-95057128D01*
X171974513Y-95058500D01*
X172165487Y-95058500D01*
X172171939Y-95057128D01*
X172171944Y-95057128D01*
X172258888Y-95038647D01*
X172352288Y-95018794D01*
X172374749Y-95008794D01*
X172488751Y-94958037D01*
X172559118Y-94948603D01*
X172591249Y-94958037D01*
X172705252Y-95008794D01*
X172727712Y-95018794D01*
X172821112Y-95038647D01*
X172908056Y-95057128D01*
X172908061Y-95057128D01*
X172914513Y-95058500D01*
X173105487Y-95058500D01*
X173111939Y-95057128D01*
X173111944Y-95057128D01*
X173198888Y-95038647D01*
X173292288Y-95018794D01*
X173314749Y-95008794D01*
X173408312Y-94967137D01*
X173439982Y-94953037D01*
X173510348Y-94943603D01*
X173542479Y-94953037D01*
X173667712Y-95008794D01*
X173761113Y-95028647D01*
X173848056Y-95047128D01*
X173848061Y-95047128D01*
X173854513Y-95048500D01*
X174045487Y-95048500D01*
X174051939Y-95047128D01*
X174051944Y-95047128D01*
X174138887Y-95028647D01*
X174232288Y-95008794D01*
X174325852Y-94967137D01*
X174400722Y-94933803D01*
X174400724Y-94933802D01*
X174406752Y-94931118D01*
X174561253Y-94818866D01*
X174661461Y-94707573D01*
X174721906Y-94670335D01*
X174792890Y-94671687D01*
X174851874Y-94711201D01*
X174862527Y-94726047D01*
X174881763Y-94757438D01*
X174957291Y-94880688D01*
X174959987Y-94885088D01*
X175106250Y-95053938D01*
X175278126Y-95196632D01*
X175305731Y-95212763D01*
X175351445Y-95239476D01*
X175400169Y-95291114D01*
X175413240Y-95360897D01*
X175386509Y-95426669D01*
X175346055Y-95460027D01*
X175333607Y-95466507D01*
X175329474Y-95469610D01*
X175329471Y-95469612D01*
X175164733Y-95593301D01*
X175154965Y-95600635D01*
X175000629Y-95762138D01*
X174874743Y-95946680D01*
X174780688Y-96149305D01*
X174720989Y-96364570D01*
X174697251Y-96586695D01*
X174697548Y-96591848D01*
X174697548Y-96591851D01*
X174702049Y-96669908D01*
X174710110Y-96809715D01*
X174711247Y-96814761D01*
X174711248Y-96814767D01*
X174732063Y-96907128D01*
X174759222Y-97027639D01*
X174843266Y-97234616D01*
X174881763Y-97297438D01*
X174957291Y-97420688D01*
X174959987Y-97425088D01*
X175106250Y-97593938D01*
X175278126Y-97736632D01*
X175333362Y-97768909D01*
X175351445Y-97779476D01*
X175400169Y-97831114D01*
X175413240Y-97900897D01*
X175386509Y-97966669D01*
X175346055Y-98000027D01*
X175333607Y-98006507D01*
X175329474Y-98009610D01*
X175329471Y-98009612D01*
X175164733Y-98133301D01*
X175154965Y-98140635D01*
X175000629Y-98302138D01*
X174997720Y-98306403D01*
X174997714Y-98306411D01*
X174958504Y-98363891D01*
X174874743Y-98486680D01*
X174780688Y-98689305D01*
X174720989Y-98904570D01*
X174697251Y-99126695D01*
X174697548Y-99131848D01*
X174697548Y-99131851D01*
X174702829Y-99223435D01*
X174710110Y-99349715D01*
X174711247Y-99354761D01*
X174711248Y-99354767D01*
X174734547Y-99458148D01*
X174759222Y-99567639D01*
X174843266Y-99774616D01*
X174881763Y-99837438D01*
X174957291Y-99960688D01*
X174959987Y-99965088D01*
X175106250Y-100133938D01*
X175278126Y-100276632D01*
X175317856Y-100299848D01*
X175351445Y-100319476D01*
X175400169Y-100371114D01*
X175413240Y-100440897D01*
X175386509Y-100506669D01*
X175346055Y-100540027D01*
X175333607Y-100546507D01*
X175329474Y-100549610D01*
X175329471Y-100549612D01*
X175159100Y-100677530D01*
X175154965Y-100680635D01*
X175115525Y-100721907D01*
X175012893Y-100829305D01*
X175000629Y-100842138D01*
X174997715Y-100846410D01*
X174997714Y-100846411D01*
X174956296Y-100907128D01*
X174874743Y-101026680D01*
X174780688Y-101229305D01*
X174720989Y-101444570D01*
X174697251Y-101666695D01*
X174697548Y-101671848D01*
X174697548Y-101671851D01*
X174702049Y-101749908D01*
X174710110Y-101889715D01*
X174711247Y-101894761D01*
X174711248Y-101894767D01*
X174729483Y-101975678D01*
X174759222Y-102107639D01*
X174798590Y-102204592D01*
X174826749Y-102273938D01*
X174843266Y-102314616D01*
X174845965Y-102319020D01*
X174940430Y-102473173D01*
X174959987Y-102505088D01*
X175106250Y-102673938D01*
X175208577Y-102758891D01*
X175262663Y-102803794D01*
X175278126Y-102816632D01*
X175471000Y-102929338D01*
X175475825Y-102931180D01*
X175475826Y-102931181D01*
X175548612Y-102958975D01*
X175679692Y-103009030D01*
X175684760Y-103010061D01*
X175684763Y-103010062D01*
X175792017Y-103031883D01*
X175898597Y-103053567D01*
X175903772Y-103053757D01*
X175903774Y-103053757D01*
X176116673Y-103061564D01*
X176116677Y-103061564D01*
X176121837Y-103061753D01*
X176126957Y-103061097D01*
X176126959Y-103061097D01*
X176338288Y-103034025D01*
X176338289Y-103034025D01*
X176343416Y-103033368D01*
X176348366Y-103031883D01*
X176552429Y-102970661D01*
X176552434Y-102970659D01*
X176557384Y-102969174D01*
X176757994Y-102870896D01*
X176939860Y-102741173D01*
X177048091Y-102633319D01*
X177110462Y-102599404D01*
X177181268Y-102604592D01*
X177238030Y-102647238D01*
X177255012Y-102678341D01*
X177299385Y-102796705D01*
X177386739Y-102913261D01*
X177503295Y-103000615D01*
X177639684Y-103051745D01*
X177701866Y-103058500D01*
X179366000Y-103058500D01*
X179434121Y-103078502D01*
X179480614Y-103132158D01*
X179492000Y-103184500D01*
X179492000Y-108297953D01*
X179471998Y-108366074D01*
X179418342Y-108412567D01*
X179348068Y-108422671D01*
X179287994Y-108396903D01*
X179080172Y-108233070D01*
X179077191Y-108230720D01*
X178793144Y-108057677D01*
X178662259Y-107998167D01*
X178493817Y-107921580D01*
X178493809Y-107921577D01*
X178490365Y-107920011D01*
X178173240Y-107819718D01*
X177950896Y-107777906D01*
X177850087Y-107758949D01*
X177850085Y-107758949D01*
X177846364Y-107758249D01*
X177514470Y-107736496D01*
X177510690Y-107736704D01*
X177510689Y-107736704D01*
X177412918Y-107742085D01*
X177182366Y-107754773D01*
X177178639Y-107755434D01*
X177178635Y-107755434D01*
X176950944Y-107795787D01*
X176854864Y-107812815D01*
X176851239Y-107813920D01*
X176851234Y-107813921D01*
X176643683Y-107877178D01*
X176536707Y-107909782D01*
X176533243Y-107911313D01*
X176533236Y-107911316D01*
X176368137Y-107984306D01*
X176232503Y-108044269D01*
X176229249Y-108046205D01*
X176229243Y-108046208D01*
X175973225Y-108198523D01*
X175946659Y-108214328D01*
X175943658Y-108216643D01*
X175943654Y-108216646D01*
X175935036Y-108223295D01*
X175683316Y-108417496D01*
X175446288Y-108650829D01*
X175239009Y-108910949D01*
X175064481Y-109194086D01*
X174925232Y-109496140D01*
X174924073Y-109499740D01*
X174924070Y-109499747D01*
X174824442Y-109809126D01*
X174823280Y-109812735D01*
X174822561Y-109816451D01*
X174822559Y-109816459D01*
X174784348Y-110013956D01*
X174760100Y-110139285D01*
X174759833Y-110143061D01*
X174759832Y-110143066D01*
X174737755Y-110454884D01*
X174736610Y-110471061D01*
X174753147Y-110803255D01*
X174753788Y-110806986D01*
X174753789Y-110806994D01*
X174793174Y-111036197D01*
X174809474Y-111131057D01*
X174904774Y-111449718D01*
X174906287Y-111453189D01*
X174906289Y-111453195D01*
X174990600Y-111646635D01*
X175037666Y-111754622D01*
X175206226Y-112041352D01*
X175332858Y-112207279D01*
X175395651Y-112289558D01*
X175421078Y-112355845D01*
X175406631Y-112425356D01*
X175356897Y-112476022D01*
X175295488Y-112492000D01*
X173965077Y-112492000D01*
X173896956Y-112471998D01*
X173850463Y-112418342D01*
X173840359Y-112348068D01*
X173855958Y-112303000D01*
X173911223Y-112207279D01*
X173911224Y-112207278D01*
X173914527Y-112201556D01*
X173973542Y-112019928D01*
X173993504Y-111830000D01*
X173973542Y-111640072D01*
X173914527Y-111458444D01*
X173819040Y-111293056D01*
X173691253Y-111151134D01*
X173536752Y-111038882D01*
X173530724Y-111036198D01*
X173530722Y-111036197D01*
X173368319Y-110963891D01*
X173368318Y-110963891D01*
X173362288Y-110961206D01*
X173268888Y-110941353D01*
X173181944Y-110922872D01*
X173181939Y-110922872D01*
X173175487Y-110921500D01*
X172984513Y-110921500D01*
X172978061Y-110922872D01*
X172978056Y-110922872D01*
X172891113Y-110941353D01*
X172797712Y-110961206D01*
X172791682Y-110963891D01*
X172791681Y-110963891D01*
X172629278Y-111036197D01*
X172629276Y-111036198D01*
X172623248Y-111038882D01*
X172468747Y-111151134D01*
X172340960Y-111293056D01*
X172245473Y-111458444D01*
X172186458Y-111640072D01*
X172166496Y-111830000D01*
X172186458Y-112019928D01*
X172245473Y-112201556D01*
X172248776Y-112207278D01*
X172248777Y-112207279D01*
X172304042Y-112303000D01*
X172320780Y-112371995D01*
X172297560Y-112439087D01*
X172241753Y-112482974D01*
X172194923Y-112492000D01*
X163876000Y-112492000D01*
X163807879Y-112471998D01*
X163761386Y-112418342D01*
X163750000Y-112366000D01*
X163750000Y-110009669D01*
X164752001Y-110009669D01*
X164752371Y-110016490D01*
X164757895Y-110067352D01*
X164761521Y-110082604D01*
X164806676Y-110203054D01*
X164815214Y-110218649D01*
X164891715Y-110320724D01*
X164904276Y-110333285D01*
X165006351Y-110409786D01*
X165021946Y-110418324D01*
X165142394Y-110463478D01*
X165157649Y-110467105D01*
X165208514Y-110472631D01*
X165215328Y-110473000D01*
X165487885Y-110473000D01*
X165503124Y-110468525D01*
X165504329Y-110467135D01*
X165506000Y-110459452D01*
X165506000Y-109737115D01*
X165501525Y-109721876D01*
X165500135Y-109720671D01*
X165492452Y-109719000D01*
X164770116Y-109719000D01*
X164754877Y-109723475D01*
X164753672Y-109724865D01*
X164752001Y-109732548D01*
X164752001Y-110009669D01*
X163750000Y-110009669D01*
X163750000Y-108180851D01*
X164746719Y-108180851D01*
X164763268Y-108377934D01*
X164817783Y-108568050D01*
X164820602Y-108573535D01*
X164824402Y-108580929D01*
X164837750Y-108650660D01*
X164817667Y-108702468D01*
X164819521Y-108703483D01*
X164806677Y-108726942D01*
X164761522Y-108847394D01*
X164757895Y-108862649D01*
X164752369Y-108913514D01*
X164752000Y-108920328D01*
X164752000Y-109192885D01*
X164756475Y-109208124D01*
X164757865Y-109209329D01*
X164765548Y-109211000D01*
X165888000Y-109211000D01*
X165956121Y-109231002D01*
X166002614Y-109284658D01*
X166014000Y-109337000D01*
X166014000Y-110454884D01*
X166018475Y-110470123D01*
X166019865Y-110471328D01*
X166027548Y-110472999D01*
X166304669Y-110472999D01*
X166311490Y-110472629D01*
X166362352Y-110467105D01*
X166377604Y-110463479D01*
X166498054Y-110418324D01*
X166521517Y-110405478D01*
X166522792Y-110407806D01*
X166576321Y-110387797D01*
X166624333Y-110393637D01*
X166812392Y-110454740D01*
X167008777Y-110478158D01*
X167014912Y-110477686D01*
X167014914Y-110477686D01*
X167199830Y-110463457D01*
X167199834Y-110463456D01*
X167205972Y-110462984D01*
X167396463Y-110409798D01*
X167401967Y-110407018D01*
X167401969Y-110407017D01*
X167567493Y-110323405D01*
X167567495Y-110323404D01*
X167572996Y-110320625D01*
X167577850Y-110316833D01*
X167577859Y-110316827D01*
X167586548Y-110310038D01*
X167652542Y-110283860D01*
X167725592Y-110299339D01*
X167894294Y-110393624D01*
X168082392Y-110454740D01*
X168278777Y-110478158D01*
X168284912Y-110477686D01*
X168284914Y-110477686D01*
X168469830Y-110463457D01*
X168469834Y-110463456D01*
X168475972Y-110462984D01*
X168666463Y-110409798D01*
X168671967Y-110407018D01*
X168671969Y-110407017D01*
X168837493Y-110323405D01*
X168837495Y-110323404D01*
X168842996Y-110320625D01*
X168847850Y-110316833D01*
X168847859Y-110316827D01*
X168856548Y-110310038D01*
X168922542Y-110283860D01*
X168995592Y-110299339D01*
X169164294Y-110393624D01*
X169352392Y-110454740D01*
X169548777Y-110478158D01*
X169554912Y-110477686D01*
X169554914Y-110477686D01*
X169739830Y-110463457D01*
X169739834Y-110463456D01*
X169745972Y-110462984D01*
X169936463Y-110409798D01*
X169941967Y-110407018D01*
X169941969Y-110407017D01*
X170107493Y-110323405D01*
X170107495Y-110323404D01*
X170112996Y-110320625D01*
X170117850Y-110316833D01*
X170117859Y-110316827D01*
X170126548Y-110310038D01*
X170192542Y-110283860D01*
X170265592Y-110299339D01*
X170434294Y-110393624D01*
X170622392Y-110454740D01*
X170818777Y-110478158D01*
X170824912Y-110477686D01*
X170824914Y-110477686D01*
X171009830Y-110463457D01*
X171009834Y-110463456D01*
X171015972Y-110462984D01*
X171206463Y-110409798D01*
X171211967Y-110407018D01*
X171211969Y-110407017D01*
X171377495Y-110323404D01*
X171377497Y-110323403D01*
X171382996Y-110320625D01*
X171538847Y-110198861D01*
X171668078Y-110049145D01*
X171765769Y-109877179D01*
X171828197Y-109689513D01*
X171852985Y-109493295D01*
X171853380Y-109465000D01*
X171834080Y-109268167D01*
X171776916Y-109078831D01*
X171684066Y-108904204D01*
X171680167Y-108899424D01*
X171679715Y-108898743D01*
X171658676Y-108830935D01*
X171675105Y-108766775D01*
X171762723Y-108612542D01*
X171762725Y-108612537D01*
X171765769Y-108607179D01*
X171828197Y-108419513D01*
X171852985Y-108223295D01*
X171853380Y-108195000D01*
X171834080Y-107998167D01*
X171776916Y-107808831D01*
X171684066Y-107634204D01*
X171613709Y-107547938D01*
X171562960Y-107485713D01*
X171562957Y-107485710D01*
X171559065Y-107480938D01*
X171552724Y-107475692D01*
X171411425Y-107358799D01*
X171411421Y-107358797D01*
X171406675Y-107354870D01*
X171232701Y-107260802D01*
X171043768Y-107202318D01*
X171037643Y-107201674D01*
X171037642Y-107201674D01*
X170853204Y-107182289D01*
X170853202Y-107182289D01*
X170847075Y-107181645D01*
X170764576Y-107189153D01*
X170656251Y-107199011D01*
X170656248Y-107199012D01*
X170650112Y-107199570D01*
X170644206Y-107201308D01*
X170644202Y-107201309D01*
X170539076Y-107232249D01*
X170460381Y-107255410D01*
X170454923Y-107258263D01*
X170454919Y-107258265D01*
X170359135Y-107308340D01*
X170285110Y-107347040D01*
X170280310Y-107350900D01*
X170275153Y-107354274D01*
X170273769Y-107352158D01*
X170218365Y-107375027D01*
X170148512Y-107362334D01*
X170138898Y-107356709D01*
X170136675Y-107354870D01*
X169962701Y-107260802D01*
X169773768Y-107202318D01*
X169767643Y-107201674D01*
X169767642Y-107201674D01*
X169583204Y-107182289D01*
X169583202Y-107182289D01*
X169577075Y-107181645D01*
X169494576Y-107189153D01*
X169386251Y-107199011D01*
X169386248Y-107199012D01*
X169380112Y-107199570D01*
X169374206Y-107201308D01*
X169374202Y-107201309D01*
X169269076Y-107232249D01*
X169190381Y-107255410D01*
X169184923Y-107258263D01*
X169184919Y-107258265D01*
X169089135Y-107308340D01*
X169015110Y-107347040D01*
X169010310Y-107350900D01*
X169005153Y-107354274D01*
X169003769Y-107352158D01*
X168948365Y-107375027D01*
X168878512Y-107362334D01*
X168868898Y-107356709D01*
X168866675Y-107354870D01*
X168692701Y-107260802D01*
X168503768Y-107202318D01*
X168497643Y-107201674D01*
X168497642Y-107201674D01*
X168313204Y-107182289D01*
X168313202Y-107182289D01*
X168307075Y-107181645D01*
X168224576Y-107189153D01*
X168116251Y-107199011D01*
X168116248Y-107199012D01*
X168110112Y-107199570D01*
X168104206Y-107201308D01*
X168104202Y-107201309D01*
X167999076Y-107232249D01*
X167920381Y-107255410D01*
X167914923Y-107258263D01*
X167914919Y-107258265D01*
X167819135Y-107308340D01*
X167745110Y-107347040D01*
X167740310Y-107350900D01*
X167735153Y-107354274D01*
X167733769Y-107352158D01*
X167678365Y-107375027D01*
X167608512Y-107362334D01*
X167598898Y-107356709D01*
X167596675Y-107354870D01*
X167422701Y-107260802D01*
X167233768Y-107202318D01*
X167227643Y-107201674D01*
X167227642Y-107201674D01*
X167043204Y-107182289D01*
X167043202Y-107182289D01*
X167037075Y-107181645D01*
X166954576Y-107189153D01*
X166846251Y-107199011D01*
X166846248Y-107199012D01*
X166840112Y-107199570D01*
X166834206Y-107201308D01*
X166834202Y-107201309D01*
X166729076Y-107232249D01*
X166650381Y-107255410D01*
X166644923Y-107258263D01*
X166644919Y-107258265D01*
X166549135Y-107308340D01*
X166475110Y-107347040D01*
X166470310Y-107350900D01*
X166465153Y-107354274D01*
X166463769Y-107352158D01*
X166408365Y-107375027D01*
X166338512Y-107362334D01*
X166328898Y-107356709D01*
X166326675Y-107354870D01*
X166152701Y-107260802D01*
X165963768Y-107202318D01*
X165957643Y-107201674D01*
X165957642Y-107201674D01*
X165773204Y-107182289D01*
X165773202Y-107182289D01*
X165767075Y-107181645D01*
X165684576Y-107189153D01*
X165576251Y-107199011D01*
X165576248Y-107199012D01*
X165570112Y-107199570D01*
X165564206Y-107201308D01*
X165564202Y-107201309D01*
X165459076Y-107232249D01*
X165380381Y-107255410D01*
X165374923Y-107258263D01*
X165374919Y-107258265D01*
X165284147Y-107305720D01*
X165205110Y-107347040D01*
X165050975Y-107470968D01*
X164923846Y-107622474D01*
X164920879Y-107627872D01*
X164920875Y-107627877D01*
X164848819Y-107758949D01*
X164828567Y-107795787D01*
X164826706Y-107801654D01*
X164826705Y-107801656D01*
X164789161Y-107920011D01*
X164768765Y-107984306D01*
X164746719Y-108180851D01*
X163750000Y-108180851D01*
X163750000Y-106750000D01*
X157830203Y-106750000D01*
X157762082Y-106729998D01*
X157715589Y-106676342D01*
X157705485Y-106606068D01*
X157732469Y-106548448D01*
X157730741Y-106547192D01*
X157734620Y-106541852D01*
X157739040Y-106536944D01*
X157834527Y-106371556D01*
X157893542Y-106189928D01*
X157913504Y-106000000D01*
X157893542Y-105810072D01*
X157834527Y-105628444D01*
X157823171Y-105608774D01*
X157774014Y-105523633D01*
X157739040Y-105463056D01*
X157719302Y-105441134D01*
X157615675Y-105326045D01*
X157615674Y-105326044D01*
X157611253Y-105321134D01*
X157512157Y-105249136D01*
X157462094Y-105212763D01*
X157462093Y-105212762D01*
X157456752Y-105208882D01*
X157450724Y-105206198D01*
X157450722Y-105206197D01*
X157337977Y-105156000D01*
X167234496Y-105156000D01*
X167235186Y-105162565D01*
X167240594Y-105214015D01*
X167254458Y-105345928D01*
X167313473Y-105527556D01*
X167316776Y-105533278D01*
X167316777Y-105533279D01*
X167327190Y-105551315D01*
X167408960Y-105692944D01*
X167413378Y-105697851D01*
X167413379Y-105697852D01*
X167502868Y-105797240D01*
X167536747Y-105834866D01*
X167691248Y-105947118D01*
X167697276Y-105949802D01*
X167697278Y-105949803D01*
X167859681Y-106022109D01*
X167865712Y-106024794D01*
X167959113Y-106044647D01*
X168046056Y-106063128D01*
X168046061Y-106063128D01*
X168052513Y-106064500D01*
X168243487Y-106064500D01*
X168249939Y-106063128D01*
X168249944Y-106063128D01*
X168336887Y-106044647D01*
X168430288Y-106024794D01*
X168436319Y-106022109D01*
X168598722Y-105949803D01*
X168598724Y-105949802D01*
X168604752Y-105947118D01*
X168759253Y-105834866D01*
X168793132Y-105797240D01*
X168882621Y-105697852D01*
X168882622Y-105697851D01*
X168887040Y-105692944D01*
X168968810Y-105551315D01*
X168979223Y-105533279D01*
X168979224Y-105533278D01*
X168982527Y-105527556D01*
X169041542Y-105345928D01*
X169055407Y-105214015D01*
X169060814Y-105162565D01*
X169061504Y-105156000D01*
X169041542Y-104966072D01*
X168982527Y-104784444D01*
X168887040Y-104619056D01*
X168759253Y-104477134D01*
X168604752Y-104364882D01*
X168598724Y-104362198D01*
X168598722Y-104362197D01*
X168436319Y-104289891D01*
X168436318Y-104289891D01*
X168430288Y-104287206D01*
X168336887Y-104267353D01*
X168249944Y-104248872D01*
X168249939Y-104248872D01*
X168243487Y-104247500D01*
X168052513Y-104247500D01*
X168046061Y-104248872D01*
X168046056Y-104248872D01*
X167959113Y-104267353D01*
X167865712Y-104287206D01*
X167859682Y-104289891D01*
X167859681Y-104289891D01*
X167697278Y-104362197D01*
X167697276Y-104362198D01*
X167691248Y-104364882D01*
X167536747Y-104477134D01*
X167408960Y-104619056D01*
X167313473Y-104784444D01*
X167254458Y-104966072D01*
X167234496Y-105156000D01*
X157337977Y-105156000D01*
X157288319Y-105133891D01*
X157288318Y-105133891D01*
X157282288Y-105131206D01*
X157188888Y-105111353D01*
X157101944Y-105092872D01*
X157101939Y-105092872D01*
X157095487Y-105091500D01*
X156904513Y-105091500D01*
X156898061Y-105092872D01*
X156898056Y-105092872D01*
X156811112Y-105111353D01*
X156717712Y-105131206D01*
X156711682Y-105133891D01*
X156711681Y-105133891D01*
X156549278Y-105206197D01*
X156549276Y-105206198D01*
X156543248Y-105208882D01*
X156537907Y-105212762D01*
X156537906Y-105212763D01*
X156487843Y-105249136D01*
X156388747Y-105321134D01*
X156384326Y-105326044D01*
X156384325Y-105326045D01*
X156280699Y-105441134D01*
X156260960Y-105463056D01*
X156225986Y-105523633D01*
X156176830Y-105608774D01*
X156165473Y-105628444D01*
X156106458Y-105810072D01*
X156086496Y-106000000D01*
X156106458Y-106189928D01*
X156165473Y-106371556D01*
X156260960Y-106536944D01*
X156265380Y-106541852D01*
X156269259Y-106547192D01*
X156267607Y-106548392D01*
X156294148Y-106603685D01*
X156285391Y-106674139D01*
X156239934Y-106728675D01*
X156169797Y-106750000D01*
X152830203Y-106750000D01*
X152762082Y-106729998D01*
X152715589Y-106676342D01*
X152705485Y-106606068D01*
X152732469Y-106548448D01*
X152730741Y-106547192D01*
X152734620Y-106541852D01*
X152739040Y-106536944D01*
X152834527Y-106371556D01*
X152893542Y-106189928D01*
X152913504Y-106000000D01*
X152893542Y-105810072D01*
X152834527Y-105628444D01*
X152823171Y-105608774D01*
X152774014Y-105523633D01*
X152739040Y-105463056D01*
X152719302Y-105441134D01*
X152615675Y-105326045D01*
X152615674Y-105326044D01*
X152611253Y-105321134D01*
X152512157Y-105249136D01*
X152462094Y-105212763D01*
X152462093Y-105212762D01*
X152456752Y-105208882D01*
X152450724Y-105206198D01*
X152450722Y-105206197D01*
X152288319Y-105133891D01*
X152288318Y-105133891D01*
X152282288Y-105131206D01*
X152188888Y-105111353D01*
X152101944Y-105092872D01*
X152101939Y-105092872D01*
X152095487Y-105091500D01*
X151904513Y-105091500D01*
X151898061Y-105092872D01*
X151898056Y-105092872D01*
X151811112Y-105111353D01*
X151717712Y-105131206D01*
X151711682Y-105133891D01*
X151711681Y-105133891D01*
X151549278Y-105206197D01*
X151549276Y-105206198D01*
X151543248Y-105208882D01*
X151537907Y-105212762D01*
X151537906Y-105212763D01*
X151487843Y-105249136D01*
X151388747Y-105321134D01*
X151384326Y-105326044D01*
X151384325Y-105326045D01*
X151280699Y-105441134D01*
X151260960Y-105463056D01*
X151225986Y-105523633D01*
X151176830Y-105608774D01*
X151165473Y-105628444D01*
X151106458Y-105810072D01*
X151086496Y-106000000D01*
X151106458Y-106189928D01*
X151165473Y-106371556D01*
X151260960Y-106536944D01*
X151265380Y-106541852D01*
X151269259Y-106547192D01*
X151267607Y-106548392D01*
X151294148Y-106603685D01*
X151285391Y-106674139D01*
X151239934Y-106728675D01*
X151169797Y-106750000D01*
X147830203Y-106750000D01*
X147762082Y-106729998D01*
X147715589Y-106676342D01*
X147705485Y-106606068D01*
X147732469Y-106548448D01*
X147730741Y-106547192D01*
X147734620Y-106541852D01*
X147739040Y-106536944D01*
X147834527Y-106371556D01*
X147893542Y-106189928D01*
X147913504Y-106000000D01*
X147893542Y-105810072D01*
X147834527Y-105628444D01*
X147823171Y-105608774D01*
X147774014Y-105523633D01*
X147739040Y-105463056D01*
X147719302Y-105441134D01*
X147615675Y-105326045D01*
X147615674Y-105326044D01*
X147611253Y-105321134D01*
X147512157Y-105249136D01*
X147462094Y-105212763D01*
X147462093Y-105212762D01*
X147456752Y-105208882D01*
X147450724Y-105206198D01*
X147450722Y-105206197D01*
X147288319Y-105133891D01*
X147288318Y-105133891D01*
X147282288Y-105131206D01*
X147244844Y-105123247D01*
X147182371Y-105089518D01*
X147148049Y-105027369D01*
X147152777Y-104956530D01*
X147195053Y-104899492D01*
X147244844Y-104876753D01*
X147282288Y-104868794D01*
X147288319Y-104866109D01*
X147450722Y-104793803D01*
X147450724Y-104793802D01*
X147456752Y-104791118D01*
X147611253Y-104678866D01*
X147739040Y-104536944D01*
X147765503Y-104491109D01*
X147831223Y-104377279D01*
X147831224Y-104377278D01*
X147834527Y-104371556D01*
X147893542Y-104189928D01*
X147895968Y-104166852D01*
X147912814Y-104006565D01*
X147913504Y-104000000D01*
X147893542Y-103810072D01*
X147834527Y-103628444D01*
X147739040Y-103463056D01*
X147719753Y-103441635D01*
X147615675Y-103326045D01*
X147615674Y-103326044D01*
X147611253Y-103321134D01*
X147456752Y-103208882D01*
X147450724Y-103206198D01*
X147450722Y-103206197D01*
X147288319Y-103133891D01*
X147288318Y-103133891D01*
X147282288Y-103131206D01*
X147188888Y-103111353D01*
X147101944Y-103092872D01*
X147101939Y-103092872D01*
X147095487Y-103091500D01*
X146904513Y-103091500D01*
X146898061Y-103092872D01*
X146898056Y-103092872D01*
X146811112Y-103111353D01*
X146717712Y-103131206D01*
X146711682Y-103133891D01*
X146711681Y-103133891D01*
X146549278Y-103206197D01*
X146549276Y-103206198D01*
X146543248Y-103208882D01*
X146388747Y-103321134D01*
X146384326Y-103326044D01*
X146384325Y-103326045D01*
X146280248Y-103441635D01*
X146260960Y-103463056D01*
X146165473Y-103628444D01*
X146106458Y-103810072D01*
X146086496Y-104000000D01*
X146087186Y-104006565D01*
X146104033Y-104166852D01*
X146106458Y-104189928D01*
X146165473Y-104371556D01*
X146168776Y-104377278D01*
X146168777Y-104377279D01*
X146234497Y-104491109D01*
X146260960Y-104536944D01*
X146388747Y-104678866D01*
X146543248Y-104791118D01*
X146549276Y-104793802D01*
X146549278Y-104793803D01*
X146711681Y-104866109D01*
X146717712Y-104868794D01*
X146755156Y-104876753D01*
X146817629Y-104910482D01*
X146851951Y-104972631D01*
X146847223Y-105043470D01*
X146804947Y-105100508D01*
X146755156Y-105123247D01*
X146717712Y-105131206D01*
X146711682Y-105133891D01*
X146711681Y-105133891D01*
X146549278Y-105206197D01*
X146549276Y-105206198D01*
X146543248Y-105208882D01*
X146537907Y-105212762D01*
X146537906Y-105212763D01*
X146487843Y-105249136D01*
X146388747Y-105321134D01*
X146384326Y-105326044D01*
X146384325Y-105326045D01*
X146280699Y-105441134D01*
X146260960Y-105463056D01*
X146225986Y-105523633D01*
X146176830Y-105608774D01*
X146165473Y-105628444D01*
X146106458Y-105810072D01*
X146086496Y-106000000D01*
X146106458Y-106189928D01*
X146165473Y-106371556D01*
X146260960Y-106536944D01*
X146265380Y-106541852D01*
X146269259Y-106547192D01*
X146267607Y-106548392D01*
X146294148Y-106603685D01*
X146285391Y-106674139D01*
X146239934Y-106728675D01*
X146169797Y-106750000D01*
X144830203Y-106750000D01*
X144762082Y-106729998D01*
X144715589Y-106676342D01*
X144705485Y-106606068D01*
X144732469Y-106548448D01*
X144730741Y-106547192D01*
X144734620Y-106541852D01*
X144739040Y-106536944D01*
X144834527Y-106371556D01*
X144893542Y-106189928D01*
X144913504Y-106000000D01*
X144893542Y-105810072D01*
X144834527Y-105628444D01*
X144823171Y-105608774D01*
X144774014Y-105523633D01*
X144739040Y-105463056D01*
X144719302Y-105441134D01*
X144615675Y-105326045D01*
X144615674Y-105326044D01*
X144611253Y-105321134D01*
X144512157Y-105249136D01*
X144462094Y-105212763D01*
X144462093Y-105212762D01*
X144456752Y-105208882D01*
X144450724Y-105206198D01*
X144450722Y-105206197D01*
X144288319Y-105133891D01*
X144288318Y-105133891D01*
X144282288Y-105131206D01*
X144244844Y-105123247D01*
X144182371Y-105089518D01*
X144148049Y-105027369D01*
X144152777Y-104956530D01*
X144195053Y-104899492D01*
X144244844Y-104876753D01*
X144282288Y-104868794D01*
X144288319Y-104866109D01*
X144450722Y-104793803D01*
X144450724Y-104793802D01*
X144456752Y-104791118D01*
X144611253Y-104678866D01*
X144739040Y-104536944D01*
X144765503Y-104491109D01*
X144831223Y-104377279D01*
X144831224Y-104377278D01*
X144834527Y-104371556D01*
X144893542Y-104189928D01*
X144895968Y-104166852D01*
X144912814Y-104006565D01*
X144913504Y-104000000D01*
X144893542Y-103810072D01*
X144834527Y-103628444D01*
X144739040Y-103463056D01*
X144719753Y-103441635D01*
X144615675Y-103326045D01*
X144615674Y-103326044D01*
X144611253Y-103321134D01*
X144456752Y-103208882D01*
X144450724Y-103206198D01*
X144450722Y-103206197D01*
X144288319Y-103133891D01*
X144288318Y-103133891D01*
X144282288Y-103131206D01*
X144188888Y-103111353D01*
X144101944Y-103092872D01*
X144101939Y-103092872D01*
X144095487Y-103091500D01*
X143904513Y-103091500D01*
X143898061Y-103092872D01*
X143898056Y-103092872D01*
X143811112Y-103111353D01*
X143717712Y-103131206D01*
X143711682Y-103133891D01*
X143711681Y-103133891D01*
X143549278Y-103206197D01*
X143549276Y-103206198D01*
X143543248Y-103208882D01*
X143388747Y-103321134D01*
X143384326Y-103326044D01*
X143384325Y-103326045D01*
X143280248Y-103441635D01*
X143260960Y-103463056D01*
X143165473Y-103628444D01*
X143106458Y-103810072D01*
X143086496Y-104000000D01*
X143087186Y-104006565D01*
X143104033Y-104166852D01*
X143106458Y-104189928D01*
X143165473Y-104371556D01*
X143168776Y-104377278D01*
X143168777Y-104377279D01*
X143234497Y-104491109D01*
X143260960Y-104536944D01*
X143388747Y-104678866D01*
X143543248Y-104791118D01*
X143549276Y-104793802D01*
X143549278Y-104793803D01*
X143711681Y-104866109D01*
X143717712Y-104868794D01*
X143755156Y-104876753D01*
X143817629Y-104910482D01*
X143851951Y-104972631D01*
X143847223Y-105043470D01*
X143804947Y-105100508D01*
X143755156Y-105123247D01*
X143717712Y-105131206D01*
X143711682Y-105133891D01*
X143711681Y-105133891D01*
X143549278Y-105206197D01*
X143549276Y-105206198D01*
X143543248Y-105208882D01*
X143537907Y-105212762D01*
X143537906Y-105212763D01*
X143487843Y-105249136D01*
X143388747Y-105321134D01*
X143384326Y-105326044D01*
X143384325Y-105326045D01*
X143280699Y-105441134D01*
X143260960Y-105463056D01*
X143225986Y-105523633D01*
X143176830Y-105608774D01*
X143165473Y-105628444D01*
X143106458Y-105810072D01*
X143086496Y-106000000D01*
X143106458Y-106189928D01*
X143165473Y-106371556D01*
X143260960Y-106536944D01*
X143265380Y-106541852D01*
X143269259Y-106547192D01*
X143267607Y-106548392D01*
X143294148Y-106603685D01*
X143285391Y-106674139D01*
X143239934Y-106728675D01*
X143169797Y-106750000D01*
X141830203Y-106750000D01*
X141762082Y-106729998D01*
X141715589Y-106676342D01*
X141705485Y-106606068D01*
X141732469Y-106548448D01*
X141730741Y-106547192D01*
X141734620Y-106541852D01*
X141739040Y-106536944D01*
X141834527Y-106371556D01*
X141893542Y-106189928D01*
X141913504Y-106000000D01*
X141893542Y-105810072D01*
X141834527Y-105628444D01*
X141823171Y-105608774D01*
X141774014Y-105523633D01*
X141739040Y-105463056D01*
X141719302Y-105441134D01*
X141615675Y-105326045D01*
X141615674Y-105326044D01*
X141611253Y-105321134D01*
X141512157Y-105249136D01*
X141462094Y-105212763D01*
X141462093Y-105212762D01*
X141456752Y-105208882D01*
X141450724Y-105206198D01*
X141450722Y-105206197D01*
X141288319Y-105133891D01*
X141288318Y-105133891D01*
X141282288Y-105131206D01*
X141244844Y-105123247D01*
X141182371Y-105089518D01*
X141148049Y-105027369D01*
X141152777Y-104956530D01*
X141195053Y-104899492D01*
X141244844Y-104876753D01*
X141282288Y-104868794D01*
X141288319Y-104866109D01*
X141450722Y-104793803D01*
X141450724Y-104793802D01*
X141456752Y-104791118D01*
X141611253Y-104678866D01*
X141739040Y-104536944D01*
X141765503Y-104491109D01*
X141831223Y-104377279D01*
X141831224Y-104377278D01*
X141834527Y-104371556D01*
X141893542Y-104189928D01*
X141895968Y-104166852D01*
X141912814Y-104006565D01*
X141913504Y-104000000D01*
X141893542Y-103810072D01*
X141834527Y-103628444D01*
X141739040Y-103463056D01*
X141719753Y-103441635D01*
X141615675Y-103326045D01*
X141615674Y-103326044D01*
X141611253Y-103321134D01*
X141456752Y-103208882D01*
X141450724Y-103206198D01*
X141450722Y-103206197D01*
X141288319Y-103133891D01*
X141288318Y-103133891D01*
X141282288Y-103131206D01*
X141188888Y-103111353D01*
X141101944Y-103092872D01*
X141101939Y-103092872D01*
X141095487Y-103091500D01*
X140904513Y-103091500D01*
X140898061Y-103092872D01*
X140898056Y-103092872D01*
X140811112Y-103111353D01*
X140717712Y-103131206D01*
X140711682Y-103133891D01*
X140711681Y-103133891D01*
X140549278Y-103206197D01*
X140549276Y-103206198D01*
X140543248Y-103208882D01*
X140388747Y-103321134D01*
X140384326Y-103326044D01*
X140384325Y-103326045D01*
X140280248Y-103441635D01*
X140260960Y-103463056D01*
X140165473Y-103628444D01*
X140106458Y-103810072D01*
X140086496Y-104000000D01*
X140087186Y-104006565D01*
X140104033Y-104166852D01*
X140106458Y-104189928D01*
X140165473Y-104371556D01*
X140168776Y-104377278D01*
X140168777Y-104377279D01*
X140234497Y-104491109D01*
X140260960Y-104536944D01*
X140388747Y-104678866D01*
X140543248Y-104791118D01*
X140549276Y-104793802D01*
X140549278Y-104793803D01*
X140711681Y-104866109D01*
X140717712Y-104868794D01*
X140755156Y-104876753D01*
X140817629Y-104910482D01*
X140851951Y-104972631D01*
X140847223Y-105043470D01*
X140804947Y-105100508D01*
X140755156Y-105123247D01*
X140717712Y-105131206D01*
X140711682Y-105133891D01*
X140711681Y-105133891D01*
X140549278Y-105206197D01*
X140549276Y-105206198D01*
X140543248Y-105208882D01*
X140537907Y-105212762D01*
X140537906Y-105212763D01*
X140487843Y-105249136D01*
X140388747Y-105321134D01*
X140384326Y-105326044D01*
X140384325Y-105326045D01*
X140280699Y-105441134D01*
X140260960Y-105463056D01*
X140225986Y-105523633D01*
X140176830Y-105608774D01*
X140165473Y-105628444D01*
X140106458Y-105810072D01*
X140086496Y-106000000D01*
X140106458Y-106189928D01*
X140165473Y-106371556D01*
X140260960Y-106536944D01*
X140265380Y-106541852D01*
X140269259Y-106547192D01*
X140267607Y-106548392D01*
X140294148Y-106603685D01*
X140285391Y-106674139D01*
X140239934Y-106728675D01*
X140169797Y-106750000D01*
X138830203Y-106750000D01*
X138762082Y-106729998D01*
X138715589Y-106676342D01*
X138705485Y-106606068D01*
X138732469Y-106548448D01*
X138730741Y-106547192D01*
X138734620Y-106541852D01*
X138739040Y-106536944D01*
X138834527Y-106371556D01*
X138893542Y-106189928D01*
X138913504Y-106000000D01*
X138893542Y-105810072D01*
X138834527Y-105628444D01*
X138823171Y-105608774D01*
X138774014Y-105523633D01*
X138739040Y-105463056D01*
X138719302Y-105441134D01*
X138615675Y-105326045D01*
X138615674Y-105326044D01*
X138611253Y-105321134D01*
X138512157Y-105249136D01*
X138462094Y-105212763D01*
X138462093Y-105212762D01*
X138456752Y-105208882D01*
X138450724Y-105206198D01*
X138450722Y-105206197D01*
X138288319Y-105133891D01*
X138288318Y-105133891D01*
X138282288Y-105131206D01*
X138244844Y-105123247D01*
X138182371Y-105089518D01*
X138148049Y-105027369D01*
X138152777Y-104956530D01*
X138195053Y-104899492D01*
X138244844Y-104876753D01*
X138282288Y-104868794D01*
X138288319Y-104866109D01*
X138450722Y-104793803D01*
X138450724Y-104793802D01*
X138456752Y-104791118D01*
X138611253Y-104678866D01*
X138739040Y-104536944D01*
X138765503Y-104491109D01*
X138831223Y-104377279D01*
X138831224Y-104377278D01*
X138834527Y-104371556D01*
X138893542Y-104189928D01*
X138895968Y-104166852D01*
X138912814Y-104006565D01*
X138913504Y-104000000D01*
X138893542Y-103810072D01*
X138834527Y-103628444D01*
X138739040Y-103463056D01*
X138719753Y-103441635D01*
X138615675Y-103326045D01*
X138615674Y-103326044D01*
X138611253Y-103321134D01*
X138456752Y-103208882D01*
X138450724Y-103206198D01*
X138450722Y-103206197D01*
X138288319Y-103133891D01*
X138288318Y-103133891D01*
X138282288Y-103131206D01*
X138188888Y-103111353D01*
X138101944Y-103092872D01*
X138101939Y-103092872D01*
X138095487Y-103091500D01*
X137904513Y-103091500D01*
X137898061Y-103092872D01*
X137898056Y-103092872D01*
X137811112Y-103111353D01*
X137717712Y-103131206D01*
X137711682Y-103133891D01*
X137711681Y-103133891D01*
X137549278Y-103206197D01*
X137549276Y-103206198D01*
X137543248Y-103208882D01*
X137388747Y-103321134D01*
X137384326Y-103326044D01*
X137384325Y-103326045D01*
X137280248Y-103441635D01*
X137260960Y-103463056D01*
X137165473Y-103628444D01*
X137106458Y-103810072D01*
X137086496Y-104000000D01*
X137087186Y-104006565D01*
X137104033Y-104166852D01*
X137106458Y-104189928D01*
X137165473Y-104371556D01*
X137168776Y-104377278D01*
X137168777Y-104377279D01*
X137234497Y-104491109D01*
X137260960Y-104536944D01*
X137388747Y-104678866D01*
X137543248Y-104791118D01*
X137549276Y-104793802D01*
X137549278Y-104793803D01*
X137711681Y-104866109D01*
X137717712Y-104868794D01*
X137755156Y-104876753D01*
X137817629Y-104910482D01*
X137851951Y-104972631D01*
X137847223Y-105043470D01*
X137804947Y-105100508D01*
X137755156Y-105123247D01*
X137717712Y-105131206D01*
X137711682Y-105133891D01*
X137711681Y-105133891D01*
X137549278Y-105206197D01*
X137549276Y-105206198D01*
X137543248Y-105208882D01*
X137537907Y-105212762D01*
X137537906Y-105212763D01*
X137487843Y-105249136D01*
X137388747Y-105321134D01*
X137384326Y-105326044D01*
X137384325Y-105326045D01*
X137280699Y-105441134D01*
X137260960Y-105463056D01*
X137225986Y-105523633D01*
X137176830Y-105608774D01*
X137165473Y-105628444D01*
X137106458Y-105810072D01*
X137086496Y-106000000D01*
X137106458Y-106189928D01*
X137165473Y-106371556D01*
X137260960Y-106536944D01*
X137265380Y-106541852D01*
X137269259Y-106547192D01*
X137267607Y-106548392D01*
X137294148Y-106603685D01*
X137285391Y-106674139D01*
X137239934Y-106728675D01*
X137169797Y-106750000D01*
X136040203Y-106750000D01*
X135972082Y-106729998D01*
X135925589Y-106676342D01*
X135915485Y-106606068D01*
X135942469Y-106548448D01*
X135940741Y-106547192D01*
X135944620Y-106541852D01*
X135949040Y-106536944D01*
X136044527Y-106371556D01*
X136103542Y-106189928D01*
X136123504Y-106000000D01*
X136103542Y-105810072D01*
X136044527Y-105628444D01*
X136033171Y-105608774D01*
X135984014Y-105523633D01*
X135949040Y-105463056D01*
X135929302Y-105441134D01*
X135825675Y-105326045D01*
X135825674Y-105326044D01*
X135821253Y-105321134D01*
X135722157Y-105249136D01*
X135672094Y-105212763D01*
X135672093Y-105212762D01*
X135666752Y-105208882D01*
X135660724Y-105206198D01*
X135660722Y-105206197D01*
X135498319Y-105133891D01*
X135498318Y-105133891D01*
X135492288Y-105131206D01*
X135454844Y-105123247D01*
X135392371Y-105089518D01*
X135358049Y-105027369D01*
X135362777Y-104956530D01*
X135405053Y-104899492D01*
X135454844Y-104876753D01*
X135492288Y-104868794D01*
X135498319Y-104866109D01*
X135660722Y-104793803D01*
X135660724Y-104793802D01*
X135666752Y-104791118D01*
X135821253Y-104678866D01*
X135949040Y-104536944D01*
X135975503Y-104491109D01*
X136041223Y-104377279D01*
X136041224Y-104377278D01*
X136044527Y-104371556D01*
X136103542Y-104189928D01*
X136105968Y-104166852D01*
X136122814Y-104006565D01*
X136123504Y-104000000D01*
X136103542Y-103810072D01*
X136044527Y-103628444D01*
X135949040Y-103463056D01*
X135929753Y-103441635D01*
X135825675Y-103326045D01*
X135825674Y-103326044D01*
X135821253Y-103321134D01*
X135666752Y-103208882D01*
X135660724Y-103206198D01*
X135660722Y-103206197D01*
X135498319Y-103133891D01*
X135498318Y-103133891D01*
X135492288Y-103131206D01*
X135398888Y-103111353D01*
X135311944Y-103092872D01*
X135311939Y-103092872D01*
X135305487Y-103091500D01*
X135114513Y-103091500D01*
X135108061Y-103092872D01*
X135108056Y-103092872D01*
X135021112Y-103111353D01*
X134927712Y-103131206D01*
X134921682Y-103133891D01*
X134921681Y-103133891D01*
X134759278Y-103206197D01*
X134759276Y-103206198D01*
X134753248Y-103208882D01*
X134598747Y-103321134D01*
X134594326Y-103326044D01*
X134594325Y-103326045D01*
X134490248Y-103441635D01*
X134470960Y-103463056D01*
X134375473Y-103628444D01*
X134316458Y-103810072D01*
X134296496Y-104000000D01*
X134297186Y-104006565D01*
X134314033Y-104166852D01*
X134316458Y-104189928D01*
X134375473Y-104371556D01*
X134378776Y-104377278D01*
X134378777Y-104377279D01*
X134444497Y-104491109D01*
X134470960Y-104536944D01*
X134598747Y-104678866D01*
X134753248Y-104791118D01*
X134759276Y-104793802D01*
X134759278Y-104793803D01*
X134921681Y-104866109D01*
X134927712Y-104868794D01*
X134965156Y-104876753D01*
X135027629Y-104910482D01*
X135061951Y-104972631D01*
X135057223Y-105043470D01*
X135014947Y-105100508D01*
X134965156Y-105123247D01*
X134927712Y-105131206D01*
X134921682Y-105133891D01*
X134921681Y-105133891D01*
X134759278Y-105206197D01*
X134759276Y-105206198D01*
X134753248Y-105208882D01*
X134747907Y-105212762D01*
X134747906Y-105212763D01*
X134697843Y-105249136D01*
X134598747Y-105321134D01*
X134594326Y-105326044D01*
X134594325Y-105326045D01*
X134490699Y-105441134D01*
X134470960Y-105463056D01*
X134467659Y-105468774D01*
X134448290Y-105502322D01*
X134396908Y-105551315D01*
X134327195Y-105564752D01*
X134261283Y-105538365D01*
X134245535Y-105523633D01*
X134171253Y-105441134D01*
X134016752Y-105328882D01*
X134010724Y-105326198D01*
X134010722Y-105326197D01*
X133848319Y-105253891D01*
X133848318Y-105253891D01*
X133842288Y-105251206D01*
X133748888Y-105231353D01*
X133661944Y-105212872D01*
X133661939Y-105212872D01*
X133655487Y-105211500D01*
X133481212Y-105211500D01*
X133413091Y-105191498D01*
X133366598Y-105137842D01*
X133355902Y-105072330D01*
X133362814Y-105006565D01*
X133363504Y-105000000D01*
X133352940Y-104899492D01*
X133344232Y-104816635D01*
X133344232Y-104816633D01*
X133343542Y-104810072D01*
X133284527Y-104628444D01*
X133189040Y-104463056D01*
X133149195Y-104418803D01*
X133065675Y-104326045D01*
X133065674Y-104326044D01*
X133061253Y-104321134D01*
X132906752Y-104208882D01*
X132900724Y-104206198D01*
X132900722Y-104206197D01*
X132738319Y-104133891D01*
X132738318Y-104133891D01*
X132732288Y-104131206D01*
X132638887Y-104111353D01*
X132551944Y-104092872D01*
X132551939Y-104092872D01*
X132545487Y-104091500D01*
X132354513Y-104091500D01*
X132348061Y-104092872D01*
X132348056Y-104092872D01*
X132261113Y-104111353D01*
X132167712Y-104131206D01*
X132161682Y-104133891D01*
X132161681Y-104133891D01*
X131999278Y-104206197D01*
X131999276Y-104206198D01*
X131993248Y-104208882D01*
X131957177Y-104235089D01*
X131890312Y-104258946D01*
X131821160Y-104242866D01*
X131809056Y-104235087D01*
X131792095Y-104222764D01*
X131792096Y-104222764D01*
X131786752Y-104218882D01*
X131780724Y-104216198D01*
X131780722Y-104216197D01*
X131618319Y-104143891D01*
X131618318Y-104143891D01*
X131612288Y-104141206D01*
X131518887Y-104121353D01*
X131431944Y-104102872D01*
X131431939Y-104102872D01*
X131425487Y-104101500D01*
X131234513Y-104101500D01*
X131228061Y-104102872D01*
X131228056Y-104102872D01*
X131141113Y-104121353D01*
X131047712Y-104141206D01*
X131041682Y-104143891D01*
X131041681Y-104143891D01*
X130879278Y-104216197D01*
X130879276Y-104216198D01*
X130873248Y-104218882D01*
X130850943Y-104235088D01*
X130835299Y-104246454D01*
X130768432Y-104270313D01*
X130699280Y-104254234D01*
X130687174Y-104246454D01*
X130682091Y-104242761D01*
X130676752Y-104238882D01*
X130670722Y-104236197D01*
X130508319Y-104163891D01*
X130508318Y-104163891D01*
X130502288Y-104161206D01*
X130401741Y-104139834D01*
X130321944Y-104122872D01*
X130321939Y-104122872D01*
X130315487Y-104121500D01*
X130124513Y-104121500D01*
X130118061Y-104122872D01*
X130118056Y-104122872D01*
X130038259Y-104139834D01*
X129937712Y-104161206D01*
X129931682Y-104163891D01*
X129931681Y-104163891D01*
X129769278Y-104236197D01*
X129769276Y-104236198D01*
X129763248Y-104238882D01*
X129757909Y-104242761D01*
X129757906Y-104242763D01*
X129752826Y-104246454D01*
X129608747Y-104351134D01*
X129604326Y-104356044D01*
X129604325Y-104356045D01*
X129502824Y-104468774D01*
X129480960Y-104493056D01*
X129477659Y-104498774D01*
X129402794Y-104628444D01*
X129385473Y-104658444D01*
X129326458Y-104840072D01*
X129306496Y-105030000D01*
X129307186Y-105036565D01*
X129313047Y-105092330D01*
X129300275Y-105162168D01*
X129251773Y-105214015D01*
X129187737Y-105231500D01*
X129144513Y-105231500D01*
X129138061Y-105232872D01*
X129138056Y-105232872D01*
X129058259Y-105249834D01*
X128957712Y-105271206D01*
X128951682Y-105273891D01*
X128951681Y-105273891D01*
X128789278Y-105346197D01*
X128789276Y-105346198D01*
X128783248Y-105348882D01*
X128628747Y-105461134D01*
X128500960Y-105603056D01*
X128486302Y-105628444D01*
X128422048Y-105739736D01*
X128405473Y-105768444D01*
X128346458Y-105950072D01*
X128345768Y-105956633D01*
X128345768Y-105956635D01*
X128341900Y-105993435D01*
X128326496Y-106140000D01*
X128346458Y-106329928D01*
X128405473Y-106511556D01*
X128434021Y-106561002D01*
X128450758Y-106629994D01*
X128427538Y-106697086D01*
X128371731Y-106740974D01*
X128324901Y-106750000D01*
X126830203Y-106750000D01*
X126762082Y-106729998D01*
X126715589Y-106676342D01*
X126705485Y-106606068D01*
X126732469Y-106548448D01*
X126730741Y-106547192D01*
X126734620Y-106541852D01*
X126739040Y-106536944D01*
X126834527Y-106371556D01*
X126893542Y-106189928D01*
X126913504Y-106000000D01*
X126893542Y-105810072D01*
X126834527Y-105628444D01*
X126823171Y-105608774D01*
X126774014Y-105523633D01*
X126739040Y-105463056D01*
X126719302Y-105441134D01*
X126615675Y-105326045D01*
X126615674Y-105326044D01*
X126611253Y-105321134D01*
X126512157Y-105249136D01*
X126462094Y-105212763D01*
X126462093Y-105212762D01*
X126456752Y-105208882D01*
X126450724Y-105206198D01*
X126450722Y-105206197D01*
X126288319Y-105133891D01*
X126288318Y-105133891D01*
X126282288Y-105131206D01*
X126188888Y-105111353D01*
X126101944Y-105092872D01*
X126101939Y-105092872D01*
X126095487Y-105091500D01*
X125904513Y-105091500D01*
X125898061Y-105092872D01*
X125898056Y-105092872D01*
X125811112Y-105111353D01*
X125717712Y-105131206D01*
X125711682Y-105133891D01*
X125711681Y-105133891D01*
X125549278Y-105206197D01*
X125549276Y-105206198D01*
X125543248Y-105208882D01*
X125537907Y-105212762D01*
X125537906Y-105212763D01*
X125487843Y-105249136D01*
X125388747Y-105321134D01*
X125384326Y-105326044D01*
X125384325Y-105326045D01*
X125280699Y-105441134D01*
X125260960Y-105463056D01*
X125225986Y-105523633D01*
X125176830Y-105608774D01*
X125165473Y-105628444D01*
X125106458Y-105810072D01*
X125086496Y-106000000D01*
X125106458Y-106189928D01*
X125165473Y-106371556D01*
X125260960Y-106536944D01*
X125265380Y-106541852D01*
X125269259Y-106547192D01*
X125267607Y-106548392D01*
X125294148Y-106603685D01*
X125285391Y-106674139D01*
X125239934Y-106728675D01*
X125169797Y-106750000D01*
X120634000Y-106750000D01*
X120565879Y-106729998D01*
X120519386Y-106676342D01*
X120508000Y-106624000D01*
X120508000Y-102951843D01*
X120528002Y-102883722D01*
X120581658Y-102837229D01*
X120651932Y-102827125D01*
X120697569Y-102843055D01*
X120811000Y-102909338D01*
X120815825Y-102911180D01*
X120815826Y-102911181D01*
X120863375Y-102929338D01*
X121019692Y-102989030D01*
X121024760Y-102990061D01*
X121024763Y-102990062D01*
X121123067Y-103010062D01*
X121238597Y-103033567D01*
X121243772Y-103033757D01*
X121243774Y-103033757D01*
X121456673Y-103041564D01*
X121456677Y-103041564D01*
X121461837Y-103041753D01*
X121466957Y-103041097D01*
X121466959Y-103041097D01*
X121678288Y-103014025D01*
X121678289Y-103014025D01*
X121683416Y-103013368D01*
X121688366Y-103011883D01*
X121727974Y-103000000D01*
X125086496Y-103000000D01*
X125087186Y-103006565D01*
X125092967Y-103061564D01*
X125106458Y-103189928D01*
X125165473Y-103371556D01*
X125260960Y-103536944D01*
X125388747Y-103678866D01*
X125543248Y-103791118D01*
X125549276Y-103793802D01*
X125549278Y-103793803D01*
X125596726Y-103814928D01*
X125717712Y-103868794D01*
X125811112Y-103888647D01*
X125898056Y-103907128D01*
X125898061Y-103907128D01*
X125904513Y-103908500D01*
X126095487Y-103908500D01*
X126101939Y-103907128D01*
X126101944Y-103907128D01*
X126188887Y-103888647D01*
X126282288Y-103868794D01*
X126403274Y-103814928D01*
X126450722Y-103793803D01*
X126450724Y-103793802D01*
X126456752Y-103791118D01*
X126611253Y-103678866D01*
X126739040Y-103536944D01*
X126834527Y-103371556D01*
X126893542Y-103189928D01*
X126907034Y-103061564D01*
X126912814Y-103006565D01*
X126913504Y-103000000D01*
X151086496Y-103000000D01*
X151087186Y-103006565D01*
X151092967Y-103061564D01*
X151106458Y-103189928D01*
X151165473Y-103371556D01*
X151260960Y-103536944D01*
X151388747Y-103678866D01*
X151543248Y-103791118D01*
X151549276Y-103793802D01*
X151549278Y-103793803D01*
X151596726Y-103814928D01*
X151717712Y-103868794D01*
X151811112Y-103888647D01*
X151898056Y-103907128D01*
X151898061Y-103907128D01*
X151904513Y-103908500D01*
X152095487Y-103908500D01*
X152101939Y-103907128D01*
X152101944Y-103907128D01*
X152188887Y-103888647D01*
X152282288Y-103868794D01*
X152403274Y-103814928D01*
X152450722Y-103793803D01*
X152450724Y-103793802D01*
X152456752Y-103791118D01*
X152611253Y-103678866D01*
X152739040Y-103536944D01*
X152834527Y-103371556D01*
X152893542Y-103189928D01*
X152907034Y-103061564D01*
X152912814Y-103006565D01*
X152913504Y-103000000D01*
X156086496Y-103000000D01*
X156087186Y-103006565D01*
X156092967Y-103061564D01*
X156106458Y-103189928D01*
X156165473Y-103371556D01*
X156260960Y-103536944D01*
X156388747Y-103678866D01*
X156543248Y-103791118D01*
X156549276Y-103793802D01*
X156549278Y-103793803D01*
X156596726Y-103814928D01*
X156717712Y-103868794D01*
X156811112Y-103888647D01*
X156898056Y-103907128D01*
X156898061Y-103907128D01*
X156904513Y-103908500D01*
X157095487Y-103908500D01*
X157101939Y-103907128D01*
X157101944Y-103907128D01*
X157188887Y-103888647D01*
X157282288Y-103868794D01*
X157403274Y-103814928D01*
X157450722Y-103793803D01*
X157450724Y-103793802D01*
X157456752Y-103791118D01*
X157611253Y-103678866D01*
X157659754Y-103625000D01*
X162746466Y-103625000D01*
X162747156Y-103631565D01*
X162763518Y-103787237D01*
X162766428Y-103814928D01*
X162825443Y-103996556D01*
X162920930Y-104161944D01*
X162925348Y-104166851D01*
X162925349Y-104166852D01*
X162990205Y-104238882D01*
X163048717Y-104303866D01*
X163203218Y-104416118D01*
X163209246Y-104418802D01*
X163209248Y-104418803D01*
X163371651Y-104491109D01*
X163377682Y-104493794D01*
X163471083Y-104513647D01*
X163558026Y-104532128D01*
X163558031Y-104532128D01*
X163564483Y-104533500D01*
X163755457Y-104533500D01*
X163761909Y-104532128D01*
X163761914Y-104532128D01*
X163848857Y-104513647D01*
X163942258Y-104493794D01*
X163948289Y-104491109D01*
X164110692Y-104418803D01*
X164110694Y-104418802D01*
X164116722Y-104416118D01*
X164271223Y-104303866D01*
X164329735Y-104238882D01*
X164394591Y-104166852D01*
X164394592Y-104166851D01*
X164399010Y-104161944D01*
X164494497Y-103996556D01*
X164553512Y-103814928D01*
X164556423Y-103787237D01*
X164572784Y-103631565D01*
X164573474Y-103625000D01*
X164556453Y-103463056D01*
X164554202Y-103441635D01*
X164554202Y-103441633D01*
X164553512Y-103435072D01*
X164494497Y-103253444D01*
X164399010Y-103088056D01*
X164372066Y-103058131D01*
X164275645Y-102951045D01*
X164275644Y-102951044D01*
X164271223Y-102946134D01*
X164116722Y-102833882D01*
X164110694Y-102831198D01*
X164110692Y-102831197D01*
X163948289Y-102758891D01*
X163948288Y-102758891D01*
X163942258Y-102756206D01*
X163848857Y-102736353D01*
X163761914Y-102717872D01*
X163761909Y-102717872D01*
X163755457Y-102716500D01*
X163564483Y-102716500D01*
X163558031Y-102717872D01*
X163558026Y-102717872D01*
X163471083Y-102736353D01*
X163377682Y-102756206D01*
X163371652Y-102758891D01*
X163371651Y-102758891D01*
X163209248Y-102831197D01*
X163209246Y-102831198D01*
X163203218Y-102833882D01*
X163048717Y-102946134D01*
X163044296Y-102951044D01*
X163044295Y-102951045D01*
X162947875Y-103058131D01*
X162920930Y-103088056D01*
X162825443Y-103253444D01*
X162766428Y-103435072D01*
X162765738Y-103441633D01*
X162765738Y-103441635D01*
X162763487Y-103463056D01*
X162746466Y-103625000D01*
X157659754Y-103625000D01*
X157739040Y-103536944D01*
X157834527Y-103371556D01*
X157893542Y-103189928D01*
X157907034Y-103061564D01*
X157912814Y-103006565D01*
X157913504Y-103000000D01*
X157893542Y-102810072D01*
X157834527Y-102628444D01*
X157817028Y-102598134D01*
X157765560Y-102508990D01*
X157739040Y-102463056D01*
X157679298Y-102396705D01*
X157615675Y-102326045D01*
X157615674Y-102326044D01*
X157611253Y-102321134D01*
X157456752Y-102208882D01*
X157450724Y-102206198D01*
X157450722Y-102206197D01*
X157288319Y-102133891D01*
X157288318Y-102133891D01*
X157282288Y-102131206D01*
X157171415Y-102107639D01*
X157101944Y-102092872D01*
X157101939Y-102092872D01*
X157095487Y-102091500D01*
X156904513Y-102091500D01*
X156898061Y-102092872D01*
X156898056Y-102092872D01*
X156828585Y-102107639D01*
X156717712Y-102131206D01*
X156711682Y-102133891D01*
X156711681Y-102133891D01*
X156549278Y-102206197D01*
X156549276Y-102206198D01*
X156543248Y-102208882D01*
X156388747Y-102321134D01*
X156384326Y-102326044D01*
X156384325Y-102326045D01*
X156320703Y-102396705D01*
X156260960Y-102463056D01*
X156234440Y-102508990D01*
X156182973Y-102598134D01*
X156165473Y-102628444D01*
X156106458Y-102810072D01*
X156086496Y-103000000D01*
X152913504Y-103000000D01*
X152893542Y-102810072D01*
X152834527Y-102628444D01*
X152817028Y-102598134D01*
X152765560Y-102508990D01*
X152739040Y-102463056D01*
X152679298Y-102396705D01*
X152615675Y-102326045D01*
X152615674Y-102326044D01*
X152611253Y-102321134D01*
X152456752Y-102208882D01*
X152450724Y-102206198D01*
X152450722Y-102206197D01*
X152288319Y-102133891D01*
X152288318Y-102133891D01*
X152282288Y-102131206D01*
X152171415Y-102107639D01*
X152101944Y-102092872D01*
X152101939Y-102092872D01*
X152095487Y-102091500D01*
X151904513Y-102091500D01*
X151898061Y-102092872D01*
X151898056Y-102092872D01*
X151828585Y-102107639D01*
X151717712Y-102131206D01*
X151711682Y-102133891D01*
X151711681Y-102133891D01*
X151549278Y-102206197D01*
X151549276Y-102206198D01*
X151543248Y-102208882D01*
X151388747Y-102321134D01*
X151384326Y-102326044D01*
X151384325Y-102326045D01*
X151320703Y-102396705D01*
X151260960Y-102463056D01*
X151234440Y-102508990D01*
X151182973Y-102598134D01*
X151165473Y-102628444D01*
X151106458Y-102810072D01*
X151086496Y-103000000D01*
X126913504Y-103000000D01*
X126893542Y-102810072D01*
X126834527Y-102628444D01*
X126817028Y-102598134D01*
X126765560Y-102508990D01*
X126739040Y-102463056D01*
X126679298Y-102396705D01*
X126615675Y-102326045D01*
X126615674Y-102326044D01*
X126611253Y-102321134D01*
X126456752Y-102208882D01*
X126450724Y-102206198D01*
X126450722Y-102206197D01*
X126288319Y-102133891D01*
X126288318Y-102133891D01*
X126282288Y-102131206D01*
X126171415Y-102107639D01*
X126101944Y-102092872D01*
X126101939Y-102092872D01*
X126095487Y-102091500D01*
X125904513Y-102091500D01*
X125898061Y-102092872D01*
X125898056Y-102092872D01*
X125828585Y-102107639D01*
X125717712Y-102131206D01*
X125711682Y-102133891D01*
X125711681Y-102133891D01*
X125549278Y-102206197D01*
X125549276Y-102206198D01*
X125543248Y-102208882D01*
X125388747Y-102321134D01*
X125384326Y-102326044D01*
X125384325Y-102326045D01*
X125320703Y-102396705D01*
X125260960Y-102463056D01*
X125234440Y-102508990D01*
X125182973Y-102598134D01*
X125165473Y-102628444D01*
X125106458Y-102810072D01*
X125086496Y-103000000D01*
X121727974Y-103000000D01*
X121892429Y-102950661D01*
X121892434Y-102950659D01*
X121897384Y-102949174D01*
X122097994Y-102850896D01*
X122279860Y-102721173D01*
X122284550Y-102716500D01*
X122391360Y-102610062D01*
X122438096Y-102563489D01*
X122504631Y-102470896D01*
X122557942Y-102396705D01*
X122568453Y-102382077D01*
X122620267Y-102277240D01*
X122665136Y-102186453D01*
X122665137Y-102186451D01*
X122667430Y-102181811D01*
X122732370Y-101968069D01*
X122761529Y-101746590D01*
X122763156Y-101680000D01*
X122744852Y-101457361D01*
X122696960Y-101266695D01*
X166872251Y-101266695D01*
X166872548Y-101271848D01*
X166872548Y-101271851D01*
X166883542Y-101462522D01*
X166885110Y-101489715D01*
X166886247Y-101494761D01*
X166886248Y-101494767D01*
X166910304Y-101601508D01*
X166934222Y-101707639D01*
X167018266Y-101914616D01*
X167134987Y-102105088D01*
X167281250Y-102273938D01*
X167453126Y-102416632D01*
X167646000Y-102529338D01*
X167854692Y-102609030D01*
X167859760Y-102610061D01*
X167859763Y-102610062D01*
X167950114Y-102628444D01*
X168073597Y-102653567D01*
X168078772Y-102653757D01*
X168078774Y-102653757D01*
X168291673Y-102661564D01*
X168291677Y-102661564D01*
X168296837Y-102661753D01*
X168301957Y-102661097D01*
X168301959Y-102661097D01*
X168513288Y-102634025D01*
X168513289Y-102634025D01*
X168518416Y-102633368D01*
X168523366Y-102631883D01*
X168727429Y-102570661D01*
X168727434Y-102570659D01*
X168732384Y-102569174D01*
X168932994Y-102470896D01*
X169114860Y-102341173D01*
X169223091Y-102233319D01*
X169285462Y-102199404D01*
X169356268Y-102204592D01*
X169413030Y-102247238D01*
X169430012Y-102278341D01*
X169443611Y-102314616D01*
X169474385Y-102396705D01*
X169561739Y-102513261D01*
X169678295Y-102600615D01*
X169814684Y-102651745D01*
X169876866Y-102658500D01*
X171673134Y-102658500D01*
X171735316Y-102651745D01*
X171871705Y-102600615D01*
X171988261Y-102513261D01*
X172075615Y-102396705D01*
X172126745Y-102260316D01*
X172133500Y-102198134D01*
X172133500Y-100401866D01*
X172126745Y-100339684D01*
X172075615Y-100203295D01*
X172070230Y-100196110D01*
X172070229Y-100196108D01*
X172053735Y-100174101D01*
X172028886Y-100107595D01*
X172043938Y-100038212D01*
X172080499Y-99996599D01*
X172195909Y-99912749D01*
X172195911Y-99912747D01*
X172201253Y-99908866D01*
X172284298Y-99816635D01*
X172324621Y-99771852D01*
X172324622Y-99771851D01*
X172329040Y-99766944D01*
X172424527Y-99601556D01*
X172483542Y-99419928D01*
X172503504Y-99230000D01*
X172493188Y-99131851D01*
X172484232Y-99046635D01*
X172484232Y-99046633D01*
X172483542Y-99040072D01*
X172424527Y-98858444D01*
X172329040Y-98693056D01*
X172201253Y-98551134D01*
X172046752Y-98438882D01*
X172040724Y-98436198D01*
X172040722Y-98436197D01*
X171878319Y-98363891D01*
X171878318Y-98363891D01*
X171872288Y-98361206D01*
X171778888Y-98341353D01*
X171691944Y-98322872D01*
X171691939Y-98322872D01*
X171685487Y-98321500D01*
X171494513Y-98321500D01*
X171488061Y-98322872D01*
X171488056Y-98322872D01*
X171401112Y-98341353D01*
X171307712Y-98361206D01*
X171301682Y-98363891D01*
X171301681Y-98363891D01*
X171139278Y-98436197D01*
X171139276Y-98436198D01*
X171133248Y-98438882D01*
X170978747Y-98551134D01*
X170850960Y-98693056D01*
X170755473Y-98858444D01*
X170696458Y-99040072D01*
X170695768Y-99046633D01*
X170695768Y-99046635D01*
X170686812Y-99131851D01*
X170676496Y-99230000D01*
X170696458Y-99419928D01*
X170755473Y-99601556D01*
X170758776Y-99607278D01*
X170758777Y-99607279D01*
X170842621Y-99752500D01*
X170859359Y-99821495D01*
X170836139Y-99888587D01*
X170780332Y-99932474D01*
X170733502Y-99941500D01*
X169876866Y-99941500D01*
X169814684Y-99948255D01*
X169678295Y-99999385D01*
X169561739Y-100086739D01*
X169474385Y-100203295D01*
X169471233Y-100211703D01*
X169429919Y-100321907D01*
X169387277Y-100378671D01*
X169320716Y-100403371D01*
X169251367Y-100388163D01*
X169218743Y-100362476D01*
X169168151Y-100306875D01*
X169168142Y-100306866D01*
X169164670Y-100303051D01*
X169160619Y-100299852D01*
X169160615Y-100299848D01*
X168993414Y-100167800D01*
X168993410Y-100167798D01*
X168989359Y-100164598D01*
X168939804Y-100137242D01*
X168926741Y-100130031D01*
X168793789Y-100056638D01*
X168788920Y-100054914D01*
X168788916Y-100054912D01*
X168588087Y-99983795D01*
X168588083Y-99983794D01*
X168583212Y-99982069D01*
X168578119Y-99981162D01*
X168578116Y-99981161D01*
X168368373Y-99943800D01*
X168368367Y-99943799D01*
X168363284Y-99942894D01*
X168289452Y-99941992D01*
X168145081Y-99940228D01*
X168145079Y-99940228D01*
X168139911Y-99940165D01*
X167919091Y-99973955D01*
X167706756Y-100043357D01*
X167676443Y-100059137D01*
X167518827Y-100141187D01*
X167508607Y-100146507D01*
X167504474Y-100149610D01*
X167504471Y-100149612D01*
X167334100Y-100277530D01*
X167329965Y-100280635D01*
X167302946Y-100308909D01*
X167193577Y-100423357D01*
X167175629Y-100442138D01*
X167049743Y-100626680D01*
X167024698Y-100680635D01*
X166968425Y-100801866D01*
X166955688Y-100829305D01*
X166895989Y-101044570D01*
X166872251Y-101266695D01*
X122696960Y-101266695D01*
X122690431Y-101240702D01*
X122601354Y-101035840D01*
X122518974Y-100908500D01*
X122482822Y-100852617D01*
X122482820Y-100852614D01*
X122480014Y-100848277D01*
X122329670Y-100683051D01*
X122325619Y-100679852D01*
X122325615Y-100679848D01*
X122158414Y-100547800D01*
X122158410Y-100547798D01*
X122154359Y-100544598D01*
X122113053Y-100521796D01*
X122063084Y-100471364D01*
X122048312Y-100401921D01*
X122073428Y-100335516D01*
X122100780Y-100308909D01*
X122237058Y-100211703D01*
X122279860Y-100181173D01*
X122311532Y-100149612D01*
X122380024Y-100081358D01*
X122438096Y-100023489D01*
X122454975Y-100000000D01*
X125086496Y-100000000D01*
X125087186Y-100006565D01*
X125104795Y-100174101D01*
X125106458Y-100189928D01*
X125165473Y-100371556D01*
X125168776Y-100377278D01*
X125168777Y-100377279D01*
X125198739Y-100429174D01*
X125260960Y-100536944D01*
X125265378Y-100541851D01*
X125265379Y-100541852D01*
X125384325Y-100673955D01*
X125388747Y-100678866D01*
X125543248Y-100791118D01*
X125549276Y-100793802D01*
X125549278Y-100793803D01*
X125711681Y-100866109D01*
X125717712Y-100868794D01*
X125811112Y-100888647D01*
X125898056Y-100907128D01*
X125898061Y-100907128D01*
X125904513Y-100908500D01*
X126095487Y-100908500D01*
X126101939Y-100907128D01*
X126101944Y-100907128D01*
X126188887Y-100888647D01*
X126282288Y-100868794D01*
X126288319Y-100866109D01*
X126450722Y-100793803D01*
X126450724Y-100793802D01*
X126456752Y-100791118D01*
X126611253Y-100678866D01*
X126615675Y-100673955D01*
X126734621Y-100541852D01*
X126734622Y-100541851D01*
X126739040Y-100536944D01*
X126801261Y-100429174D01*
X126831223Y-100377279D01*
X126831224Y-100377278D01*
X126834527Y-100371556D01*
X126893542Y-100189928D01*
X126895206Y-100174101D01*
X126912814Y-100006565D01*
X126913504Y-100000000D01*
X134086496Y-100000000D01*
X134087186Y-100006565D01*
X134104795Y-100174101D01*
X134106458Y-100189928D01*
X134165473Y-100371556D01*
X134168776Y-100377278D01*
X134168777Y-100377279D01*
X134198739Y-100429174D01*
X134260960Y-100536944D01*
X134265378Y-100541851D01*
X134265379Y-100541852D01*
X134384325Y-100673955D01*
X134388747Y-100678866D01*
X134543248Y-100791118D01*
X134549276Y-100793802D01*
X134549278Y-100793803D01*
X134711681Y-100866109D01*
X134717712Y-100868794D01*
X134811112Y-100888647D01*
X134898056Y-100907128D01*
X134898061Y-100907128D01*
X134904513Y-100908500D01*
X135095487Y-100908500D01*
X135101939Y-100907128D01*
X135101944Y-100907128D01*
X135188887Y-100888647D01*
X135282288Y-100868794D01*
X135288319Y-100866109D01*
X135450722Y-100793803D01*
X135450724Y-100793802D01*
X135456752Y-100791118D01*
X135611253Y-100678866D01*
X135615675Y-100673955D01*
X135734621Y-100541852D01*
X135734622Y-100541851D01*
X135739040Y-100536944D01*
X135801261Y-100429174D01*
X135831223Y-100377279D01*
X135831224Y-100377278D01*
X135834527Y-100371556D01*
X135893542Y-100189928D01*
X135895206Y-100174101D01*
X135912814Y-100006565D01*
X135913504Y-100000000D01*
X139086496Y-100000000D01*
X139087186Y-100006565D01*
X139104795Y-100174101D01*
X139106458Y-100189928D01*
X139165473Y-100371556D01*
X139168776Y-100377278D01*
X139168777Y-100377279D01*
X139198739Y-100429174D01*
X139260960Y-100536944D01*
X139265378Y-100541851D01*
X139265379Y-100541852D01*
X139384325Y-100673955D01*
X139388747Y-100678866D01*
X139543248Y-100791118D01*
X139549276Y-100793802D01*
X139549278Y-100793803D01*
X139711681Y-100866109D01*
X139717712Y-100868794D01*
X139811112Y-100888647D01*
X139898056Y-100907128D01*
X139898061Y-100907128D01*
X139904513Y-100908500D01*
X140095487Y-100908500D01*
X140101939Y-100907128D01*
X140101944Y-100907128D01*
X140188887Y-100888647D01*
X140282288Y-100868794D01*
X140288319Y-100866109D01*
X140450722Y-100793803D01*
X140450724Y-100793802D01*
X140456752Y-100791118D01*
X140611253Y-100678866D01*
X140615675Y-100673955D01*
X140734621Y-100541852D01*
X140734622Y-100541851D01*
X140739040Y-100536944D01*
X140801261Y-100429174D01*
X140831223Y-100377279D01*
X140831224Y-100377278D01*
X140834527Y-100371556D01*
X140893542Y-100189928D01*
X140895206Y-100174101D01*
X140912814Y-100006565D01*
X140913504Y-100000000D01*
X144086496Y-100000000D01*
X144087186Y-100006565D01*
X144104795Y-100174101D01*
X144106458Y-100189928D01*
X144165473Y-100371556D01*
X144168776Y-100377278D01*
X144168777Y-100377279D01*
X144198739Y-100429174D01*
X144260960Y-100536944D01*
X144265378Y-100541851D01*
X144265379Y-100541852D01*
X144384325Y-100673955D01*
X144388747Y-100678866D01*
X144543248Y-100791118D01*
X144549276Y-100793802D01*
X144549278Y-100793803D01*
X144711681Y-100866109D01*
X144717712Y-100868794D01*
X144811112Y-100888647D01*
X144898056Y-100907128D01*
X144898061Y-100907128D01*
X144904513Y-100908500D01*
X145095487Y-100908500D01*
X145101939Y-100907128D01*
X145101944Y-100907128D01*
X145188887Y-100888647D01*
X145282288Y-100868794D01*
X145288319Y-100866109D01*
X145450722Y-100793803D01*
X145450724Y-100793802D01*
X145456752Y-100791118D01*
X145611253Y-100678866D01*
X145615675Y-100673955D01*
X145734621Y-100541852D01*
X145734622Y-100541851D01*
X145739040Y-100536944D01*
X145801261Y-100429174D01*
X145831223Y-100377279D01*
X145831224Y-100377278D01*
X145834527Y-100371556D01*
X145893542Y-100189928D01*
X145895206Y-100174101D01*
X145912814Y-100006565D01*
X145913504Y-100000000D01*
X151086496Y-100000000D01*
X151087186Y-100006565D01*
X151104795Y-100174101D01*
X151106458Y-100189928D01*
X151165473Y-100371556D01*
X151168776Y-100377278D01*
X151168777Y-100377279D01*
X151198739Y-100429174D01*
X151260960Y-100536944D01*
X151265378Y-100541851D01*
X151265379Y-100541852D01*
X151384325Y-100673955D01*
X151388747Y-100678866D01*
X151543248Y-100791118D01*
X151549276Y-100793802D01*
X151549278Y-100793803D01*
X151711681Y-100866109D01*
X151717712Y-100868794D01*
X151811112Y-100888647D01*
X151898056Y-100907128D01*
X151898061Y-100907128D01*
X151904513Y-100908500D01*
X152095487Y-100908500D01*
X152101939Y-100907128D01*
X152101944Y-100907128D01*
X152188887Y-100888647D01*
X152282288Y-100868794D01*
X152288319Y-100866109D01*
X152450722Y-100793803D01*
X152450724Y-100793802D01*
X152456752Y-100791118D01*
X152611253Y-100678866D01*
X152615675Y-100673955D01*
X152734621Y-100541852D01*
X152734622Y-100541851D01*
X152739040Y-100536944D01*
X152801261Y-100429174D01*
X152831223Y-100377279D01*
X152831224Y-100377278D01*
X152834527Y-100371556D01*
X152893542Y-100189928D01*
X152895206Y-100174101D01*
X152912814Y-100006565D01*
X152913504Y-100000000D01*
X152911524Y-99981161D01*
X152894232Y-99816635D01*
X152894232Y-99816633D01*
X152893542Y-99810072D01*
X152834527Y-99628444D01*
X152739040Y-99463056D01*
X152700208Y-99419928D01*
X152615675Y-99326045D01*
X152615674Y-99326044D01*
X152611253Y-99321134D01*
X152485818Y-99230000D01*
X152462094Y-99212763D01*
X152462093Y-99212762D01*
X152456752Y-99208882D01*
X152450724Y-99206198D01*
X152450722Y-99206197D01*
X152288319Y-99133891D01*
X152288318Y-99133891D01*
X152282288Y-99131206D01*
X152188888Y-99111353D01*
X152101944Y-99092872D01*
X152101939Y-99092872D01*
X152095487Y-99091500D01*
X151904513Y-99091500D01*
X151898061Y-99092872D01*
X151898056Y-99092872D01*
X151811112Y-99111353D01*
X151717712Y-99131206D01*
X151711682Y-99133891D01*
X151711681Y-99133891D01*
X151549278Y-99206197D01*
X151549276Y-99206198D01*
X151543248Y-99208882D01*
X151537907Y-99212762D01*
X151537906Y-99212763D01*
X151514182Y-99230000D01*
X151388747Y-99321134D01*
X151384326Y-99326044D01*
X151384325Y-99326045D01*
X151299793Y-99419928D01*
X151260960Y-99463056D01*
X151165473Y-99628444D01*
X151106458Y-99810072D01*
X151105768Y-99816633D01*
X151105768Y-99816635D01*
X151088476Y-99981161D01*
X151086496Y-100000000D01*
X145913504Y-100000000D01*
X145911524Y-99981161D01*
X145894232Y-99816635D01*
X145894232Y-99816633D01*
X145893542Y-99810072D01*
X145834527Y-99628444D01*
X145739040Y-99463056D01*
X145700208Y-99419928D01*
X145615675Y-99326045D01*
X145615674Y-99326044D01*
X145611253Y-99321134D01*
X145485818Y-99230000D01*
X145462094Y-99212763D01*
X145462093Y-99212762D01*
X145456752Y-99208882D01*
X145450724Y-99206198D01*
X145450722Y-99206197D01*
X145288319Y-99133891D01*
X145288318Y-99133891D01*
X145282288Y-99131206D01*
X145188888Y-99111353D01*
X145101944Y-99092872D01*
X145101939Y-99092872D01*
X145095487Y-99091500D01*
X144904513Y-99091500D01*
X144898061Y-99092872D01*
X144898056Y-99092872D01*
X144811112Y-99111353D01*
X144717712Y-99131206D01*
X144711682Y-99133891D01*
X144711681Y-99133891D01*
X144549278Y-99206197D01*
X144549276Y-99206198D01*
X144543248Y-99208882D01*
X144537907Y-99212762D01*
X144537906Y-99212763D01*
X144514182Y-99230000D01*
X144388747Y-99321134D01*
X144384326Y-99326044D01*
X144384325Y-99326045D01*
X144299793Y-99419928D01*
X144260960Y-99463056D01*
X144165473Y-99628444D01*
X144106458Y-99810072D01*
X144105768Y-99816633D01*
X144105768Y-99816635D01*
X144088476Y-99981161D01*
X144086496Y-100000000D01*
X140913504Y-100000000D01*
X140911524Y-99981161D01*
X140894232Y-99816635D01*
X140894232Y-99816633D01*
X140893542Y-99810072D01*
X140834527Y-99628444D01*
X140739040Y-99463056D01*
X140700208Y-99419928D01*
X140615675Y-99326045D01*
X140615674Y-99326044D01*
X140611253Y-99321134D01*
X140485818Y-99230000D01*
X140462094Y-99212763D01*
X140462093Y-99212762D01*
X140456752Y-99208882D01*
X140450724Y-99206198D01*
X140450722Y-99206197D01*
X140288319Y-99133891D01*
X140288318Y-99133891D01*
X140282288Y-99131206D01*
X140188888Y-99111353D01*
X140101944Y-99092872D01*
X140101939Y-99092872D01*
X140095487Y-99091500D01*
X139904513Y-99091500D01*
X139898061Y-99092872D01*
X139898056Y-99092872D01*
X139811112Y-99111353D01*
X139717712Y-99131206D01*
X139711682Y-99133891D01*
X139711681Y-99133891D01*
X139549278Y-99206197D01*
X139549276Y-99206198D01*
X139543248Y-99208882D01*
X139537907Y-99212762D01*
X139537906Y-99212763D01*
X139514182Y-99230000D01*
X139388747Y-99321134D01*
X139384326Y-99326044D01*
X139384325Y-99326045D01*
X139299793Y-99419928D01*
X139260960Y-99463056D01*
X139165473Y-99628444D01*
X139106458Y-99810072D01*
X139105768Y-99816633D01*
X139105768Y-99816635D01*
X139088476Y-99981161D01*
X139086496Y-100000000D01*
X135913504Y-100000000D01*
X135911524Y-99981161D01*
X135894232Y-99816635D01*
X135894232Y-99816633D01*
X135893542Y-99810072D01*
X135834527Y-99628444D01*
X135739040Y-99463056D01*
X135700208Y-99419928D01*
X135615675Y-99326045D01*
X135615674Y-99326044D01*
X135611253Y-99321134D01*
X135485818Y-99230000D01*
X135462094Y-99212763D01*
X135462093Y-99212762D01*
X135456752Y-99208882D01*
X135450724Y-99206198D01*
X135450722Y-99206197D01*
X135288319Y-99133891D01*
X135288318Y-99133891D01*
X135282288Y-99131206D01*
X135188888Y-99111353D01*
X135101944Y-99092872D01*
X135101939Y-99092872D01*
X135095487Y-99091500D01*
X134904513Y-99091500D01*
X134898061Y-99092872D01*
X134898056Y-99092872D01*
X134811112Y-99111353D01*
X134717712Y-99131206D01*
X134711682Y-99133891D01*
X134711681Y-99133891D01*
X134549278Y-99206197D01*
X134549276Y-99206198D01*
X134543248Y-99208882D01*
X134537907Y-99212762D01*
X134537906Y-99212763D01*
X134514182Y-99230000D01*
X134388747Y-99321134D01*
X134384326Y-99326044D01*
X134384325Y-99326045D01*
X134299793Y-99419928D01*
X134260960Y-99463056D01*
X134165473Y-99628444D01*
X134106458Y-99810072D01*
X134105768Y-99816633D01*
X134105768Y-99816635D01*
X134088476Y-99981161D01*
X134086496Y-100000000D01*
X126913504Y-100000000D01*
X126911524Y-99981161D01*
X126894232Y-99816635D01*
X126894232Y-99816633D01*
X126893542Y-99810072D01*
X126834527Y-99628444D01*
X126739040Y-99463056D01*
X126700208Y-99419928D01*
X126615675Y-99326045D01*
X126615674Y-99326044D01*
X126611253Y-99321134D01*
X126485818Y-99230000D01*
X126462094Y-99212763D01*
X126462093Y-99212762D01*
X126456752Y-99208882D01*
X126450724Y-99206198D01*
X126450722Y-99206197D01*
X126288319Y-99133891D01*
X126288318Y-99133891D01*
X126282288Y-99131206D01*
X126188888Y-99111353D01*
X126101944Y-99092872D01*
X126101939Y-99092872D01*
X126095487Y-99091500D01*
X125904513Y-99091500D01*
X125898061Y-99092872D01*
X125898056Y-99092872D01*
X125811112Y-99111353D01*
X125717712Y-99131206D01*
X125711682Y-99133891D01*
X125711681Y-99133891D01*
X125549278Y-99206197D01*
X125549276Y-99206198D01*
X125543248Y-99208882D01*
X125537907Y-99212762D01*
X125537906Y-99212763D01*
X125514182Y-99230000D01*
X125388747Y-99321134D01*
X125384326Y-99326044D01*
X125384325Y-99326045D01*
X125299793Y-99419928D01*
X125260960Y-99463056D01*
X125165473Y-99628444D01*
X125106458Y-99810072D01*
X125105768Y-99816633D01*
X125105768Y-99816635D01*
X125088476Y-99981161D01*
X125086496Y-100000000D01*
X122454975Y-100000000D01*
X122565435Y-99846277D01*
X122568453Y-99842077D01*
X122571880Y-99835144D01*
X122665136Y-99646453D01*
X122665137Y-99646451D01*
X122667430Y-99641811D01*
X122732370Y-99428069D01*
X122761529Y-99206590D01*
X122763156Y-99140000D01*
X122744852Y-98917361D01*
X122690431Y-98700702D01*
X122601354Y-98495840D01*
X122561906Y-98434862D01*
X122482822Y-98312617D01*
X122482820Y-98312614D01*
X122480014Y-98308277D01*
X122329670Y-98143051D01*
X122325619Y-98139852D01*
X122325615Y-98139848D01*
X122158414Y-98007800D01*
X122158410Y-98007798D01*
X122154359Y-98004598D01*
X122113053Y-97981796D01*
X122063084Y-97931364D01*
X122048312Y-97861921D01*
X122073428Y-97795516D01*
X122100780Y-97768909D01*
X122174070Y-97716632D01*
X122279860Y-97641173D01*
X122438096Y-97483489D01*
X122568453Y-97302077D01*
X122571880Y-97295144D01*
X122665136Y-97106453D01*
X122665137Y-97106451D01*
X122667430Y-97101811D01*
X122726163Y-96908500D01*
X122730865Y-96893023D01*
X122730865Y-96893021D01*
X122732370Y-96888069D01*
X122761529Y-96666590D01*
X122763156Y-96600000D01*
X122744852Y-96377361D01*
X122690431Y-96160702D01*
X122620555Y-96000000D01*
X134086496Y-96000000D01*
X134087186Y-96006565D01*
X134103914Y-96165720D01*
X134106458Y-96189928D01*
X134165473Y-96371556D01*
X134168776Y-96377278D01*
X134168777Y-96377279D01*
X134171804Y-96382522D01*
X134260960Y-96536944D01*
X134388747Y-96678866D01*
X134543248Y-96791118D01*
X134549276Y-96793802D01*
X134549278Y-96793803D01*
X134711681Y-96866109D01*
X134717712Y-96868794D01*
X134784259Y-96882939D01*
X134898056Y-96907128D01*
X134898061Y-96907128D01*
X134904513Y-96908500D01*
X135095487Y-96908500D01*
X135101939Y-96907128D01*
X135101944Y-96907128D01*
X135215741Y-96882939D01*
X135282288Y-96868794D01*
X135288319Y-96866109D01*
X135450722Y-96793803D01*
X135450724Y-96793802D01*
X135456752Y-96791118D01*
X135611253Y-96678866D01*
X135739040Y-96536944D01*
X135828196Y-96382522D01*
X135831223Y-96377279D01*
X135831224Y-96377278D01*
X135834527Y-96371556D01*
X135893542Y-96189928D01*
X135896087Y-96165720D01*
X135912814Y-96006565D01*
X135913504Y-96000000D01*
X139086496Y-96000000D01*
X139087186Y-96006565D01*
X139103914Y-96165720D01*
X139106458Y-96189928D01*
X139165473Y-96371556D01*
X139168776Y-96377278D01*
X139168777Y-96377279D01*
X139171804Y-96382522D01*
X139260960Y-96536944D01*
X139388747Y-96678866D01*
X139543248Y-96791118D01*
X139549276Y-96793802D01*
X139549278Y-96793803D01*
X139711681Y-96866109D01*
X139717712Y-96868794D01*
X139784259Y-96882939D01*
X139898056Y-96907128D01*
X139898061Y-96907128D01*
X139904513Y-96908500D01*
X140095487Y-96908500D01*
X140101939Y-96907128D01*
X140101944Y-96907128D01*
X140215741Y-96882939D01*
X140282288Y-96868794D01*
X140288319Y-96866109D01*
X140450722Y-96793803D01*
X140450724Y-96793802D01*
X140456752Y-96791118D01*
X140611253Y-96678866D01*
X140739040Y-96536944D01*
X140828196Y-96382522D01*
X140831223Y-96377279D01*
X140831224Y-96377278D01*
X140834527Y-96371556D01*
X140893542Y-96189928D01*
X140896087Y-96165720D01*
X140912814Y-96006565D01*
X140913504Y-96000000D01*
X144086496Y-96000000D01*
X144087186Y-96006565D01*
X144103914Y-96165720D01*
X144106458Y-96189928D01*
X144165473Y-96371556D01*
X144168776Y-96377278D01*
X144168777Y-96377279D01*
X144171804Y-96382522D01*
X144260960Y-96536944D01*
X144388747Y-96678866D01*
X144543248Y-96791118D01*
X144549276Y-96793802D01*
X144549278Y-96793803D01*
X144711681Y-96866109D01*
X144717712Y-96868794D01*
X144784259Y-96882939D01*
X144898056Y-96907128D01*
X144898061Y-96907128D01*
X144904513Y-96908500D01*
X145095487Y-96908500D01*
X145101939Y-96907128D01*
X145101944Y-96907128D01*
X145215741Y-96882939D01*
X145282288Y-96868794D01*
X145288319Y-96866109D01*
X145450722Y-96793803D01*
X145450724Y-96793802D01*
X145456752Y-96791118D01*
X145611253Y-96678866D01*
X145739040Y-96536944D01*
X145828196Y-96382522D01*
X145831223Y-96377279D01*
X145831224Y-96377278D01*
X145834527Y-96371556D01*
X145893542Y-96189928D01*
X145896087Y-96165720D01*
X145912814Y-96006565D01*
X145913504Y-96000000D01*
X145907450Y-95942401D01*
X145894232Y-95816635D01*
X145894232Y-95816633D01*
X145893542Y-95810072D01*
X145834527Y-95628444D01*
X145818472Y-95600635D01*
X145797314Y-95563990D01*
X145739040Y-95463056D01*
X145719899Y-95441797D01*
X145615675Y-95326045D01*
X145615674Y-95326044D01*
X145611253Y-95321134D01*
X145456752Y-95208882D01*
X145450724Y-95206198D01*
X145450722Y-95206197D01*
X145288319Y-95133891D01*
X145288318Y-95133891D01*
X145282288Y-95131206D01*
X145188888Y-95111353D01*
X145101944Y-95092872D01*
X145101939Y-95092872D01*
X145095487Y-95091500D01*
X144904513Y-95091500D01*
X144898061Y-95092872D01*
X144898056Y-95092872D01*
X144811112Y-95111353D01*
X144717712Y-95131206D01*
X144711682Y-95133891D01*
X144711681Y-95133891D01*
X144549278Y-95206197D01*
X144549276Y-95206198D01*
X144543248Y-95208882D01*
X144388747Y-95321134D01*
X144384326Y-95326044D01*
X144384325Y-95326045D01*
X144280102Y-95441797D01*
X144260960Y-95463056D01*
X144202686Y-95563990D01*
X144181529Y-95600635D01*
X144165473Y-95628444D01*
X144106458Y-95810072D01*
X144105768Y-95816633D01*
X144105768Y-95816635D01*
X144092550Y-95942401D01*
X144086496Y-96000000D01*
X140913504Y-96000000D01*
X140907450Y-95942401D01*
X140894232Y-95816635D01*
X140894232Y-95816633D01*
X140893542Y-95810072D01*
X140834527Y-95628444D01*
X140818472Y-95600635D01*
X140797314Y-95563990D01*
X140739040Y-95463056D01*
X140719899Y-95441797D01*
X140615675Y-95326045D01*
X140615674Y-95326044D01*
X140611253Y-95321134D01*
X140456752Y-95208882D01*
X140450724Y-95206198D01*
X140450722Y-95206197D01*
X140288319Y-95133891D01*
X140288318Y-95133891D01*
X140282288Y-95131206D01*
X140188888Y-95111353D01*
X140101944Y-95092872D01*
X140101939Y-95092872D01*
X140095487Y-95091500D01*
X139904513Y-95091500D01*
X139898061Y-95092872D01*
X139898056Y-95092872D01*
X139811112Y-95111353D01*
X139717712Y-95131206D01*
X139711682Y-95133891D01*
X139711681Y-95133891D01*
X139549278Y-95206197D01*
X139549276Y-95206198D01*
X139543248Y-95208882D01*
X139388747Y-95321134D01*
X139384326Y-95326044D01*
X139384325Y-95326045D01*
X139280102Y-95441797D01*
X139260960Y-95463056D01*
X139202686Y-95563990D01*
X139181529Y-95600635D01*
X139165473Y-95628444D01*
X139106458Y-95810072D01*
X139105768Y-95816633D01*
X139105768Y-95816635D01*
X139092550Y-95942401D01*
X139086496Y-96000000D01*
X135913504Y-96000000D01*
X135907450Y-95942401D01*
X135894232Y-95816635D01*
X135894232Y-95816633D01*
X135893542Y-95810072D01*
X135834527Y-95628444D01*
X135818472Y-95600635D01*
X135797314Y-95563990D01*
X135739040Y-95463056D01*
X135719899Y-95441797D01*
X135615675Y-95326045D01*
X135615674Y-95326044D01*
X135611253Y-95321134D01*
X135456752Y-95208882D01*
X135450724Y-95206198D01*
X135450722Y-95206197D01*
X135288319Y-95133891D01*
X135288318Y-95133891D01*
X135282288Y-95131206D01*
X135188888Y-95111353D01*
X135101944Y-95092872D01*
X135101939Y-95092872D01*
X135095487Y-95091500D01*
X134904513Y-95091500D01*
X134898061Y-95092872D01*
X134898056Y-95092872D01*
X134811112Y-95111353D01*
X134717712Y-95131206D01*
X134711682Y-95133891D01*
X134711681Y-95133891D01*
X134549278Y-95206197D01*
X134549276Y-95206198D01*
X134543248Y-95208882D01*
X134388747Y-95321134D01*
X134384326Y-95326044D01*
X134384325Y-95326045D01*
X134280102Y-95441797D01*
X134260960Y-95463056D01*
X134202686Y-95563990D01*
X134181529Y-95600635D01*
X134165473Y-95628444D01*
X134106458Y-95810072D01*
X134105768Y-95816633D01*
X134105768Y-95816635D01*
X134092550Y-95942401D01*
X134086496Y-96000000D01*
X122620555Y-96000000D01*
X122601354Y-95955840D01*
X122547972Y-95873324D01*
X122482822Y-95772617D01*
X122482820Y-95772614D01*
X122480014Y-95768277D01*
X122329670Y-95603051D01*
X122325619Y-95599852D01*
X122325615Y-95599848D01*
X122158414Y-95467800D01*
X122158410Y-95467798D01*
X122154449Y-95464669D01*
X124022001Y-95464669D01*
X124022371Y-95471490D01*
X124027895Y-95522352D01*
X124031521Y-95537604D01*
X124076676Y-95658054D01*
X124085214Y-95673649D01*
X124161715Y-95775724D01*
X124174276Y-95788285D01*
X124276351Y-95864786D01*
X124291946Y-95873324D01*
X124412394Y-95918478D01*
X124427649Y-95922105D01*
X124478514Y-95927631D01*
X124485328Y-95928000D01*
X125107885Y-95928000D01*
X125123124Y-95923525D01*
X125124329Y-95922135D01*
X125126000Y-95914452D01*
X125126000Y-95909884D01*
X125634000Y-95909884D01*
X125638475Y-95925123D01*
X125639865Y-95926328D01*
X125647548Y-95927999D01*
X126274669Y-95927999D01*
X126281490Y-95927629D01*
X126332352Y-95922105D01*
X126347604Y-95918479D01*
X126468054Y-95873324D01*
X126483649Y-95864786D01*
X126585724Y-95788285D01*
X126598285Y-95775724D01*
X126674786Y-95673649D01*
X126683324Y-95658054D01*
X126728478Y-95537606D01*
X126732105Y-95522351D01*
X126737631Y-95471486D01*
X126738000Y-95464672D01*
X126738000Y-94842115D01*
X126733525Y-94826876D01*
X126732135Y-94825671D01*
X126724452Y-94824000D01*
X125652115Y-94824000D01*
X125636876Y-94828475D01*
X125635671Y-94829865D01*
X125634000Y-94837548D01*
X125634000Y-95909884D01*
X125126000Y-95909884D01*
X125126000Y-94842115D01*
X125121525Y-94826876D01*
X125120135Y-94825671D01*
X125112452Y-94824000D01*
X124040116Y-94824000D01*
X124024877Y-94828475D01*
X124023672Y-94829865D01*
X124022001Y-94837548D01*
X124022001Y-95464669D01*
X122154449Y-95464669D01*
X122154359Y-95464598D01*
X122113053Y-95441796D01*
X122063084Y-95391364D01*
X122048312Y-95321921D01*
X122073428Y-95255516D01*
X122100780Y-95228909D01*
X122174070Y-95176632D01*
X122279860Y-95101173D01*
X122322683Y-95058500D01*
X122418026Y-94963489D01*
X122438096Y-94943489D01*
X122442589Y-94937237D01*
X122565435Y-94766277D01*
X122568453Y-94762077D01*
X122571880Y-94755144D01*
X122665136Y-94566453D01*
X122665137Y-94566451D01*
X122667430Y-94561811D01*
X122732370Y-94348069D01*
X122761529Y-94126590D01*
X122763156Y-94060000D01*
X122744852Y-93837361D01*
X122690431Y-93620702D01*
X122601354Y-93415840D01*
X122520120Y-93290271D01*
X122482822Y-93232617D01*
X122482820Y-93232614D01*
X122480014Y-93228277D01*
X122329670Y-93063051D01*
X122325619Y-93059852D01*
X122325615Y-93059848D01*
X122158414Y-92927800D01*
X122158410Y-92927798D01*
X122154359Y-92924598D01*
X122113053Y-92901796D01*
X122063084Y-92851364D01*
X122048312Y-92781921D01*
X122073428Y-92715516D01*
X122100780Y-92688909D01*
X122199065Y-92618803D01*
X122279860Y-92561173D01*
X122438096Y-92403489D01*
X122452713Y-92383148D01*
X122565435Y-92226277D01*
X122568453Y-92222077D01*
X122571880Y-92215144D01*
X122656317Y-92044297D01*
X122704430Y-91992090D01*
X122773132Y-91974183D01*
X122840608Y-91996261D01*
X122885436Y-92051315D01*
X122894584Y-92086953D01*
X122904136Y-92177832D01*
X122906458Y-92199928D01*
X122965473Y-92381556D01*
X123060960Y-92546944D01*
X123065378Y-92551851D01*
X123065379Y-92551852D01*
X123159723Y-92656632D01*
X123188747Y-92688866D01*
X123265608Y-92744709D01*
X123326809Y-92789174D01*
X123343248Y-92801118D01*
X123349276Y-92803802D01*
X123349278Y-92803803D01*
X123511681Y-92876109D01*
X123517712Y-92878794D01*
X123611113Y-92898647D01*
X123698056Y-92917128D01*
X123698061Y-92917128D01*
X123704513Y-92918500D01*
X123895487Y-92918500D01*
X123901939Y-92917128D01*
X123901944Y-92917128D01*
X123988887Y-92898647D01*
X124082288Y-92878794D01*
X124093712Y-92873708D01*
X124128489Y-92858224D01*
X124166955Y-92841098D01*
X124237321Y-92831664D01*
X124301618Y-92861770D01*
X124313440Y-92873708D01*
X124422860Y-93000025D01*
X124426250Y-93003938D01*
X124430225Y-93007238D01*
X124430231Y-93007244D01*
X124435425Y-93011556D01*
X124475059Y-93070460D01*
X124476555Y-93141441D01*
X124439439Y-93201962D01*
X124399168Y-93226480D01*
X124291946Y-93266676D01*
X124276351Y-93275214D01*
X124174276Y-93351715D01*
X124161715Y-93364276D01*
X124085214Y-93466351D01*
X124076676Y-93481946D01*
X124031522Y-93602394D01*
X124027895Y-93617649D01*
X124022369Y-93668514D01*
X124022000Y-93675328D01*
X124022000Y-94297885D01*
X124026475Y-94313124D01*
X124027865Y-94314329D01*
X124035548Y-94316000D01*
X126719884Y-94316000D01*
X126735123Y-94311525D01*
X126736328Y-94310135D01*
X126737999Y-94302452D01*
X126737999Y-93675331D01*
X126737629Y-93668510D01*
X126732105Y-93617648D01*
X126728479Y-93602396D01*
X126683324Y-93481946D01*
X126674786Y-93466351D01*
X126598285Y-93364276D01*
X126585724Y-93351715D01*
X126483649Y-93275214D01*
X126468054Y-93266676D01*
X126357813Y-93225348D01*
X126301049Y-93182706D01*
X126276349Y-93116145D01*
X126291557Y-93046796D01*
X126313104Y-93018115D01*
X126414430Y-92917144D01*
X126414444Y-92917128D01*
X126418096Y-92913489D01*
X126446682Y-92873708D01*
X126545435Y-92736277D01*
X126548453Y-92732077D01*
X126553609Y-92721646D01*
X126645136Y-92536453D01*
X126645137Y-92536451D01*
X126647430Y-92531811D01*
X126686417Y-92403489D01*
X126710865Y-92323023D01*
X126710865Y-92323021D01*
X126712370Y-92318069D01*
X126741529Y-92096590D01*
X126741705Y-92089377D01*
X126743074Y-92033365D01*
X126743074Y-92033361D01*
X126743156Y-92030000D01*
X126740690Y-92000000D01*
X134086496Y-92000000D01*
X134087186Y-92006565D01*
X134105187Y-92177832D01*
X134106458Y-92189928D01*
X134165473Y-92371556D01*
X134168776Y-92377278D01*
X134168777Y-92377279D01*
X134186016Y-92407137D01*
X134260960Y-92536944D01*
X134265378Y-92541851D01*
X134265379Y-92541852D01*
X134368727Y-92656632D01*
X134388747Y-92678866D01*
X134462056Y-92732128D01*
X134526385Y-92778866D01*
X134543248Y-92791118D01*
X134549276Y-92793802D01*
X134549278Y-92793803D01*
X134702551Y-92862044D01*
X134717712Y-92868794D01*
X134801807Y-92886669D01*
X134898056Y-92907128D01*
X134898061Y-92907128D01*
X134904513Y-92908500D01*
X135095487Y-92908500D01*
X135101939Y-92907128D01*
X135101944Y-92907128D01*
X135198193Y-92886669D01*
X135282288Y-92868794D01*
X135297449Y-92862044D01*
X135450722Y-92793803D01*
X135450724Y-92793802D01*
X135456752Y-92791118D01*
X135473616Y-92778866D01*
X135537944Y-92732128D01*
X135611253Y-92678866D01*
X135631273Y-92656632D01*
X135734621Y-92541852D01*
X135734622Y-92541851D01*
X135739040Y-92536944D01*
X135813984Y-92407137D01*
X135831223Y-92377279D01*
X135831224Y-92377278D01*
X135834527Y-92371556D01*
X135893542Y-92189928D01*
X135894814Y-92177832D01*
X135912814Y-92006565D01*
X135913504Y-92000000D01*
X139086496Y-92000000D01*
X139087186Y-92006565D01*
X139105187Y-92177832D01*
X139106458Y-92189928D01*
X139165473Y-92371556D01*
X139168776Y-92377278D01*
X139168777Y-92377279D01*
X139186016Y-92407137D01*
X139260960Y-92536944D01*
X139265378Y-92541851D01*
X139265379Y-92541852D01*
X139368727Y-92656632D01*
X139388747Y-92678866D01*
X139462056Y-92732128D01*
X139526385Y-92778866D01*
X139543248Y-92791118D01*
X139549276Y-92793802D01*
X139549278Y-92793803D01*
X139702551Y-92862044D01*
X139717712Y-92868794D01*
X139801807Y-92886669D01*
X139898056Y-92907128D01*
X139898061Y-92907128D01*
X139904513Y-92908500D01*
X140095487Y-92908500D01*
X140101939Y-92907128D01*
X140101944Y-92907128D01*
X140198193Y-92886669D01*
X140282288Y-92868794D01*
X140297449Y-92862044D01*
X140450722Y-92793803D01*
X140450724Y-92793802D01*
X140456752Y-92791118D01*
X140473616Y-92778866D01*
X140537944Y-92732128D01*
X140611253Y-92678866D01*
X140631273Y-92656632D01*
X140734621Y-92541852D01*
X140734622Y-92541851D01*
X140739040Y-92536944D01*
X140813984Y-92407137D01*
X140831223Y-92377279D01*
X140831224Y-92377278D01*
X140834527Y-92371556D01*
X140893542Y-92189928D01*
X140894814Y-92177832D01*
X140912814Y-92006565D01*
X140913504Y-92000000D01*
X144086496Y-92000000D01*
X144087186Y-92006565D01*
X144105187Y-92177832D01*
X144106458Y-92189928D01*
X144165473Y-92371556D01*
X144168776Y-92377278D01*
X144168777Y-92377279D01*
X144186016Y-92407137D01*
X144260960Y-92536944D01*
X144265378Y-92541851D01*
X144265379Y-92541852D01*
X144368727Y-92656632D01*
X144388747Y-92678866D01*
X144462056Y-92732128D01*
X144526385Y-92778866D01*
X144543248Y-92791118D01*
X144549276Y-92793802D01*
X144549278Y-92793803D01*
X144702551Y-92862044D01*
X144717712Y-92868794D01*
X144801807Y-92886669D01*
X144898056Y-92907128D01*
X144898061Y-92907128D01*
X144904513Y-92908500D01*
X145095487Y-92908500D01*
X145101939Y-92907128D01*
X145101944Y-92907128D01*
X145198193Y-92886669D01*
X145282288Y-92868794D01*
X145297449Y-92862044D01*
X145450722Y-92793803D01*
X145450724Y-92793802D01*
X145456752Y-92791118D01*
X145473616Y-92778866D01*
X145537944Y-92732128D01*
X145611253Y-92678866D01*
X145631273Y-92656632D01*
X145734621Y-92541852D01*
X145734622Y-92541851D01*
X145739040Y-92536944D01*
X145813984Y-92407137D01*
X145831223Y-92377279D01*
X145831224Y-92377278D01*
X145834527Y-92371556D01*
X145893542Y-92189928D01*
X145894814Y-92177832D01*
X145912814Y-92006565D01*
X145913504Y-92000000D01*
X145907471Y-91942596D01*
X145895111Y-91825000D01*
X149836496Y-91825000D01*
X149837186Y-91831564D01*
X149837186Y-91831565D01*
X149854058Y-91992090D01*
X149856458Y-92014928D01*
X149915473Y-92196556D01*
X149918776Y-92202278D01*
X149918777Y-92202279D01*
X149932632Y-92226277D01*
X150010960Y-92361944D01*
X150015378Y-92366851D01*
X150015379Y-92366852D01*
X150024768Y-92377279D01*
X150138747Y-92503866D01*
X150215636Y-92559729D01*
X150273613Y-92601852D01*
X150293248Y-92616118D01*
X150299276Y-92618802D01*
X150299278Y-92618803D01*
X150434183Y-92678866D01*
X150467712Y-92693794D01*
X150548170Y-92710896D01*
X150648056Y-92732128D01*
X150648061Y-92732128D01*
X150654513Y-92733500D01*
X150845487Y-92733500D01*
X150851948Y-92732127D01*
X150853752Y-92731937D01*
X150923591Y-92744709D01*
X150975438Y-92793211D01*
X150992832Y-92862044D01*
X150992234Y-92870410D01*
X150986496Y-92925000D01*
X150987186Y-92931565D01*
X151003108Y-93083051D01*
X151006458Y-93114928D01*
X151065473Y-93296556D01*
X151160960Y-93461944D01*
X151165378Y-93466851D01*
X151165379Y-93466852D01*
X151277528Y-93591406D01*
X151288747Y-93603866D01*
X151443248Y-93716118D01*
X151449276Y-93718802D01*
X151449278Y-93718803D01*
X151611681Y-93791109D01*
X151617712Y-93793794D01*
X151711112Y-93813647D01*
X151798056Y-93832128D01*
X151798061Y-93832128D01*
X151804513Y-93833500D01*
X151995487Y-93833500D01*
X152001939Y-93832128D01*
X152001944Y-93832128D01*
X152088888Y-93813647D01*
X152182288Y-93793794D01*
X152188319Y-93791109D01*
X152350722Y-93718803D01*
X152350724Y-93718802D01*
X152356752Y-93716118D01*
X152511253Y-93603866D01*
X152522472Y-93591406D01*
X152634621Y-93466852D01*
X152634622Y-93466851D01*
X152639040Y-93461944D01*
X152734527Y-93296556D01*
X152793542Y-93114928D01*
X152796893Y-93083051D01*
X152812814Y-92931565D01*
X152813504Y-92925000D01*
X152802629Y-92821533D01*
X152794232Y-92741635D01*
X152794232Y-92741633D01*
X152793542Y-92735072D01*
X152734527Y-92553444D01*
X152727835Y-92541852D01*
X152694989Y-92484962D01*
X152639040Y-92388056D01*
X152633188Y-92381556D01*
X152541746Y-92280000D01*
X155086496Y-92280000D01*
X155087186Y-92286565D01*
X155102993Y-92436956D01*
X155106458Y-92469928D01*
X155165473Y-92651556D01*
X155168776Y-92657278D01*
X155168777Y-92657279D01*
X155189256Y-92692749D01*
X155260960Y-92816944D01*
X155265378Y-92821851D01*
X155265379Y-92821852D01*
X155362905Y-92930166D01*
X155388747Y-92958866D01*
X155543248Y-93071118D01*
X155549276Y-93073802D01*
X155549278Y-93073803D01*
X155711681Y-93146109D01*
X155717712Y-93148794D01*
X155811112Y-93168647D01*
X155898056Y-93187128D01*
X155898061Y-93187128D01*
X155904513Y-93188500D01*
X156095487Y-93188500D01*
X156101939Y-93187128D01*
X156101944Y-93187128D01*
X156188888Y-93168647D01*
X156282288Y-93148794D01*
X156288319Y-93146109D01*
X156450722Y-93073803D01*
X156450724Y-93073802D01*
X156456752Y-93071118D01*
X156611253Y-92958866D01*
X156637095Y-92930166D01*
X156734621Y-92821852D01*
X156734622Y-92821851D01*
X156739040Y-92816944D01*
X156810744Y-92692749D01*
X156831223Y-92657279D01*
X156831224Y-92657278D01*
X156834527Y-92651556D01*
X156880167Y-92511090D01*
X156920241Y-92452486D01*
X156985637Y-92424849D01*
X157055594Y-92436956D01*
X157107900Y-92484962D01*
X157119832Y-92511089D01*
X157165473Y-92651556D01*
X157168776Y-92657278D01*
X157168777Y-92657279D01*
X157189256Y-92692749D01*
X157260960Y-92816944D01*
X157265378Y-92821851D01*
X157265379Y-92821852D01*
X157362905Y-92930166D01*
X157388747Y-92958866D01*
X157543248Y-93071118D01*
X157549276Y-93073802D01*
X157549278Y-93073803D01*
X157711681Y-93146109D01*
X157717712Y-93148794D01*
X157811112Y-93168647D01*
X157898056Y-93187128D01*
X157898061Y-93187128D01*
X157904513Y-93188500D01*
X158095487Y-93188500D01*
X158101939Y-93187128D01*
X158101944Y-93187128D01*
X158188888Y-93168647D01*
X158282288Y-93148794D01*
X158288319Y-93146109D01*
X158450722Y-93073803D01*
X158450724Y-93073802D01*
X158456752Y-93071118D01*
X158611253Y-92958866D01*
X158637095Y-92930166D01*
X158734621Y-92821852D01*
X158734622Y-92821851D01*
X158739040Y-92816944D01*
X158810744Y-92692749D01*
X158831223Y-92657279D01*
X158831224Y-92657278D01*
X158834527Y-92651556D01*
X158893542Y-92469928D01*
X158897008Y-92436956D01*
X158912814Y-92286565D01*
X158913504Y-92280000D01*
X161366496Y-92280000D01*
X161367186Y-92286565D01*
X161382993Y-92436956D01*
X161386458Y-92469928D01*
X161445473Y-92651556D01*
X161448776Y-92657278D01*
X161448777Y-92657279D01*
X161469256Y-92692749D01*
X161540960Y-92816944D01*
X161545378Y-92821851D01*
X161545379Y-92821852D01*
X161642905Y-92930166D01*
X161668747Y-92958866D01*
X161823248Y-93071118D01*
X161829276Y-93073802D01*
X161829278Y-93073803D01*
X161991681Y-93146109D01*
X161997712Y-93148794D01*
X162091112Y-93168647D01*
X162178056Y-93187128D01*
X162178061Y-93187128D01*
X162184513Y-93188500D01*
X162375487Y-93188500D01*
X162381939Y-93187128D01*
X162381944Y-93187128D01*
X162468888Y-93168647D01*
X162562288Y-93148794D01*
X162568319Y-93146109D01*
X162730722Y-93073803D01*
X162730724Y-93073802D01*
X162736752Y-93071118D01*
X162891253Y-92958866D01*
X162917095Y-92930166D01*
X163014621Y-92821852D01*
X163014622Y-92821851D01*
X163019040Y-92816944D01*
X163090744Y-92692749D01*
X163111223Y-92657279D01*
X163111224Y-92657278D01*
X163114527Y-92651556D01*
X163173542Y-92469928D01*
X163177008Y-92436956D01*
X163192814Y-92286565D01*
X163193504Y-92280000D01*
X163190106Y-92247671D01*
X163202878Y-92177832D01*
X163251380Y-92125985D01*
X163315416Y-92108500D01*
X163475487Y-92108500D01*
X163481939Y-92107128D01*
X163481944Y-92107128D01*
X163588261Y-92084529D01*
X163662288Y-92068794D01*
X163684531Y-92058891D01*
X163830722Y-91993803D01*
X163830724Y-91993802D01*
X163836752Y-91991118D01*
X163890008Y-91952425D01*
X163965939Y-91897258D01*
X164032807Y-91873399D01*
X164101958Y-91889480D01*
X164114061Y-91897258D01*
X164189992Y-91952425D01*
X164243248Y-91991118D01*
X164249276Y-91993802D01*
X164249278Y-91993803D01*
X164395469Y-92058891D01*
X164417712Y-92068794D01*
X164491739Y-92084529D01*
X164598056Y-92107128D01*
X164598061Y-92107128D01*
X164604513Y-92108500D01*
X164795487Y-92108500D01*
X164801939Y-92107128D01*
X164801944Y-92107128D01*
X164963681Y-92072749D01*
X164982288Y-92068794D01*
X164988324Y-92066107D01*
X164994598Y-92064068D01*
X164995520Y-92066905D01*
X165053060Y-92059228D01*
X165117337Y-92089377D01*
X165155111Y-92149491D01*
X165159170Y-92170585D01*
X165166458Y-92239928D01*
X165225473Y-92421556D01*
X165228776Y-92427278D01*
X165228777Y-92427279D01*
X165234364Y-92436956D01*
X165320960Y-92586944D01*
X165325378Y-92591851D01*
X165325379Y-92591852D01*
X165440351Y-92719541D01*
X165448747Y-92728866D01*
X165531712Y-92789144D01*
X165590236Y-92831664D01*
X165603248Y-92841118D01*
X165609276Y-92843802D01*
X165609278Y-92843803D01*
X165771681Y-92916109D01*
X165777712Y-92918794D01*
X165871113Y-92938647D01*
X165958056Y-92957128D01*
X165958061Y-92957128D01*
X165964513Y-92958500D01*
X166155487Y-92958500D01*
X166161939Y-92957128D01*
X166161944Y-92957128D01*
X166248887Y-92938647D01*
X166342288Y-92918794D01*
X166348319Y-92916109D01*
X166510722Y-92843803D01*
X166510724Y-92843802D01*
X166516752Y-92841118D01*
X166525052Y-92835088D01*
X166660939Y-92736360D01*
X166727807Y-92712501D01*
X166796958Y-92728582D01*
X166809061Y-92736360D01*
X166944948Y-92835088D01*
X166953248Y-92841118D01*
X166959276Y-92843802D01*
X166959278Y-92843803D01*
X167121681Y-92916109D01*
X167127712Y-92918794D01*
X167221113Y-92938647D01*
X167308056Y-92957128D01*
X167308061Y-92957128D01*
X167314513Y-92958500D01*
X167505487Y-92958500D01*
X167511939Y-92957128D01*
X167511944Y-92957128D01*
X167598887Y-92938647D01*
X167692288Y-92918794D01*
X167698319Y-92916109D01*
X167860722Y-92843803D01*
X167860724Y-92843802D01*
X167866752Y-92841118D01*
X167879765Y-92831664D01*
X167938288Y-92789144D01*
X168021253Y-92728866D01*
X168025675Y-92723954D01*
X168030577Y-92719541D01*
X168032472Y-92721646D01*
X168082340Y-92690941D01*
X168153324Y-92692312D01*
X168209132Y-92728187D01*
X168218747Y-92738866D01*
X168302756Y-92799902D01*
X168359457Y-92841098D01*
X168373248Y-92851118D01*
X168379276Y-92853802D01*
X168379278Y-92853803D01*
X168539190Y-92925000D01*
X168547712Y-92928794D01*
X168622064Y-92944598D01*
X168728056Y-92967128D01*
X168728061Y-92967128D01*
X168734513Y-92968500D01*
X168925487Y-92968500D01*
X168931939Y-92967128D01*
X168931944Y-92967128D01*
X169037936Y-92944598D01*
X169112288Y-92928794D01*
X169120810Y-92925000D01*
X169280722Y-92853803D01*
X169280724Y-92853802D01*
X169286752Y-92851118D01*
X169300544Y-92841098D01*
X169422906Y-92752196D01*
X169489774Y-92728338D01*
X169558925Y-92744418D01*
X169590604Y-92769822D01*
X169598747Y-92778866D01*
X169604089Y-92782747D01*
X169604091Y-92782749D01*
X169747906Y-92887237D01*
X169753248Y-92891118D01*
X169759276Y-92893802D01*
X169759278Y-92893803D01*
X169921681Y-92966109D01*
X169927712Y-92968794D01*
X170021112Y-92988647D01*
X170108056Y-93007128D01*
X170108061Y-93007128D01*
X170114513Y-93008500D01*
X170305487Y-93008500D01*
X170311939Y-93007128D01*
X170311944Y-93007128D01*
X170398888Y-92988647D01*
X170492288Y-92968794D01*
X170498319Y-92966109D01*
X170660722Y-92893803D01*
X170660724Y-92893802D01*
X170666752Y-92891118D01*
X170693900Y-92871394D01*
X170760765Y-92847537D01*
X170819207Y-92858224D01*
X170971677Y-92926108D01*
X170971685Y-92926111D01*
X170977712Y-92928794D01*
X171052064Y-92944598D01*
X171158056Y-92967128D01*
X171158061Y-92967128D01*
X171164513Y-92968500D01*
X171355487Y-92968500D01*
X171361939Y-92967128D01*
X171361944Y-92967128D01*
X171467936Y-92944598D01*
X171542288Y-92928794D01*
X171550810Y-92925000D01*
X171710722Y-92853803D01*
X171710724Y-92853802D01*
X171716752Y-92851118D01*
X171730544Y-92841098D01*
X171787244Y-92799902D01*
X171871253Y-92738866D01*
X171880513Y-92728582D01*
X171994621Y-92601852D01*
X171994622Y-92601851D01*
X171999040Y-92596944D01*
X172094527Y-92431556D01*
X172108496Y-92388564D01*
X172148569Y-92329958D01*
X172213965Y-92302320D01*
X172254524Y-92304252D01*
X172268051Y-92307127D01*
X172268056Y-92307128D01*
X172274513Y-92308500D01*
X172465487Y-92308500D01*
X172471939Y-92307128D01*
X172471944Y-92307128D01*
X172568682Y-92286565D01*
X172652288Y-92268794D01*
X172674749Y-92258794D01*
X172747783Y-92226277D01*
X172799982Y-92203037D01*
X172870348Y-92193603D01*
X172902479Y-92203037D01*
X173001209Y-92246994D01*
X173027712Y-92258794D01*
X173096597Y-92273436D01*
X173208056Y-92297128D01*
X173208061Y-92297128D01*
X173214513Y-92298500D01*
X173405487Y-92298500D01*
X173411939Y-92297128D01*
X173411944Y-92297128D01*
X173523403Y-92273436D01*
X173592288Y-92258794D01*
X173617271Y-92247671D01*
X173760722Y-92183803D01*
X173760724Y-92183802D01*
X173766752Y-92181118D01*
X173809818Y-92149829D01*
X173830020Y-92135151D01*
X173921253Y-92068866D01*
X173932652Y-92056206D01*
X174044621Y-91931852D01*
X174044622Y-91931851D01*
X174049040Y-91926944D01*
X174144527Y-91761556D01*
X174203542Y-91579928D01*
X174213394Y-91486197D01*
X174222814Y-91396565D01*
X174223504Y-91390000D01*
X174221113Y-91367251D01*
X174204232Y-91206635D01*
X174204232Y-91206633D01*
X174203542Y-91200072D01*
X174144527Y-91018444D01*
X174140019Y-91010635D01*
X174107314Y-90953990D01*
X174049040Y-90853056D01*
X174036941Y-90839618D01*
X173925675Y-90716045D01*
X173925674Y-90716044D01*
X173921253Y-90711134D01*
X173786882Y-90613507D01*
X173772094Y-90602763D01*
X173772093Y-90602762D01*
X173766752Y-90598882D01*
X173760724Y-90596198D01*
X173760722Y-90596197D01*
X173598319Y-90523891D01*
X173598318Y-90523891D01*
X173592288Y-90521206D01*
X173498888Y-90501353D01*
X173411944Y-90482872D01*
X173411939Y-90482872D01*
X173405487Y-90481500D01*
X173214513Y-90481500D01*
X173208061Y-90482872D01*
X173208056Y-90482872D01*
X173121113Y-90501353D01*
X173027712Y-90521206D01*
X173021682Y-90523891D01*
X173021681Y-90523891D01*
X172880019Y-90586963D01*
X172809652Y-90596397D01*
X172777521Y-90586963D01*
X172658319Y-90533891D01*
X172658318Y-90533891D01*
X172652288Y-90531206D01*
X172554969Y-90510520D01*
X172471944Y-90492872D01*
X172471939Y-90492872D01*
X172465487Y-90491500D01*
X172274513Y-90491500D01*
X172268061Y-90492872D01*
X172268056Y-90492872D01*
X172185031Y-90510520D01*
X172087712Y-90531206D01*
X172081682Y-90533891D01*
X172081681Y-90533891D01*
X171919278Y-90606197D01*
X171919276Y-90606198D01*
X171913248Y-90608882D01*
X171758747Y-90721134D01*
X171754326Y-90726044D01*
X171754325Y-90726045D01*
X171652064Y-90839618D01*
X171630960Y-90863056D01*
X171614189Y-90892104D01*
X171541247Y-91018444D01*
X171535473Y-91028444D01*
X171533431Y-91034729D01*
X171533430Y-91034731D01*
X171521504Y-91071436D01*
X171481431Y-91130042D01*
X171416035Y-91157680D01*
X171375476Y-91155748D01*
X171361949Y-91152873D01*
X171361944Y-91152872D01*
X171355487Y-91151500D01*
X171164513Y-91151500D01*
X171158061Y-91152872D01*
X171158056Y-91152872D01*
X171071112Y-91171353D01*
X170977712Y-91191206D01*
X170971682Y-91193891D01*
X170971681Y-91193891D01*
X170809278Y-91266197D01*
X170809276Y-91266198D01*
X170803248Y-91268882D01*
X170776100Y-91288606D01*
X170709235Y-91312463D01*
X170650793Y-91301776D01*
X170498323Y-91233892D01*
X170498315Y-91233889D01*
X170492288Y-91231206D01*
X170398888Y-91211353D01*
X170311944Y-91192872D01*
X170311939Y-91192872D01*
X170305487Y-91191500D01*
X170114513Y-91191500D01*
X170108061Y-91192872D01*
X170108056Y-91192872D01*
X170021112Y-91211353D01*
X169927712Y-91231206D01*
X169921682Y-91233891D01*
X169921681Y-91233891D01*
X169759278Y-91306197D01*
X169759276Y-91306198D01*
X169753248Y-91308882D01*
X169747907Y-91312762D01*
X169747906Y-91312763D01*
X169617094Y-91407804D01*
X169550226Y-91431662D01*
X169481075Y-91415582D01*
X169449395Y-91390177D01*
X169445671Y-91386041D01*
X169441253Y-91381134D01*
X169434245Y-91376042D01*
X169292094Y-91272763D01*
X169292093Y-91272762D01*
X169286752Y-91268882D01*
X169280724Y-91266198D01*
X169280722Y-91266197D01*
X169118319Y-91193891D01*
X169118318Y-91193891D01*
X169112288Y-91191206D01*
X169018888Y-91171353D01*
X168931944Y-91152872D01*
X168931939Y-91152872D01*
X168925487Y-91151500D01*
X168734513Y-91151500D01*
X168728061Y-91152872D01*
X168728056Y-91152872D01*
X168641112Y-91171353D01*
X168547712Y-91191206D01*
X168541682Y-91193891D01*
X168541681Y-91193891D01*
X168379278Y-91266197D01*
X168379276Y-91266198D01*
X168373248Y-91268882D01*
X168367907Y-91272762D01*
X168367906Y-91272763D01*
X168318193Y-91308882D01*
X168218747Y-91381134D01*
X168214325Y-91386046D01*
X168209423Y-91390459D01*
X168207528Y-91388354D01*
X168157660Y-91419059D01*
X168086676Y-91417688D01*
X168030867Y-91381812D01*
X168030579Y-91381492D01*
X168021253Y-91371134D01*
X167895251Y-91279588D01*
X167872094Y-91262763D01*
X167872093Y-91262762D01*
X167866752Y-91258882D01*
X167860724Y-91256198D01*
X167860722Y-91256197D01*
X167698319Y-91183891D01*
X167698318Y-91183891D01*
X167692288Y-91181206D01*
X167595453Y-91160623D01*
X167511944Y-91142872D01*
X167511939Y-91142872D01*
X167505487Y-91141500D01*
X167314513Y-91141500D01*
X167308061Y-91142872D01*
X167308056Y-91142872D01*
X167224547Y-91160623D01*
X167127712Y-91181206D01*
X167121682Y-91183891D01*
X167121681Y-91183891D01*
X166959278Y-91256197D01*
X166959276Y-91256198D01*
X166953248Y-91258882D01*
X166947907Y-91262762D01*
X166947906Y-91262763D01*
X166809061Y-91363640D01*
X166742193Y-91387499D01*
X166673042Y-91371418D01*
X166660939Y-91363640D01*
X166522094Y-91262763D01*
X166522093Y-91262762D01*
X166516752Y-91258882D01*
X166510724Y-91256198D01*
X166510722Y-91256197D01*
X166348319Y-91183891D01*
X166348318Y-91183891D01*
X166342288Y-91181206D01*
X166245453Y-91160623D01*
X166161944Y-91142872D01*
X166161939Y-91142872D01*
X166155487Y-91141500D01*
X165964513Y-91141500D01*
X165958061Y-91142872D01*
X165958056Y-91142872D01*
X165873996Y-91160740D01*
X165777712Y-91181206D01*
X165771676Y-91183893D01*
X165765402Y-91185932D01*
X165764480Y-91183095D01*
X165706940Y-91190772D01*
X165642663Y-91160623D01*
X165604889Y-91100509D01*
X165600830Y-91079414D01*
X165594232Y-91016634D01*
X165594231Y-91016631D01*
X165593542Y-91010072D01*
X165534527Y-90828444D01*
X165530440Y-90821364D01*
X165471534Y-90719338D01*
X165439040Y-90663056D01*
X165322740Y-90533891D01*
X165315675Y-90526045D01*
X165315674Y-90526044D01*
X165311253Y-90521134D01*
X165156752Y-90408882D01*
X165150724Y-90406198D01*
X165150722Y-90406197D01*
X164988319Y-90333891D01*
X164988318Y-90333891D01*
X164982288Y-90331206D01*
X164888887Y-90311353D01*
X164801944Y-90292872D01*
X164801939Y-90292872D01*
X164795487Y-90291500D01*
X164604513Y-90291500D01*
X164598061Y-90292872D01*
X164598056Y-90292872D01*
X164511113Y-90311353D01*
X164417712Y-90331206D01*
X164411682Y-90333891D01*
X164411681Y-90333891D01*
X164249278Y-90406197D01*
X164249276Y-90406198D01*
X164243248Y-90408882D01*
X164237907Y-90412762D01*
X164237906Y-90412763D01*
X164114061Y-90502742D01*
X164047193Y-90526601D01*
X163978042Y-90510520D01*
X163965939Y-90502742D01*
X163842094Y-90412763D01*
X163842093Y-90412762D01*
X163836752Y-90408882D01*
X163830724Y-90406198D01*
X163830722Y-90406197D01*
X163668319Y-90333891D01*
X163668318Y-90333891D01*
X163662288Y-90331206D01*
X163568887Y-90311353D01*
X163481944Y-90292872D01*
X163481939Y-90292872D01*
X163475487Y-90291500D01*
X163284513Y-90291500D01*
X163278061Y-90292872D01*
X163278056Y-90292872D01*
X163191113Y-90311353D01*
X163097712Y-90331206D01*
X163091682Y-90333891D01*
X163091681Y-90333891D01*
X162929278Y-90406197D01*
X162929276Y-90406198D01*
X162923248Y-90408882D01*
X162768747Y-90521134D01*
X162764326Y-90526044D01*
X162764325Y-90526045D01*
X162757261Y-90533891D01*
X162640960Y-90663056D01*
X162608466Y-90719338D01*
X162549561Y-90821364D01*
X162545473Y-90828444D01*
X162486458Y-91010072D01*
X162485768Y-91016633D01*
X162485768Y-91016635D01*
X162468471Y-91181206D01*
X162466496Y-91200000D01*
X162468889Y-91222763D01*
X162469894Y-91232329D01*
X162457122Y-91302168D01*
X162408620Y-91354015D01*
X162344584Y-91371500D01*
X162184513Y-91371500D01*
X162178061Y-91372872D01*
X162178056Y-91372872D01*
X162097478Y-91390000D01*
X161997712Y-91411206D01*
X161991682Y-91413891D01*
X161991681Y-91413891D01*
X161829278Y-91486197D01*
X161829276Y-91486198D01*
X161823248Y-91488882D01*
X161817907Y-91492762D01*
X161817906Y-91492763D01*
X161791634Y-91511851D01*
X161668747Y-91601134D01*
X161664326Y-91606044D01*
X161664325Y-91606045D01*
X161557626Y-91724547D01*
X161540960Y-91743056D01*
X161503425Y-91808069D01*
X161462137Y-91879582D01*
X161445473Y-91908444D01*
X161386458Y-92090072D01*
X161385768Y-92096633D01*
X161385768Y-92096635D01*
X161370382Y-92243028D01*
X161366496Y-92280000D01*
X158913504Y-92280000D01*
X158909618Y-92243028D01*
X158894232Y-92096635D01*
X158894232Y-92096633D01*
X158893542Y-92090072D01*
X158834527Y-91908444D01*
X158817864Y-91879582D01*
X158776575Y-91808069D01*
X158739040Y-91743056D01*
X158722375Y-91724547D01*
X158615675Y-91606045D01*
X158615674Y-91606044D01*
X158611253Y-91601134D01*
X158488366Y-91511851D01*
X158462094Y-91492763D01*
X158462093Y-91492762D01*
X158456752Y-91488882D01*
X158450724Y-91486198D01*
X158450722Y-91486197D01*
X158288319Y-91413891D01*
X158288318Y-91413891D01*
X158282288Y-91411206D01*
X158182522Y-91390000D01*
X158101944Y-91372872D01*
X158101939Y-91372872D01*
X158095487Y-91371500D01*
X157904513Y-91371500D01*
X157898061Y-91372872D01*
X157898056Y-91372872D01*
X157817478Y-91390000D01*
X157717712Y-91411206D01*
X157711682Y-91413891D01*
X157711681Y-91413891D01*
X157549278Y-91486197D01*
X157549276Y-91486198D01*
X157543248Y-91488882D01*
X157537907Y-91492762D01*
X157537906Y-91492763D01*
X157511634Y-91511851D01*
X157388747Y-91601134D01*
X157384326Y-91606044D01*
X157384325Y-91606045D01*
X157277626Y-91724547D01*
X157260960Y-91743056D01*
X157223425Y-91808069D01*
X157182137Y-91879582D01*
X157165473Y-91908444D01*
X157121332Y-92044297D01*
X157119833Y-92048909D01*
X157079759Y-92107514D01*
X157014363Y-92135151D01*
X156944406Y-92123044D01*
X156892100Y-92075038D01*
X156880167Y-92048909D01*
X156878669Y-92044297D01*
X156834527Y-91908444D01*
X156817864Y-91879582D01*
X156776575Y-91808069D01*
X156739040Y-91743056D01*
X156722375Y-91724547D01*
X156615675Y-91606045D01*
X156615674Y-91606044D01*
X156611253Y-91601134D01*
X156488366Y-91511851D01*
X156462094Y-91492763D01*
X156462093Y-91492762D01*
X156456752Y-91488882D01*
X156450724Y-91486198D01*
X156450722Y-91486197D01*
X156288319Y-91413891D01*
X156288318Y-91413891D01*
X156282288Y-91411206D01*
X156182522Y-91390000D01*
X156101944Y-91372872D01*
X156101939Y-91372872D01*
X156095487Y-91371500D01*
X155904513Y-91371500D01*
X155898061Y-91372872D01*
X155898056Y-91372872D01*
X155817478Y-91390000D01*
X155717712Y-91411206D01*
X155711682Y-91413891D01*
X155711681Y-91413891D01*
X155549278Y-91486197D01*
X155549276Y-91486198D01*
X155543248Y-91488882D01*
X155537907Y-91492762D01*
X155537906Y-91492763D01*
X155511634Y-91511851D01*
X155388747Y-91601134D01*
X155384326Y-91606044D01*
X155384325Y-91606045D01*
X155277626Y-91724547D01*
X155260960Y-91743056D01*
X155223425Y-91808069D01*
X155182137Y-91879582D01*
X155165473Y-91908444D01*
X155106458Y-92090072D01*
X155105768Y-92096633D01*
X155105768Y-92096635D01*
X155090382Y-92243028D01*
X155086496Y-92280000D01*
X152541746Y-92280000D01*
X152515675Y-92251045D01*
X152515674Y-92251044D01*
X152511253Y-92246134D01*
X152356752Y-92133882D01*
X152350724Y-92131198D01*
X152350722Y-92131197D01*
X152188319Y-92058891D01*
X152188318Y-92058891D01*
X152182288Y-92056206D01*
X152088888Y-92036353D01*
X152001944Y-92017872D01*
X152001939Y-92017872D01*
X151995487Y-92016500D01*
X151804513Y-92016500D01*
X151798052Y-92017873D01*
X151796248Y-92018063D01*
X151726409Y-92005291D01*
X151674562Y-91956789D01*
X151657168Y-91887956D01*
X151657767Y-91879582D01*
X151657843Y-91878866D01*
X151663504Y-91825000D01*
X151656175Y-91755271D01*
X151644232Y-91641635D01*
X151644232Y-91641633D01*
X151643542Y-91635072D01*
X151584527Y-91453444D01*
X151489040Y-91288056D01*
X151481416Y-91279588D01*
X151365675Y-91151045D01*
X151365674Y-91151044D01*
X151361253Y-91146134D01*
X151206752Y-91033882D01*
X151200724Y-91031198D01*
X151200722Y-91031197D01*
X151038319Y-90958891D01*
X151038318Y-90958891D01*
X151032288Y-90956206D01*
X150938888Y-90936353D01*
X150851944Y-90917872D01*
X150851939Y-90917872D01*
X150845487Y-90916500D01*
X150654513Y-90916500D01*
X150648061Y-90917872D01*
X150648056Y-90917872D01*
X150561113Y-90936353D01*
X150467712Y-90956206D01*
X150461682Y-90958891D01*
X150461681Y-90958891D01*
X150299278Y-91031197D01*
X150299276Y-91031198D01*
X150293248Y-91033882D01*
X150138747Y-91146134D01*
X150134326Y-91151044D01*
X150134325Y-91151045D01*
X150018585Y-91279588D01*
X150010960Y-91288056D01*
X149915473Y-91453444D01*
X149856458Y-91635072D01*
X149855768Y-91641633D01*
X149855768Y-91641635D01*
X149843825Y-91755271D01*
X149836496Y-91825000D01*
X145895111Y-91825000D01*
X145894232Y-91816635D01*
X145894232Y-91816633D01*
X145893542Y-91810072D01*
X145834527Y-91628444D01*
X145807657Y-91581903D01*
X145756191Y-91492763D01*
X145739040Y-91463056D01*
X145730386Y-91453444D01*
X145615675Y-91326045D01*
X145615674Y-91326044D01*
X145611253Y-91321134D01*
X145485590Y-91229834D01*
X145462094Y-91212763D01*
X145462093Y-91212762D01*
X145456752Y-91208882D01*
X145450724Y-91206198D01*
X145450722Y-91206197D01*
X145288319Y-91133891D01*
X145288318Y-91133891D01*
X145282288Y-91131206D01*
X145188888Y-91111353D01*
X145101944Y-91092872D01*
X145101939Y-91092872D01*
X145095487Y-91091500D01*
X144904513Y-91091500D01*
X144898061Y-91092872D01*
X144898056Y-91092872D01*
X144811112Y-91111353D01*
X144717712Y-91131206D01*
X144711682Y-91133891D01*
X144711681Y-91133891D01*
X144549278Y-91206197D01*
X144549276Y-91206198D01*
X144543248Y-91208882D01*
X144537907Y-91212762D01*
X144537906Y-91212763D01*
X144514410Y-91229834D01*
X144388747Y-91321134D01*
X144384326Y-91326044D01*
X144384325Y-91326045D01*
X144269615Y-91453444D01*
X144260960Y-91463056D01*
X144243809Y-91492763D01*
X144192344Y-91581903D01*
X144165473Y-91628444D01*
X144106458Y-91810072D01*
X144105768Y-91816633D01*
X144105768Y-91816635D01*
X144092529Y-91942596D01*
X144086496Y-92000000D01*
X140913504Y-92000000D01*
X140907471Y-91942596D01*
X140894232Y-91816635D01*
X140894232Y-91816633D01*
X140893542Y-91810072D01*
X140834527Y-91628444D01*
X140807657Y-91581903D01*
X140756191Y-91492763D01*
X140739040Y-91463056D01*
X140730386Y-91453444D01*
X140615675Y-91326045D01*
X140615674Y-91326044D01*
X140611253Y-91321134D01*
X140485590Y-91229834D01*
X140462094Y-91212763D01*
X140462093Y-91212762D01*
X140456752Y-91208882D01*
X140450724Y-91206198D01*
X140450722Y-91206197D01*
X140288319Y-91133891D01*
X140288318Y-91133891D01*
X140282288Y-91131206D01*
X140188888Y-91111353D01*
X140101944Y-91092872D01*
X140101939Y-91092872D01*
X140095487Y-91091500D01*
X139904513Y-91091500D01*
X139898061Y-91092872D01*
X139898056Y-91092872D01*
X139811112Y-91111353D01*
X139717712Y-91131206D01*
X139711682Y-91133891D01*
X139711681Y-91133891D01*
X139549278Y-91206197D01*
X139549276Y-91206198D01*
X139543248Y-91208882D01*
X139537907Y-91212762D01*
X139537906Y-91212763D01*
X139514410Y-91229834D01*
X139388747Y-91321134D01*
X139384326Y-91326044D01*
X139384325Y-91326045D01*
X139269615Y-91453444D01*
X139260960Y-91463056D01*
X139243809Y-91492763D01*
X139192344Y-91581903D01*
X139165473Y-91628444D01*
X139106458Y-91810072D01*
X139105768Y-91816633D01*
X139105768Y-91816635D01*
X139092529Y-91942596D01*
X139086496Y-92000000D01*
X135913504Y-92000000D01*
X135907471Y-91942596D01*
X135894232Y-91816635D01*
X135894232Y-91816633D01*
X135893542Y-91810072D01*
X135834527Y-91628444D01*
X135807657Y-91581903D01*
X135756191Y-91492763D01*
X135739040Y-91463056D01*
X135730386Y-91453444D01*
X135615675Y-91326045D01*
X135615674Y-91326044D01*
X135611253Y-91321134D01*
X135485590Y-91229834D01*
X135462094Y-91212763D01*
X135462093Y-91212762D01*
X135456752Y-91208882D01*
X135450724Y-91206198D01*
X135450722Y-91206197D01*
X135288319Y-91133891D01*
X135288318Y-91133891D01*
X135282288Y-91131206D01*
X135188888Y-91111353D01*
X135101944Y-91092872D01*
X135101939Y-91092872D01*
X135095487Y-91091500D01*
X134904513Y-91091500D01*
X134898061Y-91092872D01*
X134898056Y-91092872D01*
X134811112Y-91111353D01*
X134717712Y-91131206D01*
X134711682Y-91133891D01*
X134711681Y-91133891D01*
X134549278Y-91206197D01*
X134549276Y-91206198D01*
X134543248Y-91208882D01*
X134537907Y-91212762D01*
X134537906Y-91212763D01*
X134514410Y-91229834D01*
X134388747Y-91321134D01*
X134384326Y-91326044D01*
X134384325Y-91326045D01*
X134269615Y-91453444D01*
X134260960Y-91463056D01*
X134243809Y-91492763D01*
X134192344Y-91581903D01*
X134165473Y-91628444D01*
X134106458Y-91810072D01*
X134105768Y-91816633D01*
X134105768Y-91816635D01*
X134092529Y-91942596D01*
X134086496Y-92000000D01*
X126740690Y-92000000D01*
X126724852Y-91807361D01*
X126670431Y-91590702D01*
X126581354Y-91385840D01*
X126518095Y-91288056D01*
X126462822Y-91202617D01*
X126462820Y-91202614D01*
X126460014Y-91198277D01*
X126309670Y-91033051D01*
X126305619Y-91029852D01*
X126305615Y-91029848D01*
X126138414Y-90897800D01*
X126138410Y-90897798D01*
X126134359Y-90894598D01*
X126093053Y-90871796D01*
X126043084Y-90821364D01*
X126028312Y-90751921D01*
X126053428Y-90685516D01*
X126080780Y-90658909D01*
X126145474Y-90612763D01*
X126259860Y-90531173D01*
X126267168Y-90523891D01*
X126341209Y-90450107D01*
X126418096Y-90373489D01*
X126460033Y-90315128D01*
X126545435Y-90196277D01*
X126548453Y-90192077D01*
X126558922Y-90170896D01*
X126645136Y-89996453D01*
X126645137Y-89996451D01*
X126647430Y-89991811D01*
X126686417Y-89863489D01*
X126710865Y-89783023D01*
X126710865Y-89783021D01*
X126712370Y-89778069D01*
X126741529Y-89556590D01*
X126742149Y-89531226D01*
X126743074Y-89493365D01*
X126743074Y-89493361D01*
X126743156Y-89490000D01*
X126724852Y-89267361D01*
X126670431Y-89050702D01*
X126581354Y-88845840D01*
X126519163Y-88749707D01*
X126462822Y-88662617D01*
X126462820Y-88662614D01*
X126460014Y-88658277D01*
X126309670Y-88493051D01*
X126305619Y-88489852D01*
X126305615Y-88489848D01*
X126138414Y-88357800D01*
X126138410Y-88357798D01*
X126134359Y-88354598D01*
X126093053Y-88331796D01*
X126043084Y-88281364D01*
X126028312Y-88211921D01*
X126053428Y-88145516D01*
X126061154Y-88138000D01*
X133706496Y-88138000D01*
X133707186Y-88144565D01*
X133723483Y-88299618D01*
X133726458Y-88327928D01*
X133785473Y-88509556D01*
X133880960Y-88674944D01*
X133885378Y-88679851D01*
X133885379Y-88679852D01*
X133959815Y-88762522D01*
X134008747Y-88816866D01*
X134163248Y-88929118D01*
X134169276Y-88931802D01*
X134169278Y-88931803D01*
X134269998Y-88976646D01*
X134337712Y-89006794D01*
X134420057Y-89024297D01*
X134518056Y-89045128D01*
X134518061Y-89045128D01*
X134524513Y-89046500D01*
X134715487Y-89046500D01*
X134721939Y-89045128D01*
X134721944Y-89045128D01*
X134863716Y-89014993D01*
X134934507Y-89020395D01*
X134991139Y-89063212D01*
X135015633Y-89129850D01*
X135009746Y-89177176D01*
X134996458Y-89218072D01*
X134995768Y-89224633D01*
X134995768Y-89224635D01*
X134991203Y-89268069D01*
X134976496Y-89408000D01*
X134996458Y-89597928D01*
X135055473Y-89779556D01*
X135058776Y-89785278D01*
X135058777Y-89785279D01*
X135067674Y-89800689D01*
X135150960Y-89944944D01*
X135155378Y-89949851D01*
X135155379Y-89949852D01*
X135193159Y-89991811D01*
X135278747Y-90086866D01*
X135433248Y-90199118D01*
X135439276Y-90201802D01*
X135439278Y-90201803D01*
X135590597Y-90269174D01*
X135607712Y-90276794D01*
X135683353Y-90292872D01*
X135788056Y-90315128D01*
X135788061Y-90315128D01*
X135794513Y-90316500D01*
X135985487Y-90316500D01*
X135991939Y-90315128D01*
X135991944Y-90315128D01*
X136096647Y-90292872D01*
X136172288Y-90276794D01*
X136189403Y-90269174D01*
X136340722Y-90201803D01*
X136340724Y-90201802D01*
X136346752Y-90199118D01*
X136501253Y-90086866D01*
X136586841Y-89991811D01*
X136624621Y-89949852D01*
X136624622Y-89949851D01*
X136629040Y-89944944D01*
X136712326Y-89800689D01*
X136721223Y-89785279D01*
X136721224Y-89785278D01*
X136724527Y-89779556D01*
X136783542Y-89597928D01*
X136803504Y-89408000D01*
X136788797Y-89268069D01*
X136784232Y-89224635D01*
X136784232Y-89224633D01*
X136783542Y-89218072D01*
X136724527Y-89036444D01*
X136629040Y-88871056D01*
X136610613Y-88850590D01*
X136505675Y-88734045D01*
X136505674Y-88734044D01*
X136501253Y-88729134D01*
X136362666Y-88628444D01*
X136352094Y-88620763D01*
X136352093Y-88620762D01*
X136346752Y-88616882D01*
X136340724Y-88614198D01*
X136340722Y-88614197D01*
X136178319Y-88541891D01*
X136178318Y-88541891D01*
X136172288Y-88539206D01*
X136059721Y-88515279D01*
X135991944Y-88500872D01*
X135991939Y-88500872D01*
X135985487Y-88499500D01*
X135794513Y-88499500D01*
X135788061Y-88500872D01*
X135788056Y-88500872D01*
X135646284Y-88531007D01*
X135575493Y-88525605D01*
X135518861Y-88482788D01*
X135499458Y-88430000D01*
X155166496Y-88430000D01*
X155167186Y-88436565D01*
X155178659Y-88545720D01*
X155186458Y-88619928D01*
X155245473Y-88801556D01*
X155248776Y-88807278D01*
X155248777Y-88807279D01*
X155268530Y-88841492D01*
X155340960Y-88966944D01*
X155345378Y-88971851D01*
X155345379Y-88971852D01*
X155415661Y-89049908D01*
X155468747Y-89108866D01*
X155497629Y-89129850D01*
X155610415Y-89211794D01*
X155623248Y-89221118D01*
X155629276Y-89223802D01*
X155629278Y-89223803D01*
X155739829Y-89273023D01*
X155797712Y-89298794D01*
X155891113Y-89318647D01*
X155978056Y-89337128D01*
X155978061Y-89337128D01*
X155984513Y-89338500D01*
X156175487Y-89338500D01*
X156181939Y-89337128D01*
X156181944Y-89337128D01*
X156268887Y-89318647D01*
X156362288Y-89298794D01*
X156420171Y-89273023D01*
X156530722Y-89223803D01*
X156530724Y-89223802D01*
X156536752Y-89221118D01*
X156549586Y-89211794D01*
X156662371Y-89129850D01*
X156691253Y-89108866D01*
X156744339Y-89049908D01*
X156789276Y-89000000D01*
X162086496Y-89000000D01*
X162087186Y-89006565D01*
X162100144Y-89129850D01*
X162106458Y-89189928D01*
X162165473Y-89371556D01*
X162168776Y-89377278D01*
X162168777Y-89377279D01*
X162186514Y-89408000D01*
X162260960Y-89536944D01*
X162265378Y-89541851D01*
X162265379Y-89541852D01*
X162371631Y-89659857D01*
X162388747Y-89678866D01*
X162420694Y-89702077D01*
X162525288Y-89778069D01*
X162543248Y-89791118D01*
X162549276Y-89793802D01*
X162549278Y-89793803D01*
X162711681Y-89866109D01*
X162717712Y-89868794D01*
X162804009Y-89887137D01*
X162898056Y-89907128D01*
X162898061Y-89907128D01*
X162904513Y-89908500D01*
X163095487Y-89908500D01*
X163101939Y-89907128D01*
X163101944Y-89907128D01*
X163195991Y-89887137D01*
X163282288Y-89868794D01*
X163288319Y-89866109D01*
X163450722Y-89793803D01*
X163450724Y-89793802D01*
X163456752Y-89791118D01*
X163474713Y-89778069D01*
X163579306Y-89702077D01*
X163611253Y-89678866D01*
X163628369Y-89659857D01*
X163734621Y-89541852D01*
X163734622Y-89541851D01*
X163739040Y-89536944D01*
X163813486Y-89408000D01*
X163831223Y-89377279D01*
X163831224Y-89377278D01*
X163834527Y-89371556D01*
X163893542Y-89189928D01*
X163899857Y-89129850D01*
X163912814Y-89006565D01*
X163913504Y-89000000D01*
X166086496Y-89000000D01*
X166087186Y-89006565D01*
X166100144Y-89129850D01*
X166106458Y-89189928D01*
X166165473Y-89371556D01*
X166168776Y-89377278D01*
X166168777Y-89377279D01*
X166186514Y-89408000D01*
X166260960Y-89536944D01*
X166265378Y-89541851D01*
X166265379Y-89541852D01*
X166371631Y-89659857D01*
X166388747Y-89678866D01*
X166420694Y-89702077D01*
X166525288Y-89778069D01*
X166543248Y-89791118D01*
X166549276Y-89793802D01*
X166549278Y-89793803D01*
X166711681Y-89866109D01*
X166717712Y-89868794D01*
X166804009Y-89887137D01*
X166898056Y-89907128D01*
X166898061Y-89907128D01*
X166904513Y-89908500D01*
X167095487Y-89908500D01*
X167101939Y-89907128D01*
X167101944Y-89907128D01*
X167195991Y-89887137D01*
X167282288Y-89868794D01*
X167288319Y-89866109D01*
X167450722Y-89793803D01*
X167450724Y-89793802D01*
X167456752Y-89791118D01*
X167474713Y-89778069D01*
X167579306Y-89702077D01*
X167611253Y-89678866D01*
X167628369Y-89659857D01*
X167734621Y-89541852D01*
X167734622Y-89541851D01*
X167739040Y-89536944D01*
X167813486Y-89408000D01*
X167831223Y-89377279D01*
X167831224Y-89377278D01*
X167834527Y-89371556D01*
X167893542Y-89189928D01*
X167899857Y-89129850D01*
X167912814Y-89006565D01*
X167913504Y-89000000D01*
X167897301Y-88845840D01*
X167894232Y-88816635D01*
X167894232Y-88816633D01*
X167893542Y-88810072D01*
X167834527Y-88628444D01*
X167830093Y-88620763D01*
X167786766Y-88545720D01*
X167739040Y-88463056D01*
X167715188Y-88436565D01*
X167615675Y-88326045D01*
X167615674Y-88326044D01*
X167611253Y-88321134D01*
X167470918Y-88219174D01*
X167462094Y-88212763D01*
X167462093Y-88212762D01*
X167456752Y-88208882D01*
X167450724Y-88206198D01*
X167450722Y-88206197D01*
X167288319Y-88133891D01*
X167288318Y-88133891D01*
X167282288Y-88131206D01*
X167180057Y-88109476D01*
X167101944Y-88092872D01*
X167101939Y-88092872D01*
X167095487Y-88091500D01*
X166904513Y-88091500D01*
X166898061Y-88092872D01*
X166898056Y-88092872D01*
X166819943Y-88109476D01*
X166717712Y-88131206D01*
X166711682Y-88133891D01*
X166711681Y-88133891D01*
X166549278Y-88206197D01*
X166549276Y-88206198D01*
X166543248Y-88208882D01*
X166537907Y-88212762D01*
X166537906Y-88212763D01*
X166529082Y-88219174D01*
X166388747Y-88321134D01*
X166384326Y-88326044D01*
X166384325Y-88326045D01*
X166284813Y-88436565D01*
X166260960Y-88463056D01*
X166213234Y-88545720D01*
X166169908Y-88620763D01*
X166165473Y-88628444D01*
X166106458Y-88810072D01*
X166105768Y-88816633D01*
X166105768Y-88816635D01*
X166102699Y-88845840D01*
X166086496Y-89000000D01*
X163913504Y-89000000D01*
X163897301Y-88845840D01*
X163894232Y-88816635D01*
X163894232Y-88816633D01*
X163893542Y-88810072D01*
X163834527Y-88628444D01*
X163830093Y-88620763D01*
X163786766Y-88545720D01*
X163739040Y-88463056D01*
X163715188Y-88436565D01*
X163615675Y-88326045D01*
X163615674Y-88326044D01*
X163611253Y-88321134D01*
X163470918Y-88219174D01*
X163462094Y-88212763D01*
X163462093Y-88212762D01*
X163456752Y-88208882D01*
X163450724Y-88206198D01*
X163450722Y-88206197D01*
X163288319Y-88133891D01*
X163288318Y-88133891D01*
X163282288Y-88131206D01*
X163180057Y-88109476D01*
X163101944Y-88092872D01*
X163101939Y-88092872D01*
X163095487Y-88091500D01*
X162904513Y-88091500D01*
X162898061Y-88092872D01*
X162898056Y-88092872D01*
X162819943Y-88109476D01*
X162717712Y-88131206D01*
X162711682Y-88133891D01*
X162711681Y-88133891D01*
X162549278Y-88206197D01*
X162549276Y-88206198D01*
X162543248Y-88208882D01*
X162537907Y-88212762D01*
X162537906Y-88212763D01*
X162529082Y-88219174D01*
X162388747Y-88321134D01*
X162384326Y-88326044D01*
X162384325Y-88326045D01*
X162284813Y-88436565D01*
X162260960Y-88463056D01*
X162213234Y-88545720D01*
X162169908Y-88620763D01*
X162165473Y-88628444D01*
X162106458Y-88810072D01*
X162105768Y-88816633D01*
X162105768Y-88816635D01*
X162102699Y-88845840D01*
X162086496Y-89000000D01*
X156789276Y-89000000D01*
X156814621Y-88971852D01*
X156814622Y-88971851D01*
X156819040Y-88966944D01*
X156891470Y-88841492D01*
X156911223Y-88807279D01*
X156911224Y-88807278D01*
X156914527Y-88801556D01*
X156973542Y-88619928D01*
X156981342Y-88545720D01*
X156992814Y-88436565D01*
X156993504Y-88430000D01*
X156985317Y-88352104D01*
X156974232Y-88246635D01*
X156974232Y-88246633D01*
X156973542Y-88240072D01*
X156914527Y-88058444D01*
X156819040Y-87893056D01*
X156796300Y-87867800D01*
X156695675Y-87756045D01*
X156695674Y-87756044D01*
X156691253Y-87751134D01*
X156591635Y-87678757D01*
X156542094Y-87642763D01*
X156542093Y-87642762D01*
X156536752Y-87638882D01*
X156530724Y-87636198D01*
X156530722Y-87636197D01*
X156368319Y-87563891D01*
X156368318Y-87563891D01*
X156362288Y-87561206D01*
X156268887Y-87541353D01*
X156181944Y-87522872D01*
X156181939Y-87522872D01*
X156175487Y-87521500D01*
X155984513Y-87521500D01*
X155978061Y-87522872D01*
X155978056Y-87522872D01*
X155891112Y-87541353D01*
X155797712Y-87561206D01*
X155791682Y-87563891D01*
X155791681Y-87563891D01*
X155629278Y-87636197D01*
X155629276Y-87636198D01*
X155623248Y-87638882D01*
X155617907Y-87642762D01*
X155617906Y-87642763D01*
X155568365Y-87678757D01*
X155468747Y-87751134D01*
X155464326Y-87756044D01*
X155464325Y-87756045D01*
X155363701Y-87867800D01*
X155340960Y-87893056D01*
X155245473Y-88058444D01*
X155186458Y-88240072D01*
X155185768Y-88246633D01*
X155185768Y-88246635D01*
X155174683Y-88352104D01*
X155166496Y-88430000D01*
X135499458Y-88430000D01*
X135494367Y-88416150D01*
X135500254Y-88368824D01*
X135509428Y-88340590D01*
X135513542Y-88327928D01*
X135516518Y-88299618D01*
X135532814Y-88144565D01*
X135533504Y-88138000D01*
X135525656Y-88063327D01*
X135514232Y-87954635D01*
X135514232Y-87954633D01*
X135513542Y-87948072D01*
X135454527Y-87766444D01*
X135450224Y-87758990D01*
X135408408Y-87686564D01*
X135359040Y-87601056D01*
X135354183Y-87595661D01*
X135235675Y-87464045D01*
X135235674Y-87464044D01*
X135231253Y-87459134D01*
X135076752Y-87346882D01*
X135070724Y-87344198D01*
X135070722Y-87344197D01*
X134908319Y-87271891D01*
X134908318Y-87271891D01*
X134902288Y-87269206D01*
X134798702Y-87247188D01*
X134721944Y-87230872D01*
X134721939Y-87230872D01*
X134715487Y-87229500D01*
X134524513Y-87229500D01*
X134518061Y-87230872D01*
X134518056Y-87230872D01*
X134441298Y-87247188D01*
X134337712Y-87269206D01*
X134331682Y-87271891D01*
X134331681Y-87271891D01*
X134169278Y-87344197D01*
X134169276Y-87344198D01*
X134163248Y-87346882D01*
X134008747Y-87459134D01*
X134004326Y-87464044D01*
X134004325Y-87464045D01*
X133885818Y-87595661D01*
X133880960Y-87601056D01*
X133831592Y-87686564D01*
X133789777Y-87758990D01*
X133785473Y-87766444D01*
X133726458Y-87948072D01*
X133725768Y-87954633D01*
X133725768Y-87954635D01*
X133714344Y-88063327D01*
X133706496Y-88138000D01*
X126061154Y-88138000D01*
X126080780Y-88118909D01*
X126124603Y-88087650D01*
X126259860Y-87991173D01*
X126268011Y-87983051D01*
X126389381Y-87862104D01*
X126418096Y-87833489D01*
X126466273Y-87766444D01*
X126545435Y-87656277D01*
X126548453Y-87652077D01*
X126553057Y-87642763D01*
X126645136Y-87456453D01*
X126645137Y-87456451D01*
X126647430Y-87451811D01*
X126686417Y-87323489D01*
X126710865Y-87243023D01*
X126710865Y-87243021D01*
X126712370Y-87238069D01*
X126741529Y-87016590D01*
X126741931Y-87000144D01*
X126743074Y-86953365D01*
X126743074Y-86953361D01*
X126743156Y-86950000D01*
X126724852Y-86727361D01*
X126670431Y-86510702D01*
X126581354Y-86305840D01*
X126517175Y-86206635D01*
X126462822Y-86122617D01*
X126462820Y-86122614D01*
X126460014Y-86118277D01*
X126352390Y-86000000D01*
X134086496Y-86000000D01*
X134087186Y-86006565D01*
X134103955Y-86166109D01*
X134106458Y-86189928D01*
X134165473Y-86371556D01*
X134168776Y-86377278D01*
X134168777Y-86377279D01*
X134176122Y-86390000D01*
X134260960Y-86536944D01*
X134265378Y-86541851D01*
X134265379Y-86541852D01*
X134311026Y-86592548D01*
X134388747Y-86678866D01*
X134487843Y-86750864D01*
X134510437Y-86767279D01*
X134543248Y-86791118D01*
X134549276Y-86793802D01*
X134549278Y-86793803D01*
X134591677Y-86812680D01*
X134717712Y-86868794D01*
X134811112Y-86888647D01*
X134898056Y-86907128D01*
X134898061Y-86907128D01*
X134904513Y-86908500D01*
X135095487Y-86908500D01*
X135101939Y-86907128D01*
X135101944Y-86907128D01*
X135188887Y-86888647D01*
X135282288Y-86868794D01*
X135408323Y-86812680D01*
X135450722Y-86793803D01*
X135450724Y-86793802D01*
X135456752Y-86791118D01*
X135489564Y-86767279D01*
X135512157Y-86750864D01*
X135611253Y-86678866D01*
X135688974Y-86592548D01*
X135734621Y-86541852D01*
X135734622Y-86541851D01*
X135739040Y-86536944D01*
X135823878Y-86390000D01*
X135831223Y-86377279D01*
X135831224Y-86377278D01*
X135834527Y-86371556D01*
X135893542Y-86189928D01*
X135896046Y-86166109D01*
X135912814Y-86006565D01*
X135913504Y-86000000D01*
X139086496Y-86000000D01*
X139087186Y-86006565D01*
X139103955Y-86166109D01*
X139106458Y-86189928D01*
X139165473Y-86371556D01*
X139168776Y-86377278D01*
X139168777Y-86377279D01*
X139176122Y-86390000D01*
X139260960Y-86536944D01*
X139265378Y-86541851D01*
X139265379Y-86541852D01*
X139311026Y-86592548D01*
X139388747Y-86678866D01*
X139487843Y-86750864D01*
X139510437Y-86767279D01*
X139543248Y-86791118D01*
X139549276Y-86793802D01*
X139549278Y-86793803D01*
X139591677Y-86812680D01*
X139717712Y-86868794D01*
X139811112Y-86888647D01*
X139898056Y-86907128D01*
X139898061Y-86907128D01*
X139904513Y-86908500D01*
X140095487Y-86908500D01*
X140101939Y-86907128D01*
X140101944Y-86907128D01*
X140188887Y-86888647D01*
X140282288Y-86868794D01*
X140408323Y-86812680D01*
X140450722Y-86793803D01*
X140450724Y-86793802D01*
X140456752Y-86791118D01*
X140489564Y-86767279D01*
X140512157Y-86750864D01*
X140611253Y-86678866D01*
X140688974Y-86592548D01*
X140734621Y-86541852D01*
X140734622Y-86541851D01*
X140739040Y-86536944D01*
X140823878Y-86390000D01*
X140831223Y-86377279D01*
X140831224Y-86377278D01*
X140834527Y-86371556D01*
X140893542Y-86189928D01*
X140896046Y-86166109D01*
X140912814Y-86006565D01*
X140913504Y-86000000D01*
X144086496Y-86000000D01*
X144087186Y-86006565D01*
X144103955Y-86166109D01*
X144106458Y-86189928D01*
X144165473Y-86371556D01*
X144168776Y-86377278D01*
X144168777Y-86377279D01*
X144176122Y-86390000D01*
X144260960Y-86536944D01*
X144265378Y-86541851D01*
X144265379Y-86541852D01*
X144311026Y-86592548D01*
X144388747Y-86678866D01*
X144487843Y-86750864D01*
X144510437Y-86767279D01*
X144543248Y-86791118D01*
X144549276Y-86793802D01*
X144549278Y-86793803D01*
X144591677Y-86812680D01*
X144717712Y-86868794D01*
X144811112Y-86888647D01*
X144898056Y-86907128D01*
X144898061Y-86907128D01*
X144904513Y-86908500D01*
X145095487Y-86908500D01*
X145101939Y-86907128D01*
X145101944Y-86907128D01*
X145188887Y-86888647D01*
X145282288Y-86868794D01*
X145408323Y-86812680D01*
X145450722Y-86793803D01*
X145450724Y-86793802D01*
X145456752Y-86791118D01*
X145489564Y-86767279D01*
X145512157Y-86750864D01*
X145611253Y-86678866D01*
X145688974Y-86592548D01*
X145734621Y-86541852D01*
X145734622Y-86541851D01*
X145739040Y-86536944D01*
X145823878Y-86390000D01*
X157816496Y-86390000D01*
X157817186Y-86396565D01*
X157829710Y-86515720D01*
X157836458Y-86579928D01*
X157895473Y-86761556D01*
X157898776Y-86767278D01*
X157898777Y-86767279D01*
X157930288Y-86821857D01*
X157990960Y-86926944D01*
X157995378Y-86931851D01*
X157995379Y-86931852D01*
X158074665Y-87019908D01*
X158118747Y-87068866D01*
X158273248Y-87181118D01*
X158279276Y-87183802D01*
X158279278Y-87183803D01*
X158421644Y-87247188D01*
X158447712Y-87258794D01*
X158535020Y-87277352D01*
X158628056Y-87297128D01*
X158628061Y-87297128D01*
X158634513Y-87298500D01*
X158825487Y-87298500D01*
X158831939Y-87297128D01*
X158831944Y-87297128D01*
X158924980Y-87277352D01*
X159012288Y-87258794D01*
X159038356Y-87247188D01*
X159100165Y-87219669D01*
X163117001Y-87219669D01*
X163117371Y-87226490D01*
X163122895Y-87277352D01*
X163126521Y-87292604D01*
X163171676Y-87413054D01*
X163180214Y-87428649D01*
X163256715Y-87530724D01*
X163269276Y-87543285D01*
X163371351Y-87619786D01*
X163386946Y-87628324D01*
X163507394Y-87673478D01*
X163522649Y-87677105D01*
X163573514Y-87682631D01*
X163580328Y-87683000D01*
X164202885Y-87683000D01*
X164218124Y-87678525D01*
X164219329Y-87677135D01*
X164221000Y-87669452D01*
X164221000Y-87664884D01*
X164729000Y-87664884D01*
X164733475Y-87680123D01*
X164734865Y-87681328D01*
X164742548Y-87682999D01*
X165369669Y-87682999D01*
X165376490Y-87682629D01*
X165427352Y-87677105D01*
X165442604Y-87673479D01*
X165563054Y-87628324D01*
X165578649Y-87619786D01*
X165680724Y-87543285D01*
X165693285Y-87530724D01*
X165769786Y-87428649D01*
X165778324Y-87413054D01*
X165819225Y-87303952D01*
X165861867Y-87247188D01*
X165928428Y-87222488D01*
X165997777Y-87237696D01*
X166032444Y-87265684D01*
X166057865Y-87295031D01*
X166057869Y-87295035D01*
X166061250Y-87298938D01*
X166131956Y-87357639D01*
X166223859Y-87433938D01*
X166233126Y-87441632D01*
X166426000Y-87554338D01*
X166430825Y-87556180D01*
X166430826Y-87556181D01*
X166443985Y-87561206D01*
X166634692Y-87634030D01*
X166639760Y-87635061D01*
X166639763Y-87635062D01*
X166723395Y-87652077D01*
X166853597Y-87678567D01*
X166858772Y-87678757D01*
X166858774Y-87678757D01*
X167071673Y-87686564D01*
X167071677Y-87686564D01*
X167076837Y-87686753D01*
X167081957Y-87686097D01*
X167081959Y-87686097D01*
X167293288Y-87659025D01*
X167293289Y-87659025D01*
X167298416Y-87658368D01*
X167319385Y-87652077D01*
X167507429Y-87595661D01*
X167507434Y-87595659D01*
X167512384Y-87594174D01*
X167712994Y-87495896D01*
X167894860Y-87366173D01*
X167917624Y-87343489D01*
X168005309Y-87256109D01*
X168053096Y-87208489D01*
X168105800Y-87135144D01*
X168183453Y-87027077D01*
X168184776Y-87028028D01*
X168231645Y-86984857D01*
X168301580Y-86972625D01*
X168367026Y-87000144D01*
X168394875Y-87031994D01*
X168454987Y-87130088D01*
X168458367Y-87133990D01*
X168459367Y-87135144D01*
X168601250Y-87298938D01*
X168671956Y-87357639D01*
X168763859Y-87433938D01*
X168773126Y-87441632D01*
X168966000Y-87554338D01*
X168970825Y-87556180D01*
X168970826Y-87556181D01*
X168983985Y-87561206D01*
X169174692Y-87634030D01*
X169179760Y-87635061D01*
X169179763Y-87635062D01*
X169263395Y-87652077D01*
X169393597Y-87678567D01*
X169398772Y-87678757D01*
X169398774Y-87678757D01*
X169611673Y-87686564D01*
X169611677Y-87686564D01*
X169616837Y-87686753D01*
X169621957Y-87686097D01*
X169621959Y-87686097D01*
X169833288Y-87659025D01*
X169833289Y-87659025D01*
X169838416Y-87658368D01*
X169859385Y-87652077D01*
X170047429Y-87595661D01*
X170047434Y-87595659D01*
X170052384Y-87594174D01*
X170252994Y-87495896D01*
X170434860Y-87366173D01*
X170457624Y-87343489D01*
X170545309Y-87256109D01*
X170593096Y-87208489D01*
X170645800Y-87135144D01*
X170723453Y-87027077D01*
X170724776Y-87028028D01*
X170771645Y-86984857D01*
X170841580Y-86972625D01*
X170907026Y-87000144D01*
X170934875Y-87031994D01*
X170994987Y-87130088D01*
X170998367Y-87133990D01*
X170999367Y-87135144D01*
X171141250Y-87298938D01*
X171211956Y-87357639D01*
X171303859Y-87433938D01*
X171313126Y-87441632D01*
X171506000Y-87554338D01*
X171510825Y-87556180D01*
X171510826Y-87556181D01*
X171523985Y-87561206D01*
X171714692Y-87634030D01*
X171719760Y-87635061D01*
X171719763Y-87635062D01*
X171803395Y-87652077D01*
X171933597Y-87678567D01*
X171938772Y-87678757D01*
X171938774Y-87678757D01*
X172151673Y-87686564D01*
X172151677Y-87686564D01*
X172156837Y-87686753D01*
X172161957Y-87686097D01*
X172161959Y-87686097D01*
X172373288Y-87659025D01*
X172373289Y-87659025D01*
X172378416Y-87658368D01*
X172399385Y-87652077D01*
X172587429Y-87595661D01*
X172587434Y-87595659D01*
X172592384Y-87594174D01*
X172792994Y-87495896D01*
X172974860Y-87366173D01*
X172997624Y-87343489D01*
X173085309Y-87256109D01*
X173133096Y-87208489D01*
X173185800Y-87135144D01*
X173260435Y-87031277D01*
X173263453Y-87027077D01*
X173284320Y-86984857D01*
X173360136Y-86831453D01*
X173360137Y-86831451D01*
X173362430Y-86826811D01*
X173427370Y-86613069D01*
X173456529Y-86391590D01*
X173456879Y-86377279D01*
X173458074Y-86328365D01*
X173458074Y-86328361D01*
X173458156Y-86325000D01*
X173439852Y-86102361D01*
X173385431Y-85885702D01*
X173296354Y-85680840D01*
X173238200Y-85590948D01*
X173177822Y-85497617D01*
X173177820Y-85497614D01*
X173175014Y-85493277D01*
X173024670Y-85328051D01*
X173020619Y-85324852D01*
X173020615Y-85324848D01*
X172853414Y-85192800D01*
X172853410Y-85192798D01*
X172849359Y-85189598D01*
X172838054Y-85183357D01*
X172776428Y-85149338D01*
X172653789Y-85081638D01*
X172648920Y-85079914D01*
X172648916Y-85079912D01*
X172448087Y-85008795D01*
X172448083Y-85008794D01*
X172443212Y-85007069D01*
X172438119Y-85006162D01*
X172438116Y-85006161D01*
X172228373Y-84968800D01*
X172228367Y-84968799D01*
X172223284Y-84967894D01*
X172149452Y-84966992D01*
X172005081Y-84965228D01*
X172005079Y-84965228D01*
X171999911Y-84965165D01*
X171779091Y-84998955D01*
X171566756Y-85068357D01*
X171536443Y-85084137D01*
X171387022Y-85161921D01*
X171368607Y-85171507D01*
X171364474Y-85174610D01*
X171364471Y-85174612D01*
X171194100Y-85302530D01*
X171189965Y-85305635D01*
X171175154Y-85321134D01*
X171039535Y-85463051D01*
X171035629Y-85467138D01*
X170928201Y-85624621D01*
X170873293Y-85669621D01*
X170802768Y-85677792D01*
X170739021Y-85646538D01*
X170718324Y-85622054D01*
X170637822Y-85497617D01*
X170637820Y-85497614D01*
X170635014Y-85493277D01*
X170484670Y-85328051D01*
X170480619Y-85324852D01*
X170480615Y-85324848D01*
X170313414Y-85192800D01*
X170313410Y-85192798D01*
X170309359Y-85189598D01*
X170298054Y-85183357D01*
X170236428Y-85149338D01*
X170113789Y-85081638D01*
X170108920Y-85079914D01*
X170108916Y-85079912D01*
X169908087Y-85008795D01*
X169908083Y-85008794D01*
X169903212Y-85007069D01*
X169898119Y-85006162D01*
X169898116Y-85006161D01*
X169688373Y-84968800D01*
X169688367Y-84968799D01*
X169683284Y-84967894D01*
X169609452Y-84966992D01*
X169465081Y-84965228D01*
X169465079Y-84965228D01*
X169459911Y-84965165D01*
X169239091Y-84998955D01*
X169026756Y-85068357D01*
X168996443Y-85084137D01*
X168847022Y-85161921D01*
X168828607Y-85171507D01*
X168824474Y-85174610D01*
X168824471Y-85174612D01*
X168654100Y-85302530D01*
X168649965Y-85305635D01*
X168635154Y-85321134D01*
X168499535Y-85463051D01*
X168495629Y-85467138D01*
X168388201Y-85624621D01*
X168333293Y-85669621D01*
X168262768Y-85677792D01*
X168199021Y-85646538D01*
X168178324Y-85622054D01*
X168097822Y-85497617D01*
X168097820Y-85497614D01*
X168095014Y-85493277D01*
X167944670Y-85328051D01*
X167940619Y-85324852D01*
X167940615Y-85324848D01*
X167773414Y-85192800D01*
X167773410Y-85192798D01*
X167769359Y-85189598D01*
X167758054Y-85183357D01*
X167696428Y-85149338D01*
X167573789Y-85081638D01*
X167568920Y-85079914D01*
X167568916Y-85079912D01*
X167368087Y-85008795D01*
X167368083Y-85008794D01*
X167363212Y-85007069D01*
X167358119Y-85006162D01*
X167358116Y-85006161D01*
X167148373Y-84968800D01*
X167148367Y-84968799D01*
X167143284Y-84967894D01*
X167069452Y-84966992D01*
X166925081Y-84965228D01*
X166925079Y-84965228D01*
X166919911Y-84965165D01*
X166699091Y-84998955D01*
X166486756Y-85068357D01*
X166456443Y-85084137D01*
X166307022Y-85161921D01*
X166288607Y-85171507D01*
X166284474Y-85174610D01*
X166284471Y-85174612D01*
X166114100Y-85302530D01*
X166109965Y-85305635D01*
X166095154Y-85321134D01*
X166028898Y-85390466D01*
X165967374Y-85425895D01*
X165896462Y-85422438D01*
X165838676Y-85381192D01*
X165819823Y-85347644D01*
X165778324Y-85236946D01*
X165769786Y-85221351D01*
X165693285Y-85119276D01*
X165680724Y-85106715D01*
X165578649Y-85030214D01*
X165563054Y-85021676D01*
X165442606Y-84976522D01*
X165427351Y-84972895D01*
X165376486Y-84967369D01*
X165369672Y-84967000D01*
X164747115Y-84967000D01*
X164731876Y-84971475D01*
X164730671Y-84972865D01*
X164729000Y-84980548D01*
X164729000Y-87664884D01*
X164221000Y-87664884D01*
X164221000Y-86597115D01*
X164216525Y-86581876D01*
X164215135Y-86580671D01*
X164207452Y-86579000D01*
X163135116Y-86579000D01*
X163119877Y-86583475D01*
X163118672Y-86584865D01*
X163117001Y-86592548D01*
X163117001Y-87219669D01*
X159100165Y-87219669D01*
X159180722Y-87183803D01*
X159180724Y-87183802D01*
X159186752Y-87181118D01*
X159341253Y-87068866D01*
X159385335Y-87019908D01*
X159464621Y-86931852D01*
X159464622Y-86931851D01*
X159469040Y-86926944D01*
X159529712Y-86821857D01*
X159561223Y-86767279D01*
X159561224Y-86767278D01*
X159564527Y-86761556D01*
X159623542Y-86579928D01*
X159630291Y-86515720D01*
X159642814Y-86396565D01*
X159643504Y-86390000D01*
X159623542Y-86200072D01*
X159575718Y-86052885D01*
X163117000Y-86052885D01*
X163121475Y-86068124D01*
X163122865Y-86069329D01*
X163130548Y-86071000D01*
X164202885Y-86071000D01*
X164218124Y-86066525D01*
X164219329Y-86065135D01*
X164221000Y-86057452D01*
X164221000Y-84985116D01*
X164216525Y-84969877D01*
X164215135Y-84968672D01*
X164207452Y-84967001D01*
X163580331Y-84967001D01*
X163573510Y-84967371D01*
X163522648Y-84972895D01*
X163507396Y-84976521D01*
X163386946Y-85021676D01*
X163371351Y-85030214D01*
X163269276Y-85106715D01*
X163256715Y-85119276D01*
X163180214Y-85221351D01*
X163171676Y-85236946D01*
X163126522Y-85357394D01*
X163122895Y-85372649D01*
X163117369Y-85423514D01*
X163117000Y-85430328D01*
X163117000Y-86052885D01*
X159575718Y-86052885D01*
X159564527Y-86018444D01*
X159543919Y-85982749D01*
X159472341Y-85858774D01*
X159469040Y-85853056D01*
X159454699Y-85837128D01*
X159345675Y-85716045D01*
X159345674Y-85716044D01*
X159341253Y-85711134D01*
X159231180Y-85631161D01*
X159192094Y-85602763D01*
X159192093Y-85602762D01*
X159186752Y-85598882D01*
X159180724Y-85596198D01*
X159180722Y-85596197D01*
X159018319Y-85523891D01*
X159018318Y-85523891D01*
X159012288Y-85521206D01*
X158918888Y-85501353D01*
X158831944Y-85482872D01*
X158831939Y-85482872D01*
X158825487Y-85481500D01*
X158634513Y-85481500D01*
X158628061Y-85482872D01*
X158628056Y-85482872D01*
X158541112Y-85501353D01*
X158447712Y-85521206D01*
X158441682Y-85523891D01*
X158441681Y-85523891D01*
X158279278Y-85596197D01*
X158279276Y-85596198D01*
X158273248Y-85598882D01*
X158267907Y-85602762D01*
X158267906Y-85602763D01*
X158228820Y-85631161D01*
X158118747Y-85711134D01*
X158114326Y-85716044D01*
X158114325Y-85716045D01*
X158005302Y-85837128D01*
X157990960Y-85853056D01*
X157987659Y-85858774D01*
X157916082Y-85982749D01*
X157895473Y-86018444D01*
X157836458Y-86200072D01*
X157816496Y-86390000D01*
X145823878Y-86390000D01*
X145831223Y-86377279D01*
X145831224Y-86377278D01*
X145834527Y-86371556D01*
X145893542Y-86189928D01*
X145896046Y-86166109D01*
X145912814Y-86006565D01*
X145913504Y-86000000D01*
X145896386Y-85837128D01*
X145894232Y-85816635D01*
X145894232Y-85816633D01*
X145893542Y-85810072D01*
X145834527Y-85628444D01*
X145825466Y-85612749D01*
X145756488Y-85493277D01*
X145739040Y-85463056D01*
X145721028Y-85443051D01*
X145615675Y-85326045D01*
X145615674Y-85326044D01*
X145611253Y-85321134D01*
X145456752Y-85208882D01*
X145450724Y-85206198D01*
X145450722Y-85206197D01*
X145288319Y-85133891D01*
X145288318Y-85133891D01*
X145282288Y-85131206D01*
X145167068Y-85106715D01*
X145101944Y-85092872D01*
X145101939Y-85092872D01*
X145095487Y-85091500D01*
X144904513Y-85091500D01*
X144898061Y-85092872D01*
X144898056Y-85092872D01*
X144832932Y-85106715D01*
X144717712Y-85131206D01*
X144711682Y-85133891D01*
X144711681Y-85133891D01*
X144549278Y-85206197D01*
X144549276Y-85206198D01*
X144543248Y-85208882D01*
X144388747Y-85321134D01*
X144384326Y-85326044D01*
X144384325Y-85326045D01*
X144278973Y-85443051D01*
X144260960Y-85463056D01*
X144243512Y-85493277D01*
X144174535Y-85612749D01*
X144165473Y-85628444D01*
X144106458Y-85810072D01*
X144105768Y-85816633D01*
X144105768Y-85816635D01*
X144103614Y-85837128D01*
X144086496Y-86000000D01*
X140913504Y-86000000D01*
X140896386Y-85837128D01*
X140894232Y-85816635D01*
X140894232Y-85816633D01*
X140893542Y-85810072D01*
X140834527Y-85628444D01*
X140825466Y-85612749D01*
X140756488Y-85493277D01*
X140739040Y-85463056D01*
X140721028Y-85443051D01*
X140615675Y-85326045D01*
X140615674Y-85326044D01*
X140611253Y-85321134D01*
X140456752Y-85208882D01*
X140450724Y-85206198D01*
X140450722Y-85206197D01*
X140288319Y-85133891D01*
X140288318Y-85133891D01*
X140282288Y-85131206D01*
X140167068Y-85106715D01*
X140101944Y-85092872D01*
X140101939Y-85092872D01*
X140095487Y-85091500D01*
X139904513Y-85091500D01*
X139898061Y-85092872D01*
X139898056Y-85092872D01*
X139832932Y-85106715D01*
X139717712Y-85131206D01*
X139711682Y-85133891D01*
X139711681Y-85133891D01*
X139549278Y-85206197D01*
X139549276Y-85206198D01*
X139543248Y-85208882D01*
X139388747Y-85321134D01*
X139384326Y-85326044D01*
X139384325Y-85326045D01*
X139278973Y-85443051D01*
X139260960Y-85463056D01*
X139243512Y-85493277D01*
X139174535Y-85612749D01*
X139165473Y-85628444D01*
X139106458Y-85810072D01*
X139105768Y-85816633D01*
X139105768Y-85816635D01*
X139103614Y-85837128D01*
X139086496Y-86000000D01*
X135913504Y-86000000D01*
X135896386Y-85837128D01*
X135894232Y-85816635D01*
X135894232Y-85816633D01*
X135893542Y-85810072D01*
X135834527Y-85628444D01*
X135825466Y-85612749D01*
X135756488Y-85493277D01*
X135739040Y-85463056D01*
X135721028Y-85443051D01*
X135615675Y-85326045D01*
X135615674Y-85326044D01*
X135611253Y-85321134D01*
X135456752Y-85208882D01*
X135450724Y-85206198D01*
X135450722Y-85206197D01*
X135288319Y-85133891D01*
X135288318Y-85133891D01*
X135282288Y-85131206D01*
X135167068Y-85106715D01*
X135101944Y-85092872D01*
X135101939Y-85092872D01*
X135095487Y-85091500D01*
X134904513Y-85091500D01*
X134898061Y-85092872D01*
X134898056Y-85092872D01*
X134832932Y-85106715D01*
X134717712Y-85131206D01*
X134711682Y-85133891D01*
X134711681Y-85133891D01*
X134549278Y-85206197D01*
X134549276Y-85206198D01*
X134543248Y-85208882D01*
X134388747Y-85321134D01*
X134384326Y-85326044D01*
X134384325Y-85326045D01*
X134278973Y-85443051D01*
X134260960Y-85463056D01*
X134243512Y-85493277D01*
X134174535Y-85612749D01*
X134165473Y-85628444D01*
X134106458Y-85810072D01*
X134105768Y-85816633D01*
X134105768Y-85816635D01*
X134103614Y-85837128D01*
X134086496Y-86000000D01*
X126352390Y-86000000D01*
X126309670Y-85953051D01*
X126305619Y-85949852D01*
X126305615Y-85949848D01*
X126138414Y-85817800D01*
X126138410Y-85817798D01*
X126134359Y-85814598D01*
X126108984Y-85800590D01*
X126034762Y-85759618D01*
X125938789Y-85706638D01*
X125933920Y-85704914D01*
X125933916Y-85704912D01*
X125733087Y-85633795D01*
X125733083Y-85633794D01*
X125728212Y-85632069D01*
X125723119Y-85631162D01*
X125723116Y-85631161D01*
X125513373Y-85593800D01*
X125513367Y-85593799D01*
X125508284Y-85592894D01*
X125434452Y-85591992D01*
X125290081Y-85590228D01*
X125290079Y-85590228D01*
X125284911Y-85590165D01*
X125064091Y-85623955D01*
X124851756Y-85693357D01*
X124653607Y-85796507D01*
X124649474Y-85799610D01*
X124649471Y-85799612D01*
X124479100Y-85927530D01*
X124474965Y-85930635D01*
X124471393Y-85934373D01*
X124325313Y-86087237D01*
X124320629Y-86092138D01*
X124194743Y-86276680D01*
X124179003Y-86310590D01*
X124117371Y-86443365D01*
X124100688Y-86479305D01*
X124040989Y-86694570D01*
X124017251Y-86916695D01*
X124017548Y-86921848D01*
X124017548Y-86921851D01*
X124023899Y-87031994D01*
X124030110Y-87139715D01*
X124031247Y-87144761D01*
X124031248Y-87144767D01*
X124044663Y-87204292D01*
X124079222Y-87357639D01*
X124117461Y-87451811D01*
X124159093Y-87554338D01*
X124163266Y-87564616D01*
X124189100Y-87606774D01*
X124264089Y-87729144D01*
X124279987Y-87755088D01*
X124426250Y-87923938D01*
X124598126Y-88066632D01*
X124640683Y-88091500D01*
X124671445Y-88109476D01*
X124720169Y-88161114D01*
X124733240Y-88230897D01*
X124706509Y-88296669D01*
X124666055Y-88330027D01*
X124653607Y-88336507D01*
X124649474Y-88339610D01*
X124649471Y-88339612D01*
X124520342Y-88436565D01*
X124474965Y-88470635D01*
X124320629Y-88632138D01*
X124194743Y-88816680D01*
X124166187Y-88878199D01*
X124105859Y-89008166D01*
X124100688Y-89019305D01*
X124040989Y-89234570D01*
X124017251Y-89456695D01*
X124017548Y-89461848D01*
X124017548Y-89461851D01*
X124023011Y-89556590D01*
X124030110Y-89679715D01*
X124031247Y-89684761D01*
X124031248Y-89684767D01*
X124051119Y-89772939D01*
X124079222Y-89897639D01*
X124117461Y-89991811D01*
X124156059Y-90086866D01*
X124163266Y-90104616D01*
X124172229Y-90119242D01*
X124264089Y-90269144D01*
X124279987Y-90295088D01*
X124426250Y-90463938D01*
X124598126Y-90606632D01*
X124668595Y-90647811D01*
X124671445Y-90649476D01*
X124720169Y-90701114D01*
X124733240Y-90770897D01*
X124706509Y-90836669D01*
X124666055Y-90870027D01*
X124653607Y-90876507D01*
X124649474Y-90879610D01*
X124649471Y-90879612D01*
X124484076Y-91003794D01*
X124474965Y-91010635D01*
X124453544Y-91033051D01*
X124331521Y-91160740D01*
X124269996Y-91196170D01*
X124199084Y-91192713D01*
X124189179Y-91188796D01*
X124088323Y-91143892D01*
X124088315Y-91143889D01*
X124082288Y-91141206D01*
X123988887Y-91121353D01*
X123901944Y-91102872D01*
X123901939Y-91102872D01*
X123895487Y-91101500D01*
X123704513Y-91101500D01*
X123698061Y-91102872D01*
X123698056Y-91102872D01*
X123611112Y-91121353D01*
X123517712Y-91141206D01*
X123511682Y-91143891D01*
X123511681Y-91143891D01*
X123349278Y-91216197D01*
X123349276Y-91216198D01*
X123343248Y-91218882D01*
X123337907Y-91222762D01*
X123337906Y-91222763D01*
X123290808Y-91256982D01*
X123188747Y-91331134D01*
X123184326Y-91336044D01*
X123184325Y-91336045D01*
X123072960Y-91459729D01*
X123060960Y-91473056D01*
X123038562Y-91511851D01*
X122998117Y-91581903D01*
X122946734Y-91630896D01*
X122877021Y-91644332D01*
X122811110Y-91617946D01*
X122769928Y-91560113D01*
X122763089Y-91522747D01*
X122763156Y-91520000D01*
X122744852Y-91297361D01*
X122690431Y-91080702D01*
X122601354Y-90875840D01*
X122501270Y-90721134D01*
X122482822Y-90692617D01*
X122482820Y-90692614D01*
X122480014Y-90688277D01*
X122329670Y-90523051D01*
X122325619Y-90519852D01*
X122325615Y-90519848D01*
X122158414Y-90387800D01*
X122158410Y-90387798D01*
X122154359Y-90384598D01*
X122113053Y-90361796D01*
X122063084Y-90311364D01*
X122048312Y-90241921D01*
X122073428Y-90175516D01*
X122100780Y-90148909D01*
X122156702Y-90109020D01*
X122279860Y-90021173D01*
X122438096Y-89863489D01*
X122568453Y-89682077D01*
X122571880Y-89675144D01*
X122665136Y-89486453D01*
X122665137Y-89486451D01*
X122667430Y-89481811D01*
X122732370Y-89268069D01*
X122761529Y-89046590D01*
X122762301Y-89014993D01*
X122763074Y-88983365D01*
X122763074Y-88983361D01*
X122763156Y-88980000D01*
X122744852Y-88757361D01*
X122690431Y-88540702D01*
X122601354Y-88335840D01*
X122539399Y-88240072D01*
X122482822Y-88152617D01*
X122482820Y-88152614D01*
X122480014Y-88148277D01*
X122329670Y-87983051D01*
X122325619Y-87979852D01*
X122325615Y-87979848D01*
X122158414Y-87847800D01*
X122158410Y-87847798D01*
X122154359Y-87844598D01*
X122113053Y-87821796D01*
X122063084Y-87771364D01*
X122048312Y-87701921D01*
X122073428Y-87635516D01*
X122100780Y-87608909D01*
X122156702Y-87569020D01*
X122279860Y-87481173D01*
X122319540Y-87441632D01*
X122392254Y-87369171D01*
X122438096Y-87323489D01*
X122507797Y-87226490D01*
X122565435Y-87146277D01*
X122568453Y-87142077D01*
X122571880Y-87135144D01*
X122665136Y-86946453D01*
X122665137Y-86946451D01*
X122667430Y-86941811D01*
X122732370Y-86728069D01*
X122761529Y-86506590D01*
X122762196Y-86479305D01*
X122763074Y-86443365D01*
X122763074Y-86443361D01*
X122763156Y-86440000D01*
X122744852Y-86217361D01*
X122690431Y-86000702D01*
X122601354Y-85795840D01*
X122524985Y-85677792D01*
X122482822Y-85612617D01*
X122482820Y-85612614D01*
X122480014Y-85608277D01*
X122329670Y-85443051D01*
X122325619Y-85439852D01*
X122325615Y-85439848D01*
X122158414Y-85307800D01*
X122158410Y-85307798D01*
X122154359Y-85304598D01*
X122113053Y-85281796D01*
X122063084Y-85231364D01*
X122048312Y-85161921D01*
X122073428Y-85095516D01*
X122100780Y-85068909D01*
X122185057Y-85008795D01*
X122279860Y-84941173D01*
X122438096Y-84783489D01*
X122568453Y-84602077D01*
X122571880Y-84595144D01*
X122665136Y-84406453D01*
X122665137Y-84406451D01*
X122667430Y-84401811D01*
X122703434Y-84283307D01*
X122730865Y-84193023D01*
X122730865Y-84193021D01*
X122732370Y-84188069D01*
X122761529Y-83966590D01*
X122763156Y-83900000D01*
X122744852Y-83677361D01*
X122690431Y-83460702D01*
X122601354Y-83255840D01*
X122561906Y-83194862D01*
X122482822Y-83072617D01*
X122482820Y-83072614D01*
X122480014Y-83068277D01*
X122329670Y-82903051D01*
X122325619Y-82899852D01*
X122325615Y-82899848D01*
X122158414Y-82767800D01*
X122158410Y-82767798D01*
X122154359Y-82764598D01*
X122113053Y-82741796D01*
X122063084Y-82691364D01*
X122048312Y-82621921D01*
X122073428Y-82555516D01*
X122100780Y-82528909D01*
X122220104Y-82443796D01*
X122279860Y-82401173D01*
X122438096Y-82243489D01*
X122568453Y-82062077D01*
X122571880Y-82055144D01*
X122665136Y-81866453D01*
X122665137Y-81866451D01*
X122667430Y-81861811D01*
X122732370Y-81648069D01*
X122761529Y-81426590D01*
X122763156Y-81360000D01*
X122744852Y-81137361D01*
X122690431Y-80920702D01*
X122601354Y-80715840D01*
X122561906Y-80654862D01*
X122482822Y-80532617D01*
X122482820Y-80532614D01*
X122480014Y-80528277D01*
X122329670Y-80363051D01*
X122325619Y-80359852D01*
X122325615Y-80359848D01*
X122158414Y-80227800D01*
X122158410Y-80227798D01*
X122154359Y-80224598D01*
X122113053Y-80201796D01*
X122063084Y-80151364D01*
X122048312Y-80081921D01*
X122073428Y-80015516D01*
X122100780Y-79988909D01*
X122179696Y-79932619D01*
X122279860Y-79861173D01*
X122438096Y-79703489D01*
X122568453Y-79522077D01*
X122571880Y-79515144D01*
X122665136Y-79326453D01*
X122665137Y-79326451D01*
X122667430Y-79321811D01*
X122732370Y-79108069D01*
X122761529Y-78886590D01*
X122763156Y-78820000D01*
X122744852Y-78597361D01*
X122690431Y-78380702D01*
X122601354Y-78175840D01*
X122546792Y-78091500D01*
X122482822Y-77992617D01*
X122482820Y-77992614D01*
X122480014Y-77988277D01*
X122329670Y-77823051D01*
X122325619Y-77819852D01*
X122325615Y-77819848D01*
X122158414Y-77687800D01*
X122158410Y-77687798D01*
X122154359Y-77684598D01*
X122113053Y-77661796D01*
X122063084Y-77611364D01*
X122048312Y-77541921D01*
X122073428Y-77475516D01*
X122100780Y-77448909D01*
X122220104Y-77363796D01*
X122279860Y-77321173D01*
X122438096Y-77163489D01*
X122568453Y-76982077D01*
X122571880Y-76975144D01*
X122665136Y-76786453D01*
X122665137Y-76786451D01*
X122667430Y-76781811D01*
X122732370Y-76568069D01*
X122761529Y-76346590D01*
X122763156Y-76280000D01*
X122744852Y-76057361D01*
X122690431Y-75840702D01*
X122601354Y-75635840D01*
X122517384Y-75506042D01*
X122482822Y-75452617D01*
X122482820Y-75452614D01*
X122480014Y-75448277D01*
X122329670Y-75283051D01*
X122325619Y-75279852D01*
X122325615Y-75279848D01*
X122158414Y-75147800D01*
X122158410Y-75147798D01*
X122154359Y-75144598D01*
X122113053Y-75121796D01*
X122063084Y-75071364D01*
X122048312Y-75001921D01*
X122073428Y-74935516D01*
X122100780Y-74908909D01*
X122220104Y-74823796D01*
X122279860Y-74781173D01*
X122438096Y-74623489D01*
X122494086Y-74545571D01*
X122565435Y-74446277D01*
X122568453Y-74442077D01*
X122571880Y-74435144D01*
X122665136Y-74246453D01*
X122665137Y-74246451D01*
X122667430Y-74241811D01*
X122732370Y-74028069D01*
X122761529Y-73806590D01*
X122761611Y-73803240D01*
X122763074Y-73743365D01*
X122763074Y-73743361D01*
X122763156Y-73740000D01*
X122744852Y-73517361D01*
X122690431Y-73300702D01*
X122601354Y-73095840D01*
X122535105Y-72993435D01*
X122482822Y-72912617D01*
X122482820Y-72912614D01*
X122480014Y-72908277D01*
X122467410Y-72894425D01*
X122332798Y-72746488D01*
X122301746Y-72682642D01*
X122310141Y-72612143D01*
X122355317Y-72557375D01*
X122381761Y-72543706D01*
X122488297Y-72503767D01*
X122496705Y-72500615D01*
X122613261Y-72413261D01*
X122700615Y-72296705D01*
X122751745Y-72160316D01*
X122758500Y-72098134D01*
X122758500Y-70301866D01*
X122751745Y-70239684D01*
X122700615Y-70103295D01*
X122613261Y-69986739D01*
X122496705Y-69899385D01*
X122360316Y-69848255D01*
X122298134Y-69841500D01*
X120634000Y-69841500D01*
X120565879Y-69821498D01*
X120519386Y-69767842D01*
X120508000Y-69715500D01*
X120508000Y-68969448D01*
X120528002Y-68901327D01*
X120581658Y-68854834D01*
X120651932Y-68844730D01*
X120685247Y-68854341D01*
X120711673Y-68866106D01*
X120711679Y-68866108D01*
X120717712Y-68868794D01*
X120811113Y-68888647D01*
X120898056Y-68907128D01*
X120898061Y-68907128D01*
X120904513Y-68908500D01*
X121095487Y-68908500D01*
X121101939Y-68907128D01*
X121101944Y-68907128D01*
X121188887Y-68888647D01*
X121282288Y-68868794D01*
X121288319Y-68866109D01*
X121450722Y-68793803D01*
X121450724Y-68793802D01*
X121456752Y-68791118D01*
X121611253Y-68678866D01*
X121739040Y-68536944D01*
X121834527Y-68371556D01*
X121893542Y-68189928D01*
X121913504Y-68000000D01*
X121893542Y-67810072D01*
X121834527Y-67628444D01*
X121739040Y-67463056D01*
X121611253Y-67321134D01*
X121456752Y-67208882D01*
X121450724Y-67206198D01*
X121450722Y-67206197D01*
X121288319Y-67133891D01*
X121288318Y-67133891D01*
X121282288Y-67131206D01*
X121244844Y-67123247D01*
X121182371Y-67089518D01*
X121148049Y-67027369D01*
X121152777Y-66956530D01*
X121195053Y-66899492D01*
X121244844Y-66876753D01*
X121282288Y-66868794D01*
X121288319Y-66866109D01*
X121450722Y-66793803D01*
X121450724Y-66793802D01*
X121456752Y-66791118D01*
X121611253Y-66678866D01*
X121739040Y-66536944D01*
X121834527Y-66371556D01*
X121893542Y-66189928D01*
X121913504Y-66000000D01*
X121893542Y-65810072D01*
X121834527Y-65628444D01*
X121739040Y-65463056D01*
X121659920Y-65375184D01*
X121629202Y-65311177D01*
X121637967Y-65240723D01*
X121683430Y-65186192D01*
X121751157Y-65164897D01*
X121791450Y-65170941D01*
X121791450Y-65170940D01*
X121791456Y-65170942D01*
X121792810Y-65171145D01*
X121794284Y-65171628D01*
X121795135Y-65171907D01*
X121795138Y-65171908D01*
X121798729Y-65173085D01*
X122124944Y-65237973D01*
X122128716Y-65238260D01*
X122128724Y-65238261D01*
X122452815Y-65262914D01*
X122452820Y-65262914D01*
X122456592Y-65263201D01*
X122788869Y-65248403D01*
X122835011Y-65240723D01*
X123113220Y-65194417D01*
X123113225Y-65194416D01*
X123116961Y-65193794D01*
X123120590Y-65192729D01*
X123120609Y-65192725D01*
X123215570Y-65164866D01*
X123286567Y-65164882D01*
G37*
%TD.AperFunction*%
%TD*%
M02*
