%TF.GenerationSoftware,KiCad,Pcbnew,6.0.0-d3dd2cf0fa~116~ubuntu20.04.1*%
%TF.CreationDate,2022-01-05T21:30:45+00:00*%
%TF.ProjectId,opizero2_cc2652p,6f70697a-6572-46f3-925f-636332363532,rev?*%
%TF.SameCoordinates,Original*%
%TF.FileFunction,Soldermask,Bot*%
%TF.FilePolarity,Negative*%
%FSLAX46Y46*%
G04 Gerber Fmt 4.6, Leading zero omitted, Abs format (unit mm)*
G04 Created by KiCad (PCBNEW 6.0.0-d3dd2cf0fa~116~ubuntu20.04.1) date 2022-01-05 21:30:45*
%MOMM*%
%LPD*%
G01*
G04 APERTURE LIST*
%ADD10R,1.700000X1.700000*%
%ADD11O,1.700000X1.700000*%
%ADD12R,1.000000X1.000000*%
%ADD13O,1.000000X1.000000*%
%ADD14C,4.500000*%
G04 APERTURE END LIST*
D10*
%TO.C,J4*%
X170775000Y-101300000D03*
D11*
X168235000Y-101300000D03*
%TD*%
D10*
%TO.C,J5*%
X125380000Y-94570000D03*
D11*
X125380000Y-92030000D03*
X125380000Y-89490000D03*
X125380000Y-86950000D03*
%TD*%
D10*
%TO.C,J3*%
X164475000Y-86325000D03*
D11*
X167015000Y-86325000D03*
X169555000Y-86325000D03*
X172095000Y-86325000D03*
%TD*%
D12*
%TO.C,J6*%
X165760000Y-109465000D03*
D13*
X165760000Y-108195000D03*
X167030000Y-109465000D03*
X167030000Y-108195000D03*
X168300000Y-109465000D03*
X168300000Y-108195000D03*
X169570000Y-109465000D03*
X169570000Y-108195000D03*
X170840000Y-109465000D03*
X170840000Y-108195000D03*
%TD*%
D10*
%TO.C,J2*%
X121400000Y-71200000D03*
D11*
X121400000Y-73740000D03*
X121400000Y-76280000D03*
X121400000Y-78820000D03*
X121400000Y-81360000D03*
X121400000Y-83900000D03*
X121400000Y-86440000D03*
X121400000Y-88980000D03*
X121400000Y-91520000D03*
X121400000Y-94060000D03*
X121400000Y-96600000D03*
X121400000Y-99140000D03*
X121400000Y-101680000D03*
%TD*%
%TO.C,J1*%
X176060000Y-71220000D03*
X178600000Y-71220000D03*
X176060000Y-73760000D03*
X178600000Y-73760000D03*
X176060000Y-76300000D03*
X178600000Y-76300000D03*
X176060000Y-78840000D03*
X178600000Y-78840000D03*
X176060000Y-81380000D03*
X178600000Y-81380000D03*
X176060000Y-83920000D03*
X178600000Y-83920000D03*
X176060000Y-86460000D03*
X178600000Y-86460000D03*
X176060000Y-89000000D03*
X178600000Y-89000000D03*
X176060000Y-91540000D03*
X178600000Y-91540000D03*
X176060000Y-94080000D03*
X178600000Y-94080000D03*
X176060000Y-96620000D03*
X178600000Y-96620000D03*
X176060000Y-99160000D03*
X178600000Y-99160000D03*
X176060000Y-101700000D03*
D10*
X178600000Y-101700000D03*
%TD*%
D14*
%TO.C,H4*%
X122500000Y-110500000D03*
%TD*%
%TO.C,H3*%
X177500000Y-110500000D03*
%TD*%
%TO.C,H2*%
X177500000Y-62500000D03*
%TD*%
%TO.C,H1*%
X122500000Y-62500000D03*
%TD*%
M02*
