%TF.GenerationSoftware,KiCad,Pcbnew,5.1.10-88a1d61d58~90~ubuntu20.04.1*%
%TF.CreationDate,2021-11-15T19:50:34+00:00*%
%TF.ProjectId,daughter_board,64617567-6874-4657-925f-626f6172642e,rev?*%
%TF.SameCoordinates,Original*%
%TF.FileFunction,Paste,Bot*%
%TF.FilePolarity,Positive*%
%FSLAX46Y46*%
G04 Gerber Fmt 4.6, Leading zero omitted, Abs format (unit mm)*
G04 Created by KiCad (PCBNEW 5.1.10-88a1d61d58~90~ubuntu20.04.1) date 2021-11-15 19:50:34*
%MOMM*%
%LPD*%
G01*
G04 APERTURE LIST*
%ADD10R,2.500000X5.100000*%
%ADD11C,17.800000*%
%ADD12R,1.219200X0.914400*%
G04 APERTURE END LIST*
%TO.C,C4*%
G36*
G01*
X153975000Y-108725000D02*
X153025000Y-108725000D01*
G75*
G02*
X152775000Y-108475000I0J250000D01*
G01*
X152775000Y-107975000D01*
G75*
G02*
X153025000Y-107725000I250000J0D01*
G01*
X153975000Y-107725000D01*
G75*
G02*
X154225000Y-107975000I0J-250000D01*
G01*
X154225000Y-108475000D01*
G75*
G02*
X153975000Y-108725000I-250000J0D01*
G01*
G37*
G36*
G01*
X153975000Y-110625000D02*
X153025000Y-110625000D01*
G75*
G02*
X152775000Y-110375000I0J250000D01*
G01*
X152775000Y-109875000D01*
G75*
G02*
X153025000Y-109625000I250000J0D01*
G01*
X153975000Y-109625000D01*
G75*
G02*
X154225000Y-109875000I0J-250000D01*
G01*
X154225000Y-110375000D01*
G75*
G02*
X153975000Y-110625000I-250000J0D01*
G01*
G37*
%TD*%
%TO.C,C1*%
G36*
G01*
X110350000Y-108525000D02*
X110350000Y-109475000D01*
G75*
G02*
X110100000Y-109725000I-250000J0D01*
G01*
X109600000Y-109725000D01*
G75*
G02*
X109350000Y-109475000I0J250000D01*
G01*
X109350000Y-108525000D01*
G75*
G02*
X109600000Y-108275000I250000J0D01*
G01*
X110100000Y-108275000D01*
G75*
G02*
X110350000Y-108525000I0J-250000D01*
G01*
G37*
G36*
G01*
X112250000Y-108525000D02*
X112250000Y-109475000D01*
G75*
G02*
X112000000Y-109725000I-250000J0D01*
G01*
X111500000Y-109725000D01*
G75*
G02*
X111250000Y-109475000I0J250000D01*
G01*
X111250000Y-108525000D01*
G75*
G02*
X111500000Y-108275000I250000J0D01*
G01*
X112000000Y-108275000D01*
G75*
G02*
X112250000Y-108525000I0J-250000D01*
G01*
G37*
%TD*%
D10*
%TO.C,BT1*%
X124575000Y-107925000D03*
X147475000Y-107925000D03*
D11*
X136025000Y-107925000D03*
%TD*%
%TO.C,C6*%
G36*
G01*
X151975000Y-108725000D02*
X151025000Y-108725000D01*
G75*
G02*
X150775000Y-108475000I0J250000D01*
G01*
X150775000Y-107975000D01*
G75*
G02*
X151025000Y-107725000I250000J0D01*
G01*
X151975000Y-107725000D01*
G75*
G02*
X152225000Y-107975000I0J-250000D01*
G01*
X152225000Y-108475000D01*
G75*
G02*
X151975000Y-108725000I-250000J0D01*
G01*
G37*
G36*
G01*
X151975000Y-110625000D02*
X151025000Y-110625000D01*
G75*
G02*
X150775000Y-110375000I0J250000D01*
G01*
X150775000Y-109875000D01*
G75*
G02*
X151025000Y-109625000I250000J0D01*
G01*
X151975000Y-109625000D01*
G75*
G02*
X152225000Y-109875000I0J-250000D01*
G01*
X152225000Y-110375000D01*
G75*
G02*
X151975000Y-110625000I-250000J0D01*
G01*
G37*
%TD*%
%TO.C,U1*%
G36*
G01*
X113545000Y-108200000D02*
X113845000Y-108200000D01*
G75*
G02*
X113995000Y-108350000I0J-150000D01*
G01*
X113995000Y-109700000D01*
G75*
G02*
X113845000Y-109850000I-150000J0D01*
G01*
X113545000Y-109850000D01*
G75*
G02*
X113395000Y-109700000I0J150000D01*
G01*
X113395000Y-108350000D01*
G75*
G02*
X113545000Y-108200000I150000J0D01*
G01*
G37*
G36*
G01*
X114815000Y-108200000D02*
X115115000Y-108200000D01*
G75*
G02*
X115265000Y-108350000I0J-150000D01*
G01*
X115265000Y-109700000D01*
G75*
G02*
X115115000Y-109850000I-150000J0D01*
G01*
X114815000Y-109850000D01*
G75*
G02*
X114665000Y-109700000I0J150000D01*
G01*
X114665000Y-108350000D01*
G75*
G02*
X114815000Y-108200000I150000J0D01*
G01*
G37*
G36*
G01*
X116085000Y-108200000D02*
X116385000Y-108200000D01*
G75*
G02*
X116535000Y-108350000I0J-150000D01*
G01*
X116535000Y-109700000D01*
G75*
G02*
X116385000Y-109850000I-150000J0D01*
G01*
X116085000Y-109850000D01*
G75*
G02*
X115935000Y-109700000I0J150000D01*
G01*
X115935000Y-108350000D01*
G75*
G02*
X116085000Y-108200000I150000J0D01*
G01*
G37*
G36*
G01*
X117355000Y-108200000D02*
X117655000Y-108200000D01*
G75*
G02*
X117805000Y-108350000I0J-150000D01*
G01*
X117805000Y-109700000D01*
G75*
G02*
X117655000Y-109850000I-150000J0D01*
G01*
X117355000Y-109850000D01*
G75*
G02*
X117205000Y-109700000I0J150000D01*
G01*
X117205000Y-108350000D01*
G75*
G02*
X117355000Y-108200000I150000J0D01*
G01*
G37*
G36*
G01*
X117355000Y-102950000D02*
X117655000Y-102950000D01*
G75*
G02*
X117805000Y-103100000I0J-150000D01*
G01*
X117805000Y-104450000D01*
G75*
G02*
X117655000Y-104600000I-150000J0D01*
G01*
X117355000Y-104600000D01*
G75*
G02*
X117205000Y-104450000I0J150000D01*
G01*
X117205000Y-103100000D01*
G75*
G02*
X117355000Y-102950000I150000J0D01*
G01*
G37*
G36*
G01*
X116085000Y-102950000D02*
X116385000Y-102950000D01*
G75*
G02*
X116535000Y-103100000I0J-150000D01*
G01*
X116535000Y-104450000D01*
G75*
G02*
X116385000Y-104600000I-150000J0D01*
G01*
X116085000Y-104600000D01*
G75*
G02*
X115935000Y-104450000I0J150000D01*
G01*
X115935000Y-103100000D01*
G75*
G02*
X116085000Y-102950000I150000J0D01*
G01*
G37*
G36*
G01*
X114815000Y-102950000D02*
X115115000Y-102950000D01*
G75*
G02*
X115265000Y-103100000I0J-150000D01*
G01*
X115265000Y-104450000D01*
G75*
G02*
X115115000Y-104600000I-150000J0D01*
G01*
X114815000Y-104600000D01*
G75*
G02*
X114665000Y-104450000I0J150000D01*
G01*
X114665000Y-103100000D01*
G75*
G02*
X114815000Y-102950000I150000J0D01*
G01*
G37*
G36*
G01*
X113545000Y-102950000D02*
X113845000Y-102950000D01*
G75*
G02*
X113995000Y-103100000I0J-150000D01*
G01*
X113995000Y-104450000D01*
G75*
G02*
X113845000Y-104600000I-150000J0D01*
G01*
X113545000Y-104600000D01*
G75*
G02*
X113395000Y-104450000I0J150000D01*
G01*
X113395000Y-103100000D01*
G75*
G02*
X113545000Y-102950000I150000J0D01*
G01*
G37*
%TD*%
D12*
%TO.C,D5*%
X155250000Y-110188300D03*
X155250000Y-106911700D03*
%TD*%
%TO.C,R3*%
G36*
G01*
X111850002Y-104200000D02*
X110949998Y-104200000D01*
G75*
G02*
X110700000Y-103950002I0J249998D01*
G01*
X110700000Y-103424998D01*
G75*
G02*
X110949998Y-103175000I249998J0D01*
G01*
X111850002Y-103175000D01*
G75*
G02*
X112100000Y-103424998I0J-249998D01*
G01*
X112100000Y-103950002D01*
G75*
G02*
X111850002Y-104200000I-249998J0D01*
G01*
G37*
G36*
G01*
X111850002Y-106025000D02*
X110949998Y-106025000D01*
G75*
G02*
X110700000Y-105775002I0J249998D01*
G01*
X110700000Y-105249998D01*
G75*
G02*
X110949998Y-105000000I249998J0D01*
G01*
X111850002Y-105000000D01*
G75*
G02*
X112100000Y-105249998I0J-249998D01*
G01*
X112100000Y-105775002D01*
G75*
G02*
X111850002Y-106025000I-249998J0D01*
G01*
G37*
%TD*%
%TO.C,R2*%
G36*
G01*
X128625000Y-118649998D02*
X128625000Y-119550002D01*
G75*
G02*
X128375002Y-119800000I-249998J0D01*
G01*
X127849998Y-119800000D01*
G75*
G02*
X127600000Y-119550002I0J249998D01*
G01*
X127600000Y-118649998D01*
G75*
G02*
X127849998Y-118400000I249998J0D01*
G01*
X128375002Y-118400000D01*
G75*
G02*
X128625000Y-118649998I0J-249998D01*
G01*
G37*
G36*
G01*
X130450000Y-118649998D02*
X130450000Y-119550002D01*
G75*
G02*
X130200002Y-119800000I-249998J0D01*
G01*
X129674998Y-119800000D01*
G75*
G02*
X129425000Y-119550002I0J249998D01*
G01*
X129425000Y-118649998D01*
G75*
G02*
X129674998Y-118400000I249998J0D01*
G01*
X130200002Y-118400000D01*
G75*
G02*
X130450000Y-118649998I0J-249998D01*
G01*
G37*
%TD*%
M02*
