%TF.GenerationSoftware,KiCad,Pcbnew,5.1.10-88a1d61d58~90~ubuntu20.04.1*%
%TF.CreationDate,2021-11-15T19:50:34+00:00*%
%TF.ProjectId,daughter_board,64617567-6874-4657-925f-626f6172642e,rev?*%
%TF.SameCoordinates,Original*%
%TF.FileFunction,Legend,Top*%
%TF.FilePolarity,Positive*%
%FSLAX46Y46*%
G04 Gerber Fmt 4.6, Leading zero omitted, Abs format (unit mm)*
G04 Created by KiCad (PCBNEW 5.1.10-88a1d61d58~90~ubuntu20.04.1) date 2021-11-15 19:50:34*
%MOMM*%
%LPD*%
G01*
G04 APERTURE LIST*
%ADD10C,0.300000*%
%ADD11C,0.120000*%
%ADD12C,0.127000*%
%ADD13C,0.200000*%
%ADD14C,0.250000*%
%ADD15C,0.150000*%
G04 APERTURE END LIST*
D10*
X126907142Y-128735714D02*
X126835714Y-128807142D01*
X126621428Y-128878571D01*
X126478571Y-128878571D01*
X126264285Y-128807142D01*
X126121428Y-128664285D01*
X126050000Y-128521428D01*
X125978571Y-128235714D01*
X125978571Y-128021428D01*
X126050000Y-127735714D01*
X126121428Y-127592857D01*
X126264285Y-127450000D01*
X126478571Y-127378571D01*
X126621428Y-127378571D01*
X126835714Y-127450000D01*
X126907142Y-127521428D01*
X128407142Y-128735714D02*
X128335714Y-128807142D01*
X128121428Y-128878571D01*
X127978571Y-128878571D01*
X127764285Y-128807142D01*
X127621428Y-128664285D01*
X127550000Y-128521428D01*
X127478571Y-128235714D01*
X127478571Y-128021428D01*
X127550000Y-127735714D01*
X127621428Y-127592857D01*
X127764285Y-127450000D01*
X127978571Y-127378571D01*
X128121428Y-127378571D01*
X128335714Y-127450000D01*
X128407142Y-127521428D01*
X128978571Y-127521428D02*
X129050000Y-127450000D01*
X129192857Y-127378571D01*
X129550000Y-127378571D01*
X129692857Y-127450000D01*
X129764285Y-127521428D01*
X129835714Y-127664285D01*
X129835714Y-127807142D01*
X129764285Y-128021428D01*
X128907142Y-128878571D01*
X129835714Y-128878571D01*
X131121428Y-127378571D02*
X130835714Y-127378571D01*
X130692857Y-127450000D01*
X130621428Y-127521428D01*
X130478571Y-127735714D01*
X130407142Y-128021428D01*
X130407142Y-128592857D01*
X130478571Y-128735714D01*
X130550000Y-128807142D01*
X130692857Y-128878571D01*
X130978571Y-128878571D01*
X131121428Y-128807142D01*
X131192857Y-128735714D01*
X131264285Y-128592857D01*
X131264285Y-128235714D01*
X131192857Y-128092857D01*
X131121428Y-128021428D01*
X130978571Y-127950000D01*
X130692857Y-127950000D01*
X130550000Y-128021428D01*
X130478571Y-128092857D01*
X130407142Y-128235714D01*
X132621428Y-127378571D02*
X131907142Y-127378571D01*
X131835714Y-128092857D01*
X131907142Y-128021428D01*
X132050000Y-127950000D01*
X132407142Y-127950000D01*
X132550000Y-128021428D01*
X132621428Y-128092857D01*
X132692857Y-128235714D01*
X132692857Y-128592857D01*
X132621428Y-128735714D01*
X132550000Y-128807142D01*
X132407142Y-128878571D01*
X132050000Y-128878571D01*
X131907142Y-128807142D01*
X131835714Y-128735714D01*
X133264285Y-127521428D02*
X133335714Y-127450000D01*
X133478571Y-127378571D01*
X133835714Y-127378571D01*
X133978571Y-127450000D01*
X134050000Y-127521428D01*
X134121428Y-127664285D01*
X134121428Y-127807142D01*
X134050000Y-128021428D01*
X133192857Y-128878571D01*
X134121428Y-128878571D01*
X135692857Y-127378571D02*
X136550000Y-127378571D01*
X136121428Y-128878571D02*
X136121428Y-127378571D01*
X137050000Y-128878571D02*
X137050000Y-127378571D01*
X137050000Y-128092857D02*
X137907142Y-128092857D01*
X137907142Y-128878571D02*
X137907142Y-127378571D01*
X139478571Y-128878571D02*
X138978571Y-128164285D01*
X138621428Y-128878571D02*
X138621428Y-127378571D01*
X139192857Y-127378571D01*
X139335714Y-127450000D01*
X139407142Y-127521428D01*
X139478571Y-127664285D01*
X139478571Y-127878571D01*
X139407142Y-128021428D01*
X139335714Y-128092857D01*
X139192857Y-128164285D01*
X138621428Y-128164285D01*
X140121428Y-128092857D02*
X140621428Y-128092857D01*
X140835714Y-128878571D02*
X140121428Y-128878571D01*
X140121428Y-127378571D01*
X140835714Y-127378571D01*
X141407142Y-128450000D02*
X142121428Y-128450000D01*
X141264285Y-128878571D02*
X141764285Y-127378571D01*
X142264285Y-128878571D01*
X142764285Y-128878571D02*
X142764285Y-127378571D01*
X143121428Y-127378571D01*
X143335714Y-127450000D01*
X143478571Y-127592857D01*
X143550000Y-127735714D01*
X143621428Y-128021428D01*
X143621428Y-128235714D01*
X143550000Y-128521428D01*
X143478571Y-128664285D01*
X143335714Y-128807142D01*
X143121428Y-128878571D01*
X142764285Y-128878571D01*
X145192857Y-127378571D02*
X145692857Y-128878571D01*
X146192857Y-127378571D01*
X147478571Y-128878571D02*
X146621428Y-128878571D01*
X147050000Y-128878571D02*
X147050000Y-127378571D01*
X146907142Y-127592857D01*
X146764285Y-127735714D01*
X146621428Y-127807142D01*
X148121428Y-128735714D02*
X148192857Y-128807142D01*
X148121428Y-128878571D01*
X148050000Y-128807142D01*
X148121428Y-128735714D01*
X148121428Y-128878571D01*
X149121428Y-127378571D02*
X149264285Y-127378571D01*
X149407142Y-127450000D01*
X149478571Y-127521428D01*
X149550000Y-127664285D01*
X149621428Y-127950000D01*
X149621428Y-128307142D01*
X149550000Y-128592857D01*
X149478571Y-128735714D01*
X149407142Y-128807142D01*
X149264285Y-128878571D01*
X149121428Y-128878571D01*
X148978571Y-128807142D01*
X148907142Y-128735714D01*
X148835714Y-128592857D01*
X148764285Y-128307142D01*
X148764285Y-127950000D01*
X148835714Y-127664285D01*
X148907142Y-127521428D01*
X148978571Y-127450000D01*
X149121428Y-127378571D01*
D11*
%TO.C,AHT10*%
X104470000Y-114530000D02*
X104470000Y-113200000D01*
X105800000Y-114530000D02*
X104470000Y-114530000D01*
X107070000Y-114530000D02*
X107070000Y-111870000D01*
X107070000Y-111870000D02*
X114750000Y-111870000D01*
X107070000Y-114530000D02*
X114750000Y-114530000D01*
X114750000Y-114530000D02*
X114750000Y-111870000D01*
D12*
%TO.C,J2*%
X104500000Y-125840000D02*
X104500000Y-125340000D01*
X104500000Y-125340000D02*
X104500000Y-120340000D01*
X104500000Y-120340000D02*
X104500000Y-119840000D01*
X104500000Y-119840000D02*
X107600000Y-119840000D01*
X110200000Y-119840000D02*
X119000000Y-119840000D01*
X119000000Y-119840000D02*
X119000000Y-125840000D01*
X104500000Y-125840000D02*
X105600000Y-125840000D01*
X108200000Y-125840000D02*
X114700000Y-125840000D01*
D13*
X103800000Y-126140000D02*
G75*
G03*
X103800000Y-126140000I-100000J0D01*
G01*
D12*
X117900000Y-125840000D02*
X119000000Y-125840000D01*
X104500000Y-120340000D02*
X102000000Y-120340000D01*
X102000000Y-120340000D02*
X102000000Y-125340000D01*
X102000000Y-125340000D02*
X104500000Y-125340000D01*
D11*
%TO.C,J5*%
X151380000Y-128090000D02*
X152630000Y-128090000D01*
X151380000Y-126840000D02*
X151380000Y-128090000D01*
X155790000Y-124730000D02*
X155290000Y-124730000D01*
X155290000Y-124630000D02*
X155790000Y-124630000D01*
X155290000Y-124830000D02*
X155290000Y-124630000D01*
X155790000Y-124830000D02*
X155290000Y-124830000D01*
X154290000Y-121670000D02*
X154290000Y-122280000D01*
X152990000Y-121670000D02*
X152990000Y-122280000D01*
X154290000Y-127790000D02*
X154290000Y-127180000D01*
X152990000Y-127790000D02*
X152990000Y-127180000D01*
X152290000Y-124230000D02*
X151680000Y-124230000D01*
X152290000Y-122280000D02*
X152290000Y-124230000D01*
X155790000Y-122280000D02*
X152290000Y-122280000D01*
X155790000Y-127180000D02*
X155790000Y-122280000D01*
X152290000Y-127180000D02*
X155790000Y-127180000D01*
X152290000Y-125230000D02*
X152290000Y-127180000D01*
X151680000Y-125230000D02*
X152290000Y-125230000D01*
X151580000Y-126030000D02*
X151580000Y-126330000D01*
X151480000Y-126330000D02*
X151680000Y-126330000D01*
X151480000Y-126030000D02*
X151480000Y-126330000D01*
X151680000Y-126030000D02*
X151480000Y-126030000D01*
X151680000Y-121670000D02*
X151680000Y-127790000D01*
X156400000Y-121670000D02*
X151680000Y-121670000D01*
X156400000Y-127790000D02*
X156400000Y-121670000D01*
X151680000Y-127790000D02*
X156400000Y-127790000D01*
%TO.C,R8*%
X121027064Y-130305000D02*
X120572936Y-130305000D01*
X121027064Y-131775000D02*
X120572936Y-131775000D01*
%TO.C,D6*%
X123700000Y-130670000D02*
X122900000Y-130670000D01*
X123700000Y-131970000D02*
X123700000Y-130670000D01*
X122900000Y-131970000D02*
X122900000Y-130670000D01*
%TO.C,SW3*%
X127280000Y-131420000D02*
X131780000Y-131420000D01*
X145520000Y-131420000D02*
X141020000Y-131420000D01*
X131780000Y-133140000D02*
X141020000Y-133140000D01*
X131780000Y-129700000D02*
X131780000Y-133140000D01*
X141020000Y-129700000D02*
X131780000Y-129700000D01*
X141020000Y-133140000D02*
X141020000Y-129700000D01*
%TO.C,R11*%
X121427064Y-127065000D02*
X120972936Y-127065000D01*
X121427064Y-128535000D02*
X120972936Y-128535000D01*
%TO.C,R10*%
X123227064Y-125065000D02*
X122772936Y-125065000D01*
X123227064Y-126535000D02*
X122772936Y-126535000D01*
%TO.C,J4*%
X133730000Y-121470000D02*
X133730000Y-122800000D01*
X132400000Y-121470000D02*
X133730000Y-121470000D01*
X131130000Y-121470000D02*
X131130000Y-124130000D01*
X131130000Y-124130000D02*
X125990000Y-124130000D01*
X131130000Y-121470000D02*
X125990000Y-121470000D01*
X125990000Y-121470000D02*
X125990000Y-124130000D01*
D14*
%TO.C,SW2*%
X154725000Y-106075000D02*
G75*
G03*
X154725000Y-106075000I-125000J0D01*
G01*
D15*
X157525000Y-102050000D02*
X157525000Y-103950000D01*
X156950000Y-102050000D02*
X157525000Y-102050000D01*
X156950000Y-103950000D02*
X157525000Y-103950000D01*
X156950000Y-102050000D02*
X156950000Y-101150000D01*
X156950000Y-104850000D02*
X156950000Y-103950000D01*
X153700000Y-101150000D02*
X153700000Y-104850000D01*
D14*
%TO.C,SW1*%
X154725000Y-114725000D02*
G75*
G03*
X154725000Y-114725000I-125000J0D01*
G01*
D15*
X157525000Y-110700000D02*
X157525000Y-112600000D01*
X156950000Y-110700000D02*
X157525000Y-110700000D01*
X156950000Y-112600000D02*
X157525000Y-112600000D01*
X156950000Y-110700000D02*
X156950000Y-109800000D01*
X156950000Y-113500000D02*
X156950000Y-112600000D01*
X153700000Y-109800000D02*
X153700000Y-113500000D01*
D11*
%TO.C,D3*%
X155525000Y-116540000D02*
G75*
G03*
X155525000Y-116540000I-125000J0D01*
G01*
X156250000Y-119065000D02*
X156250000Y-119315000D01*
X155150000Y-119065000D02*
X155150000Y-119315000D01*
%TO.C,D2*%
X104375000Y-106650000D02*
G75*
G03*
X104375000Y-106650000I-125000J0D01*
G01*
X103400000Y-104125000D02*
X103400000Y-103875000D01*
X104500000Y-104125000D02*
X104500000Y-103875000D01*
%TO.C,D1*%
X104375000Y-111250000D02*
G75*
G03*
X104375000Y-111250000I-125000J0D01*
G01*
X103400000Y-108725000D02*
X103400000Y-108475000D01*
X104500000Y-108725000D02*
X104500000Y-108475000D01*
%TO.C,R1*%
X150177064Y-104865000D02*
X149722936Y-104865000D01*
X150177064Y-106335000D02*
X149722936Y-106335000D01*
%TO.C,C3*%
X150161252Y-107040000D02*
X149638748Y-107040000D01*
X150161252Y-108510000D02*
X149638748Y-108510000D01*
%TO.C,FB1*%
X149404724Y-101627500D02*
X148895276Y-101627500D01*
X149404724Y-102672500D02*
X148895276Y-102672500D01*
%TO.C,J3*%
X150610000Y-116725000D02*
X149787530Y-116725000D01*
X147902470Y-116725000D02*
X147080000Y-116725000D01*
X149172470Y-116725000D02*
X148517530Y-116725000D01*
X150610000Y-121740000D02*
X150610000Y-116725000D01*
X147080000Y-123195000D02*
X147080000Y-116725000D01*
X150610000Y-121740000D02*
X150043471Y-121740000D01*
X148916529Y-121740000D02*
X148773471Y-121740000D01*
X148720000Y-121793471D02*
X148720000Y-121936529D01*
X148720000Y-123063471D02*
X148720000Y-123195000D01*
X148720000Y-123195000D02*
X148517530Y-123195000D01*
X147902470Y-123195000D02*
X147080000Y-123195000D01*
X150610000Y-122500000D02*
X150610000Y-123260000D01*
X150610000Y-123260000D02*
X149480000Y-123260000D01*
%TO.C,R7*%
X152565000Y-118477064D02*
X152565000Y-118022936D01*
X154035000Y-118477064D02*
X154035000Y-118022936D01*
%TO.C,R6*%
X105865000Y-103827064D02*
X105865000Y-103372936D01*
X107335000Y-103827064D02*
X107335000Y-103372936D01*
%TO.C,R5*%
X107335000Y-108085436D02*
X107335000Y-108539564D01*
X105865000Y-108085436D02*
X105865000Y-108539564D01*
%TO.C,R4*%
X150177064Y-100210000D02*
X149722936Y-100210000D01*
X150177064Y-98740000D02*
X149722936Y-98740000D01*
%TO.C,J1*%
X118975000Y-101230000D02*
X118975000Y-98570000D01*
X111295000Y-101230000D02*
X118975000Y-101230000D01*
X111295000Y-98570000D02*
X118975000Y-98570000D01*
X111295000Y-101230000D02*
X111295000Y-98570000D01*
X110025000Y-101230000D02*
X108695000Y-101230000D01*
X108695000Y-101230000D02*
X108695000Y-99900000D01*
%TO.C,C2*%
X145640000Y-101511252D02*
X145640000Y-100988748D01*
X147110000Y-101511252D02*
X147110000Y-100988748D01*
%TO.C,U3*%
X124330000Y-114710000D02*
X124350000Y-90750000D01*
X124350000Y-90750000D02*
X141350000Y-90750000D01*
X124330000Y-114710000D02*
X124330000Y-115310000D01*
X124330000Y-115310000D02*
X141330000Y-115310000D01*
X141330000Y-115310000D02*
X141350000Y-90750000D01*
%TO.C,AHT10*%
D15*
X108704761Y-116166666D02*
X109180952Y-116166666D01*
X108609523Y-116452380D02*
X108942857Y-115452380D01*
X109276190Y-116452380D01*
X109609523Y-116452380D02*
X109609523Y-115452380D01*
X109609523Y-115928571D02*
X110180952Y-115928571D01*
X110180952Y-116452380D02*
X110180952Y-115452380D01*
X110514285Y-115452380D02*
X111085714Y-115452380D01*
X110800000Y-116452380D02*
X110800000Y-115452380D01*
X111942857Y-116452380D02*
X111371428Y-116452380D01*
X111657142Y-116452380D02*
X111657142Y-115452380D01*
X111561904Y-115595238D01*
X111466666Y-115690476D01*
X111371428Y-115738095D01*
X112561904Y-115452380D02*
X112657142Y-115452380D01*
X112752380Y-115500000D01*
X112800000Y-115547619D01*
X112847619Y-115642857D01*
X112895238Y-115833333D01*
X112895238Y-116071428D01*
X112847619Y-116261904D01*
X112800000Y-116357142D01*
X112752380Y-116404761D01*
X112657142Y-116452380D01*
X112561904Y-116452380D01*
X112466666Y-116404761D01*
X112419047Y-116357142D01*
X112371428Y-116261904D01*
X112323809Y-116071428D01*
X112323809Y-115833333D01*
X112371428Y-115642857D01*
X112419047Y-115547619D01*
X112466666Y-115500000D01*
X112561904Y-115452380D01*
%TO.C,J2*%
X105266102Y-118251453D02*
X105266102Y-118966948D01*
X105218402Y-119110047D01*
X105123003Y-119205447D01*
X104979904Y-119253146D01*
X104884505Y-119253146D01*
X105695399Y-118346853D02*
X105743099Y-118299153D01*
X105838498Y-118251453D01*
X106076996Y-118251453D01*
X106172396Y-118299153D01*
X106220095Y-118346853D01*
X106267795Y-118442252D01*
X106267795Y-118537651D01*
X106220095Y-118680750D01*
X105647699Y-119253146D01*
X106267795Y-119253146D01*
%TO.C,J5*%
X150052380Y-126333333D02*
X150766666Y-126333333D01*
X150909523Y-126380952D01*
X151004761Y-126476190D01*
X151052380Y-126619047D01*
X151052380Y-126714285D01*
X150052380Y-125380952D02*
X150052380Y-125857142D01*
X150528571Y-125904761D01*
X150480952Y-125857142D01*
X150433333Y-125761904D01*
X150433333Y-125523809D01*
X150480952Y-125428571D01*
X150528571Y-125380952D01*
X150623809Y-125333333D01*
X150861904Y-125333333D01*
X150957142Y-125380952D01*
X151004761Y-125428571D01*
X151052380Y-125523809D01*
X151052380Y-125761904D01*
X151004761Y-125857142D01*
X150957142Y-125904761D01*
%TO.C,R12*%
X114852380Y-131442857D02*
X114376190Y-131776190D01*
X114852380Y-132014285D02*
X113852380Y-132014285D01*
X113852380Y-131633333D01*
X113900000Y-131538095D01*
X113947619Y-131490476D01*
X114042857Y-131442857D01*
X114185714Y-131442857D01*
X114280952Y-131490476D01*
X114328571Y-131538095D01*
X114376190Y-131633333D01*
X114376190Y-132014285D01*
X114852380Y-130490476D02*
X114852380Y-131061904D01*
X114852380Y-130776190D02*
X113852380Y-130776190D01*
X113995238Y-130871428D01*
X114090476Y-130966666D01*
X114138095Y-131061904D01*
X113947619Y-130109523D02*
X113900000Y-130061904D01*
X113852380Y-129966666D01*
X113852380Y-129728571D01*
X113900000Y-129633333D01*
X113947619Y-129585714D01*
X114042857Y-129538095D01*
X114138095Y-129538095D01*
X114280952Y-129585714D01*
X114852380Y-130157142D01*
X114852380Y-129538095D01*
%TO.C,R8*%
X120633333Y-133142380D02*
X120300000Y-132666190D01*
X120061904Y-133142380D02*
X120061904Y-132142380D01*
X120442857Y-132142380D01*
X120538095Y-132190000D01*
X120585714Y-132237619D01*
X120633333Y-132332857D01*
X120633333Y-132475714D01*
X120585714Y-132570952D01*
X120538095Y-132618571D01*
X120442857Y-132666190D01*
X120061904Y-132666190D01*
X121204761Y-132570952D02*
X121109523Y-132523333D01*
X121061904Y-132475714D01*
X121014285Y-132380476D01*
X121014285Y-132332857D01*
X121061904Y-132237619D01*
X121109523Y-132190000D01*
X121204761Y-132142380D01*
X121395238Y-132142380D01*
X121490476Y-132190000D01*
X121538095Y-132237619D01*
X121585714Y-132332857D01*
X121585714Y-132380476D01*
X121538095Y-132475714D01*
X121490476Y-132523333D01*
X121395238Y-132570952D01*
X121204761Y-132570952D01*
X121109523Y-132618571D01*
X121061904Y-132666190D01*
X121014285Y-132761428D01*
X121014285Y-132951904D01*
X121061904Y-133047142D01*
X121109523Y-133094761D01*
X121204761Y-133142380D01*
X121395238Y-133142380D01*
X121490476Y-133094761D01*
X121538095Y-133047142D01*
X121585714Y-132951904D01*
X121585714Y-132761428D01*
X121538095Y-132666190D01*
X121490476Y-132618571D01*
X121395238Y-132570952D01*
%TO.C,D6*%
X124952380Y-132208095D02*
X123952380Y-132208095D01*
X123952380Y-131970000D01*
X124000000Y-131827142D01*
X124095238Y-131731904D01*
X124190476Y-131684285D01*
X124380952Y-131636666D01*
X124523809Y-131636666D01*
X124714285Y-131684285D01*
X124809523Y-131731904D01*
X124904761Y-131827142D01*
X124952380Y-131970000D01*
X124952380Y-132208095D01*
X123952380Y-130779523D02*
X123952380Y-130970000D01*
X124000000Y-131065238D01*
X124047619Y-131112857D01*
X124190476Y-131208095D01*
X124380952Y-131255714D01*
X124761904Y-131255714D01*
X124857142Y-131208095D01*
X124904761Y-131160476D01*
X124952380Y-131065238D01*
X124952380Y-130874761D01*
X124904761Y-130779523D01*
X124857142Y-130731904D01*
X124761904Y-130684285D01*
X124523809Y-130684285D01*
X124428571Y-130731904D01*
X124380952Y-130779523D01*
X124333333Y-130874761D01*
X124333333Y-131065238D01*
X124380952Y-131160476D01*
X124428571Y-131208095D01*
X124523809Y-131255714D01*
%TO.C,SW3*%
X135266666Y-131804761D02*
X135409523Y-131852380D01*
X135647619Y-131852380D01*
X135742857Y-131804761D01*
X135790476Y-131757142D01*
X135838095Y-131661904D01*
X135838095Y-131566666D01*
X135790476Y-131471428D01*
X135742857Y-131423809D01*
X135647619Y-131376190D01*
X135457142Y-131328571D01*
X135361904Y-131280952D01*
X135314285Y-131233333D01*
X135266666Y-131138095D01*
X135266666Y-131042857D01*
X135314285Y-130947619D01*
X135361904Y-130900000D01*
X135457142Y-130852380D01*
X135695238Y-130852380D01*
X135838095Y-130900000D01*
X136171428Y-130852380D02*
X136409523Y-131852380D01*
X136600000Y-131138095D01*
X136790476Y-131852380D01*
X137028571Y-130852380D01*
X137314285Y-130852380D02*
X137933333Y-130852380D01*
X137600000Y-131233333D01*
X137742857Y-131233333D01*
X137838095Y-131280952D01*
X137885714Y-131328571D01*
X137933333Y-131423809D01*
X137933333Y-131661904D01*
X137885714Y-131757142D01*
X137838095Y-131804761D01*
X137742857Y-131852380D01*
X137457142Y-131852380D01*
X137361904Y-131804761D01*
X137314285Y-131757142D01*
%TO.C,R11*%
X120557142Y-129652380D02*
X120223809Y-129176190D01*
X119985714Y-129652380D02*
X119985714Y-128652380D01*
X120366666Y-128652380D01*
X120461904Y-128700000D01*
X120509523Y-128747619D01*
X120557142Y-128842857D01*
X120557142Y-128985714D01*
X120509523Y-129080952D01*
X120461904Y-129128571D01*
X120366666Y-129176190D01*
X119985714Y-129176190D01*
X121509523Y-129652380D02*
X120938095Y-129652380D01*
X121223809Y-129652380D02*
X121223809Y-128652380D01*
X121128571Y-128795238D01*
X121033333Y-128890476D01*
X120938095Y-128938095D01*
X122461904Y-129652380D02*
X121890476Y-129652380D01*
X122176190Y-129652380D02*
X122176190Y-128652380D01*
X122080952Y-128795238D01*
X121985714Y-128890476D01*
X121890476Y-128938095D01*
%TO.C,R10*%
X122957142Y-124652380D02*
X122623809Y-124176190D01*
X122385714Y-124652380D02*
X122385714Y-123652380D01*
X122766666Y-123652380D01*
X122861904Y-123700000D01*
X122909523Y-123747619D01*
X122957142Y-123842857D01*
X122957142Y-123985714D01*
X122909523Y-124080952D01*
X122861904Y-124128571D01*
X122766666Y-124176190D01*
X122385714Y-124176190D01*
X123909523Y-124652380D02*
X123338095Y-124652380D01*
X123623809Y-124652380D02*
X123623809Y-123652380D01*
X123528571Y-123795238D01*
X123433333Y-123890476D01*
X123338095Y-123938095D01*
X124528571Y-123652380D02*
X124623809Y-123652380D01*
X124719047Y-123700000D01*
X124766666Y-123747619D01*
X124814285Y-123842857D01*
X124861904Y-124033333D01*
X124861904Y-124271428D01*
X124814285Y-124461904D01*
X124766666Y-124557142D01*
X124719047Y-124604761D01*
X124623809Y-124652380D01*
X124528571Y-124652380D01*
X124433333Y-124604761D01*
X124385714Y-124557142D01*
X124338095Y-124461904D01*
X124290476Y-124271428D01*
X124290476Y-124033333D01*
X124338095Y-123842857D01*
X124385714Y-123747619D01*
X124433333Y-123700000D01*
X124528571Y-123652380D01*
%TO.C,J4*%
X132236666Y-120102380D02*
X132236666Y-120816666D01*
X132189047Y-120959523D01*
X132093809Y-121054761D01*
X131950952Y-121102380D01*
X131855714Y-121102380D01*
X133141428Y-120435714D02*
X133141428Y-121102380D01*
X132903333Y-120054761D02*
X132665238Y-120769047D01*
X133284285Y-120769047D01*
%TO.C,SW2*%
X153231904Y-104671309D02*
X153270952Y-104554166D01*
X153270952Y-104358928D01*
X153231904Y-104280833D01*
X153192857Y-104241785D01*
X153114761Y-104202738D01*
X153036666Y-104202738D01*
X152958571Y-104241785D01*
X152919523Y-104280833D01*
X152880476Y-104358928D01*
X152841428Y-104515119D01*
X152802380Y-104593214D01*
X152763333Y-104632261D01*
X152685238Y-104671309D01*
X152607142Y-104671309D01*
X152529047Y-104632261D01*
X152490000Y-104593214D01*
X152450952Y-104515119D01*
X152450952Y-104319880D01*
X152490000Y-104202738D01*
X152450952Y-103929404D02*
X153270952Y-103734166D01*
X152685238Y-103577976D01*
X153270952Y-103421785D01*
X152450952Y-103226547D01*
X152529047Y-102953214D02*
X152490000Y-102914166D01*
X152450952Y-102836071D01*
X152450952Y-102640833D01*
X152490000Y-102562738D01*
X152529047Y-102523690D01*
X152607142Y-102484642D01*
X152685238Y-102484642D01*
X152802380Y-102523690D01*
X153270952Y-102992261D01*
X153270952Y-102484642D01*
%TO.C,SW1*%
X153531904Y-112746309D02*
X153570952Y-112629166D01*
X153570952Y-112433928D01*
X153531904Y-112355833D01*
X153492857Y-112316785D01*
X153414761Y-112277738D01*
X153336666Y-112277738D01*
X153258571Y-112316785D01*
X153219523Y-112355833D01*
X153180476Y-112433928D01*
X153141428Y-112590119D01*
X153102380Y-112668214D01*
X153063333Y-112707261D01*
X152985238Y-112746309D01*
X152907142Y-112746309D01*
X152829047Y-112707261D01*
X152790000Y-112668214D01*
X152750952Y-112590119D01*
X152750952Y-112394880D01*
X152790000Y-112277738D01*
X152750952Y-112004404D02*
X153570952Y-111809166D01*
X152985238Y-111652976D01*
X153570952Y-111496785D01*
X152750952Y-111301547D01*
X153570952Y-110559642D02*
X153570952Y-111028214D01*
X153570952Y-110793928D02*
X152750952Y-110793928D01*
X152868095Y-110872023D01*
X152946190Y-110950119D01*
X152985238Y-111028214D01*
%TO.C,D3*%
X154570952Y-121307261D02*
X153750952Y-121307261D01*
X153750952Y-121112023D01*
X153790000Y-120994880D01*
X153868095Y-120916785D01*
X153946190Y-120877738D01*
X154102380Y-120838690D01*
X154219523Y-120838690D01*
X154375714Y-120877738D01*
X154453809Y-120916785D01*
X154531904Y-120994880D01*
X154570952Y-121112023D01*
X154570952Y-121307261D01*
X153750952Y-120565357D02*
X153750952Y-120057738D01*
X154063333Y-120331071D01*
X154063333Y-120213928D01*
X154102380Y-120135833D01*
X154141428Y-120096785D01*
X154219523Y-120057738D01*
X154414761Y-120057738D01*
X154492857Y-120096785D01*
X154531904Y-120135833D01*
X154570952Y-120213928D01*
X154570952Y-120448214D01*
X154531904Y-120526309D01*
X154492857Y-120565357D01*
%TO.C,D2*%
X104770952Y-101107261D02*
X103950952Y-101107261D01*
X103950952Y-100912023D01*
X103990000Y-100794880D01*
X104068095Y-100716785D01*
X104146190Y-100677738D01*
X104302380Y-100638690D01*
X104419523Y-100638690D01*
X104575714Y-100677738D01*
X104653809Y-100716785D01*
X104731904Y-100794880D01*
X104770952Y-100912023D01*
X104770952Y-101107261D01*
X104029047Y-100326309D02*
X103990000Y-100287261D01*
X103950952Y-100209166D01*
X103950952Y-100013928D01*
X103990000Y-99935833D01*
X104029047Y-99896785D01*
X104107142Y-99857738D01*
X104185238Y-99857738D01*
X104302380Y-99896785D01*
X104770952Y-100365357D01*
X104770952Y-99857738D01*
%TO.C,D1*%
X104570952Y-112307261D02*
X103750952Y-112307261D01*
X103750952Y-112112023D01*
X103790000Y-111994880D01*
X103868095Y-111916785D01*
X103946190Y-111877738D01*
X104102380Y-111838690D01*
X104219523Y-111838690D01*
X104375714Y-111877738D01*
X104453809Y-111916785D01*
X104531904Y-111994880D01*
X104570952Y-112112023D01*
X104570952Y-112307261D01*
X104570952Y-111057738D02*
X104570952Y-111526309D01*
X104570952Y-111292023D02*
X103750952Y-111292023D01*
X103868095Y-111370119D01*
X103946190Y-111448214D01*
X103985238Y-111526309D01*
%TO.C,R1*%
X148220952Y-105661666D02*
X147830476Y-105935000D01*
X148220952Y-106130238D02*
X147400952Y-106130238D01*
X147400952Y-105817857D01*
X147440000Y-105739761D01*
X147479047Y-105700714D01*
X147557142Y-105661666D01*
X147674285Y-105661666D01*
X147752380Y-105700714D01*
X147791428Y-105739761D01*
X147830476Y-105817857D01*
X147830476Y-106130238D01*
X148220952Y-104880714D02*
X148220952Y-105349285D01*
X148220952Y-105115000D02*
X147400952Y-105115000D01*
X147518095Y-105193095D01*
X147596190Y-105271190D01*
X147635238Y-105349285D01*
%TO.C,C3*%
X148017857Y-107911666D02*
X148056904Y-107950714D01*
X148095952Y-108067857D01*
X148095952Y-108145952D01*
X148056904Y-108263095D01*
X147978809Y-108341190D01*
X147900714Y-108380238D01*
X147744523Y-108419285D01*
X147627380Y-108419285D01*
X147471190Y-108380238D01*
X147393095Y-108341190D01*
X147315000Y-108263095D01*
X147275952Y-108145952D01*
X147275952Y-108067857D01*
X147315000Y-107950714D01*
X147354047Y-107911666D01*
X147275952Y-107638333D02*
X147275952Y-107130714D01*
X147588333Y-107404047D01*
X147588333Y-107286904D01*
X147627380Y-107208809D01*
X147666428Y-107169761D01*
X147744523Y-107130714D01*
X147939761Y-107130714D01*
X148017857Y-107169761D01*
X148056904Y-107208809D01*
X148095952Y-107286904D01*
X148095952Y-107521190D01*
X148056904Y-107599285D01*
X148017857Y-107638333D01*
%TO.C,FB1*%
X148466666Y-100966428D02*
X148193333Y-100966428D01*
X148193333Y-101395952D02*
X148193333Y-100575952D01*
X148583809Y-100575952D01*
X149169523Y-100966428D02*
X149286666Y-101005476D01*
X149325714Y-101044523D01*
X149364761Y-101122619D01*
X149364761Y-101239761D01*
X149325714Y-101317857D01*
X149286666Y-101356904D01*
X149208571Y-101395952D01*
X148896190Y-101395952D01*
X148896190Y-100575952D01*
X149169523Y-100575952D01*
X149247619Y-100615000D01*
X149286666Y-100654047D01*
X149325714Y-100732142D01*
X149325714Y-100810238D01*
X149286666Y-100888333D01*
X149247619Y-100927380D01*
X149169523Y-100966428D01*
X148896190Y-100966428D01*
X150145714Y-101395952D02*
X149677142Y-101395952D01*
X149911428Y-101395952D02*
X149911428Y-100575952D01*
X149833333Y-100693095D01*
X149755238Y-100771190D01*
X149677142Y-100810238D01*
%TO.C,D4*%
X150970952Y-112805238D02*
X150150952Y-112805238D01*
X150150952Y-112610000D01*
X150190000Y-112492857D01*
X150268095Y-112414761D01*
X150346190Y-112375714D01*
X150502380Y-112336666D01*
X150619523Y-112336666D01*
X150775714Y-112375714D01*
X150853809Y-112414761D01*
X150931904Y-112492857D01*
X150970952Y-112610000D01*
X150970952Y-112805238D01*
X150424285Y-111633809D02*
X150970952Y-111633809D01*
X150111904Y-111829047D02*
X150697619Y-112024285D01*
X150697619Y-111516666D01*
%TO.C,J3*%
X148571666Y-123745952D02*
X148571666Y-124331666D01*
X148532619Y-124448809D01*
X148454523Y-124526904D01*
X148337380Y-124565952D01*
X148259285Y-124565952D01*
X148884047Y-123745952D02*
X149391666Y-123745952D01*
X149118333Y-124058333D01*
X149235476Y-124058333D01*
X149313571Y-124097380D01*
X149352619Y-124136428D01*
X149391666Y-124214523D01*
X149391666Y-124409761D01*
X149352619Y-124487857D01*
X149313571Y-124526904D01*
X149235476Y-124565952D01*
X149001190Y-124565952D01*
X148923095Y-124526904D01*
X148884047Y-124487857D01*
%TO.C,R7*%
X152170952Y-118536666D02*
X151780476Y-118810000D01*
X152170952Y-119005238D02*
X151350952Y-119005238D01*
X151350952Y-118692857D01*
X151390000Y-118614761D01*
X151429047Y-118575714D01*
X151507142Y-118536666D01*
X151624285Y-118536666D01*
X151702380Y-118575714D01*
X151741428Y-118614761D01*
X151780476Y-118692857D01*
X151780476Y-119005238D01*
X151350952Y-118263333D02*
X151350952Y-117716666D01*
X152170952Y-118068095D01*
%TO.C,R6*%
X108570952Y-103736666D02*
X108180476Y-104010000D01*
X108570952Y-104205238D02*
X107750952Y-104205238D01*
X107750952Y-103892857D01*
X107790000Y-103814761D01*
X107829047Y-103775714D01*
X107907142Y-103736666D01*
X108024285Y-103736666D01*
X108102380Y-103775714D01*
X108141428Y-103814761D01*
X108180476Y-103892857D01*
X108180476Y-104205238D01*
X107750952Y-103033809D02*
X107750952Y-103190000D01*
X107790000Y-103268095D01*
X107829047Y-103307142D01*
X107946190Y-103385238D01*
X108102380Y-103424285D01*
X108414761Y-103424285D01*
X108492857Y-103385238D01*
X108531904Y-103346190D01*
X108570952Y-103268095D01*
X108570952Y-103111904D01*
X108531904Y-103033809D01*
X108492857Y-102994761D01*
X108414761Y-102955714D01*
X108219523Y-102955714D01*
X108141428Y-102994761D01*
X108102380Y-103033809D01*
X108063333Y-103111904D01*
X108063333Y-103268095D01*
X108102380Y-103346190D01*
X108141428Y-103385238D01*
X108219523Y-103424285D01*
%TO.C,R5*%
X108570952Y-108336666D02*
X108180476Y-108610000D01*
X108570952Y-108805238D02*
X107750952Y-108805238D01*
X107750952Y-108492857D01*
X107790000Y-108414761D01*
X107829047Y-108375714D01*
X107907142Y-108336666D01*
X108024285Y-108336666D01*
X108102380Y-108375714D01*
X108141428Y-108414761D01*
X108180476Y-108492857D01*
X108180476Y-108805238D01*
X107750952Y-107594761D02*
X107750952Y-107985238D01*
X108141428Y-108024285D01*
X108102380Y-107985238D01*
X108063333Y-107907142D01*
X108063333Y-107711904D01*
X108102380Y-107633809D01*
X108141428Y-107594761D01*
X108219523Y-107555714D01*
X108414761Y-107555714D01*
X108492857Y-107594761D01*
X108531904Y-107633809D01*
X108570952Y-107711904D01*
X108570952Y-107907142D01*
X108531904Y-107985238D01*
X108492857Y-108024285D01*
%TO.C,R4*%
X152063333Y-99770952D02*
X151790000Y-99380476D01*
X151594761Y-99770952D02*
X151594761Y-98950952D01*
X151907142Y-98950952D01*
X151985238Y-98990000D01*
X152024285Y-99029047D01*
X152063333Y-99107142D01*
X152063333Y-99224285D01*
X152024285Y-99302380D01*
X151985238Y-99341428D01*
X151907142Y-99380476D01*
X151594761Y-99380476D01*
X152766190Y-99224285D02*
X152766190Y-99770952D01*
X152570952Y-98911904D02*
X152375714Y-99497619D01*
X152883333Y-99497619D01*
%TO.C,J1*%
X109626666Y-101725952D02*
X109626666Y-102311666D01*
X109587619Y-102428809D01*
X109509523Y-102506904D01*
X109392380Y-102545952D01*
X109314285Y-102545952D01*
X110446666Y-102545952D02*
X109978095Y-102545952D01*
X110212380Y-102545952D02*
X110212380Y-101725952D01*
X110134285Y-101843095D01*
X110056190Y-101921190D01*
X109978095Y-101960238D01*
%TO.C,C2*%
X146063333Y-103492857D02*
X146024285Y-103531904D01*
X145907142Y-103570952D01*
X145829047Y-103570952D01*
X145711904Y-103531904D01*
X145633809Y-103453809D01*
X145594761Y-103375714D01*
X145555714Y-103219523D01*
X145555714Y-103102380D01*
X145594761Y-102946190D01*
X145633809Y-102868095D01*
X145711904Y-102790000D01*
X145829047Y-102750952D01*
X145907142Y-102750952D01*
X146024285Y-102790000D01*
X146063333Y-102829047D01*
X146375714Y-102829047D02*
X146414761Y-102790000D01*
X146492857Y-102750952D01*
X146688095Y-102750952D01*
X146766190Y-102790000D01*
X146805238Y-102829047D01*
X146844285Y-102907142D01*
X146844285Y-102985238D01*
X146805238Y-103102380D01*
X146336666Y-103570952D01*
X146844285Y-103570952D01*
%TO.C,U3*%
X132195238Y-101020952D02*
X132195238Y-101684761D01*
X132234285Y-101762857D01*
X132273333Y-101801904D01*
X132351428Y-101840952D01*
X132507619Y-101840952D01*
X132585714Y-101801904D01*
X132624761Y-101762857D01*
X132663809Y-101684761D01*
X132663809Y-101020952D01*
X132976190Y-101020952D02*
X133483809Y-101020952D01*
X133210476Y-101333333D01*
X133327619Y-101333333D01*
X133405714Y-101372380D01*
X133444761Y-101411428D01*
X133483809Y-101489523D01*
X133483809Y-101684761D01*
X133444761Y-101762857D01*
X133405714Y-101801904D01*
X133327619Y-101840952D01*
X133093333Y-101840952D01*
X133015238Y-101801904D01*
X132976190Y-101762857D01*
%TD*%
M02*
