M48
; DRILL file {KiCad 5.1.10-88a1d61d58~90~ubuntu20.04.1} date Mon Nov 15 19:50:31 2021
; FORMAT={-:-/ absolute / inch / decimal}
; #@! TF.CreationDate,2021-11-15T19:50:31+00:00
; #@! TF.GenerationSoftware,Kicad,Pcbnew,5.1.10-88a1d61d58~90~ubuntu20.04.1
; #@! TF.FileFunction,Plated,1,4,PTH
FMAT,2
INCH
T1C0.0157
T2C0.0256
T3C0.0295
T4C0.0315
T5C0.0394
T6C0.1063
%
G90
G05
T1
X4.1732Y-3.9528
X4.1811Y-4.1732
X4.2362Y-4.3543
X4.3543Y-4.874
X4.3858Y-4.3543
X4.3858Y-5.1575
X4.4094Y-4.0157
X4.4567Y-5.0079
X4.4882Y-4.1732
X4.5276Y-4.6614
X4.5748Y-4.3543
X4.6287Y-4.7114
X4.6299Y-4.3543
X4.6378Y-4.5197
X4.685Y-4.1024
X4.685Y-4.1811
X4.7244Y-4.1811
X4.7323Y-4.9528
X4.7362Y-3.9252
X4.7567Y-4.3
X4.8543Y-5.0854
X4.8784Y-4.9011
X4.8976Y-4.7953
X4.9528Y-5.0157
X4.9724Y-4.063
X4.9783Y-4.689
X5.0157Y-3.9626
X5.0709Y-4.2402
X5.0856Y-4.373
X5.0945Y-4.9764
X5.2067Y-4.1496
X5.2457Y-5.1807
X5.3228Y-4.9764
X5.3386Y-3.9902
X5.3386Y-4.8319
X5.372Y-4.373
X5.4557Y-4.6663
X5.4724Y-4.2756
X5.4823Y-4.126
X5.4969Y-5.1685
X5.5039Y-3.9488
X5.513Y-4.9752
X5.5791Y-4.8374
X5.5984Y-5.1024
X5.6795Y-4.6484
X5.6795Y-4.8421
X5.7047Y-4.0659
X5.7138Y-4.6138
X5.7531Y-4.6386
X5.7531Y-4.8677
X5.7713Y-4.3917
X5.7795Y-4.9976
X5.7874Y-4.4602
X5.8228Y-3.9685
X5.874Y-4.0945
X5.8787Y-4.4602
X5.8972Y-5.1673
X5.9791Y-4.3988
X5.9921Y-4.748
X6.001Y-4.06
X6.002Y-3.9596
X6.0551Y-4.2047
X6.0913Y-4.5776
X6.1289Y-4.5423
T2
X5.835Y-4.6228
X5.835Y-4.6728
X5.835Y-4.7228
X5.835Y-4.7728
X5.835Y-4.8228
X5.885Y-4.6228
X5.885Y-4.6728
X5.885Y-4.7228
X5.885Y-4.7728
X5.885Y-4.8228
T3
X6.0429Y-4.8713
X6.0429Y-4.95
T4
X4.9701Y-5.174
X5.7701Y-5.174
T5
X4.1654Y-4.4567
X4.2654Y-4.4567
X4.3317Y-3.9331
X4.3654Y-4.4567
X4.4317Y-3.9331
X4.4654Y-4.4567
X4.5317Y-3.9331
X4.6317Y-3.9331
X5.0126Y-4.8346
X5.1126Y-4.8346
X5.2126Y-4.8346
T6
X4.1732Y-3.7035
X4.1732Y-5.1575
X6.0618Y-5.161
X6.0622Y-3.7028
T0
M30
