%TF.GenerationSoftware,KiCad,Pcbnew,5.1.10-88a1d61d58~90~ubuntu20.04.1*%
%TF.CreationDate,2021-11-15T19:50:34+00:00*%
%TF.ProjectId,daughter_board,64617567-6874-4657-925f-626f6172642e,rev?*%
%TF.SameCoordinates,Original*%
%TF.FileFunction,Copper,L1,Top*%
%TF.FilePolarity,Positive*%
%FSLAX46Y46*%
G04 Gerber Fmt 4.6, Leading zero omitted, Abs format (unit mm)*
G04 Created by KiCad (PCBNEW 5.1.10-88a1d61d58~90~ubuntu20.04.1) date 2021-11-15 19:50:34*
%MOMM*%
%LPD*%
G01*
G04 APERTURE LIST*
%TA.AperFunction,ComponentPad*%
%ADD10O,1.700000X1.700000*%
%TD*%
%TA.AperFunction,ComponentPad*%
%ADD11R,1.700000X1.700000*%
%TD*%
%TA.AperFunction,SMDPad,CuDef*%
%ADD12R,2.600000X2.800000*%
%TD*%
%TA.AperFunction,SMDPad,CuDef*%
%ADD13R,2.200000X2.800000*%
%TD*%
%TA.AperFunction,SMDPad,CuDef*%
%ADD14R,2.800000X2.800000*%
%TD*%
%TA.AperFunction,ComponentPad*%
%ADD15O,1.750000X1.200000*%
%TD*%
%TA.AperFunction,SMDPad,CuDef*%
%ADD16R,0.990000X3.610000*%
%TD*%
%TA.AperFunction,SMDPad,CuDef*%
%ADD17R,0.250000X0.360000*%
%TD*%
%TA.AperFunction,ComponentPad*%
%ADD18O,1.600000X1.600000*%
%TD*%
%TA.AperFunction,ComponentPad*%
%ADD19C,1.600000*%
%TD*%
%TA.AperFunction,ComponentPad*%
%ADD20C,4.700000*%
%TD*%
%TA.AperFunction,SMDPad,CuDef*%
%ADD21R,1.050000X1.400000*%
%TD*%
%TA.AperFunction,SMDPad,CuDef*%
%ADD22R,1.000000X1.500000*%
%TD*%
%TA.AperFunction,SMDPad,CuDef*%
%ADD23R,1.219200X0.914400*%
%TD*%
%TA.AperFunction,ComponentPad*%
%ADD24O,1.000000X1.000000*%
%TD*%
%TA.AperFunction,ComponentPad*%
%ADD25R,1.000000X1.000000*%
%TD*%
%TA.AperFunction,SMDPad,CuDef*%
%ADD26R,3.000000X0.800000*%
%TD*%
%TA.AperFunction,SMDPad,CuDef*%
%ADD27R,0.800000X3.000000*%
%TD*%
%TA.AperFunction,ViaPad*%
%ADD28C,0.800000*%
%TD*%
%TA.AperFunction,Conductor*%
%ADD29C,0.250000*%
%TD*%
%TA.AperFunction,Conductor*%
%ADD30C,0.254000*%
%TD*%
%TA.AperFunction,Conductor*%
%ADD31C,0.150000*%
%TD*%
G04 APERTURE END LIST*
D10*
%TO.P,AHT10,4*%
%TO.N,/SDA*%
X113420000Y-113200000D03*
%TO.P,AHT10,3*%
%TO.N,/SCL*%
X110880000Y-113200000D03*
%TO.P,AHT10,2*%
%TO.N,GND*%
X108340000Y-113200000D03*
D11*
%TO.P,AHT10,1*%
%TO.N,VDD*%
X105800000Y-113200000D03*
%TD*%
D12*
%TO.P,J2,4*%
%TO.N,N/C*%
X120300000Y-122090000D03*
D13*
%TO.P,J2,3*%
X108900000Y-119140000D03*
%TO.P,J2,1*%
%TO.N,Net-(J2-Pad1)*%
X106900000Y-126540000D03*
D14*
%TO.P,J2,2*%
%TO.N,Net-(J2-Pad2)*%
X116300000Y-126540000D03*
%TD*%
D15*
%TO.P,J5,2*%
%TO.N,/VBAT*%
X153490000Y-123730000D03*
%TO.P,J5,1*%
%TO.N,GND*%
%TA.AperFunction,ComponentPad*%
G36*
G01*
X154115001Y-126330000D02*
X152864999Y-126330000D01*
G75*
G02*
X152615000Y-126080001I0J249999D01*
G01*
X152615000Y-125379999D01*
G75*
G02*
X152864999Y-125130000I249999J0D01*
G01*
X154115001Y-125130000D01*
G75*
G02*
X154365000Y-125379999I0J-249999D01*
G01*
X154365000Y-126080001D01*
G75*
G02*
X154115001Y-126330000I-249999J0D01*
G01*
G37*
%TD.AperFunction*%
%TD*%
D16*
%TO.P,R12,1*%
%TO.N,Net-(J2-Pad2)*%
X117565000Y-130820000D03*
%TO.P,R12,2*%
%TO.N,Net-(J2-Pad1)*%
X116035000Y-130820000D03*
%TD*%
%TO.P,R8,2*%
%TO.N,Net-(J2-Pad2)*%
%TA.AperFunction,SMDPad,CuDef*%
G36*
G01*
X120400000Y-130589999D02*
X120400000Y-131490001D01*
G75*
G02*
X120150001Y-131740000I-249999J0D01*
G01*
X119624999Y-131740000D01*
G75*
G02*
X119375000Y-131490001I0J249999D01*
G01*
X119375000Y-130589999D01*
G75*
G02*
X119624999Y-130340000I249999J0D01*
G01*
X120150001Y-130340000D01*
G75*
G02*
X120400000Y-130589999I0J-249999D01*
G01*
G37*
%TD.AperFunction*%
%TO.P,R8,1*%
%TO.N,/DIO_24*%
%TA.AperFunction,SMDPad,CuDef*%
G36*
G01*
X122225000Y-130589999D02*
X122225000Y-131490001D01*
G75*
G02*
X121975001Y-131740000I-249999J0D01*
G01*
X121449999Y-131740000D01*
G75*
G02*
X121200000Y-131490001I0J249999D01*
G01*
X121200000Y-130589999D01*
G75*
G02*
X121449999Y-130340000I249999J0D01*
G01*
X121975001Y-130340000D01*
G75*
G02*
X122225000Y-130589999I0J-249999D01*
G01*
G37*
%TD.AperFunction*%
%TD*%
D17*
%TO.P,D6,2*%
%TO.N,GND*%
X123300000Y-131890000D03*
%TO.P,D6,1*%
%TO.N,/DIO_24*%
X123300000Y-131050000D03*
%TD*%
D18*
%TO.P,SW3,2*%
%TO.N,GND*%
X126240000Y-131420000D03*
D19*
%TO.P,SW3,1*%
%TO.N,/DIO_23*%
X146560000Y-131420000D03*
%TD*%
D20*
%TO.P,H4,1*%
%TO.N,N/C*%
X153970000Y-131090000D03*
%TD*%
%TO.P,H3,1*%
%TO.N,N/C*%
X106000000Y-131000000D03*
%TD*%
%TO.P,H2,1*%
%TO.N,N/C*%
X153980000Y-94050000D03*
%TD*%
%TO.P,H1,1*%
%TO.N,N/C*%
X106000000Y-94070000D03*
%TD*%
%TO.P,R11,2*%
%TO.N,GND*%
%TA.AperFunction,SMDPad,CuDef*%
G36*
G01*
X120800000Y-127349999D02*
X120800000Y-128250001D01*
G75*
G02*
X120550001Y-128500000I-249999J0D01*
G01*
X120024999Y-128500000D01*
G75*
G02*
X119775000Y-128250001I0J249999D01*
G01*
X119775000Y-127349999D01*
G75*
G02*
X120024999Y-127100000I249999J0D01*
G01*
X120550001Y-127100000D01*
G75*
G02*
X120800000Y-127349999I0J-249999D01*
G01*
G37*
%TD.AperFunction*%
%TO.P,R11,1*%
%TO.N,Net-(J2-Pad1)*%
%TA.AperFunction,SMDPad,CuDef*%
G36*
G01*
X122625000Y-127349999D02*
X122625000Y-128250001D01*
G75*
G02*
X122375001Y-128500000I-249999J0D01*
G01*
X121849999Y-128500000D01*
G75*
G02*
X121600000Y-128250001I0J249999D01*
G01*
X121600000Y-127349999D01*
G75*
G02*
X121849999Y-127100000I249999J0D01*
G01*
X122375001Y-127100000D01*
G75*
G02*
X122625000Y-127349999I0J-249999D01*
G01*
G37*
%TD.AperFunction*%
%TD*%
%TO.P,R10,2*%
%TO.N,Net-(J2-Pad1)*%
%TA.AperFunction,SMDPad,CuDef*%
G36*
G01*
X122600000Y-125349999D02*
X122600000Y-126250001D01*
G75*
G02*
X122350001Y-126500000I-249999J0D01*
G01*
X121824999Y-126500000D01*
G75*
G02*
X121575000Y-126250001I0J249999D01*
G01*
X121575000Y-125349999D01*
G75*
G02*
X121824999Y-125100000I249999J0D01*
G01*
X122350001Y-125100000D01*
G75*
G02*
X122600000Y-125349999I0J-249999D01*
G01*
G37*
%TD.AperFunction*%
%TO.P,R10,1*%
%TO.N,VDD*%
%TA.AperFunction,SMDPad,CuDef*%
G36*
G01*
X124425000Y-125349999D02*
X124425000Y-126250001D01*
G75*
G02*
X124175001Y-126500000I-249999J0D01*
G01*
X123649999Y-126500000D01*
G75*
G02*
X123400000Y-126250001I0J249999D01*
G01*
X123400000Y-125349999D01*
G75*
G02*
X123649999Y-125100000I249999J0D01*
G01*
X124175001Y-125100000D01*
G75*
G02*
X124425000Y-125349999I0J-249999D01*
G01*
G37*
%TD.AperFunction*%
%TD*%
D10*
%TO.P,J4,3*%
%TO.N,GND*%
X127320000Y-122800000D03*
%TO.P,J4,2*%
%TO.N,/DIO_23*%
X129860000Y-122800000D03*
D11*
%TO.P,J4,1*%
%TO.N,VDD*%
X132400000Y-122800000D03*
%TD*%
D21*
%TO.P,SW2,1*%
%TO.N,GND*%
X154600000Y-104800000D03*
%TO.P,SW2,1'*%
X154600000Y-101200000D03*
%TO.P,SW2,2*%
%TO.N,Net-(R4-Pad1)*%
X156050000Y-104800000D03*
%TO.P,SW2,2'*%
X156050000Y-101200000D03*
%TD*%
%TO.P,SW1,1*%
%TO.N,GND*%
X154600000Y-113450000D03*
%TO.P,SW1,1'*%
X154600000Y-109850000D03*
%TO.P,SW1,2*%
%TO.N,Net-(R2-Pad1)*%
X156050000Y-113450000D03*
%TO.P,SW1,2'*%
X156050000Y-109850000D03*
%TD*%
D22*
%TO.P,D3,1*%
%TO.N,GND*%
X155400000Y-117940000D03*
%TO.P,D3,2*%
%TO.N,Net-(D3-Pad2)*%
X155400000Y-120440000D03*
%TD*%
%TO.P,D2,1*%
%TO.N,GND*%
X104250000Y-105250000D03*
%TO.P,D2,2*%
%TO.N,Net-(D2-Pad2)*%
X104250000Y-102750000D03*
%TD*%
%TO.P,D1,1*%
%TO.N,GND*%
X104250000Y-109850000D03*
%TO.P,D1,2*%
%TO.N,Net-(D1-Pad2)*%
X104250000Y-107350000D03*
%TD*%
%TO.P,R1,2*%
%TO.N,VDD*%
%TA.AperFunction,SMDPad,CuDef*%
G36*
G01*
X149550000Y-105149998D02*
X149550000Y-106050002D01*
G75*
G02*
X149300002Y-106300000I-249998J0D01*
G01*
X148774998Y-106300000D01*
G75*
G02*
X148525000Y-106050002I0J249998D01*
G01*
X148525000Y-105149998D01*
G75*
G02*
X148774998Y-104900000I249998J0D01*
G01*
X149300002Y-104900000D01*
G75*
G02*
X149550000Y-105149998I0J-249998D01*
G01*
G37*
%TD.AperFunction*%
%TO.P,R1,1*%
%TO.N,/XDS_RESET*%
%TA.AperFunction,SMDPad,CuDef*%
G36*
G01*
X151375000Y-105149998D02*
X151375000Y-106050002D01*
G75*
G02*
X151125002Y-106300000I-249998J0D01*
G01*
X150599998Y-106300000D01*
G75*
G02*
X150350000Y-106050002I0J249998D01*
G01*
X150350000Y-105149998D01*
G75*
G02*
X150599998Y-104900000I249998J0D01*
G01*
X151125002Y-104900000D01*
G75*
G02*
X151375000Y-105149998I0J-249998D01*
G01*
G37*
%TD.AperFunction*%
%TD*%
%TO.P,C3,2*%
%TO.N,GND*%
%TA.AperFunction,SMDPad,CuDef*%
G36*
G01*
X149450000Y-107300000D02*
X149450000Y-108250000D01*
G75*
G02*
X149200000Y-108500000I-250000J0D01*
G01*
X148700000Y-108500000D01*
G75*
G02*
X148450000Y-108250000I0J250000D01*
G01*
X148450000Y-107300000D01*
G75*
G02*
X148700000Y-107050000I250000J0D01*
G01*
X149200000Y-107050000D01*
G75*
G02*
X149450000Y-107300000I0J-250000D01*
G01*
G37*
%TD.AperFunction*%
%TO.P,C3,1*%
%TO.N,/XDS_RESET*%
%TA.AperFunction,SMDPad,CuDef*%
G36*
G01*
X151350000Y-107300000D02*
X151350000Y-108250000D01*
G75*
G02*
X151100000Y-108500000I-250000J0D01*
G01*
X150600000Y-108500000D01*
G75*
G02*
X150350000Y-108250000I0J250000D01*
G01*
X150350000Y-107300000D01*
G75*
G02*
X150600000Y-107050000I250000J0D01*
G01*
X151100000Y-107050000D01*
G75*
G02*
X151350000Y-107300000I0J-250000D01*
G01*
G37*
%TD.AperFunction*%
%TD*%
%TO.P,FB1,2*%
%TO.N,Net-(C2-Pad1)*%
%TA.AperFunction,SMDPad,CuDef*%
G36*
G01*
X148725000Y-101912500D02*
X148725000Y-102387500D01*
G75*
G02*
X148487500Y-102625000I-237500J0D01*
G01*
X147987500Y-102625000D01*
G75*
G02*
X147750000Y-102387500I0J237500D01*
G01*
X147750000Y-101912500D01*
G75*
G02*
X147987500Y-101675000I237500J0D01*
G01*
X148487500Y-101675000D01*
G75*
G02*
X148725000Y-101912500I0J-237500D01*
G01*
G37*
%TD.AperFunction*%
%TO.P,FB1,1*%
%TO.N,VDD*%
%TA.AperFunction,SMDPad,CuDef*%
G36*
G01*
X150550000Y-101912500D02*
X150550000Y-102387500D01*
G75*
G02*
X150312500Y-102625000I-237500J0D01*
G01*
X149812500Y-102625000D01*
G75*
G02*
X149575000Y-102387500I0J237500D01*
G01*
X149575000Y-101912500D01*
G75*
G02*
X149812500Y-101675000I237500J0D01*
G01*
X150312500Y-101675000D01*
G75*
G02*
X150550000Y-101912500I0J-237500D01*
G01*
G37*
%TD.AperFunction*%
%TD*%
D23*
%TO.P,D4,1*%
%TO.N,VCC*%
X151870000Y-113998300D03*
%TO.P,D4,2*%
%TO.N,VDD*%
X151870000Y-110721700D03*
%TD*%
D24*
%TO.P,J3,10*%
%TO.N,/XDS_RESET*%
X148210000Y-117420000D03*
%TO.P,J3,9*%
%TO.N,GND*%
X149480000Y-117420000D03*
%TO.P,J3,8*%
%TO.N,/XDS_TDI*%
X148210000Y-118690000D03*
%TO.P,J3,7*%
%TO.N,N/C*%
X149480000Y-118690000D03*
%TO.P,J3,6*%
%TO.N,/XDS_TDO*%
X148210000Y-119960000D03*
%TO.P,J3,5*%
%TO.N,GND*%
X149480000Y-119960000D03*
%TO.P,J3,4*%
%TO.N,/XDS_TCK*%
X148210000Y-121230000D03*
%TO.P,J3,3*%
%TO.N,GND*%
X149480000Y-121230000D03*
%TO.P,J3,2*%
%TO.N,/XDS-TMS*%
X148210000Y-122500000D03*
D25*
%TO.P,J3,1*%
%TO.N,VCC*%
X149480000Y-122500000D03*
%TD*%
%TO.P,R7,2*%
%TO.N,VCC*%
%TA.AperFunction,SMDPad,CuDef*%
G36*
G01*
X153750002Y-117850000D02*
X152849998Y-117850000D01*
G75*
G02*
X152600000Y-117600002I0J249998D01*
G01*
X152600000Y-117074998D01*
G75*
G02*
X152849998Y-116825000I249998J0D01*
G01*
X153750002Y-116825000D01*
G75*
G02*
X154000000Y-117074998I0J-249998D01*
G01*
X154000000Y-117600002D01*
G75*
G02*
X153750002Y-117850000I-249998J0D01*
G01*
G37*
%TD.AperFunction*%
%TO.P,R7,1*%
%TO.N,Net-(D3-Pad2)*%
%TA.AperFunction,SMDPad,CuDef*%
G36*
G01*
X153750002Y-119675000D02*
X152849998Y-119675000D01*
G75*
G02*
X152600000Y-119425002I0J249998D01*
G01*
X152600000Y-118899998D01*
G75*
G02*
X152849998Y-118650000I249998J0D01*
G01*
X153750002Y-118650000D01*
G75*
G02*
X154000000Y-118899998I0J-249998D01*
G01*
X154000000Y-119425002D01*
G75*
G02*
X153750002Y-119675000I-249998J0D01*
G01*
G37*
%TD.AperFunction*%
%TD*%
%TO.P,R6,2*%
%TO.N,/BLED*%
%TA.AperFunction,SMDPad,CuDef*%
G36*
G01*
X107050002Y-103200000D02*
X106149998Y-103200000D01*
G75*
G02*
X105900000Y-102950002I0J249998D01*
G01*
X105900000Y-102424998D01*
G75*
G02*
X106149998Y-102175000I249998J0D01*
G01*
X107050002Y-102175000D01*
G75*
G02*
X107300000Y-102424998I0J-249998D01*
G01*
X107300000Y-102950002D01*
G75*
G02*
X107050002Y-103200000I-249998J0D01*
G01*
G37*
%TD.AperFunction*%
%TO.P,R6,1*%
%TO.N,Net-(D2-Pad2)*%
%TA.AperFunction,SMDPad,CuDef*%
G36*
G01*
X107050002Y-105025000D02*
X106149998Y-105025000D01*
G75*
G02*
X105900000Y-104775002I0J249998D01*
G01*
X105900000Y-104249998D01*
G75*
G02*
X106149998Y-104000000I249998J0D01*
G01*
X107050002Y-104000000D01*
G75*
G02*
X107300000Y-104249998I0J-249998D01*
G01*
X107300000Y-104775002D01*
G75*
G02*
X107050002Y-105025000I-249998J0D01*
G01*
G37*
%TD.AperFunction*%
%TD*%
%TO.P,R5,2*%
%TO.N,/GLED*%
%TA.AperFunction,SMDPad,CuDef*%
G36*
G01*
X106149998Y-108712500D02*
X107050002Y-108712500D01*
G75*
G02*
X107300000Y-108962498I0J-249998D01*
G01*
X107300000Y-109487502D01*
G75*
G02*
X107050002Y-109737500I-249998J0D01*
G01*
X106149998Y-109737500D01*
G75*
G02*
X105900000Y-109487502I0J249998D01*
G01*
X105900000Y-108962498D01*
G75*
G02*
X106149998Y-108712500I249998J0D01*
G01*
G37*
%TD.AperFunction*%
%TO.P,R5,1*%
%TO.N,Net-(D1-Pad2)*%
%TA.AperFunction,SMDPad,CuDef*%
G36*
G01*
X106149998Y-106887500D02*
X107050002Y-106887500D01*
G75*
G02*
X107300000Y-107137498I0J-249998D01*
G01*
X107300000Y-107662502D01*
G75*
G02*
X107050002Y-107912500I-249998J0D01*
G01*
X106149998Y-107912500D01*
G75*
G02*
X105900000Y-107662502I0J249998D01*
G01*
X105900000Y-107137498D01*
G75*
G02*
X106149998Y-106887500I249998J0D01*
G01*
G37*
%TD.AperFunction*%
%TD*%
%TO.P,R4,2*%
%TO.N,/XDS_RESET*%
%TA.AperFunction,SMDPad,CuDef*%
G36*
G01*
X149550000Y-99024998D02*
X149550000Y-99925002D01*
G75*
G02*
X149300002Y-100175000I-249998J0D01*
G01*
X148774998Y-100175000D01*
G75*
G02*
X148525000Y-99925002I0J249998D01*
G01*
X148525000Y-99024998D01*
G75*
G02*
X148774998Y-98775000I249998J0D01*
G01*
X149300002Y-98775000D01*
G75*
G02*
X149550000Y-99024998I0J-249998D01*
G01*
G37*
%TD.AperFunction*%
%TO.P,R4,1*%
%TO.N,Net-(R4-Pad1)*%
%TA.AperFunction,SMDPad,CuDef*%
G36*
G01*
X151375000Y-99024998D02*
X151375000Y-99925002D01*
G75*
G02*
X151125002Y-100175000I-249998J0D01*
G01*
X150599998Y-100175000D01*
G75*
G02*
X150350000Y-99925002I0J249998D01*
G01*
X150350000Y-99024998D01*
G75*
G02*
X150599998Y-98775000I249998J0D01*
G01*
X151125002Y-98775000D01*
G75*
G02*
X151375000Y-99024998I0J-249998D01*
G01*
G37*
%TD.AperFunction*%
%TD*%
D10*
%TO.P,J1,4*%
%TO.N,VDD*%
X117645000Y-99900000D03*
%TO.P,J1,3*%
%TO.N,/UART_RXD*%
X115105000Y-99900000D03*
%TO.P,J1,2*%
%TO.N,/UART_TXD*%
X112565000Y-99900000D03*
D11*
%TO.P,J1,1*%
%TO.N,GND*%
X110025000Y-99900000D03*
%TD*%
%TO.P,C2,2*%
%TO.N,GND*%
%TA.AperFunction,SMDPad,CuDef*%
G36*
G01*
X146850000Y-100800000D02*
X145900000Y-100800000D01*
G75*
G02*
X145650000Y-100550000I0J250000D01*
G01*
X145650000Y-100050000D01*
G75*
G02*
X145900000Y-99800000I250000J0D01*
G01*
X146850000Y-99800000D01*
G75*
G02*
X147100000Y-100050000I0J-250000D01*
G01*
X147100000Y-100550000D01*
G75*
G02*
X146850000Y-100800000I-250000J0D01*
G01*
G37*
%TD.AperFunction*%
%TO.P,C2,1*%
%TO.N,Net-(C2-Pad1)*%
%TA.AperFunction,SMDPad,CuDef*%
G36*
G01*
X146850000Y-102700000D02*
X145900000Y-102700000D01*
G75*
G02*
X145650000Y-102450000I0J250000D01*
G01*
X145650000Y-101950000D01*
G75*
G02*
X145900000Y-101700000I250000J0D01*
G01*
X146850000Y-101700000D01*
G75*
G02*
X147100000Y-101950000I0J-250000D01*
G01*
X147100000Y-102450000D01*
G75*
G02*
X146850000Y-102700000I-250000J0D01*
G01*
G37*
%TD.AperFunction*%
%TD*%
D26*
%TO.P,U3,36*%
%TO.N,/XDS_RESET*%
X142340000Y-99060000D03*
%TO.P,U3,35*%
%TO.N,GND*%
X142340000Y-100330000D03*
%TO.P,U3,34*%
%TO.N,Net-(C2-Pad1)*%
X142340000Y-101600000D03*
%TO.P,U3,33*%
%TO.N,N/C*%
X142340000Y-102870000D03*
%TO.P,U3,32*%
X142340000Y-104140000D03*
%TO.P,U3,31*%
X142340000Y-105410000D03*
%TO.P,U3,30*%
X142340000Y-106680000D03*
%TO.P,U3,29*%
X142340000Y-107950000D03*
%TO.P,U3,28*%
X142340000Y-109220000D03*
%TO.P,U3,27*%
%TO.N,/DIO_24*%
X142340000Y-110490000D03*
%TO.P,U3,13*%
%TO.N,N/C*%
X123350000Y-114300000D03*
D27*
%TO.P,U3,14*%
%TO.N,Net-(R2-Pad2)*%
X127140000Y-115900000D03*
D26*
%TO.P,U3,12*%
%TO.N,N/C*%
X123350000Y-113030000D03*
D27*
%TO.P,U3,15*%
X128410000Y-115900000D03*
D26*
%TO.P,U3,11*%
%TO.N,/SPI_SCLK*%
X123350000Y-111760000D03*
D27*
%TO.P,U3,16*%
%TO.N,N/C*%
X129680000Y-115900000D03*
D26*
%TO.P,U3,10*%
%TO.N,/SPI_MOSI*%
X123350000Y-110490000D03*
D27*
%TO.P,U3,17*%
%TO.N,/XDS-TMS*%
X130950000Y-115900000D03*
D26*
%TO.P,U3,9*%
%TO.N,/SPI_MISO*%
X123350000Y-109220000D03*
D27*
%TO.P,U3,23*%
%TO.N,/FLASH_CS*%
X138570000Y-115900000D03*
D26*
%TO.P,U3,8*%
%TO.N,/GLED*%
X123350000Y-107950000D03*
D27*
%TO.P,U3,18*%
%TO.N,/XDS_TCK*%
X132220000Y-115900000D03*
D26*
%TO.P,U3,7*%
%TO.N,/BLED*%
X123350000Y-106680000D03*
D27*
%TO.P,U3,19*%
%TO.N,/XDS_TDO*%
X133490000Y-115900000D03*
D26*
%TO.P,U3,6*%
%TO.N,/SDA*%
X123350000Y-105410000D03*
D27*
%TO.P,U3,20*%
%TO.N,/XDS_TDI*%
X134760000Y-115900000D03*
D26*
%TO.P,U3,5*%
%TO.N,/SCL*%
X123350000Y-104140000D03*
D27*
%TO.P,U3,21*%
%TO.N,N/C*%
X136030000Y-115900000D03*
D26*
%TO.P,U3,4*%
%TO.N,/UART_TXD*%
X123350000Y-102870000D03*
D27*
%TO.P,U3,22*%
%TO.N,N/C*%
X137300000Y-115900000D03*
D26*
%TO.P,U3,3*%
%TO.N,/UART_RXD*%
X123350000Y-101600000D03*
%TO.P,U3,24*%
%TO.N,N/C*%
X142350000Y-114300000D03*
%TO.P,U3,2*%
X123350000Y-100330000D03*
%TO.P,U3,25*%
X142350000Y-113030000D03*
%TO.P,U3,1*%
X123350000Y-99060000D03*
%TO.P,U3,26*%
%TO.N,/DIO_23*%
X142350000Y-111760000D03*
%TD*%
D28*
%TO.N,GND*%
X142200000Y-129600000D03*
X115000000Y-118400000D03*
X124400000Y-121800000D03*
X106200000Y-106000000D03*
X112000000Y-102000000D03*
X110600000Y-123800000D03*
X114000000Y-106000000D03*
X117570000Y-119670000D03*
X120200000Y-125800000D03*
X125800000Y-127400000D03*
X133240000Y-131590000D03*
X139620000Y-131280000D03*
X149790000Y-131250000D03*
X146800000Y-126940000D03*
X140030000Y-126370000D03*
X141710000Y-122870000D03*
X135600000Y-122730000D03*
X154720000Y-116270000D03*
X152200000Y-120600000D03*
X147000000Y-113290000D03*
X149320000Y-113290000D03*
X119000000Y-104200000D03*
X117800000Y-114800000D03*
X107600000Y-110600000D03*
X152450000Y-100575000D03*
X127400000Y-100650000D03*
X106000000Y-100400000D03*
X135600000Y-101350000D03*
X129175000Y-111075000D03*
X136450000Y-111075000D03*
X144900000Y-103275000D03*
X152425000Y-103125000D03*
X132250000Y-105400000D03*
X139250000Y-104800000D03*
X139000000Y-108600000D03*
X128800000Y-107700000D03*
X126300000Y-103200000D03*
X120300000Y-99700000D03*
X147900000Y-100800000D03*
X139800000Y-100300000D03*
X135200000Y-126400000D03*
X129400000Y-126400000D03*
X111400000Y-131000000D03*
X113200000Y-127200000D03*
%TO.N,Net-(R2-Pad2)*%
X126450000Y-119100000D03*
%TO.N,/SPI_SCLK*%
X116200000Y-110600000D03*
%TO.N,/SPI_MOSI*%
X117600000Y-110600000D03*
%TO.N,/SPI_MISO*%
X120820000Y-109220000D03*
%TO.N,/FLASH_CS*%
X138575000Y-118525000D03*
%TO.N,/SDA*%
X120000000Y-106200000D03*
%TO.N,/SCL*%
X119000000Y-106200000D03*
%TO.N,VDD*%
X111400000Y-110600000D03*
X123912500Y-124487500D03*
X149200000Y-104000000D03*
X153800000Y-106800000D03*
X151870000Y-111730000D03*
%TO.N,Net-(R2-Pad1)*%
X155675000Y-115375000D03*
%TO.N,/DIO_23*%
X144260000Y-118070000D03*
X144260000Y-122990000D03*
%TO.N,/DIO_24*%
X145130000Y-117190000D03*
X123300000Y-129170000D03*
%TO.N,/VBAT*%
X146130000Y-123640000D03*
X146130000Y-117820000D03*
X146590000Y-111550000D03*
%TD*%
D29*
%TO.N,/XDS_RESET*%
X148622500Y-99060000D02*
X149037500Y-99475000D01*
X142340000Y-99060000D02*
X148622500Y-99060000D01*
X149037500Y-99475000D02*
X149037500Y-100087500D01*
X149037500Y-100087500D02*
X149900000Y-100950000D01*
X149900000Y-100950000D02*
X150300000Y-100950000D01*
X150300000Y-100950000D02*
X150875000Y-101525000D01*
X150862500Y-107762500D02*
X150850000Y-107775000D01*
X150862500Y-105600000D02*
X150862500Y-107762500D01*
X150862500Y-102187500D02*
X150862500Y-105600000D01*
X150875000Y-102175000D02*
X150862500Y-102187500D01*
X150875000Y-101525000D02*
X150875000Y-102175000D01*
X148210000Y-117420000D02*
X148210000Y-111390000D01*
X150850000Y-108750000D02*
X150850000Y-107775000D01*
X148210000Y-111390000D02*
X150850000Y-108750000D01*
%TO.N,GND*%
X144950000Y-103225000D02*
X144900000Y-103275000D01*
X144950000Y-103025000D02*
X144950000Y-103225000D01*
X152375000Y-103175000D02*
X152425000Y-103125000D01*
X152350000Y-103175000D02*
X152375000Y-103175000D01*
X142340000Y-100330000D02*
X146345000Y-100330000D01*
X125770000Y-131890000D02*
X126240000Y-131420000D01*
X123300000Y-131890000D02*
X125770000Y-131890000D01*
%TO.N,Net-(C2-Pad1)*%
X146025000Y-101600000D02*
X146575000Y-102150000D01*
X142340000Y-101600000D02*
X146025000Y-101600000D01*
X146575000Y-102150000D02*
X148237500Y-102150000D01*
%TO.N,Net-(R2-Pad2)*%
X127140000Y-118410000D02*
X126450000Y-119100000D01*
X127140000Y-115900000D02*
X127140000Y-118410000D01*
%TO.N,/SPI_SCLK*%
X123350000Y-111760000D02*
X117360000Y-111760000D01*
X117360000Y-111760000D02*
X116200000Y-110600000D01*
%TO.N,/SPI_MOSI*%
X123350000Y-110490000D02*
X117710000Y-110490000D01*
X117710000Y-110490000D02*
X117600000Y-110600000D01*
%TO.N,/XDS-TMS*%
X147060160Y-122500000D02*
X148210000Y-122500000D01*
X145005191Y-120445031D02*
X147060160Y-122500000D01*
X133145031Y-120445031D02*
X145005191Y-120445031D01*
X130950000Y-118250000D02*
X133145031Y-120445031D01*
X130950000Y-115900000D02*
X130950000Y-118250000D01*
%TO.N,/SPI_MISO*%
X123350000Y-109220000D02*
X120820000Y-109220000D01*
%TO.N,/FLASH_CS*%
X138575000Y-115905000D02*
X138570000Y-115900000D01*
X138575000Y-118525000D02*
X138575000Y-115905000D01*
%TO.N,/GLED*%
X121600000Y-107950000D02*
X121550000Y-108000000D01*
X123350000Y-107950000D02*
X121600000Y-107950000D01*
X107825000Y-108000000D02*
X106600000Y-109225000D01*
X121550000Y-108000000D02*
X107825000Y-108000000D01*
%TO.N,/XDS_TCK*%
X132220000Y-115900000D02*
X132220000Y-117845000D01*
X132220000Y-117845000D02*
X134410021Y-120035021D01*
X134410021Y-120035021D02*
X145175021Y-120035021D01*
X146370000Y-121230000D02*
X148210000Y-121230000D01*
X145175021Y-120035021D02*
X146370000Y-121230000D01*
%TO.N,/XDS_TDI*%
X134760000Y-117735000D02*
X134760000Y-115900000D01*
X136240001Y-119215001D02*
X144764999Y-119215001D01*
X134760000Y-117735000D02*
X136240001Y-119215001D01*
X145290000Y-118690000D02*
X148210000Y-118690000D01*
X144764999Y-119215001D02*
X145290000Y-118690000D01*
%TO.N,/SDA*%
X123350000Y-105410000D02*
X120790000Y-105410000D01*
X120790000Y-105410000D02*
X120000000Y-106200000D01*
%TO.N,/SCL*%
X123350000Y-104140000D02*
X121060000Y-104140000D01*
X121060000Y-104140000D02*
X119000000Y-106200000D01*
%TO.N,/UART_TXD*%
X115535000Y-102870000D02*
X112565000Y-99900000D01*
X123350000Y-102870000D02*
X115535000Y-102870000D01*
%TO.N,/UART_RXD*%
X116805000Y-101600000D02*
X115105000Y-99900000D01*
X123350000Y-101600000D02*
X116805000Y-101600000D01*
%TO.N,VDD*%
X123912500Y-125800000D02*
X123912500Y-124487500D01*
X149037500Y-105600000D02*
X149037500Y-104162500D01*
X150062500Y-103137500D02*
X150062500Y-102150000D01*
X149037500Y-104162500D02*
X149500000Y-103700000D01*
X149500000Y-103700000D02*
X149200000Y-104000000D01*
X149500000Y-103700000D02*
X150062500Y-103137500D01*
X151870000Y-110721700D02*
X151870000Y-111730000D01*
%TO.N,Net-(R2-Pad1)*%
X155675000Y-115375000D02*
X156200000Y-114850000D01*
X156200000Y-114850000D02*
X156200000Y-113325000D01*
X156200000Y-113325000D02*
X156200000Y-109725000D01*
%TO.N,Net-(R4-Pad1)*%
X156200000Y-100850000D02*
X156200000Y-101200000D01*
X154825000Y-99475000D02*
X156200000Y-100850000D01*
X150862500Y-99475000D02*
X154825000Y-99475000D01*
X156200000Y-104800000D02*
X156200000Y-101200000D01*
%TO.N,Net-(D1-Pad2)*%
X104300000Y-107400000D02*
X104250000Y-107350000D01*
X106600000Y-107400000D02*
X104300000Y-107400000D01*
%TO.N,Net-(D2-Pad2)*%
X106012500Y-104512500D02*
X104250000Y-102750000D01*
X106600000Y-104512500D02*
X106012500Y-104512500D01*
%TO.N,Net-(D3-Pad2)*%
X154577500Y-120440000D02*
X153300000Y-119162500D01*
X155400000Y-120440000D02*
X154577500Y-120440000D01*
%TO.N,VCC*%
X149480000Y-122500000D02*
X150840000Y-121140000D01*
X150840000Y-119797500D02*
X153300000Y-117337500D01*
X150840000Y-121140000D02*
X150840000Y-119797500D01*
X153300000Y-115428300D02*
X151870000Y-113998300D01*
X153300000Y-117337500D02*
X153300000Y-115428300D01*
%TO.N,/XDS_TDO*%
X133490000Y-115900000D02*
X133490000Y-117740000D01*
X135375011Y-119625011D02*
X146224989Y-119625011D01*
X133490000Y-117740000D02*
X135375011Y-119625011D01*
X146559978Y-119960000D02*
X148210000Y-119960000D01*
X146224989Y-119625011D02*
X146559978Y-119960000D01*
%TO.N,/DIO_23*%
X144100000Y-111760000D02*
X144260000Y-111920000D01*
X142350000Y-111760000D02*
X144100000Y-111760000D01*
X144260000Y-111920000D02*
X144260000Y-118070000D01*
X146200000Y-131390000D02*
X146610000Y-131390000D01*
X144260000Y-129120000D02*
X146560000Y-131420000D01*
X144260000Y-122990000D02*
X144260000Y-129120000D01*
%TO.N,/DIO_24*%
X144090000Y-110490000D02*
X144720000Y-111120000D01*
X142340000Y-110490000D02*
X144090000Y-110490000D01*
X144945001Y-111345001D02*
X144945001Y-117005001D01*
X144720000Y-111120000D02*
X144945001Y-111345001D01*
X144945001Y-117005001D02*
X145130000Y-117190000D01*
X145130000Y-117190000D02*
X145120000Y-117180000D01*
X123300000Y-129170000D02*
X123300000Y-131050000D01*
X121722500Y-131050000D02*
X121712500Y-131040000D01*
X123300000Y-131050000D02*
X121722500Y-131050000D01*
%TO.N,Net-(J2-Pad1)*%
X110660000Y-126540000D02*
X106900000Y-126540000D01*
X110660000Y-126540000D02*
X110660000Y-126660000D01*
X114820000Y-130820000D02*
X116035000Y-130820000D01*
X110660000Y-126660000D02*
X114820000Y-130820000D01*
X122085001Y-127772501D02*
X122112500Y-127800000D01*
X122085001Y-124885001D02*
X122085001Y-127772501D01*
X121600000Y-124400000D02*
X122085001Y-124885001D01*
X112800000Y-124400000D02*
X121600000Y-124400000D01*
X110660000Y-126540000D02*
X112800000Y-124400000D01*
%TO.N,Net-(J2-Pad2)*%
X115960000Y-125640000D02*
X115960000Y-126640000D01*
X116035000Y-126715000D02*
X115960000Y-126640000D01*
X119667500Y-130820000D02*
X119887500Y-131040000D01*
X117565000Y-130820000D02*
X119667500Y-130820000D01*
X117565000Y-127805000D02*
X117565000Y-130820000D01*
X116300000Y-126540000D02*
X117565000Y-127805000D01*
%TO.N,/VBAT*%
X153490000Y-123730000D02*
X146220000Y-123730000D01*
X146220000Y-123730000D02*
X146130000Y-123640000D01*
X145964999Y-117654999D02*
X145964999Y-112175001D01*
X146130000Y-117820000D02*
X145964999Y-117654999D01*
X145964999Y-112175001D02*
X146590000Y-111550000D01*
%TO.N,/BLED*%
X123350000Y-106680000D02*
X121120000Y-106680000D01*
X121120000Y-106680000D02*
X120600000Y-107200000D01*
X120600000Y-107200000D02*
X108800000Y-107200000D01*
X108800000Y-107200000D02*
X107800000Y-106200000D01*
X107800000Y-103887500D02*
X106600000Y-102687500D01*
X107800000Y-106200000D02*
X107800000Y-103887500D01*
%TD*%
D30*
%TO.N,GND*%
X140485506Y-98129463D02*
X140388815Y-98208815D01*
X140309463Y-98305506D01*
X140250498Y-98415820D01*
X140214188Y-98535518D01*
X140201928Y-98660000D01*
X140201928Y-99460000D01*
X140214188Y-99584482D01*
X140247713Y-99695000D01*
X140214188Y-99805518D01*
X140201928Y-99930000D01*
X140205000Y-100044250D01*
X140363750Y-100203000D01*
X142213000Y-100203000D01*
X142213000Y-100183000D01*
X142467000Y-100183000D01*
X142467000Y-100203000D01*
X144316250Y-100203000D01*
X144475000Y-100044250D01*
X144478072Y-99930000D01*
X144467238Y-99820000D01*
X145012215Y-99820000D01*
X145015000Y-100014250D01*
X145173750Y-100173000D01*
X146248000Y-100173000D01*
X146248000Y-100153000D01*
X146502000Y-100153000D01*
X146502000Y-100173000D01*
X147576250Y-100173000D01*
X147735000Y-100014250D01*
X147737785Y-99820000D01*
X147886928Y-99820000D01*
X147886928Y-99925002D01*
X147903992Y-100098256D01*
X147954528Y-100264852D01*
X148036595Y-100418387D01*
X148147038Y-100552962D01*
X148281613Y-100663405D01*
X148435148Y-100745472D01*
X148601744Y-100796008D01*
X148678796Y-100803597D01*
X149182197Y-101306999D01*
X149150000Y-101346232D01*
X149106623Y-101293377D01*
X148973942Y-101184488D01*
X148822567Y-101103577D01*
X148658316Y-101053752D01*
X148487500Y-101036928D01*
X147987500Y-101036928D01*
X147816684Y-101053752D01*
X147658783Y-101101651D01*
X147689502Y-101044180D01*
X147725812Y-100924482D01*
X147738072Y-100800000D01*
X147735000Y-100585750D01*
X147576250Y-100427000D01*
X146502000Y-100427000D01*
X146502000Y-100447000D01*
X146248000Y-100447000D01*
X146248000Y-100427000D01*
X145173750Y-100427000D01*
X145015000Y-100585750D01*
X145011928Y-100800000D01*
X145015868Y-100840000D01*
X144467238Y-100840000D01*
X144478072Y-100730000D01*
X144475000Y-100615750D01*
X144316250Y-100457000D01*
X142467000Y-100457000D01*
X142467000Y-100477000D01*
X142213000Y-100477000D01*
X142213000Y-100457000D01*
X140363750Y-100457000D01*
X140205000Y-100615750D01*
X140201928Y-100730000D01*
X140214188Y-100854482D01*
X140247713Y-100965000D01*
X140214188Y-101075518D01*
X140201928Y-101200000D01*
X140201928Y-102000000D01*
X140214188Y-102124482D01*
X140247713Y-102235000D01*
X140214188Y-102345518D01*
X140201928Y-102470000D01*
X140201928Y-103270000D01*
X140214188Y-103394482D01*
X140247713Y-103505000D01*
X140214188Y-103615518D01*
X140201928Y-103740000D01*
X140201928Y-104540000D01*
X140214188Y-104664482D01*
X140247713Y-104775000D01*
X140214188Y-104885518D01*
X140201928Y-105010000D01*
X140201928Y-105810000D01*
X140214188Y-105934482D01*
X140247713Y-106045000D01*
X140214188Y-106155518D01*
X140201928Y-106280000D01*
X140201928Y-107080000D01*
X140214188Y-107204482D01*
X140247713Y-107315000D01*
X140214188Y-107425518D01*
X140201928Y-107550000D01*
X140201928Y-108350000D01*
X140214188Y-108474482D01*
X140247713Y-108585000D01*
X140214188Y-108695518D01*
X140201928Y-108820000D01*
X140201928Y-109620000D01*
X140214188Y-109744482D01*
X140247713Y-109855000D01*
X140214188Y-109965518D01*
X140201928Y-110090000D01*
X140201928Y-110890000D01*
X140214188Y-111014482D01*
X140250498Y-111134180D01*
X140253324Y-111139468D01*
X140224188Y-111235518D01*
X140211928Y-111360000D01*
X140211928Y-112160000D01*
X140224188Y-112284482D01*
X140257713Y-112395000D01*
X140224188Y-112505518D01*
X140211928Y-112630000D01*
X140211928Y-113430000D01*
X140224188Y-113554482D01*
X140257713Y-113665000D01*
X140224188Y-113775518D01*
X140211928Y-113900000D01*
X140211928Y-114700000D01*
X140224188Y-114824482D01*
X140260498Y-114944180D01*
X140319463Y-115054494D01*
X140398815Y-115151185D01*
X140495506Y-115230537D01*
X140605820Y-115289502D01*
X140725518Y-115325812D01*
X140850000Y-115338072D01*
X143500001Y-115338072D01*
X143500001Y-117366288D01*
X143456063Y-117410226D01*
X143342795Y-117579744D01*
X143264774Y-117768102D01*
X143225000Y-117968061D01*
X143225000Y-118171939D01*
X143264774Y-118371898D01*
X143299197Y-118455001D01*
X139610000Y-118455001D01*
X139610000Y-118423061D01*
X139570226Y-118223102D01*
X139492205Y-118034744D01*
X139387840Y-117878550D01*
X139421185Y-117851185D01*
X139500537Y-117754494D01*
X139559502Y-117644180D01*
X139595812Y-117524482D01*
X139608072Y-117400000D01*
X139608072Y-114400000D01*
X139595812Y-114275518D01*
X139559502Y-114155820D01*
X139500537Y-114045506D01*
X139421185Y-113948815D01*
X139324494Y-113869463D01*
X139214180Y-113810498D01*
X139094482Y-113774188D01*
X138970000Y-113761928D01*
X138170000Y-113761928D01*
X138045518Y-113774188D01*
X137935000Y-113807713D01*
X137824482Y-113774188D01*
X137700000Y-113761928D01*
X136900000Y-113761928D01*
X136775518Y-113774188D01*
X136665000Y-113807713D01*
X136554482Y-113774188D01*
X136430000Y-113761928D01*
X135630000Y-113761928D01*
X135505518Y-113774188D01*
X135395000Y-113807713D01*
X135284482Y-113774188D01*
X135160000Y-113761928D01*
X134360000Y-113761928D01*
X134235518Y-113774188D01*
X134125000Y-113807713D01*
X134014482Y-113774188D01*
X133890000Y-113761928D01*
X133090000Y-113761928D01*
X132965518Y-113774188D01*
X132855000Y-113807713D01*
X132744482Y-113774188D01*
X132620000Y-113761928D01*
X131820000Y-113761928D01*
X131695518Y-113774188D01*
X131585000Y-113807713D01*
X131474482Y-113774188D01*
X131350000Y-113761928D01*
X130550000Y-113761928D01*
X130425518Y-113774188D01*
X130315000Y-113807713D01*
X130204482Y-113774188D01*
X130080000Y-113761928D01*
X129280000Y-113761928D01*
X129155518Y-113774188D01*
X129045000Y-113807713D01*
X128934482Y-113774188D01*
X128810000Y-113761928D01*
X128010000Y-113761928D01*
X127885518Y-113774188D01*
X127775000Y-113807713D01*
X127664482Y-113774188D01*
X127540000Y-113761928D01*
X126740000Y-113761928D01*
X126615518Y-113774188D01*
X126495820Y-113810498D01*
X126385506Y-113869463D01*
X126288815Y-113948815D01*
X126209463Y-114045506D01*
X126150498Y-114155820D01*
X126114188Y-114275518D01*
X126101928Y-114400000D01*
X126101928Y-117400000D01*
X126114188Y-117524482D01*
X126150498Y-117644180D01*
X126209463Y-117754494D01*
X126288815Y-117851185D01*
X126380001Y-117926019D01*
X126380001Y-118065000D01*
X126348061Y-118065000D01*
X126148102Y-118104774D01*
X125959744Y-118182795D01*
X125790226Y-118296063D01*
X125646063Y-118440226D01*
X125532795Y-118609744D01*
X125454774Y-118798102D01*
X125415000Y-118998061D01*
X125415000Y-119201939D01*
X125454774Y-119401898D01*
X125532795Y-119590256D01*
X125646063Y-119759774D01*
X125790226Y-119903937D01*
X125959744Y-120017205D01*
X126148102Y-120095226D01*
X126348061Y-120135000D01*
X126551939Y-120135000D01*
X126751898Y-120095226D01*
X126940256Y-120017205D01*
X127109774Y-119903937D01*
X127253937Y-119759774D01*
X127367205Y-119590256D01*
X127445226Y-119401898D01*
X127485000Y-119201939D01*
X127485000Y-119139802D01*
X127651002Y-118973799D01*
X127680001Y-118950001D01*
X127774974Y-118834276D01*
X127845546Y-118702247D01*
X127889003Y-118558986D01*
X127900000Y-118447333D01*
X127900000Y-118447324D01*
X127903676Y-118410001D01*
X127900000Y-118372678D01*
X127900000Y-118027238D01*
X128010000Y-118038072D01*
X128810000Y-118038072D01*
X128934482Y-118025812D01*
X129045000Y-117992287D01*
X129155518Y-118025812D01*
X129280000Y-118038072D01*
X130080000Y-118038072D01*
X130190001Y-118027238D01*
X130190001Y-118212668D01*
X130186324Y-118250000D01*
X130190001Y-118287333D01*
X130200998Y-118398986D01*
X130205400Y-118413498D01*
X130244454Y-118542246D01*
X130315026Y-118674276D01*
X130386201Y-118761002D01*
X130410000Y-118790001D01*
X130438998Y-118813799D01*
X132581231Y-120956033D01*
X132605030Y-120985032D01*
X132634028Y-121008830D01*
X132720755Y-121080005D01*
X132852784Y-121150577D01*
X132996045Y-121194034D01*
X133145031Y-121208708D01*
X133182364Y-121205031D01*
X144690390Y-121205031D01*
X146090358Y-122605000D01*
X146028061Y-122605000D01*
X145828102Y-122644774D01*
X145639744Y-122722795D01*
X145470226Y-122836063D01*
X145326063Y-122980226D01*
X145295000Y-123026715D01*
X145295000Y-122888061D01*
X145255226Y-122688102D01*
X145177205Y-122499744D01*
X145063937Y-122330226D01*
X144919774Y-122186063D01*
X144750256Y-122072795D01*
X144561898Y-121994774D01*
X144361939Y-121955000D01*
X144158061Y-121955000D01*
X143958102Y-121994774D01*
X143769744Y-122072795D01*
X143600226Y-122186063D01*
X143456063Y-122330226D01*
X143342795Y-122499744D01*
X143264774Y-122688102D01*
X143225000Y-122888061D01*
X143225000Y-123091939D01*
X143264774Y-123291898D01*
X143342795Y-123480256D01*
X143456063Y-123649774D01*
X143500000Y-123693711D01*
X143500001Y-129082668D01*
X143496324Y-129120000D01*
X143510998Y-129268985D01*
X143554454Y-129412246D01*
X143625026Y-129544276D01*
X143696201Y-129631002D01*
X143720000Y-129660001D01*
X143748998Y-129683799D01*
X145161312Y-131096114D01*
X145125000Y-131278665D01*
X145125000Y-131561335D01*
X145180147Y-131838574D01*
X145288320Y-132099727D01*
X145445363Y-132334759D01*
X145645241Y-132534637D01*
X145880273Y-132691680D01*
X146141426Y-132799853D01*
X146418665Y-132855000D01*
X146701335Y-132855000D01*
X146978574Y-132799853D01*
X147239727Y-132691680D01*
X147474759Y-132534637D01*
X147674637Y-132334759D01*
X147831680Y-132099727D01*
X147939853Y-131838574D01*
X147995000Y-131561335D01*
X147995000Y-131278665D01*
X147939853Y-131001426D01*
X147831680Y-130740273D01*
X147674637Y-130505241D01*
X147474759Y-130305363D01*
X147239727Y-130148320D01*
X146978574Y-130040147D01*
X146701335Y-129985000D01*
X146418665Y-129985000D01*
X146236114Y-130021312D01*
X145020000Y-128805199D01*
X145020000Y-126330000D01*
X151976928Y-126330000D01*
X151989188Y-126454482D01*
X152025498Y-126574180D01*
X152084463Y-126684494D01*
X152163815Y-126781185D01*
X152260506Y-126860537D01*
X152370820Y-126919502D01*
X152490518Y-126955812D01*
X152615000Y-126968072D01*
X153204250Y-126965000D01*
X153363000Y-126806250D01*
X153363000Y-125857000D01*
X153617000Y-125857000D01*
X153617000Y-126806250D01*
X153775750Y-126965000D01*
X154365000Y-126968072D01*
X154489482Y-126955812D01*
X154609180Y-126919502D01*
X154719494Y-126860537D01*
X154816185Y-126781185D01*
X154895537Y-126684494D01*
X154954502Y-126574180D01*
X154990812Y-126454482D01*
X155003072Y-126330000D01*
X155000000Y-126015750D01*
X154841250Y-125857000D01*
X153617000Y-125857000D01*
X153363000Y-125857000D01*
X152138750Y-125857000D01*
X151980000Y-126015750D01*
X151976928Y-126330000D01*
X145020000Y-126330000D01*
X145020000Y-123693711D01*
X145063937Y-123649774D01*
X145095000Y-123603285D01*
X145095000Y-123741939D01*
X145134774Y-123941898D01*
X145212795Y-124130256D01*
X145326063Y-124299774D01*
X145470226Y-124443937D01*
X145639744Y-124557205D01*
X145828102Y-124635226D01*
X146028061Y-124675000D01*
X146231939Y-124675000D01*
X146431898Y-124635226D01*
X146620256Y-124557205D01*
X146720836Y-124490000D01*
X152241067Y-124490000D01*
X152309436Y-124573309D01*
X152260506Y-124599463D01*
X152163815Y-124678815D01*
X152084463Y-124775506D01*
X152025498Y-124885820D01*
X151989188Y-125005518D01*
X151976928Y-125130000D01*
X151980000Y-125444250D01*
X152138750Y-125603000D01*
X153363000Y-125603000D01*
X153363000Y-125583000D01*
X153617000Y-125583000D01*
X153617000Y-125603000D01*
X154841250Y-125603000D01*
X155000000Y-125444250D01*
X155003072Y-125130000D01*
X154990812Y-125005518D01*
X154954502Y-124885820D01*
X154895537Y-124775506D01*
X154816185Y-124678815D01*
X154719494Y-124599463D01*
X154670564Y-124573309D01*
X154796833Y-124419449D01*
X154911511Y-124204901D01*
X154982130Y-123972102D01*
X155005975Y-123730000D01*
X154982130Y-123487898D01*
X154911511Y-123255099D01*
X154796833Y-123040551D01*
X154642502Y-122852498D01*
X154454449Y-122698167D01*
X154239901Y-122583489D01*
X154007102Y-122512870D01*
X153825665Y-122495000D01*
X153154335Y-122495000D01*
X152972898Y-122512870D01*
X152740099Y-122583489D01*
X152525551Y-122698167D01*
X152337498Y-122852498D01*
X152241067Y-122970000D01*
X150618072Y-122970000D01*
X150618072Y-122436730D01*
X151351009Y-121703794D01*
X151380001Y-121680001D01*
X151403795Y-121651008D01*
X151403799Y-121651004D01*
X151474973Y-121564277D01*
X151474974Y-121564276D01*
X151545546Y-121432247D01*
X151589003Y-121288986D01*
X151600000Y-121177333D01*
X151600000Y-121177324D01*
X151603676Y-121140001D01*
X151600000Y-121102678D01*
X151600000Y-120112301D01*
X152010425Y-119701877D01*
X152029528Y-119764852D01*
X152111595Y-119918387D01*
X152222038Y-120052962D01*
X152356613Y-120163405D01*
X152510148Y-120245472D01*
X152676744Y-120296008D01*
X152849998Y-120313072D01*
X153375771Y-120313072D01*
X154013701Y-120951003D01*
X154037499Y-120980001D01*
X154153224Y-121074974D01*
X154261928Y-121133078D01*
X154261928Y-121190000D01*
X154274188Y-121314482D01*
X154310498Y-121434180D01*
X154369463Y-121544494D01*
X154448815Y-121641185D01*
X154545506Y-121720537D01*
X154655820Y-121779502D01*
X154775518Y-121815812D01*
X154900000Y-121828072D01*
X155900000Y-121828072D01*
X156024482Y-121815812D01*
X156144180Y-121779502D01*
X156254494Y-121720537D01*
X156340000Y-121650364D01*
X156340000Y-129264098D01*
X156288601Y-129187174D01*
X155872826Y-128771399D01*
X155383928Y-128444727D01*
X154840692Y-128219712D01*
X154263997Y-128105000D01*
X153676003Y-128105000D01*
X153099308Y-128219712D01*
X152556072Y-128444727D01*
X152067174Y-128771399D01*
X151651399Y-129187174D01*
X151324727Y-129676072D01*
X151099712Y-130219308D01*
X150985000Y-130796003D01*
X150985000Y-131383997D01*
X151099712Y-131960692D01*
X151324727Y-132503928D01*
X151651399Y-132992826D01*
X151998573Y-133340000D01*
X107870800Y-133340000D01*
X107902826Y-133318601D01*
X108318601Y-132902826D01*
X108645273Y-132413928D01*
X108870288Y-131870692D01*
X108985000Y-131293997D01*
X108985000Y-130706003D01*
X108870288Y-130129308D01*
X108645273Y-129586072D01*
X108318601Y-129097174D01*
X107902826Y-128681399D01*
X107748187Y-128578072D01*
X108000000Y-128578072D01*
X108124482Y-128565812D01*
X108244180Y-128529502D01*
X108354494Y-128470537D01*
X108451185Y-128391185D01*
X108530537Y-128294494D01*
X108589502Y-128184180D01*
X108625812Y-128064482D01*
X108638072Y-127940000D01*
X108638072Y-127300000D01*
X110225199Y-127300000D01*
X114256205Y-131331008D01*
X114279999Y-131360001D01*
X114308992Y-131383795D01*
X114308996Y-131383799D01*
X114379685Y-131441811D01*
X114395724Y-131454974D01*
X114527753Y-131525546D01*
X114671014Y-131569003D01*
X114782667Y-131580000D01*
X114782676Y-131580000D01*
X114819999Y-131583676D01*
X114857322Y-131580000D01*
X114901928Y-131580000D01*
X114901928Y-132625000D01*
X114914188Y-132749482D01*
X114950498Y-132869180D01*
X115009463Y-132979494D01*
X115088815Y-133076185D01*
X115185506Y-133155537D01*
X115295820Y-133214502D01*
X115415518Y-133250812D01*
X115540000Y-133263072D01*
X116530000Y-133263072D01*
X116654482Y-133250812D01*
X116774180Y-133214502D01*
X116800000Y-133200701D01*
X116825820Y-133214502D01*
X116945518Y-133250812D01*
X117070000Y-133263072D01*
X118060000Y-133263072D01*
X118184482Y-133250812D01*
X118304180Y-133214502D01*
X118414494Y-133155537D01*
X118511185Y-133076185D01*
X118590537Y-132979494D01*
X118649502Y-132869180D01*
X118685812Y-132749482D01*
X118698072Y-132625000D01*
X118698072Y-131580000D01*
X118745792Y-131580000D01*
X118753992Y-131663255D01*
X118804528Y-131829851D01*
X118886595Y-131983387D01*
X118997038Y-132117962D01*
X119131613Y-132228405D01*
X119285149Y-132310472D01*
X119451745Y-132361008D01*
X119624999Y-132378072D01*
X120150001Y-132378072D01*
X120323255Y-132361008D01*
X120489851Y-132310472D01*
X120643387Y-132228405D01*
X120777962Y-132117962D01*
X120800000Y-132091109D01*
X120822038Y-132117962D01*
X120956613Y-132228405D01*
X121110149Y-132310472D01*
X121276745Y-132361008D01*
X121449999Y-132378072D01*
X121975001Y-132378072D01*
X122148255Y-132361008D01*
X122314851Y-132310472D01*
X122468387Y-132228405D01*
X122544770Y-132165719D01*
X122545328Y-132173195D01*
X122577559Y-132294055D01*
X122632750Y-132406305D01*
X122708779Y-132505630D01*
X122802725Y-132588215D01*
X122910977Y-132650885D01*
X123029375Y-132691232D01*
X123141250Y-132705000D01*
X123300000Y-132546250D01*
X123458750Y-132705000D01*
X123570625Y-132691232D01*
X123689023Y-132650885D01*
X123797275Y-132588215D01*
X123891221Y-132505630D01*
X123967250Y-132406305D01*
X124022441Y-132294055D01*
X124054672Y-132173195D01*
X124060000Y-132101750D01*
X123901250Y-131943000D01*
X123175000Y-131943000D01*
X123175000Y-131868072D01*
X123425000Y-131868072D01*
X123549482Y-131855812D01*
X123611497Y-131837000D01*
X123901250Y-131837000D01*
X123969211Y-131769039D01*
X124848096Y-131769039D01*
X124888754Y-131903087D01*
X125008963Y-132157420D01*
X125176481Y-132383414D01*
X125384869Y-132572385D01*
X125626119Y-132717070D01*
X125890960Y-132811909D01*
X126113000Y-132690624D01*
X126113000Y-131547000D01*
X126367000Y-131547000D01*
X126367000Y-132690624D01*
X126589040Y-132811909D01*
X126853881Y-132717070D01*
X127095131Y-132572385D01*
X127303519Y-132383414D01*
X127471037Y-132157420D01*
X127591246Y-131903087D01*
X127631904Y-131769039D01*
X127509915Y-131547000D01*
X126367000Y-131547000D01*
X126113000Y-131547000D01*
X124970085Y-131547000D01*
X124848096Y-131769039D01*
X123969211Y-131769039D01*
X124060000Y-131678250D01*
X124054672Y-131606805D01*
X124022441Y-131485945D01*
X124015324Y-131471470D01*
X124050812Y-131354482D01*
X124063072Y-131230000D01*
X124063072Y-131070961D01*
X124848096Y-131070961D01*
X124970085Y-131293000D01*
X126113000Y-131293000D01*
X126113000Y-130149376D01*
X126367000Y-130149376D01*
X126367000Y-131293000D01*
X127509915Y-131293000D01*
X127631904Y-131070961D01*
X127591246Y-130936913D01*
X127471037Y-130682580D01*
X127303519Y-130456586D01*
X127095131Y-130267615D01*
X126853881Y-130122930D01*
X126589040Y-130028091D01*
X126367000Y-130149376D01*
X126113000Y-130149376D01*
X125890960Y-130028091D01*
X125626119Y-130122930D01*
X125384869Y-130267615D01*
X125176481Y-130456586D01*
X125008963Y-130682580D01*
X124888754Y-130936913D01*
X124848096Y-131070961D01*
X124063072Y-131070961D01*
X124063072Y-131056143D01*
X124063677Y-131050000D01*
X124063072Y-131043857D01*
X124063072Y-130870000D01*
X124060000Y-130838808D01*
X124060000Y-129873711D01*
X124103937Y-129829774D01*
X124217205Y-129660256D01*
X124295226Y-129471898D01*
X124335000Y-129271939D01*
X124335000Y-129068061D01*
X124295226Y-128868102D01*
X124217205Y-128679744D01*
X124103937Y-128510226D01*
X123959774Y-128366063D01*
X123790256Y-128252795D01*
X123601898Y-128174774D01*
X123401939Y-128135000D01*
X123263072Y-128135000D01*
X123263072Y-127349999D01*
X123246008Y-127176745D01*
X123195472Y-127010149D01*
X123194744Y-127008786D01*
X123310149Y-127070472D01*
X123476745Y-127121008D01*
X123649999Y-127138072D01*
X124175001Y-127138072D01*
X124348255Y-127121008D01*
X124514851Y-127070472D01*
X124668387Y-126988405D01*
X124802962Y-126877962D01*
X124913405Y-126743387D01*
X124995472Y-126589851D01*
X125046008Y-126423255D01*
X125063072Y-126250001D01*
X125063072Y-125349999D01*
X125046008Y-125176745D01*
X124995472Y-125010149D01*
X124913405Y-124856613D01*
X124891128Y-124829469D01*
X124907726Y-124789398D01*
X124947500Y-124589439D01*
X124947500Y-124385561D01*
X124907726Y-124185602D01*
X124829705Y-123997244D01*
X124716437Y-123827726D01*
X124572274Y-123683563D01*
X124402756Y-123570295D01*
X124214398Y-123492274D01*
X124014439Y-123452500D01*
X123810561Y-123452500D01*
X123610602Y-123492274D01*
X123422244Y-123570295D01*
X123252726Y-123683563D01*
X123108563Y-123827726D01*
X122995295Y-123997244D01*
X122917274Y-124185602D01*
X122877500Y-124385561D01*
X122877500Y-124589439D01*
X122889422Y-124649375D01*
X122843387Y-124611595D01*
X122783511Y-124579590D01*
X122719975Y-124460724D01*
X122670139Y-124400000D01*
X122625002Y-124345000D01*
X122595999Y-124321198D01*
X122163804Y-123889003D01*
X122140001Y-123859999D01*
X122126742Y-123849118D01*
X122130537Y-123844494D01*
X122189502Y-123734180D01*
X122225812Y-123614482D01*
X122238072Y-123490000D01*
X122238072Y-123156891D01*
X125878519Y-123156891D01*
X125975843Y-123431252D01*
X126124822Y-123681355D01*
X126319731Y-123897588D01*
X126553080Y-124071641D01*
X126815901Y-124196825D01*
X126963110Y-124241476D01*
X127193000Y-124120155D01*
X127193000Y-122927000D01*
X125999186Y-122927000D01*
X125878519Y-123156891D01*
X122238072Y-123156891D01*
X122238072Y-122443109D01*
X125878519Y-122443109D01*
X125999186Y-122673000D01*
X127193000Y-122673000D01*
X127193000Y-121479845D01*
X127447000Y-121479845D01*
X127447000Y-122673000D01*
X127467000Y-122673000D01*
X127467000Y-122927000D01*
X127447000Y-122927000D01*
X127447000Y-124120155D01*
X127676890Y-124241476D01*
X127824099Y-124196825D01*
X128086920Y-124071641D01*
X128320269Y-123897588D01*
X128515178Y-123681355D01*
X128584805Y-123564466D01*
X128706525Y-123746632D01*
X128913368Y-123953475D01*
X129156589Y-124115990D01*
X129426842Y-124227932D01*
X129713740Y-124285000D01*
X130006260Y-124285000D01*
X130293158Y-124227932D01*
X130563411Y-124115990D01*
X130806632Y-123953475D01*
X130938487Y-123821620D01*
X130960498Y-123894180D01*
X131019463Y-124004494D01*
X131098815Y-124101185D01*
X131195506Y-124180537D01*
X131305820Y-124239502D01*
X131425518Y-124275812D01*
X131550000Y-124288072D01*
X133250000Y-124288072D01*
X133374482Y-124275812D01*
X133494180Y-124239502D01*
X133604494Y-124180537D01*
X133701185Y-124101185D01*
X133780537Y-124004494D01*
X133839502Y-123894180D01*
X133875812Y-123774482D01*
X133888072Y-123650000D01*
X133888072Y-121950000D01*
X133875812Y-121825518D01*
X133839502Y-121705820D01*
X133780537Y-121595506D01*
X133701185Y-121498815D01*
X133604494Y-121419463D01*
X133494180Y-121360498D01*
X133374482Y-121324188D01*
X133250000Y-121311928D01*
X131550000Y-121311928D01*
X131425518Y-121324188D01*
X131305820Y-121360498D01*
X131195506Y-121419463D01*
X131098815Y-121498815D01*
X131019463Y-121595506D01*
X130960498Y-121705820D01*
X130938487Y-121778380D01*
X130806632Y-121646525D01*
X130563411Y-121484010D01*
X130293158Y-121372068D01*
X130006260Y-121315000D01*
X129713740Y-121315000D01*
X129426842Y-121372068D01*
X129156589Y-121484010D01*
X128913368Y-121646525D01*
X128706525Y-121853368D01*
X128584805Y-122035534D01*
X128515178Y-121918645D01*
X128320269Y-121702412D01*
X128086920Y-121528359D01*
X127824099Y-121403175D01*
X127676890Y-121358524D01*
X127447000Y-121479845D01*
X127193000Y-121479845D01*
X126963110Y-121358524D01*
X126815901Y-121403175D01*
X126553080Y-121528359D01*
X126319731Y-121702412D01*
X126124822Y-121918645D01*
X125975843Y-122168748D01*
X125878519Y-122443109D01*
X122238072Y-122443109D01*
X122238072Y-120690000D01*
X122225812Y-120565518D01*
X122189502Y-120445820D01*
X122130537Y-120335506D01*
X122051185Y-120238815D01*
X121954494Y-120159463D01*
X121844180Y-120100498D01*
X121724482Y-120064188D01*
X121600000Y-120051928D01*
X119000000Y-120051928D01*
X118875518Y-120064188D01*
X118755820Y-120100498D01*
X118645506Y-120159463D01*
X118548815Y-120238815D01*
X118469463Y-120335506D01*
X118410498Y-120445820D01*
X118374188Y-120565518D01*
X118361928Y-120690000D01*
X118361928Y-123490000D01*
X118374188Y-123614482D01*
X118381929Y-123640000D01*
X116251451Y-123640000D01*
X116315990Y-123543411D01*
X116427932Y-123273158D01*
X116485000Y-122986260D01*
X116485000Y-122693740D01*
X116427932Y-122406842D01*
X116315990Y-122136589D01*
X116153475Y-121893368D01*
X115946632Y-121686525D01*
X115703411Y-121524010D01*
X115433158Y-121412068D01*
X115146260Y-121355000D01*
X114853740Y-121355000D01*
X114566842Y-121412068D01*
X114296589Y-121524010D01*
X114053368Y-121686525D01*
X113846525Y-121893368D01*
X113684010Y-122136589D01*
X113572068Y-122406842D01*
X113515000Y-122693740D01*
X113515000Y-122986260D01*
X113572068Y-123273158D01*
X113684010Y-123543411D01*
X113748549Y-123640000D01*
X112837322Y-123640000D01*
X112799999Y-123636324D01*
X112762676Y-123640000D01*
X112762667Y-123640000D01*
X112651014Y-123650997D01*
X112507753Y-123694454D01*
X112375723Y-123765026D01*
X112299324Y-123827726D01*
X112259999Y-123859999D01*
X112236201Y-123888997D01*
X110345199Y-125780000D01*
X108638072Y-125780000D01*
X108638072Y-125140000D01*
X108625812Y-125015518D01*
X108589502Y-124895820D01*
X108530537Y-124785506D01*
X108451185Y-124688815D01*
X108354494Y-124609463D01*
X108244180Y-124550498D01*
X108124482Y-124514188D01*
X108000000Y-124501928D01*
X105800000Y-124501928D01*
X105675518Y-124514188D01*
X105555820Y-124550498D01*
X105445506Y-124609463D01*
X105348815Y-124688815D01*
X105269463Y-124785506D01*
X105210498Y-124895820D01*
X105174188Y-125015518D01*
X105161928Y-125140000D01*
X105161928Y-127940000D01*
X105174188Y-128064482D01*
X105190295Y-128117581D01*
X105129308Y-128129712D01*
X104586072Y-128354727D01*
X104097174Y-128681399D01*
X103681399Y-129097174D01*
X103660000Y-129129200D01*
X103660000Y-122693740D01*
X106515000Y-122693740D01*
X106515000Y-122986260D01*
X106572068Y-123273158D01*
X106684010Y-123543411D01*
X106846525Y-123786632D01*
X107053368Y-123993475D01*
X107296589Y-124155990D01*
X107566842Y-124267932D01*
X107853740Y-124325000D01*
X108146260Y-124325000D01*
X108433158Y-124267932D01*
X108703411Y-124155990D01*
X108946632Y-123993475D01*
X109153475Y-123786632D01*
X109315990Y-123543411D01*
X109427932Y-123273158D01*
X109485000Y-122986260D01*
X109485000Y-122693740D01*
X109427932Y-122406842D01*
X109315990Y-122136589D01*
X109153475Y-121893368D01*
X108946632Y-121686525D01*
X108703411Y-121524010D01*
X108433158Y-121412068D01*
X108146260Y-121355000D01*
X107853740Y-121355000D01*
X107566842Y-121412068D01*
X107296589Y-121524010D01*
X107053368Y-121686525D01*
X106846525Y-121893368D01*
X106684010Y-122136589D01*
X106572068Y-122406842D01*
X106515000Y-122693740D01*
X103660000Y-122693740D01*
X103660000Y-117740000D01*
X107161928Y-117740000D01*
X107161928Y-120540000D01*
X107174188Y-120664482D01*
X107210498Y-120784180D01*
X107269463Y-120894494D01*
X107348815Y-120991185D01*
X107445506Y-121070537D01*
X107555820Y-121129502D01*
X107675518Y-121165812D01*
X107800000Y-121178072D01*
X110000000Y-121178072D01*
X110124482Y-121165812D01*
X110244180Y-121129502D01*
X110354494Y-121070537D01*
X110451185Y-120991185D01*
X110530537Y-120894494D01*
X110589502Y-120784180D01*
X110625812Y-120664482D01*
X110638072Y-120540000D01*
X110638072Y-117740000D01*
X110625812Y-117615518D01*
X110589502Y-117495820D01*
X110530537Y-117385506D01*
X110451185Y-117288815D01*
X110354494Y-117209463D01*
X110244180Y-117150498D01*
X110124482Y-117114188D01*
X110000000Y-117101928D01*
X107800000Y-117101928D01*
X107675518Y-117114188D01*
X107555820Y-117150498D01*
X107445506Y-117209463D01*
X107348815Y-117288815D01*
X107269463Y-117385506D01*
X107210498Y-117495820D01*
X107174188Y-117615518D01*
X107161928Y-117740000D01*
X103660000Y-117740000D01*
X103660000Y-112350000D01*
X104311928Y-112350000D01*
X104311928Y-114050000D01*
X104324188Y-114174482D01*
X104360498Y-114294180D01*
X104419463Y-114404494D01*
X104498815Y-114501185D01*
X104595506Y-114580537D01*
X104705820Y-114639502D01*
X104825518Y-114675812D01*
X104950000Y-114688072D01*
X106650000Y-114688072D01*
X106774482Y-114675812D01*
X106894180Y-114639502D01*
X107004494Y-114580537D01*
X107101185Y-114501185D01*
X107180537Y-114404494D01*
X107239502Y-114294180D01*
X107263966Y-114213534D01*
X107339731Y-114297588D01*
X107573080Y-114471641D01*
X107835901Y-114596825D01*
X107983110Y-114641476D01*
X108213000Y-114520155D01*
X108213000Y-113327000D01*
X108193000Y-113327000D01*
X108193000Y-113073000D01*
X108213000Y-113073000D01*
X108213000Y-111879845D01*
X108467000Y-111879845D01*
X108467000Y-113073000D01*
X108487000Y-113073000D01*
X108487000Y-113327000D01*
X108467000Y-113327000D01*
X108467000Y-114520155D01*
X108696890Y-114641476D01*
X108844099Y-114596825D01*
X109106920Y-114471641D01*
X109340269Y-114297588D01*
X109535178Y-114081355D01*
X109604805Y-113964466D01*
X109726525Y-114146632D01*
X109933368Y-114353475D01*
X110176589Y-114515990D01*
X110446842Y-114627932D01*
X110733740Y-114685000D01*
X111026260Y-114685000D01*
X111313158Y-114627932D01*
X111583411Y-114515990D01*
X111826632Y-114353475D01*
X112033475Y-114146632D01*
X112150000Y-113972240D01*
X112266525Y-114146632D01*
X112473368Y-114353475D01*
X112716589Y-114515990D01*
X112986842Y-114627932D01*
X113273740Y-114685000D01*
X113566260Y-114685000D01*
X113853158Y-114627932D01*
X114123411Y-114515990D01*
X114366632Y-114353475D01*
X114573475Y-114146632D01*
X114735990Y-113903411D01*
X114847932Y-113633158D01*
X114905000Y-113346260D01*
X114905000Y-113053740D01*
X114847932Y-112766842D01*
X114735990Y-112496589D01*
X114573475Y-112253368D01*
X114366632Y-112046525D01*
X114123411Y-111884010D01*
X113853158Y-111772068D01*
X113566260Y-111715000D01*
X113273740Y-111715000D01*
X112986842Y-111772068D01*
X112716589Y-111884010D01*
X112473368Y-112046525D01*
X112266525Y-112253368D01*
X112150000Y-112427760D01*
X112033475Y-112253368D01*
X111826632Y-112046525D01*
X111583411Y-111884010D01*
X111313158Y-111772068D01*
X111026260Y-111715000D01*
X110733740Y-111715000D01*
X110446842Y-111772068D01*
X110176589Y-111884010D01*
X109933368Y-112046525D01*
X109726525Y-112253368D01*
X109604805Y-112435534D01*
X109535178Y-112318645D01*
X109340269Y-112102412D01*
X109106920Y-111928359D01*
X108844099Y-111803175D01*
X108696890Y-111758524D01*
X108467000Y-111879845D01*
X108213000Y-111879845D01*
X107983110Y-111758524D01*
X107835901Y-111803175D01*
X107573080Y-111928359D01*
X107339731Y-112102412D01*
X107263966Y-112186466D01*
X107239502Y-112105820D01*
X107180537Y-111995506D01*
X107101185Y-111898815D01*
X107004494Y-111819463D01*
X106894180Y-111760498D01*
X106774482Y-111724188D01*
X106650000Y-111711928D01*
X104950000Y-111711928D01*
X104825518Y-111724188D01*
X104705820Y-111760498D01*
X104595506Y-111819463D01*
X104498815Y-111898815D01*
X104419463Y-111995506D01*
X104360498Y-112105820D01*
X104324188Y-112225518D01*
X104311928Y-112350000D01*
X103660000Y-112350000D01*
X103660000Y-111229208D01*
X103750000Y-111238072D01*
X103964250Y-111235000D01*
X104123000Y-111076250D01*
X104123000Y-109977000D01*
X104103000Y-109977000D01*
X104103000Y-109723000D01*
X104123000Y-109723000D01*
X104123000Y-109703000D01*
X104377000Y-109703000D01*
X104377000Y-109723000D01*
X104397000Y-109723000D01*
X104397000Y-109977000D01*
X104377000Y-109977000D01*
X104377000Y-111076250D01*
X104535750Y-111235000D01*
X104750000Y-111238072D01*
X104874482Y-111225812D01*
X104994180Y-111189502D01*
X105104494Y-111130537D01*
X105201185Y-111051185D01*
X105280537Y-110954494D01*
X105339502Y-110844180D01*
X105375812Y-110724482D01*
X105388072Y-110600000D01*
X105387398Y-110498061D01*
X110365000Y-110498061D01*
X110365000Y-110701939D01*
X110404774Y-110901898D01*
X110482795Y-111090256D01*
X110596063Y-111259774D01*
X110740226Y-111403937D01*
X110909744Y-111517205D01*
X111098102Y-111595226D01*
X111298061Y-111635000D01*
X111501939Y-111635000D01*
X111701898Y-111595226D01*
X111890256Y-111517205D01*
X112059774Y-111403937D01*
X112203937Y-111259774D01*
X112317205Y-111090256D01*
X112395226Y-110901898D01*
X112435000Y-110701939D01*
X112435000Y-110498061D01*
X112395226Y-110298102D01*
X112317205Y-110109744D01*
X112203937Y-109940226D01*
X112059774Y-109796063D01*
X111890256Y-109682795D01*
X111701898Y-109604774D01*
X111501939Y-109565000D01*
X111298061Y-109565000D01*
X111098102Y-109604774D01*
X110909744Y-109682795D01*
X110740226Y-109796063D01*
X110596063Y-109940226D01*
X110482795Y-110109744D01*
X110404774Y-110298102D01*
X110365000Y-110498061D01*
X105387398Y-110498061D01*
X105385000Y-110135750D01*
X105226252Y-109977002D01*
X105385000Y-109977002D01*
X105385000Y-109931132D01*
X105411595Y-109980887D01*
X105522038Y-110115462D01*
X105656613Y-110225905D01*
X105810148Y-110307972D01*
X105976744Y-110358508D01*
X106149998Y-110375572D01*
X107050002Y-110375572D01*
X107223256Y-110358508D01*
X107389852Y-110307972D01*
X107543387Y-110225905D01*
X107677962Y-110115462D01*
X107788405Y-109980887D01*
X107870472Y-109827352D01*
X107921008Y-109660756D01*
X107938072Y-109487502D01*
X107938072Y-108962498D01*
X107938003Y-108961799D01*
X108139802Y-108760000D01*
X119890262Y-108760000D01*
X119824774Y-108918102D01*
X119785000Y-109118061D01*
X119785000Y-109321939D01*
X119824774Y-109521898D01*
X119902795Y-109710256D01*
X119915987Y-109730000D01*
X118160903Y-109730000D01*
X118090256Y-109682795D01*
X117901898Y-109604774D01*
X117701939Y-109565000D01*
X117498061Y-109565000D01*
X117298102Y-109604774D01*
X117109744Y-109682795D01*
X116940226Y-109796063D01*
X116900000Y-109836289D01*
X116859774Y-109796063D01*
X116690256Y-109682795D01*
X116501898Y-109604774D01*
X116301939Y-109565000D01*
X116098061Y-109565000D01*
X115898102Y-109604774D01*
X115709744Y-109682795D01*
X115540226Y-109796063D01*
X115396063Y-109940226D01*
X115282795Y-110109744D01*
X115204774Y-110298102D01*
X115165000Y-110498061D01*
X115165000Y-110701939D01*
X115204774Y-110901898D01*
X115282795Y-111090256D01*
X115396063Y-111259774D01*
X115540226Y-111403937D01*
X115709744Y-111517205D01*
X115898102Y-111595226D01*
X116098061Y-111635000D01*
X116160199Y-111635000D01*
X116796200Y-112271002D01*
X116819999Y-112300001D01*
X116935724Y-112394974D01*
X117067753Y-112465546D01*
X117211014Y-112509003D01*
X117322667Y-112520000D01*
X117322675Y-112520000D01*
X117360000Y-112523676D01*
X117397325Y-112520000D01*
X121222762Y-112520000D01*
X121211928Y-112630000D01*
X121211928Y-113430000D01*
X121224188Y-113554482D01*
X121257713Y-113665000D01*
X121224188Y-113775518D01*
X121211928Y-113900000D01*
X121211928Y-114700000D01*
X121224188Y-114824482D01*
X121260498Y-114944180D01*
X121319463Y-115054494D01*
X121398815Y-115151185D01*
X121495506Y-115230537D01*
X121605820Y-115289502D01*
X121725518Y-115325812D01*
X121850000Y-115338072D01*
X124850000Y-115338072D01*
X124974482Y-115325812D01*
X125094180Y-115289502D01*
X125204494Y-115230537D01*
X125301185Y-115151185D01*
X125380537Y-115054494D01*
X125439502Y-114944180D01*
X125475812Y-114824482D01*
X125488072Y-114700000D01*
X125488072Y-113900000D01*
X125475812Y-113775518D01*
X125442287Y-113665000D01*
X125475812Y-113554482D01*
X125488072Y-113430000D01*
X125488072Y-112630000D01*
X125475812Y-112505518D01*
X125442287Y-112395000D01*
X125475812Y-112284482D01*
X125488072Y-112160000D01*
X125488072Y-111360000D01*
X125475812Y-111235518D01*
X125442287Y-111125000D01*
X125475812Y-111014482D01*
X125488072Y-110890000D01*
X125488072Y-110090000D01*
X125475812Y-109965518D01*
X125442287Y-109855000D01*
X125475812Y-109744482D01*
X125488072Y-109620000D01*
X125488072Y-108820000D01*
X125475812Y-108695518D01*
X125442287Y-108585000D01*
X125475812Y-108474482D01*
X125488072Y-108350000D01*
X125488072Y-107550000D01*
X125475812Y-107425518D01*
X125442287Y-107315000D01*
X125475812Y-107204482D01*
X125488072Y-107080000D01*
X125488072Y-106280000D01*
X125475812Y-106155518D01*
X125442287Y-106045000D01*
X125475812Y-105934482D01*
X125488072Y-105810000D01*
X125488072Y-105010000D01*
X125475812Y-104885518D01*
X125442287Y-104775000D01*
X125475812Y-104664482D01*
X125488072Y-104540000D01*
X125488072Y-103740000D01*
X125475812Y-103615518D01*
X125442287Y-103505000D01*
X125475812Y-103394482D01*
X125488072Y-103270000D01*
X125488072Y-102470000D01*
X125475812Y-102345518D01*
X125442287Y-102235000D01*
X125475812Y-102124482D01*
X125488072Y-102000000D01*
X125488072Y-101200000D01*
X125475812Y-101075518D01*
X125442287Y-100965000D01*
X125475812Y-100854482D01*
X125488072Y-100730000D01*
X125488072Y-99930000D01*
X125475812Y-99805518D01*
X125442287Y-99695000D01*
X125475812Y-99584482D01*
X125488072Y-99460000D01*
X125488072Y-98660000D01*
X125475812Y-98535518D01*
X125439502Y-98415820D01*
X125380537Y-98305506D01*
X125301185Y-98208815D01*
X125204494Y-98129463D01*
X125199886Y-98127000D01*
X140490114Y-98127000D01*
X140485506Y-98129463D01*
%TA.AperFunction,Conductor*%
D31*
G36*
X140485506Y-98129463D02*
G01*
X140388815Y-98208815D01*
X140309463Y-98305506D01*
X140250498Y-98415820D01*
X140214188Y-98535518D01*
X140201928Y-98660000D01*
X140201928Y-99460000D01*
X140214188Y-99584482D01*
X140247713Y-99695000D01*
X140214188Y-99805518D01*
X140201928Y-99930000D01*
X140205000Y-100044250D01*
X140363750Y-100203000D01*
X142213000Y-100203000D01*
X142213000Y-100183000D01*
X142467000Y-100183000D01*
X142467000Y-100203000D01*
X144316250Y-100203000D01*
X144475000Y-100044250D01*
X144478072Y-99930000D01*
X144467238Y-99820000D01*
X145012215Y-99820000D01*
X145015000Y-100014250D01*
X145173750Y-100173000D01*
X146248000Y-100173000D01*
X146248000Y-100153000D01*
X146502000Y-100153000D01*
X146502000Y-100173000D01*
X147576250Y-100173000D01*
X147735000Y-100014250D01*
X147737785Y-99820000D01*
X147886928Y-99820000D01*
X147886928Y-99925002D01*
X147903992Y-100098256D01*
X147954528Y-100264852D01*
X148036595Y-100418387D01*
X148147038Y-100552962D01*
X148281613Y-100663405D01*
X148435148Y-100745472D01*
X148601744Y-100796008D01*
X148678796Y-100803597D01*
X149182197Y-101306999D01*
X149150000Y-101346232D01*
X149106623Y-101293377D01*
X148973942Y-101184488D01*
X148822567Y-101103577D01*
X148658316Y-101053752D01*
X148487500Y-101036928D01*
X147987500Y-101036928D01*
X147816684Y-101053752D01*
X147658783Y-101101651D01*
X147689502Y-101044180D01*
X147725812Y-100924482D01*
X147738072Y-100800000D01*
X147735000Y-100585750D01*
X147576250Y-100427000D01*
X146502000Y-100427000D01*
X146502000Y-100447000D01*
X146248000Y-100447000D01*
X146248000Y-100427000D01*
X145173750Y-100427000D01*
X145015000Y-100585750D01*
X145011928Y-100800000D01*
X145015868Y-100840000D01*
X144467238Y-100840000D01*
X144478072Y-100730000D01*
X144475000Y-100615750D01*
X144316250Y-100457000D01*
X142467000Y-100457000D01*
X142467000Y-100477000D01*
X142213000Y-100477000D01*
X142213000Y-100457000D01*
X140363750Y-100457000D01*
X140205000Y-100615750D01*
X140201928Y-100730000D01*
X140214188Y-100854482D01*
X140247713Y-100965000D01*
X140214188Y-101075518D01*
X140201928Y-101200000D01*
X140201928Y-102000000D01*
X140214188Y-102124482D01*
X140247713Y-102235000D01*
X140214188Y-102345518D01*
X140201928Y-102470000D01*
X140201928Y-103270000D01*
X140214188Y-103394482D01*
X140247713Y-103505000D01*
X140214188Y-103615518D01*
X140201928Y-103740000D01*
X140201928Y-104540000D01*
X140214188Y-104664482D01*
X140247713Y-104775000D01*
X140214188Y-104885518D01*
X140201928Y-105010000D01*
X140201928Y-105810000D01*
X140214188Y-105934482D01*
X140247713Y-106045000D01*
X140214188Y-106155518D01*
X140201928Y-106280000D01*
X140201928Y-107080000D01*
X140214188Y-107204482D01*
X140247713Y-107315000D01*
X140214188Y-107425518D01*
X140201928Y-107550000D01*
X140201928Y-108350000D01*
X140214188Y-108474482D01*
X140247713Y-108585000D01*
X140214188Y-108695518D01*
X140201928Y-108820000D01*
X140201928Y-109620000D01*
X140214188Y-109744482D01*
X140247713Y-109855000D01*
X140214188Y-109965518D01*
X140201928Y-110090000D01*
X140201928Y-110890000D01*
X140214188Y-111014482D01*
X140250498Y-111134180D01*
X140253324Y-111139468D01*
X140224188Y-111235518D01*
X140211928Y-111360000D01*
X140211928Y-112160000D01*
X140224188Y-112284482D01*
X140257713Y-112395000D01*
X140224188Y-112505518D01*
X140211928Y-112630000D01*
X140211928Y-113430000D01*
X140224188Y-113554482D01*
X140257713Y-113665000D01*
X140224188Y-113775518D01*
X140211928Y-113900000D01*
X140211928Y-114700000D01*
X140224188Y-114824482D01*
X140260498Y-114944180D01*
X140319463Y-115054494D01*
X140398815Y-115151185D01*
X140495506Y-115230537D01*
X140605820Y-115289502D01*
X140725518Y-115325812D01*
X140850000Y-115338072D01*
X143500001Y-115338072D01*
X143500001Y-117366288D01*
X143456063Y-117410226D01*
X143342795Y-117579744D01*
X143264774Y-117768102D01*
X143225000Y-117968061D01*
X143225000Y-118171939D01*
X143264774Y-118371898D01*
X143299197Y-118455001D01*
X139610000Y-118455001D01*
X139610000Y-118423061D01*
X139570226Y-118223102D01*
X139492205Y-118034744D01*
X139387840Y-117878550D01*
X139421185Y-117851185D01*
X139500537Y-117754494D01*
X139559502Y-117644180D01*
X139595812Y-117524482D01*
X139608072Y-117400000D01*
X139608072Y-114400000D01*
X139595812Y-114275518D01*
X139559502Y-114155820D01*
X139500537Y-114045506D01*
X139421185Y-113948815D01*
X139324494Y-113869463D01*
X139214180Y-113810498D01*
X139094482Y-113774188D01*
X138970000Y-113761928D01*
X138170000Y-113761928D01*
X138045518Y-113774188D01*
X137935000Y-113807713D01*
X137824482Y-113774188D01*
X137700000Y-113761928D01*
X136900000Y-113761928D01*
X136775518Y-113774188D01*
X136665000Y-113807713D01*
X136554482Y-113774188D01*
X136430000Y-113761928D01*
X135630000Y-113761928D01*
X135505518Y-113774188D01*
X135395000Y-113807713D01*
X135284482Y-113774188D01*
X135160000Y-113761928D01*
X134360000Y-113761928D01*
X134235518Y-113774188D01*
X134125000Y-113807713D01*
X134014482Y-113774188D01*
X133890000Y-113761928D01*
X133090000Y-113761928D01*
X132965518Y-113774188D01*
X132855000Y-113807713D01*
X132744482Y-113774188D01*
X132620000Y-113761928D01*
X131820000Y-113761928D01*
X131695518Y-113774188D01*
X131585000Y-113807713D01*
X131474482Y-113774188D01*
X131350000Y-113761928D01*
X130550000Y-113761928D01*
X130425518Y-113774188D01*
X130315000Y-113807713D01*
X130204482Y-113774188D01*
X130080000Y-113761928D01*
X129280000Y-113761928D01*
X129155518Y-113774188D01*
X129045000Y-113807713D01*
X128934482Y-113774188D01*
X128810000Y-113761928D01*
X128010000Y-113761928D01*
X127885518Y-113774188D01*
X127775000Y-113807713D01*
X127664482Y-113774188D01*
X127540000Y-113761928D01*
X126740000Y-113761928D01*
X126615518Y-113774188D01*
X126495820Y-113810498D01*
X126385506Y-113869463D01*
X126288815Y-113948815D01*
X126209463Y-114045506D01*
X126150498Y-114155820D01*
X126114188Y-114275518D01*
X126101928Y-114400000D01*
X126101928Y-117400000D01*
X126114188Y-117524482D01*
X126150498Y-117644180D01*
X126209463Y-117754494D01*
X126288815Y-117851185D01*
X126380001Y-117926019D01*
X126380001Y-118065000D01*
X126348061Y-118065000D01*
X126148102Y-118104774D01*
X125959744Y-118182795D01*
X125790226Y-118296063D01*
X125646063Y-118440226D01*
X125532795Y-118609744D01*
X125454774Y-118798102D01*
X125415000Y-118998061D01*
X125415000Y-119201939D01*
X125454774Y-119401898D01*
X125532795Y-119590256D01*
X125646063Y-119759774D01*
X125790226Y-119903937D01*
X125959744Y-120017205D01*
X126148102Y-120095226D01*
X126348061Y-120135000D01*
X126551939Y-120135000D01*
X126751898Y-120095226D01*
X126940256Y-120017205D01*
X127109774Y-119903937D01*
X127253937Y-119759774D01*
X127367205Y-119590256D01*
X127445226Y-119401898D01*
X127485000Y-119201939D01*
X127485000Y-119139802D01*
X127651002Y-118973799D01*
X127680001Y-118950001D01*
X127774974Y-118834276D01*
X127845546Y-118702247D01*
X127889003Y-118558986D01*
X127900000Y-118447333D01*
X127900000Y-118447324D01*
X127903676Y-118410001D01*
X127900000Y-118372678D01*
X127900000Y-118027238D01*
X128010000Y-118038072D01*
X128810000Y-118038072D01*
X128934482Y-118025812D01*
X129045000Y-117992287D01*
X129155518Y-118025812D01*
X129280000Y-118038072D01*
X130080000Y-118038072D01*
X130190001Y-118027238D01*
X130190001Y-118212668D01*
X130186324Y-118250000D01*
X130190001Y-118287333D01*
X130200998Y-118398986D01*
X130205400Y-118413498D01*
X130244454Y-118542246D01*
X130315026Y-118674276D01*
X130386201Y-118761002D01*
X130410000Y-118790001D01*
X130438998Y-118813799D01*
X132581231Y-120956033D01*
X132605030Y-120985032D01*
X132634028Y-121008830D01*
X132720755Y-121080005D01*
X132852784Y-121150577D01*
X132996045Y-121194034D01*
X133145031Y-121208708D01*
X133182364Y-121205031D01*
X144690390Y-121205031D01*
X146090358Y-122605000D01*
X146028061Y-122605000D01*
X145828102Y-122644774D01*
X145639744Y-122722795D01*
X145470226Y-122836063D01*
X145326063Y-122980226D01*
X145295000Y-123026715D01*
X145295000Y-122888061D01*
X145255226Y-122688102D01*
X145177205Y-122499744D01*
X145063937Y-122330226D01*
X144919774Y-122186063D01*
X144750256Y-122072795D01*
X144561898Y-121994774D01*
X144361939Y-121955000D01*
X144158061Y-121955000D01*
X143958102Y-121994774D01*
X143769744Y-122072795D01*
X143600226Y-122186063D01*
X143456063Y-122330226D01*
X143342795Y-122499744D01*
X143264774Y-122688102D01*
X143225000Y-122888061D01*
X143225000Y-123091939D01*
X143264774Y-123291898D01*
X143342795Y-123480256D01*
X143456063Y-123649774D01*
X143500000Y-123693711D01*
X143500001Y-129082668D01*
X143496324Y-129120000D01*
X143510998Y-129268985D01*
X143554454Y-129412246D01*
X143625026Y-129544276D01*
X143696201Y-129631002D01*
X143720000Y-129660001D01*
X143748998Y-129683799D01*
X145161312Y-131096114D01*
X145125000Y-131278665D01*
X145125000Y-131561335D01*
X145180147Y-131838574D01*
X145288320Y-132099727D01*
X145445363Y-132334759D01*
X145645241Y-132534637D01*
X145880273Y-132691680D01*
X146141426Y-132799853D01*
X146418665Y-132855000D01*
X146701335Y-132855000D01*
X146978574Y-132799853D01*
X147239727Y-132691680D01*
X147474759Y-132534637D01*
X147674637Y-132334759D01*
X147831680Y-132099727D01*
X147939853Y-131838574D01*
X147995000Y-131561335D01*
X147995000Y-131278665D01*
X147939853Y-131001426D01*
X147831680Y-130740273D01*
X147674637Y-130505241D01*
X147474759Y-130305363D01*
X147239727Y-130148320D01*
X146978574Y-130040147D01*
X146701335Y-129985000D01*
X146418665Y-129985000D01*
X146236114Y-130021312D01*
X145020000Y-128805199D01*
X145020000Y-126330000D01*
X151976928Y-126330000D01*
X151989188Y-126454482D01*
X152025498Y-126574180D01*
X152084463Y-126684494D01*
X152163815Y-126781185D01*
X152260506Y-126860537D01*
X152370820Y-126919502D01*
X152490518Y-126955812D01*
X152615000Y-126968072D01*
X153204250Y-126965000D01*
X153363000Y-126806250D01*
X153363000Y-125857000D01*
X153617000Y-125857000D01*
X153617000Y-126806250D01*
X153775750Y-126965000D01*
X154365000Y-126968072D01*
X154489482Y-126955812D01*
X154609180Y-126919502D01*
X154719494Y-126860537D01*
X154816185Y-126781185D01*
X154895537Y-126684494D01*
X154954502Y-126574180D01*
X154990812Y-126454482D01*
X155003072Y-126330000D01*
X155000000Y-126015750D01*
X154841250Y-125857000D01*
X153617000Y-125857000D01*
X153363000Y-125857000D01*
X152138750Y-125857000D01*
X151980000Y-126015750D01*
X151976928Y-126330000D01*
X145020000Y-126330000D01*
X145020000Y-123693711D01*
X145063937Y-123649774D01*
X145095000Y-123603285D01*
X145095000Y-123741939D01*
X145134774Y-123941898D01*
X145212795Y-124130256D01*
X145326063Y-124299774D01*
X145470226Y-124443937D01*
X145639744Y-124557205D01*
X145828102Y-124635226D01*
X146028061Y-124675000D01*
X146231939Y-124675000D01*
X146431898Y-124635226D01*
X146620256Y-124557205D01*
X146720836Y-124490000D01*
X152241067Y-124490000D01*
X152309436Y-124573309D01*
X152260506Y-124599463D01*
X152163815Y-124678815D01*
X152084463Y-124775506D01*
X152025498Y-124885820D01*
X151989188Y-125005518D01*
X151976928Y-125130000D01*
X151980000Y-125444250D01*
X152138750Y-125603000D01*
X153363000Y-125603000D01*
X153363000Y-125583000D01*
X153617000Y-125583000D01*
X153617000Y-125603000D01*
X154841250Y-125603000D01*
X155000000Y-125444250D01*
X155003072Y-125130000D01*
X154990812Y-125005518D01*
X154954502Y-124885820D01*
X154895537Y-124775506D01*
X154816185Y-124678815D01*
X154719494Y-124599463D01*
X154670564Y-124573309D01*
X154796833Y-124419449D01*
X154911511Y-124204901D01*
X154982130Y-123972102D01*
X155005975Y-123730000D01*
X154982130Y-123487898D01*
X154911511Y-123255099D01*
X154796833Y-123040551D01*
X154642502Y-122852498D01*
X154454449Y-122698167D01*
X154239901Y-122583489D01*
X154007102Y-122512870D01*
X153825665Y-122495000D01*
X153154335Y-122495000D01*
X152972898Y-122512870D01*
X152740099Y-122583489D01*
X152525551Y-122698167D01*
X152337498Y-122852498D01*
X152241067Y-122970000D01*
X150618072Y-122970000D01*
X150618072Y-122436730D01*
X151351009Y-121703794D01*
X151380001Y-121680001D01*
X151403795Y-121651008D01*
X151403799Y-121651004D01*
X151474973Y-121564277D01*
X151474974Y-121564276D01*
X151545546Y-121432247D01*
X151589003Y-121288986D01*
X151600000Y-121177333D01*
X151600000Y-121177324D01*
X151603676Y-121140001D01*
X151600000Y-121102678D01*
X151600000Y-120112301D01*
X152010425Y-119701877D01*
X152029528Y-119764852D01*
X152111595Y-119918387D01*
X152222038Y-120052962D01*
X152356613Y-120163405D01*
X152510148Y-120245472D01*
X152676744Y-120296008D01*
X152849998Y-120313072D01*
X153375771Y-120313072D01*
X154013701Y-120951003D01*
X154037499Y-120980001D01*
X154153224Y-121074974D01*
X154261928Y-121133078D01*
X154261928Y-121190000D01*
X154274188Y-121314482D01*
X154310498Y-121434180D01*
X154369463Y-121544494D01*
X154448815Y-121641185D01*
X154545506Y-121720537D01*
X154655820Y-121779502D01*
X154775518Y-121815812D01*
X154900000Y-121828072D01*
X155900000Y-121828072D01*
X156024482Y-121815812D01*
X156144180Y-121779502D01*
X156254494Y-121720537D01*
X156340000Y-121650364D01*
X156340000Y-129264098D01*
X156288601Y-129187174D01*
X155872826Y-128771399D01*
X155383928Y-128444727D01*
X154840692Y-128219712D01*
X154263997Y-128105000D01*
X153676003Y-128105000D01*
X153099308Y-128219712D01*
X152556072Y-128444727D01*
X152067174Y-128771399D01*
X151651399Y-129187174D01*
X151324727Y-129676072D01*
X151099712Y-130219308D01*
X150985000Y-130796003D01*
X150985000Y-131383997D01*
X151099712Y-131960692D01*
X151324727Y-132503928D01*
X151651399Y-132992826D01*
X151998573Y-133340000D01*
X107870800Y-133340000D01*
X107902826Y-133318601D01*
X108318601Y-132902826D01*
X108645273Y-132413928D01*
X108870288Y-131870692D01*
X108985000Y-131293997D01*
X108985000Y-130706003D01*
X108870288Y-130129308D01*
X108645273Y-129586072D01*
X108318601Y-129097174D01*
X107902826Y-128681399D01*
X107748187Y-128578072D01*
X108000000Y-128578072D01*
X108124482Y-128565812D01*
X108244180Y-128529502D01*
X108354494Y-128470537D01*
X108451185Y-128391185D01*
X108530537Y-128294494D01*
X108589502Y-128184180D01*
X108625812Y-128064482D01*
X108638072Y-127940000D01*
X108638072Y-127300000D01*
X110225199Y-127300000D01*
X114256205Y-131331008D01*
X114279999Y-131360001D01*
X114308992Y-131383795D01*
X114308996Y-131383799D01*
X114379685Y-131441811D01*
X114395724Y-131454974D01*
X114527753Y-131525546D01*
X114671014Y-131569003D01*
X114782667Y-131580000D01*
X114782676Y-131580000D01*
X114819999Y-131583676D01*
X114857322Y-131580000D01*
X114901928Y-131580000D01*
X114901928Y-132625000D01*
X114914188Y-132749482D01*
X114950498Y-132869180D01*
X115009463Y-132979494D01*
X115088815Y-133076185D01*
X115185506Y-133155537D01*
X115295820Y-133214502D01*
X115415518Y-133250812D01*
X115540000Y-133263072D01*
X116530000Y-133263072D01*
X116654482Y-133250812D01*
X116774180Y-133214502D01*
X116800000Y-133200701D01*
X116825820Y-133214502D01*
X116945518Y-133250812D01*
X117070000Y-133263072D01*
X118060000Y-133263072D01*
X118184482Y-133250812D01*
X118304180Y-133214502D01*
X118414494Y-133155537D01*
X118511185Y-133076185D01*
X118590537Y-132979494D01*
X118649502Y-132869180D01*
X118685812Y-132749482D01*
X118698072Y-132625000D01*
X118698072Y-131580000D01*
X118745792Y-131580000D01*
X118753992Y-131663255D01*
X118804528Y-131829851D01*
X118886595Y-131983387D01*
X118997038Y-132117962D01*
X119131613Y-132228405D01*
X119285149Y-132310472D01*
X119451745Y-132361008D01*
X119624999Y-132378072D01*
X120150001Y-132378072D01*
X120323255Y-132361008D01*
X120489851Y-132310472D01*
X120643387Y-132228405D01*
X120777962Y-132117962D01*
X120800000Y-132091109D01*
X120822038Y-132117962D01*
X120956613Y-132228405D01*
X121110149Y-132310472D01*
X121276745Y-132361008D01*
X121449999Y-132378072D01*
X121975001Y-132378072D01*
X122148255Y-132361008D01*
X122314851Y-132310472D01*
X122468387Y-132228405D01*
X122544770Y-132165719D01*
X122545328Y-132173195D01*
X122577559Y-132294055D01*
X122632750Y-132406305D01*
X122708779Y-132505630D01*
X122802725Y-132588215D01*
X122910977Y-132650885D01*
X123029375Y-132691232D01*
X123141250Y-132705000D01*
X123300000Y-132546250D01*
X123458750Y-132705000D01*
X123570625Y-132691232D01*
X123689023Y-132650885D01*
X123797275Y-132588215D01*
X123891221Y-132505630D01*
X123967250Y-132406305D01*
X124022441Y-132294055D01*
X124054672Y-132173195D01*
X124060000Y-132101750D01*
X123901250Y-131943000D01*
X123175000Y-131943000D01*
X123175000Y-131868072D01*
X123425000Y-131868072D01*
X123549482Y-131855812D01*
X123611497Y-131837000D01*
X123901250Y-131837000D01*
X123969211Y-131769039D01*
X124848096Y-131769039D01*
X124888754Y-131903087D01*
X125008963Y-132157420D01*
X125176481Y-132383414D01*
X125384869Y-132572385D01*
X125626119Y-132717070D01*
X125890960Y-132811909D01*
X126113000Y-132690624D01*
X126113000Y-131547000D01*
X126367000Y-131547000D01*
X126367000Y-132690624D01*
X126589040Y-132811909D01*
X126853881Y-132717070D01*
X127095131Y-132572385D01*
X127303519Y-132383414D01*
X127471037Y-132157420D01*
X127591246Y-131903087D01*
X127631904Y-131769039D01*
X127509915Y-131547000D01*
X126367000Y-131547000D01*
X126113000Y-131547000D01*
X124970085Y-131547000D01*
X124848096Y-131769039D01*
X123969211Y-131769039D01*
X124060000Y-131678250D01*
X124054672Y-131606805D01*
X124022441Y-131485945D01*
X124015324Y-131471470D01*
X124050812Y-131354482D01*
X124063072Y-131230000D01*
X124063072Y-131070961D01*
X124848096Y-131070961D01*
X124970085Y-131293000D01*
X126113000Y-131293000D01*
X126113000Y-130149376D01*
X126367000Y-130149376D01*
X126367000Y-131293000D01*
X127509915Y-131293000D01*
X127631904Y-131070961D01*
X127591246Y-130936913D01*
X127471037Y-130682580D01*
X127303519Y-130456586D01*
X127095131Y-130267615D01*
X126853881Y-130122930D01*
X126589040Y-130028091D01*
X126367000Y-130149376D01*
X126113000Y-130149376D01*
X125890960Y-130028091D01*
X125626119Y-130122930D01*
X125384869Y-130267615D01*
X125176481Y-130456586D01*
X125008963Y-130682580D01*
X124888754Y-130936913D01*
X124848096Y-131070961D01*
X124063072Y-131070961D01*
X124063072Y-131056143D01*
X124063677Y-131050000D01*
X124063072Y-131043857D01*
X124063072Y-130870000D01*
X124060000Y-130838808D01*
X124060000Y-129873711D01*
X124103937Y-129829774D01*
X124217205Y-129660256D01*
X124295226Y-129471898D01*
X124335000Y-129271939D01*
X124335000Y-129068061D01*
X124295226Y-128868102D01*
X124217205Y-128679744D01*
X124103937Y-128510226D01*
X123959774Y-128366063D01*
X123790256Y-128252795D01*
X123601898Y-128174774D01*
X123401939Y-128135000D01*
X123263072Y-128135000D01*
X123263072Y-127349999D01*
X123246008Y-127176745D01*
X123195472Y-127010149D01*
X123194744Y-127008786D01*
X123310149Y-127070472D01*
X123476745Y-127121008D01*
X123649999Y-127138072D01*
X124175001Y-127138072D01*
X124348255Y-127121008D01*
X124514851Y-127070472D01*
X124668387Y-126988405D01*
X124802962Y-126877962D01*
X124913405Y-126743387D01*
X124995472Y-126589851D01*
X125046008Y-126423255D01*
X125063072Y-126250001D01*
X125063072Y-125349999D01*
X125046008Y-125176745D01*
X124995472Y-125010149D01*
X124913405Y-124856613D01*
X124891128Y-124829469D01*
X124907726Y-124789398D01*
X124947500Y-124589439D01*
X124947500Y-124385561D01*
X124907726Y-124185602D01*
X124829705Y-123997244D01*
X124716437Y-123827726D01*
X124572274Y-123683563D01*
X124402756Y-123570295D01*
X124214398Y-123492274D01*
X124014439Y-123452500D01*
X123810561Y-123452500D01*
X123610602Y-123492274D01*
X123422244Y-123570295D01*
X123252726Y-123683563D01*
X123108563Y-123827726D01*
X122995295Y-123997244D01*
X122917274Y-124185602D01*
X122877500Y-124385561D01*
X122877500Y-124589439D01*
X122889422Y-124649375D01*
X122843387Y-124611595D01*
X122783511Y-124579590D01*
X122719975Y-124460724D01*
X122670139Y-124400000D01*
X122625002Y-124345000D01*
X122595999Y-124321198D01*
X122163804Y-123889003D01*
X122140001Y-123859999D01*
X122126742Y-123849118D01*
X122130537Y-123844494D01*
X122189502Y-123734180D01*
X122225812Y-123614482D01*
X122238072Y-123490000D01*
X122238072Y-123156891D01*
X125878519Y-123156891D01*
X125975843Y-123431252D01*
X126124822Y-123681355D01*
X126319731Y-123897588D01*
X126553080Y-124071641D01*
X126815901Y-124196825D01*
X126963110Y-124241476D01*
X127193000Y-124120155D01*
X127193000Y-122927000D01*
X125999186Y-122927000D01*
X125878519Y-123156891D01*
X122238072Y-123156891D01*
X122238072Y-122443109D01*
X125878519Y-122443109D01*
X125999186Y-122673000D01*
X127193000Y-122673000D01*
X127193000Y-121479845D01*
X127447000Y-121479845D01*
X127447000Y-122673000D01*
X127467000Y-122673000D01*
X127467000Y-122927000D01*
X127447000Y-122927000D01*
X127447000Y-124120155D01*
X127676890Y-124241476D01*
X127824099Y-124196825D01*
X128086920Y-124071641D01*
X128320269Y-123897588D01*
X128515178Y-123681355D01*
X128584805Y-123564466D01*
X128706525Y-123746632D01*
X128913368Y-123953475D01*
X129156589Y-124115990D01*
X129426842Y-124227932D01*
X129713740Y-124285000D01*
X130006260Y-124285000D01*
X130293158Y-124227932D01*
X130563411Y-124115990D01*
X130806632Y-123953475D01*
X130938487Y-123821620D01*
X130960498Y-123894180D01*
X131019463Y-124004494D01*
X131098815Y-124101185D01*
X131195506Y-124180537D01*
X131305820Y-124239502D01*
X131425518Y-124275812D01*
X131550000Y-124288072D01*
X133250000Y-124288072D01*
X133374482Y-124275812D01*
X133494180Y-124239502D01*
X133604494Y-124180537D01*
X133701185Y-124101185D01*
X133780537Y-124004494D01*
X133839502Y-123894180D01*
X133875812Y-123774482D01*
X133888072Y-123650000D01*
X133888072Y-121950000D01*
X133875812Y-121825518D01*
X133839502Y-121705820D01*
X133780537Y-121595506D01*
X133701185Y-121498815D01*
X133604494Y-121419463D01*
X133494180Y-121360498D01*
X133374482Y-121324188D01*
X133250000Y-121311928D01*
X131550000Y-121311928D01*
X131425518Y-121324188D01*
X131305820Y-121360498D01*
X131195506Y-121419463D01*
X131098815Y-121498815D01*
X131019463Y-121595506D01*
X130960498Y-121705820D01*
X130938487Y-121778380D01*
X130806632Y-121646525D01*
X130563411Y-121484010D01*
X130293158Y-121372068D01*
X130006260Y-121315000D01*
X129713740Y-121315000D01*
X129426842Y-121372068D01*
X129156589Y-121484010D01*
X128913368Y-121646525D01*
X128706525Y-121853368D01*
X128584805Y-122035534D01*
X128515178Y-121918645D01*
X128320269Y-121702412D01*
X128086920Y-121528359D01*
X127824099Y-121403175D01*
X127676890Y-121358524D01*
X127447000Y-121479845D01*
X127193000Y-121479845D01*
X126963110Y-121358524D01*
X126815901Y-121403175D01*
X126553080Y-121528359D01*
X126319731Y-121702412D01*
X126124822Y-121918645D01*
X125975843Y-122168748D01*
X125878519Y-122443109D01*
X122238072Y-122443109D01*
X122238072Y-120690000D01*
X122225812Y-120565518D01*
X122189502Y-120445820D01*
X122130537Y-120335506D01*
X122051185Y-120238815D01*
X121954494Y-120159463D01*
X121844180Y-120100498D01*
X121724482Y-120064188D01*
X121600000Y-120051928D01*
X119000000Y-120051928D01*
X118875518Y-120064188D01*
X118755820Y-120100498D01*
X118645506Y-120159463D01*
X118548815Y-120238815D01*
X118469463Y-120335506D01*
X118410498Y-120445820D01*
X118374188Y-120565518D01*
X118361928Y-120690000D01*
X118361928Y-123490000D01*
X118374188Y-123614482D01*
X118381929Y-123640000D01*
X116251451Y-123640000D01*
X116315990Y-123543411D01*
X116427932Y-123273158D01*
X116485000Y-122986260D01*
X116485000Y-122693740D01*
X116427932Y-122406842D01*
X116315990Y-122136589D01*
X116153475Y-121893368D01*
X115946632Y-121686525D01*
X115703411Y-121524010D01*
X115433158Y-121412068D01*
X115146260Y-121355000D01*
X114853740Y-121355000D01*
X114566842Y-121412068D01*
X114296589Y-121524010D01*
X114053368Y-121686525D01*
X113846525Y-121893368D01*
X113684010Y-122136589D01*
X113572068Y-122406842D01*
X113515000Y-122693740D01*
X113515000Y-122986260D01*
X113572068Y-123273158D01*
X113684010Y-123543411D01*
X113748549Y-123640000D01*
X112837322Y-123640000D01*
X112799999Y-123636324D01*
X112762676Y-123640000D01*
X112762667Y-123640000D01*
X112651014Y-123650997D01*
X112507753Y-123694454D01*
X112375723Y-123765026D01*
X112299324Y-123827726D01*
X112259999Y-123859999D01*
X112236201Y-123888997D01*
X110345199Y-125780000D01*
X108638072Y-125780000D01*
X108638072Y-125140000D01*
X108625812Y-125015518D01*
X108589502Y-124895820D01*
X108530537Y-124785506D01*
X108451185Y-124688815D01*
X108354494Y-124609463D01*
X108244180Y-124550498D01*
X108124482Y-124514188D01*
X108000000Y-124501928D01*
X105800000Y-124501928D01*
X105675518Y-124514188D01*
X105555820Y-124550498D01*
X105445506Y-124609463D01*
X105348815Y-124688815D01*
X105269463Y-124785506D01*
X105210498Y-124895820D01*
X105174188Y-125015518D01*
X105161928Y-125140000D01*
X105161928Y-127940000D01*
X105174188Y-128064482D01*
X105190295Y-128117581D01*
X105129308Y-128129712D01*
X104586072Y-128354727D01*
X104097174Y-128681399D01*
X103681399Y-129097174D01*
X103660000Y-129129200D01*
X103660000Y-122693740D01*
X106515000Y-122693740D01*
X106515000Y-122986260D01*
X106572068Y-123273158D01*
X106684010Y-123543411D01*
X106846525Y-123786632D01*
X107053368Y-123993475D01*
X107296589Y-124155990D01*
X107566842Y-124267932D01*
X107853740Y-124325000D01*
X108146260Y-124325000D01*
X108433158Y-124267932D01*
X108703411Y-124155990D01*
X108946632Y-123993475D01*
X109153475Y-123786632D01*
X109315990Y-123543411D01*
X109427932Y-123273158D01*
X109485000Y-122986260D01*
X109485000Y-122693740D01*
X109427932Y-122406842D01*
X109315990Y-122136589D01*
X109153475Y-121893368D01*
X108946632Y-121686525D01*
X108703411Y-121524010D01*
X108433158Y-121412068D01*
X108146260Y-121355000D01*
X107853740Y-121355000D01*
X107566842Y-121412068D01*
X107296589Y-121524010D01*
X107053368Y-121686525D01*
X106846525Y-121893368D01*
X106684010Y-122136589D01*
X106572068Y-122406842D01*
X106515000Y-122693740D01*
X103660000Y-122693740D01*
X103660000Y-117740000D01*
X107161928Y-117740000D01*
X107161928Y-120540000D01*
X107174188Y-120664482D01*
X107210498Y-120784180D01*
X107269463Y-120894494D01*
X107348815Y-120991185D01*
X107445506Y-121070537D01*
X107555820Y-121129502D01*
X107675518Y-121165812D01*
X107800000Y-121178072D01*
X110000000Y-121178072D01*
X110124482Y-121165812D01*
X110244180Y-121129502D01*
X110354494Y-121070537D01*
X110451185Y-120991185D01*
X110530537Y-120894494D01*
X110589502Y-120784180D01*
X110625812Y-120664482D01*
X110638072Y-120540000D01*
X110638072Y-117740000D01*
X110625812Y-117615518D01*
X110589502Y-117495820D01*
X110530537Y-117385506D01*
X110451185Y-117288815D01*
X110354494Y-117209463D01*
X110244180Y-117150498D01*
X110124482Y-117114188D01*
X110000000Y-117101928D01*
X107800000Y-117101928D01*
X107675518Y-117114188D01*
X107555820Y-117150498D01*
X107445506Y-117209463D01*
X107348815Y-117288815D01*
X107269463Y-117385506D01*
X107210498Y-117495820D01*
X107174188Y-117615518D01*
X107161928Y-117740000D01*
X103660000Y-117740000D01*
X103660000Y-112350000D01*
X104311928Y-112350000D01*
X104311928Y-114050000D01*
X104324188Y-114174482D01*
X104360498Y-114294180D01*
X104419463Y-114404494D01*
X104498815Y-114501185D01*
X104595506Y-114580537D01*
X104705820Y-114639502D01*
X104825518Y-114675812D01*
X104950000Y-114688072D01*
X106650000Y-114688072D01*
X106774482Y-114675812D01*
X106894180Y-114639502D01*
X107004494Y-114580537D01*
X107101185Y-114501185D01*
X107180537Y-114404494D01*
X107239502Y-114294180D01*
X107263966Y-114213534D01*
X107339731Y-114297588D01*
X107573080Y-114471641D01*
X107835901Y-114596825D01*
X107983110Y-114641476D01*
X108213000Y-114520155D01*
X108213000Y-113327000D01*
X108193000Y-113327000D01*
X108193000Y-113073000D01*
X108213000Y-113073000D01*
X108213000Y-111879845D01*
X108467000Y-111879845D01*
X108467000Y-113073000D01*
X108487000Y-113073000D01*
X108487000Y-113327000D01*
X108467000Y-113327000D01*
X108467000Y-114520155D01*
X108696890Y-114641476D01*
X108844099Y-114596825D01*
X109106920Y-114471641D01*
X109340269Y-114297588D01*
X109535178Y-114081355D01*
X109604805Y-113964466D01*
X109726525Y-114146632D01*
X109933368Y-114353475D01*
X110176589Y-114515990D01*
X110446842Y-114627932D01*
X110733740Y-114685000D01*
X111026260Y-114685000D01*
X111313158Y-114627932D01*
X111583411Y-114515990D01*
X111826632Y-114353475D01*
X112033475Y-114146632D01*
X112150000Y-113972240D01*
X112266525Y-114146632D01*
X112473368Y-114353475D01*
X112716589Y-114515990D01*
X112986842Y-114627932D01*
X113273740Y-114685000D01*
X113566260Y-114685000D01*
X113853158Y-114627932D01*
X114123411Y-114515990D01*
X114366632Y-114353475D01*
X114573475Y-114146632D01*
X114735990Y-113903411D01*
X114847932Y-113633158D01*
X114905000Y-113346260D01*
X114905000Y-113053740D01*
X114847932Y-112766842D01*
X114735990Y-112496589D01*
X114573475Y-112253368D01*
X114366632Y-112046525D01*
X114123411Y-111884010D01*
X113853158Y-111772068D01*
X113566260Y-111715000D01*
X113273740Y-111715000D01*
X112986842Y-111772068D01*
X112716589Y-111884010D01*
X112473368Y-112046525D01*
X112266525Y-112253368D01*
X112150000Y-112427760D01*
X112033475Y-112253368D01*
X111826632Y-112046525D01*
X111583411Y-111884010D01*
X111313158Y-111772068D01*
X111026260Y-111715000D01*
X110733740Y-111715000D01*
X110446842Y-111772068D01*
X110176589Y-111884010D01*
X109933368Y-112046525D01*
X109726525Y-112253368D01*
X109604805Y-112435534D01*
X109535178Y-112318645D01*
X109340269Y-112102412D01*
X109106920Y-111928359D01*
X108844099Y-111803175D01*
X108696890Y-111758524D01*
X108467000Y-111879845D01*
X108213000Y-111879845D01*
X107983110Y-111758524D01*
X107835901Y-111803175D01*
X107573080Y-111928359D01*
X107339731Y-112102412D01*
X107263966Y-112186466D01*
X107239502Y-112105820D01*
X107180537Y-111995506D01*
X107101185Y-111898815D01*
X107004494Y-111819463D01*
X106894180Y-111760498D01*
X106774482Y-111724188D01*
X106650000Y-111711928D01*
X104950000Y-111711928D01*
X104825518Y-111724188D01*
X104705820Y-111760498D01*
X104595506Y-111819463D01*
X104498815Y-111898815D01*
X104419463Y-111995506D01*
X104360498Y-112105820D01*
X104324188Y-112225518D01*
X104311928Y-112350000D01*
X103660000Y-112350000D01*
X103660000Y-111229208D01*
X103750000Y-111238072D01*
X103964250Y-111235000D01*
X104123000Y-111076250D01*
X104123000Y-109977000D01*
X104103000Y-109977000D01*
X104103000Y-109723000D01*
X104123000Y-109723000D01*
X104123000Y-109703000D01*
X104377000Y-109703000D01*
X104377000Y-109723000D01*
X104397000Y-109723000D01*
X104397000Y-109977000D01*
X104377000Y-109977000D01*
X104377000Y-111076250D01*
X104535750Y-111235000D01*
X104750000Y-111238072D01*
X104874482Y-111225812D01*
X104994180Y-111189502D01*
X105104494Y-111130537D01*
X105201185Y-111051185D01*
X105280537Y-110954494D01*
X105339502Y-110844180D01*
X105375812Y-110724482D01*
X105388072Y-110600000D01*
X105387398Y-110498061D01*
X110365000Y-110498061D01*
X110365000Y-110701939D01*
X110404774Y-110901898D01*
X110482795Y-111090256D01*
X110596063Y-111259774D01*
X110740226Y-111403937D01*
X110909744Y-111517205D01*
X111098102Y-111595226D01*
X111298061Y-111635000D01*
X111501939Y-111635000D01*
X111701898Y-111595226D01*
X111890256Y-111517205D01*
X112059774Y-111403937D01*
X112203937Y-111259774D01*
X112317205Y-111090256D01*
X112395226Y-110901898D01*
X112435000Y-110701939D01*
X112435000Y-110498061D01*
X112395226Y-110298102D01*
X112317205Y-110109744D01*
X112203937Y-109940226D01*
X112059774Y-109796063D01*
X111890256Y-109682795D01*
X111701898Y-109604774D01*
X111501939Y-109565000D01*
X111298061Y-109565000D01*
X111098102Y-109604774D01*
X110909744Y-109682795D01*
X110740226Y-109796063D01*
X110596063Y-109940226D01*
X110482795Y-110109744D01*
X110404774Y-110298102D01*
X110365000Y-110498061D01*
X105387398Y-110498061D01*
X105385000Y-110135750D01*
X105226252Y-109977002D01*
X105385000Y-109977002D01*
X105385000Y-109931132D01*
X105411595Y-109980887D01*
X105522038Y-110115462D01*
X105656613Y-110225905D01*
X105810148Y-110307972D01*
X105976744Y-110358508D01*
X106149998Y-110375572D01*
X107050002Y-110375572D01*
X107223256Y-110358508D01*
X107389852Y-110307972D01*
X107543387Y-110225905D01*
X107677962Y-110115462D01*
X107788405Y-109980887D01*
X107870472Y-109827352D01*
X107921008Y-109660756D01*
X107938072Y-109487502D01*
X107938072Y-108962498D01*
X107938003Y-108961799D01*
X108139802Y-108760000D01*
X119890262Y-108760000D01*
X119824774Y-108918102D01*
X119785000Y-109118061D01*
X119785000Y-109321939D01*
X119824774Y-109521898D01*
X119902795Y-109710256D01*
X119915987Y-109730000D01*
X118160903Y-109730000D01*
X118090256Y-109682795D01*
X117901898Y-109604774D01*
X117701939Y-109565000D01*
X117498061Y-109565000D01*
X117298102Y-109604774D01*
X117109744Y-109682795D01*
X116940226Y-109796063D01*
X116900000Y-109836289D01*
X116859774Y-109796063D01*
X116690256Y-109682795D01*
X116501898Y-109604774D01*
X116301939Y-109565000D01*
X116098061Y-109565000D01*
X115898102Y-109604774D01*
X115709744Y-109682795D01*
X115540226Y-109796063D01*
X115396063Y-109940226D01*
X115282795Y-110109744D01*
X115204774Y-110298102D01*
X115165000Y-110498061D01*
X115165000Y-110701939D01*
X115204774Y-110901898D01*
X115282795Y-111090256D01*
X115396063Y-111259774D01*
X115540226Y-111403937D01*
X115709744Y-111517205D01*
X115898102Y-111595226D01*
X116098061Y-111635000D01*
X116160199Y-111635000D01*
X116796200Y-112271002D01*
X116819999Y-112300001D01*
X116935724Y-112394974D01*
X117067753Y-112465546D01*
X117211014Y-112509003D01*
X117322667Y-112520000D01*
X117322675Y-112520000D01*
X117360000Y-112523676D01*
X117397325Y-112520000D01*
X121222762Y-112520000D01*
X121211928Y-112630000D01*
X121211928Y-113430000D01*
X121224188Y-113554482D01*
X121257713Y-113665000D01*
X121224188Y-113775518D01*
X121211928Y-113900000D01*
X121211928Y-114700000D01*
X121224188Y-114824482D01*
X121260498Y-114944180D01*
X121319463Y-115054494D01*
X121398815Y-115151185D01*
X121495506Y-115230537D01*
X121605820Y-115289502D01*
X121725518Y-115325812D01*
X121850000Y-115338072D01*
X124850000Y-115338072D01*
X124974482Y-115325812D01*
X125094180Y-115289502D01*
X125204494Y-115230537D01*
X125301185Y-115151185D01*
X125380537Y-115054494D01*
X125439502Y-114944180D01*
X125475812Y-114824482D01*
X125488072Y-114700000D01*
X125488072Y-113900000D01*
X125475812Y-113775518D01*
X125442287Y-113665000D01*
X125475812Y-113554482D01*
X125488072Y-113430000D01*
X125488072Y-112630000D01*
X125475812Y-112505518D01*
X125442287Y-112395000D01*
X125475812Y-112284482D01*
X125488072Y-112160000D01*
X125488072Y-111360000D01*
X125475812Y-111235518D01*
X125442287Y-111125000D01*
X125475812Y-111014482D01*
X125488072Y-110890000D01*
X125488072Y-110090000D01*
X125475812Y-109965518D01*
X125442287Y-109855000D01*
X125475812Y-109744482D01*
X125488072Y-109620000D01*
X125488072Y-108820000D01*
X125475812Y-108695518D01*
X125442287Y-108585000D01*
X125475812Y-108474482D01*
X125488072Y-108350000D01*
X125488072Y-107550000D01*
X125475812Y-107425518D01*
X125442287Y-107315000D01*
X125475812Y-107204482D01*
X125488072Y-107080000D01*
X125488072Y-106280000D01*
X125475812Y-106155518D01*
X125442287Y-106045000D01*
X125475812Y-105934482D01*
X125488072Y-105810000D01*
X125488072Y-105010000D01*
X125475812Y-104885518D01*
X125442287Y-104775000D01*
X125475812Y-104664482D01*
X125488072Y-104540000D01*
X125488072Y-103740000D01*
X125475812Y-103615518D01*
X125442287Y-103505000D01*
X125475812Y-103394482D01*
X125488072Y-103270000D01*
X125488072Y-102470000D01*
X125475812Y-102345518D01*
X125442287Y-102235000D01*
X125475812Y-102124482D01*
X125488072Y-102000000D01*
X125488072Y-101200000D01*
X125475812Y-101075518D01*
X125442287Y-100965000D01*
X125475812Y-100854482D01*
X125488072Y-100730000D01*
X125488072Y-99930000D01*
X125475812Y-99805518D01*
X125442287Y-99695000D01*
X125475812Y-99584482D01*
X125488072Y-99460000D01*
X125488072Y-98660000D01*
X125475812Y-98535518D01*
X125439502Y-98415820D01*
X125380537Y-98305506D01*
X125301185Y-98208815D01*
X125204494Y-98129463D01*
X125199886Y-98127000D01*
X140490114Y-98127000D01*
X140485506Y-98129463D01*
G37*
%TD.AperFunction*%
D30*
X120953992Y-125176745D02*
X120936928Y-125349999D01*
X120936928Y-126250001D01*
X120953992Y-126423255D01*
X120973999Y-126489209D01*
X120924482Y-126474188D01*
X120800000Y-126461928D01*
X120573250Y-126465000D01*
X120414500Y-126623750D01*
X120414500Y-127673000D01*
X120434500Y-127673000D01*
X120434500Y-127927000D01*
X120414500Y-127927000D01*
X120414500Y-128976250D01*
X120573250Y-129135000D01*
X120800000Y-129138072D01*
X120924482Y-129125812D01*
X121044180Y-129089502D01*
X121154494Y-129030537D01*
X121251185Y-128951185D01*
X121275363Y-128921724D01*
X121356613Y-128988405D01*
X121510149Y-129070472D01*
X121676745Y-129121008D01*
X121849999Y-129138072D01*
X122265000Y-129138072D01*
X122265000Y-129271939D01*
X122304774Y-129471898D01*
X122382795Y-129660256D01*
X122496063Y-129829774D01*
X122540000Y-129873711D01*
X122540000Y-129910367D01*
X122468387Y-129851595D01*
X122314851Y-129769528D01*
X122148255Y-129718992D01*
X121975001Y-129701928D01*
X121449999Y-129701928D01*
X121276745Y-129718992D01*
X121110149Y-129769528D01*
X120956613Y-129851595D01*
X120822038Y-129962038D01*
X120800000Y-129988891D01*
X120777962Y-129962038D01*
X120643387Y-129851595D01*
X120489851Y-129769528D01*
X120323255Y-129718992D01*
X120150001Y-129701928D01*
X119624999Y-129701928D01*
X119451745Y-129718992D01*
X119285149Y-129769528D01*
X119131613Y-129851595D01*
X118997038Y-129962038D01*
X118916643Y-130060000D01*
X118698072Y-130060000D01*
X118698072Y-129015000D01*
X118685812Y-128890518D01*
X118649502Y-128770820D01*
X118590537Y-128660506D01*
X118511185Y-128563815D01*
X118433426Y-128500000D01*
X119136928Y-128500000D01*
X119149188Y-128624482D01*
X119185498Y-128744180D01*
X119244463Y-128854494D01*
X119323815Y-128951185D01*
X119420506Y-129030537D01*
X119530820Y-129089502D01*
X119650518Y-129125812D01*
X119775000Y-129138072D01*
X120001750Y-129135000D01*
X120160500Y-128976250D01*
X120160500Y-127927000D01*
X119298750Y-127927000D01*
X119140000Y-128085750D01*
X119136928Y-128500000D01*
X118433426Y-128500000D01*
X118414494Y-128484463D01*
X118325000Y-128436627D01*
X118325000Y-128067159D01*
X118325812Y-128064482D01*
X118338072Y-127940000D01*
X118338072Y-127100000D01*
X119136928Y-127100000D01*
X119140000Y-127514250D01*
X119298750Y-127673000D01*
X120160500Y-127673000D01*
X120160500Y-126623750D01*
X120001750Y-126465000D01*
X119775000Y-126461928D01*
X119650518Y-126474188D01*
X119530820Y-126510498D01*
X119420506Y-126569463D01*
X119323815Y-126648815D01*
X119244463Y-126745506D01*
X119185498Y-126855820D01*
X119149188Y-126975518D01*
X119136928Y-127100000D01*
X118338072Y-127100000D01*
X118338072Y-125160000D01*
X120959072Y-125160000D01*
X120953992Y-125176745D01*
%TA.AperFunction,Conductor*%
D31*
G36*
X120953992Y-125176745D02*
G01*
X120936928Y-125349999D01*
X120936928Y-126250001D01*
X120953992Y-126423255D01*
X120973999Y-126489209D01*
X120924482Y-126474188D01*
X120800000Y-126461928D01*
X120573250Y-126465000D01*
X120414500Y-126623750D01*
X120414500Y-127673000D01*
X120434500Y-127673000D01*
X120434500Y-127927000D01*
X120414500Y-127927000D01*
X120414500Y-128976250D01*
X120573250Y-129135000D01*
X120800000Y-129138072D01*
X120924482Y-129125812D01*
X121044180Y-129089502D01*
X121154494Y-129030537D01*
X121251185Y-128951185D01*
X121275363Y-128921724D01*
X121356613Y-128988405D01*
X121510149Y-129070472D01*
X121676745Y-129121008D01*
X121849999Y-129138072D01*
X122265000Y-129138072D01*
X122265000Y-129271939D01*
X122304774Y-129471898D01*
X122382795Y-129660256D01*
X122496063Y-129829774D01*
X122540000Y-129873711D01*
X122540000Y-129910367D01*
X122468387Y-129851595D01*
X122314851Y-129769528D01*
X122148255Y-129718992D01*
X121975001Y-129701928D01*
X121449999Y-129701928D01*
X121276745Y-129718992D01*
X121110149Y-129769528D01*
X120956613Y-129851595D01*
X120822038Y-129962038D01*
X120800000Y-129988891D01*
X120777962Y-129962038D01*
X120643387Y-129851595D01*
X120489851Y-129769528D01*
X120323255Y-129718992D01*
X120150001Y-129701928D01*
X119624999Y-129701928D01*
X119451745Y-129718992D01*
X119285149Y-129769528D01*
X119131613Y-129851595D01*
X118997038Y-129962038D01*
X118916643Y-130060000D01*
X118698072Y-130060000D01*
X118698072Y-129015000D01*
X118685812Y-128890518D01*
X118649502Y-128770820D01*
X118590537Y-128660506D01*
X118511185Y-128563815D01*
X118433426Y-128500000D01*
X119136928Y-128500000D01*
X119149188Y-128624482D01*
X119185498Y-128744180D01*
X119244463Y-128854494D01*
X119323815Y-128951185D01*
X119420506Y-129030537D01*
X119530820Y-129089502D01*
X119650518Y-129125812D01*
X119775000Y-129138072D01*
X120001750Y-129135000D01*
X120160500Y-128976250D01*
X120160500Y-127927000D01*
X119298750Y-127927000D01*
X119140000Y-128085750D01*
X119136928Y-128500000D01*
X118433426Y-128500000D01*
X118414494Y-128484463D01*
X118325000Y-128436627D01*
X118325000Y-128067159D01*
X118325812Y-128064482D01*
X118338072Y-127940000D01*
X118338072Y-127100000D01*
X119136928Y-127100000D01*
X119140000Y-127514250D01*
X119298750Y-127673000D01*
X120160500Y-127673000D01*
X120160500Y-126623750D01*
X120001750Y-126465000D01*
X119775000Y-126461928D01*
X119650518Y-126474188D01*
X119530820Y-126510498D01*
X119420506Y-126569463D01*
X119323815Y-126648815D01*
X119244463Y-126745506D01*
X119185498Y-126855820D01*
X119149188Y-126975518D01*
X119136928Y-127100000D01*
X118338072Y-127100000D01*
X118338072Y-125160000D01*
X120959072Y-125160000D01*
X120953992Y-125176745D01*
G37*
%TD.AperFunction*%
D30*
X114261928Y-127940000D02*
X114274188Y-128064482D01*
X114310498Y-128184180D01*
X114369463Y-128294494D01*
X114448815Y-128391185D01*
X114545506Y-128470537D01*
X114655820Y-128529502D01*
X114775518Y-128565812D01*
X114900000Y-128578072D01*
X115077115Y-128578072D01*
X115009463Y-128660506D01*
X114950498Y-128770820D01*
X114914188Y-128890518D01*
X114901928Y-129015000D01*
X114901928Y-129827125D01*
X111674801Y-126600000D01*
X113114802Y-125160000D01*
X114261928Y-125160000D01*
X114261928Y-127940000D01*
%TA.AperFunction,Conductor*%
D31*
G36*
X114261928Y-127940000D02*
G01*
X114274188Y-128064482D01*
X114310498Y-128184180D01*
X114369463Y-128294494D01*
X114448815Y-128391185D01*
X114545506Y-128470537D01*
X114655820Y-128529502D01*
X114775518Y-128565812D01*
X114900000Y-128578072D01*
X115077115Y-128578072D01*
X115009463Y-128660506D01*
X114950498Y-128770820D01*
X114914188Y-128890518D01*
X114901928Y-129015000D01*
X114901928Y-129827125D01*
X111674801Y-126600000D01*
X113114802Y-125160000D01*
X114261928Y-125160000D01*
X114261928Y-127940000D01*
G37*
%TD.AperFunction*%
D30*
X149607000Y-119833000D02*
X149627000Y-119833000D01*
X149627000Y-120087000D01*
X149607000Y-120087000D01*
X149607000Y-121103000D01*
X149627000Y-121103000D01*
X149627000Y-121278198D01*
X149543270Y-121361928D01*
X149353000Y-121361928D01*
X149353000Y-121357000D01*
X149341974Y-121357000D01*
X149345000Y-121341788D01*
X149345000Y-121118212D01*
X149341974Y-121103000D01*
X149353000Y-121103000D01*
X149353000Y-120087000D01*
X149341974Y-120087000D01*
X149345000Y-120071788D01*
X149345000Y-119848212D01*
X149341974Y-119833000D01*
X149353000Y-119833000D01*
X149353000Y-119821974D01*
X149368212Y-119825000D01*
X149591788Y-119825000D01*
X149607000Y-119821974D01*
X149607000Y-119833000D01*
%TA.AperFunction,Conductor*%
D31*
G36*
X149607000Y-119833000D02*
G01*
X149627000Y-119833000D01*
X149627000Y-120087000D01*
X149607000Y-120087000D01*
X149607000Y-121103000D01*
X149627000Y-121103000D01*
X149627000Y-121278198D01*
X149543270Y-121361928D01*
X149353000Y-121361928D01*
X149353000Y-121357000D01*
X149341974Y-121357000D01*
X149345000Y-121341788D01*
X149345000Y-121118212D01*
X149341974Y-121103000D01*
X149353000Y-121103000D01*
X149353000Y-120087000D01*
X149341974Y-120087000D01*
X149345000Y-120071788D01*
X149345000Y-119848212D01*
X149341974Y-119833000D01*
X149353000Y-119833000D01*
X149353000Y-119821974D01*
X149368212Y-119825000D01*
X149591788Y-119825000D01*
X149607000Y-119821974D01*
X149607000Y-119833000D01*
G37*
%TD.AperFunction*%
D30*
X153485498Y-100255820D02*
X153449188Y-100375518D01*
X153436928Y-100500000D01*
X153440000Y-100914250D01*
X153598750Y-101073000D01*
X154473000Y-101073000D01*
X154473000Y-101053000D01*
X154727000Y-101053000D01*
X154727000Y-101073000D01*
X154747000Y-101073000D01*
X154747000Y-101327000D01*
X154727000Y-101327000D01*
X154727000Y-102376250D01*
X154885750Y-102535000D01*
X155125000Y-102538072D01*
X155249482Y-102525812D01*
X155325000Y-102502904D01*
X155400518Y-102525812D01*
X155440001Y-102529701D01*
X155440000Y-103470299D01*
X155400518Y-103474188D01*
X155325000Y-103497096D01*
X155249482Y-103474188D01*
X155125000Y-103461928D01*
X154885750Y-103465000D01*
X154727000Y-103623750D01*
X154727000Y-104673000D01*
X154747000Y-104673000D01*
X154747000Y-104927000D01*
X154727000Y-104927000D01*
X154727000Y-105976250D01*
X154885750Y-106135000D01*
X155125000Y-106138072D01*
X155249482Y-106125812D01*
X155325000Y-106102904D01*
X155400518Y-106125812D01*
X155525000Y-106138072D01*
X156340001Y-106138072D01*
X156340001Y-108511928D01*
X155525000Y-108511928D01*
X155400518Y-108524188D01*
X155325000Y-108547096D01*
X155249482Y-108524188D01*
X155125000Y-108511928D01*
X154885750Y-108515000D01*
X154727000Y-108673750D01*
X154727000Y-109723000D01*
X154747000Y-109723000D01*
X154747000Y-109977000D01*
X154727000Y-109977000D01*
X154727000Y-111026250D01*
X154885750Y-111185000D01*
X155125000Y-111188072D01*
X155249482Y-111175812D01*
X155325000Y-111152904D01*
X155400518Y-111175812D01*
X155440001Y-111179701D01*
X155440000Y-112120299D01*
X155400518Y-112124188D01*
X155325000Y-112147096D01*
X155249482Y-112124188D01*
X155125000Y-112111928D01*
X154885750Y-112115000D01*
X154727000Y-112273750D01*
X154727000Y-113323000D01*
X154747000Y-113323000D01*
X154747000Y-113577000D01*
X154727000Y-113577000D01*
X154727000Y-114626250D01*
X154848998Y-114748248D01*
X154757795Y-114884744D01*
X154679774Y-115073102D01*
X154640000Y-115273061D01*
X154640000Y-115476939D01*
X154679774Y-115676898D01*
X154757795Y-115865256D01*
X154871063Y-116034774D01*
X155015226Y-116178937D01*
X155184744Y-116292205D01*
X155373102Y-116370226D01*
X155573061Y-116410000D01*
X155776939Y-116410000D01*
X155976898Y-116370226D01*
X156165256Y-116292205D01*
X156334774Y-116178937D01*
X156340000Y-116173711D01*
X156340000Y-116729636D01*
X156254494Y-116659463D01*
X156144180Y-116600498D01*
X156024482Y-116564188D01*
X155900000Y-116551928D01*
X155685750Y-116555000D01*
X155527000Y-116713750D01*
X155527000Y-117813000D01*
X155547000Y-117813000D01*
X155547000Y-118067000D01*
X155527000Y-118067000D01*
X155527000Y-118087000D01*
X155273000Y-118087000D01*
X155273000Y-118067000D01*
X155253000Y-118067000D01*
X155253000Y-117813000D01*
X155273000Y-117813000D01*
X155273000Y-116713750D01*
X155114250Y-116555000D01*
X154900000Y-116551928D01*
X154775518Y-116564188D01*
X154655820Y-116600498D01*
X154545506Y-116659463D01*
X154534740Y-116668299D01*
X154488405Y-116581613D01*
X154377962Y-116447038D01*
X154243387Y-116336595D01*
X154089852Y-116254528D01*
X154060000Y-116245473D01*
X154060000Y-115465622D01*
X154063676Y-115428299D01*
X154060000Y-115390976D01*
X154060000Y-115390967D01*
X154049003Y-115279314D01*
X154005546Y-115136053D01*
X153934974Y-115004024D01*
X153891232Y-114950724D01*
X153863799Y-114917296D01*
X153863795Y-114917292D01*
X153840001Y-114888299D01*
X153811008Y-114864505D01*
X153117672Y-114171170D01*
X153117672Y-114150000D01*
X153436928Y-114150000D01*
X153449188Y-114274482D01*
X153485498Y-114394180D01*
X153544463Y-114504494D01*
X153623815Y-114601185D01*
X153720506Y-114680537D01*
X153830820Y-114739502D01*
X153950518Y-114775812D01*
X154075000Y-114788072D01*
X154314250Y-114785000D01*
X154473000Y-114626250D01*
X154473000Y-113577000D01*
X153598750Y-113577000D01*
X153440000Y-113735750D01*
X153436928Y-114150000D01*
X153117672Y-114150000D01*
X153117672Y-113541100D01*
X153105412Y-113416618D01*
X153069102Y-113296920D01*
X153010137Y-113186606D01*
X152930785Y-113089915D01*
X152834094Y-113010563D01*
X152723780Y-112951598D01*
X152604082Y-112915288D01*
X152479600Y-112903028D01*
X151260400Y-112903028D01*
X151135918Y-112915288D01*
X151016220Y-112951598D01*
X150905906Y-113010563D01*
X150809215Y-113089915D01*
X150729863Y-113186606D01*
X150670898Y-113296920D01*
X150634588Y-113416618D01*
X150622328Y-113541100D01*
X150622328Y-114455500D01*
X150634588Y-114579982D01*
X150670898Y-114699680D01*
X150729863Y-114809994D01*
X150809215Y-114906685D01*
X150905906Y-114986037D01*
X151016220Y-115045002D01*
X151135918Y-115081312D01*
X151260400Y-115093572D01*
X151890470Y-115093572D01*
X152540001Y-115743103D01*
X152540001Y-116245472D01*
X152510148Y-116254528D01*
X152356613Y-116336595D01*
X152222038Y-116447038D01*
X152111595Y-116581613D01*
X152029528Y-116735148D01*
X151978992Y-116901744D01*
X151961928Y-117074998D01*
X151961928Y-117600002D01*
X151961997Y-117600701D01*
X150578770Y-118983929D01*
X150615000Y-118801788D01*
X150615000Y-118578212D01*
X150571383Y-118358933D01*
X150485824Y-118152376D01*
X150417647Y-118050342D01*
X150467123Y-117980206D01*
X150557446Y-117776864D01*
X150574119Y-117721874D01*
X150447954Y-117547000D01*
X149607000Y-117547000D01*
X149607000Y-117558026D01*
X149591788Y-117555000D01*
X149368212Y-117555000D01*
X149353000Y-117558026D01*
X149353000Y-117547000D01*
X149341974Y-117547000D01*
X149345000Y-117531788D01*
X149345000Y-117308212D01*
X149341974Y-117293000D01*
X149353000Y-117293000D01*
X149353000Y-116450871D01*
X149607000Y-116450871D01*
X149607000Y-117293000D01*
X150447954Y-117293000D01*
X150574119Y-117118126D01*
X150557446Y-117063136D01*
X150467123Y-116859794D01*
X150338865Y-116677980D01*
X150177601Y-116524682D01*
X149989529Y-116405790D01*
X149781876Y-116325874D01*
X149607000Y-116450871D01*
X149353000Y-116450871D01*
X149178124Y-116325874D01*
X148970471Y-116405790D01*
X148970000Y-116406088D01*
X148970000Y-111704801D01*
X150689749Y-109985053D01*
X150670898Y-110020320D01*
X150634588Y-110140018D01*
X150622328Y-110264500D01*
X150622328Y-111178900D01*
X150634588Y-111303382D01*
X150670898Y-111423080D01*
X150729863Y-111533394D01*
X150809215Y-111630085D01*
X150835000Y-111651246D01*
X150835000Y-111831939D01*
X150874774Y-112031898D01*
X150952795Y-112220256D01*
X151066063Y-112389774D01*
X151210226Y-112533937D01*
X151379744Y-112647205D01*
X151568102Y-112725226D01*
X151768061Y-112765000D01*
X151971939Y-112765000D01*
X152047349Y-112750000D01*
X153436928Y-112750000D01*
X153440000Y-113164250D01*
X153598750Y-113323000D01*
X154473000Y-113323000D01*
X154473000Y-112273750D01*
X154314250Y-112115000D01*
X154075000Y-112111928D01*
X153950518Y-112124188D01*
X153830820Y-112160498D01*
X153720506Y-112219463D01*
X153623815Y-112298815D01*
X153544463Y-112395506D01*
X153485498Y-112505820D01*
X153449188Y-112625518D01*
X153436928Y-112750000D01*
X152047349Y-112750000D01*
X152171898Y-112725226D01*
X152360256Y-112647205D01*
X152529774Y-112533937D01*
X152673937Y-112389774D01*
X152787205Y-112220256D01*
X152865226Y-112031898D01*
X152905000Y-111831939D01*
X152905000Y-111651246D01*
X152930785Y-111630085D01*
X153010137Y-111533394D01*
X153069102Y-111423080D01*
X153105412Y-111303382D01*
X153117672Y-111178900D01*
X153117672Y-110550000D01*
X153436928Y-110550000D01*
X153449188Y-110674482D01*
X153485498Y-110794180D01*
X153544463Y-110904494D01*
X153623815Y-111001185D01*
X153720506Y-111080537D01*
X153830820Y-111139502D01*
X153950518Y-111175812D01*
X154075000Y-111188072D01*
X154314250Y-111185000D01*
X154473000Y-111026250D01*
X154473000Y-109977000D01*
X153598750Y-109977000D01*
X153440000Y-110135750D01*
X153436928Y-110550000D01*
X153117672Y-110550000D01*
X153117672Y-110264500D01*
X153105412Y-110140018D01*
X153069102Y-110020320D01*
X153010137Y-109910006D01*
X152930785Y-109813315D01*
X152834094Y-109733963D01*
X152723780Y-109674998D01*
X152604082Y-109638688D01*
X152479600Y-109626428D01*
X151260400Y-109626428D01*
X151135918Y-109638688D01*
X151016220Y-109674998D01*
X150980953Y-109693849D01*
X151361004Y-109313798D01*
X151390001Y-109290001D01*
X151484974Y-109174276D01*
X151497949Y-109150000D01*
X153436928Y-109150000D01*
X153440000Y-109564250D01*
X153598750Y-109723000D01*
X154473000Y-109723000D01*
X154473000Y-108673750D01*
X154314250Y-108515000D01*
X154075000Y-108511928D01*
X153950518Y-108524188D01*
X153830820Y-108560498D01*
X153720506Y-108619463D01*
X153623815Y-108698815D01*
X153544463Y-108795506D01*
X153485498Y-108905820D01*
X153449188Y-109025518D01*
X153436928Y-109150000D01*
X151497949Y-109150000D01*
X151555546Y-109042247D01*
X151567716Y-109002126D01*
X151593386Y-108988405D01*
X151727962Y-108877962D01*
X151838405Y-108743386D01*
X151920472Y-108589850D01*
X151971008Y-108423254D01*
X151988072Y-108250000D01*
X151988072Y-107300000D01*
X151971008Y-107126746D01*
X151920472Y-106960150D01*
X151838405Y-106806614D01*
X151749318Y-106698061D01*
X152765000Y-106698061D01*
X152765000Y-106901939D01*
X152804774Y-107101898D01*
X152882795Y-107290256D01*
X152996063Y-107459774D01*
X153140226Y-107603937D01*
X153309744Y-107717205D01*
X153498102Y-107795226D01*
X153698061Y-107835000D01*
X153901939Y-107835000D01*
X154101898Y-107795226D01*
X154290256Y-107717205D01*
X154459774Y-107603937D01*
X154603937Y-107459774D01*
X154717205Y-107290256D01*
X154795226Y-107101898D01*
X154835000Y-106901939D01*
X154835000Y-106698061D01*
X154795226Y-106498102D01*
X154717205Y-106309744D01*
X154603937Y-106140226D01*
X154459774Y-105996063D01*
X154455825Y-105993425D01*
X154473000Y-105976250D01*
X154473000Y-104927000D01*
X153598750Y-104927000D01*
X153440000Y-105085750D01*
X153436928Y-105500000D01*
X153449188Y-105624482D01*
X153485498Y-105744180D01*
X153515985Y-105801217D01*
X153498102Y-105804774D01*
X153309744Y-105882795D01*
X153140226Y-105996063D01*
X152996063Y-106140226D01*
X152882795Y-106309744D01*
X152804774Y-106498102D01*
X152765000Y-106698061D01*
X151749318Y-106698061D01*
X151740928Y-106687838D01*
X151752962Y-106677962D01*
X151863405Y-106543387D01*
X151945472Y-106389852D01*
X151996008Y-106223256D01*
X152013072Y-106050002D01*
X152013072Y-105149998D01*
X151996008Y-104976744D01*
X151945472Y-104810148D01*
X151863405Y-104656613D01*
X151752962Y-104522038D01*
X151622500Y-104414970D01*
X151622500Y-104100000D01*
X153436928Y-104100000D01*
X153440000Y-104514250D01*
X153598750Y-104673000D01*
X154473000Y-104673000D01*
X154473000Y-103623750D01*
X154314250Y-103465000D01*
X154075000Y-103461928D01*
X153950518Y-103474188D01*
X153830820Y-103510498D01*
X153720506Y-103569463D01*
X153623815Y-103648815D01*
X153544463Y-103745506D01*
X153485498Y-103855820D01*
X153449188Y-103975518D01*
X153436928Y-104100000D01*
X151622500Y-104100000D01*
X151622500Y-102328941D01*
X151624003Y-102323986D01*
X151635000Y-102212333D01*
X151635000Y-102212325D01*
X151638676Y-102175000D01*
X151635000Y-102137675D01*
X151635000Y-101900000D01*
X153436928Y-101900000D01*
X153449188Y-102024482D01*
X153485498Y-102144180D01*
X153544463Y-102254494D01*
X153623815Y-102351185D01*
X153720506Y-102430537D01*
X153830820Y-102489502D01*
X153950518Y-102525812D01*
X154075000Y-102538072D01*
X154314250Y-102535000D01*
X154473000Y-102376250D01*
X154473000Y-101327000D01*
X153598750Y-101327000D01*
X153440000Y-101485750D01*
X153436928Y-101900000D01*
X151635000Y-101900000D01*
X151635000Y-101562325D01*
X151638676Y-101525000D01*
X151635000Y-101487675D01*
X151635000Y-101487667D01*
X151624003Y-101376014D01*
X151580546Y-101232753D01*
X151509974Y-101100724D01*
X151415001Y-100984999D01*
X151386004Y-100961202D01*
X151227754Y-100802952D01*
X151298256Y-100796008D01*
X151464852Y-100745472D01*
X151618387Y-100663405D01*
X151752962Y-100552962D01*
X151863405Y-100418387D01*
X151945472Y-100264852D01*
X151954527Y-100235000D01*
X153496627Y-100235000D01*
X153485498Y-100255820D01*
%TA.AperFunction,Conductor*%
D31*
G36*
X153485498Y-100255820D02*
G01*
X153449188Y-100375518D01*
X153436928Y-100500000D01*
X153440000Y-100914250D01*
X153598750Y-101073000D01*
X154473000Y-101073000D01*
X154473000Y-101053000D01*
X154727000Y-101053000D01*
X154727000Y-101073000D01*
X154747000Y-101073000D01*
X154747000Y-101327000D01*
X154727000Y-101327000D01*
X154727000Y-102376250D01*
X154885750Y-102535000D01*
X155125000Y-102538072D01*
X155249482Y-102525812D01*
X155325000Y-102502904D01*
X155400518Y-102525812D01*
X155440001Y-102529701D01*
X155440000Y-103470299D01*
X155400518Y-103474188D01*
X155325000Y-103497096D01*
X155249482Y-103474188D01*
X155125000Y-103461928D01*
X154885750Y-103465000D01*
X154727000Y-103623750D01*
X154727000Y-104673000D01*
X154747000Y-104673000D01*
X154747000Y-104927000D01*
X154727000Y-104927000D01*
X154727000Y-105976250D01*
X154885750Y-106135000D01*
X155125000Y-106138072D01*
X155249482Y-106125812D01*
X155325000Y-106102904D01*
X155400518Y-106125812D01*
X155525000Y-106138072D01*
X156340001Y-106138072D01*
X156340001Y-108511928D01*
X155525000Y-108511928D01*
X155400518Y-108524188D01*
X155325000Y-108547096D01*
X155249482Y-108524188D01*
X155125000Y-108511928D01*
X154885750Y-108515000D01*
X154727000Y-108673750D01*
X154727000Y-109723000D01*
X154747000Y-109723000D01*
X154747000Y-109977000D01*
X154727000Y-109977000D01*
X154727000Y-111026250D01*
X154885750Y-111185000D01*
X155125000Y-111188072D01*
X155249482Y-111175812D01*
X155325000Y-111152904D01*
X155400518Y-111175812D01*
X155440001Y-111179701D01*
X155440000Y-112120299D01*
X155400518Y-112124188D01*
X155325000Y-112147096D01*
X155249482Y-112124188D01*
X155125000Y-112111928D01*
X154885750Y-112115000D01*
X154727000Y-112273750D01*
X154727000Y-113323000D01*
X154747000Y-113323000D01*
X154747000Y-113577000D01*
X154727000Y-113577000D01*
X154727000Y-114626250D01*
X154848998Y-114748248D01*
X154757795Y-114884744D01*
X154679774Y-115073102D01*
X154640000Y-115273061D01*
X154640000Y-115476939D01*
X154679774Y-115676898D01*
X154757795Y-115865256D01*
X154871063Y-116034774D01*
X155015226Y-116178937D01*
X155184744Y-116292205D01*
X155373102Y-116370226D01*
X155573061Y-116410000D01*
X155776939Y-116410000D01*
X155976898Y-116370226D01*
X156165256Y-116292205D01*
X156334774Y-116178937D01*
X156340000Y-116173711D01*
X156340000Y-116729636D01*
X156254494Y-116659463D01*
X156144180Y-116600498D01*
X156024482Y-116564188D01*
X155900000Y-116551928D01*
X155685750Y-116555000D01*
X155527000Y-116713750D01*
X155527000Y-117813000D01*
X155547000Y-117813000D01*
X155547000Y-118067000D01*
X155527000Y-118067000D01*
X155527000Y-118087000D01*
X155273000Y-118087000D01*
X155273000Y-118067000D01*
X155253000Y-118067000D01*
X155253000Y-117813000D01*
X155273000Y-117813000D01*
X155273000Y-116713750D01*
X155114250Y-116555000D01*
X154900000Y-116551928D01*
X154775518Y-116564188D01*
X154655820Y-116600498D01*
X154545506Y-116659463D01*
X154534740Y-116668299D01*
X154488405Y-116581613D01*
X154377962Y-116447038D01*
X154243387Y-116336595D01*
X154089852Y-116254528D01*
X154060000Y-116245473D01*
X154060000Y-115465622D01*
X154063676Y-115428299D01*
X154060000Y-115390976D01*
X154060000Y-115390967D01*
X154049003Y-115279314D01*
X154005546Y-115136053D01*
X153934974Y-115004024D01*
X153891232Y-114950724D01*
X153863799Y-114917296D01*
X153863795Y-114917292D01*
X153840001Y-114888299D01*
X153811008Y-114864505D01*
X153117672Y-114171170D01*
X153117672Y-114150000D01*
X153436928Y-114150000D01*
X153449188Y-114274482D01*
X153485498Y-114394180D01*
X153544463Y-114504494D01*
X153623815Y-114601185D01*
X153720506Y-114680537D01*
X153830820Y-114739502D01*
X153950518Y-114775812D01*
X154075000Y-114788072D01*
X154314250Y-114785000D01*
X154473000Y-114626250D01*
X154473000Y-113577000D01*
X153598750Y-113577000D01*
X153440000Y-113735750D01*
X153436928Y-114150000D01*
X153117672Y-114150000D01*
X153117672Y-113541100D01*
X153105412Y-113416618D01*
X153069102Y-113296920D01*
X153010137Y-113186606D01*
X152930785Y-113089915D01*
X152834094Y-113010563D01*
X152723780Y-112951598D01*
X152604082Y-112915288D01*
X152479600Y-112903028D01*
X151260400Y-112903028D01*
X151135918Y-112915288D01*
X151016220Y-112951598D01*
X150905906Y-113010563D01*
X150809215Y-113089915D01*
X150729863Y-113186606D01*
X150670898Y-113296920D01*
X150634588Y-113416618D01*
X150622328Y-113541100D01*
X150622328Y-114455500D01*
X150634588Y-114579982D01*
X150670898Y-114699680D01*
X150729863Y-114809994D01*
X150809215Y-114906685D01*
X150905906Y-114986037D01*
X151016220Y-115045002D01*
X151135918Y-115081312D01*
X151260400Y-115093572D01*
X151890470Y-115093572D01*
X152540001Y-115743103D01*
X152540001Y-116245472D01*
X152510148Y-116254528D01*
X152356613Y-116336595D01*
X152222038Y-116447038D01*
X152111595Y-116581613D01*
X152029528Y-116735148D01*
X151978992Y-116901744D01*
X151961928Y-117074998D01*
X151961928Y-117600002D01*
X151961997Y-117600701D01*
X150578770Y-118983929D01*
X150615000Y-118801788D01*
X150615000Y-118578212D01*
X150571383Y-118358933D01*
X150485824Y-118152376D01*
X150417647Y-118050342D01*
X150467123Y-117980206D01*
X150557446Y-117776864D01*
X150574119Y-117721874D01*
X150447954Y-117547000D01*
X149607000Y-117547000D01*
X149607000Y-117558026D01*
X149591788Y-117555000D01*
X149368212Y-117555000D01*
X149353000Y-117558026D01*
X149353000Y-117547000D01*
X149341974Y-117547000D01*
X149345000Y-117531788D01*
X149345000Y-117308212D01*
X149341974Y-117293000D01*
X149353000Y-117293000D01*
X149353000Y-116450871D01*
X149607000Y-116450871D01*
X149607000Y-117293000D01*
X150447954Y-117293000D01*
X150574119Y-117118126D01*
X150557446Y-117063136D01*
X150467123Y-116859794D01*
X150338865Y-116677980D01*
X150177601Y-116524682D01*
X149989529Y-116405790D01*
X149781876Y-116325874D01*
X149607000Y-116450871D01*
X149353000Y-116450871D01*
X149178124Y-116325874D01*
X148970471Y-116405790D01*
X148970000Y-116406088D01*
X148970000Y-111704801D01*
X150689749Y-109985053D01*
X150670898Y-110020320D01*
X150634588Y-110140018D01*
X150622328Y-110264500D01*
X150622328Y-111178900D01*
X150634588Y-111303382D01*
X150670898Y-111423080D01*
X150729863Y-111533394D01*
X150809215Y-111630085D01*
X150835000Y-111651246D01*
X150835000Y-111831939D01*
X150874774Y-112031898D01*
X150952795Y-112220256D01*
X151066063Y-112389774D01*
X151210226Y-112533937D01*
X151379744Y-112647205D01*
X151568102Y-112725226D01*
X151768061Y-112765000D01*
X151971939Y-112765000D01*
X152047349Y-112750000D01*
X153436928Y-112750000D01*
X153440000Y-113164250D01*
X153598750Y-113323000D01*
X154473000Y-113323000D01*
X154473000Y-112273750D01*
X154314250Y-112115000D01*
X154075000Y-112111928D01*
X153950518Y-112124188D01*
X153830820Y-112160498D01*
X153720506Y-112219463D01*
X153623815Y-112298815D01*
X153544463Y-112395506D01*
X153485498Y-112505820D01*
X153449188Y-112625518D01*
X153436928Y-112750000D01*
X152047349Y-112750000D01*
X152171898Y-112725226D01*
X152360256Y-112647205D01*
X152529774Y-112533937D01*
X152673937Y-112389774D01*
X152787205Y-112220256D01*
X152865226Y-112031898D01*
X152905000Y-111831939D01*
X152905000Y-111651246D01*
X152930785Y-111630085D01*
X153010137Y-111533394D01*
X153069102Y-111423080D01*
X153105412Y-111303382D01*
X153117672Y-111178900D01*
X153117672Y-110550000D01*
X153436928Y-110550000D01*
X153449188Y-110674482D01*
X153485498Y-110794180D01*
X153544463Y-110904494D01*
X153623815Y-111001185D01*
X153720506Y-111080537D01*
X153830820Y-111139502D01*
X153950518Y-111175812D01*
X154075000Y-111188072D01*
X154314250Y-111185000D01*
X154473000Y-111026250D01*
X154473000Y-109977000D01*
X153598750Y-109977000D01*
X153440000Y-110135750D01*
X153436928Y-110550000D01*
X153117672Y-110550000D01*
X153117672Y-110264500D01*
X153105412Y-110140018D01*
X153069102Y-110020320D01*
X153010137Y-109910006D01*
X152930785Y-109813315D01*
X152834094Y-109733963D01*
X152723780Y-109674998D01*
X152604082Y-109638688D01*
X152479600Y-109626428D01*
X151260400Y-109626428D01*
X151135918Y-109638688D01*
X151016220Y-109674998D01*
X150980953Y-109693849D01*
X151361004Y-109313798D01*
X151390001Y-109290001D01*
X151484974Y-109174276D01*
X151497949Y-109150000D01*
X153436928Y-109150000D01*
X153440000Y-109564250D01*
X153598750Y-109723000D01*
X154473000Y-109723000D01*
X154473000Y-108673750D01*
X154314250Y-108515000D01*
X154075000Y-108511928D01*
X153950518Y-108524188D01*
X153830820Y-108560498D01*
X153720506Y-108619463D01*
X153623815Y-108698815D01*
X153544463Y-108795506D01*
X153485498Y-108905820D01*
X153449188Y-109025518D01*
X153436928Y-109150000D01*
X151497949Y-109150000D01*
X151555546Y-109042247D01*
X151567716Y-109002126D01*
X151593386Y-108988405D01*
X151727962Y-108877962D01*
X151838405Y-108743386D01*
X151920472Y-108589850D01*
X151971008Y-108423254D01*
X151988072Y-108250000D01*
X151988072Y-107300000D01*
X151971008Y-107126746D01*
X151920472Y-106960150D01*
X151838405Y-106806614D01*
X151749318Y-106698061D01*
X152765000Y-106698061D01*
X152765000Y-106901939D01*
X152804774Y-107101898D01*
X152882795Y-107290256D01*
X152996063Y-107459774D01*
X153140226Y-107603937D01*
X153309744Y-107717205D01*
X153498102Y-107795226D01*
X153698061Y-107835000D01*
X153901939Y-107835000D01*
X154101898Y-107795226D01*
X154290256Y-107717205D01*
X154459774Y-107603937D01*
X154603937Y-107459774D01*
X154717205Y-107290256D01*
X154795226Y-107101898D01*
X154835000Y-106901939D01*
X154835000Y-106698061D01*
X154795226Y-106498102D01*
X154717205Y-106309744D01*
X154603937Y-106140226D01*
X154459774Y-105996063D01*
X154455825Y-105993425D01*
X154473000Y-105976250D01*
X154473000Y-104927000D01*
X153598750Y-104927000D01*
X153440000Y-105085750D01*
X153436928Y-105500000D01*
X153449188Y-105624482D01*
X153485498Y-105744180D01*
X153515985Y-105801217D01*
X153498102Y-105804774D01*
X153309744Y-105882795D01*
X153140226Y-105996063D01*
X152996063Y-106140226D01*
X152882795Y-106309744D01*
X152804774Y-106498102D01*
X152765000Y-106698061D01*
X151749318Y-106698061D01*
X151740928Y-106687838D01*
X151752962Y-106677962D01*
X151863405Y-106543387D01*
X151945472Y-106389852D01*
X151996008Y-106223256D01*
X152013072Y-106050002D01*
X152013072Y-105149998D01*
X151996008Y-104976744D01*
X151945472Y-104810148D01*
X151863405Y-104656613D01*
X151752962Y-104522038D01*
X151622500Y-104414970D01*
X151622500Y-104100000D01*
X153436928Y-104100000D01*
X153440000Y-104514250D01*
X153598750Y-104673000D01*
X154473000Y-104673000D01*
X154473000Y-103623750D01*
X154314250Y-103465000D01*
X154075000Y-103461928D01*
X153950518Y-103474188D01*
X153830820Y-103510498D01*
X153720506Y-103569463D01*
X153623815Y-103648815D01*
X153544463Y-103745506D01*
X153485498Y-103855820D01*
X153449188Y-103975518D01*
X153436928Y-104100000D01*
X151622500Y-104100000D01*
X151622500Y-102328941D01*
X151624003Y-102323986D01*
X151635000Y-102212333D01*
X151635000Y-102212325D01*
X151638676Y-102175000D01*
X151635000Y-102137675D01*
X151635000Y-101900000D01*
X153436928Y-101900000D01*
X153449188Y-102024482D01*
X153485498Y-102144180D01*
X153544463Y-102254494D01*
X153623815Y-102351185D01*
X153720506Y-102430537D01*
X153830820Y-102489502D01*
X153950518Y-102525812D01*
X154075000Y-102538072D01*
X154314250Y-102535000D01*
X154473000Y-102376250D01*
X154473000Y-101327000D01*
X153598750Y-101327000D01*
X153440000Y-101485750D01*
X153436928Y-101900000D01*
X151635000Y-101900000D01*
X151635000Y-101562325D01*
X151638676Y-101525000D01*
X151635000Y-101487675D01*
X151635000Y-101487667D01*
X151624003Y-101376014D01*
X151580546Y-101232753D01*
X151509974Y-101100724D01*
X151415001Y-100984999D01*
X151386004Y-100961202D01*
X151227754Y-100802952D01*
X151298256Y-100796008D01*
X151464852Y-100745472D01*
X151618387Y-100663405D01*
X151752962Y-100552962D01*
X151863405Y-100418387D01*
X151945472Y-100264852D01*
X151954527Y-100235000D01*
X153496627Y-100235000D01*
X153485498Y-100255820D01*
G37*
%TD.AperFunction*%
D30*
X147450000Y-116574868D02*
X147328388Y-116696480D01*
X147204176Y-116882376D01*
X147118617Y-117088933D01*
X147075000Y-117308212D01*
X147075000Y-117396847D01*
X147047205Y-117329744D01*
X146933937Y-117160226D01*
X146789774Y-117016063D01*
X146724999Y-116972782D01*
X146724999Y-112578424D01*
X146891898Y-112545226D01*
X147080256Y-112467205D01*
X147249774Y-112353937D01*
X147393937Y-112209774D01*
X147450001Y-112125868D01*
X147450000Y-116574868D01*
%TA.AperFunction,Conductor*%
D31*
G36*
X147450000Y-116574868D02*
G01*
X147328388Y-116696480D01*
X147204176Y-116882376D01*
X147118617Y-117088933D01*
X147075000Y-117308212D01*
X147075000Y-117396847D01*
X147047205Y-117329744D01*
X146933937Y-117160226D01*
X146789774Y-117016063D01*
X146724999Y-116972782D01*
X146724999Y-112578424D01*
X146891898Y-112545226D01*
X147080256Y-112467205D01*
X147249774Y-112353937D01*
X147393937Y-112209774D01*
X147450001Y-112125868D01*
X147450000Y-116574868D01*
G37*
%TD.AperFunction*%
D30*
X145011928Y-102450000D02*
X145028992Y-102623254D01*
X145079528Y-102789850D01*
X145161595Y-102943386D01*
X145272038Y-103077962D01*
X145406614Y-103188405D01*
X145560150Y-103270472D01*
X145726746Y-103321008D01*
X145900000Y-103338072D01*
X146850000Y-103338072D01*
X147023254Y-103321008D01*
X147189850Y-103270472D01*
X147343386Y-103188405D01*
X147466633Y-103087260D01*
X147501058Y-103115512D01*
X147652433Y-103196423D01*
X147816684Y-103246248D01*
X147987500Y-103263072D01*
X148473217Y-103263072D01*
X148396063Y-103340226D01*
X148282795Y-103509744D01*
X148204774Y-103698102D01*
X148165000Y-103898061D01*
X148165000Y-104101939D01*
X148204774Y-104301898D01*
X148258179Y-104430827D01*
X148147038Y-104522038D01*
X148036595Y-104656613D01*
X147954528Y-104810148D01*
X147903992Y-104976744D01*
X147886928Y-105149998D01*
X147886928Y-106050002D01*
X147903992Y-106223256D01*
X147954528Y-106389852D01*
X148036595Y-106543387D01*
X148048572Y-106557981D01*
X147998815Y-106598815D01*
X147919463Y-106695506D01*
X147860498Y-106805820D01*
X147824188Y-106925518D01*
X147811928Y-107050000D01*
X147815000Y-107489250D01*
X147973750Y-107648000D01*
X148823000Y-107648000D01*
X148823000Y-107628000D01*
X149077000Y-107628000D01*
X149077000Y-107648000D01*
X149097000Y-107648000D01*
X149097000Y-107902000D01*
X149077000Y-107902000D01*
X149077000Y-108976250D01*
X149235750Y-109135000D01*
X149388015Y-109137183D01*
X147698998Y-110826201D01*
X147670000Y-110849999D01*
X147646202Y-110878997D01*
X147646201Y-110878998D01*
X147575026Y-110965724D01*
X147514874Y-111078259D01*
X147507205Y-111059744D01*
X147393937Y-110890226D01*
X147249774Y-110746063D01*
X147080256Y-110632795D01*
X146891898Y-110554774D01*
X146691939Y-110515000D01*
X146488061Y-110515000D01*
X146288102Y-110554774D01*
X146099744Y-110632795D01*
X145930226Y-110746063D01*
X145786063Y-110890226D01*
X145672795Y-111059744D01*
X145661176Y-111087794D01*
X145650547Y-111052754D01*
X145579975Y-110920725D01*
X145485002Y-110805000D01*
X145456004Y-110781202D01*
X145283803Y-110609002D01*
X145283799Y-110608997D01*
X144653803Y-109979002D01*
X144630001Y-109949999D01*
X144514276Y-109855026D01*
X144443719Y-109817312D01*
X144465812Y-109744482D01*
X144478072Y-109620000D01*
X144478072Y-108820000D01*
X144465812Y-108695518D01*
X144432287Y-108585000D01*
X144458071Y-108500000D01*
X147811928Y-108500000D01*
X147824188Y-108624482D01*
X147860498Y-108744180D01*
X147919463Y-108854494D01*
X147998815Y-108951185D01*
X148095506Y-109030537D01*
X148205820Y-109089502D01*
X148325518Y-109125812D01*
X148450000Y-109138072D01*
X148664250Y-109135000D01*
X148823000Y-108976250D01*
X148823000Y-107902000D01*
X147973750Y-107902000D01*
X147815000Y-108060750D01*
X147811928Y-108500000D01*
X144458071Y-108500000D01*
X144465812Y-108474482D01*
X144478072Y-108350000D01*
X144478072Y-107550000D01*
X144465812Y-107425518D01*
X144432287Y-107315000D01*
X144465812Y-107204482D01*
X144478072Y-107080000D01*
X144478072Y-106280000D01*
X144465812Y-106155518D01*
X144432287Y-106045000D01*
X144465812Y-105934482D01*
X144478072Y-105810000D01*
X144478072Y-105010000D01*
X144465812Y-104885518D01*
X144432287Y-104775000D01*
X144465812Y-104664482D01*
X144478072Y-104540000D01*
X144478072Y-103740000D01*
X144465812Y-103615518D01*
X144432287Y-103505000D01*
X144465812Y-103394482D01*
X144478072Y-103270000D01*
X144478072Y-102470000D01*
X144467238Y-102360000D01*
X145011928Y-102360000D01*
X145011928Y-102450000D01*
%TA.AperFunction,Conductor*%
D31*
G36*
X145011928Y-102450000D02*
G01*
X145028992Y-102623254D01*
X145079528Y-102789850D01*
X145161595Y-102943386D01*
X145272038Y-103077962D01*
X145406614Y-103188405D01*
X145560150Y-103270472D01*
X145726746Y-103321008D01*
X145900000Y-103338072D01*
X146850000Y-103338072D01*
X147023254Y-103321008D01*
X147189850Y-103270472D01*
X147343386Y-103188405D01*
X147466633Y-103087260D01*
X147501058Y-103115512D01*
X147652433Y-103196423D01*
X147816684Y-103246248D01*
X147987500Y-103263072D01*
X148473217Y-103263072D01*
X148396063Y-103340226D01*
X148282795Y-103509744D01*
X148204774Y-103698102D01*
X148165000Y-103898061D01*
X148165000Y-104101939D01*
X148204774Y-104301898D01*
X148258179Y-104430827D01*
X148147038Y-104522038D01*
X148036595Y-104656613D01*
X147954528Y-104810148D01*
X147903992Y-104976744D01*
X147886928Y-105149998D01*
X147886928Y-106050002D01*
X147903992Y-106223256D01*
X147954528Y-106389852D01*
X148036595Y-106543387D01*
X148048572Y-106557981D01*
X147998815Y-106598815D01*
X147919463Y-106695506D01*
X147860498Y-106805820D01*
X147824188Y-106925518D01*
X147811928Y-107050000D01*
X147815000Y-107489250D01*
X147973750Y-107648000D01*
X148823000Y-107648000D01*
X148823000Y-107628000D01*
X149077000Y-107628000D01*
X149077000Y-107648000D01*
X149097000Y-107648000D01*
X149097000Y-107902000D01*
X149077000Y-107902000D01*
X149077000Y-108976250D01*
X149235750Y-109135000D01*
X149388015Y-109137183D01*
X147698998Y-110826201D01*
X147670000Y-110849999D01*
X147646202Y-110878997D01*
X147646201Y-110878998D01*
X147575026Y-110965724D01*
X147514874Y-111078259D01*
X147507205Y-111059744D01*
X147393937Y-110890226D01*
X147249774Y-110746063D01*
X147080256Y-110632795D01*
X146891898Y-110554774D01*
X146691939Y-110515000D01*
X146488061Y-110515000D01*
X146288102Y-110554774D01*
X146099744Y-110632795D01*
X145930226Y-110746063D01*
X145786063Y-110890226D01*
X145672795Y-111059744D01*
X145661176Y-111087794D01*
X145650547Y-111052754D01*
X145579975Y-110920725D01*
X145485002Y-110805000D01*
X145456004Y-110781202D01*
X145283803Y-110609002D01*
X145283799Y-110608997D01*
X144653803Y-109979002D01*
X144630001Y-109949999D01*
X144514276Y-109855026D01*
X144443719Y-109817312D01*
X144465812Y-109744482D01*
X144478072Y-109620000D01*
X144478072Y-108820000D01*
X144465812Y-108695518D01*
X144432287Y-108585000D01*
X144458071Y-108500000D01*
X147811928Y-108500000D01*
X147824188Y-108624482D01*
X147860498Y-108744180D01*
X147919463Y-108854494D01*
X147998815Y-108951185D01*
X148095506Y-109030537D01*
X148205820Y-109089502D01*
X148325518Y-109125812D01*
X148450000Y-109138072D01*
X148664250Y-109135000D01*
X148823000Y-108976250D01*
X148823000Y-107902000D01*
X147973750Y-107902000D01*
X147815000Y-108060750D01*
X147811928Y-108500000D01*
X144458071Y-108500000D01*
X144465812Y-108474482D01*
X144478072Y-108350000D01*
X144478072Y-107550000D01*
X144465812Y-107425518D01*
X144432287Y-107315000D01*
X144465812Y-107204482D01*
X144478072Y-107080000D01*
X144478072Y-106280000D01*
X144465812Y-106155518D01*
X144432287Y-106045000D01*
X144465812Y-105934482D01*
X144478072Y-105810000D01*
X144478072Y-105010000D01*
X144465812Y-104885518D01*
X144432287Y-104775000D01*
X144465812Y-104664482D01*
X144478072Y-104540000D01*
X144478072Y-103740000D01*
X144465812Y-103615518D01*
X144432287Y-103505000D01*
X144465812Y-103394482D01*
X144478072Y-103270000D01*
X144478072Y-102470000D01*
X144467238Y-102360000D01*
X145011928Y-102360000D01*
X145011928Y-102450000D01*
G37*
%TD.AperFunction*%
D30*
X105329528Y-105114852D02*
X105411595Y-105268387D01*
X105522038Y-105402962D01*
X105656613Y-105513405D01*
X105810148Y-105595472D01*
X105976744Y-105646008D01*
X106149998Y-105663072D01*
X107040000Y-105663072D01*
X107040000Y-106162677D01*
X107036324Y-106200000D01*
X107040000Y-106237322D01*
X107040000Y-106237332D01*
X107041191Y-106249428D01*
X106149998Y-106249428D01*
X105976744Y-106266492D01*
X105810148Y-106317028D01*
X105656613Y-106399095D01*
X105522038Y-106509538D01*
X105414970Y-106640000D01*
X105388072Y-106640000D01*
X105388072Y-106600000D01*
X105375812Y-106475518D01*
X105339502Y-106355820D01*
X105309665Y-106300000D01*
X105339502Y-106244180D01*
X105375812Y-106124482D01*
X105388072Y-106000000D01*
X105385000Y-105535750D01*
X105226250Y-105377000D01*
X104377000Y-105377000D01*
X104377000Y-105397000D01*
X104123000Y-105397000D01*
X104123000Y-105377000D01*
X104103000Y-105377000D01*
X104103000Y-105123000D01*
X104123000Y-105123000D01*
X104123000Y-105103000D01*
X104377000Y-105103000D01*
X104377000Y-105123000D01*
X105226250Y-105123000D01*
X105307387Y-105041863D01*
X105329528Y-105114852D01*
%TA.AperFunction,Conductor*%
D31*
G36*
X105329528Y-105114852D02*
G01*
X105411595Y-105268387D01*
X105522038Y-105402962D01*
X105656613Y-105513405D01*
X105810148Y-105595472D01*
X105976744Y-105646008D01*
X106149998Y-105663072D01*
X107040000Y-105663072D01*
X107040000Y-106162677D01*
X107036324Y-106200000D01*
X107040000Y-106237322D01*
X107040000Y-106237332D01*
X107041191Y-106249428D01*
X106149998Y-106249428D01*
X105976744Y-106266492D01*
X105810148Y-106317028D01*
X105656613Y-106399095D01*
X105522038Y-106509538D01*
X105414970Y-106640000D01*
X105388072Y-106640000D01*
X105388072Y-106600000D01*
X105375812Y-106475518D01*
X105339502Y-106355820D01*
X105309665Y-106300000D01*
X105339502Y-106244180D01*
X105375812Y-106124482D01*
X105388072Y-106000000D01*
X105385000Y-105535750D01*
X105226250Y-105377000D01*
X104377000Y-105377000D01*
X104377000Y-105397000D01*
X104123000Y-105397000D01*
X104123000Y-105377000D01*
X104103000Y-105377000D01*
X104103000Y-105123000D01*
X104123000Y-105123000D01*
X104123000Y-105103000D01*
X104377000Y-105103000D01*
X104377000Y-105123000D01*
X105226250Y-105123000D01*
X105307387Y-105041863D01*
X105329528Y-105114852D01*
G37*
%TD.AperFunction*%
D30*
X121495506Y-98129463D02*
X121398815Y-98208815D01*
X121319463Y-98305506D01*
X121260498Y-98415820D01*
X121224188Y-98535518D01*
X121211928Y-98660000D01*
X121211928Y-99460000D01*
X121224188Y-99584482D01*
X121257713Y-99695000D01*
X121224188Y-99805518D01*
X121211928Y-99930000D01*
X121211928Y-100730000D01*
X121222762Y-100840000D01*
X118802906Y-100840000D01*
X118960990Y-100603411D01*
X119072932Y-100333158D01*
X119130000Y-100046260D01*
X119130000Y-99753740D01*
X119072932Y-99466842D01*
X118960990Y-99196589D01*
X118798475Y-98953368D01*
X118591632Y-98746525D01*
X118348411Y-98584010D01*
X118078158Y-98472068D01*
X117791260Y-98415000D01*
X117498740Y-98415000D01*
X117211842Y-98472068D01*
X116941589Y-98584010D01*
X116698368Y-98746525D01*
X116491525Y-98953368D01*
X116375000Y-99127760D01*
X116258475Y-98953368D01*
X116051632Y-98746525D01*
X115808411Y-98584010D01*
X115538158Y-98472068D01*
X115251260Y-98415000D01*
X114958740Y-98415000D01*
X114671842Y-98472068D01*
X114401589Y-98584010D01*
X114158368Y-98746525D01*
X113951525Y-98953368D01*
X113835000Y-99127760D01*
X113718475Y-98953368D01*
X113511632Y-98746525D01*
X113268411Y-98584010D01*
X112998158Y-98472068D01*
X112711260Y-98415000D01*
X112418740Y-98415000D01*
X112131842Y-98472068D01*
X111861589Y-98584010D01*
X111618368Y-98746525D01*
X111486513Y-98878380D01*
X111464502Y-98805820D01*
X111405537Y-98695506D01*
X111326185Y-98598815D01*
X111229494Y-98519463D01*
X111119180Y-98460498D01*
X110999482Y-98424188D01*
X110875000Y-98411928D01*
X110310750Y-98415000D01*
X110152000Y-98573750D01*
X110152000Y-99773000D01*
X110172000Y-99773000D01*
X110172000Y-100027000D01*
X110152000Y-100027000D01*
X110152000Y-101226250D01*
X110310750Y-101385000D01*
X110875000Y-101388072D01*
X110999482Y-101375812D01*
X111119180Y-101339502D01*
X111229494Y-101280537D01*
X111326185Y-101201185D01*
X111405537Y-101104494D01*
X111464502Y-100994180D01*
X111486513Y-100921620D01*
X111618368Y-101053475D01*
X111861589Y-101215990D01*
X112131842Y-101327932D01*
X112418740Y-101385000D01*
X112711260Y-101385000D01*
X112931408Y-101341209D01*
X114971201Y-103381003D01*
X114994999Y-103410001D01*
X115110724Y-103504974D01*
X115242753Y-103575546D01*
X115386014Y-103619003D01*
X115497667Y-103630000D01*
X115497676Y-103630000D01*
X115534999Y-103633676D01*
X115572322Y-103630000D01*
X120495198Y-103630000D01*
X118960199Y-105165000D01*
X118898061Y-105165000D01*
X118698102Y-105204774D01*
X118509744Y-105282795D01*
X118340226Y-105396063D01*
X118196063Y-105540226D01*
X118082795Y-105709744D01*
X118004774Y-105898102D01*
X117965000Y-106098061D01*
X117965000Y-106301939D01*
X117992462Y-106440000D01*
X109114802Y-106440000D01*
X108560000Y-105885199D01*
X108560000Y-103924822D01*
X108563676Y-103887499D01*
X108560000Y-103850176D01*
X108560000Y-103850167D01*
X108549003Y-103738514D01*
X108505546Y-103595253D01*
X108434974Y-103463224D01*
X108340001Y-103347499D01*
X108311003Y-103323701D01*
X107938003Y-102950701D01*
X107938072Y-102950002D01*
X107938072Y-102424998D01*
X107921008Y-102251744D01*
X107870472Y-102085148D01*
X107788405Y-101931613D01*
X107677962Y-101797038D01*
X107543387Y-101686595D01*
X107389852Y-101604528D01*
X107223256Y-101553992D01*
X107050002Y-101536928D01*
X106149998Y-101536928D01*
X105976744Y-101553992D01*
X105810148Y-101604528D01*
X105656613Y-101686595D01*
X105522038Y-101797038D01*
X105411595Y-101931613D01*
X105386045Y-101979414D01*
X105375812Y-101875518D01*
X105339502Y-101755820D01*
X105280537Y-101645506D01*
X105201185Y-101548815D01*
X105104494Y-101469463D01*
X104994180Y-101410498D01*
X104874482Y-101374188D01*
X104750000Y-101361928D01*
X103750000Y-101361928D01*
X103660000Y-101370792D01*
X103660000Y-100750000D01*
X108536928Y-100750000D01*
X108549188Y-100874482D01*
X108585498Y-100994180D01*
X108644463Y-101104494D01*
X108723815Y-101201185D01*
X108820506Y-101280537D01*
X108930820Y-101339502D01*
X109050518Y-101375812D01*
X109175000Y-101388072D01*
X109739250Y-101385000D01*
X109898000Y-101226250D01*
X109898000Y-100027000D01*
X108698750Y-100027000D01*
X108540000Y-100185750D01*
X108536928Y-100750000D01*
X103660000Y-100750000D01*
X103660000Y-99050000D01*
X108536928Y-99050000D01*
X108540000Y-99614250D01*
X108698750Y-99773000D01*
X109898000Y-99773000D01*
X109898000Y-98573750D01*
X109739250Y-98415000D01*
X109175000Y-98411928D01*
X109050518Y-98424188D01*
X108930820Y-98460498D01*
X108820506Y-98519463D01*
X108723815Y-98598815D01*
X108644463Y-98695506D01*
X108585498Y-98805820D01*
X108549188Y-98925518D01*
X108536928Y-99050000D01*
X103660000Y-99050000D01*
X103660000Y-98127000D01*
X121500114Y-98127000D01*
X121495506Y-98129463D01*
%TA.AperFunction,Conductor*%
D31*
G36*
X121495506Y-98129463D02*
G01*
X121398815Y-98208815D01*
X121319463Y-98305506D01*
X121260498Y-98415820D01*
X121224188Y-98535518D01*
X121211928Y-98660000D01*
X121211928Y-99460000D01*
X121224188Y-99584482D01*
X121257713Y-99695000D01*
X121224188Y-99805518D01*
X121211928Y-99930000D01*
X121211928Y-100730000D01*
X121222762Y-100840000D01*
X118802906Y-100840000D01*
X118960990Y-100603411D01*
X119072932Y-100333158D01*
X119130000Y-100046260D01*
X119130000Y-99753740D01*
X119072932Y-99466842D01*
X118960990Y-99196589D01*
X118798475Y-98953368D01*
X118591632Y-98746525D01*
X118348411Y-98584010D01*
X118078158Y-98472068D01*
X117791260Y-98415000D01*
X117498740Y-98415000D01*
X117211842Y-98472068D01*
X116941589Y-98584010D01*
X116698368Y-98746525D01*
X116491525Y-98953368D01*
X116375000Y-99127760D01*
X116258475Y-98953368D01*
X116051632Y-98746525D01*
X115808411Y-98584010D01*
X115538158Y-98472068D01*
X115251260Y-98415000D01*
X114958740Y-98415000D01*
X114671842Y-98472068D01*
X114401589Y-98584010D01*
X114158368Y-98746525D01*
X113951525Y-98953368D01*
X113835000Y-99127760D01*
X113718475Y-98953368D01*
X113511632Y-98746525D01*
X113268411Y-98584010D01*
X112998158Y-98472068D01*
X112711260Y-98415000D01*
X112418740Y-98415000D01*
X112131842Y-98472068D01*
X111861589Y-98584010D01*
X111618368Y-98746525D01*
X111486513Y-98878380D01*
X111464502Y-98805820D01*
X111405537Y-98695506D01*
X111326185Y-98598815D01*
X111229494Y-98519463D01*
X111119180Y-98460498D01*
X110999482Y-98424188D01*
X110875000Y-98411928D01*
X110310750Y-98415000D01*
X110152000Y-98573750D01*
X110152000Y-99773000D01*
X110172000Y-99773000D01*
X110172000Y-100027000D01*
X110152000Y-100027000D01*
X110152000Y-101226250D01*
X110310750Y-101385000D01*
X110875000Y-101388072D01*
X110999482Y-101375812D01*
X111119180Y-101339502D01*
X111229494Y-101280537D01*
X111326185Y-101201185D01*
X111405537Y-101104494D01*
X111464502Y-100994180D01*
X111486513Y-100921620D01*
X111618368Y-101053475D01*
X111861589Y-101215990D01*
X112131842Y-101327932D01*
X112418740Y-101385000D01*
X112711260Y-101385000D01*
X112931408Y-101341209D01*
X114971201Y-103381003D01*
X114994999Y-103410001D01*
X115110724Y-103504974D01*
X115242753Y-103575546D01*
X115386014Y-103619003D01*
X115497667Y-103630000D01*
X115497676Y-103630000D01*
X115534999Y-103633676D01*
X115572322Y-103630000D01*
X120495198Y-103630000D01*
X118960199Y-105165000D01*
X118898061Y-105165000D01*
X118698102Y-105204774D01*
X118509744Y-105282795D01*
X118340226Y-105396063D01*
X118196063Y-105540226D01*
X118082795Y-105709744D01*
X118004774Y-105898102D01*
X117965000Y-106098061D01*
X117965000Y-106301939D01*
X117992462Y-106440000D01*
X109114802Y-106440000D01*
X108560000Y-105885199D01*
X108560000Y-103924822D01*
X108563676Y-103887499D01*
X108560000Y-103850176D01*
X108560000Y-103850167D01*
X108549003Y-103738514D01*
X108505546Y-103595253D01*
X108434974Y-103463224D01*
X108340001Y-103347499D01*
X108311003Y-103323701D01*
X107938003Y-102950701D01*
X107938072Y-102950002D01*
X107938072Y-102424998D01*
X107921008Y-102251744D01*
X107870472Y-102085148D01*
X107788405Y-101931613D01*
X107677962Y-101797038D01*
X107543387Y-101686595D01*
X107389852Y-101604528D01*
X107223256Y-101553992D01*
X107050002Y-101536928D01*
X106149998Y-101536928D01*
X105976744Y-101553992D01*
X105810148Y-101604528D01*
X105656613Y-101686595D01*
X105522038Y-101797038D01*
X105411595Y-101931613D01*
X105386045Y-101979414D01*
X105375812Y-101875518D01*
X105339502Y-101755820D01*
X105280537Y-101645506D01*
X105201185Y-101548815D01*
X105104494Y-101469463D01*
X104994180Y-101410498D01*
X104874482Y-101374188D01*
X104750000Y-101361928D01*
X103750000Y-101361928D01*
X103660000Y-101370792D01*
X103660000Y-100750000D01*
X108536928Y-100750000D01*
X108549188Y-100874482D01*
X108585498Y-100994180D01*
X108644463Y-101104494D01*
X108723815Y-101201185D01*
X108820506Y-101280537D01*
X108930820Y-101339502D01*
X109050518Y-101375812D01*
X109175000Y-101388072D01*
X109739250Y-101385000D01*
X109898000Y-101226250D01*
X109898000Y-100027000D01*
X108698750Y-100027000D01*
X108540000Y-100185750D01*
X108536928Y-100750000D01*
X103660000Y-100750000D01*
X103660000Y-99050000D01*
X108536928Y-99050000D01*
X108540000Y-99614250D01*
X108698750Y-99773000D01*
X109898000Y-99773000D01*
X109898000Y-98573750D01*
X109739250Y-98415000D01*
X109175000Y-98411928D01*
X109050518Y-98424188D01*
X108930820Y-98460498D01*
X108820506Y-98519463D01*
X108723815Y-98598815D01*
X108644463Y-98695506D01*
X108585498Y-98805820D01*
X108549188Y-98925518D01*
X108536928Y-99050000D01*
X103660000Y-99050000D01*
X103660000Y-98127000D01*
X121500114Y-98127000D01*
X121495506Y-98129463D01*
G37*
%TD.AperFunction*%
%TD*%
M02*
