%TF.GenerationSoftware,KiCad,Pcbnew,5.1.10-88a1d61d58~90~ubuntu20.04.1*%
%TF.CreationDate,2021-11-15T19:50:34+00:00*%
%TF.ProjectId,daughter_board,64617567-6874-4657-925f-626f6172642e,rev?*%
%TF.SameCoordinates,Original*%
%TF.FileFunction,Copper,L3,Inr*%
%TF.FilePolarity,Positive*%
%FSLAX46Y46*%
G04 Gerber Fmt 4.6, Leading zero omitted, Abs format (unit mm)*
G04 Created by KiCad (PCBNEW 5.1.10-88a1d61d58~90~ubuntu20.04.1) date 2021-11-15 19:50:34*
%MOMM*%
%LPD*%
G01*
G04 APERTURE LIST*
%TA.AperFunction,ComponentPad*%
%ADD10O,1.700000X1.700000*%
%TD*%
%TA.AperFunction,ComponentPad*%
%ADD11R,1.700000X1.700000*%
%TD*%
%TA.AperFunction,ComponentPad*%
%ADD12O,1.750000X1.200000*%
%TD*%
%TA.AperFunction,ComponentPad*%
%ADD13O,1.600000X1.600000*%
%TD*%
%TA.AperFunction,ComponentPad*%
%ADD14C,1.600000*%
%TD*%
%TA.AperFunction,ComponentPad*%
%ADD15C,4.700000*%
%TD*%
%TA.AperFunction,ComponentPad*%
%ADD16O,1.000000X1.000000*%
%TD*%
%TA.AperFunction,ComponentPad*%
%ADD17R,1.000000X1.000000*%
%TD*%
%TA.AperFunction,ViaPad*%
%ADD18C,0.800000*%
%TD*%
%TA.AperFunction,Conductor*%
%ADD19C,0.254000*%
%TD*%
%TA.AperFunction,Conductor*%
%ADD20C,0.150000*%
%TD*%
G04 APERTURE END LIST*
D10*
%TO.N,/SDA*%
%TO.C,AHT10*%
X113420000Y-113200000D03*
%TO.N,/SCL*%
X110880000Y-113200000D03*
%TO.N,GND*%
X108340000Y-113200000D03*
D11*
%TO.N,VDD*%
X105800000Y-113200000D03*
%TD*%
D12*
%TO.N,/VBAT*%
%TO.C,J5*%
X153490000Y-123730000D03*
%TO.N,GND*%
%TA.AperFunction,ComponentPad*%
G36*
G01*
X154115001Y-126330000D02*
X152864999Y-126330000D01*
G75*
G02*
X152615000Y-126080001I0J249999D01*
G01*
X152615000Y-125379999D01*
G75*
G02*
X152864999Y-125130000I249999J0D01*
G01*
X154115001Y-125130000D01*
G75*
G02*
X154365000Y-125379999I0J-249999D01*
G01*
X154365000Y-126080001D01*
G75*
G02*
X154115001Y-126330000I-249999J0D01*
G01*
G37*
%TD.AperFunction*%
%TD*%
D13*
%TO.N,GND*%
%TO.C,SW3*%
X126240000Y-131420000D03*
D14*
%TO.N,/DIO_23*%
X146560000Y-131420000D03*
%TD*%
D15*
%TO.N,N/C*%
%TO.C,H4*%
X153970000Y-131090000D03*
%TD*%
%TO.N,N/C*%
%TO.C,H3*%
X106000000Y-131000000D03*
%TD*%
%TO.N,N/C*%
%TO.C,H2*%
X153980000Y-94050000D03*
%TD*%
%TO.N,N/C*%
%TO.C,H1*%
X106000000Y-94070000D03*
%TD*%
D10*
%TO.N,GND*%
%TO.C,J4*%
X127320000Y-122800000D03*
%TO.N,/DIO_23*%
X129860000Y-122800000D03*
D11*
%TO.N,VDD*%
X132400000Y-122800000D03*
%TD*%
D16*
%TO.N,/XDS_RESET*%
%TO.C,J3*%
X148210000Y-117420000D03*
%TO.N,GND*%
X149480000Y-117420000D03*
%TO.N,/XDS_TDI*%
X148210000Y-118690000D03*
%TO.N,N/C*%
X149480000Y-118690000D03*
%TO.N,/XDS_TDO*%
X148210000Y-119960000D03*
%TO.N,GND*%
X149480000Y-119960000D03*
%TO.N,/XDS_TCK*%
X148210000Y-121230000D03*
%TO.N,GND*%
X149480000Y-121230000D03*
%TO.N,/XDS-TMS*%
X148210000Y-122500000D03*
D17*
%TO.N,VCC*%
X149480000Y-122500000D03*
%TD*%
D10*
%TO.N,VDD*%
%TO.C,J1*%
X117645000Y-99900000D03*
%TO.N,/UART_RXD*%
X115105000Y-99900000D03*
%TO.N,/UART_TXD*%
X112565000Y-99900000D03*
D11*
%TO.N,GND*%
X110025000Y-99900000D03*
%TD*%
D18*
%TO.N,GND*%
X142200000Y-129600000D03*
X115000000Y-118400000D03*
X124400000Y-121800000D03*
X106200000Y-106000000D03*
X112000000Y-102000000D03*
X110600000Y-123800000D03*
X114000000Y-106000000D03*
X117570000Y-119670000D03*
X120200000Y-125800000D03*
X125800000Y-127400000D03*
X133240000Y-131590000D03*
X139620000Y-131280000D03*
X149790000Y-131250000D03*
X146800000Y-126940000D03*
X140030000Y-126370000D03*
X141710000Y-122870000D03*
X135600000Y-122730000D03*
X154720000Y-116270000D03*
X152200000Y-120600000D03*
X147000000Y-113290000D03*
X149320000Y-113290000D03*
X119000000Y-104200000D03*
X117800000Y-114800000D03*
X107600000Y-110600000D03*
X152450000Y-100575000D03*
X127400000Y-100650000D03*
X106000000Y-100400000D03*
X135600000Y-101350000D03*
X129175000Y-111075000D03*
X136450000Y-111075000D03*
X144900000Y-103275000D03*
X152425000Y-103125000D03*
X132250000Y-105400000D03*
X139250000Y-104800000D03*
X139000000Y-108600000D03*
X128800000Y-107700000D03*
X126300000Y-103200000D03*
X120300000Y-99700000D03*
X147900000Y-100800000D03*
X139800000Y-100300000D03*
X135200000Y-126400000D03*
X129400000Y-126400000D03*
X111400000Y-131000000D03*
X113200000Y-127200000D03*
%TO.N,Net-(R2-Pad2)*%
X126450000Y-119100000D03*
%TO.N,/SPI_SCLK*%
X116200000Y-110600000D03*
%TO.N,/SPI_MOSI*%
X117600000Y-110600000D03*
%TO.N,/SPI_MISO*%
X120820000Y-109220000D03*
%TO.N,/FLASH_CS*%
X138575000Y-118525000D03*
%TO.N,/SDA*%
X120000000Y-106200000D03*
%TO.N,/SCL*%
X119000000Y-106200000D03*
%TO.N,VDD*%
X111400000Y-110600000D03*
X123912500Y-124487500D03*
X149200000Y-104000000D03*
X153800000Y-106800000D03*
X151870000Y-111730000D03*
%TO.N,Net-(R2-Pad1)*%
X155675000Y-115375000D03*
%TO.N,/DIO_23*%
X144260000Y-118070000D03*
X144260000Y-122990000D03*
%TO.N,/DIO_24*%
X145130000Y-117190000D03*
X123300000Y-129170000D03*
%TO.N,/VBAT*%
X146130000Y-123640000D03*
X146130000Y-117820000D03*
X146590000Y-111550000D03*
%TD*%
D19*
%TO.N,VDD*%
X156340001Y-98126333D02*
X156340000Y-114576289D01*
X156334774Y-114571063D01*
X156165256Y-114457795D01*
X155976898Y-114379774D01*
X155776939Y-114340000D01*
X155573061Y-114340000D01*
X155373102Y-114379774D01*
X155184744Y-114457795D01*
X155015226Y-114571063D01*
X154871063Y-114715226D01*
X154757795Y-114884744D01*
X154679774Y-115073102D01*
X154647571Y-115235000D01*
X154618061Y-115235000D01*
X154418102Y-115274774D01*
X154229744Y-115352795D01*
X154060226Y-115466063D01*
X153916063Y-115610226D01*
X153802795Y-115779744D01*
X153724774Y-115968102D01*
X153685000Y-116168061D01*
X153685000Y-116371939D01*
X153724774Y-116571898D01*
X153802795Y-116760256D01*
X153916063Y-116929774D01*
X154060226Y-117073937D01*
X154229744Y-117187205D01*
X154418102Y-117265226D01*
X154618061Y-117305000D01*
X154821939Y-117305000D01*
X155021898Y-117265226D01*
X155210256Y-117187205D01*
X155379774Y-117073937D01*
X155523937Y-116929774D01*
X155637205Y-116760256D01*
X155715226Y-116571898D01*
X155747429Y-116410000D01*
X155776939Y-116410000D01*
X155976898Y-116370226D01*
X156165256Y-116292205D01*
X156334774Y-116178937D01*
X156340000Y-116173711D01*
X156340000Y-129264098D01*
X156288601Y-129187174D01*
X155872826Y-128771399D01*
X155383928Y-128444727D01*
X154840692Y-128219712D01*
X154263997Y-128105000D01*
X153676003Y-128105000D01*
X153099308Y-128219712D01*
X152556072Y-128444727D01*
X152067174Y-128771399D01*
X151651399Y-129187174D01*
X151324727Y-129676072D01*
X151099712Y-130219308D01*
X150985000Y-130796003D01*
X150985000Y-131383997D01*
X151099712Y-131960692D01*
X151324727Y-132503928D01*
X151651399Y-132992826D01*
X151998573Y-133340000D01*
X107870800Y-133340000D01*
X107902826Y-133318601D01*
X108318601Y-132902826D01*
X108645273Y-132413928D01*
X108870288Y-131870692D01*
X108985000Y-131293997D01*
X108985000Y-130898061D01*
X110365000Y-130898061D01*
X110365000Y-131101939D01*
X110404774Y-131301898D01*
X110482795Y-131490256D01*
X110596063Y-131659774D01*
X110740226Y-131803937D01*
X110909744Y-131917205D01*
X111098102Y-131995226D01*
X111298061Y-132035000D01*
X111501939Y-132035000D01*
X111701898Y-131995226D01*
X111890256Y-131917205D01*
X112059774Y-131803937D01*
X112203937Y-131659774D01*
X112317205Y-131490256D01*
X112395226Y-131301898D01*
X112399847Y-131278665D01*
X124805000Y-131278665D01*
X124805000Y-131561335D01*
X124860147Y-131838574D01*
X124968320Y-132099727D01*
X125125363Y-132334759D01*
X125325241Y-132534637D01*
X125560273Y-132691680D01*
X125821426Y-132799853D01*
X126098665Y-132855000D01*
X126381335Y-132855000D01*
X126658574Y-132799853D01*
X126919727Y-132691680D01*
X127154759Y-132534637D01*
X127354637Y-132334759D01*
X127511680Y-132099727D01*
X127619853Y-131838574D01*
X127675000Y-131561335D01*
X127675000Y-131488061D01*
X132205000Y-131488061D01*
X132205000Y-131691939D01*
X132244774Y-131891898D01*
X132322795Y-132080256D01*
X132436063Y-132249774D01*
X132580226Y-132393937D01*
X132749744Y-132507205D01*
X132938102Y-132585226D01*
X133138061Y-132625000D01*
X133341939Y-132625000D01*
X133541898Y-132585226D01*
X133730256Y-132507205D01*
X133899774Y-132393937D01*
X134043937Y-132249774D01*
X134157205Y-132080256D01*
X134235226Y-131891898D01*
X134275000Y-131691939D01*
X134275000Y-131488061D01*
X134235226Y-131288102D01*
X134189646Y-131178061D01*
X138585000Y-131178061D01*
X138585000Y-131381939D01*
X138624774Y-131581898D01*
X138702795Y-131770256D01*
X138816063Y-131939774D01*
X138960226Y-132083937D01*
X139129744Y-132197205D01*
X139318102Y-132275226D01*
X139518061Y-132315000D01*
X139721939Y-132315000D01*
X139921898Y-132275226D01*
X140110256Y-132197205D01*
X140279774Y-132083937D01*
X140423937Y-131939774D01*
X140537205Y-131770256D01*
X140615226Y-131581898D01*
X140655000Y-131381939D01*
X140655000Y-131278665D01*
X145125000Y-131278665D01*
X145125000Y-131561335D01*
X145180147Y-131838574D01*
X145288320Y-132099727D01*
X145445363Y-132334759D01*
X145645241Y-132534637D01*
X145880273Y-132691680D01*
X146141426Y-132799853D01*
X146418665Y-132855000D01*
X146701335Y-132855000D01*
X146978574Y-132799853D01*
X147239727Y-132691680D01*
X147474759Y-132534637D01*
X147674637Y-132334759D01*
X147831680Y-132099727D01*
X147939853Y-131838574D01*
X147995000Y-131561335D01*
X147995000Y-131278665D01*
X147969021Y-131148061D01*
X148755000Y-131148061D01*
X148755000Y-131351939D01*
X148794774Y-131551898D01*
X148872795Y-131740256D01*
X148986063Y-131909774D01*
X149130226Y-132053937D01*
X149299744Y-132167205D01*
X149488102Y-132245226D01*
X149688061Y-132285000D01*
X149891939Y-132285000D01*
X150091898Y-132245226D01*
X150280256Y-132167205D01*
X150449774Y-132053937D01*
X150593937Y-131909774D01*
X150707205Y-131740256D01*
X150785226Y-131551898D01*
X150825000Y-131351939D01*
X150825000Y-131148061D01*
X150785226Y-130948102D01*
X150707205Y-130759744D01*
X150593937Y-130590226D01*
X150449774Y-130446063D01*
X150280256Y-130332795D01*
X150091898Y-130254774D01*
X149891939Y-130215000D01*
X149688061Y-130215000D01*
X149488102Y-130254774D01*
X149299744Y-130332795D01*
X149130226Y-130446063D01*
X148986063Y-130590226D01*
X148872795Y-130759744D01*
X148794774Y-130948102D01*
X148755000Y-131148061D01*
X147969021Y-131148061D01*
X147939853Y-131001426D01*
X147831680Y-130740273D01*
X147674637Y-130505241D01*
X147474759Y-130305363D01*
X147239727Y-130148320D01*
X146978574Y-130040147D01*
X146701335Y-129985000D01*
X146418665Y-129985000D01*
X146141426Y-130040147D01*
X145880273Y-130148320D01*
X145645241Y-130305363D01*
X145445363Y-130505241D01*
X145288320Y-130740273D01*
X145180147Y-131001426D01*
X145125000Y-131278665D01*
X140655000Y-131278665D01*
X140655000Y-131178061D01*
X140615226Y-130978102D01*
X140537205Y-130789744D01*
X140423937Y-130620226D01*
X140279774Y-130476063D01*
X140110256Y-130362795D01*
X139921898Y-130284774D01*
X139721939Y-130245000D01*
X139518061Y-130245000D01*
X139318102Y-130284774D01*
X139129744Y-130362795D01*
X138960226Y-130476063D01*
X138816063Y-130620226D01*
X138702795Y-130789744D01*
X138624774Y-130978102D01*
X138585000Y-131178061D01*
X134189646Y-131178061D01*
X134157205Y-131099744D01*
X134043937Y-130930226D01*
X133899774Y-130786063D01*
X133730256Y-130672795D01*
X133541898Y-130594774D01*
X133341939Y-130555000D01*
X133138061Y-130555000D01*
X132938102Y-130594774D01*
X132749744Y-130672795D01*
X132580226Y-130786063D01*
X132436063Y-130930226D01*
X132322795Y-131099744D01*
X132244774Y-131288102D01*
X132205000Y-131488061D01*
X127675000Y-131488061D01*
X127675000Y-131278665D01*
X127619853Y-131001426D01*
X127511680Y-130740273D01*
X127354637Y-130505241D01*
X127154759Y-130305363D01*
X126919727Y-130148320D01*
X126658574Y-130040147D01*
X126381335Y-129985000D01*
X126098665Y-129985000D01*
X125821426Y-130040147D01*
X125560273Y-130148320D01*
X125325241Y-130305363D01*
X125125363Y-130505241D01*
X124968320Y-130740273D01*
X124860147Y-131001426D01*
X124805000Y-131278665D01*
X112399847Y-131278665D01*
X112435000Y-131101939D01*
X112435000Y-130898061D01*
X112395226Y-130698102D01*
X112317205Y-130509744D01*
X112203937Y-130340226D01*
X112059774Y-130196063D01*
X111890256Y-130082795D01*
X111701898Y-130004774D01*
X111501939Y-129965000D01*
X111298061Y-129965000D01*
X111098102Y-130004774D01*
X110909744Y-130082795D01*
X110740226Y-130196063D01*
X110596063Y-130340226D01*
X110482795Y-130509744D01*
X110404774Y-130698102D01*
X110365000Y-130898061D01*
X108985000Y-130898061D01*
X108985000Y-130706003D01*
X108870288Y-130129308D01*
X108645273Y-129586072D01*
X108318601Y-129097174D01*
X108289488Y-129068061D01*
X122265000Y-129068061D01*
X122265000Y-129271939D01*
X122304774Y-129471898D01*
X122382795Y-129660256D01*
X122496063Y-129829774D01*
X122640226Y-129973937D01*
X122809744Y-130087205D01*
X122998102Y-130165226D01*
X123198061Y-130205000D01*
X123401939Y-130205000D01*
X123601898Y-130165226D01*
X123790256Y-130087205D01*
X123959774Y-129973937D01*
X124103937Y-129829774D01*
X124217205Y-129660256D01*
X124284388Y-129498061D01*
X141165000Y-129498061D01*
X141165000Y-129701939D01*
X141204774Y-129901898D01*
X141282795Y-130090256D01*
X141396063Y-130259774D01*
X141540226Y-130403937D01*
X141709744Y-130517205D01*
X141898102Y-130595226D01*
X142098061Y-130635000D01*
X142301939Y-130635000D01*
X142501898Y-130595226D01*
X142690256Y-130517205D01*
X142859774Y-130403937D01*
X143003937Y-130259774D01*
X143117205Y-130090256D01*
X143195226Y-129901898D01*
X143235000Y-129701939D01*
X143235000Y-129498061D01*
X143195226Y-129298102D01*
X143117205Y-129109744D01*
X143003937Y-128940226D01*
X142859774Y-128796063D01*
X142690256Y-128682795D01*
X142501898Y-128604774D01*
X142301939Y-128565000D01*
X142098061Y-128565000D01*
X141898102Y-128604774D01*
X141709744Y-128682795D01*
X141540226Y-128796063D01*
X141396063Y-128940226D01*
X141282795Y-129109744D01*
X141204774Y-129298102D01*
X141165000Y-129498061D01*
X124284388Y-129498061D01*
X124295226Y-129471898D01*
X124335000Y-129271939D01*
X124335000Y-129068061D01*
X124295226Y-128868102D01*
X124217205Y-128679744D01*
X124103937Y-128510226D01*
X123959774Y-128366063D01*
X123790256Y-128252795D01*
X123601898Y-128174774D01*
X123401939Y-128135000D01*
X123198061Y-128135000D01*
X122998102Y-128174774D01*
X122809744Y-128252795D01*
X122640226Y-128366063D01*
X122496063Y-128510226D01*
X122382795Y-128679744D01*
X122304774Y-128868102D01*
X122265000Y-129068061D01*
X108289488Y-129068061D01*
X107902826Y-128681399D01*
X107413928Y-128354727D01*
X106870692Y-128129712D01*
X106293997Y-128015000D01*
X105706003Y-128015000D01*
X105129308Y-128129712D01*
X104586072Y-128354727D01*
X104097174Y-128681399D01*
X103681399Y-129097174D01*
X103660000Y-129129200D01*
X103660000Y-127098061D01*
X112165000Y-127098061D01*
X112165000Y-127301939D01*
X112204774Y-127501898D01*
X112282795Y-127690256D01*
X112396063Y-127859774D01*
X112540226Y-128003937D01*
X112709744Y-128117205D01*
X112898102Y-128195226D01*
X113098061Y-128235000D01*
X113301939Y-128235000D01*
X113501898Y-128195226D01*
X113690256Y-128117205D01*
X113859774Y-128003937D01*
X114003937Y-127859774D01*
X114117205Y-127690256D01*
X114195226Y-127501898D01*
X114235000Y-127301939D01*
X114235000Y-127298061D01*
X124765000Y-127298061D01*
X124765000Y-127501939D01*
X124804774Y-127701898D01*
X124882795Y-127890256D01*
X124996063Y-128059774D01*
X125140226Y-128203937D01*
X125309744Y-128317205D01*
X125498102Y-128395226D01*
X125698061Y-128435000D01*
X125901939Y-128435000D01*
X126101898Y-128395226D01*
X126290256Y-128317205D01*
X126459774Y-128203937D01*
X126603937Y-128059774D01*
X126717205Y-127890256D01*
X126795226Y-127701898D01*
X126835000Y-127501939D01*
X126835000Y-127298061D01*
X126795226Y-127098102D01*
X126717205Y-126909744D01*
X126603937Y-126740226D01*
X126459774Y-126596063D01*
X126290256Y-126482795D01*
X126101898Y-126404774D01*
X125901939Y-126365000D01*
X125698061Y-126365000D01*
X125498102Y-126404774D01*
X125309744Y-126482795D01*
X125140226Y-126596063D01*
X124996063Y-126740226D01*
X124882795Y-126909744D01*
X124804774Y-127098102D01*
X124765000Y-127298061D01*
X114235000Y-127298061D01*
X114235000Y-127098061D01*
X114195226Y-126898102D01*
X114117205Y-126709744D01*
X114003937Y-126540226D01*
X113859774Y-126396063D01*
X113690256Y-126282795D01*
X113501898Y-126204774D01*
X113301939Y-126165000D01*
X113098061Y-126165000D01*
X112898102Y-126204774D01*
X112709744Y-126282795D01*
X112540226Y-126396063D01*
X112396063Y-126540226D01*
X112282795Y-126709744D01*
X112204774Y-126898102D01*
X112165000Y-127098061D01*
X103660000Y-127098061D01*
X103660000Y-125698061D01*
X119165000Y-125698061D01*
X119165000Y-125901939D01*
X119204774Y-126101898D01*
X119282795Y-126290256D01*
X119396063Y-126459774D01*
X119540226Y-126603937D01*
X119709744Y-126717205D01*
X119898102Y-126795226D01*
X120098061Y-126835000D01*
X120301939Y-126835000D01*
X120501898Y-126795226D01*
X120690256Y-126717205D01*
X120859774Y-126603937D01*
X121003937Y-126459774D01*
X121111989Y-126298061D01*
X128365000Y-126298061D01*
X128365000Y-126501939D01*
X128404774Y-126701898D01*
X128482795Y-126890256D01*
X128596063Y-127059774D01*
X128740226Y-127203937D01*
X128909744Y-127317205D01*
X129098102Y-127395226D01*
X129298061Y-127435000D01*
X129501939Y-127435000D01*
X129701898Y-127395226D01*
X129890256Y-127317205D01*
X130059774Y-127203937D01*
X130203937Y-127059774D01*
X130317205Y-126890256D01*
X130395226Y-126701898D01*
X130435000Y-126501939D01*
X130435000Y-126298061D01*
X134165000Y-126298061D01*
X134165000Y-126501939D01*
X134204774Y-126701898D01*
X134282795Y-126890256D01*
X134396063Y-127059774D01*
X134540226Y-127203937D01*
X134709744Y-127317205D01*
X134898102Y-127395226D01*
X135098061Y-127435000D01*
X135301939Y-127435000D01*
X135501898Y-127395226D01*
X135690256Y-127317205D01*
X135859774Y-127203937D01*
X136003937Y-127059774D01*
X136117205Y-126890256D01*
X136195226Y-126701898D01*
X136235000Y-126501939D01*
X136235000Y-126298061D01*
X136229033Y-126268061D01*
X138995000Y-126268061D01*
X138995000Y-126471939D01*
X139034774Y-126671898D01*
X139112795Y-126860256D01*
X139226063Y-127029774D01*
X139370226Y-127173937D01*
X139539744Y-127287205D01*
X139728102Y-127365226D01*
X139928061Y-127405000D01*
X140131939Y-127405000D01*
X140331898Y-127365226D01*
X140520256Y-127287205D01*
X140689774Y-127173937D01*
X140833937Y-127029774D01*
X140947205Y-126860256D01*
X140956398Y-126838061D01*
X145765000Y-126838061D01*
X145765000Y-127041939D01*
X145804774Y-127241898D01*
X145882795Y-127430256D01*
X145996063Y-127599774D01*
X146140226Y-127743937D01*
X146309744Y-127857205D01*
X146498102Y-127935226D01*
X146698061Y-127975000D01*
X146901939Y-127975000D01*
X147101898Y-127935226D01*
X147290256Y-127857205D01*
X147459774Y-127743937D01*
X147603937Y-127599774D01*
X147717205Y-127430256D01*
X147795226Y-127241898D01*
X147835000Y-127041939D01*
X147835000Y-126838061D01*
X147795226Y-126638102D01*
X147717205Y-126449744D01*
X147603937Y-126280226D01*
X147459774Y-126136063D01*
X147290256Y-126022795D01*
X147101898Y-125944774D01*
X146901939Y-125905000D01*
X146698061Y-125905000D01*
X146498102Y-125944774D01*
X146309744Y-126022795D01*
X146140226Y-126136063D01*
X145996063Y-126280226D01*
X145882795Y-126449744D01*
X145804774Y-126638102D01*
X145765000Y-126838061D01*
X140956398Y-126838061D01*
X141025226Y-126671898D01*
X141065000Y-126471939D01*
X141065000Y-126268061D01*
X141025226Y-126068102D01*
X140947205Y-125879744D01*
X140833937Y-125710226D01*
X140689774Y-125566063D01*
X140520256Y-125452795D01*
X140331898Y-125374774D01*
X140131939Y-125335000D01*
X139928061Y-125335000D01*
X139728102Y-125374774D01*
X139539744Y-125452795D01*
X139370226Y-125566063D01*
X139226063Y-125710226D01*
X139112795Y-125879744D01*
X139034774Y-126068102D01*
X138995000Y-126268061D01*
X136229033Y-126268061D01*
X136195226Y-126098102D01*
X136117205Y-125909744D01*
X136003937Y-125740226D01*
X135859774Y-125596063D01*
X135690256Y-125482795D01*
X135501898Y-125404774D01*
X135301939Y-125365000D01*
X135098061Y-125365000D01*
X134898102Y-125404774D01*
X134709744Y-125482795D01*
X134540226Y-125596063D01*
X134396063Y-125740226D01*
X134282795Y-125909744D01*
X134204774Y-126098102D01*
X134165000Y-126298061D01*
X130435000Y-126298061D01*
X130395226Y-126098102D01*
X130317205Y-125909744D01*
X130203937Y-125740226D01*
X130059774Y-125596063D01*
X129890256Y-125482795D01*
X129701898Y-125404774D01*
X129501939Y-125365000D01*
X129298061Y-125365000D01*
X129098102Y-125404774D01*
X128909744Y-125482795D01*
X128740226Y-125596063D01*
X128596063Y-125740226D01*
X128482795Y-125909744D01*
X128404774Y-126098102D01*
X128365000Y-126298061D01*
X121111989Y-126298061D01*
X121117205Y-126290256D01*
X121195226Y-126101898D01*
X121235000Y-125901939D01*
X121235000Y-125698061D01*
X121195226Y-125498102D01*
X121117205Y-125309744D01*
X121003937Y-125140226D01*
X120859774Y-124996063D01*
X120690256Y-124882795D01*
X120501898Y-124804774D01*
X120301939Y-124765000D01*
X120098061Y-124765000D01*
X119898102Y-124804774D01*
X119709744Y-124882795D01*
X119540226Y-124996063D01*
X119396063Y-125140226D01*
X119282795Y-125309744D01*
X119204774Y-125498102D01*
X119165000Y-125698061D01*
X103660000Y-125698061D01*
X103660000Y-122693740D01*
X106515000Y-122693740D01*
X106515000Y-122986260D01*
X106572068Y-123273158D01*
X106684010Y-123543411D01*
X106846525Y-123786632D01*
X107053368Y-123993475D01*
X107296589Y-124155990D01*
X107566842Y-124267932D01*
X107853740Y-124325000D01*
X108146260Y-124325000D01*
X108433158Y-124267932D01*
X108703411Y-124155990D01*
X108946632Y-123993475D01*
X109153475Y-123786632D01*
X109212656Y-123698061D01*
X109565000Y-123698061D01*
X109565000Y-123901939D01*
X109604774Y-124101898D01*
X109682795Y-124290256D01*
X109796063Y-124459774D01*
X109940226Y-124603937D01*
X110109744Y-124717205D01*
X110298102Y-124795226D01*
X110498061Y-124835000D01*
X110701939Y-124835000D01*
X110901898Y-124795226D01*
X111090256Y-124717205D01*
X111259774Y-124603937D01*
X111403937Y-124459774D01*
X111517205Y-124290256D01*
X111595226Y-124101898D01*
X111635000Y-123901939D01*
X111635000Y-123698061D01*
X111595226Y-123498102D01*
X111517205Y-123309744D01*
X111403937Y-123140226D01*
X111259774Y-122996063D01*
X111090256Y-122882795D01*
X110901898Y-122804774D01*
X110701939Y-122765000D01*
X110498061Y-122765000D01*
X110298102Y-122804774D01*
X110109744Y-122882795D01*
X109940226Y-122996063D01*
X109796063Y-123140226D01*
X109682795Y-123309744D01*
X109604774Y-123498102D01*
X109565000Y-123698061D01*
X109212656Y-123698061D01*
X109315990Y-123543411D01*
X109427932Y-123273158D01*
X109485000Y-122986260D01*
X109485000Y-122693740D01*
X113515000Y-122693740D01*
X113515000Y-122986260D01*
X113572068Y-123273158D01*
X113684010Y-123543411D01*
X113846525Y-123786632D01*
X114053368Y-123993475D01*
X114296589Y-124155990D01*
X114566842Y-124267932D01*
X114853740Y-124325000D01*
X115146260Y-124325000D01*
X115433158Y-124267932D01*
X115703411Y-124155990D01*
X115946632Y-123993475D01*
X116153475Y-123786632D01*
X116315990Y-123543411D01*
X116427932Y-123273158D01*
X116485000Y-122986260D01*
X116485000Y-122693740D01*
X116427932Y-122406842D01*
X116315990Y-122136589D01*
X116153475Y-121893368D01*
X115958168Y-121698061D01*
X123365000Y-121698061D01*
X123365000Y-121901939D01*
X123404774Y-122101898D01*
X123482795Y-122290256D01*
X123596063Y-122459774D01*
X123740226Y-122603937D01*
X123909744Y-122717205D01*
X124098102Y-122795226D01*
X124298061Y-122835000D01*
X124501939Y-122835000D01*
X124701898Y-122795226D01*
X124890256Y-122717205D01*
X124985238Y-122653740D01*
X125835000Y-122653740D01*
X125835000Y-122946260D01*
X125892068Y-123233158D01*
X126004010Y-123503411D01*
X126166525Y-123746632D01*
X126373368Y-123953475D01*
X126616589Y-124115990D01*
X126886842Y-124227932D01*
X127173740Y-124285000D01*
X127466260Y-124285000D01*
X127753158Y-124227932D01*
X128023411Y-124115990D01*
X128266632Y-123953475D01*
X128473475Y-123746632D01*
X128590000Y-123572240D01*
X128706525Y-123746632D01*
X128913368Y-123953475D01*
X129156589Y-124115990D01*
X129426842Y-124227932D01*
X129713740Y-124285000D01*
X130006260Y-124285000D01*
X130293158Y-124227932D01*
X130563411Y-124115990D01*
X130806632Y-123953475D01*
X130938487Y-123821620D01*
X130960498Y-123894180D01*
X131019463Y-124004494D01*
X131098815Y-124101185D01*
X131195506Y-124180537D01*
X131305820Y-124239502D01*
X131425518Y-124275812D01*
X131550000Y-124288072D01*
X132114250Y-124285000D01*
X132273000Y-124126250D01*
X132273000Y-122927000D01*
X132527000Y-122927000D01*
X132527000Y-124126250D01*
X132685750Y-124285000D01*
X133250000Y-124288072D01*
X133374482Y-124275812D01*
X133494180Y-124239502D01*
X133604494Y-124180537D01*
X133701185Y-124101185D01*
X133780537Y-124004494D01*
X133839502Y-123894180D01*
X133875812Y-123774482D01*
X133888072Y-123650000D01*
X133885000Y-123085750D01*
X133726250Y-122927000D01*
X132527000Y-122927000D01*
X132273000Y-122927000D01*
X132253000Y-122927000D01*
X132253000Y-122673000D01*
X132273000Y-122673000D01*
X132273000Y-121473750D01*
X132527000Y-121473750D01*
X132527000Y-122673000D01*
X133726250Y-122673000D01*
X133771189Y-122628061D01*
X134565000Y-122628061D01*
X134565000Y-122831939D01*
X134604774Y-123031898D01*
X134682795Y-123220256D01*
X134796063Y-123389774D01*
X134940226Y-123533937D01*
X135109744Y-123647205D01*
X135298102Y-123725226D01*
X135498061Y-123765000D01*
X135701939Y-123765000D01*
X135901898Y-123725226D01*
X136090256Y-123647205D01*
X136259774Y-123533937D01*
X136403937Y-123389774D01*
X136517205Y-123220256D01*
X136595226Y-123031898D01*
X136635000Y-122831939D01*
X136635000Y-122768061D01*
X140675000Y-122768061D01*
X140675000Y-122971939D01*
X140714774Y-123171898D01*
X140792795Y-123360256D01*
X140906063Y-123529774D01*
X141050226Y-123673937D01*
X141219744Y-123787205D01*
X141408102Y-123865226D01*
X141608061Y-123905000D01*
X141811939Y-123905000D01*
X142011898Y-123865226D01*
X142200256Y-123787205D01*
X142369774Y-123673937D01*
X142513937Y-123529774D01*
X142627205Y-123360256D01*
X142705226Y-123171898D01*
X142745000Y-122971939D01*
X142745000Y-122888061D01*
X143225000Y-122888061D01*
X143225000Y-123091939D01*
X143264774Y-123291898D01*
X143342795Y-123480256D01*
X143456063Y-123649774D01*
X143600226Y-123793937D01*
X143769744Y-123907205D01*
X143958102Y-123985226D01*
X144158061Y-124025000D01*
X144361939Y-124025000D01*
X144561898Y-123985226D01*
X144750256Y-123907205D01*
X144919774Y-123793937D01*
X145063937Y-123649774D01*
X145095000Y-123603285D01*
X145095000Y-123741939D01*
X145134774Y-123941898D01*
X145212795Y-124130256D01*
X145326063Y-124299774D01*
X145470226Y-124443937D01*
X145639744Y-124557205D01*
X145828102Y-124635226D01*
X146028061Y-124675000D01*
X146231939Y-124675000D01*
X146431898Y-124635226D01*
X146620256Y-124557205D01*
X146789774Y-124443937D01*
X146933937Y-124299774D01*
X147047205Y-124130256D01*
X147125226Y-123941898D01*
X147165000Y-123741939D01*
X147165000Y-123730000D01*
X151974025Y-123730000D01*
X151997870Y-123972102D01*
X152068489Y-124204901D01*
X152183167Y-124419449D01*
X152337498Y-124607502D01*
X152376111Y-124639191D01*
X152371613Y-124641595D01*
X152237038Y-124752038D01*
X152126595Y-124886613D01*
X152044528Y-125040149D01*
X151993992Y-125206745D01*
X151976928Y-125379999D01*
X151976928Y-126080001D01*
X151993992Y-126253255D01*
X152044528Y-126419851D01*
X152126595Y-126573387D01*
X152237038Y-126707962D01*
X152371613Y-126818405D01*
X152525149Y-126900472D01*
X152691745Y-126951008D01*
X152864999Y-126968072D01*
X154115001Y-126968072D01*
X154288255Y-126951008D01*
X154454851Y-126900472D01*
X154608387Y-126818405D01*
X154742962Y-126707962D01*
X154853405Y-126573387D01*
X154935472Y-126419851D01*
X154986008Y-126253255D01*
X155003072Y-126080001D01*
X155003072Y-125379999D01*
X154986008Y-125206745D01*
X154935472Y-125040149D01*
X154853405Y-124886613D01*
X154742962Y-124752038D01*
X154608387Y-124641595D01*
X154603889Y-124639191D01*
X154642502Y-124607502D01*
X154796833Y-124419449D01*
X154911511Y-124204901D01*
X154982130Y-123972102D01*
X155005975Y-123730000D01*
X154982130Y-123487898D01*
X154911511Y-123255099D01*
X154796833Y-123040551D01*
X154642502Y-122852498D01*
X154454449Y-122698167D01*
X154239901Y-122583489D01*
X154007102Y-122512870D01*
X153825665Y-122495000D01*
X153154335Y-122495000D01*
X152972898Y-122512870D01*
X152740099Y-122583489D01*
X152525551Y-122698167D01*
X152337498Y-122852498D01*
X152183167Y-123040551D01*
X152068489Y-123255099D01*
X151997870Y-123487898D01*
X151974025Y-123730000D01*
X147165000Y-123730000D01*
X147165000Y-123538061D01*
X147125226Y-123338102D01*
X147047205Y-123149744D01*
X146933937Y-122980226D01*
X146789774Y-122836063D01*
X146620256Y-122722795D01*
X146431898Y-122644774D01*
X146231939Y-122605000D01*
X146028061Y-122605000D01*
X145828102Y-122644774D01*
X145639744Y-122722795D01*
X145470226Y-122836063D01*
X145326063Y-122980226D01*
X145295000Y-123026715D01*
X145295000Y-122888061D01*
X145255226Y-122688102D01*
X145177205Y-122499744D01*
X145063937Y-122330226D01*
X144919774Y-122186063D01*
X144750256Y-122072795D01*
X144561898Y-121994774D01*
X144361939Y-121955000D01*
X144158061Y-121955000D01*
X143958102Y-121994774D01*
X143769744Y-122072795D01*
X143600226Y-122186063D01*
X143456063Y-122330226D01*
X143342795Y-122499744D01*
X143264774Y-122688102D01*
X143225000Y-122888061D01*
X142745000Y-122888061D01*
X142745000Y-122768061D01*
X142705226Y-122568102D01*
X142627205Y-122379744D01*
X142513937Y-122210226D01*
X142369774Y-122066063D01*
X142200256Y-121952795D01*
X142011898Y-121874774D01*
X141811939Y-121835000D01*
X141608061Y-121835000D01*
X141408102Y-121874774D01*
X141219744Y-121952795D01*
X141050226Y-122066063D01*
X140906063Y-122210226D01*
X140792795Y-122379744D01*
X140714774Y-122568102D01*
X140675000Y-122768061D01*
X136635000Y-122768061D01*
X136635000Y-122628061D01*
X136595226Y-122428102D01*
X136517205Y-122239744D01*
X136403937Y-122070226D01*
X136259774Y-121926063D01*
X136090256Y-121812795D01*
X135901898Y-121734774D01*
X135701939Y-121695000D01*
X135498061Y-121695000D01*
X135298102Y-121734774D01*
X135109744Y-121812795D01*
X134940226Y-121926063D01*
X134796063Y-122070226D01*
X134682795Y-122239744D01*
X134604774Y-122428102D01*
X134565000Y-122628061D01*
X133771189Y-122628061D01*
X133885000Y-122514250D01*
X133888072Y-121950000D01*
X133875812Y-121825518D01*
X133839502Y-121705820D01*
X133780537Y-121595506D01*
X133701185Y-121498815D01*
X133604494Y-121419463D01*
X133494180Y-121360498D01*
X133374482Y-121324188D01*
X133250000Y-121311928D01*
X132685750Y-121315000D01*
X132527000Y-121473750D01*
X132273000Y-121473750D01*
X132114250Y-121315000D01*
X131550000Y-121311928D01*
X131425518Y-121324188D01*
X131305820Y-121360498D01*
X131195506Y-121419463D01*
X131098815Y-121498815D01*
X131019463Y-121595506D01*
X130960498Y-121705820D01*
X130938487Y-121778380D01*
X130806632Y-121646525D01*
X130563411Y-121484010D01*
X130293158Y-121372068D01*
X130006260Y-121315000D01*
X129713740Y-121315000D01*
X129426842Y-121372068D01*
X129156589Y-121484010D01*
X128913368Y-121646525D01*
X128706525Y-121853368D01*
X128590000Y-122027760D01*
X128473475Y-121853368D01*
X128266632Y-121646525D01*
X128023411Y-121484010D01*
X127753158Y-121372068D01*
X127466260Y-121315000D01*
X127173740Y-121315000D01*
X126886842Y-121372068D01*
X126616589Y-121484010D01*
X126373368Y-121646525D01*
X126166525Y-121853368D01*
X126004010Y-122096589D01*
X125892068Y-122366842D01*
X125835000Y-122653740D01*
X124985238Y-122653740D01*
X125059774Y-122603937D01*
X125203937Y-122459774D01*
X125317205Y-122290256D01*
X125395226Y-122101898D01*
X125435000Y-121901939D01*
X125435000Y-121698061D01*
X125395226Y-121498102D01*
X125317205Y-121309744D01*
X125203937Y-121140226D01*
X125059774Y-120996063D01*
X124890256Y-120882795D01*
X124701898Y-120804774D01*
X124501939Y-120765000D01*
X124298061Y-120765000D01*
X124098102Y-120804774D01*
X123909744Y-120882795D01*
X123740226Y-120996063D01*
X123596063Y-121140226D01*
X123482795Y-121309744D01*
X123404774Y-121498102D01*
X123365000Y-121698061D01*
X115958168Y-121698061D01*
X115946632Y-121686525D01*
X115703411Y-121524010D01*
X115433158Y-121412068D01*
X115146260Y-121355000D01*
X114853740Y-121355000D01*
X114566842Y-121412068D01*
X114296589Y-121524010D01*
X114053368Y-121686525D01*
X113846525Y-121893368D01*
X113684010Y-122136589D01*
X113572068Y-122406842D01*
X113515000Y-122693740D01*
X109485000Y-122693740D01*
X109427932Y-122406842D01*
X109315990Y-122136589D01*
X109153475Y-121893368D01*
X108946632Y-121686525D01*
X108703411Y-121524010D01*
X108433158Y-121412068D01*
X108146260Y-121355000D01*
X107853740Y-121355000D01*
X107566842Y-121412068D01*
X107296589Y-121524010D01*
X107053368Y-121686525D01*
X106846525Y-121893368D01*
X106684010Y-122136589D01*
X106572068Y-122406842D01*
X106515000Y-122693740D01*
X103660000Y-122693740D01*
X103660000Y-119568061D01*
X116535000Y-119568061D01*
X116535000Y-119771939D01*
X116574774Y-119971898D01*
X116652795Y-120160256D01*
X116766063Y-120329774D01*
X116910226Y-120473937D01*
X117079744Y-120587205D01*
X117268102Y-120665226D01*
X117468061Y-120705000D01*
X117671939Y-120705000D01*
X117871898Y-120665226D01*
X118060256Y-120587205D01*
X118229774Y-120473937D01*
X118373937Y-120329774D01*
X118487205Y-120160256D01*
X118565226Y-119971898D01*
X118605000Y-119771939D01*
X118605000Y-119568061D01*
X118565226Y-119368102D01*
X118487205Y-119179744D01*
X118373937Y-119010226D01*
X118361772Y-118998061D01*
X125415000Y-118998061D01*
X125415000Y-119201939D01*
X125454774Y-119401898D01*
X125532795Y-119590256D01*
X125646063Y-119759774D01*
X125790226Y-119903937D01*
X125959744Y-120017205D01*
X126148102Y-120095226D01*
X126348061Y-120135000D01*
X126551939Y-120135000D01*
X126751898Y-120095226D01*
X126940256Y-120017205D01*
X127109774Y-119903937D01*
X127253937Y-119759774D01*
X127367205Y-119590256D01*
X127445226Y-119401898D01*
X127485000Y-119201939D01*
X127485000Y-118998061D01*
X127445226Y-118798102D01*
X127367205Y-118609744D01*
X127253937Y-118440226D01*
X127236772Y-118423061D01*
X137540000Y-118423061D01*
X137540000Y-118626939D01*
X137579774Y-118826898D01*
X137657795Y-119015256D01*
X137771063Y-119184774D01*
X137915226Y-119328937D01*
X138084744Y-119442205D01*
X138273102Y-119520226D01*
X138473061Y-119560000D01*
X138676939Y-119560000D01*
X138876898Y-119520226D01*
X139065256Y-119442205D01*
X139234774Y-119328937D01*
X139378937Y-119184774D01*
X139492205Y-119015256D01*
X139570226Y-118826898D01*
X139610000Y-118626939D01*
X139610000Y-118423061D01*
X139570226Y-118223102D01*
X139492205Y-118034744D01*
X139447649Y-117968061D01*
X143225000Y-117968061D01*
X143225000Y-118171939D01*
X143264774Y-118371898D01*
X143342795Y-118560256D01*
X143456063Y-118729774D01*
X143600226Y-118873937D01*
X143769744Y-118987205D01*
X143958102Y-119065226D01*
X144158061Y-119105000D01*
X144361939Y-119105000D01*
X144561898Y-119065226D01*
X144750256Y-118987205D01*
X144919774Y-118873937D01*
X145063937Y-118729774D01*
X145177205Y-118560256D01*
X145254750Y-118373047D01*
X145326063Y-118479774D01*
X145470226Y-118623937D01*
X145639744Y-118737205D01*
X145828102Y-118815226D01*
X146028061Y-118855000D01*
X146231939Y-118855000D01*
X146431898Y-118815226D01*
X146620256Y-118737205D01*
X146789774Y-118623937D01*
X146933937Y-118479774D01*
X147047205Y-118310256D01*
X147125226Y-118121898D01*
X147165000Y-117921939D01*
X147165000Y-117863045D01*
X147204176Y-117957624D01*
X147269241Y-118055000D01*
X147204176Y-118152376D01*
X147118617Y-118358933D01*
X147075000Y-118578212D01*
X147075000Y-118801788D01*
X147118617Y-119021067D01*
X147204176Y-119227624D01*
X147269241Y-119325000D01*
X147204176Y-119422376D01*
X147118617Y-119628933D01*
X147075000Y-119848212D01*
X147075000Y-120071788D01*
X147118617Y-120291067D01*
X147204176Y-120497624D01*
X147269241Y-120595000D01*
X147204176Y-120692376D01*
X147118617Y-120898933D01*
X147075000Y-121118212D01*
X147075000Y-121341788D01*
X147118617Y-121561067D01*
X147204176Y-121767624D01*
X147269241Y-121865000D01*
X147204176Y-121962376D01*
X147118617Y-122168933D01*
X147075000Y-122388212D01*
X147075000Y-122611788D01*
X147118617Y-122831067D01*
X147204176Y-123037624D01*
X147328388Y-123223520D01*
X147486480Y-123381612D01*
X147672376Y-123505824D01*
X147878933Y-123591383D01*
X148098212Y-123635000D01*
X148321788Y-123635000D01*
X148541067Y-123591383D01*
X148652774Y-123545112D01*
X148735820Y-123589502D01*
X148855518Y-123625812D01*
X148980000Y-123638072D01*
X149980000Y-123638072D01*
X150104482Y-123625812D01*
X150224180Y-123589502D01*
X150334494Y-123530537D01*
X150431185Y-123451185D01*
X150510537Y-123354494D01*
X150569502Y-123244180D01*
X150605812Y-123124482D01*
X150618072Y-123000000D01*
X150618072Y-122000000D01*
X150605812Y-121875518D01*
X150569502Y-121755820D01*
X150525112Y-121672774D01*
X150571383Y-121561067D01*
X150615000Y-121341788D01*
X150615000Y-121118212D01*
X150571383Y-120898933D01*
X150485824Y-120692376D01*
X150420759Y-120595000D01*
X150485532Y-120498061D01*
X151165000Y-120498061D01*
X151165000Y-120701939D01*
X151204774Y-120901898D01*
X151282795Y-121090256D01*
X151396063Y-121259774D01*
X151540226Y-121403937D01*
X151709744Y-121517205D01*
X151898102Y-121595226D01*
X152098061Y-121635000D01*
X152301939Y-121635000D01*
X152501898Y-121595226D01*
X152690256Y-121517205D01*
X152859774Y-121403937D01*
X153003937Y-121259774D01*
X153117205Y-121090256D01*
X153195226Y-120901898D01*
X153235000Y-120701939D01*
X153235000Y-120498061D01*
X153195226Y-120298102D01*
X153117205Y-120109744D01*
X153003937Y-119940226D01*
X152859774Y-119796063D01*
X152690256Y-119682795D01*
X152501898Y-119604774D01*
X152301939Y-119565000D01*
X152098061Y-119565000D01*
X151898102Y-119604774D01*
X151709744Y-119682795D01*
X151540226Y-119796063D01*
X151396063Y-119940226D01*
X151282795Y-120109744D01*
X151204774Y-120298102D01*
X151165000Y-120498061D01*
X150485532Y-120498061D01*
X150485824Y-120497624D01*
X150571383Y-120291067D01*
X150615000Y-120071788D01*
X150615000Y-119848212D01*
X150571383Y-119628933D01*
X150485824Y-119422376D01*
X150420759Y-119325000D01*
X150485824Y-119227624D01*
X150571383Y-119021067D01*
X150615000Y-118801788D01*
X150615000Y-118578212D01*
X150571383Y-118358933D01*
X150485824Y-118152376D01*
X150420759Y-118055000D01*
X150485824Y-117957624D01*
X150571383Y-117751067D01*
X150615000Y-117531788D01*
X150615000Y-117308212D01*
X150571383Y-117088933D01*
X150485824Y-116882376D01*
X150361612Y-116696480D01*
X150203520Y-116538388D01*
X150017624Y-116414176D01*
X149811067Y-116328617D01*
X149591788Y-116285000D01*
X149368212Y-116285000D01*
X149148933Y-116328617D01*
X148942376Y-116414176D01*
X148845000Y-116479241D01*
X148747624Y-116414176D01*
X148541067Y-116328617D01*
X148321788Y-116285000D01*
X148098212Y-116285000D01*
X147878933Y-116328617D01*
X147672376Y-116414176D01*
X147486480Y-116538388D01*
X147328388Y-116696480D01*
X147204176Y-116882376D01*
X147118617Y-117088933D01*
X147075000Y-117308212D01*
X147075000Y-117396847D01*
X147047205Y-117329744D01*
X146933937Y-117160226D01*
X146789774Y-117016063D01*
X146620256Y-116902795D01*
X146431898Y-116824774D01*
X146231939Y-116785000D01*
X146082519Y-116785000D01*
X146047205Y-116699744D01*
X145933937Y-116530226D01*
X145789774Y-116386063D01*
X145620256Y-116272795D01*
X145431898Y-116194774D01*
X145231939Y-116155000D01*
X145028061Y-116155000D01*
X144828102Y-116194774D01*
X144639744Y-116272795D01*
X144470226Y-116386063D01*
X144326063Y-116530226D01*
X144212795Y-116699744D01*
X144134774Y-116888102D01*
X144103391Y-117045874D01*
X143958102Y-117074774D01*
X143769744Y-117152795D01*
X143600226Y-117266063D01*
X143456063Y-117410226D01*
X143342795Y-117579744D01*
X143264774Y-117768102D01*
X143225000Y-117968061D01*
X139447649Y-117968061D01*
X139378937Y-117865226D01*
X139234774Y-117721063D01*
X139065256Y-117607795D01*
X138876898Y-117529774D01*
X138676939Y-117490000D01*
X138473061Y-117490000D01*
X138273102Y-117529774D01*
X138084744Y-117607795D01*
X137915226Y-117721063D01*
X137771063Y-117865226D01*
X137657795Y-118034744D01*
X137579774Y-118223102D01*
X137540000Y-118423061D01*
X127236772Y-118423061D01*
X127109774Y-118296063D01*
X126940256Y-118182795D01*
X126751898Y-118104774D01*
X126551939Y-118065000D01*
X126348061Y-118065000D01*
X126148102Y-118104774D01*
X125959744Y-118182795D01*
X125790226Y-118296063D01*
X125646063Y-118440226D01*
X125532795Y-118609744D01*
X125454774Y-118798102D01*
X125415000Y-118998061D01*
X118361772Y-118998061D01*
X118229774Y-118866063D01*
X118060256Y-118752795D01*
X117871898Y-118674774D01*
X117671939Y-118635000D01*
X117468061Y-118635000D01*
X117268102Y-118674774D01*
X117079744Y-118752795D01*
X116910226Y-118866063D01*
X116766063Y-119010226D01*
X116652795Y-119179744D01*
X116574774Y-119368102D01*
X116535000Y-119568061D01*
X103660000Y-119568061D01*
X103660000Y-118298061D01*
X113965000Y-118298061D01*
X113965000Y-118501939D01*
X114004774Y-118701898D01*
X114082795Y-118890256D01*
X114196063Y-119059774D01*
X114340226Y-119203937D01*
X114509744Y-119317205D01*
X114698102Y-119395226D01*
X114898061Y-119435000D01*
X115101939Y-119435000D01*
X115301898Y-119395226D01*
X115490256Y-119317205D01*
X115659774Y-119203937D01*
X115803937Y-119059774D01*
X115917205Y-118890256D01*
X115995226Y-118701898D01*
X116035000Y-118501939D01*
X116035000Y-118298061D01*
X115995226Y-118098102D01*
X115917205Y-117909744D01*
X115803937Y-117740226D01*
X115659774Y-117596063D01*
X115490256Y-117482795D01*
X115301898Y-117404774D01*
X115101939Y-117365000D01*
X114898061Y-117365000D01*
X114698102Y-117404774D01*
X114509744Y-117482795D01*
X114340226Y-117596063D01*
X114196063Y-117740226D01*
X114082795Y-117909744D01*
X114004774Y-118098102D01*
X113965000Y-118298061D01*
X103660000Y-118298061D01*
X103660000Y-114698061D01*
X116765000Y-114698061D01*
X116765000Y-114901939D01*
X116804774Y-115101898D01*
X116882795Y-115290256D01*
X116996063Y-115459774D01*
X117140226Y-115603937D01*
X117309744Y-115717205D01*
X117498102Y-115795226D01*
X117698061Y-115835000D01*
X117901939Y-115835000D01*
X118101898Y-115795226D01*
X118290256Y-115717205D01*
X118459774Y-115603937D01*
X118603937Y-115459774D01*
X118717205Y-115290256D01*
X118795226Y-115101898D01*
X118835000Y-114901939D01*
X118835000Y-114698061D01*
X118795226Y-114498102D01*
X118717205Y-114309744D01*
X118603937Y-114140226D01*
X118459774Y-113996063D01*
X118290256Y-113882795D01*
X118101898Y-113804774D01*
X117901939Y-113765000D01*
X117698061Y-113765000D01*
X117498102Y-113804774D01*
X117309744Y-113882795D01*
X117140226Y-113996063D01*
X116996063Y-114140226D01*
X116882795Y-114309744D01*
X116804774Y-114498102D01*
X116765000Y-114698061D01*
X103660000Y-114698061D01*
X103660000Y-114050000D01*
X104311928Y-114050000D01*
X104324188Y-114174482D01*
X104360498Y-114294180D01*
X104419463Y-114404494D01*
X104498815Y-114501185D01*
X104595506Y-114580537D01*
X104705820Y-114639502D01*
X104825518Y-114675812D01*
X104950000Y-114688072D01*
X105514250Y-114685000D01*
X105673000Y-114526250D01*
X105673000Y-113327000D01*
X104473750Y-113327000D01*
X104315000Y-113485750D01*
X104311928Y-114050000D01*
X103660000Y-114050000D01*
X103660000Y-112350000D01*
X104311928Y-112350000D01*
X104315000Y-112914250D01*
X104473750Y-113073000D01*
X105673000Y-113073000D01*
X105673000Y-111873750D01*
X105927000Y-111873750D01*
X105927000Y-113073000D01*
X105947000Y-113073000D01*
X105947000Y-113327000D01*
X105927000Y-113327000D01*
X105927000Y-114526250D01*
X106085750Y-114685000D01*
X106650000Y-114688072D01*
X106774482Y-114675812D01*
X106894180Y-114639502D01*
X107004494Y-114580537D01*
X107101185Y-114501185D01*
X107180537Y-114404494D01*
X107239502Y-114294180D01*
X107261513Y-114221620D01*
X107393368Y-114353475D01*
X107636589Y-114515990D01*
X107906842Y-114627932D01*
X108193740Y-114685000D01*
X108486260Y-114685000D01*
X108773158Y-114627932D01*
X109043411Y-114515990D01*
X109286632Y-114353475D01*
X109493475Y-114146632D01*
X109610000Y-113972240D01*
X109726525Y-114146632D01*
X109933368Y-114353475D01*
X110176589Y-114515990D01*
X110446842Y-114627932D01*
X110733740Y-114685000D01*
X111026260Y-114685000D01*
X111313158Y-114627932D01*
X111583411Y-114515990D01*
X111826632Y-114353475D01*
X112033475Y-114146632D01*
X112150000Y-113972240D01*
X112266525Y-114146632D01*
X112473368Y-114353475D01*
X112716589Y-114515990D01*
X112986842Y-114627932D01*
X113273740Y-114685000D01*
X113566260Y-114685000D01*
X113853158Y-114627932D01*
X114123411Y-114515990D01*
X114366632Y-114353475D01*
X114573475Y-114146632D01*
X114735990Y-113903411D01*
X114847932Y-113633158D01*
X114905000Y-113346260D01*
X114905000Y-113053740D01*
X114847932Y-112766842D01*
X114735990Y-112496589D01*
X114573475Y-112253368D01*
X114366632Y-112046525D01*
X114123411Y-111884010D01*
X113853158Y-111772068D01*
X113566260Y-111715000D01*
X113273740Y-111715000D01*
X112986842Y-111772068D01*
X112716589Y-111884010D01*
X112473368Y-112046525D01*
X112266525Y-112253368D01*
X112150000Y-112427760D01*
X112033475Y-112253368D01*
X111826632Y-112046525D01*
X111583411Y-111884010D01*
X111313158Y-111772068D01*
X111026260Y-111715000D01*
X110733740Y-111715000D01*
X110446842Y-111772068D01*
X110176589Y-111884010D01*
X109933368Y-112046525D01*
X109726525Y-112253368D01*
X109610000Y-112427760D01*
X109493475Y-112253368D01*
X109286632Y-112046525D01*
X109043411Y-111884010D01*
X108773158Y-111772068D01*
X108486260Y-111715000D01*
X108193740Y-111715000D01*
X107906842Y-111772068D01*
X107636589Y-111884010D01*
X107393368Y-112046525D01*
X107261513Y-112178380D01*
X107239502Y-112105820D01*
X107180537Y-111995506D01*
X107101185Y-111898815D01*
X107004494Y-111819463D01*
X106894180Y-111760498D01*
X106774482Y-111724188D01*
X106650000Y-111711928D01*
X106085750Y-111715000D01*
X105927000Y-111873750D01*
X105673000Y-111873750D01*
X105514250Y-111715000D01*
X104950000Y-111711928D01*
X104825518Y-111724188D01*
X104705820Y-111760498D01*
X104595506Y-111819463D01*
X104498815Y-111898815D01*
X104419463Y-111995506D01*
X104360498Y-112105820D01*
X104324188Y-112225518D01*
X104311928Y-112350000D01*
X103660000Y-112350000D01*
X103660000Y-110498061D01*
X106565000Y-110498061D01*
X106565000Y-110701939D01*
X106604774Y-110901898D01*
X106682795Y-111090256D01*
X106796063Y-111259774D01*
X106940226Y-111403937D01*
X107109744Y-111517205D01*
X107298102Y-111595226D01*
X107498061Y-111635000D01*
X107701939Y-111635000D01*
X107901898Y-111595226D01*
X108090256Y-111517205D01*
X108259774Y-111403937D01*
X108403937Y-111259774D01*
X108517205Y-111090256D01*
X108595226Y-110901898D01*
X108635000Y-110701939D01*
X108635000Y-110498061D01*
X115165000Y-110498061D01*
X115165000Y-110701939D01*
X115204774Y-110901898D01*
X115282795Y-111090256D01*
X115396063Y-111259774D01*
X115540226Y-111403937D01*
X115709744Y-111517205D01*
X115898102Y-111595226D01*
X116098061Y-111635000D01*
X116301939Y-111635000D01*
X116501898Y-111595226D01*
X116690256Y-111517205D01*
X116859774Y-111403937D01*
X116900000Y-111363711D01*
X116940226Y-111403937D01*
X117109744Y-111517205D01*
X117298102Y-111595226D01*
X117498061Y-111635000D01*
X117701939Y-111635000D01*
X117901898Y-111595226D01*
X118090256Y-111517205D01*
X118259774Y-111403937D01*
X118403937Y-111259774D01*
X118517205Y-111090256D01*
X118565749Y-110973061D01*
X128140000Y-110973061D01*
X128140000Y-111176939D01*
X128179774Y-111376898D01*
X128257795Y-111565256D01*
X128371063Y-111734774D01*
X128515226Y-111878937D01*
X128684744Y-111992205D01*
X128873102Y-112070226D01*
X129073061Y-112110000D01*
X129276939Y-112110000D01*
X129476898Y-112070226D01*
X129665256Y-111992205D01*
X129834774Y-111878937D01*
X129978937Y-111734774D01*
X130092205Y-111565256D01*
X130170226Y-111376898D01*
X130210000Y-111176939D01*
X130210000Y-110973061D01*
X135415000Y-110973061D01*
X135415000Y-111176939D01*
X135454774Y-111376898D01*
X135532795Y-111565256D01*
X135646063Y-111734774D01*
X135790226Y-111878937D01*
X135959744Y-111992205D01*
X136148102Y-112070226D01*
X136348061Y-112110000D01*
X136551939Y-112110000D01*
X136751898Y-112070226D01*
X136940256Y-111992205D01*
X137109774Y-111878937D01*
X137253937Y-111734774D01*
X137367205Y-111565256D01*
X137415749Y-111448061D01*
X145555000Y-111448061D01*
X145555000Y-111651939D01*
X145594774Y-111851898D01*
X145672795Y-112040256D01*
X145786063Y-112209774D01*
X145930226Y-112353937D01*
X146099744Y-112467205D01*
X146283125Y-112543164D01*
X146196063Y-112630226D01*
X146082795Y-112799744D01*
X146004774Y-112988102D01*
X145965000Y-113188061D01*
X145965000Y-113391939D01*
X146004774Y-113591898D01*
X146082795Y-113780256D01*
X146196063Y-113949774D01*
X146340226Y-114093937D01*
X146509744Y-114207205D01*
X146698102Y-114285226D01*
X146898061Y-114325000D01*
X147101939Y-114325000D01*
X147301898Y-114285226D01*
X147490256Y-114207205D01*
X147659774Y-114093937D01*
X147803937Y-113949774D01*
X147917205Y-113780256D01*
X147995226Y-113591898D01*
X148035000Y-113391939D01*
X148035000Y-113188061D01*
X148285000Y-113188061D01*
X148285000Y-113391939D01*
X148324774Y-113591898D01*
X148402795Y-113780256D01*
X148516063Y-113949774D01*
X148660226Y-114093937D01*
X148829744Y-114207205D01*
X149018102Y-114285226D01*
X149218061Y-114325000D01*
X149421939Y-114325000D01*
X149621898Y-114285226D01*
X149810256Y-114207205D01*
X149979774Y-114093937D01*
X150123937Y-113949774D01*
X150237205Y-113780256D01*
X150315226Y-113591898D01*
X150355000Y-113391939D01*
X150355000Y-113188061D01*
X150315226Y-112988102D01*
X150237205Y-112799744D01*
X150123937Y-112630226D01*
X149979774Y-112486063D01*
X149810256Y-112372795D01*
X149621898Y-112294774D01*
X149421939Y-112255000D01*
X149218061Y-112255000D01*
X149018102Y-112294774D01*
X148829744Y-112372795D01*
X148660226Y-112486063D01*
X148516063Y-112630226D01*
X148402795Y-112799744D01*
X148324774Y-112988102D01*
X148285000Y-113188061D01*
X148035000Y-113188061D01*
X147995226Y-112988102D01*
X147917205Y-112799744D01*
X147803937Y-112630226D01*
X147659774Y-112486063D01*
X147490256Y-112372795D01*
X147306875Y-112296836D01*
X147393937Y-112209774D01*
X147507205Y-112040256D01*
X147585226Y-111851898D01*
X147625000Y-111651939D01*
X147625000Y-111448061D01*
X147585226Y-111248102D01*
X147507205Y-111059744D01*
X147393937Y-110890226D01*
X147249774Y-110746063D01*
X147080256Y-110632795D01*
X146891898Y-110554774D01*
X146691939Y-110515000D01*
X146488061Y-110515000D01*
X146288102Y-110554774D01*
X146099744Y-110632795D01*
X145930226Y-110746063D01*
X145786063Y-110890226D01*
X145672795Y-111059744D01*
X145594774Y-111248102D01*
X145555000Y-111448061D01*
X137415749Y-111448061D01*
X137445226Y-111376898D01*
X137485000Y-111176939D01*
X137485000Y-110973061D01*
X137445226Y-110773102D01*
X137367205Y-110584744D01*
X137253937Y-110415226D01*
X137109774Y-110271063D01*
X136940256Y-110157795D01*
X136751898Y-110079774D01*
X136551939Y-110040000D01*
X136348061Y-110040000D01*
X136148102Y-110079774D01*
X135959744Y-110157795D01*
X135790226Y-110271063D01*
X135646063Y-110415226D01*
X135532795Y-110584744D01*
X135454774Y-110773102D01*
X135415000Y-110973061D01*
X130210000Y-110973061D01*
X130170226Y-110773102D01*
X130092205Y-110584744D01*
X129978937Y-110415226D01*
X129834774Y-110271063D01*
X129665256Y-110157795D01*
X129476898Y-110079774D01*
X129276939Y-110040000D01*
X129073061Y-110040000D01*
X128873102Y-110079774D01*
X128684744Y-110157795D01*
X128515226Y-110271063D01*
X128371063Y-110415226D01*
X128257795Y-110584744D01*
X128179774Y-110773102D01*
X128140000Y-110973061D01*
X118565749Y-110973061D01*
X118595226Y-110901898D01*
X118635000Y-110701939D01*
X118635000Y-110498061D01*
X118595226Y-110298102D01*
X118517205Y-110109744D01*
X118403937Y-109940226D01*
X118259774Y-109796063D01*
X118090256Y-109682795D01*
X117901898Y-109604774D01*
X117701939Y-109565000D01*
X117498061Y-109565000D01*
X117298102Y-109604774D01*
X117109744Y-109682795D01*
X116940226Y-109796063D01*
X116900000Y-109836289D01*
X116859774Y-109796063D01*
X116690256Y-109682795D01*
X116501898Y-109604774D01*
X116301939Y-109565000D01*
X116098061Y-109565000D01*
X115898102Y-109604774D01*
X115709744Y-109682795D01*
X115540226Y-109796063D01*
X115396063Y-109940226D01*
X115282795Y-110109744D01*
X115204774Y-110298102D01*
X115165000Y-110498061D01*
X108635000Y-110498061D01*
X108595226Y-110298102D01*
X108517205Y-110109744D01*
X108403937Y-109940226D01*
X108259774Y-109796063D01*
X108090256Y-109682795D01*
X107901898Y-109604774D01*
X107701939Y-109565000D01*
X107498061Y-109565000D01*
X107298102Y-109604774D01*
X107109744Y-109682795D01*
X106940226Y-109796063D01*
X106796063Y-109940226D01*
X106682795Y-110109744D01*
X106604774Y-110298102D01*
X106565000Y-110498061D01*
X103660000Y-110498061D01*
X103660000Y-109118061D01*
X119785000Y-109118061D01*
X119785000Y-109321939D01*
X119824774Y-109521898D01*
X119902795Y-109710256D01*
X120016063Y-109879774D01*
X120160226Y-110023937D01*
X120329744Y-110137205D01*
X120518102Y-110215226D01*
X120718061Y-110255000D01*
X120921939Y-110255000D01*
X121121898Y-110215226D01*
X121310256Y-110137205D01*
X121479774Y-110023937D01*
X121623937Y-109879774D01*
X121737205Y-109710256D01*
X121815226Y-109521898D01*
X121855000Y-109321939D01*
X121855000Y-109118061D01*
X121815226Y-108918102D01*
X121737205Y-108729744D01*
X121623937Y-108560226D01*
X121479774Y-108416063D01*
X121310256Y-108302795D01*
X121121898Y-108224774D01*
X120921939Y-108185000D01*
X120718061Y-108185000D01*
X120518102Y-108224774D01*
X120329744Y-108302795D01*
X120160226Y-108416063D01*
X120016063Y-108560226D01*
X119902795Y-108729744D01*
X119824774Y-108918102D01*
X119785000Y-109118061D01*
X103660000Y-109118061D01*
X103660000Y-107598061D01*
X127765000Y-107598061D01*
X127765000Y-107801939D01*
X127804774Y-108001898D01*
X127882795Y-108190256D01*
X127996063Y-108359774D01*
X128140226Y-108503937D01*
X128309744Y-108617205D01*
X128498102Y-108695226D01*
X128698061Y-108735000D01*
X128901939Y-108735000D01*
X129101898Y-108695226D01*
X129290256Y-108617205D01*
X129459774Y-108503937D01*
X129465650Y-108498061D01*
X137965000Y-108498061D01*
X137965000Y-108701939D01*
X138004774Y-108901898D01*
X138082795Y-109090256D01*
X138196063Y-109259774D01*
X138340226Y-109403937D01*
X138509744Y-109517205D01*
X138698102Y-109595226D01*
X138898061Y-109635000D01*
X139101939Y-109635000D01*
X139301898Y-109595226D01*
X139490256Y-109517205D01*
X139659774Y-109403937D01*
X139803937Y-109259774D01*
X139917205Y-109090256D01*
X139995226Y-108901898D01*
X140035000Y-108701939D01*
X140035000Y-108498061D01*
X139995226Y-108298102D01*
X139917205Y-108109744D01*
X139803937Y-107940226D01*
X139659774Y-107796063D01*
X139490256Y-107682795D01*
X139301898Y-107604774D01*
X139101939Y-107565000D01*
X138898061Y-107565000D01*
X138698102Y-107604774D01*
X138509744Y-107682795D01*
X138340226Y-107796063D01*
X138196063Y-107940226D01*
X138082795Y-108109744D01*
X138004774Y-108298102D01*
X137965000Y-108498061D01*
X129465650Y-108498061D01*
X129603937Y-108359774D01*
X129717205Y-108190256D01*
X129795226Y-108001898D01*
X129835000Y-107801939D01*
X129835000Y-107598061D01*
X129795226Y-107398102D01*
X129717205Y-107209744D01*
X129603937Y-107040226D01*
X129459774Y-106896063D01*
X129290256Y-106782795D01*
X129101898Y-106704774D01*
X128901939Y-106665000D01*
X128698061Y-106665000D01*
X128498102Y-106704774D01*
X128309744Y-106782795D01*
X128140226Y-106896063D01*
X127996063Y-107040226D01*
X127882795Y-107209744D01*
X127804774Y-107398102D01*
X127765000Y-107598061D01*
X103660000Y-107598061D01*
X103660000Y-105898061D01*
X105165000Y-105898061D01*
X105165000Y-106101939D01*
X105204774Y-106301898D01*
X105282795Y-106490256D01*
X105396063Y-106659774D01*
X105540226Y-106803937D01*
X105709744Y-106917205D01*
X105898102Y-106995226D01*
X106098061Y-107035000D01*
X106301939Y-107035000D01*
X106501898Y-106995226D01*
X106690256Y-106917205D01*
X106859774Y-106803937D01*
X107003937Y-106659774D01*
X107117205Y-106490256D01*
X107195226Y-106301898D01*
X107235000Y-106101939D01*
X107235000Y-105898061D01*
X112965000Y-105898061D01*
X112965000Y-106101939D01*
X113004774Y-106301898D01*
X113082795Y-106490256D01*
X113196063Y-106659774D01*
X113340226Y-106803937D01*
X113509744Y-106917205D01*
X113698102Y-106995226D01*
X113898061Y-107035000D01*
X114101939Y-107035000D01*
X114301898Y-106995226D01*
X114490256Y-106917205D01*
X114659774Y-106803937D01*
X114803937Y-106659774D01*
X114917205Y-106490256D01*
X114995226Y-106301898D01*
X115035000Y-106101939D01*
X115035000Y-105898061D01*
X114995226Y-105698102D01*
X114917205Y-105509744D01*
X114803937Y-105340226D01*
X114659774Y-105196063D01*
X114490256Y-105082795D01*
X114301898Y-105004774D01*
X114101939Y-104965000D01*
X113898061Y-104965000D01*
X113698102Y-105004774D01*
X113509744Y-105082795D01*
X113340226Y-105196063D01*
X113196063Y-105340226D01*
X113082795Y-105509744D01*
X113004774Y-105698102D01*
X112965000Y-105898061D01*
X107235000Y-105898061D01*
X107195226Y-105698102D01*
X107117205Y-105509744D01*
X107003937Y-105340226D01*
X106859774Y-105196063D01*
X106690256Y-105082795D01*
X106501898Y-105004774D01*
X106301939Y-104965000D01*
X106098061Y-104965000D01*
X105898102Y-105004774D01*
X105709744Y-105082795D01*
X105540226Y-105196063D01*
X105396063Y-105340226D01*
X105282795Y-105509744D01*
X105204774Y-105698102D01*
X105165000Y-105898061D01*
X103660000Y-105898061D01*
X103660000Y-104098061D01*
X117965000Y-104098061D01*
X117965000Y-104301939D01*
X118004774Y-104501898D01*
X118082795Y-104690256D01*
X118196063Y-104859774D01*
X118340226Y-105003937D01*
X118509744Y-105117205D01*
X118698102Y-105195226D01*
X118722103Y-105200000D01*
X118698102Y-105204774D01*
X118509744Y-105282795D01*
X118340226Y-105396063D01*
X118196063Y-105540226D01*
X118082795Y-105709744D01*
X118004774Y-105898102D01*
X117965000Y-106098061D01*
X117965000Y-106301939D01*
X118004774Y-106501898D01*
X118082795Y-106690256D01*
X118196063Y-106859774D01*
X118340226Y-107003937D01*
X118509744Y-107117205D01*
X118698102Y-107195226D01*
X118898061Y-107235000D01*
X119101939Y-107235000D01*
X119301898Y-107195226D01*
X119490256Y-107117205D01*
X119500000Y-107110694D01*
X119509744Y-107117205D01*
X119698102Y-107195226D01*
X119898061Y-107235000D01*
X120101939Y-107235000D01*
X120301898Y-107195226D01*
X120490256Y-107117205D01*
X120659774Y-107003937D01*
X120803937Y-106859774D01*
X120917205Y-106690256D01*
X120995226Y-106501898D01*
X121035000Y-106301939D01*
X121035000Y-106098061D01*
X120995226Y-105898102D01*
X120917205Y-105709744D01*
X120803937Y-105540226D01*
X120659774Y-105396063D01*
X120513104Y-105298061D01*
X131215000Y-105298061D01*
X131215000Y-105501939D01*
X131254774Y-105701898D01*
X131332795Y-105890256D01*
X131446063Y-106059774D01*
X131590226Y-106203937D01*
X131759744Y-106317205D01*
X131948102Y-106395226D01*
X132148061Y-106435000D01*
X132351939Y-106435000D01*
X132551898Y-106395226D01*
X132740256Y-106317205D01*
X132909774Y-106203937D01*
X133053937Y-106059774D01*
X133167205Y-105890256D01*
X133245226Y-105701898D01*
X133285000Y-105501939D01*
X133285000Y-105298061D01*
X133245226Y-105098102D01*
X133167205Y-104909744D01*
X133053937Y-104740226D01*
X133011772Y-104698061D01*
X138215000Y-104698061D01*
X138215000Y-104901939D01*
X138254774Y-105101898D01*
X138332795Y-105290256D01*
X138446063Y-105459774D01*
X138590226Y-105603937D01*
X138759744Y-105717205D01*
X138948102Y-105795226D01*
X139148061Y-105835000D01*
X139351939Y-105835000D01*
X139551898Y-105795226D01*
X139740256Y-105717205D01*
X139909774Y-105603937D01*
X140053937Y-105459774D01*
X140167205Y-105290256D01*
X140245226Y-105101898D01*
X140285000Y-104901939D01*
X140285000Y-104698061D01*
X140245226Y-104498102D01*
X140167205Y-104309744D01*
X140053937Y-104140226D01*
X139909774Y-103996063D01*
X139740256Y-103882795D01*
X139551898Y-103804774D01*
X139351939Y-103765000D01*
X139148061Y-103765000D01*
X138948102Y-103804774D01*
X138759744Y-103882795D01*
X138590226Y-103996063D01*
X138446063Y-104140226D01*
X138332795Y-104309744D01*
X138254774Y-104498102D01*
X138215000Y-104698061D01*
X133011772Y-104698061D01*
X132909774Y-104596063D01*
X132740256Y-104482795D01*
X132551898Y-104404774D01*
X132351939Y-104365000D01*
X132148061Y-104365000D01*
X131948102Y-104404774D01*
X131759744Y-104482795D01*
X131590226Y-104596063D01*
X131446063Y-104740226D01*
X131332795Y-104909744D01*
X131254774Y-105098102D01*
X131215000Y-105298061D01*
X120513104Y-105298061D01*
X120490256Y-105282795D01*
X120301898Y-105204774D01*
X120101939Y-105165000D01*
X119898061Y-105165000D01*
X119698102Y-105204774D01*
X119509744Y-105282795D01*
X119500000Y-105289306D01*
X119490256Y-105282795D01*
X119301898Y-105204774D01*
X119277897Y-105200000D01*
X119301898Y-105195226D01*
X119490256Y-105117205D01*
X119659774Y-105003937D01*
X119803937Y-104859774D01*
X119917205Y-104690256D01*
X119995226Y-104501898D01*
X120035000Y-104301939D01*
X120035000Y-104098061D01*
X119995226Y-103898102D01*
X119917205Y-103709744D01*
X119803937Y-103540226D01*
X119659774Y-103396063D01*
X119490256Y-103282795D01*
X119301898Y-103204774D01*
X119101939Y-103165000D01*
X118898061Y-103165000D01*
X118698102Y-103204774D01*
X118509744Y-103282795D01*
X118340226Y-103396063D01*
X118196063Y-103540226D01*
X118082795Y-103709744D01*
X118004774Y-103898102D01*
X117965000Y-104098061D01*
X103660000Y-104098061D01*
X103660000Y-103098061D01*
X125265000Y-103098061D01*
X125265000Y-103301939D01*
X125304774Y-103501898D01*
X125382795Y-103690256D01*
X125496063Y-103859774D01*
X125640226Y-104003937D01*
X125809744Y-104117205D01*
X125998102Y-104195226D01*
X126198061Y-104235000D01*
X126401939Y-104235000D01*
X126601898Y-104195226D01*
X126790256Y-104117205D01*
X126959774Y-104003937D01*
X127103937Y-103859774D01*
X127217205Y-103690256D01*
X127295226Y-103501898D01*
X127335000Y-103301939D01*
X127335000Y-103173061D01*
X143865000Y-103173061D01*
X143865000Y-103376939D01*
X143904774Y-103576898D01*
X143982795Y-103765256D01*
X144096063Y-103934774D01*
X144240226Y-104078937D01*
X144409744Y-104192205D01*
X144598102Y-104270226D01*
X144798061Y-104310000D01*
X145001939Y-104310000D01*
X145201898Y-104270226D01*
X145390256Y-104192205D01*
X145559774Y-104078937D01*
X145703937Y-103934774D01*
X145817205Y-103765256D01*
X145895226Y-103576898D01*
X145935000Y-103376939D01*
X145935000Y-103173061D01*
X145905164Y-103023061D01*
X151390000Y-103023061D01*
X151390000Y-103226939D01*
X151429774Y-103426898D01*
X151507795Y-103615256D01*
X151621063Y-103784774D01*
X151765226Y-103928937D01*
X151934744Y-104042205D01*
X152123102Y-104120226D01*
X152323061Y-104160000D01*
X152526939Y-104160000D01*
X152726898Y-104120226D01*
X152915256Y-104042205D01*
X153084774Y-103928937D01*
X153228937Y-103784774D01*
X153342205Y-103615256D01*
X153420226Y-103426898D01*
X153460000Y-103226939D01*
X153460000Y-103023061D01*
X153420226Y-102823102D01*
X153342205Y-102634744D01*
X153228937Y-102465226D01*
X153084774Y-102321063D01*
X152915256Y-102207795D01*
X152726898Y-102129774D01*
X152526939Y-102090000D01*
X152323061Y-102090000D01*
X152123102Y-102129774D01*
X151934744Y-102207795D01*
X151765226Y-102321063D01*
X151621063Y-102465226D01*
X151507795Y-102634744D01*
X151429774Y-102823102D01*
X151390000Y-103023061D01*
X145905164Y-103023061D01*
X145895226Y-102973102D01*
X145817205Y-102784744D01*
X145703937Y-102615226D01*
X145559774Y-102471063D01*
X145390256Y-102357795D01*
X145201898Y-102279774D01*
X145001939Y-102240000D01*
X144798061Y-102240000D01*
X144598102Y-102279774D01*
X144409744Y-102357795D01*
X144240226Y-102471063D01*
X144096063Y-102615226D01*
X143982795Y-102784744D01*
X143904774Y-102973102D01*
X143865000Y-103173061D01*
X127335000Y-103173061D01*
X127335000Y-103098061D01*
X127295226Y-102898102D01*
X127217205Y-102709744D01*
X127103937Y-102540226D01*
X126959774Y-102396063D01*
X126790256Y-102282795D01*
X126601898Y-102204774D01*
X126401939Y-102165000D01*
X126198061Y-102165000D01*
X125998102Y-102204774D01*
X125809744Y-102282795D01*
X125640226Y-102396063D01*
X125496063Y-102540226D01*
X125382795Y-102709744D01*
X125304774Y-102898102D01*
X125265000Y-103098061D01*
X103660000Y-103098061D01*
X103660000Y-100298061D01*
X104965000Y-100298061D01*
X104965000Y-100501939D01*
X105004774Y-100701898D01*
X105082795Y-100890256D01*
X105196063Y-101059774D01*
X105340226Y-101203937D01*
X105509744Y-101317205D01*
X105698102Y-101395226D01*
X105898061Y-101435000D01*
X106101939Y-101435000D01*
X106301898Y-101395226D01*
X106490256Y-101317205D01*
X106659774Y-101203937D01*
X106803937Y-101059774D01*
X106917205Y-100890256D01*
X106995226Y-100701898D01*
X107035000Y-100501939D01*
X107035000Y-100298061D01*
X106995226Y-100098102D01*
X106917205Y-99909744D01*
X106803937Y-99740226D01*
X106659774Y-99596063D01*
X106490256Y-99482795D01*
X106301898Y-99404774D01*
X106101939Y-99365000D01*
X105898061Y-99365000D01*
X105698102Y-99404774D01*
X105509744Y-99482795D01*
X105340226Y-99596063D01*
X105196063Y-99740226D01*
X105082795Y-99909744D01*
X105004774Y-100098102D01*
X104965000Y-100298061D01*
X103660000Y-100298061D01*
X103660000Y-99050000D01*
X108536928Y-99050000D01*
X108536928Y-100750000D01*
X108549188Y-100874482D01*
X108585498Y-100994180D01*
X108644463Y-101104494D01*
X108723815Y-101201185D01*
X108820506Y-101280537D01*
X108930820Y-101339502D01*
X109050518Y-101375812D01*
X109175000Y-101388072D01*
X110875000Y-101388072D01*
X110999482Y-101375812D01*
X111119180Y-101339502D01*
X111229494Y-101280537D01*
X111326185Y-101201185D01*
X111405537Y-101104494D01*
X111464502Y-100994180D01*
X111486513Y-100921620D01*
X111607285Y-101042392D01*
X111509744Y-101082795D01*
X111340226Y-101196063D01*
X111196063Y-101340226D01*
X111082795Y-101509744D01*
X111004774Y-101698102D01*
X110965000Y-101898061D01*
X110965000Y-102101939D01*
X111004774Y-102301898D01*
X111082795Y-102490256D01*
X111196063Y-102659774D01*
X111340226Y-102803937D01*
X111509744Y-102917205D01*
X111698102Y-102995226D01*
X111898061Y-103035000D01*
X112101939Y-103035000D01*
X112301898Y-102995226D01*
X112490256Y-102917205D01*
X112659774Y-102803937D01*
X112803937Y-102659774D01*
X112917205Y-102490256D01*
X112995226Y-102301898D01*
X113035000Y-102101939D01*
X113035000Y-101898061D01*
X112995226Y-101698102D01*
X112917205Y-101509744D01*
X112819472Y-101363475D01*
X112998158Y-101327932D01*
X113268411Y-101215990D01*
X113511632Y-101053475D01*
X113718475Y-100846632D01*
X113835000Y-100672240D01*
X113951525Y-100846632D01*
X114158368Y-101053475D01*
X114401589Y-101215990D01*
X114671842Y-101327932D01*
X114958740Y-101385000D01*
X115251260Y-101385000D01*
X115538158Y-101327932D01*
X115808411Y-101215990D01*
X116051632Y-101053475D01*
X116258475Y-100846632D01*
X116380195Y-100664466D01*
X116449822Y-100781355D01*
X116644731Y-100997588D01*
X116878080Y-101171641D01*
X117140901Y-101296825D01*
X117288110Y-101341476D01*
X117518000Y-101220155D01*
X117518000Y-100027000D01*
X117772000Y-100027000D01*
X117772000Y-101220155D01*
X118001890Y-101341476D01*
X118149099Y-101296825D01*
X118411920Y-101171641D01*
X118645269Y-100997588D01*
X118840178Y-100781355D01*
X118989157Y-100531252D01*
X119086481Y-100256891D01*
X118965814Y-100027000D01*
X117772000Y-100027000D01*
X117518000Y-100027000D01*
X117498000Y-100027000D01*
X117498000Y-99773000D01*
X117518000Y-99773000D01*
X117518000Y-98579845D01*
X117772000Y-98579845D01*
X117772000Y-99773000D01*
X118965814Y-99773000D01*
X119057637Y-99598061D01*
X119265000Y-99598061D01*
X119265000Y-99801939D01*
X119304774Y-100001898D01*
X119382795Y-100190256D01*
X119496063Y-100359774D01*
X119640226Y-100503937D01*
X119809744Y-100617205D01*
X119998102Y-100695226D01*
X120198061Y-100735000D01*
X120401939Y-100735000D01*
X120601898Y-100695226D01*
X120790256Y-100617205D01*
X120893737Y-100548061D01*
X126365000Y-100548061D01*
X126365000Y-100751939D01*
X126404774Y-100951898D01*
X126482795Y-101140256D01*
X126596063Y-101309774D01*
X126740226Y-101453937D01*
X126909744Y-101567205D01*
X127098102Y-101645226D01*
X127298061Y-101685000D01*
X127501939Y-101685000D01*
X127701898Y-101645226D01*
X127890256Y-101567205D01*
X128059774Y-101453937D01*
X128203937Y-101309774D01*
X128245172Y-101248061D01*
X134565000Y-101248061D01*
X134565000Y-101451939D01*
X134604774Y-101651898D01*
X134682795Y-101840256D01*
X134796063Y-102009774D01*
X134940226Y-102153937D01*
X135109744Y-102267205D01*
X135298102Y-102345226D01*
X135498061Y-102385000D01*
X135701939Y-102385000D01*
X135901898Y-102345226D01*
X136090256Y-102267205D01*
X136259774Y-102153937D01*
X136403937Y-102009774D01*
X136517205Y-101840256D01*
X136595226Y-101651898D01*
X136635000Y-101451939D01*
X136635000Y-101248061D01*
X136595226Y-101048102D01*
X136517205Y-100859744D01*
X136403937Y-100690226D01*
X136259774Y-100546063D01*
X136090256Y-100432795D01*
X135901898Y-100354774D01*
X135701939Y-100315000D01*
X135498061Y-100315000D01*
X135298102Y-100354774D01*
X135109744Y-100432795D01*
X134940226Y-100546063D01*
X134796063Y-100690226D01*
X134682795Y-100859744D01*
X134604774Y-101048102D01*
X134565000Y-101248061D01*
X128245172Y-101248061D01*
X128317205Y-101140256D01*
X128395226Y-100951898D01*
X128435000Y-100751939D01*
X128435000Y-100548061D01*
X128395226Y-100348102D01*
X128333077Y-100198061D01*
X138765000Y-100198061D01*
X138765000Y-100401939D01*
X138804774Y-100601898D01*
X138882795Y-100790256D01*
X138996063Y-100959774D01*
X139140226Y-101103937D01*
X139309744Y-101217205D01*
X139498102Y-101295226D01*
X139698061Y-101335000D01*
X139901939Y-101335000D01*
X140101898Y-101295226D01*
X140290256Y-101217205D01*
X140459774Y-101103937D01*
X140603937Y-100959774D01*
X140717205Y-100790256D01*
X140755393Y-100698061D01*
X146865000Y-100698061D01*
X146865000Y-100901939D01*
X146904774Y-101101898D01*
X146982795Y-101290256D01*
X147096063Y-101459774D01*
X147240226Y-101603937D01*
X147409744Y-101717205D01*
X147598102Y-101795226D01*
X147798061Y-101835000D01*
X148001939Y-101835000D01*
X148201898Y-101795226D01*
X148390256Y-101717205D01*
X148559774Y-101603937D01*
X148703937Y-101459774D01*
X148817205Y-101290256D01*
X148895226Y-101101898D01*
X148935000Y-100901939D01*
X148935000Y-100698061D01*
X148895226Y-100498102D01*
X148884854Y-100473061D01*
X151415000Y-100473061D01*
X151415000Y-100676939D01*
X151454774Y-100876898D01*
X151532795Y-101065256D01*
X151646063Y-101234774D01*
X151790226Y-101378937D01*
X151959744Y-101492205D01*
X152148102Y-101570226D01*
X152348061Y-101610000D01*
X152551939Y-101610000D01*
X152751898Y-101570226D01*
X152940256Y-101492205D01*
X153109774Y-101378937D01*
X153253937Y-101234774D01*
X153367205Y-101065256D01*
X153445226Y-100876898D01*
X153485000Y-100676939D01*
X153485000Y-100473061D01*
X153445226Y-100273102D01*
X153367205Y-100084744D01*
X153253937Y-99915226D01*
X153109774Y-99771063D01*
X152940256Y-99657795D01*
X152751898Y-99579774D01*
X152551939Y-99540000D01*
X152348061Y-99540000D01*
X152148102Y-99579774D01*
X151959744Y-99657795D01*
X151790226Y-99771063D01*
X151646063Y-99915226D01*
X151532795Y-100084744D01*
X151454774Y-100273102D01*
X151415000Y-100473061D01*
X148884854Y-100473061D01*
X148817205Y-100309744D01*
X148703937Y-100140226D01*
X148559774Y-99996063D01*
X148390256Y-99882795D01*
X148201898Y-99804774D01*
X148001939Y-99765000D01*
X147798061Y-99765000D01*
X147598102Y-99804774D01*
X147409744Y-99882795D01*
X147240226Y-99996063D01*
X147096063Y-100140226D01*
X146982795Y-100309744D01*
X146904774Y-100498102D01*
X146865000Y-100698061D01*
X140755393Y-100698061D01*
X140795226Y-100601898D01*
X140835000Y-100401939D01*
X140835000Y-100198061D01*
X140795226Y-99998102D01*
X140717205Y-99809744D01*
X140603937Y-99640226D01*
X140459774Y-99496063D01*
X140290256Y-99382795D01*
X140101898Y-99304774D01*
X139901939Y-99265000D01*
X139698061Y-99265000D01*
X139498102Y-99304774D01*
X139309744Y-99382795D01*
X139140226Y-99496063D01*
X138996063Y-99640226D01*
X138882795Y-99809744D01*
X138804774Y-99998102D01*
X138765000Y-100198061D01*
X128333077Y-100198061D01*
X128317205Y-100159744D01*
X128203937Y-99990226D01*
X128059774Y-99846063D01*
X127890256Y-99732795D01*
X127701898Y-99654774D01*
X127501939Y-99615000D01*
X127298061Y-99615000D01*
X127098102Y-99654774D01*
X126909744Y-99732795D01*
X126740226Y-99846063D01*
X126596063Y-99990226D01*
X126482795Y-100159744D01*
X126404774Y-100348102D01*
X126365000Y-100548061D01*
X120893737Y-100548061D01*
X120959774Y-100503937D01*
X121103937Y-100359774D01*
X121217205Y-100190256D01*
X121295226Y-100001898D01*
X121335000Y-99801939D01*
X121335000Y-99598061D01*
X121295226Y-99398102D01*
X121217205Y-99209744D01*
X121103937Y-99040226D01*
X120959774Y-98896063D01*
X120790256Y-98782795D01*
X120601898Y-98704774D01*
X120401939Y-98665000D01*
X120198061Y-98665000D01*
X119998102Y-98704774D01*
X119809744Y-98782795D01*
X119640226Y-98896063D01*
X119496063Y-99040226D01*
X119382795Y-99209744D01*
X119304774Y-99398102D01*
X119265000Y-99598061D01*
X119057637Y-99598061D01*
X119086481Y-99543109D01*
X118989157Y-99268748D01*
X118840178Y-99018645D01*
X118645269Y-98802412D01*
X118411920Y-98628359D01*
X118149099Y-98503175D01*
X118001890Y-98458524D01*
X117772000Y-98579845D01*
X117518000Y-98579845D01*
X117288110Y-98458524D01*
X117140901Y-98503175D01*
X116878080Y-98628359D01*
X116644731Y-98802412D01*
X116449822Y-99018645D01*
X116380195Y-99135534D01*
X116258475Y-98953368D01*
X116051632Y-98746525D01*
X115808411Y-98584010D01*
X115538158Y-98472068D01*
X115251260Y-98415000D01*
X114958740Y-98415000D01*
X114671842Y-98472068D01*
X114401589Y-98584010D01*
X114158368Y-98746525D01*
X113951525Y-98953368D01*
X113835000Y-99127760D01*
X113718475Y-98953368D01*
X113511632Y-98746525D01*
X113268411Y-98584010D01*
X112998158Y-98472068D01*
X112711260Y-98415000D01*
X112418740Y-98415000D01*
X112131842Y-98472068D01*
X111861589Y-98584010D01*
X111618368Y-98746525D01*
X111486513Y-98878380D01*
X111464502Y-98805820D01*
X111405537Y-98695506D01*
X111326185Y-98598815D01*
X111229494Y-98519463D01*
X111119180Y-98460498D01*
X110999482Y-98424188D01*
X110875000Y-98411928D01*
X109175000Y-98411928D01*
X109050518Y-98424188D01*
X108930820Y-98460498D01*
X108820506Y-98519463D01*
X108723815Y-98598815D01*
X108644463Y-98695506D01*
X108585498Y-98805820D01*
X108549188Y-98925518D01*
X108536928Y-99050000D01*
X103660000Y-99050000D01*
X103660000Y-98127000D01*
X107524961Y-98127000D01*
X107549737Y-98124560D01*
X107573562Y-98117333D01*
X107595518Y-98105597D01*
X107614764Y-98089803D01*
X107625187Y-98077101D01*
X156340001Y-98126333D01*
%TA.AperFunction,Conductor*%
D20*
G36*
X156340001Y-98126333D02*
G01*
X156340000Y-114576289D01*
X156334774Y-114571063D01*
X156165256Y-114457795D01*
X155976898Y-114379774D01*
X155776939Y-114340000D01*
X155573061Y-114340000D01*
X155373102Y-114379774D01*
X155184744Y-114457795D01*
X155015226Y-114571063D01*
X154871063Y-114715226D01*
X154757795Y-114884744D01*
X154679774Y-115073102D01*
X154647571Y-115235000D01*
X154618061Y-115235000D01*
X154418102Y-115274774D01*
X154229744Y-115352795D01*
X154060226Y-115466063D01*
X153916063Y-115610226D01*
X153802795Y-115779744D01*
X153724774Y-115968102D01*
X153685000Y-116168061D01*
X153685000Y-116371939D01*
X153724774Y-116571898D01*
X153802795Y-116760256D01*
X153916063Y-116929774D01*
X154060226Y-117073937D01*
X154229744Y-117187205D01*
X154418102Y-117265226D01*
X154618061Y-117305000D01*
X154821939Y-117305000D01*
X155021898Y-117265226D01*
X155210256Y-117187205D01*
X155379774Y-117073937D01*
X155523937Y-116929774D01*
X155637205Y-116760256D01*
X155715226Y-116571898D01*
X155747429Y-116410000D01*
X155776939Y-116410000D01*
X155976898Y-116370226D01*
X156165256Y-116292205D01*
X156334774Y-116178937D01*
X156340000Y-116173711D01*
X156340000Y-129264098D01*
X156288601Y-129187174D01*
X155872826Y-128771399D01*
X155383928Y-128444727D01*
X154840692Y-128219712D01*
X154263997Y-128105000D01*
X153676003Y-128105000D01*
X153099308Y-128219712D01*
X152556072Y-128444727D01*
X152067174Y-128771399D01*
X151651399Y-129187174D01*
X151324727Y-129676072D01*
X151099712Y-130219308D01*
X150985000Y-130796003D01*
X150985000Y-131383997D01*
X151099712Y-131960692D01*
X151324727Y-132503928D01*
X151651399Y-132992826D01*
X151998573Y-133340000D01*
X107870800Y-133340000D01*
X107902826Y-133318601D01*
X108318601Y-132902826D01*
X108645273Y-132413928D01*
X108870288Y-131870692D01*
X108985000Y-131293997D01*
X108985000Y-130898061D01*
X110365000Y-130898061D01*
X110365000Y-131101939D01*
X110404774Y-131301898D01*
X110482795Y-131490256D01*
X110596063Y-131659774D01*
X110740226Y-131803937D01*
X110909744Y-131917205D01*
X111098102Y-131995226D01*
X111298061Y-132035000D01*
X111501939Y-132035000D01*
X111701898Y-131995226D01*
X111890256Y-131917205D01*
X112059774Y-131803937D01*
X112203937Y-131659774D01*
X112317205Y-131490256D01*
X112395226Y-131301898D01*
X112399847Y-131278665D01*
X124805000Y-131278665D01*
X124805000Y-131561335D01*
X124860147Y-131838574D01*
X124968320Y-132099727D01*
X125125363Y-132334759D01*
X125325241Y-132534637D01*
X125560273Y-132691680D01*
X125821426Y-132799853D01*
X126098665Y-132855000D01*
X126381335Y-132855000D01*
X126658574Y-132799853D01*
X126919727Y-132691680D01*
X127154759Y-132534637D01*
X127354637Y-132334759D01*
X127511680Y-132099727D01*
X127619853Y-131838574D01*
X127675000Y-131561335D01*
X127675000Y-131488061D01*
X132205000Y-131488061D01*
X132205000Y-131691939D01*
X132244774Y-131891898D01*
X132322795Y-132080256D01*
X132436063Y-132249774D01*
X132580226Y-132393937D01*
X132749744Y-132507205D01*
X132938102Y-132585226D01*
X133138061Y-132625000D01*
X133341939Y-132625000D01*
X133541898Y-132585226D01*
X133730256Y-132507205D01*
X133899774Y-132393937D01*
X134043937Y-132249774D01*
X134157205Y-132080256D01*
X134235226Y-131891898D01*
X134275000Y-131691939D01*
X134275000Y-131488061D01*
X134235226Y-131288102D01*
X134189646Y-131178061D01*
X138585000Y-131178061D01*
X138585000Y-131381939D01*
X138624774Y-131581898D01*
X138702795Y-131770256D01*
X138816063Y-131939774D01*
X138960226Y-132083937D01*
X139129744Y-132197205D01*
X139318102Y-132275226D01*
X139518061Y-132315000D01*
X139721939Y-132315000D01*
X139921898Y-132275226D01*
X140110256Y-132197205D01*
X140279774Y-132083937D01*
X140423937Y-131939774D01*
X140537205Y-131770256D01*
X140615226Y-131581898D01*
X140655000Y-131381939D01*
X140655000Y-131278665D01*
X145125000Y-131278665D01*
X145125000Y-131561335D01*
X145180147Y-131838574D01*
X145288320Y-132099727D01*
X145445363Y-132334759D01*
X145645241Y-132534637D01*
X145880273Y-132691680D01*
X146141426Y-132799853D01*
X146418665Y-132855000D01*
X146701335Y-132855000D01*
X146978574Y-132799853D01*
X147239727Y-132691680D01*
X147474759Y-132534637D01*
X147674637Y-132334759D01*
X147831680Y-132099727D01*
X147939853Y-131838574D01*
X147995000Y-131561335D01*
X147995000Y-131278665D01*
X147969021Y-131148061D01*
X148755000Y-131148061D01*
X148755000Y-131351939D01*
X148794774Y-131551898D01*
X148872795Y-131740256D01*
X148986063Y-131909774D01*
X149130226Y-132053937D01*
X149299744Y-132167205D01*
X149488102Y-132245226D01*
X149688061Y-132285000D01*
X149891939Y-132285000D01*
X150091898Y-132245226D01*
X150280256Y-132167205D01*
X150449774Y-132053937D01*
X150593937Y-131909774D01*
X150707205Y-131740256D01*
X150785226Y-131551898D01*
X150825000Y-131351939D01*
X150825000Y-131148061D01*
X150785226Y-130948102D01*
X150707205Y-130759744D01*
X150593937Y-130590226D01*
X150449774Y-130446063D01*
X150280256Y-130332795D01*
X150091898Y-130254774D01*
X149891939Y-130215000D01*
X149688061Y-130215000D01*
X149488102Y-130254774D01*
X149299744Y-130332795D01*
X149130226Y-130446063D01*
X148986063Y-130590226D01*
X148872795Y-130759744D01*
X148794774Y-130948102D01*
X148755000Y-131148061D01*
X147969021Y-131148061D01*
X147939853Y-131001426D01*
X147831680Y-130740273D01*
X147674637Y-130505241D01*
X147474759Y-130305363D01*
X147239727Y-130148320D01*
X146978574Y-130040147D01*
X146701335Y-129985000D01*
X146418665Y-129985000D01*
X146141426Y-130040147D01*
X145880273Y-130148320D01*
X145645241Y-130305363D01*
X145445363Y-130505241D01*
X145288320Y-130740273D01*
X145180147Y-131001426D01*
X145125000Y-131278665D01*
X140655000Y-131278665D01*
X140655000Y-131178061D01*
X140615226Y-130978102D01*
X140537205Y-130789744D01*
X140423937Y-130620226D01*
X140279774Y-130476063D01*
X140110256Y-130362795D01*
X139921898Y-130284774D01*
X139721939Y-130245000D01*
X139518061Y-130245000D01*
X139318102Y-130284774D01*
X139129744Y-130362795D01*
X138960226Y-130476063D01*
X138816063Y-130620226D01*
X138702795Y-130789744D01*
X138624774Y-130978102D01*
X138585000Y-131178061D01*
X134189646Y-131178061D01*
X134157205Y-131099744D01*
X134043937Y-130930226D01*
X133899774Y-130786063D01*
X133730256Y-130672795D01*
X133541898Y-130594774D01*
X133341939Y-130555000D01*
X133138061Y-130555000D01*
X132938102Y-130594774D01*
X132749744Y-130672795D01*
X132580226Y-130786063D01*
X132436063Y-130930226D01*
X132322795Y-131099744D01*
X132244774Y-131288102D01*
X132205000Y-131488061D01*
X127675000Y-131488061D01*
X127675000Y-131278665D01*
X127619853Y-131001426D01*
X127511680Y-130740273D01*
X127354637Y-130505241D01*
X127154759Y-130305363D01*
X126919727Y-130148320D01*
X126658574Y-130040147D01*
X126381335Y-129985000D01*
X126098665Y-129985000D01*
X125821426Y-130040147D01*
X125560273Y-130148320D01*
X125325241Y-130305363D01*
X125125363Y-130505241D01*
X124968320Y-130740273D01*
X124860147Y-131001426D01*
X124805000Y-131278665D01*
X112399847Y-131278665D01*
X112435000Y-131101939D01*
X112435000Y-130898061D01*
X112395226Y-130698102D01*
X112317205Y-130509744D01*
X112203937Y-130340226D01*
X112059774Y-130196063D01*
X111890256Y-130082795D01*
X111701898Y-130004774D01*
X111501939Y-129965000D01*
X111298061Y-129965000D01*
X111098102Y-130004774D01*
X110909744Y-130082795D01*
X110740226Y-130196063D01*
X110596063Y-130340226D01*
X110482795Y-130509744D01*
X110404774Y-130698102D01*
X110365000Y-130898061D01*
X108985000Y-130898061D01*
X108985000Y-130706003D01*
X108870288Y-130129308D01*
X108645273Y-129586072D01*
X108318601Y-129097174D01*
X108289488Y-129068061D01*
X122265000Y-129068061D01*
X122265000Y-129271939D01*
X122304774Y-129471898D01*
X122382795Y-129660256D01*
X122496063Y-129829774D01*
X122640226Y-129973937D01*
X122809744Y-130087205D01*
X122998102Y-130165226D01*
X123198061Y-130205000D01*
X123401939Y-130205000D01*
X123601898Y-130165226D01*
X123790256Y-130087205D01*
X123959774Y-129973937D01*
X124103937Y-129829774D01*
X124217205Y-129660256D01*
X124284388Y-129498061D01*
X141165000Y-129498061D01*
X141165000Y-129701939D01*
X141204774Y-129901898D01*
X141282795Y-130090256D01*
X141396063Y-130259774D01*
X141540226Y-130403937D01*
X141709744Y-130517205D01*
X141898102Y-130595226D01*
X142098061Y-130635000D01*
X142301939Y-130635000D01*
X142501898Y-130595226D01*
X142690256Y-130517205D01*
X142859774Y-130403937D01*
X143003937Y-130259774D01*
X143117205Y-130090256D01*
X143195226Y-129901898D01*
X143235000Y-129701939D01*
X143235000Y-129498061D01*
X143195226Y-129298102D01*
X143117205Y-129109744D01*
X143003937Y-128940226D01*
X142859774Y-128796063D01*
X142690256Y-128682795D01*
X142501898Y-128604774D01*
X142301939Y-128565000D01*
X142098061Y-128565000D01*
X141898102Y-128604774D01*
X141709744Y-128682795D01*
X141540226Y-128796063D01*
X141396063Y-128940226D01*
X141282795Y-129109744D01*
X141204774Y-129298102D01*
X141165000Y-129498061D01*
X124284388Y-129498061D01*
X124295226Y-129471898D01*
X124335000Y-129271939D01*
X124335000Y-129068061D01*
X124295226Y-128868102D01*
X124217205Y-128679744D01*
X124103937Y-128510226D01*
X123959774Y-128366063D01*
X123790256Y-128252795D01*
X123601898Y-128174774D01*
X123401939Y-128135000D01*
X123198061Y-128135000D01*
X122998102Y-128174774D01*
X122809744Y-128252795D01*
X122640226Y-128366063D01*
X122496063Y-128510226D01*
X122382795Y-128679744D01*
X122304774Y-128868102D01*
X122265000Y-129068061D01*
X108289488Y-129068061D01*
X107902826Y-128681399D01*
X107413928Y-128354727D01*
X106870692Y-128129712D01*
X106293997Y-128015000D01*
X105706003Y-128015000D01*
X105129308Y-128129712D01*
X104586072Y-128354727D01*
X104097174Y-128681399D01*
X103681399Y-129097174D01*
X103660000Y-129129200D01*
X103660000Y-127098061D01*
X112165000Y-127098061D01*
X112165000Y-127301939D01*
X112204774Y-127501898D01*
X112282795Y-127690256D01*
X112396063Y-127859774D01*
X112540226Y-128003937D01*
X112709744Y-128117205D01*
X112898102Y-128195226D01*
X113098061Y-128235000D01*
X113301939Y-128235000D01*
X113501898Y-128195226D01*
X113690256Y-128117205D01*
X113859774Y-128003937D01*
X114003937Y-127859774D01*
X114117205Y-127690256D01*
X114195226Y-127501898D01*
X114235000Y-127301939D01*
X114235000Y-127298061D01*
X124765000Y-127298061D01*
X124765000Y-127501939D01*
X124804774Y-127701898D01*
X124882795Y-127890256D01*
X124996063Y-128059774D01*
X125140226Y-128203937D01*
X125309744Y-128317205D01*
X125498102Y-128395226D01*
X125698061Y-128435000D01*
X125901939Y-128435000D01*
X126101898Y-128395226D01*
X126290256Y-128317205D01*
X126459774Y-128203937D01*
X126603937Y-128059774D01*
X126717205Y-127890256D01*
X126795226Y-127701898D01*
X126835000Y-127501939D01*
X126835000Y-127298061D01*
X126795226Y-127098102D01*
X126717205Y-126909744D01*
X126603937Y-126740226D01*
X126459774Y-126596063D01*
X126290256Y-126482795D01*
X126101898Y-126404774D01*
X125901939Y-126365000D01*
X125698061Y-126365000D01*
X125498102Y-126404774D01*
X125309744Y-126482795D01*
X125140226Y-126596063D01*
X124996063Y-126740226D01*
X124882795Y-126909744D01*
X124804774Y-127098102D01*
X124765000Y-127298061D01*
X114235000Y-127298061D01*
X114235000Y-127098061D01*
X114195226Y-126898102D01*
X114117205Y-126709744D01*
X114003937Y-126540226D01*
X113859774Y-126396063D01*
X113690256Y-126282795D01*
X113501898Y-126204774D01*
X113301939Y-126165000D01*
X113098061Y-126165000D01*
X112898102Y-126204774D01*
X112709744Y-126282795D01*
X112540226Y-126396063D01*
X112396063Y-126540226D01*
X112282795Y-126709744D01*
X112204774Y-126898102D01*
X112165000Y-127098061D01*
X103660000Y-127098061D01*
X103660000Y-125698061D01*
X119165000Y-125698061D01*
X119165000Y-125901939D01*
X119204774Y-126101898D01*
X119282795Y-126290256D01*
X119396063Y-126459774D01*
X119540226Y-126603937D01*
X119709744Y-126717205D01*
X119898102Y-126795226D01*
X120098061Y-126835000D01*
X120301939Y-126835000D01*
X120501898Y-126795226D01*
X120690256Y-126717205D01*
X120859774Y-126603937D01*
X121003937Y-126459774D01*
X121111989Y-126298061D01*
X128365000Y-126298061D01*
X128365000Y-126501939D01*
X128404774Y-126701898D01*
X128482795Y-126890256D01*
X128596063Y-127059774D01*
X128740226Y-127203937D01*
X128909744Y-127317205D01*
X129098102Y-127395226D01*
X129298061Y-127435000D01*
X129501939Y-127435000D01*
X129701898Y-127395226D01*
X129890256Y-127317205D01*
X130059774Y-127203937D01*
X130203937Y-127059774D01*
X130317205Y-126890256D01*
X130395226Y-126701898D01*
X130435000Y-126501939D01*
X130435000Y-126298061D01*
X134165000Y-126298061D01*
X134165000Y-126501939D01*
X134204774Y-126701898D01*
X134282795Y-126890256D01*
X134396063Y-127059774D01*
X134540226Y-127203937D01*
X134709744Y-127317205D01*
X134898102Y-127395226D01*
X135098061Y-127435000D01*
X135301939Y-127435000D01*
X135501898Y-127395226D01*
X135690256Y-127317205D01*
X135859774Y-127203937D01*
X136003937Y-127059774D01*
X136117205Y-126890256D01*
X136195226Y-126701898D01*
X136235000Y-126501939D01*
X136235000Y-126298061D01*
X136229033Y-126268061D01*
X138995000Y-126268061D01*
X138995000Y-126471939D01*
X139034774Y-126671898D01*
X139112795Y-126860256D01*
X139226063Y-127029774D01*
X139370226Y-127173937D01*
X139539744Y-127287205D01*
X139728102Y-127365226D01*
X139928061Y-127405000D01*
X140131939Y-127405000D01*
X140331898Y-127365226D01*
X140520256Y-127287205D01*
X140689774Y-127173937D01*
X140833937Y-127029774D01*
X140947205Y-126860256D01*
X140956398Y-126838061D01*
X145765000Y-126838061D01*
X145765000Y-127041939D01*
X145804774Y-127241898D01*
X145882795Y-127430256D01*
X145996063Y-127599774D01*
X146140226Y-127743937D01*
X146309744Y-127857205D01*
X146498102Y-127935226D01*
X146698061Y-127975000D01*
X146901939Y-127975000D01*
X147101898Y-127935226D01*
X147290256Y-127857205D01*
X147459774Y-127743937D01*
X147603937Y-127599774D01*
X147717205Y-127430256D01*
X147795226Y-127241898D01*
X147835000Y-127041939D01*
X147835000Y-126838061D01*
X147795226Y-126638102D01*
X147717205Y-126449744D01*
X147603937Y-126280226D01*
X147459774Y-126136063D01*
X147290256Y-126022795D01*
X147101898Y-125944774D01*
X146901939Y-125905000D01*
X146698061Y-125905000D01*
X146498102Y-125944774D01*
X146309744Y-126022795D01*
X146140226Y-126136063D01*
X145996063Y-126280226D01*
X145882795Y-126449744D01*
X145804774Y-126638102D01*
X145765000Y-126838061D01*
X140956398Y-126838061D01*
X141025226Y-126671898D01*
X141065000Y-126471939D01*
X141065000Y-126268061D01*
X141025226Y-126068102D01*
X140947205Y-125879744D01*
X140833937Y-125710226D01*
X140689774Y-125566063D01*
X140520256Y-125452795D01*
X140331898Y-125374774D01*
X140131939Y-125335000D01*
X139928061Y-125335000D01*
X139728102Y-125374774D01*
X139539744Y-125452795D01*
X139370226Y-125566063D01*
X139226063Y-125710226D01*
X139112795Y-125879744D01*
X139034774Y-126068102D01*
X138995000Y-126268061D01*
X136229033Y-126268061D01*
X136195226Y-126098102D01*
X136117205Y-125909744D01*
X136003937Y-125740226D01*
X135859774Y-125596063D01*
X135690256Y-125482795D01*
X135501898Y-125404774D01*
X135301939Y-125365000D01*
X135098061Y-125365000D01*
X134898102Y-125404774D01*
X134709744Y-125482795D01*
X134540226Y-125596063D01*
X134396063Y-125740226D01*
X134282795Y-125909744D01*
X134204774Y-126098102D01*
X134165000Y-126298061D01*
X130435000Y-126298061D01*
X130395226Y-126098102D01*
X130317205Y-125909744D01*
X130203937Y-125740226D01*
X130059774Y-125596063D01*
X129890256Y-125482795D01*
X129701898Y-125404774D01*
X129501939Y-125365000D01*
X129298061Y-125365000D01*
X129098102Y-125404774D01*
X128909744Y-125482795D01*
X128740226Y-125596063D01*
X128596063Y-125740226D01*
X128482795Y-125909744D01*
X128404774Y-126098102D01*
X128365000Y-126298061D01*
X121111989Y-126298061D01*
X121117205Y-126290256D01*
X121195226Y-126101898D01*
X121235000Y-125901939D01*
X121235000Y-125698061D01*
X121195226Y-125498102D01*
X121117205Y-125309744D01*
X121003937Y-125140226D01*
X120859774Y-124996063D01*
X120690256Y-124882795D01*
X120501898Y-124804774D01*
X120301939Y-124765000D01*
X120098061Y-124765000D01*
X119898102Y-124804774D01*
X119709744Y-124882795D01*
X119540226Y-124996063D01*
X119396063Y-125140226D01*
X119282795Y-125309744D01*
X119204774Y-125498102D01*
X119165000Y-125698061D01*
X103660000Y-125698061D01*
X103660000Y-122693740D01*
X106515000Y-122693740D01*
X106515000Y-122986260D01*
X106572068Y-123273158D01*
X106684010Y-123543411D01*
X106846525Y-123786632D01*
X107053368Y-123993475D01*
X107296589Y-124155990D01*
X107566842Y-124267932D01*
X107853740Y-124325000D01*
X108146260Y-124325000D01*
X108433158Y-124267932D01*
X108703411Y-124155990D01*
X108946632Y-123993475D01*
X109153475Y-123786632D01*
X109212656Y-123698061D01*
X109565000Y-123698061D01*
X109565000Y-123901939D01*
X109604774Y-124101898D01*
X109682795Y-124290256D01*
X109796063Y-124459774D01*
X109940226Y-124603937D01*
X110109744Y-124717205D01*
X110298102Y-124795226D01*
X110498061Y-124835000D01*
X110701939Y-124835000D01*
X110901898Y-124795226D01*
X111090256Y-124717205D01*
X111259774Y-124603937D01*
X111403937Y-124459774D01*
X111517205Y-124290256D01*
X111595226Y-124101898D01*
X111635000Y-123901939D01*
X111635000Y-123698061D01*
X111595226Y-123498102D01*
X111517205Y-123309744D01*
X111403937Y-123140226D01*
X111259774Y-122996063D01*
X111090256Y-122882795D01*
X110901898Y-122804774D01*
X110701939Y-122765000D01*
X110498061Y-122765000D01*
X110298102Y-122804774D01*
X110109744Y-122882795D01*
X109940226Y-122996063D01*
X109796063Y-123140226D01*
X109682795Y-123309744D01*
X109604774Y-123498102D01*
X109565000Y-123698061D01*
X109212656Y-123698061D01*
X109315990Y-123543411D01*
X109427932Y-123273158D01*
X109485000Y-122986260D01*
X109485000Y-122693740D01*
X113515000Y-122693740D01*
X113515000Y-122986260D01*
X113572068Y-123273158D01*
X113684010Y-123543411D01*
X113846525Y-123786632D01*
X114053368Y-123993475D01*
X114296589Y-124155990D01*
X114566842Y-124267932D01*
X114853740Y-124325000D01*
X115146260Y-124325000D01*
X115433158Y-124267932D01*
X115703411Y-124155990D01*
X115946632Y-123993475D01*
X116153475Y-123786632D01*
X116315990Y-123543411D01*
X116427932Y-123273158D01*
X116485000Y-122986260D01*
X116485000Y-122693740D01*
X116427932Y-122406842D01*
X116315990Y-122136589D01*
X116153475Y-121893368D01*
X115958168Y-121698061D01*
X123365000Y-121698061D01*
X123365000Y-121901939D01*
X123404774Y-122101898D01*
X123482795Y-122290256D01*
X123596063Y-122459774D01*
X123740226Y-122603937D01*
X123909744Y-122717205D01*
X124098102Y-122795226D01*
X124298061Y-122835000D01*
X124501939Y-122835000D01*
X124701898Y-122795226D01*
X124890256Y-122717205D01*
X124985238Y-122653740D01*
X125835000Y-122653740D01*
X125835000Y-122946260D01*
X125892068Y-123233158D01*
X126004010Y-123503411D01*
X126166525Y-123746632D01*
X126373368Y-123953475D01*
X126616589Y-124115990D01*
X126886842Y-124227932D01*
X127173740Y-124285000D01*
X127466260Y-124285000D01*
X127753158Y-124227932D01*
X128023411Y-124115990D01*
X128266632Y-123953475D01*
X128473475Y-123746632D01*
X128590000Y-123572240D01*
X128706525Y-123746632D01*
X128913368Y-123953475D01*
X129156589Y-124115990D01*
X129426842Y-124227932D01*
X129713740Y-124285000D01*
X130006260Y-124285000D01*
X130293158Y-124227932D01*
X130563411Y-124115990D01*
X130806632Y-123953475D01*
X130938487Y-123821620D01*
X130960498Y-123894180D01*
X131019463Y-124004494D01*
X131098815Y-124101185D01*
X131195506Y-124180537D01*
X131305820Y-124239502D01*
X131425518Y-124275812D01*
X131550000Y-124288072D01*
X132114250Y-124285000D01*
X132273000Y-124126250D01*
X132273000Y-122927000D01*
X132527000Y-122927000D01*
X132527000Y-124126250D01*
X132685750Y-124285000D01*
X133250000Y-124288072D01*
X133374482Y-124275812D01*
X133494180Y-124239502D01*
X133604494Y-124180537D01*
X133701185Y-124101185D01*
X133780537Y-124004494D01*
X133839502Y-123894180D01*
X133875812Y-123774482D01*
X133888072Y-123650000D01*
X133885000Y-123085750D01*
X133726250Y-122927000D01*
X132527000Y-122927000D01*
X132273000Y-122927000D01*
X132253000Y-122927000D01*
X132253000Y-122673000D01*
X132273000Y-122673000D01*
X132273000Y-121473750D01*
X132527000Y-121473750D01*
X132527000Y-122673000D01*
X133726250Y-122673000D01*
X133771189Y-122628061D01*
X134565000Y-122628061D01*
X134565000Y-122831939D01*
X134604774Y-123031898D01*
X134682795Y-123220256D01*
X134796063Y-123389774D01*
X134940226Y-123533937D01*
X135109744Y-123647205D01*
X135298102Y-123725226D01*
X135498061Y-123765000D01*
X135701939Y-123765000D01*
X135901898Y-123725226D01*
X136090256Y-123647205D01*
X136259774Y-123533937D01*
X136403937Y-123389774D01*
X136517205Y-123220256D01*
X136595226Y-123031898D01*
X136635000Y-122831939D01*
X136635000Y-122768061D01*
X140675000Y-122768061D01*
X140675000Y-122971939D01*
X140714774Y-123171898D01*
X140792795Y-123360256D01*
X140906063Y-123529774D01*
X141050226Y-123673937D01*
X141219744Y-123787205D01*
X141408102Y-123865226D01*
X141608061Y-123905000D01*
X141811939Y-123905000D01*
X142011898Y-123865226D01*
X142200256Y-123787205D01*
X142369774Y-123673937D01*
X142513937Y-123529774D01*
X142627205Y-123360256D01*
X142705226Y-123171898D01*
X142745000Y-122971939D01*
X142745000Y-122888061D01*
X143225000Y-122888061D01*
X143225000Y-123091939D01*
X143264774Y-123291898D01*
X143342795Y-123480256D01*
X143456063Y-123649774D01*
X143600226Y-123793937D01*
X143769744Y-123907205D01*
X143958102Y-123985226D01*
X144158061Y-124025000D01*
X144361939Y-124025000D01*
X144561898Y-123985226D01*
X144750256Y-123907205D01*
X144919774Y-123793937D01*
X145063937Y-123649774D01*
X145095000Y-123603285D01*
X145095000Y-123741939D01*
X145134774Y-123941898D01*
X145212795Y-124130256D01*
X145326063Y-124299774D01*
X145470226Y-124443937D01*
X145639744Y-124557205D01*
X145828102Y-124635226D01*
X146028061Y-124675000D01*
X146231939Y-124675000D01*
X146431898Y-124635226D01*
X146620256Y-124557205D01*
X146789774Y-124443937D01*
X146933937Y-124299774D01*
X147047205Y-124130256D01*
X147125226Y-123941898D01*
X147165000Y-123741939D01*
X147165000Y-123730000D01*
X151974025Y-123730000D01*
X151997870Y-123972102D01*
X152068489Y-124204901D01*
X152183167Y-124419449D01*
X152337498Y-124607502D01*
X152376111Y-124639191D01*
X152371613Y-124641595D01*
X152237038Y-124752038D01*
X152126595Y-124886613D01*
X152044528Y-125040149D01*
X151993992Y-125206745D01*
X151976928Y-125379999D01*
X151976928Y-126080001D01*
X151993992Y-126253255D01*
X152044528Y-126419851D01*
X152126595Y-126573387D01*
X152237038Y-126707962D01*
X152371613Y-126818405D01*
X152525149Y-126900472D01*
X152691745Y-126951008D01*
X152864999Y-126968072D01*
X154115001Y-126968072D01*
X154288255Y-126951008D01*
X154454851Y-126900472D01*
X154608387Y-126818405D01*
X154742962Y-126707962D01*
X154853405Y-126573387D01*
X154935472Y-126419851D01*
X154986008Y-126253255D01*
X155003072Y-126080001D01*
X155003072Y-125379999D01*
X154986008Y-125206745D01*
X154935472Y-125040149D01*
X154853405Y-124886613D01*
X154742962Y-124752038D01*
X154608387Y-124641595D01*
X154603889Y-124639191D01*
X154642502Y-124607502D01*
X154796833Y-124419449D01*
X154911511Y-124204901D01*
X154982130Y-123972102D01*
X155005975Y-123730000D01*
X154982130Y-123487898D01*
X154911511Y-123255099D01*
X154796833Y-123040551D01*
X154642502Y-122852498D01*
X154454449Y-122698167D01*
X154239901Y-122583489D01*
X154007102Y-122512870D01*
X153825665Y-122495000D01*
X153154335Y-122495000D01*
X152972898Y-122512870D01*
X152740099Y-122583489D01*
X152525551Y-122698167D01*
X152337498Y-122852498D01*
X152183167Y-123040551D01*
X152068489Y-123255099D01*
X151997870Y-123487898D01*
X151974025Y-123730000D01*
X147165000Y-123730000D01*
X147165000Y-123538061D01*
X147125226Y-123338102D01*
X147047205Y-123149744D01*
X146933937Y-122980226D01*
X146789774Y-122836063D01*
X146620256Y-122722795D01*
X146431898Y-122644774D01*
X146231939Y-122605000D01*
X146028061Y-122605000D01*
X145828102Y-122644774D01*
X145639744Y-122722795D01*
X145470226Y-122836063D01*
X145326063Y-122980226D01*
X145295000Y-123026715D01*
X145295000Y-122888061D01*
X145255226Y-122688102D01*
X145177205Y-122499744D01*
X145063937Y-122330226D01*
X144919774Y-122186063D01*
X144750256Y-122072795D01*
X144561898Y-121994774D01*
X144361939Y-121955000D01*
X144158061Y-121955000D01*
X143958102Y-121994774D01*
X143769744Y-122072795D01*
X143600226Y-122186063D01*
X143456063Y-122330226D01*
X143342795Y-122499744D01*
X143264774Y-122688102D01*
X143225000Y-122888061D01*
X142745000Y-122888061D01*
X142745000Y-122768061D01*
X142705226Y-122568102D01*
X142627205Y-122379744D01*
X142513937Y-122210226D01*
X142369774Y-122066063D01*
X142200256Y-121952795D01*
X142011898Y-121874774D01*
X141811939Y-121835000D01*
X141608061Y-121835000D01*
X141408102Y-121874774D01*
X141219744Y-121952795D01*
X141050226Y-122066063D01*
X140906063Y-122210226D01*
X140792795Y-122379744D01*
X140714774Y-122568102D01*
X140675000Y-122768061D01*
X136635000Y-122768061D01*
X136635000Y-122628061D01*
X136595226Y-122428102D01*
X136517205Y-122239744D01*
X136403937Y-122070226D01*
X136259774Y-121926063D01*
X136090256Y-121812795D01*
X135901898Y-121734774D01*
X135701939Y-121695000D01*
X135498061Y-121695000D01*
X135298102Y-121734774D01*
X135109744Y-121812795D01*
X134940226Y-121926063D01*
X134796063Y-122070226D01*
X134682795Y-122239744D01*
X134604774Y-122428102D01*
X134565000Y-122628061D01*
X133771189Y-122628061D01*
X133885000Y-122514250D01*
X133888072Y-121950000D01*
X133875812Y-121825518D01*
X133839502Y-121705820D01*
X133780537Y-121595506D01*
X133701185Y-121498815D01*
X133604494Y-121419463D01*
X133494180Y-121360498D01*
X133374482Y-121324188D01*
X133250000Y-121311928D01*
X132685750Y-121315000D01*
X132527000Y-121473750D01*
X132273000Y-121473750D01*
X132114250Y-121315000D01*
X131550000Y-121311928D01*
X131425518Y-121324188D01*
X131305820Y-121360498D01*
X131195506Y-121419463D01*
X131098815Y-121498815D01*
X131019463Y-121595506D01*
X130960498Y-121705820D01*
X130938487Y-121778380D01*
X130806632Y-121646525D01*
X130563411Y-121484010D01*
X130293158Y-121372068D01*
X130006260Y-121315000D01*
X129713740Y-121315000D01*
X129426842Y-121372068D01*
X129156589Y-121484010D01*
X128913368Y-121646525D01*
X128706525Y-121853368D01*
X128590000Y-122027760D01*
X128473475Y-121853368D01*
X128266632Y-121646525D01*
X128023411Y-121484010D01*
X127753158Y-121372068D01*
X127466260Y-121315000D01*
X127173740Y-121315000D01*
X126886842Y-121372068D01*
X126616589Y-121484010D01*
X126373368Y-121646525D01*
X126166525Y-121853368D01*
X126004010Y-122096589D01*
X125892068Y-122366842D01*
X125835000Y-122653740D01*
X124985238Y-122653740D01*
X125059774Y-122603937D01*
X125203937Y-122459774D01*
X125317205Y-122290256D01*
X125395226Y-122101898D01*
X125435000Y-121901939D01*
X125435000Y-121698061D01*
X125395226Y-121498102D01*
X125317205Y-121309744D01*
X125203937Y-121140226D01*
X125059774Y-120996063D01*
X124890256Y-120882795D01*
X124701898Y-120804774D01*
X124501939Y-120765000D01*
X124298061Y-120765000D01*
X124098102Y-120804774D01*
X123909744Y-120882795D01*
X123740226Y-120996063D01*
X123596063Y-121140226D01*
X123482795Y-121309744D01*
X123404774Y-121498102D01*
X123365000Y-121698061D01*
X115958168Y-121698061D01*
X115946632Y-121686525D01*
X115703411Y-121524010D01*
X115433158Y-121412068D01*
X115146260Y-121355000D01*
X114853740Y-121355000D01*
X114566842Y-121412068D01*
X114296589Y-121524010D01*
X114053368Y-121686525D01*
X113846525Y-121893368D01*
X113684010Y-122136589D01*
X113572068Y-122406842D01*
X113515000Y-122693740D01*
X109485000Y-122693740D01*
X109427932Y-122406842D01*
X109315990Y-122136589D01*
X109153475Y-121893368D01*
X108946632Y-121686525D01*
X108703411Y-121524010D01*
X108433158Y-121412068D01*
X108146260Y-121355000D01*
X107853740Y-121355000D01*
X107566842Y-121412068D01*
X107296589Y-121524010D01*
X107053368Y-121686525D01*
X106846525Y-121893368D01*
X106684010Y-122136589D01*
X106572068Y-122406842D01*
X106515000Y-122693740D01*
X103660000Y-122693740D01*
X103660000Y-119568061D01*
X116535000Y-119568061D01*
X116535000Y-119771939D01*
X116574774Y-119971898D01*
X116652795Y-120160256D01*
X116766063Y-120329774D01*
X116910226Y-120473937D01*
X117079744Y-120587205D01*
X117268102Y-120665226D01*
X117468061Y-120705000D01*
X117671939Y-120705000D01*
X117871898Y-120665226D01*
X118060256Y-120587205D01*
X118229774Y-120473937D01*
X118373937Y-120329774D01*
X118487205Y-120160256D01*
X118565226Y-119971898D01*
X118605000Y-119771939D01*
X118605000Y-119568061D01*
X118565226Y-119368102D01*
X118487205Y-119179744D01*
X118373937Y-119010226D01*
X118361772Y-118998061D01*
X125415000Y-118998061D01*
X125415000Y-119201939D01*
X125454774Y-119401898D01*
X125532795Y-119590256D01*
X125646063Y-119759774D01*
X125790226Y-119903937D01*
X125959744Y-120017205D01*
X126148102Y-120095226D01*
X126348061Y-120135000D01*
X126551939Y-120135000D01*
X126751898Y-120095226D01*
X126940256Y-120017205D01*
X127109774Y-119903937D01*
X127253937Y-119759774D01*
X127367205Y-119590256D01*
X127445226Y-119401898D01*
X127485000Y-119201939D01*
X127485000Y-118998061D01*
X127445226Y-118798102D01*
X127367205Y-118609744D01*
X127253937Y-118440226D01*
X127236772Y-118423061D01*
X137540000Y-118423061D01*
X137540000Y-118626939D01*
X137579774Y-118826898D01*
X137657795Y-119015256D01*
X137771063Y-119184774D01*
X137915226Y-119328937D01*
X138084744Y-119442205D01*
X138273102Y-119520226D01*
X138473061Y-119560000D01*
X138676939Y-119560000D01*
X138876898Y-119520226D01*
X139065256Y-119442205D01*
X139234774Y-119328937D01*
X139378937Y-119184774D01*
X139492205Y-119015256D01*
X139570226Y-118826898D01*
X139610000Y-118626939D01*
X139610000Y-118423061D01*
X139570226Y-118223102D01*
X139492205Y-118034744D01*
X139447649Y-117968061D01*
X143225000Y-117968061D01*
X143225000Y-118171939D01*
X143264774Y-118371898D01*
X143342795Y-118560256D01*
X143456063Y-118729774D01*
X143600226Y-118873937D01*
X143769744Y-118987205D01*
X143958102Y-119065226D01*
X144158061Y-119105000D01*
X144361939Y-119105000D01*
X144561898Y-119065226D01*
X144750256Y-118987205D01*
X144919774Y-118873937D01*
X145063937Y-118729774D01*
X145177205Y-118560256D01*
X145254750Y-118373047D01*
X145326063Y-118479774D01*
X145470226Y-118623937D01*
X145639744Y-118737205D01*
X145828102Y-118815226D01*
X146028061Y-118855000D01*
X146231939Y-118855000D01*
X146431898Y-118815226D01*
X146620256Y-118737205D01*
X146789774Y-118623937D01*
X146933937Y-118479774D01*
X147047205Y-118310256D01*
X147125226Y-118121898D01*
X147165000Y-117921939D01*
X147165000Y-117863045D01*
X147204176Y-117957624D01*
X147269241Y-118055000D01*
X147204176Y-118152376D01*
X147118617Y-118358933D01*
X147075000Y-118578212D01*
X147075000Y-118801788D01*
X147118617Y-119021067D01*
X147204176Y-119227624D01*
X147269241Y-119325000D01*
X147204176Y-119422376D01*
X147118617Y-119628933D01*
X147075000Y-119848212D01*
X147075000Y-120071788D01*
X147118617Y-120291067D01*
X147204176Y-120497624D01*
X147269241Y-120595000D01*
X147204176Y-120692376D01*
X147118617Y-120898933D01*
X147075000Y-121118212D01*
X147075000Y-121341788D01*
X147118617Y-121561067D01*
X147204176Y-121767624D01*
X147269241Y-121865000D01*
X147204176Y-121962376D01*
X147118617Y-122168933D01*
X147075000Y-122388212D01*
X147075000Y-122611788D01*
X147118617Y-122831067D01*
X147204176Y-123037624D01*
X147328388Y-123223520D01*
X147486480Y-123381612D01*
X147672376Y-123505824D01*
X147878933Y-123591383D01*
X148098212Y-123635000D01*
X148321788Y-123635000D01*
X148541067Y-123591383D01*
X148652774Y-123545112D01*
X148735820Y-123589502D01*
X148855518Y-123625812D01*
X148980000Y-123638072D01*
X149980000Y-123638072D01*
X150104482Y-123625812D01*
X150224180Y-123589502D01*
X150334494Y-123530537D01*
X150431185Y-123451185D01*
X150510537Y-123354494D01*
X150569502Y-123244180D01*
X150605812Y-123124482D01*
X150618072Y-123000000D01*
X150618072Y-122000000D01*
X150605812Y-121875518D01*
X150569502Y-121755820D01*
X150525112Y-121672774D01*
X150571383Y-121561067D01*
X150615000Y-121341788D01*
X150615000Y-121118212D01*
X150571383Y-120898933D01*
X150485824Y-120692376D01*
X150420759Y-120595000D01*
X150485532Y-120498061D01*
X151165000Y-120498061D01*
X151165000Y-120701939D01*
X151204774Y-120901898D01*
X151282795Y-121090256D01*
X151396063Y-121259774D01*
X151540226Y-121403937D01*
X151709744Y-121517205D01*
X151898102Y-121595226D01*
X152098061Y-121635000D01*
X152301939Y-121635000D01*
X152501898Y-121595226D01*
X152690256Y-121517205D01*
X152859774Y-121403937D01*
X153003937Y-121259774D01*
X153117205Y-121090256D01*
X153195226Y-120901898D01*
X153235000Y-120701939D01*
X153235000Y-120498061D01*
X153195226Y-120298102D01*
X153117205Y-120109744D01*
X153003937Y-119940226D01*
X152859774Y-119796063D01*
X152690256Y-119682795D01*
X152501898Y-119604774D01*
X152301939Y-119565000D01*
X152098061Y-119565000D01*
X151898102Y-119604774D01*
X151709744Y-119682795D01*
X151540226Y-119796063D01*
X151396063Y-119940226D01*
X151282795Y-120109744D01*
X151204774Y-120298102D01*
X151165000Y-120498061D01*
X150485532Y-120498061D01*
X150485824Y-120497624D01*
X150571383Y-120291067D01*
X150615000Y-120071788D01*
X150615000Y-119848212D01*
X150571383Y-119628933D01*
X150485824Y-119422376D01*
X150420759Y-119325000D01*
X150485824Y-119227624D01*
X150571383Y-119021067D01*
X150615000Y-118801788D01*
X150615000Y-118578212D01*
X150571383Y-118358933D01*
X150485824Y-118152376D01*
X150420759Y-118055000D01*
X150485824Y-117957624D01*
X150571383Y-117751067D01*
X150615000Y-117531788D01*
X150615000Y-117308212D01*
X150571383Y-117088933D01*
X150485824Y-116882376D01*
X150361612Y-116696480D01*
X150203520Y-116538388D01*
X150017624Y-116414176D01*
X149811067Y-116328617D01*
X149591788Y-116285000D01*
X149368212Y-116285000D01*
X149148933Y-116328617D01*
X148942376Y-116414176D01*
X148845000Y-116479241D01*
X148747624Y-116414176D01*
X148541067Y-116328617D01*
X148321788Y-116285000D01*
X148098212Y-116285000D01*
X147878933Y-116328617D01*
X147672376Y-116414176D01*
X147486480Y-116538388D01*
X147328388Y-116696480D01*
X147204176Y-116882376D01*
X147118617Y-117088933D01*
X147075000Y-117308212D01*
X147075000Y-117396847D01*
X147047205Y-117329744D01*
X146933937Y-117160226D01*
X146789774Y-117016063D01*
X146620256Y-116902795D01*
X146431898Y-116824774D01*
X146231939Y-116785000D01*
X146082519Y-116785000D01*
X146047205Y-116699744D01*
X145933937Y-116530226D01*
X145789774Y-116386063D01*
X145620256Y-116272795D01*
X145431898Y-116194774D01*
X145231939Y-116155000D01*
X145028061Y-116155000D01*
X144828102Y-116194774D01*
X144639744Y-116272795D01*
X144470226Y-116386063D01*
X144326063Y-116530226D01*
X144212795Y-116699744D01*
X144134774Y-116888102D01*
X144103391Y-117045874D01*
X143958102Y-117074774D01*
X143769744Y-117152795D01*
X143600226Y-117266063D01*
X143456063Y-117410226D01*
X143342795Y-117579744D01*
X143264774Y-117768102D01*
X143225000Y-117968061D01*
X139447649Y-117968061D01*
X139378937Y-117865226D01*
X139234774Y-117721063D01*
X139065256Y-117607795D01*
X138876898Y-117529774D01*
X138676939Y-117490000D01*
X138473061Y-117490000D01*
X138273102Y-117529774D01*
X138084744Y-117607795D01*
X137915226Y-117721063D01*
X137771063Y-117865226D01*
X137657795Y-118034744D01*
X137579774Y-118223102D01*
X137540000Y-118423061D01*
X127236772Y-118423061D01*
X127109774Y-118296063D01*
X126940256Y-118182795D01*
X126751898Y-118104774D01*
X126551939Y-118065000D01*
X126348061Y-118065000D01*
X126148102Y-118104774D01*
X125959744Y-118182795D01*
X125790226Y-118296063D01*
X125646063Y-118440226D01*
X125532795Y-118609744D01*
X125454774Y-118798102D01*
X125415000Y-118998061D01*
X118361772Y-118998061D01*
X118229774Y-118866063D01*
X118060256Y-118752795D01*
X117871898Y-118674774D01*
X117671939Y-118635000D01*
X117468061Y-118635000D01*
X117268102Y-118674774D01*
X117079744Y-118752795D01*
X116910226Y-118866063D01*
X116766063Y-119010226D01*
X116652795Y-119179744D01*
X116574774Y-119368102D01*
X116535000Y-119568061D01*
X103660000Y-119568061D01*
X103660000Y-118298061D01*
X113965000Y-118298061D01*
X113965000Y-118501939D01*
X114004774Y-118701898D01*
X114082795Y-118890256D01*
X114196063Y-119059774D01*
X114340226Y-119203937D01*
X114509744Y-119317205D01*
X114698102Y-119395226D01*
X114898061Y-119435000D01*
X115101939Y-119435000D01*
X115301898Y-119395226D01*
X115490256Y-119317205D01*
X115659774Y-119203937D01*
X115803937Y-119059774D01*
X115917205Y-118890256D01*
X115995226Y-118701898D01*
X116035000Y-118501939D01*
X116035000Y-118298061D01*
X115995226Y-118098102D01*
X115917205Y-117909744D01*
X115803937Y-117740226D01*
X115659774Y-117596063D01*
X115490256Y-117482795D01*
X115301898Y-117404774D01*
X115101939Y-117365000D01*
X114898061Y-117365000D01*
X114698102Y-117404774D01*
X114509744Y-117482795D01*
X114340226Y-117596063D01*
X114196063Y-117740226D01*
X114082795Y-117909744D01*
X114004774Y-118098102D01*
X113965000Y-118298061D01*
X103660000Y-118298061D01*
X103660000Y-114698061D01*
X116765000Y-114698061D01*
X116765000Y-114901939D01*
X116804774Y-115101898D01*
X116882795Y-115290256D01*
X116996063Y-115459774D01*
X117140226Y-115603937D01*
X117309744Y-115717205D01*
X117498102Y-115795226D01*
X117698061Y-115835000D01*
X117901939Y-115835000D01*
X118101898Y-115795226D01*
X118290256Y-115717205D01*
X118459774Y-115603937D01*
X118603937Y-115459774D01*
X118717205Y-115290256D01*
X118795226Y-115101898D01*
X118835000Y-114901939D01*
X118835000Y-114698061D01*
X118795226Y-114498102D01*
X118717205Y-114309744D01*
X118603937Y-114140226D01*
X118459774Y-113996063D01*
X118290256Y-113882795D01*
X118101898Y-113804774D01*
X117901939Y-113765000D01*
X117698061Y-113765000D01*
X117498102Y-113804774D01*
X117309744Y-113882795D01*
X117140226Y-113996063D01*
X116996063Y-114140226D01*
X116882795Y-114309744D01*
X116804774Y-114498102D01*
X116765000Y-114698061D01*
X103660000Y-114698061D01*
X103660000Y-114050000D01*
X104311928Y-114050000D01*
X104324188Y-114174482D01*
X104360498Y-114294180D01*
X104419463Y-114404494D01*
X104498815Y-114501185D01*
X104595506Y-114580537D01*
X104705820Y-114639502D01*
X104825518Y-114675812D01*
X104950000Y-114688072D01*
X105514250Y-114685000D01*
X105673000Y-114526250D01*
X105673000Y-113327000D01*
X104473750Y-113327000D01*
X104315000Y-113485750D01*
X104311928Y-114050000D01*
X103660000Y-114050000D01*
X103660000Y-112350000D01*
X104311928Y-112350000D01*
X104315000Y-112914250D01*
X104473750Y-113073000D01*
X105673000Y-113073000D01*
X105673000Y-111873750D01*
X105927000Y-111873750D01*
X105927000Y-113073000D01*
X105947000Y-113073000D01*
X105947000Y-113327000D01*
X105927000Y-113327000D01*
X105927000Y-114526250D01*
X106085750Y-114685000D01*
X106650000Y-114688072D01*
X106774482Y-114675812D01*
X106894180Y-114639502D01*
X107004494Y-114580537D01*
X107101185Y-114501185D01*
X107180537Y-114404494D01*
X107239502Y-114294180D01*
X107261513Y-114221620D01*
X107393368Y-114353475D01*
X107636589Y-114515990D01*
X107906842Y-114627932D01*
X108193740Y-114685000D01*
X108486260Y-114685000D01*
X108773158Y-114627932D01*
X109043411Y-114515990D01*
X109286632Y-114353475D01*
X109493475Y-114146632D01*
X109610000Y-113972240D01*
X109726525Y-114146632D01*
X109933368Y-114353475D01*
X110176589Y-114515990D01*
X110446842Y-114627932D01*
X110733740Y-114685000D01*
X111026260Y-114685000D01*
X111313158Y-114627932D01*
X111583411Y-114515990D01*
X111826632Y-114353475D01*
X112033475Y-114146632D01*
X112150000Y-113972240D01*
X112266525Y-114146632D01*
X112473368Y-114353475D01*
X112716589Y-114515990D01*
X112986842Y-114627932D01*
X113273740Y-114685000D01*
X113566260Y-114685000D01*
X113853158Y-114627932D01*
X114123411Y-114515990D01*
X114366632Y-114353475D01*
X114573475Y-114146632D01*
X114735990Y-113903411D01*
X114847932Y-113633158D01*
X114905000Y-113346260D01*
X114905000Y-113053740D01*
X114847932Y-112766842D01*
X114735990Y-112496589D01*
X114573475Y-112253368D01*
X114366632Y-112046525D01*
X114123411Y-111884010D01*
X113853158Y-111772068D01*
X113566260Y-111715000D01*
X113273740Y-111715000D01*
X112986842Y-111772068D01*
X112716589Y-111884010D01*
X112473368Y-112046525D01*
X112266525Y-112253368D01*
X112150000Y-112427760D01*
X112033475Y-112253368D01*
X111826632Y-112046525D01*
X111583411Y-111884010D01*
X111313158Y-111772068D01*
X111026260Y-111715000D01*
X110733740Y-111715000D01*
X110446842Y-111772068D01*
X110176589Y-111884010D01*
X109933368Y-112046525D01*
X109726525Y-112253368D01*
X109610000Y-112427760D01*
X109493475Y-112253368D01*
X109286632Y-112046525D01*
X109043411Y-111884010D01*
X108773158Y-111772068D01*
X108486260Y-111715000D01*
X108193740Y-111715000D01*
X107906842Y-111772068D01*
X107636589Y-111884010D01*
X107393368Y-112046525D01*
X107261513Y-112178380D01*
X107239502Y-112105820D01*
X107180537Y-111995506D01*
X107101185Y-111898815D01*
X107004494Y-111819463D01*
X106894180Y-111760498D01*
X106774482Y-111724188D01*
X106650000Y-111711928D01*
X106085750Y-111715000D01*
X105927000Y-111873750D01*
X105673000Y-111873750D01*
X105514250Y-111715000D01*
X104950000Y-111711928D01*
X104825518Y-111724188D01*
X104705820Y-111760498D01*
X104595506Y-111819463D01*
X104498815Y-111898815D01*
X104419463Y-111995506D01*
X104360498Y-112105820D01*
X104324188Y-112225518D01*
X104311928Y-112350000D01*
X103660000Y-112350000D01*
X103660000Y-110498061D01*
X106565000Y-110498061D01*
X106565000Y-110701939D01*
X106604774Y-110901898D01*
X106682795Y-111090256D01*
X106796063Y-111259774D01*
X106940226Y-111403937D01*
X107109744Y-111517205D01*
X107298102Y-111595226D01*
X107498061Y-111635000D01*
X107701939Y-111635000D01*
X107901898Y-111595226D01*
X108090256Y-111517205D01*
X108259774Y-111403937D01*
X108403937Y-111259774D01*
X108517205Y-111090256D01*
X108595226Y-110901898D01*
X108635000Y-110701939D01*
X108635000Y-110498061D01*
X115165000Y-110498061D01*
X115165000Y-110701939D01*
X115204774Y-110901898D01*
X115282795Y-111090256D01*
X115396063Y-111259774D01*
X115540226Y-111403937D01*
X115709744Y-111517205D01*
X115898102Y-111595226D01*
X116098061Y-111635000D01*
X116301939Y-111635000D01*
X116501898Y-111595226D01*
X116690256Y-111517205D01*
X116859774Y-111403937D01*
X116900000Y-111363711D01*
X116940226Y-111403937D01*
X117109744Y-111517205D01*
X117298102Y-111595226D01*
X117498061Y-111635000D01*
X117701939Y-111635000D01*
X117901898Y-111595226D01*
X118090256Y-111517205D01*
X118259774Y-111403937D01*
X118403937Y-111259774D01*
X118517205Y-111090256D01*
X118565749Y-110973061D01*
X128140000Y-110973061D01*
X128140000Y-111176939D01*
X128179774Y-111376898D01*
X128257795Y-111565256D01*
X128371063Y-111734774D01*
X128515226Y-111878937D01*
X128684744Y-111992205D01*
X128873102Y-112070226D01*
X129073061Y-112110000D01*
X129276939Y-112110000D01*
X129476898Y-112070226D01*
X129665256Y-111992205D01*
X129834774Y-111878937D01*
X129978937Y-111734774D01*
X130092205Y-111565256D01*
X130170226Y-111376898D01*
X130210000Y-111176939D01*
X130210000Y-110973061D01*
X135415000Y-110973061D01*
X135415000Y-111176939D01*
X135454774Y-111376898D01*
X135532795Y-111565256D01*
X135646063Y-111734774D01*
X135790226Y-111878937D01*
X135959744Y-111992205D01*
X136148102Y-112070226D01*
X136348061Y-112110000D01*
X136551939Y-112110000D01*
X136751898Y-112070226D01*
X136940256Y-111992205D01*
X137109774Y-111878937D01*
X137253937Y-111734774D01*
X137367205Y-111565256D01*
X137415749Y-111448061D01*
X145555000Y-111448061D01*
X145555000Y-111651939D01*
X145594774Y-111851898D01*
X145672795Y-112040256D01*
X145786063Y-112209774D01*
X145930226Y-112353937D01*
X146099744Y-112467205D01*
X146283125Y-112543164D01*
X146196063Y-112630226D01*
X146082795Y-112799744D01*
X146004774Y-112988102D01*
X145965000Y-113188061D01*
X145965000Y-113391939D01*
X146004774Y-113591898D01*
X146082795Y-113780256D01*
X146196063Y-113949774D01*
X146340226Y-114093937D01*
X146509744Y-114207205D01*
X146698102Y-114285226D01*
X146898061Y-114325000D01*
X147101939Y-114325000D01*
X147301898Y-114285226D01*
X147490256Y-114207205D01*
X147659774Y-114093937D01*
X147803937Y-113949774D01*
X147917205Y-113780256D01*
X147995226Y-113591898D01*
X148035000Y-113391939D01*
X148035000Y-113188061D01*
X148285000Y-113188061D01*
X148285000Y-113391939D01*
X148324774Y-113591898D01*
X148402795Y-113780256D01*
X148516063Y-113949774D01*
X148660226Y-114093937D01*
X148829744Y-114207205D01*
X149018102Y-114285226D01*
X149218061Y-114325000D01*
X149421939Y-114325000D01*
X149621898Y-114285226D01*
X149810256Y-114207205D01*
X149979774Y-114093937D01*
X150123937Y-113949774D01*
X150237205Y-113780256D01*
X150315226Y-113591898D01*
X150355000Y-113391939D01*
X150355000Y-113188061D01*
X150315226Y-112988102D01*
X150237205Y-112799744D01*
X150123937Y-112630226D01*
X149979774Y-112486063D01*
X149810256Y-112372795D01*
X149621898Y-112294774D01*
X149421939Y-112255000D01*
X149218061Y-112255000D01*
X149018102Y-112294774D01*
X148829744Y-112372795D01*
X148660226Y-112486063D01*
X148516063Y-112630226D01*
X148402795Y-112799744D01*
X148324774Y-112988102D01*
X148285000Y-113188061D01*
X148035000Y-113188061D01*
X147995226Y-112988102D01*
X147917205Y-112799744D01*
X147803937Y-112630226D01*
X147659774Y-112486063D01*
X147490256Y-112372795D01*
X147306875Y-112296836D01*
X147393937Y-112209774D01*
X147507205Y-112040256D01*
X147585226Y-111851898D01*
X147625000Y-111651939D01*
X147625000Y-111448061D01*
X147585226Y-111248102D01*
X147507205Y-111059744D01*
X147393937Y-110890226D01*
X147249774Y-110746063D01*
X147080256Y-110632795D01*
X146891898Y-110554774D01*
X146691939Y-110515000D01*
X146488061Y-110515000D01*
X146288102Y-110554774D01*
X146099744Y-110632795D01*
X145930226Y-110746063D01*
X145786063Y-110890226D01*
X145672795Y-111059744D01*
X145594774Y-111248102D01*
X145555000Y-111448061D01*
X137415749Y-111448061D01*
X137445226Y-111376898D01*
X137485000Y-111176939D01*
X137485000Y-110973061D01*
X137445226Y-110773102D01*
X137367205Y-110584744D01*
X137253937Y-110415226D01*
X137109774Y-110271063D01*
X136940256Y-110157795D01*
X136751898Y-110079774D01*
X136551939Y-110040000D01*
X136348061Y-110040000D01*
X136148102Y-110079774D01*
X135959744Y-110157795D01*
X135790226Y-110271063D01*
X135646063Y-110415226D01*
X135532795Y-110584744D01*
X135454774Y-110773102D01*
X135415000Y-110973061D01*
X130210000Y-110973061D01*
X130170226Y-110773102D01*
X130092205Y-110584744D01*
X129978937Y-110415226D01*
X129834774Y-110271063D01*
X129665256Y-110157795D01*
X129476898Y-110079774D01*
X129276939Y-110040000D01*
X129073061Y-110040000D01*
X128873102Y-110079774D01*
X128684744Y-110157795D01*
X128515226Y-110271063D01*
X128371063Y-110415226D01*
X128257795Y-110584744D01*
X128179774Y-110773102D01*
X128140000Y-110973061D01*
X118565749Y-110973061D01*
X118595226Y-110901898D01*
X118635000Y-110701939D01*
X118635000Y-110498061D01*
X118595226Y-110298102D01*
X118517205Y-110109744D01*
X118403937Y-109940226D01*
X118259774Y-109796063D01*
X118090256Y-109682795D01*
X117901898Y-109604774D01*
X117701939Y-109565000D01*
X117498061Y-109565000D01*
X117298102Y-109604774D01*
X117109744Y-109682795D01*
X116940226Y-109796063D01*
X116900000Y-109836289D01*
X116859774Y-109796063D01*
X116690256Y-109682795D01*
X116501898Y-109604774D01*
X116301939Y-109565000D01*
X116098061Y-109565000D01*
X115898102Y-109604774D01*
X115709744Y-109682795D01*
X115540226Y-109796063D01*
X115396063Y-109940226D01*
X115282795Y-110109744D01*
X115204774Y-110298102D01*
X115165000Y-110498061D01*
X108635000Y-110498061D01*
X108595226Y-110298102D01*
X108517205Y-110109744D01*
X108403937Y-109940226D01*
X108259774Y-109796063D01*
X108090256Y-109682795D01*
X107901898Y-109604774D01*
X107701939Y-109565000D01*
X107498061Y-109565000D01*
X107298102Y-109604774D01*
X107109744Y-109682795D01*
X106940226Y-109796063D01*
X106796063Y-109940226D01*
X106682795Y-110109744D01*
X106604774Y-110298102D01*
X106565000Y-110498061D01*
X103660000Y-110498061D01*
X103660000Y-109118061D01*
X119785000Y-109118061D01*
X119785000Y-109321939D01*
X119824774Y-109521898D01*
X119902795Y-109710256D01*
X120016063Y-109879774D01*
X120160226Y-110023937D01*
X120329744Y-110137205D01*
X120518102Y-110215226D01*
X120718061Y-110255000D01*
X120921939Y-110255000D01*
X121121898Y-110215226D01*
X121310256Y-110137205D01*
X121479774Y-110023937D01*
X121623937Y-109879774D01*
X121737205Y-109710256D01*
X121815226Y-109521898D01*
X121855000Y-109321939D01*
X121855000Y-109118061D01*
X121815226Y-108918102D01*
X121737205Y-108729744D01*
X121623937Y-108560226D01*
X121479774Y-108416063D01*
X121310256Y-108302795D01*
X121121898Y-108224774D01*
X120921939Y-108185000D01*
X120718061Y-108185000D01*
X120518102Y-108224774D01*
X120329744Y-108302795D01*
X120160226Y-108416063D01*
X120016063Y-108560226D01*
X119902795Y-108729744D01*
X119824774Y-108918102D01*
X119785000Y-109118061D01*
X103660000Y-109118061D01*
X103660000Y-107598061D01*
X127765000Y-107598061D01*
X127765000Y-107801939D01*
X127804774Y-108001898D01*
X127882795Y-108190256D01*
X127996063Y-108359774D01*
X128140226Y-108503937D01*
X128309744Y-108617205D01*
X128498102Y-108695226D01*
X128698061Y-108735000D01*
X128901939Y-108735000D01*
X129101898Y-108695226D01*
X129290256Y-108617205D01*
X129459774Y-108503937D01*
X129465650Y-108498061D01*
X137965000Y-108498061D01*
X137965000Y-108701939D01*
X138004774Y-108901898D01*
X138082795Y-109090256D01*
X138196063Y-109259774D01*
X138340226Y-109403937D01*
X138509744Y-109517205D01*
X138698102Y-109595226D01*
X138898061Y-109635000D01*
X139101939Y-109635000D01*
X139301898Y-109595226D01*
X139490256Y-109517205D01*
X139659774Y-109403937D01*
X139803937Y-109259774D01*
X139917205Y-109090256D01*
X139995226Y-108901898D01*
X140035000Y-108701939D01*
X140035000Y-108498061D01*
X139995226Y-108298102D01*
X139917205Y-108109744D01*
X139803937Y-107940226D01*
X139659774Y-107796063D01*
X139490256Y-107682795D01*
X139301898Y-107604774D01*
X139101939Y-107565000D01*
X138898061Y-107565000D01*
X138698102Y-107604774D01*
X138509744Y-107682795D01*
X138340226Y-107796063D01*
X138196063Y-107940226D01*
X138082795Y-108109744D01*
X138004774Y-108298102D01*
X137965000Y-108498061D01*
X129465650Y-108498061D01*
X129603937Y-108359774D01*
X129717205Y-108190256D01*
X129795226Y-108001898D01*
X129835000Y-107801939D01*
X129835000Y-107598061D01*
X129795226Y-107398102D01*
X129717205Y-107209744D01*
X129603937Y-107040226D01*
X129459774Y-106896063D01*
X129290256Y-106782795D01*
X129101898Y-106704774D01*
X128901939Y-106665000D01*
X128698061Y-106665000D01*
X128498102Y-106704774D01*
X128309744Y-106782795D01*
X128140226Y-106896063D01*
X127996063Y-107040226D01*
X127882795Y-107209744D01*
X127804774Y-107398102D01*
X127765000Y-107598061D01*
X103660000Y-107598061D01*
X103660000Y-105898061D01*
X105165000Y-105898061D01*
X105165000Y-106101939D01*
X105204774Y-106301898D01*
X105282795Y-106490256D01*
X105396063Y-106659774D01*
X105540226Y-106803937D01*
X105709744Y-106917205D01*
X105898102Y-106995226D01*
X106098061Y-107035000D01*
X106301939Y-107035000D01*
X106501898Y-106995226D01*
X106690256Y-106917205D01*
X106859774Y-106803937D01*
X107003937Y-106659774D01*
X107117205Y-106490256D01*
X107195226Y-106301898D01*
X107235000Y-106101939D01*
X107235000Y-105898061D01*
X112965000Y-105898061D01*
X112965000Y-106101939D01*
X113004774Y-106301898D01*
X113082795Y-106490256D01*
X113196063Y-106659774D01*
X113340226Y-106803937D01*
X113509744Y-106917205D01*
X113698102Y-106995226D01*
X113898061Y-107035000D01*
X114101939Y-107035000D01*
X114301898Y-106995226D01*
X114490256Y-106917205D01*
X114659774Y-106803937D01*
X114803937Y-106659774D01*
X114917205Y-106490256D01*
X114995226Y-106301898D01*
X115035000Y-106101939D01*
X115035000Y-105898061D01*
X114995226Y-105698102D01*
X114917205Y-105509744D01*
X114803937Y-105340226D01*
X114659774Y-105196063D01*
X114490256Y-105082795D01*
X114301898Y-105004774D01*
X114101939Y-104965000D01*
X113898061Y-104965000D01*
X113698102Y-105004774D01*
X113509744Y-105082795D01*
X113340226Y-105196063D01*
X113196063Y-105340226D01*
X113082795Y-105509744D01*
X113004774Y-105698102D01*
X112965000Y-105898061D01*
X107235000Y-105898061D01*
X107195226Y-105698102D01*
X107117205Y-105509744D01*
X107003937Y-105340226D01*
X106859774Y-105196063D01*
X106690256Y-105082795D01*
X106501898Y-105004774D01*
X106301939Y-104965000D01*
X106098061Y-104965000D01*
X105898102Y-105004774D01*
X105709744Y-105082795D01*
X105540226Y-105196063D01*
X105396063Y-105340226D01*
X105282795Y-105509744D01*
X105204774Y-105698102D01*
X105165000Y-105898061D01*
X103660000Y-105898061D01*
X103660000Y-104098061D01*
X117965000Y-104098061D01*
X117965000Y-104301939D01*
X118004774Y-104501898D01*
X118082795Y-104690256D01*
X118196063Y-104859774D01*
X118340226Y-105003937D01*
X118509744Y-105117205D01*
X118698102Y-105195226D01*
X118722103Y-105200000D01*
X118698102Y-105204774D01*
X118509744Y-105282795D01*
X118340226Y-105396063D01*
X118196063Y-105540226D01*
X118082795Y-105709744D01*
X118004774Y-105898102D01*
X117965000Y-106098061D01*
X117965000Y-106301939D01*
X118004774Y-106501898D01*
X118082795Y-106690256D01*
X118196063Y-106859774D01*
X118340226Y-107003937D01*
X118509744Y-107117205D01*
X118698102Y-107195226D01*
X118898061Y-107235000D01*
X119101939Y-107235000D01*
X119301898Y-107195226D01*
X119490256Y-107117205D01*
X119500000Y-107110694D01*
X119509744Y-107117205D01*
X119698102Y-107195226D01*
X119898061Y-107235000D01*
X120101939Y-107235000D01*
X120301898Y-107195226D01*
X120490256Y-107117205D01*
X120659774Y-107003937D01*
X120803937Y-106859774D01*
X120917205Y-106690256D01*
X120995226Y-106501898D01*
X121035000Y-106301939D01*
X121035000Y-106098061D01*
X120995226Y-105898102D01*
X120917205Y-105709744D01*
X120803937Y-105540226D01*
X120659774Y-105396063D01*
X120513104Y-105298061D01*
X131215000Y-105298061D01*
X131215000Y-105501939D01*
X131254774Y-105701898D01*
X131332795Y-105890256D01*
X131446063Y-106059774D01*
X131590226Y-106203937D01*
X131759744Y-106317205D01*
X131948102Y-106395226D01*
X132148061Y-106435000D01*
X132351939Y-106435000D01*
X132551898Y-106395226D01*
X132740256Y-106317205D01*
X132909774Y-106203937D01*
X133053937Y-106059774D01*
X133167205Y-105890256D01*
X133245226Y-105701898D01*
X133285000Y-105501939D01*
X133285000Y-105298061D01*
X133245226Y-105098102D01*
X133167205Y-104909744D01*
X133053937Y-104740226D01*
X133011772Y-104698061D01*
X138215000Y-104698061D01*
X138215000Y-104901939D01*
X138254774Y-105101898D01*
X138332795Y-105290256D01*
X138446063Y-105459774D01*
X138590226Y-105603937D01*
X138759744Y-105717205D01*
X138948102Y-105795226D01*
X139148061Y-105835000D01*
X139351939Y-105835000D01*
X139551898Y-105795226D01*
X139740256Y-105717205D01*
X139909774Y-105603937D01*
X140053937Y-105459774D01*
X140167205Y-105290256D01*
X140245226Y-105101898D01*
X140285000Y-104901939D01*
X140285000Y-104698061D01*
X140245226Y-104498102D01*
X140167205Y-104309744D01*
X140053937Y-104140226D01*
X139909774Y-103996063D01*
X139740256Y-103882795D01*
X139551898Y-103804774D01*
X139351939Y-103765000D01*
X139148061Y-103765000D01*
X138948102Y-103804774D01*
X138759744Y-103882795D01*
X138590226Y-103996063D01*
X138446063Y-104140226D01*
X138332795Y-104309744D01*
X138254774Y-104498102D01*
X138215000Y-104698061D01*
X133011772Y-104698061D01*
X132909774Y-104596063D01*
X132740256Y-104482795D01*
X132551898Y-104404774D01*
X132351939Y-104365000D01*
X132148061Y-104365000D01*
X131948102Y-104404774D01*
X131759744Y-104482795D01*
X131590226Y-104596063D01*
X131446063Y-104740226D01*
X131332795Y-104909744D01*
X131254774Y-105098102D01*
X131215000Y-105298061D01*
X120513104Y-105298061D01*
X120490256Y-105282795D01*
X120301898Y-105204774D01*
X120101939Y-105165000D01*
X119898061Y-105165000D01*
X119698102Y-105204774D01*
X119509744Y-105282795D01*
X119500000Y-105289306D01*
X119490256Y-105282795D01*
X119301898Y-105204774D01*
X119277897Y-105200000D01*
X119301898Y-105195226D01*
X119490256Y-105117205D01*
X119659774Y-105003937D01*
X119803937Y-104859774D01*
X119917205Y-104690256D01*
X119995226Y-104501898D01*
X120035000Y-104301939D01*
X120035000Y-104098061D01*
X119995226Y-103898102D01*
X119917205Y-103709744D01*
X119803937Y-103540226D01*
X119659774Y-103396063D01*
X119490256Y-103282795D01*
X119301898Y-103204774D01*
X119101939Y-103165000D01*
X118898061Y-103165000D01*
X118698102Y-103204774D01*
X118509744Y-103282795D01*
X118340226Y-103396063D01*
X118196063Y-103540226D01*
X118082795Y-103709744D01*
X118004774Y-103898102D01*
X117965000Y-104098061D01*
X103660000Y-104098061D01*
X103660000Y-103098061D01*
X125265000Y-103098061D01*
X125265000Y-103301939D01*
X125304774Y-103501898D01*
X125382795Y-103690256D01*
X125496063Y-103859774D01*
X125640226Y-104003937D01*
X125809744Y-104117205D01*
X125998102Y-104195226D01*
X126198061Y-104235000D01*
X126401939Y-104235000D01*
X126601898Y-104195226D01*
X126790256Y-104117205D01*
X126959774Y-104003937D01*
X127103937Y-103859774D01*
X127217205Y-103690256D01*
X127295226Y-103501898D01*
X127335000Y-103301939D01*
X127335000Y-103173061D01*
X143865000Y-103173061D01*
X143865000Y-103376939D01*
X143904774Y-103576898D01*
X143982795Y-103765256D01*
X144096063Y-103934774D01*
X144240226Y-104078937D01*
X144409744Y-104192205D01*
X144598102Y-104270226D01*
X144798061Y-104310000D01*
X145001939Y-104310000D01*
X145201898Y-104270226D01*
X145390256Y-104192205D01*
X145559774Y-104078937D01*
X145703937Y-103934774D01*
X145817205Y-103765256D01*
X145895226Y-103576898D01*
X145935000Y-103376939D01*
X145935000Y-103173061D01*
X145905164Y-103023061D01*
X151390000Y-103023061D01*
X151390000Y-103226939D01*
X151429774Y-103426898D01*
X151507795Y-103615256D01*
X151621063Y-103784774D01*
X151765226Y-103928937D01*
X151934744Y-104042205D01*
X152123102Y-104120226D01*
X152323061Y-104160000D01*
X152526939Y-104160000D01*
X152726898Y-104120226D01*
X152915256Y-104042205D01*
X153084774Y-103928937D01*
X153228937Y-103784774D01*
X153342205Y-103615256D01*
X153420226Y-103426898D01*
X153460000Y-103226939D01*
X153460000Y-103023061D01*
X153420226Y-102823102D01*
X153342205Y-102634744D01*
X153228937Y-102465226D01*
X153084774Y-102321063D01*
X152915256Y-102207795D01*
X152726898Y-102129774D01*
X152526939Y-102090000D01*
X152323061Y-102090000D01*
X152123102Y-102129774D01*
X151934744Y-102207795D01*
X151765226Y-102321063D01*
X151621063Y-102465226D01*
X151507795Y-102634744D01*
X151429774Y-102823102D01*
X151390000Y-103023061D01*
X145905164Y-103023061D01*
X145895226Y-102973102D01*
X145817205Y-102784744D01*
X145703937Y-102615226D01*
X145559774Y-102471063D01*
X145390256Y-102357795D01*
X145201898Y-102279774D01*
X145001939Y-102240000D01*
X144798061Y-102240000D01*
X144598102Y-102279774D01*
X144409744Y-102357795D01*
X144240226Y-102471063D01*
X144096063Y-102615226D01*
X143982795Y-102784744D01*
X143904774Y-102973102D01*
X143865000Y-103173061D01*
X127335000Y-103173061D01*
X127335000Y-103098061D01*
X127295226Y-102898102D01*
X127217205Y-102709744D01*
X127103937Y-102540226D01*
X126959774Y-102396063D01*
X126790256Y-102282795D01*
X126601898Y-102204774D01*
X126401939Y-102165000D01*
X126198061Y-102165000D01*
X125998102Y-102204774D01*
X125809744Y-102282795D01*
X125640226Y-102396063D01*
X125496063Y-102540226D01*
X125382795Y-102709744D01*
X125304774Y-102898102D01*
X125265000Y-103098061D01*
X103660000Y-103098061D01*
X103660000Y-100298061D01*
X104965000Y-100298061D01*
X104965000Y-100501939D01*
X105004774Y-100701898D01*
X105082795Y-100890256D01*
X105196063Y-101059774D01*
X105340226Y-101203937D01*
X105509744Y-101317205D01*
X105698102Y-101395226D01*
X105898061Y-101435000D01*
X106101939Y-101435000D01*
X106301898Y-101395226D01*
X106490256Y-101317205D01*
X106659774Y-101203937D01*
X106803937Y-101059774D01*
X106917205Y-100890256D01*
X106995226Y-100701898D01*
X107035000Y-100501939D01*
X107035000Y-100298061D01*
X106995226Y-100098102D01*
X106917205Y-99909744D01*
X106803937Y-99740226D01*
X106659774Y-99596063D01*
X106490256Y-99482795D01*
X106301898Y-99404774D01*
X106101939Y-99365000D01*
X105898061Y-99365000D01*
X105698102Y-99404774D01*
X105509744Y-99482795D01*
X105340226Y-99596063D01*
X105196063Y-99740226D01*
X105082795Y-99909744D01*
X105004774Y-100098102D01*
X104965000Y-100298061D01*
X103660000Y-100298061D01*
X103660000Y-99050000D01*
X108536928Y-99050000D01*
X108536928Y-100750000D01*
X108549188Y-100874482D01*
X108585498Y-100994180D01*
X108644463Y-101104494D01*
X108723815Y-101201185D01*
X108820506Y-101280537D01*
X108930820Y-101339502D01*
X109050518Y-101375812D01*
X109175000Y-101388072D01*
X110875000Y-101388072D01*
X110999482Y-101375812D01*
X111119180Y-101339502D01*
X111229494Y-101280537D01*
X111326185Y-101201185D01*
X111405537Y-101104494D01*
X111464502Y-100994180D01*
X111486513Y-100921620D01*
X111607285Y-101042392D01*
X111509744Y-101082795D01*
X111340226Y-101196063D01*
X111196063Y-101340226D01*
X111082795Y-101509744D01*
X111004774Y-101698102D01*
X110965000Y-101898061D01*
X110965000Y-102101939D01*
X111004774Y-102301898D01*
X111082795Y-102490256D01*
X111196063Y-102659774D01*
X111340226Y-102803937D01*
X111509744Y-102917205D01*
X111698102Y-102995226D01*
X111898061Y-103035000D01*
X112101939Y-103035000D01*
X112301898Y-102995226D01*
X112490256Y-102917205D01*
X112659774Y-102803937D01*
X112803937Y-102659774D01*
X112917205Y-102490256D01*
X112995226Y-102301898D01*
X113035000Y-102101939D01*
X113035000Y-101898061D01*
X112995226Y-101698102D01*
X112917205Y-101509744D01*
X112819472Y-101363475D01*
X112998158Y-101327932D01*
X113268411Y-101215990D01*
X113511632Y-101053475D01*
X113718475Y-100846632D01*
X113835000Y-100672240D01*
X113951525Y-100846632D01*
X114158368Y-101053475D01*
X114401589Y-101215990D01*
X114671842Y-101327932D01*
X114958740Y-101385000D01*
X115251260Y-101385000D01*
X115538158Y-101327932D01*
X115808411Y-101215990D01*
X116051632Y-101053475D01*
X116258475Y-100846632D01*
X116380195Y-100664466D01*
X116449822Y-100781355D01*
X116644731Y-100997588D01*
X116878080Y-101171641D01*
X117140901Y-101296825D01*
X117288110Y-101341476D01*
X117518000Y-101220155D01*
X117518000Y-100027000D01*
X117772000Y-100027000D01*
X117772000Y-101220155D01*
X118001890Y-101341476D01*
X118149099Y-101296825D01*
X118411920Y-101171641D01*
X118645269Y-100997588D01*
X118840178Y-100781355D01*
X118989157Y-100531252D01*
X119086481Y-100256891D01*
X118965814Y-100027000D01*
X117772000Y-100027000D01*
X117518000Y-100027000D01*
X117498000Y-100027000D01*
X117498000Y-99773000D01*
X117518000Y-99773000D01*
X117518000Y-98579845D01*
X117772000Y-98579845D01*
X117772000Y-99773000D01*
X118965814Y-99773000D01*
X119057637Y-99598061D01*
X119265000Y-99598061D01*
X119265000Y-99801939D01*
X119304774Y-100001898D01*
X119382795Y-100190256D01*
X119496063Y-100359774D01*
X119640226Y-100503937D01*
X119809744Y-100617205D01*
X119998102Y-100695226D01*
X120198061Y-100735000D01*
X120401939Y-100735000D01*
X120601898Y-100695226D01*
X120790256Y-100617205D01*
X120893737Y-100548061D01*
X126365000Y-100548061D01*
X126365000Y-100751939D01*
X126404774Y-100951898D01*
X126482795Y-101140256D01*
X126596063Y-101309774D01*
X126740226Y-101453937D01*
X126909744Y-101567205D01*
X127098102Y-101645226D01*
X127298061Y-101685000D01*
X127501939Y-101685000D01*
X127701898Y-101645226D01*
X127890256Y-101567205D01*
X128059774Y-101453937D01*
X128203937Y-101309774D01*
X128245172Y-101248061D01*
X134565000Y-101248061D01*
X134565000Y-101451939D01*
X134604774Y-101651898D01*
X134682795Y-101840256D01*
X134796063Y-102009774D01*
X134940226Y-102153937D01*
X135109744Y-102267205D01*
X135298102Y-102345226D01*
X135498061Y-102385000D01*
X135701939Y-102385000D01*
X135901898Y-102345226D01*
X136090256Y-102267205D01*
X136259774Y-102153937D01*
X136403937Y-102009774D01*
X136517205Y-101840256D01*
X136595226Y-101651898D01*
X136635000Y-101451939D01*
X136635000Y-101248061D01*
X136595226Y-101048102D01*
X136517205Y-100859744D01*
X136403937Y-100690226D01*
X136259774Y-100546063D01*
X136090256Y-100432795D01*
X135901898Y-100354774D01*
X135701939Y-100315000D01*
X135498061Y-100315000D01*
X135298102Y-100354774D01*
X135109744Y-100432795D01*
X134940226Y-100546063D01*
X134796063Y-100690226D01*
X134682795Y-100859744D01*
X134604774Y-101048102D01*
X134565000Y-101248061D01*
X128245172Y-101248061D01*
X128317205Y-101140256D01*
X128395226Y-100951898D01*
X128435000Y-100751939D01*
X128435000Y-100548061D01*
X128395226Y-100348102D01*
X128333077Y-100198061D01*
X138765000Y-100198061D01*
X138765000Y-100401939D01*
X138804774Y-100601898D01*
X138882795Y-100790256D01*
X138996063Y-100959774D01*
X139140226Y-101103937D01*
X139309744Y-101217205D01*
X139498102Y-101295226D01*
X139698061Y-101335000D01*
X139901939Y-101335000D01*
X140101898Y-101295226D01*
X140290256Y-101217205D01*
X140459774Y-101103937D01*
X140603937Y-100959774D01*
X140717205Y-100790256D01*
X140755393Y-100698061D01*
X146865000Y-100698061D01*
X146865000Y-100901939D01*
X146904774Y-101101898D01*
X146982795Y-101290256D01*
X147096063Y-101459774D01*
X147240226Y-101603937D01*
X147409744Y-101717205D01*
X147598102Y-101795226D01*
X147798061Y-101835000D01*
X148001939Y-101835000D01*
X148201898Y-101795226D01*
X148390256Y-101717205D01*
X148559774Y-101603937D01*
X148703937Y-101459774D01*
X148817205Y-101290256D01*
X148895226Y-101101898D01*
X148935000Y-100901939D01*
X148935000Y-100698061D01*
X148895226Y-100498102D01*
X148884854Y-100473061D01*
X151415000Y-100473061D01*
X151415000Y-100676939D01*
X151454774Y-100876898D01*
X151532795Y-101065256D01*
X151646063Y-101234774D01*
X151790226Y-101378937D01*
X151959744Y-101492205D01*
X152148102Y-101570226D01*
X152348061Y-101610000D01*
X152551939Y-101610000D01*
X152751898Y-101570226D01*
X152940256Y-101492205D01*
X153109774Y-101378937D01*
X153253937Y-101234774D01*
X153367205Y-101065256D01*
X153445226Y-100876898D01*
X153485000Y-100676939D01*
X153485000Y-100473061D01*
X153445226Y-100273102D01*
X153367205Y-100084744D01*
X153253937Y-99915226D01*
X153109774Y-99771063D01*
X152940256Y-99657795D01*
X152751898Y-99579774D01*
X152551939Y-99540000D01*
X152348061Y-99540000D01*
X152148102Y-99579774D01*
X151959744Y-99657795D01*
X151790226Y-99771063D01*
X151646063Y-99915226D01*
X151532795Y-100084744D01*
X151454774Y-100273102D01*
X151415000Y-100473061D01*
X148884854Y-100473061D01*
X148817205Y-100309744D01*
X148703937Y-100140226D01*
X148559774Y-99996063D01*
X148390256Y-99882795D01*
X148201898Y-99804774D01*
X148001939Y-99765000D01*
X147798061Y-99765000D01*
X147598102Y-99804774D01*
X147409744Y-99882795D01*
X147240226Y-99996063D01*
X147096063Y-100140226D01*
X146982795Y-100309744D01*
X146904774Y-100498102D01*
X146865000Y-100698061D01*
X140755393Y-100698061D01*
X140795226Y-100601898D01*
X140835000Y-100401939D01*
X140835000Y-100198061D01*
X140795226Y-99998102D01*
X140717205Y-99809744D01*
X140603937Y-99640226D01*
X140459774Y-99496063D01*
X140290256Y-99382795D01*
X140101898Y-99304774D01*
X139901939Y-99265000D01*
X139698061Y-99265000D01*
X139498102Y-99304774D01*
X139309744Y-99382795D01*
X139140226Y-99496063D01*
X138996063Y-99640226D01*
X138882795Y-99809744D01*
X138804774Y-99998102D01*
X138765000Y-100198061D01*
X128333077Y-100198061D01*
X128317205Y-100159744D01*
X128203937Y-99990226D01*
X128059774Y-99846063D01*
X127890256Y-99732795D01*
X127701898Y-99654774D01*
X127501939Y-99615000D01*
X127298061Y-99615000D01*
X127098102Y-99654774D01*
X126909744Y-99732795D01*
X126740226Y-99846063D01*
X126596063Y-99990226D01*
X126482795Y-100159744D01*
X126404774Y-100348102D01*
X126365000Y-100548061D01*
X120893737Y-100548061D01*
X120959774Y-100503937D01*
X121103937Y-100359774D01*
X121217205Y-100190256D01*
X121295226Y-100001898D01*
X121335000Y-99801939D01*
X121335000Y-99598061D01*
X121295226Y-99398102D01*
X121217205Y-99209744D01*
X121103937Y-99040226D01*
X120959774Y-98896063D01*
X120790256Y-98782795D01*
X120601898Y-98704774D01*
X120401939Y-98665000D01*
X120198061Y-98665000D01*
X119998102Y-98704774D01*
X119809744Y-98782795D01*
X119640226Y-98896063D01*
X119496063Y-99040226D01*
X119382795Y-99209744D01*
X119304774Y-99398102D01*
X119265000Y-99598061D01*
X119057637Y-99598061D01*
X119086481Y-99543109D01*
X118989157Y-99268748D01*
X118840178Y-99018645D01*
X118645269Y-98802412D01*
X118411920Y-98628359D01*
X118149099Y-98503175D01*
X118001890Y-98458524D01*
X117772000Y-98579845D01*
X117518000Y-98579845D01*
X117288110Y-98458524D01*
X117140901Y-98503175D01*
X116878080Y-98628359D01*
X116644731Y-98802412D01*
X116449822Y-99018645D01*
X116380195Y-99135534D01*
X116258475Y-98953368D01*
X116051632Y-98746525D01*
X115808411Y-98584010D01*
X115538158Y-98472068D01*
X115251260Y-98415000D01*
X114958740Y-98415000D01*
X114671842Y-98472068D01*
X114401589Y-98584010D01*
X114158368Y-98746525D01*
X113951525Y-98953368D01*
X113835000Y-99127760D01*
X113718475Y-98953368D01*
X113511632Y-98746525D01*
X113268411Y-98584010D01*
X112998158Y-98472068D01*
X112711260Y-98415000D01*
X112418740Y-98415000D01*
X112131842Y-98472068D01*
X111861589Y-98584010D01*
X111618368Y-98746525D01*
X111486513Y-98878380D01*
X111464502Y-98805820D01*
X111405537Y-98695506D01*
X111326185Y-98598815D01*
X111229494Y-98519463D01*
X111119180Y-98460498D01*
X110999482Y-98424188D01*
X110875000Y-98411928D01*
X109175000Y-98411928D01*
X109050518Y-98424188D01*
X108930820Y-98460498D01*
X108820506Y-98519463D01*
X108723815Y-98598815D01*
X108644463Y-98695506D01*
X108585498Y-98805820D01*
X108549188Y-98925518D01*
X108536928Y-99050000D01*
X103660000Y-99050000D01*
X103660000Y-98127000D01*
X107524961Y-98127000D01*
X107549737Y-98124560D01*
X107573562Y-98117333D01*
X107595518Y-98105597D01*
X107614764Y-98089803D01*
X107625187Y-98077101D01*
X156340001Y-98126333D01*
G37*
%TD.AperFunction*%
%TD*%
M02*
