%TF.GenerationSoftware,KiCad,Pcbnew,5.1.10-88a1d61d58~90~ubuntu20.04.1*%
%TF.CreationDate,2021-11-15T19:50:34+00:00*%
%TF.ProjectId,daughter_board,64617567-6874-4657-925f-626f6172642e,rev?*%
%TF.SameCoordinates,Original*%
%TF.FileFunction,Copper,L4,Bot*%
%TF.FilePolarity,Positive*%
%FSLAX46Y46*%
G04 Gerber Fmt 4.6, Leading zero omitted, Abs format (unit mm)*
G04 Created by KiCad (PCBNEW 5.1.10-88a1d61d58~90~ubuntu20.04.1) date 2021-11-15 19:50:34*
%MOMM*%
%LPD*%
G01*
G04 APERTURE LIST*
%TA.AperFunction,ComponentPad*%
%ADD10O,1.700000X1.700000*%
%TD*%
%TA.AperFunction,ComponentPad*%
%ADD11R,1.700000X1.700000*%
%TD*%
%TA.AperFunction,ComponentPad*%
%ADD12O,1.750000X1.200000*%
%TD*%
%TA.AperFunction,ComponentPad*%
%ADD13O,1.600000X1.600000*%
%TD*%
%TA.AperFunction,ComponentPad*%
%ADD14C,1.600000*%
%TD*%
%TA.AperFunction,ComponentPad*%
%ADD15C,4.700000*%
%TD*%
%TA.AperFunction,SMDPad,CuDef*%
%ADD16R,2.500000X5.100000*%
%TD*%
%TA.AperFunction,SMDPad,CuDef*%
%ADD17C,17.800000*%
%TD*%
%TA.AperFunction,SMDPad,CuDef*%
%ADD18R,1.219200X0.914400*%
%TD*%
%TA.AperFunction,ComponentPad*%
%ADD19O,1.000000X1.000000*%
%TD*%
%TA.AperFunction,ComponentPad*%
%ADD20R,1.000000X1.000000*%
%TD*%
%TA.AperFunction,ViaPad*%
%ADD21C,0.800000*%
%TD*%
%TA.AperFunction,Conductor*%
%ADD22C,0.250000*%
%TD*%
%TA.AperFunction,Conductor*%
%ADD23C,0.254000*%
%TD*%
%TA.AperFunction,Conductor*%
%ADD24C,0.150000*%
%TD*%
G04 APERTURE END LIST*
D10*
%TO.P,AHT10,4*%
%TO.N,/SDA*%
X113420000Y-113200000D03*
%TO.P,AHT10,3*%
%TO.N,/SCL*%
X110880000Y-113200000D03*
%TO.P,AHT10,2*%
%TO.N,GND*%
X108340000Y-113200000D03*
D11*
%TO.P,AHT10,1*%
%TO.N,VDD*%
X105800000Y-113200000D03*
%TD*%
D12*
%TO.P,J5,2*%
%TO.N,/VBAT*%
X153490000Y-123730000D03*
%TO.P,J5,1*%
%TO.N,GND*%
%TA.AperFunction,ComponentPad*%
G36*
G01*
X154115001Y-126330000D02*
X152864999Y-126330000D01*
G75*
G02*
X152615000Y-126080001I0J249999D01*
G01*
X152615000Y-125379999D01*
G75*
G02*
X152864999Y-125130000I249999J0D01*
G01*
X154115001Y-125130000D01*
G75*
G02*
X154365000Y-125379999I0J-249999D01*
G01*
X154365000Y-126080001D01*
G75*
G02*
X154115001Y-126330000I-249999J0D01*
G01*
G37*
%TD.AperFunction*%
%TD*%
D13*
%TO.P,SW3,2*%
%TO.N,GND*%
X126240000Y-131420000D03*
D14*
%TO.P,SW3,1*%
%TO.N,/DIO_23*%
X146560000Y-131420000D03*
%TD*%
D15*
%TO.P,H4,1*%
%TO.N,N/C*%
X153970000Y-131090000D03*
%TD*%
%TO.P,H3,1*%
%TO.N,N/C*%
X106000000Y-131000000D03*
%TD*%
%TO.P,H2,1*%
%TO.N,N/C*%
X153980000Y-94050000D03*
%TD*%
%TO.P,H1,1*%
%TO.N,N/C*%
X106000000Y-94070000D03*
%TD*%
D10*
%TO.P,J4,3*%
%TO.N,GND*%
X127320000Y-122800000D03*
%TO.P,J4,2*%
%TO.N,/DIO_23*%
X129860000Y-122800000D03*
D11*
%TO.P,J4,1*%
%TO.N,VDD*%
X132400000Y-122800000D03*
%TD*%
%TO.P,C4,2*%
%TO.N,GND*%
%TA.AperFunction,SMDPad,CuDef*%
G36*
G01*
X153975000Y-108725000D02*
X153025000Y-108725000D01*
G75*
G02*
X152775000Y-108475000I0J250000D01*
G01*
X152775000Y-107975000D01*
G75*
G02*
X153025000Y-107725000I250000J0D01*
G01*
X153975000Y-107725000D01*
G75*
G02*
X154225000Y-107975000I0J-250000D01*
G01*
X154225000Y-108475000D01*
G75*
G02*
X153975000Y-108725000I-250000J0D01*
G01*
G37*
%TD.AperFunction*%
%TO.P,C4,1*%
%TO.N,/VBAT*%
%TA.AperFunction,SMDPad,CuDef*%
G36*
G01*
X153975000Y-110625000D02*
X153025000Y-110625000D01*
G75*
G02*
X152775000Y-110375000I0J250000D01*
G01*
X152775000Y-109875000D01*
G75*
G02*
X153025000Y-109625000I250000J0D01*
G01*
X153975000Y-109625000D01*
G75*
G02*
X154225000Y-109875000I0J-250000D01*
G01*
X154225000Y-110375000D01*
G75*
G02*
X153975000Y-110625000I-250000J0D01*
G01*
G37*
%TD.AperFunction*%
%TD*%
%TO.P,C1,2*%
%TO.N,GND*%
%TA.AperFunction,SMDPad,CuDef*%
G36*
G01*
X110350000Y-108525000D02*
X110350000Y-109475000D01*
G75*
G02*
X110100000Y-109725000I-250000J0D01*
G01*
X109600000Y-109725000D01*
G75*
G02*
X109350000Y-109475000I0J250000D01*
G01*
X109350000Y-108525000D01*
G75*
G02*
X109600000Y-108275000I250000J0D01*
G01*
X110100000Y-108275000D01*
G75*
G02*
X110350000Y-108525000I0J-250000D01*
G01*
G37*
%TD.AperFunction*%
%TO.P,C1,1*%
%TO.N,VDD*%
%TA.AperFunction,SMDPad,CuDef*%
G36*
G01*
X112250000Y-108525000D02*
X112250000Y-109475000D01*
G75*
G02*
X112000000Y-109725000I-250000J0D01*
G01*
X111500000Y-109725000D01*
G75*
G02*
X111250000Y-109475000I0J250000D01*
G01*
X111250000Y-108525000D01*
G75*
G02*
X111500000Y-108275000I250000J0D01*
G01*
X112000000Y-108275000D01*
G75*
G02*
X112250000Y-108525000I0J-250000D01*
G01*
G37*
%TD.AperFunction*%
%TD*%
D16*
%TO.P,BT1,2*%
%TO.N,/VBAT*%
X124575000Y-107925000D03*
X147475000Y-107925000D03*
D17*
%TO.P,BT1,1*%
%TO.N,GND*%
X136025000Y-107925000D03*
%TD*%
%TO.P,C6,2*%
%TO.N,GND*%
%TA.AperFunction,SMDPad,CuDef*%
G36*
G01*
X151975000Y-108725000D02*
X151025000Y-108725000D01*
G75*
G02*
X150775000Y-108475000I0J250000D01*
G01*
X150775000Y-107975000D01*
G75*
G02*
X151025000Y-107725000I250000J0D01*
G01*
X151975000Y-107725000D01*
G75*
G02*
X152225000Y-107975000I0J-250000D01*
G01*
X152225000Y-108475000D01*
G75*
G02*
X151975000Y-108725000I-250000J0D01*
G01*
G37*
%TD.AperFunction*%
%TO.P,C6,1*%
%TO.N,/VBAT*%
%TA.AperFunction,SMDPad,CuDef*%
G36*
G01*
X151975000Y-110625000D02*
X151025000Y-110625000D01*
G75*
G02*
X150775000Y-110375000I0J250000D01*
G01*
X150775000Y-109875000D01*
G75*
G02*
X151025000Y-109625000I250000J0D01*
G01*
X151975000Y-109625000D01*
G75*
G02*
X152225000Y-109875000I0J-250000D01*
G01*
X152225000Y-110375000D01*
G75*
G02*
X151975000Y-110625000I-250000J0D01*
G01*
G37*
%TD.AperFunction*%
%TD*%
%TO.P,U1,8*%
%TO.N,VDD*%
%TA.AperFunction,SMDPad,CuDef*%
G36*
G01*
X113545000Y-108200000D02*
X113845000Y-108200000D01*
G75*
G02*
X113995000Y-108350000I0J-150000D01*
G01*
X113995000Y-109700000D01*
G75*
G02*
X113845000Y-109850000I-150000J0D01*
G01*
X113545000Y-109850000D01*
G75*
G02*
X113395000Y-109700000I0J150000D01*
G01*
X113395000Y-108350000D01*
G75*
G02*
X113545000Y-108200000I150000J0D01*
G01*
G37*
%TD.AperFunction*%
%TO.P,U1,7*%
%TO.N,N/C*%
%TA.AperFunction,SMDPad,CuDef*%
G36*
G01*
X114815000Y-108200000D02*
X115115000Y-108200000D01*
G75*
G02*
X115265000Y-108350000I0J-150000D01*
G01*
X115265000Y-109700000D01*
G75*
G02*
X115115000Y-109850000I-150000J0D01*
G01*
X114815000Y-109850000D01*
G75*
G02*
X114665000Y-109700000I0J150000D01*
G01*
X114665000Y-108350000D01*
G75*
G02*
X114815000Y-108200000I150000J0D01*
G01*
G37*
%TD.AperFunction*%
%TO.P,U1,6*%
%TO.N,/SPI_SCLK*%
%TA.AperFunction,SMDPad,CuDef*%
G36*
G01*
X116085000Y-108200000D02*
X116385000Y-108200000D01*
G75*
G02*
X116535000Y-108350000I0J-150000D01*
G01*
X116535000Y-109700000D01*
G75*
G02*
X116385000Y-109850000I-150000J0D01*
G01*
X116085000Y-109850000D01*
G75*
G02*
X115935000Y-109700000I0J150000D01*
G01*
X115935000Y-108350000D01*
G75*
G02*
X116085000Y-108200000I150000J0D01*
G01*
G37*
%TD.AperFunction*%
%TO.P,U1,5*%
%TO.N,/SPI_MOSI*%
%TA.AperFunction,SMDPad,CuDef*%
G36*
G01*
X117355000Y-108200000D02*
X117655000Y-108200000D01*
G75*
G02*
X117805000Y-108350000I0J-150000D01*
G01*
X117805000Y-109700000D01*
G75*
G02*
X117655000Y-109850000I-150000J0D01*
G01*
X117355000Y-109850000D01*
G75*
G02*
X117205000Y-109700000I0J150000D01*
G01*
X117205000Y-108350000D01*
G75*
G02*
X117355000Y-108200000I150000J0D01*
G01*
G37*
%TD.AperFunction*%
%TO.P,U1,4*%
%TO.N,GND*%
%TA.AperFunction,SMDPad,CuDef*%
G36*
G01*
X117355000Y-102950000D02*
X117655000Y-102950000D01*
G75*
G02*
X117805000Y-103100000I0J-150000D01*
G01*
X117805000Y-104450000D01*
G75*
G02*
X117655000Y-104600000I-150000J0D01*
G01*
X117355000Y-104600000D01*
G75*
G02*
X117205000Y-104450000I0J150000D01*
G01*
X117205000Y-103100000D01*
G75*
G02*
X117355000Y-102950000I150000J0D01*
G01*
G37*
%TD.AperFunction*%
%TO.P,U1,3*%
%TO.N,N/C*%
%TA.AperFunction,SMDPad,CuDef*%
G36*
G01*
X116085000Y-102950000D02*
X116385000Y-102950000D01*
G75*
G02*
X116535000Y-103100000I0J-150000D01*
G01*
X116535000Y-104450000D01*
G75*
G02*
X116385000Y-104600000I-150000J0D01*
G01*
X116085000Y-104600000D01*
G75*
G02*
X115935000Y-104450000I0J150000D01*
G01*
X115935000Y-103100000D01*
G75*
G02*
X116085000Y-102950000I150000J0D01*
G01*
G37*
%TD.AperFunction*%
%TO.P,U1,2*%
%TO.N,/SPI_MISO*%
%TA.AperFunction,SMDPad,CuDef*%
G36*
G01*
X114815000Y-102950000D02*
X115115000Y-102950000D01*
G75*
G02*
X115265000Y-103100000I0J-150000D01*
G01*
X115265000Y-104450000D01*
G75*
G02*
X115115000Y-104600000I-150000J0D01*
G01*
X114815000Y-104600000D01*
G75*
G02*
X114665000Y-104450000I0J150000D01*
G01*
X114665000Y-103100000D01*
G75*
G02*
X114815000Y-102950000I150000J0D01*
G01*
G37*
%TD.AperFunction*%
%TO.P,U1,1*%
%TO.N,/FLASH_CS*%
%TA.AperFunction,SMDPad,CuDef*%
G36*
G01*
X113545000Y-102950000D02*
X113845000Y-102950000D01*
G75*
G02*
X113995000Y-103100000I0J-150000D01*
G01*
X113995000Y-104450000D01*
G75*
G02*
X113845000Y-104600000I-150000J0D01*
G01*
X113545000Y-104600000D01*
G75*
G02*
X113395000Y-104450000I0J150000D01*
G01*
X113395000Y-103100000D01*
G75*
G02*
X113545000Y-102950000I150000J0D01*
G01*
G37*
%TD.AperFunction*%
%TD*%
D18*
%TO.P,D5,1*%
%TO.N,/VBAT*%
X155250000Y-110188300D03*
%TO.P,D5,2*%
%TO.N,VDD*%
X155250000Y-106911700D03*
%TD*%
D19*
%TO.P,J3,10*%
%TO.N,/XDS_RESET*%
X148210000Y-117420000D03*
%TO.P,J3,9*%
%TO.N,GND*%
X149480000Y-117420000D03*
%TO.P,J3,8*%
%TO.N,/XDS_TDI*%
X148210000Y-118690000D03*
%TO.P,J3,7*%
%TO.N,N/C*%
X149480000Y-118690000D03*
%TO.P,J3,6*%
%TO.N,/XDS_TDO*%
X148210000Y-119960000D03*
%TO.P,J3,5*%
%TO.N,GND*%
X149480000Y-119960000D03*
%TO.P,J3,4*%
%TO.N,/XDS_TCK*%
X148210000Y-121230000D03*
%TO.P,J3,3*%
%TO.N,GND*%
X149480000Y-121230000D03*
%TO.P,J3,2*%
%TO.N,/XDS-TMS*%
X148210000Y-122500000D03*
D20*
%TO.P,J3,1*%
%TO.N,VCC*%
X149480000Y-122500000D03*
%TD*%
%TO.P,R3,2*%
%TO.N,/FLASH_CS*%
%TA.AperFunction,SMDPad,CuDef*%
G36*
G01*
X111850002Y-104200000D02*
X110949998Y-104200000D01*
G75*
G02*
X110700000Y-103950002I0J249998D01*
G01*
X110700000Y-103424998D01*
G75*
G02*
X110949998Y-103175000I249998J0D01*
G01*
X111850002Y-103175000D01*
G75*
G02*
X112100000Y-103424998I0J-249998D01*
G01*
X112100000Y-103950002D01*
G75*
G02*
X111850002Y-104200000I-249998J0D01*
G01*
G37*
%TD.AperFunction*%
%TO.P,R3,1*%
%TO.N,VDD*%
%TA.AperFunction,SMDPad,CuDef*%
G36*
G01*
X111850002Y-106025000D02*
X110949998Y-106025000D01*
G75*
G02*
X110700000Y-105775002I0J249998D01*
G01*
X110700000Y-105249998D01*
G75*
G02*
X110949998Y-105000000I249998J0D01*
G01*
X111850002Y-105000000D01*
G75*
G02*
X112100000Y-105249998I0J-249998D01*
G01*
X112100000Y-105775002D01*
G75*
G02*
X111850002Y-106025000I-249998J0D01*
G01*
G37*
%TD.AperFunction*%
%TD*%
%TO.P,R2,2*%
%TO.N,Net-(R2-Pad2)*%
%TA.AperFunction,SMDPad,CuDef*%
G36*
G01*
X128625000Y-118649998D02*
X128625000Y-119550002D01*
G75*
G02*
X128375002Y-119800000I-249998J0D01*
G01*
X127849998Y-119800000D01*
G75*
G02*
X127600000Y-119550002I0J249998D01*
G01*
X127600000Y-118649998D01*
G75*
G02*
X127849998Y-118400000I249998J0D01*
G01*
X128375002Y-118400000D01*
G75*
G02*
X128625000Y-118649998I0J-249998D01*
G01*
G37*
%TD.AperFunction*%
%TO.P,R2,1*%
%TO.N,Net-(R2-Pad1)*%
%TA.AperFunction,SMDPad,CuDef*%
G36*
G01*
X130450000Y-118649998D02*
X130450000Y-119550002D01*
G75*
G02*
X130200002Y-119800000I-249998J0D01*
G01*
X129674998Y-119800000D01*
G75*
G02*
X129425000Y-119550002I0J249998D01*
G01*
X129425000Y-118649998D01*
G75*
G02*
X129674998Y-118400000I249998J0D01*
G01*
X130200002Y-118400000D01*
G75*
G02*
X130450000Y-118649998I0J-249998D01*
G01*
G37*
%TD.AperFunction*%
%TD*%
D10*
%TO.P,J1,4*%
%TO.N,VDD*%
X117645000Y-99900000D03*
%TO.P,J1,3*%
%TO.N,/UART_RXD*%
X115105000Y-99900000D03*
%TO.P,J1,2*%
%TO.N,/UART_TXD*%
X112565000Y-99900000D03*
D11*
%TO.P,J1,1*%
%TO.N,GND*%
X110025000Y-99900000D03*
%TD*%
D21*
%TO.N,GND*%
X142200000Y-129600000D03*
X115000000Y-118400000D03*
X124400000Y-121800000D03*
X106200000Y-106000000D03*
X112000000Y-102000000D03*
X110600000Y-123800000D03*
X114000000Y-106000000D03*
X117570000Y-119670000D03*
X120200000Y-125800000D03*
X125800000Y-127400000D03*
X133240000Y-131590000D03*
X139620000Y-131280000D03*
X149790000Y-131250000D03*
X146800000Y-126940000D03*
X140030000Y-126370000D03*
X141710000Y-122870000D03*
X135600000Y-122730000D03*
X154720000Y-116270000D03*
X152200000Y-120600000D03*
X147000000Y-113290000D03*
X149320000Y-113290000D03*
X119000000Y-104200000D03*
X117800000Y-114800000D03*
X107600000Y-110600000D03*
X152450000Y-100575000D03*
X127400000Y-100650000D03*
X106000000Y-100400000D03*
X135600000Y-101350000D03*
X129175000Y-111075000D03*
X136450000Y-111075000D03*
X144900000Y-103275000D03*
X152425000Y-103125000D03*
X132250000Y-105400000D03*
X139250000Y-104800000D03*
X139000000Y-108600000D03*
X128800000Y-107700000D03*
X126300000Y-103200000D03*
X120300000Y-99700000D03*
X147900000Y-100800000D03*
X139800000Y-100300000D03*
X135200000Y-126400000D03*
X129400000Y-126400000D03*
X111400000Y-131000000D03*
X113200000Y-127200000D03*
%TO.N,Net-(R2-Pad2)*%
X126450000Y-119100000D03*
%TO.N,/SPI_SCLK*%
X116200000Y-110600000D03*
%TO.N,/SPI_MOSI*%
X117600000Y-110600000D03*
%TO.N,/SPI_MISO*%
X120820000Y-109220000D03*
%TO.N,/FLASH_CS*%
X138575000Y-118525000D03*
%TO.N,/SDA*%
X120000000Y-106200000D03*
%TO.N,/SCL*%
X119000000Y-106200000D03*
%TO.N,VDD*%
X111400000Y-110600000D03*
X123912500Y-124487500D03*
X149200000Y-104000000D03*
X153800000Y-106800000D03*
X151870000Y-111730000D03*
%TO.N,Net-(R2-Pad1)*%
X155675000Y-115375000D03*
%TO.N,/DIO_23*%
X144260000Y-118070000D03*
X144260000Y-122990000D03*
%TO.N,/DIO_24*%
X145130000Y-117190000D03*
X123300000Y-129170000D03*
%TO.N,/VBAT*%
X146130000Y-123640000D03*
X146130000Y-117820000D03*
X146590000Y-111550000D03*
%TD*%
D22*
%TO.N,GND*%
X135300000Y-107925000D02*
X136025000Y-107925000D01*
X136325000Y-107925000D02*
X136025000Y-107925000D01*
X153500000Y-108225000D02*
X154205000Y-108930000D01*
X155308802Y-108930000D02*
X156400000Y-107838802D01*
X154205000Y-108930000D02*
X155308802Y-108930000D01*
X153043102Y-103125000D02*
X152425000Y-103125000D01*
X156400000Y-106481898D02*
X153043102Y-103125000D01*
X156400000Y-107838802D02*
X156400000Y-106481898D01*
X155308802Y-108930000D02*
X155500000Y-108930000D01*
X155500000Y-108930000D02*
X156410000Y-109840000D01*
X156410000Y-109840000D02*
X156410000Y-111350000D01*
X154470000Y-113290000D02*
X149320000Y-113290000D01*
X156410000Y-111350000D02*
X154470000Y-113290000D01*
%TO.N,Net-(R2-Pad2)*%
X128112500Y-119100000D02*
X126450000Y-119100000D01*
%TO.N,/SPI_SCLK*%
X116200000Y-109060000D02*
X116235000Y-109025000D01*
X116200000Y-110600000D02*
X116200000Y-109060000D01*
%TO.N,/SPI_MOSI*%
X117600000Y-109120000D02*
X117505000Y-109025000D01*
X117600000Y-110600000D02*
X117600000Y-109120000D01*
%TO.N,/SPI_MISO*%
X114965000Y-104365000D02*
X114965000Y-103775000D01*
X120820000Y-106006198D02*
X120800000Y-105986198D01*
X120820000Y-109220000D02*
X120820000Y-106006198D01*
X120800000Y-105986198D02*
X120800000Y-105800000D01*
X114965000Y-104600000D02*
X114965000Y-103775000D01*
X115879999Y-105514999D02*
X114965000Y-104600000D01*
X120514999Y-105514999D02*
X115879999Y-105514999D01*
X120800000Y-105800000D02*
X120514999Y-105514999D01*
%TO.N,/FLASH_CS*%
X114445000Y-102200000D02*
X113695000Y-102950000D01*
X119813802Y-102600000D02*
X119800000Y-102600000D01*
X113695000Y-102950000D02*
X113695000Y-103775000D01*
X122400000Y-105186198D02*
X119813802Y-102600000D01*
X119400000Y-102200000D02*
X114445000Y-102200000D01*
X122400000Y-111600000D02*
X122400000Y-105186198D01*
X124860000Y-114060000D02*
X122400000Y-111600000D01*
X119800000Y-102600000D02*
X119400000Y-102200000D01*
X124860000Y-119485000D02*
X124860000Y-114060000D01*
X126200000Y-120825000D02*
X124860000Y-119485000D01*
X130550000Y-120825000D02*
X126200000Y-120825000D01*
X132850000Y-118525000D02*
X130550000Y-120825000D01*
X138575000Y-118525000D02*
X132850000Y-118525000D01*
X113607500Y-103687500D02*
X113695000Y-103775000D01*
X111400000Y-103687500D02*
X113607500Y-103687500D01*
%TO.N,/SDA*%
X120000000Y-106200000D02*
X120000000Y-110200000D01*
X114105001Y-112514999D02*
X113420000Y-113200000D01*
X117685001Y-112514999D02*
X114105001Y-112514999D01*
X120000000Y-110200000D02*
X117685001Y-112514999D01*
%TO.N,/SCL*%
X119000000Y-106200000D02*
X118600000Y-106600000D01*
X118600000Y-110613802D02*
X117813802Y-111400000D01*
X118600000Y-106600000D02*
X118600000Y-110613802D01*
X112680000Y-111400000D02*
X110880000Y-113200000D01*
X117813802Y-111400000D02*
X112680000Y-111400000D01*
%TO.N,VDD*%
X111400000Y-105512500D02*
X111400000Y-106400000D01*
X111750000Y-106750000D02*
X111750000Y-109000000D01*
X111400000Y-106400000D02*
X111750000Y-106750000D01*
X113670000Y-109000000D02*
X113695000Y-109025000D01*
X111750000Y-109000000D02*
X113670000Y-109000000D01*
X111750000Y-109000000D02*
X111750000Y-110250000D01*
X111750000Y-110250000D02*
X111400000Y-110600000D01*
X153911700Y-106911700D02*
X153800000Y-106800000D01*
X155250000Y-106911700D02*
X153911700Y-106911700D01*
%TO.N,Net-(R2-Pad1)*%
X130900000Y-119100000D02*
X129937500Y-119100000D01*
X132500000Y-117500000D02*
X130900000Y-119100000D01*
X141450000Y-117500000D02*
X132500000Y-117500000D01*
X143575000Y-115375000D02*
X141450000Y-117500000D01*
X155675000Y-115375000D02*
X143575000Y-115375000D01*
%TO.N,/DIO_23*%
X144260000Y-118070000D02*
X144260000Y-122990000D01*
X144260000Y-122990000D02*
X142890000Y-124360000D01*
X129860000Y-122800000D02*
X129800000Y-122800000D01*
X129800000Y-122800000D02*
X129800000Y-123400000D01*
X130760000Y-124360000D02*
X142890000Y-124360000D01*
X129800000Y-123400000D02*
X130760000Y-124360000D01*
%TO.N,/DIO_24*%
X145130000Y-123133802D02*
X143243802Y-125020000D01*
X145130000Y-117190000D02*
X145130000Y-123133802D01*
X143243802Y-125020000D02*
X128416198Y-125020000D01*
X126493802Y-125020000D02*
X123990000Y-127523802D01*
X128416198Y-125020000D02*
X126493802Y-125020000D01*
X123990000Y-127523802D02*
X123976198Y-127523802D01*
X123976198Y-127523802D02*
X123300000Y-128200000D01*
X123300000Y-128200000D02*
X123300000Y-129170000D01*
%TO.N,/VBAT*%
X149280850Y-108344150D02*
X151050000Y-110113300D01*
X151061700Y-110125000D02*
X151050000Y-110113300D01*
X149280850Y-108344150D02*
X147894150Y-108344150D01*
X147894150Y-108344150D02*
X147475000Y-107925000D01*
X147594150Y-108044150D02*
X147475000Y-107925000D01*
X152950000Y-110125000D02*
X151061700Y-110125000D01*
X153050000Y-110250000D02*
X154875000Y-110250000D01*
X146130000Y-123640000D02*
X146130000Y-117820000D01*
X147475000Y-110665000D02*
X147475000Y-107925000D01*
X146590000Y-111550000D02*
X147475000Y-110665000D01*
%TD*%
D23*
%TO.N,GND*%
X156340001Y-106038914D02*
X156310785Y-106003315D01*
X156214094Y-105923963D01*
X156103780Y-105864998D01*
X155984082Y-105828688D01*
X155859600Y-105816428D01*
X154640400Y-105816428D01*
X154515918Y-105828688D01*
X154396220Y-105864998D01*
X154322552Y-105904375D01*
X154290256Y-105882795D01*
X154101898Y-105804774D01*
X153901939Y-105765000D01*
X153698061Y-105765000D01*
X153498102Y-105804774D01*
X153309744Y-105882795D01*
X153140226Y-105996063D01*
X152996063Y-106140226D01*
X152882795Y-106309744D01*
X152804774Y-106498102D01*
X152765000Y-106698061D01*
X152765000Y-106901939D01*
X152801834Y-107087116D01*
X152775000Y-107086928D01*
X152650518Y-107099188D01*
X152530820Y-107135498D01*
X152500000Y-107151972D01*
X152469180Y-107135498D01*
X152349482Y-107099188D01*
X152225000Y-107086928D01*
X151785750Y-107090000D01*
X151627000Y-107248750D01*
X151627000Y-108098000D01*
X153373000Y-108098000D01*
X153373000Y-108078000D01*
X153627000Y-108078000D01*
X153627000Y-108098000D01*
X154701250Y-108098000D01*
X154792278Y-108006972D01*
X155859600Y-108006972D01*
X155984082Y-107994712D01*
X156103780Y-107958402D01*
X156214094Y-107899437D01*
X156310785Y-107820085D01*
X156340001Y-107784486D01*
X156340001Y-109315514D01*
X156310785Y-109279915D01*
X156214094Y-109200563D01*
X156103780Y-109141598D01*
X155984082Y-109105288D01*
X155859600Y-109093028D01*
X154744430Y-109093028D01*
X154755537Y-109079494D01*
X154814502Y-108969180D01*
X154850812Y-108849482D01*
X154863072Y-108725000D01*
X154860000Y-108510750D01*
X154701250Y-108352000D01*
X153627000Y-108352000D01*
X153627000Y-108372000D01*
X153373000Y-108372000D01*
X153373000Y-108352000D01*
X151627000Y-108352000D01*
X151627000Y-108372000D01*
X151373000Y-108372000D01*
X151373000Y-108352000D01*
X151353000Y-108352000D01*
X151353000Y-108098000D01*
X151373000Y-108098000D01*
X151373000Y-107248750D01*
X151214250Y-107090000D01*
X150775000Y-107086928D01*
X150650518Y-107099188D01*
X150530820Y-107135498D01*
X150420506Y-107194463D01*
X150323815Y-107273815D01*
X150244463Y-107370506D01*
X150185498Y-107480820D01*
X150149188Y-107600518D01*
X150136928Y-107725000D01*
X150140000Y-107939250D01*
X150298748Y-108097998D01*
X150140000Y-108097998D01*
X150140000Y-108128499D01*
X149844654Y-107833153D01*
X149820851Y-107804149D01*
X149705126Y-107709176D01*
X149573097Y-107638604D01*
X149429836Y-107595147D01*
X149363072Y-107588571D01*
X149363072Y-105375000D01*
X149350812Y-105250518D01*
X149314502Y-105130820D01*
X149263284Y-105035000D01*
X149301939Y-105035000D01*
X149501898Y-104995226D01*
X149690256Y-104917205D01*
X149859774Y-104803937D01*
X150003937Y-104659774D01*
X150117205Y-104490256D01*
X150195226Y-104301898D01*
X150235000Y-104101939D01*
X150235000Y-103898061D01*
X150195226Y-103698102D01*
X150117205Y-103509744D01*
X150003937Y-103340226D01*
X149859774Y-103196063D01*
X149690256Y-103082795D01*
X149501898Y-103004774D01*
X149301939Y-102965000D01*
X149098061Y-102965000D01*
X148898102Y-103004774D01*
X148709744Y-103082795D01*
X148540226Y-103196063D01*
X148396063Y-103340226D01*
X148282795Y-103509744D01*
X148204774Y-103698102D01*
X148165000Y-103898061D01*
X148165000Y-104101939D01*
X148204774Y-104301898D01*
X148282795Y-104490256D01*
X148396063Y-104659774D01*
X148473217Y-104736928D01*
X146225000Y-104736928D01*
X146100518Y-104749188D01*
X145980820Y-104785498D01*
X145870506Y-104844463D01*
X145773815Y-104923815D01*
X145694463Y-105020506D01*
X145635498Y-105130820D01*
X145599188Y-105250518D01*
X145586928Y-105375000D01*
X145586928Y-107953345D01*
X145467478Y-106300875D01*
X144969192Y-104489946D01*
X144127186Y-102811024D01*
X143850270Y-102396590D01*
X142776830Y-101352775D01*
X136204605Y-107925000D01*
X142776830Y-114497225D01*
X143850270Y-113453410D01*
X144778449Y-111820549D01*
X145370238Y-110037984D01*
X145586928Y-108302119D01*
X145586928Y-110475000D01*
X145599188Y-110599482D01*
X145635498Y-110719180D01*
X145694463Y-110829494D01*
X145767322Y-110918274D01*
X145672795Y-111059744D01*
X145594774Y-111248102D01*
X145555000Y-111448061D01*
X145555000Y-111651939D01*
X145594774Y-111851898D01*
X145672795Y-112040256D01*
X145786063Y-112209774D01*
X145930226Y-112353937D01*
X146099744Y-112467205D01*
X146288102Y-112545226D01*
X146488061Y-112585000D01*
X146691939Y-112585000D01*
X146891898Y-112545226D01*
X147080256Y-112467205D01*
X147249774Y-112353937D01*
X147393937Y-112209774D01*
X147507205Y-112040256D01*
X147585226Y-111851898D01*
X147625000Y-111651939D01*
X147625000Y-111589802D01*
X147986004Y-111228798D01*
X148015001Y-111205001D01*
X148080062Y-111125724D01*
X148090446Y-111113072D01*
X148725000Y-111113072D01*
X148849482Y-111100812D01*
X148969180Y-111064502D01*
X149079494Y-111005537D01*
X149176185Y-110926185D01*
X149255537Y-110829494D01*
X149314502Y-110719180D01*
X149350812Y-110599482D01*
X149363072Y-110475000D01*
X149363072Y-109501173D01*
X150136928Y-110275030D01*
X150136928Y-110375000D01*
X150153992Y-110548254D01*
X150204528Y-110714850D01*
X150286595Y-110868386D01*
X150397038Y-111002962D01*
X150531614Y-111113405D01*
X150685150Y-111195472D01*
X150851746Y-111246008D01*
X150946341Y-111255325D01*
X150874774Y-111428102D01*
X150835000Y-111628061D01*
X150835000Y-111831939D01*
X150874774Y-112031898D01*
X150952795Y-112220256D01*
X151066063Y-112389774D01*
X151210226Y-112533937D01*
X151379744Y-112647205D01*
X151568102Y-112725226D01*
X151768061Y-112765000D01*
X151971939Y-112765000D01*
X152171898Y-112725226D01*
X152360256Y-112647205D01*
X152529774Y-112533937D01*
X152673937Y-112389774D01*
X152787205Y-112220256D01*
X152865226Y-112031898D01*
X152905000Y-111831939D01*
X152905000Y-111628061D01*
X152865226Y-111428102D01*
X152787205Y-111239744D01*
X152776047Y-111223045D01*
X152851746Y-111246008D01*
X153025000Y-111263072D01*
X153975000Y-111263072D01*
X154148254Y-111246008D01*
X154314850Y-111195472D01*
X154318558Y-111193490D01*
X154396220Y-111235002D01*
X154515918Y-111271312D01*
X154640400Y-111283572D01*
X155859600Y-111283572D01*
X155984082Y-111271312D01*
X156103780Y-111235002D01*
X156214094Y-111176037D01*
X156310785Y-111096685D01*
X156340001Y-111061086D01*
X156340000Y-114576289D01*
X156334774Y-114571063D01*
X156165256Y-114457795D01*
X155976898Y-114379774D01*
X155776939Y-114340000D01*
X155573061Y-114340000D01*
X155373102Y-114379774D01*
X155184744Y-114457795D01*
X155015226Y-114571063D01*
X154971289Y-114615000D01*
X143612323Y-114615000D01*
X143575000Y-114611324D01*
X143537677Y-114615000D01*
X143537667Y-114615000D01*
X143426014Y-114625997D01*
X143282753Y-114669454D01*
X143150724Y-114740026D01*
X143034999Y-114834999D01*
X143011201Y-114863997D01*
X141135199Y-116740000D01*
X139717657Y-116740000D01*
X141138976Y-116027186D01*
X141553410Y-115750270D01*
X142597225Y-114676830D01*
X136025000Y-108104605D01*
X129452775Y-114676830D01*
X130496590Y-115750270D01*
X132129451Y-116678449D01*
X132349427Y-116751478D01*
X132207753Y-116794454D01*
X132075724Y-116865026D01*
X131959999Y-116959999D01*
X131936201Y-116988997D01*
X130861858Y-118063341D01*
X130827962Y-118022038D01*
X130693387Y-117911595D01*
X130539852Y-117829528D01*
X130373256Y-117778992D01*
X130200002Y-117761928D01*
X129674998Y-117761928D01*
X129501744Y-117778992D01*
X129335148Y-117829528D01*
X129181613Y-117911595D01*
X129047038Y-118022038D01*
X129025000Y-118048891D01*
X129002962Y-118022038D01*
X128868387Y-117911595D01*
X128714852Y-117829528D01*
X128548256Y-117778992D01*
X128375002Y-117761928D01*
X127849998Y-117761928D01*
X127676744Y-117778992D01*
X127510148Y-117829528D01*
X127356613Y-117911595D01*
X127222038Y-118022038D01*
X127111595Y-118156613D01*
X127056193Y-118260262D01*
X126940256Y-118182795D01*
X126751898Y-118104774D01*
X126551939Y-118065000D01*
X126348061Y-118065000D01*
X126148102Y-118104774D01*
X125959744Y-118182795D01*
X125790226Y-118296063D01*
X125646063Y-118440226D01*
X125620000Y-118479232D01*
X125620000Y-114097322D01*
X125623676Y-114059999D01*
X125620000Y-114022676D01*
X125620000Y-114022667D01*
X125609003Y-113911014D01*
X125565546Y-113767753D01*
X125494974Y-113635724D01*
X125400001Y-113519999D01*
X125371003Y-113496201D01*
X123160000Y-111285199D01*
X123160000Y-111088521D01*
X123200518Y-111100812D01*
X123325000Y-111113072D01*
X125825000Y-111113072D01*
X125949482Y-111100812D01*
X126069180Y-111064502D01*
X126179494Y-111005537D01*
X126276185Y-110926185D01*
X126355537Y-110829494D01*
X126414502Y-110719180D01*
X126450812Y-110599482D01*
X126463072Y-110475000D01*
X126463072Y-107896655D01*
X126582522Y-109549125D01*
X127080808Y-111360054D01*
X127922814Y-113038976D01*
X128199730Y-113453410D01*
X129273170Y-114497225D01*
X135845395Y-107925000D01*
X129273170Y-101352775D01*
X128199730Y-102396590D01*
X127271551Y-104029451D01*
X126679762Y-105812016D01*
X126463072Y-107547881D01*
X126463072Y-105375000D01*
X126450812Y-105250518D01*
X126414502Y-105130820D01*
X126355537Y-105020506D01*
X126276185Y-104923815D01*
X126179494Y-104844463D01*
X126069180Y-104785498D01*
X125949482Y-104749188D01*
X125825000Y-104736928D01*
X123325000Y-104736928D01*
X123200518Y-104749188D01*
X123080820Y-104785498D01*
X123054963Y-104799319D01*
X123034974Y-104761922D01*
X122940001Y-104646197D01*
X122911003Y-104622399D01*
X120377606Y-102089003D01*
X120353803Y-102059999D01*
X120247836Y-101973034D01*
X119963803Y-101689002D01*
X119940001Y-101659999D01*
X119824276Y-101565026D01*
X119692247Y-101494454D01*
X119548986Y-101450997D01*
X119437333Y-101440000D01*
X119437322Y-101440000D01*
X119400000Y-101436324D01*
X119362678Y-101440000D01*
X114482322Y-101440000D01*
X114444999Y-101436324D01*
X114407676Y-101440000D01*
X114407667Y-101440000D01*
X114296014Y-101450997D01*
X114152753Y-101494454D01*
X114020724Y-101565026D01*
X113904999Y-101659999D01*
X113881201Y-101688998D01*
X113184002Y-102386197D01*
X113154999Y-102409999D01*
X113141581Y-102426350D01*
X113107171Y-102444742D01*
X112987749Y-102542749D01*
X112889742Y-102662171D01*
X112816916Y-102798418D01*
X112777760Y-102927500D01*
X112585030Y-102927500D01*
X112477962Y-102797038D01*
X112343387Y-102686595D01*
X112189852Y-102604528D01*
X112023256Y-102553992D01*
X111850002Y-102536928D01*
X110949998Y-102536928D01*
X110776744Y-102553992D01*
X110610148Y-102604528D01*
X110456613Y-102686595D01*
X110322038Y-102797038D01*
X110211595Y-102931613D01*
X110129528Y-103085148D01*
X110078992Y-103251744D01*
X110061928Y-103424998D01*
X110061928Y-103950002D01*
X110078992Y-104123256D01*
X110129528Y-104289852D01*
X110211595Y-104443387D01*
X110322038Y-104577962D01*
X110348891Y-104600000D01*
X110322038Y-104622038D01*
X110211595Y-104756613D01*
X110129528Y-104910148D01*
X110078992Y-105076744D01*
X110061928Y-105249998D01*
X110061928Y-105775002D01*
X110078992Y-105948256D01*
X110129528Y-106114852D01*
X110211595Y-106268387D01*
X110322038Y-106402962D01*
X110456613Y-106513405D01*
X110610148Y-106595472D01*
X110670668Y-106613830D01*
X110694454Y-106692246D01*
X110765026Y-106824276D01*
X110826340Y-106898986D01*
X110860000Y-106940001D01*
X110888998Y-106963799D01*
X110990000Y-107064801D01*
X110990000Y-107800229D01*
X110872038Y-107897038D01*
X110866658Y-107903594D01*
X110801185Y-107823815D01*
X110704494Y-107744463D01*
X110594180Y-107685498D01*
X110474482Y-107649188D01*
X110350000Y-107636928D01*
X110135750Y-107640000D01*
X109977000Y-107798750D01*
X109977000Y-108873000D01*
X109997000Y-108873000D01*
X109997000Y-109127000D01*
X109977000Y-109127000D01*
X109977000Y-110201250D01*
X110135750Y-110360000D01*
X110350000Y-110363072D01*
X110392687Y-110358868D01*
X110365000Y-110498061D01*
X110365000Y-110701939D01*
X110404774Y-110901898D01*
X110482795Y-111090256D01*
X110596063Y-111259774D01*
X110740226Y-111403937D01*
X110909744Y-111517205D01*
X111098102Y-111595226D01*
X111298061Y-111635000D01*
X111370198Y-111635000D01*
X111246408Y-111758790D01*
X111026260Y-111715000D01*
X110733740Y-111715000D01*
X110446842Y-111772068D01*
X110176589Y-111884010D01*
X109933368Y-112046525D01*
X109726525Y-112253368D01*
X109604805Y-112435534D01*
X109535178Y-112318645D01*
X109340269Y-112102412D01*
X109106920Y-111928359D01*
X108844099Y-111803175D01*
X108696890Y-111758524D01*
X108467000Y-111879845D01*
X108467000Y-113073000D01*
X108487000Y-113073000D01*
X108487000Y-113327000D01*
X108467000Y-113327000D01*
X108467000Y-114520155D01*
X108696890Y-114641476D01*
X108844099Y-114596825D01*
X109106920Y-114471641D01*
X109340269Y-114297588D01*
X109535178Y-114081355D01*
X109604805Y-113964466D01*
X109726525Y-114146632D01*
X109933368Y-114353475D01*
X110176589Y-114515990D01*
X110446842Y-114627932D01*
X110733740Y-114685000D01*
X111026260Y-114685000D01*
X111313158Y-114627932D01*
X111583411Y-114515990D01*
X111826632Y-114353475D01*
X112033475Y-114146632D01*
X112150000Y-113972240D01*
X112266525Y-114146632D01*
X112473368Y-114353475D01*
X112716589Y-114515990D01*
X112986842Y-114627932D01*
X113273740Y-114685000D01*
X113566260Y-114685000D01*
X113853158Y-114627932D01*
X114123411Y-114515990D01*
X114366632Y-114353475D01*
X114573475Y-114146632D01*
X114735990Y-113903411D01*
X114847932Y-113633158D01*
X114905000Y-113346260D01*
X114905000Y-113274999D01*
X117647679Y-113274999D01*
X117685001Y-113278675D01*
X117722323Y-113274999D01*
X117722334Y-113274999D01*
X117833987Y-113264002D01*
X117977248Y-113220545D01*
X118109277Y-113149973D01*
X118225002Y-113055000D01*
X118248805Y-113025996D01*
X120511003Y-110763799D01*
X120540001Y-110740001D01*
X120577380Y-110694455D01*
X120634974Y-110624277D01*
X120705546Y-110492247D01*
X120725009Y-110428084D01*
X120749003Y-110348986D01*
X120758260Y-110255000D01*
X120921939Y-110255000D01*
X121121898Y-110215226D01*
X121310256Y-110137205D01*
X121479774Y-110023937D01*
X121623937Y-109879774D01*
X121640000Y-109855734D01*
X121640000Y-111562677D01*
X121636324Y-111600000D01*
X121640000Y-111637322D01*
X121640000Y-111637332D01*
X121650997Y-111748985D01*
X121679287Y-111842246D01*
X121694454Y-111892246D01*
X121765026Y-112024276D01*
X121804871Y-112072826D01*
X121859999Y-112140001D01*
X121889003Y-112163804D01*
X124100001Y-114374803D01*
X124100000Y-119447677D01*
X124096324Y-119485000D01*
X124100000Y-119522322D01*
X124100000Y-119522332D01*
X124110997Y-119633985D01*
X124138077Y-119723256D01*
X124154454Y-119777246D01*
X124225026Y-119909276D01*
X124264871Y-119957826D01*
X124319999Y-120025001D01*
X124349003Y-120048804D01*
X125636201Y-121336003D01*
X125659999Y-121365001D01*
X125775724Y-121459974D01*
X125907753Y-121530546D01*
X126051014Y-121574003D01*
X126162667Y-121585000D01*
X126162676Y-121585000D01*
X126199999Y-121588676D01*
X126237322Y-121585000D01*
X126477143Y-121585000D01*
X126319731Y-121702412D01*
X126124822Y-121918645D01*
X125975843Y-122168748D01*
X125878519Y-122443109D01*
X125999186Y-122673000D01*
X127193000Y-122673000D01*
X127193000Y-122653000D01*
X127447000Y-122653000D01*
X127447000Y-122673000D01*
X127467000Y-122673000D01*
X127467000Y-122927000D01*
X127447000Y-122927000D01*
X127447000Y-122947000D01*
X127193000Y-122947000D01*
X127193000Y-122927000D01*
X125999186Y-122927000D01*
X125878519Y-123156891D01*
X125975843Y-123431252D01*
X126124822Y-123681355D01*
X126319731Y-123897588D01*
X126553080Y-124071641D01*
X126815901Y-124196825D01*
X126963110Y-124241476D01*
X127192998Y-124120156D01*
X127192998Y-124260000D01*
X126531127Y-124260000D01*
X126493802Y-124256324D01*
X126456477Y-124260000D01*
X126456469Y-124260000D01*
X126344816Y-124270997D01*
X126201555Y-124314454D01*
X126069526Y-124385026D01*
X125953801Y-124479999D01*
X125930003Y-124508997D01*
X123542168Y-126896833D01*
X123465194Y-126960003D01*
X123465190Y-126960007D01*
X123436197Y-126983801D01*
X123412403Y-127012794D01*
X122789002Y-127636197D01*
X122759999Y-127659999D01*
X122704871Y-127727174D01*
X122665026Y-127775724D01*
X122643472Y-127816049D01*
X122594454Y-127907754D01*
X122550997Y-128051015D01*
X122540000Y-128162668D01*
X122540000Y-128162678D01*
X122536324Y-128200000D01*
X122540000Y-128237323D01*
X122540000Y-128466289D01*
X122496063Y-128510226D01*
X122382795Y-128679744D01*
X122304774Y-128868102D01*
X122265000Y-129068061D01*
X122265000Y-129271939D01*
X122304774Y-129471898D01*
X122382795Y-129660256D01*
X122496063Y-129829774D01*
X122640226Y-129973937D01*
X122809744Y-130087205D01*
X122998102Y-130165226D01*
X123198061Y-130205000D01*
X123401939Y-130205000D01*
X123601898Y-130165226D01*
X123790256Y-130087205D01*
X123959774Y-129973937D01*
X124103937Y-129829774D01*
X124217205Y-129660256D01*
X124295226Y-129471898D01*
X124335000Y-129271939D01*
X124335000Y-129068061D01*
X124295226Y-128868102D01*
X124217205Y-128679744D01*
X124103937Y-128510226D01*
X124084256Y-128490545D01*
X124424039Y-128150764D01*
X124530001Y-128063803D01*
X124553804Y-128034799D01*
X126258603Y-126330000D01*
X151976928Y-126330000D01*
X151989188Y-126454482D01*
X152025498Y-126574180D01*
X152084463Y-126684494D01*
X152163815Y-126781185D01*
X152260506Y-126860537D01*
X152370820Y-126919502D01*
X152490518Y-126955812D01*
X152615000Y-126968072D01*
X153204250Y-126965000D01*
X153363000Y-126806250D01*
X153363000Y-125857000D01*
X153617000Y-125857000D01*
X153617000Y-126806250D01*
X153775750Y-126965000D01*
X154365000Y-126968072D01*
X154489482Y-126955812D01*
X154609180Y-126919502D01*
X154719494Y-126860537D01*
X154816185Y-126781185D01*
X154895537Y-126684494D01*
X154954502Y-126574180D01*
X154990812Y-126454482D01*
X155003072Y-126330000D01*
X155000000Y-126015750D01*
X154841250Y-125857000D01*
X153617000Y-125857000D01*
X153363000Y-125857000D01*
X152138750Y-125857000D01*
X151980000Y-126015750D01*
X151976928Y-126330000D01*
X126258603Y-126330000D01*
X126808604Y-125780000D01*
X143206480Y-125780000D01*
X143243802Y-125783676D01*
X143281124Y-125780000D01*
X143281135Y-125780000D01*
X143392788Y-125769003D01*
X143536049Y-125725546D01*
X143668078Y-125654974D01*
X143783803Y-125560001D01*
X143807606Y-125530997D01*
X145211492Y-124127111D01*
X145212795Y-124130256D01*
X145326063Y-124299774D01*
X145470226Y-124443937D01*
X145639744Y-124557205D01*
X145828102Y-124635226D01*
X146028061Y-124675000D01*
X146231939Y-124675000D01*
X146431898Y-124635226D01*
X146620256Y-124557205D01*
X146789774Y-124443937D01*
X146933937Y-124299774D01*
X147047205Y-124130256D01*
X147125226Y-123941898D01*
X147165000Y-123741939D01*
X147165000Y-123730000D01*
X151974025Y-123730000D01*
X151997870Y-123972102D01*
X152068489Y-124204901D01*
X152183167Y-124419449D01*
X152309436Y-124573309D01*
X152260506Y-124599463D01*
X152163815Y-124678815D01*
X152084463Y-124775506D01*
X152025498Y-124885820D01*
X151989188Y-125005518D01*
X151976928Y-125130000D01*
X151980000Y-125444250D01*
X152138750Y-125603000D01*
X153363000Y-125603000D01*
X153363000Y-125583000D01*
X153617000Y-125583000D01*
X153617000Y-125603000D01*
X154841250Y-125603000D01*
X155000000Y-125444250D01*
X155003072Y-125130000D01*
X154990812Y-125005518D01*
X154954502Y-124885820D01*
X154895537Y-124775506D01*
X154816185Y-124678815D01*
X154719494Y-124599463D01*
X154670564Y-124573309D01*
X154796833Y-124419449D01*
X154911511Y-124204901D01*
X154982130Y-123972102D01*
X155005975Y-123730000D01*
X154982130Y-123487898D01*
X154911511Y-123255099D01*
X154796833Y-123040551D01*
X154642502Y-122852498D01*
X154454449Y-122698167D01*
X154239901Y-122583489D01*
X154007102Y-122512870D01*
X153825665Y-122495000D01*
X153154335Y-122495000D01*
X152972898Y-122512870D01*
X152740099Y-122583489D01*
X152525551Y-122698167D01*
X152337498Y-122852498D01*
X152183167Y-123040551D01*
X152068489Y-123255099D01*
X151997870Y-123487898D01*
X151974025Y-123730000D01*
X147165000Y-123730000D01*
X147165000Y-123538061D01*
X147125226Y-123338102D01*
X147047205Y-123149744D01*
X146933937Y-122980226D01*
X146890000Y-122936289D01*
X146890000Y-118523711D01*
X146933937Y-118479774D01*
X147047205Y-118310256D01*
X147125226Y-118121898D01*
X147165000Y-117921939D01*
X147165000Y-117863045D01*
X147204176Y-117957624D01*
X147269241Y-118055000D01*
X147204176Y-118152376D01*
X147118617Y-118358933D01*
X147075000Y-118578212D01*
X147075000Y-118801788D01*
X147118617Y-119021067D01*
X147204176Y-119227624D01*
X147269241Y-119325000D01*
X147204176Y-119422376D01*
X147118617Y-119628933D01*
X147075000Y-119848212D01*
X147075000Y-120071788D01*
X147118617Y-120291067D01*
X147204176Y-120497624D01*
X147269241Y-120595000D01*
X147204176Y-120692376D01*
X147118617Y-120898933D01*
X147075000Y-121118212D01*
X147075000Y-121341788D01*
X147118617Y-121561067D01*
X147204176Y-121767624D01*
X147269241Y-121865000D01*
X147204176Y-121962376D01*
X147118617Y-122168933D01*
X147075000Y-122388212D01*
X147075000Y-122611788D01*
X147118617Y-122831067D01*
X147204176Y-123037624D01*
X147328388Y-123223520D01*
X147486480Y-123381612D01*
X147672376Y-123505824D01*
X147878933Y-123591383D01*
X148098212Y-123635000D01*
X148321788Y-123635000D01*
X148541067Y-123591383D01*
X148652774Y-123545112D01*
X148735820Y-123589502D01*
X148855518Y-123625812D01*
X148980000Y-123638072D01*
X149980000Y-123638072D01*
X150104482Y-123625812D01*
X150224180Y-123589502D01*
X150334494Y-123530537D01*
X150431185Y-123451185D01*
X150510537Y-123354494D01*
X150569502Y-123244180D01*
X150605812Y-123124482D01*
X150618072Y-123000000D01*
X150618072Y-122000000D01*
X150605812Y-121875518D01*
X150569502Y-121755820D01*
X150521930Y-121666820D01*
X150557446Y-121586864D01*
X150574119Y-121531874D01*
X150447954Y-121357000D01*
X149607000Y-121357000D01*
X149607000Y-121361928D01*
X149353000Y-121361928D01*
X149353000Y-121357000D01*
X149341974Y-121357000D01*
X149345000Y-121341788D01*
X149345000Y-121118212D01*
X149341974Y-121103000D01*
X149353000Y-121103000D01*
X149353000Y-120087000D01*
X149607000Y-120087000D01*
X149607000Y-121103000D01*
X150447954Y-121103000D01*
X150574119Y-120928126D01*
X150557446Y-120873136D01*
X150467123Y-120669794D01*
X150414361Y-120595000D01*
X150467123Y-120520206D01*
X150557446Y-120316864D01*
X150574119Y-120261874D01*
X150447954Y-120087000D01*
X149607000Y-120087000D01*
X149353000Y-120087000D01*
X149341974Y-120087000D01*
X149345000Y-120071788D01*
X149345000Y-119848212D01*
X149341974Y-119833000D01*
X149353000Y-119833000D01*
X149353000Y-119821974D01*
X149368212Y-119825000D01*
X149591788Y-119825000D01*
X149607000Y-119821974D01*
X149607000Y-119833000D01*
X150447954Y-119833000D01*
X150574119Y-119658126D01*
X150557446Y-119603136D01*
X150467123Y-119399794D01*
X150417647Y-119329658D01*
X150485824Y-119227624D01*
X150571383Y-119021067D01*
X150615000Y-118801788D01*
X150615000Y-118578212D01*
X150571383Y-118358933D01*
X150485824Y-118152376D01*
X150417647Y-118050342D01*
X150467123Y-117980206D01*
X150557446Y-117776864D01*
X150574119Y-117721874D01*
X150447954Y-117547000D01*
X149607000Y-117547000D01*
X149607000Y-117558026D01*
X149591788Y-117555000D01*
X149368212Y-117555000D01*
X149353000Y-117558026D01*
X149353000Y-117547000D01*
X149341974Y-117547000D01*
X149345000Y-117531788D01*
X149345000Y-117308212D01*
X149341974Y-117293000D01*
X149353000Y-117293000D01*
X149353000Y-116450871D01*
X149607000Y-116450871D01*
X149607000Y-117293000D01*
X150447954Y-117293000D01*
X150574119Y-117118126D01*
X150557446Y-117063136D01*
X150467123Y-116859794D01*
X150338865Y-116677980D01*
X150177601Y-116524682D01*
X149989529Y-116405790D01*
X149781876Y-116325874D01*
X149607000Y-116450871D01*
X149353000Y-116450871D01*
X149178124Y-116325874D01*
X148970471Y-116405790D01*
X148849512Y-116482256D01*
X148747624Y-116414176D01*
X148541067Y-116328617D01*
X148321788Y-116285000D01*
X148098212Y-116285000D01*
X147878933Y-116328617D01*
X147672376Y-116414176D01*
X147486480Y-116538388D01*
X147328388Y-116696480D01*
X147204176Y-116882376D01*
X147118617Y-117088933D01*
X147075000Y-117308212D01*
X147075000Y-117396847D01*
X147047205Y-117329744D01*
X146933937Y-117160226D01*
X146789774Y-117016063D01*
X146620256Y-116902795D01*
X146431898Y-116824774D01*
X146231939Y-116785000D01*
X146082519Y-116785000D01*
X146047205Y-116699744D01*
X145933937Y-116530226D01*
X145789774Y-116386063D01*
X145620256Y-116272795D01*
X145431898Y-116194774D01*
X145231939Y-116155000D01*
X145028061Y-116155000D01*
X144828102Y-116194774D01*
X144639744Y-116272795D01*
X144470226Y-116386063D01*
X144326063Y-116530226D01*
X144212795Y-116699744D01*
X144134774Y-116888102D01*
X144103391Y-117045874D01*
X143958102Y-117074774D01*
X143769744Y-117152795D01*
X143600226Y-117266063D01*
X143456063Y-117410226D01*
X143342795Y-117579744D01*
X143264774Y-117768102D01*
X143225000Y-117968061D01*
X143225000Y-118171939D01*
X143264774Y-118371898D01*
X143342795Y-118560256D01*
X143456063Y-118729774D01*
X143500000Y-118773711D01*
X143500001Y-122286288D01*
X143456063Y-122330226D01*
X143342795Y-122499744D01*
X143264774Y-122688102D01*
X143225000Y-122888061D01*
X143225000Y-122950198D01*
X142575199Y-123600000D01*
X133888072Y-123600000D01*
X133888072Y-121950000D01*
X133875812Y-121825518D01*
X133839502Y-121705820D01*
X133780537Y-121595506D01*
X133701185Y-121498815D01*
X133604494Y-121419463D01*
X133494180Y-121360498D01*
X133374482Y-121324188D01*
X133250000Y-121311928D01*
X131550000Y-121311928D01*
X131425518Y-121324188D01*
X131305820Y-121360498D01*
X131195506Y-121419463D01*
X131098815Y-121498815D01*
X131019463Y-121595506D01*
X130960498Y-121705820D01*
X130938487Y-121778380D01*
X130806632Y-121646525D01*
X130698210Y-121574079D01*
X130698986Y-121574003D01*
X130842247Y-121530546D01*
X130974276Y-121459974D01*
X131090001Y-121365001D01*
X131113804Y-121335997D01*
X133164802Y-119285000D01*
X137871289Y-119285000D01*
X137915226Y-119328937D01*
X138084744Y-119442205D01*
X138273102Y-119520226D01*
X138473061Y-119560000D01*
X138676939Y-119560000D01*
X138876898Y-119520226D01*
X139065256Y-119442205D01*
X139234774Y-119328937D01*
X139378937Y-119184774D01*
X139492205Y-119015256D01*
X139570226Y-118826898D01*
X139610000Y-118626939D01*
X139610000Y-118423061D01*
X139577565Y-118260000D01*
X141412678Y-118260000D01*
X141450000Y-118263676D01*
X141487322Y-118260000D01*
X141487333Y-118260000D01*
X141598986Y-118249003D01*
X141742247Y-118205546D01*
X141874276Y-118134974D01*
X141990001Y-118040001D01*
X142013804Y-118010997D01*
X143889802Y-116135000D01*
X154971289Y-116135000D01*
X155015226Y-116178937D01*
X155184744Y-116292205D01*
X155373102Y-116370226D01*
X155573061Y-116410000D01*
X155776939Y-116410000D01*
X155976898Y-116370226D01*
X156165256Y-116292205D01*
X156334774Y-116178937D01*
X156340000Y-116173711D01*
X156340000Y-129264098D01*
X156288601Y-129187174D01*
X155872826Y-128771399D01*
X155383928Y-128444727D01*
X154840692Y-128219712D01*
X154263997Y-128105000D01*
X153676003Y-128105000D01*
X153099308Y-128219712D01*
X152556072Y-128444727D01*
X152067174Y-128771399D01*
X151651399Y-129187174D01*
X151324727Y-129676072D01*
X151099712Y-130219308D01*
X150985000Y-130796003D01*
X150985000Y-131383997D01*
X151099712Y-131960692D01*
X151324727Y-132503928D01*
X151651399Y-132992826D01*
X151998573Y-133340000D01*
X107870800Y-133340000D01*
X107902826Y-133318601D01*
X108318601Y-132902826D01*
X108645273Y-132413928D01*
X108870288Y-131870692D01*
X108890508Y-131769039D01*
X124848096Y-131769039D01*
X124888754Y-131903087D01*
X125008963Y-132157420D01*
X125176481Y-132383414D01*
X125384869Y-132572385D01*
X125626119Y-132717070D01*
X125890960Y-132811909D01*
X126113000Y-132690624D01*
X126113000Y-131547000D01*
X126367000Y-131547000D01*
X126367000Y-132690624D01*
X126589040Y-132811909D01*
X126853881Y-132717070D01*
X127095131Y-132572385D01*
X127303519Y-132383414D01*
X127471037Y-132157420D01*
X127591246Y-131903087D01*
X127631904Y-131769039D01*
X127509915Y-131547000D01*
X126367000Y-131547000D01*
X126113000Y-131547000D01*
X124970085Y-131547000D01*
X124848096Y-131769039D01*
X108890508Y-131769039D01*
X108985000Y-131293997D01*
X108985000Y-131070961D01*
X124848096Y-131070961D01*
X124970085Y-131293000D01*
X126113000Y-131293000D01*
X126113000Y-130149376D01*
X126367000Y-130149376D01*
X126367000Y-131293000D01*
X127509915Y-131293000D01*
X127517790Y-131278665D01*
X145125000Y-131278665D01*
X145125000Y-131561335D01*
X145180147Y-131838574D01*
X145288320Y-132099727D01*
X145445363Y-132334759D01*
X145645241Y-132534637D01*
X145880273Y-132691680D01*
X146141426Y-132799853D01*
X146418665Y-132855000D01*
X146701335Y-132855000D01*
X146978574Y-132799853D01*
X147239727Y-132691680D01*
X147474759Y-132534637D01*
X147674637Y-132334759D01*
X147831680Y-132099727D01*
X147939853Y-131838574D01*
X147995000Y-131561335D01*
X147995000Y-131278665D01*
X147939853Y-131001426D01*
X147831680Y-130740273D01*
X147674637Y-130505241D01*
X147474759Y-130305363D01*
X147239727Y-130148320D01*
X146978574Y-130040147D01*
X146701335Y-129985000D01*
X146418665Y-129985000D01*
X146141426Y-130040147D01*
X145880273Y-130148320D01*
X145645241Y-130305363D01*
X145445363Y-130505241D01*
X145288320Y-130740273D01*
X145180147Y-131001426D01*
X145125000Y-131278665D01*
X127517790Y-131278665D01*
X127631904Y-131070961D01*
X127591246Y-130936913D01*
X127471037Y-130682580D01*
X127303519Y-130456586D01*
X127095131Y-130267615D01*
X126853881Y-130122930D01*
X126589040Y-130028091D01*
X126367000Y-130149376D01*
X126113000Y-130149376D01*
X125890960Y-130028091D01*
X125626119Y-130122930D01*
X125384869Y-130267615D01*
X125176481Y-130456586D01*
X125008963Y-130682580D01*
X124888754Y-130936913D01*
X124848096Y-131070961D01*
X108985000Y-131070961D01*
X108985000Y-130706003D01*
X108870288Y-130129308D01*
X108645273Y-129586072D01*
X108318601Y-129097174D01*
X107902826Y-128681399D01*
X107413928Y-128354727D01*
X106870692Y-128129712D01*
X106293997Y-128015000D01*
X105706003Y-128015000D01*
X105129308Y-128129712D01*
X104586072Y-128354727D01*
X104097174Y-128681399D01*
X103681399Y-129097174D01*
X103660000Y-129129200D01*
X103660000Y-124385561D01*
X122877500Y-124385561D01*
X122877500Y-124589439D01*
X122917274Y-124789398D01*
X122995295Y-124977756D01*
X123108563Y-125147274D01*
X123252726Y-125291437D01*
X123422244Y-125404705D01*
X123610602Y-125482726D01*
X123810561Y-125522500D01*
X124014439Y-125522500D01*
X124214398Y-125482726D01*
X124402756Y-125404705D01*
X124572274Y-125291437D01*
X124716437Y-125147274D01*
X124829705Y-124977756D01*
X124907726Y-124789398D01*
X124947500Y-124589439D01*
X124947500Y-124385561D01*
X124907726Y-124185602D01*
X124829705Y-123997244D01*
X124716437Y-123827726D01*
X124572274Y-123683563D01*
X124402756Y-123570295D01*
X124214398Y-123492274D01*
X124014439Y-123452500D01*
X123810561Y-123452500D01*
X123610602Y-123492274D01*
X123422244Y-123570295D01*
X123252726Y-123683563D01*
X123108563Y-123827726D01*
X122995295Y-123997244D01*
X122917274Y-124185602D01*
X122877500Y-124385561D01*
X103660000Y-124385561D01*
X103660000Y-122693740D01*
X106515000Y-122693740D01*
X106515000Y-122986260D01*
X106572068Y-123273158D01*
X106684010Y-123543411D01*
X106846525Y-123786632D01*
X107053368Y-123993475D01*
X107296589Y-124155990D01*
X107566842Y-124267932D01*
X107853740Y-124325000D01*
X108146260Y-124325000D01*
X108433158Y-124267932D01*
X108703411Y-124155990D01*
X108946632Y-123993475D01*
X109153475Y-123786632D01*
X109315990Y-123543411D01*
X109427932Y-123273158D01*
X109485000Y-122986260D01*
X109485000Y-122693740D01*
X113515000Y-122693740D01*
X113515000Y-122986260D01*
X113572068Y-123273158D01*
X113684010Y-123543411D01*
X113846525Y-123786632D01*
X114053368Y-123993475D01*
X114296589Y-124155990D01*
X114566842Y-124267932D01*
X114853740Y-124325000D01*
X115146260Y-124325000D01*
X115433158Y-124267932D01*
X115703411Y-124155990D01*
X115946632Y-123993475D01*
X116153475Y-123786632D01*
X116315990Y-123543411D01*
X116427932Y-123273158D01*
X116485000Y-122986260D01*
X116485000Y-122693740D01*
X116427932Y-122406842D01*
X116315990Y-122136589D01*
X116153475Y-121893368D01*
X115946632Y-121686525D01*
X115703411Y-121524010D01*
X115433158Y-121412068D01*
X115146260Y-121355000D01*
X114853740Y-121355000D01*
X114566842Y-121412068D01*
X114296589Y-121524010D01*
X114053368Y-121686525D01*
X113846525Y-121893368D01*
X113684010Y-122136589D01*
X113572068Y-122406842D01*
X113515000Y-122693740D01*
X109485000Y-122693740D01*
X109427932Y-122406842D01*
X109315990Y-122136589D01*
X109153475Y-121893368D01*
X108946632Y-121686525D01*
X108703411Y-121524010D01*
X108433158Y-121412068D01*
X108146260Y-121355000D01*
X107853740Y-121355000D01*
X107566842Y-121412068D01*
X107296589Y-121524010D01*
X107053368Y-121686525D01*
X106846525Y-121893368D01*
X106684010Y-122136589D01*
X106572068Y-122406842D01*
X106515000Y-122693740D01*
X103660000Y-122693740D01*
X103660000Y-112350000D01*
X104311928Y-112350000D01*
X104311928Y-114050000D01*
X104324188Y-114174482D01*
X104360498Y-114294180D01*
X104419463Y-114404494D01*
X104498815Y-114501185D01*
X104595506Y-114580537D01*
X104705820Y-114639502D01*
X104825518Y-114675812D01*
X104950000Y-114688072D01*
X106650000Y-114688072D01*
X106774482Y-114675812D01*
X106894180Y-114639502D01*
X107004494Y-114580537D01*
X107101185Y-114501185D01*
X107180537Y-114404494D01*
X107239502Y-114294180D01*
X107263966Y-114213534D01*
X107339731Y-114297588D01*
X107573080Y-114471641D01*
X107835901Y-114596825D01*
X107983110Y-114641476D01*
X108213000Y-114520155D01*
X108213000Y-113327000D01*
X108193000Y-113327000D01*
X108193000Y-113073000D01*
X108213000Y-113073000D01*
X108213000Y-111879845D01*
X107983110Y-111758524D01*
X107835901Y-111803175D01*
X107573080Y-111928359D01*
X107339731Y-112102412D01*
X107263966Y-112186466D01*
X107239502Y-112105820D01*
X107180537Y-111995506D01*
X107101185Y-111898815D01*
X107004494Y-111819463D01*
X106894180Y-111760498D01*
X106774482Y-111724188D01*
X106650000Y-111711928D01*
X104950000Y-111711928D01*
X104825518Y-111724188D01*
X104705820Y-111760498D01*
X104595506Y-111819463D01*
X104498815Y-111898815D01*
X104419463Y-111995506D01*
X104360498Y-112105820D01*
X104324188Y-112225518D01*
X104311928Y-112350000D01*
X103660000Y-112350000D01*
X103660000Y-109725000D01*
X108711928Y-109725000D01*
X108724188Y-109849482D01*
X108760498Y-109969180D01*
X108819463Y-110079494D01*
X108898815Y-110176185D01*
X108995506Y-110255537D01*
X109105820Y-110314502D01*
X109225518Y-110350812D01*
X109350000Y-110363072D01*
X109564250Y-110360000D01*
X109723000Y-110201250D01*
X109723000Y-109127000D01*
X108873750Y-109127000D01*
X108715000Y-109285750D01*
X108711928Y-109725000D01*
X103660000Y-109725000D01*
X103660000Y-108275000D01*
X108711928Y-108275000D01*
X108715000Y-108714250D01*
X108873750Y-108873000D01*
X109723000Y-108873000D01*
X109723000Y-107798750D01*
X109564250Y-107640000D01*
X109350000Y-107636928D01*
X109225518Y-107649188D01*
X109105820Y-107685498D01*
X108995506Y-107744463D01*
X108898815Y-107823815D01*
X108819463Y-107920506D01*
X108760498Y-108030820D01*
X108724188Y-108150518D01*
X108711928Y-108275000D01*
X103660000Y-108275000D01*
X103660000Y-100750000D01*
X108536928Y-100750000D01*
X108549188Y-100874482D01*
X108585498Y-100994180D01*
X108644463Y-101104494D01*
X108723815Y-101201185D01*
X108820506Y-101280537D01*
X108930820Y-101339502D01*
X109050518Y-101375812D01*
X109175000Y-101388072D01*
X109739250Y-101385000D01*
X109898000Y-101226250D01*
X109898000Y-100027000D01*
X108698750Y-100027000D01*
X108540000Y-100185750D01*
X108536928Y-100750000D01*
X103660000Y-100750000D01*
X103660000Y-99050000D01*
X108536928Y-99050000D01*
X108540000Y-99614250D01*
X108698750Y-99773000D01*
X109898000Y-99773000D01*
X109898000Y-98573750D01*
X110152000Y-98573750D01*
X110152000Y-99773000D01*
X110172000Y-99773000D01*
X110172000Y-100027000D01*
X110152000Y-100027000D01*
X110152000Y-101226250D01*
X110310750Y-101385000D01*
X110875000Y-101388072D01*
X110999482Y-101375812D01*
X111119180Y-101339502D01*
X111229494Y-101280537D01*
X111326185Y-101201185D01*
X111405537Y-101104494D01*
X111464502Y-100994180D01*
X111486513Y-100921620D01*
X111618368Y-101053475D01*
X111861589Y-101215990D01*
X112131842Y-101327932D01*
X112418740Y-101385000D01*
X112711260Y-101385000D01*
X112998158Y-101327932D01*
X113268411Y-101215990D01*
X113511632Y-101053475D01*
X113718475Y-100846632D01*
X113835000Y-100672240D01*
X113951525Y-100846632D01*
X114158368Y-101053475D01*
X114401589Y-101215990D01*
X114671842Y-101327932D01*
X114958740Y-101385000D01*
X115251260Y-101385000D01*
X115538158Y-101327932D01*
X115808411Y-101215990D01*
X116051632Y-101053475D01*
X116258475Y-100846632D01*
X116375000Y-100672240D01*
X116491525Y-100846632D01*
X116698368Y-101053475D01*
X116941589Y-101215990D01*
X117211842Y-101327932D01*
X117498740Y-101385000D01*
X117791260Y-101385000D01*
X118078158Y-101327932D01*
X118348411Y-101215990D01*
X118412495Y-101173170D01*
X129452775Y-101173170D01*
X136025000Y-107745395D01*
X142597225Y-101173170D01*
X141553410Y-100099730D01*
X139920549Y-99171551D01*
X138137984Y-98579762D01*
X136274218Y-98347106D01*
X134400875Y-98482522D01*
X132589946Y-98980808D01*
X130911024Y-99822814D01*
X130496590Y-100099730D01*
X129452775Y-101173170D01*
X118412495Y-101173170D01*
X118591632Y-101053475D01*
X118798475Y-100846632D01*
X118960990Y-100603411D01*
X119072932Y-100333158D01*
X119130000Y-100046260D01*
X119130000Y-99753740D01*
X119072932Y-99466842D01*
X118960990Y-99196589D01*
X118798475Y-98953368D01*
X118591632Y-98746525D01*
X118348411Y-98584010D01*
X118078158Y-98472068D01*
X117791260Y-98415000D01*
X117498740Y-98415000D01*
X117211842Y-98472068D01*
X116941589Y-98584010D01*
X116698368Y-98746525D01*
X116491525Y-98953368D01*
X116375000Y-99127760D01*
X116258475Y-98953368D01*
X116051632Y-98746525D01*
X115808411Y-98584010D01*
X115538158Y-98472068D01*
X115251260Y-98415000D01*
X114958740Y-98415000D01*
X114671842Y-98472068D01*
X114401589Y-98584010D01*
X114158368Y-98746525D01*
X113951525Y-98953368D01*
X113835000Y-99127760D01*
X113718475Y-98953368D01*
X113511632Y-98746525D01*
X113268411Y-98584010D01*
X112998158Y-98472068D01*
X112711260Y-98415000D01*
X112418740Y-98415000D01*
X112131842Y-98472068D01*
X111861589Y-98584010D01*
X111618368Y-98746525D01*
X111486513Y-98878380D01*
X111464502Y-98805820D01*
X111405537Y-98695506D01*
X111326185Y-98598815D01*
X111229494Y-98519463D01*
X111119180Y-98460498D01*
X110999482Y-98424188D01*
X110875000Y-98411928D01*
X110310750Y-98415000D01*
X110152000Y-98573750D01*
X109898000Y-98573750D01*
X109739250Y-98415000D01*
X109175000Y-98411928D01*
X109050518Y-98424188D01*
X108930820Y-98460498D01*
X108820506Y-98519463D01*
X108723815Y-98598815D01*
X108644463Y-98695506D01*
X108585498Y-98805820D01*
X108549188Y-98925518D01*
X108536928Y-99050000D01*
X103660000Y-99050000D01*
X103660000Y-98127000D01*
X156340001Y-98127000D01*
X156340001Y-106038914D01*
%TA.AperFunction,Conductor*%
D24*
G36*
X156340001Y-106038914D02*
G01*
X156310785Y-106003315D01*
X156214094Y-105923963D01*
X156103780Y-105864998D01*
X155984082Y-105828688D01*
X155859600Y-105816428D01*
X154640400Y-105816428D01*
X154515918Y-105828688D01*
X154396220Y-105864998D01*
X154322552Y-105904375D01*
X154290256Y-105882795D01*
X154101898Y-105804774D01*
X153901939Y-105765000D01*
X153698061Y-105765000D01*
X153498102Y-105804774D01*
X153309744Y-105882795D01*
X153140226Y-105996063D01*
X152996063Y-106140226D01*
X152882795Y-106309744D01*
X152804774Y-106498102D01*
X152765000Y-106698061D01*
X152765000Y-106901939D01*
X152801834Y-107087116D01*
X152775000Y-107086928D01*
X152650518Y-107099188D01*
X152530820Y-107135498D01*
X152500000Y-107151972D01*
X152469180Y-107135498D01*
X152349482Y-107099188D01*
X152225000Y-107086928D01*
X151785750Y-107090000D01*
X151627000Y-107248750D01*
X151627000Y-108098000D01*
X153373000Y-108098000D01*
X153373000Y-108078000D01*
X153627000Y-108078000D01*
X153627000Y-108098000D01*
X154701250Y-108098000D01*
X154792278Y-108006972D01*
X155859600Y-108006972D01*
X155984082Y-107994712D01*
X156103780Y-107958402D01*
X156214094Y-107899437D01*
X156310785Y-107820085D01*
X156340001Y-107784486D01*
X156340001Y-109315514D01*
X156310785Y-109279915D01*
X156214094Y-109200563D01*
X156103780Y-109141598D01*
X155984082Y-109105288D01*
X155859600Y-109093028D01*
X154744430Y-109093028D01*
X154755537Y-109079494D01*
X154814502Y-108969180D01*
X154850812Y-108849482D01*
X154863072Y-108725000D01*
X154860000Y-108510750D01*
X154701250Y-108352000D01*
X153627000Y-108352000D01*
X153627000Y-108372000D01*
X153373000Y-108372000D01*
X153373000Y-108352000D01*
X151627000Y-108352000D01*
X151627000Y-108372000D01*
X151373000Y-108372000D01*
X151373000Y-108352000D01*
X151353000Y-108352000D01*
X151353000Y-108098000D01*
X151373000Y-108098000D01*
X151373000Y-107248750D01*
X151214250Y-107090000D01*
X150775000Y-107086928D01*
X150650518Y-107099188D01*
X150530820Y-107135498D01*
X150420506Y-107194463D01*
X150323815Y-107273815D01*
X150244463Y-107370506D01*
X150185498Y-107480820D01*
X150149188Y-107600518D01*
X150136928Y-107725000D01*
X150140000Y-107939250D01*
X150298748Y-108097998D01*
X150140000Y-108097998D01*
X150140000Y-108128499D01*
X149844654Y-107833153D01*
X149820851Y-107804149D01*
X149705126Y-107709176D01*
X149573097Y-107638604D01*
X149429836Y-107595147D01*
X149363072Y-107588571D01*
X149363072Y-105375000D01*
X149350812Y-105250518D01*
X149314502Y-105130820D01*
X149263284Y-105035000D01*
X149301939Y-105035000D01*
X149501898Y-104995226D01*
X149690256Y-104917205D01*
X149859774Y-104803937D01*
X150003937Y-104659774D01*
X150117205Y-104490256D01*
X150195226Y-104301898D01*
X150235000Y-104101939D01*
X150235000Y-103898061D01*
X150195226Y-103698102D01*
X150117205Y-103509744D01*
X150003937Y-103340226D01*
X149859774Y-103196063D01*
X149690256Y-103082795D01*
X149501898Y-103004774D01*
X149301939Y-102965000D01*
X149098061Y-102965000D01*
X148898102Y-103004774D01*
X148709744Y-103082795D01*
X148540226Y-103196063D01*
X148396063Y-103340226D01*
X148282795Y-103509744D01*
X148204774Y-103698102D01*
X148165000Y-103898061D01*
X148165000Y-104101939D01*
X148204774Y-104301898D01*
X148282795Y-104490256D01*
X148396063Y-104659774D01*
X148473217Y-104736928D01*
X146225000Y-104736928D01*
X146100518Y-104749188D01*
X145980820Y-104785498D01*
X145870506Y-104844463D01*
X145773815Y-104923815D01*
X145694463Y-105020506D01*
X145635498Y-105130820D01*
X145599188Y-105250518D01*
X145586928Y-105375000D01*
X145586928Y-107953345D01*
X145467478Y-106300875D01*
X144969192Y-104489946D01*
X144127186Y-102811024D01*
X143850270Y-102396590D01*
X142776830Y-101352775D01*
X136204605Y-107925000D01*
X142776830Y-114497225D01*
X143850270Y-113453410D01*
X144778449Y-111820549D01*
X145370238Y-110037984D01*
X145586928Y-108302119D01*
X145586928Y-110475000D01*
X145599188Y-110599482D01*
X145635498Y-110719180D01*
X145694463Y-110829494D01*
X145767322Y-110918274D01*
X145672795Y-111059744D01*
X145594774Y-111248102D01*
X145555000Y-111448061D01*
X145555000Y-111651939D01*
X145594774Y-111851898D01*
X145672795Y-112040256D01*
X145786063Y-112209774D01*
X145930226Y-112353937D01*
X146099744Y-112467205D01*
X146288102Y-112545226D01*
X146488061Y-112585000D01*
X146691939Y-112585000D01*
X146891898Y-112545226D01*
X147080256Y-112467205D01*
X147249774Y-112353937D01*
X147393937Y-112209774D01*
X147507205Y-112040256D01*
X147585226Y-111851898D01*
X147625000Y-111651939D01*
X147625000Y-111589802D01*
X147986004Y-111228798D01*
X148015001Y-111205001D01*
X148080062Y-111125724D01*
X148090446Y-111113072D01*
X148725000Y-111113072D01*
X148849482Y-111100812D01*
X148969180Y-111064502D01*
X149079494Y-111005537D01*
X149176185Y-110926185D01*
X149255537Y-110829494D01*
X149314502Y-110719180D01*
X149350812Y-110599482D01*
X149363072Y-110475000D01*
X149363072Y-109501173D01*
X150136928Y-110275030D01*
X150136928Y-110375000D01*
X150153992Y-110548254D01*
X150204528Y-110714850D01*
X150286595Y-110868386D01*
X150397038Y-111002962D01*
X150531614Y-111113405D01*
X150685150Y-111195472D01*
X150851746Y-111246008D01*
X150946341Y-111255325D01*
X150874774Y-111428102D01*
X150835000Y-111628061D01*
X150835000Y-111831939D01*
X150874774Y-112031898D01*
X150952795Y-112220256D01*
X151066063Y-112389774D01*
X151210226Y-112533937D01*
X151379744Y-112647205D01*
X151568102Y-112725226D01*
X151768061Y-112765000D01*
X151971939Y-112765000D01*
X152171898Y-112725226D01*
X152360256Y-112647205D01*
X152529774Y-112533937D01*
X152673937Y-112389774D01*
X152787205Y-112220256D01*
X152865226Y-112031898D01*
X152905000Y-111831939D01*
X152905000Y-111628061D01*
X152865226Y-111428102D01*
X152787205Y-111239744D01*
X152776047Y-111223045D01*
X152851746Y-111246008D01*
X153025000Y-111263072D01*
X153975000Y-111263072D01*
X154148254Y-111246008D01*
X154314850Y-111195472D01*
X154318558Y-111193490D01*
X154396220Y-111235002D01*
X154515918Y-111271312D01*
X154640400Y-111283572D01*
X155859600Y-111283572D01*
X155984082Y-111271312D01*
X156103780Y-111235002D01*
X156214094Y-111176037D01*
X156310785Y-111096685D01*
X156340001Y-111061086D01*
X156340000Y-114576289D01*
X156334774Y-114571063D01*
X156165256Y-114457795D01*
X155976898Y-114379774D01*
X155776939Y-114340000D01*
X155573061Y-114340000D01*
X155373102Y-114379774D01*
X155184744Y-114457795D01*
X155015226Y-114571063D01*
X154971289Y-114615000D01*
X143612323Y-114615000D01*
X143575000Y-114611324D01*
X143537677Y-114615000D01*
X143537667Y-114615000D01*
X143426014Y-114625997D01*
X143282753Y-114669454D01*
X143150724Y-114740026D01*
X143034999Y-114834999D01*
X143011201Y-114863997D01*
X141135199Y-116740000D01*
X139717657Y-116740000D01*
X141138976Y-116027186D01*
X141553410Y-115750270D01*
X142597225Y-114676830D01*
X136025000Y-108104605D01*
X129452775Y-114676830D01*
X130496590Y-115750270D01*
X132129451Y-116678449D01*
X132349427Y-116751478D01*
X132207753Y-116794454D01*
X132075724Y-116865026D01*
X131959999Y-116959999D01*
X131936201Y-116988997D01*
X130861858Y-118063341D01*
X130827962Y-118022038D01*
X130693387Y-117911595D01*
X130539852Y-117829528D01*
X130373256Y-117778992D01*
X130200002Y-117761928D01*
X129674998Y-117761928D01*
X129501744Y-117778992D01*
X129335148Y-117829528D01*
X129181613Y-117911595D01*
X129047038Y-118022038D01*
X129025000Y-118048891D01*
X129002962Y-118022038D01*
X128868387Y-117911595D01*
X128714852Y-117829528D01*
X128548256Y-117778992D01*
X128375002Y-117761928D01*
X127849998Y-117761928D01*
X127676744Y-117778992D01*
X127510148Y-117829528D01*
X127356613Y-117911595D01*
X127222038Y-118022038D01*
X127111595Y-118156613D01*
X127056193Y-118260262D01*
X126940256Y-118182795D01*
X126751898Y-118104774D01*
X126551939Y-118065000D01*
X126348061Y-118065000D01*
X126148102Y-118104774D01*
X125959744Y-118182795D01*
X125790226Y-118296063D01*
X125646063Y-118440226D01*
X125620000Y-118479232D01*
X125620000Y-114097322D01*
X125623676Y-114059999D01*
X125620000Y-114022676D01*
X125620000Y-114022667D01*
X125609003Y-113911014D01*
X125565546Y-113767753D01*
X125494974Y-113635724D01*
X125400001Y-113519999D01*
X125371003Y-113496201D01*
X123160000Y-111285199D01*
X123160000Y-111088521D01*
X123200518Y-111100812D01*
X123325000Y-111113072D01*
X125825000Y-111113072D01*
X125949482Y-111100812D01*
X126069180Y-111064502D01*
X126179494Y-111005537D01*
X126276185Y-110926185D01*
X126355537Y-110829494D01*
X126414502Y-110719180D01*
X126450812Y-110599482D01*
X126463072Y-110475000D01*
X126463072Y-107896655D01*
X126582522Y-109549125D01*
X127080808Y-111360054D01*
X127922814Y-113038976D01*
X128199730Y-113453410D01*
X129273170Y-114497225D01*
X135845395Y-107925000D01*
X129273170Y-101352775D01*
X128199730Y-102396590D01*
X127271551Y-104029451D01*
X126679762Y-105812016D01*
X126463072Y-107547881D01*
X126463072Y-105375000D01*
X126450812Y-105250518D01*
X126414502Y-105130820D01*
X126355537Y-105020506D01*
X126276185Y-104923815D01*
X126179494Y-104844463D01*
X126069180Y-104785498D01*
X125949482Y-104749188D01*
X125825000Y-104736928D01*
X123325000Y-104736928D01*
X123200518Y-104749188D01*
X123080820Y-104785498D01*
X123054963Y-104799319D01*
X123034974Y-104761922D01*
X122940001Y-104646197D01*
X122911003Y-104622399D01*
X120377606Y-102089003D01*
X120353803Y-102059999D01*
X120247836Y-101973034D01*
X119963803Y-101689002D01*
X119940001Y-101659999D01*
X119824276Y-101565026D01*
X119692247Y-101494454D01*
X119548986Y-101450997D01*
X119437333Y-101440000D01*
X119437322Y-101440000D01*
X119400000Y-101436324D01*
X119362678Y-101440000D01*
X114482322Y-101440000D01*
X114444999Y-101436324D01*
X114407676Y-101440000D01*
X114407667Y-101440000D01*
X114296014Y-101450997D01*
X114152753Y-101494454D01*
X114020724Y-101565026D01*
X113904999Y-101659999D01*
X113881201Y-101688998D01*
X113184002Y-102386197D01*
X113154999Y-102409999D01*
X113141581Y-102426350D01*
X113107171Y-102444742D01*
X112987749Y-102542749D01*
X112889742Y-102662171D01*
X112816916Y-102798418D01*
X112777760Y-102927500D01*
X112585030Y-102927500D01*
X112477962Y-102797038D01*
X112343387Y-102686595D01*
X112189852Y-102604528D01*
X112023256Y-102553992D01*
X111850002Y-102536928D01*
X110949998Y-102536928D01*
X110776744Y-102553992D01*
X110610148Y-102604528D01*
X110456613Y-102686595D01*
X110322038Y-102797038D01*
X110211595Y-102931613D01*
X110129528Y-103085148D01*
X110078992Y-103251744D01*
X110061928Y-103424998D01*
X110061928Y-103950002D01*
X110078992Y-104123256D01*
X110129528Y-104289852D01*
X110211595Y-104443387D01*
X110322038Y-104577962D01*
X110348891Y-104600000D01*
X110322038Y-104622038D01*
X110211595Y-104756613D01*
X110129528Y-104910148D01*
X110078992Y-105076744D01*
X110061928Y-105249998D01*
X110061928Y-105775002D01*
X110078992Y-105948256D01*
X110129528Y-106114852D01*
X110211595Y-106268387D01*
X110322038Y-106402962D01*
X110456613Y-106513405D01*
X110610148Y-106595472D01*
X110670668Y-106613830D01*
X110694454Y-106692246D01*
X110765026Y-106824276D01*
X110826340Y-106898986D01*
X110860000Y-106940001D01*
X110888998Y-106963799D01*
X110990000Y-107064801D01*
X110990000Y-107800229D01*
X110872038Y-107897038D01*
X110866658Y-107903594D01*
X110801185Y-107823815D01*
X110704494Y-107744463D01*
X110594180Y-107685498D01*
X110474482Y-107649188D01*
X110350000Y-107636928D01*
X110135750Y-107640000D01*
X109977000Y-107798750D01*
X109977000Y-108873000D01*
X109997000Y-108873000D01*
X109997000Y-109127000D01*
X109977000Y-109127000D01*
X109977000Y-110201250D01*
X110135750Y-110360000D01*
X110350000Y-110363072D01*
X110392687Y-110358868D01*
X110365000Y-110498061D01*
X110365000Y-110701939D01*
X110404774Y-110901898D01*
X110482795Y-111090256D01*
X110596063Y-111259774D01*
X110740226Y-111403937D01*
X110909744Y-111517205D01*
X111098102Y-111595226D01*
X111298061Y-111635000D01*
X111370198Y-111635000D01*
X111246408Y-111758790D01*
X111026260Y-111715000D01*
X110733740Y-111715000D01*
X110446842Y-111772068D01*
X110176589Y-111884010D01*
X109933368Y-112046525D01*
X109726525Y-112253368D01*
X109604805Y-112435534D01*
X109535178Y-112318645D01*
X109340269Y-112102412D01*
X109106920Y-111928359D01*
X108844099Y-111803175D01*
X108696890Y-111758524D01*
X108467000Y-111879845D01*
X108467000Y-113073000D01*
X108487000Y-113073000D01*
X108487000Y-113327000D01*
X108467000Y-113327000D01*
X108467000Y-114520155D01*
X108696890Y-114641476D01*
X108844099Y-114596825D01*
X109106920Y-114471641D01*
X109340269Y-114297588D01*
X109535178Y-114081355D01*
X109604805Y-113964466D01*
X109726525Y-114146632D01*
X109933368Y-114353475D01*
X110176589Y-114515990D01*
X110446842Y-114627932D01*
X110733740Y-114685000D01*
X111026260Y-114685000D01*
X111313158Y-114627932D01*
X111583411Y-114515990D01*
X111826632Y-114353475D01*
X112033475Y-114146632D01*
X112150000Y-113972240D01*
X112266525Y-114146632D01*
X112473368Y-114353475D01*
X112716589Y-114515990D01*
X112986842Y-114627932D01*
X113273740Y-114685000D01*
X113566260Y-114685000D01*
X113853158Y-114627932D01*
X114123411Y-114515990D01*
X114366632Y-114353475D01*
X114573475Y-114146632D01*
X114735990Y-113903411D01*
X114847932Y-113633158D01*
X114905000Y-113346260D01*
X114905000Y-113274999D01*
X117647679Y-113274999D01*
X117685001Y-113278675D01*
X117722323Y-113274999D01*
X117722334Y-113274999D01*
X117833987Y-113264002D01*
X117977248Y-113220545D01*
X118109277Y-113149973D01*
X118225002Y-113055000D01*
X118248805Y-113025996D01*
X120511003Y-110763799D01*
X120540001Y-110740001D01*
X120577380Y-110694455D01*
X120634974Y-110624277D01*
X120705546Y-110492247D01*
X120725009Y-110428084D01*
X120749003Y-110348986D01*
X120758260Y-110255000D01*
X120921939Y-110255000D01*
X121121898Y-110215226D01*
X121310256Y-110137205D01*
X121479774Y-110023937D01*
X121623937Y-109879774D01*
X121640000Y-109855734D01*
X121640000Y-111562677D01*
X121636324Y-111600000D01*
X121640000Y-111637322D01*
X121640000Y-111637332D01*
X121650997Y-111748985D01*
X121679287Y-111842246D01*
X121694454Y-111892246D01*
X121765026Y-112024276D01*
X121804871Y-112072826D01*
X121859999Y-112140001D01*
X121889003Y-112163804D01*
X124100001Y-114374803D01*
X124100000Y-119447677D01*
X124096324Y-119485000D01*
X124100000Y-119522322D01*
X124100000Y-119522332D01*
X124110997Y-119633985D01*
X124138077Y-119723256D01*
X124154454Y-119777246D01*
X124225026Y-119909276D01*
X124264871Y-119957826D01*
X124319999Y-120025001D01*
X124349003Y-120048804D01*
X125636201Y-121336003D01*
X125659999Y-121365001D01*
X125775724Y-121459974D01*
X125907753Y-121530546D01*
X126051014Y-121574003D01*
X126162667Y-121585000D01*
X126162676Y-121585000D01*
X126199999Y-121588676D01*
X126237322Y-121585000D01*
X126477143Y-121585000D01*
X126319731Y-121702412D01*
X126124822Y-121918645D01*
X125975843Y-122168748D01*
X125878519Y-122443109D01*
X125999186Y-122673000D01*
X127193000Y-122673000D01*
X127193000Y-122653000D01*
X127447000Y-122653000D01*
X127447000Y-122673000D01*
X127467000Y-122673000D01*
X127467000Y-122927000D01*
X127447000Y-122927000D01*
X127447000Y-122947000D01*
X127193000Y-122947000D01*
X127193000Y-122927000D01*
X125999186Y-122927000D01*
X125878519Y-123156891D01*
X125975843Y-123431252D01*
X126124822Y-123681355D01*
X126319731Y-123897588D01*
X126553080Y-124071641D01*
X126815901Y-124196825D01*
X126963110Y-124241476D01*
X127192998Y-124120156D01*
X127192998Y-124260000D01*
X126531127Y-124260000D01*
X126493802Y-124256324D01*
X126456477Y-124260000D01*
X126456469Y-124260000D01*
X126344816Y-124270997D01*
X126201555Y-124314454D01*
X126069526Y-124385026D01*
X125953801Y-124479999D01*
X125930003Y-124508997D01*
X123542168Y-126896833D01*
X123465194Y-126960003D01*
X123465190Y-126960007D01*
X123436197Y-126983801D01*
X123412403Y-127012794D01*
X122789002Y-127636197D01*
X122759999Y-127659999D01*
X122704871Y-127727174D01*
X122665026Y-127775724D01*
X122643472Y-127816049D01*
X122594454Y-127907754D01*
X122550997Y-128051015D01*
X122540000Y-128162668D01*
X122540000Y-128162678D01*
X122536324Y-128200000D01*
X122540000Y-128237323D01*
X122540000Y-128466289D01*
X122496063Y-128510226D01*
X122382795Y-128679744D01*
X122304774Y-128868102D01*
X122265000Y-129068061D01*
X122265000Y-129271939D01*
X122304774Y-129471898D01*
X122382795Y-129660256D01*
X122496063Y-129829774D01*
X122640226Y-129973937D01*
X122809744Y-130087205D01*
X122998102Y-130165226D01*
X123198061Y-130205000D01*
X123401939Y-130205000D01*
X123601898Y-130165226D01*
X123790256Y-130087205D01*
X123959774Y-129973937D01*
X124103937Y-129829774D01*
X124217205Y-129660256D01*
X124295226Y-129471898D01*
X124335000Y-129271939D01*
X124335000Y-129068061D01*
X124295226Y-128868102D01*
X124217205Y-128679744D01*
X124103937Y-128510226D01*
X124084256Y-128490545D01*
X124424039Y-128150764D01*
X124530001Y-128063803D01*
X124553804Y-128034799D01*
X126258603Y-126330000D01*
X151976928Y-126330000D01*
X151989188Y-126454482D01*
X152025498Y-126574180D01*
X152084463Y-126684494D01*
X152163815Y-126781185D01*
X152260506Y-126860537D01*
X152370820Y-126919502D01*
X152490518Y-126955812D01*
X152615000Y-126968072D01*
X153204250Y-126965000D01*
X153363000Y-126806250D01*
X153363000Y-125857000D01*
X153617000Y-125857000D01*
X153617000Y-126806250D01*
X153775750Y-126965000D01*
X154365000Y-126968072D01*
X154489482Y-126955812D01*
X154609180Y-126919502D01*
X154719494Y-126860537D01*
X154816185Y-126781185D01*
X154895537Y-126684494D01*
X154954502Y-126574180D01*
X154990812Y-126454482D01*
X155003072Y-126330000D01*
X155000000Y-126015750D01*
X154841250Y-125857000D01*
X153617000Y-125857000D01*
X153363000Y-125857000D01*
X152138750Y-125857000D01*
X151980000Y-126015750D01*
X151976928Y-126330000D01*
X126258603Y-126330000D01*
X126808604Y-125780000D01*
X143206480Y-125780000D01*
X143243802Y-125783676D01*
X143281124Y-125780000D01*
X143281135Y-125780000D01*
X143392788Y-125769003D01*
X143536049Y-125725546D01*
X143668078Y-125654974D01*
X143783803Y-125560001D01*
X143807606Y-125530997D01*
X145211492Y-124127111D01*
X145212795Y-124130256D01*
X145326063Y-124299774D01*
X145470226Y-124443937D01*
X145639744Y-124557205D01*
X145828102Y-124635226D01*
X146028061Y-124675000D01*
X146231939Y-124675000D01*
X146431898Y-124635226D01*
X146620256Y-124557205D01*
X146789774Y-124443937D01*
X146933937Y-124299774D01*
X147047205Y-124130256D01*
X147125226Y-123941898D01*
X147165000Y-123741939D01*
X147165000Y-123730000D01*
X151974025Y-123730000D01*
X151997870Y-123972102D01*
X152068489Y-124204901D01*
X152183167Y-124419449D01*
X152309436Y-124573309D01*
X152260506Y-124599463D01*
X152163815Y-124678815D01*
X152084463Y-124775506D01*
X152025498Y-124885820D01*
X151989188Y-125005518D01*
X151976928Y-125130000D01*
X151980000Y-125444250D01*
X152138750Y-125603000D01*
X153363000Y-125603000D01*
X153363000Y-125583000D01*
X153617000Y-125583000D01*
X153617000Y-125603000D01*
X154841250Y-125603000D01*
X155000000Y-125444250D01*
X155003072Y-125130000D01*
X154990812Y-125005518D01*
X154954502Y-124885820D01*
X154895537Y-124775506D01*
X154816185Y-124678815D01*
X154719494Y-124599463D01*
X154670564Y-124573309D01*
X154796833Y-124419449D01*
X154911511Y-124204901D01*
X154982130Y-123972102D01*
X155005975Y-123730000D01*
X154982130Y-123487898D01*
X154911511Y-123255099D01*
X154796833Y-123040551D01*
X154642502Y-122852498D01*
X154454449Y-122698167D01*
X154239901Y-122583489D01*
X154007102Y-122512870D01*
X153825665Y-122495000D01*
X153154335Y-122495000D01*
X152972898Y-122512870D01*
X152740099Y-122583489D01*
X152525551Y-122698167D01*
X152337498Y-122852498D01*
X152183167Y-123040551D01*
X152068489Y-123255099D01*
X151997870Y-123487898D01*
X151974025Y-123730000D01*
X147165000Y-123730000D01*
X147165000Y-123538061D01*
X147125226Y-123338102D01*
X147047205Y-123149744D01*
X146933937Y-122980226D01*
X146890000Y-122936289D01*
X146890000Y-118523711D01*
X146933937Y-118479774D01*
X147047205Y-118310256D01*
X147125226Y-118121898D01*
X147165000Y-117921939D01*
X147165000Y-117863045D01*
X147204176Y-117957624D01*
X147269241Y-118055000D01*
X147204176Y-118152376D01*
X147118617Y-118358933D01*
X147075000Y-118578212D01*
X147075000Y-118801788D01*
X147118617Y-119021067D01*
X147204176Y-119227624D01*
X147269241Y-119325000D01*
X147204176Y-119422376D01*
X147118617Y-119628933D01*
X147075000Y-119848212D01*
X147075000Y-120071788D01*
X147118617Y-120291067D01*
X147204176Y-120497624D01*
X147269241Y-120595000D01*
X147204176Y-120692376D01*
X147118617Y-120898933D01*
X147075000Y-121118212D01*
X147075000Y-121341788D01*
X147118617Y-121561067D01*
X147204176Y-121767624D01*
X147269241Y-121865000D01*
X147204176Y-121962376D01*
X147118617Y-122168933D01*
X147075000Y-122388212D01*
X147075000Y-122611788D01*
X147118617Y-122831067D01*
X147204176Y-123037624D01*
X147328388Y-123223520D01*
X147486480Y-123381612D01*
X147672376Y-123505824D01*
X147878933Y-123591383D01*
X148098212Y-123635000D01*
X148321788Y-123635000D01*
X148541067Y-123591383D01*
X148652774Y-123545112D01*
X148735820Y-123589502D01*
X148855518Y-123625812D01*
X148980000Y-123638072D01*
X149980000Y-123638072D01*
X150104482Y-123625812D01*
X150224180Y-123589502D01*
X150334494Y-123530537D01*
X150431185Y-123451185D01*
X150510537Y-123354494D01*
X150569502Y-123244180D01*
X150605812Y-123124482D01*
X150618072Y-123000000D01*
X150618072Y-122000000D01*
X150605812Y-121875518D01*
X150569502Y-121755820D01*
X150521930Y-121666820D01*
X150557446Y-121586864D01*
X150574119Y-121531874D01*
X150447954Y-121357000D01*
X149607000Y-121357000D01*
X149607000Y-121361928D01*
X149353000Y-121361928D01*
X149353000Y-121357000D01*
X149341974Y-121357000D01*
X149345000Y-121341788D01*
X149345000Y-121118212D01*
X149341974Y-121103000D01*
X149353000Y-121103000D01*
X149353000Y-120087000D01*
X149607000Y-120087000D01*
X149607000Y-121103000D01*
X150447954Y-121103000D01*
X150574119Y-120928126D01*
X150557446Y-120873136D01*
X150467123Y-120669794D01*
X150414361Y-120595000D01*
X150467123Y-120520206D01*
X150557446Y-120316864D01*
X150574119Y-120261874D01*
X150447954Y-120087000D01*
X149607000Y-120087000D01*
X149353000Y-120087000D01*
X149341974Y-120087000D01*
X149345000Y-120071788D01*
X149345000Y-119848212D01*
X149341974Y-119833000D01*
X149353000Y-119833000D01*
X149353000Y-119821974D01*
X149368212Y-119825000D01*
X149591788Y-119825000D01*
X149607000Y-119821974D01*
X149607000Y-119833000D01*
X150447954Y-119833000D01*
X150574119Y-119658126D01*
X150557446Y-119603136D01*
X150467123Y-119399794D01*
X150417647Y-119329658D01*
X150485824Y-119227624D01*
X150571383Y-119021067D01*
X150615000Y-118801788D01*
X150615000Y-118578212D01*
X150571383Y-118358933D01*
X150485824Y-118152376D01*
X150417647Y-118050342D01*
X150467123Y-117980206D01*
X150557446Y-117776864D01*
X150574119Y-117721874D01*
X150447954Y-117547000D01*
X149607000Y-117547000D01*
X149607000Y-117558026D01*
X149591788Y-117555000D01*
X149368212Y-117555000D01*
X149353000Y-117558026D01*
X149353000Y-117547000D01*
X149341974Y-117547000D01*
X149345000Y-117531788D01*
X149345000Y-117308212D01*
X149341974Y-117293000D01*
X149353000Y-117293000D01*
X149353000Y-116450871D01*
X149607000Y-116450871D01*
X149607000Y-117293000D01*
X150447954Y-117293000D01*
X150574119Y-117118126D01*
X150557446Y-117063136D01*
X150467123Y-116859794D01*
X150338865Y-116677980D01*
X150177601Y-116524682D01*
X149989529Y-116405790D01*
X149781876Y-116325874D01*
X149607000Y-116450871D01*
X149353000Y-116450871D01*
X149178124Y-116325874D01*
X148970471Y-116405790D01*
X148849512Y-116482256D01*
X148747624Y-116414176D01*
X148541067Y-116328617D01*
X148321788Y-116285000D01*
X148098212Y-116285000D01*
X147878933Y-116328617D01*
X147672376Y-116414176D01*
X147486480Y-116538388D01*
X147328388Y-116696480D01*
X147204176Y-116882376D01*
X147118617Y-117088933D01*
X147075000Y-117308212D01*
X147075000Y-117396847D01*
X147047205Y-117329744D01*
X146933937Y-117160226D01*
X146789774Y-117016063D01*
X146620256Y-116902795D01*
X146431898Y-116824774D01*
X146231939Y-116785000D01*
X146082519Y-116785000D01*
X146047205Y-116699744D01*
X145933937Y-116530226D01*
X145789774Y-116386063D01*
X145620256Y-116272795D01*
X145431898Y-116194774D01*
X145231939Y-116155000D01*
X145028061Y-116155000D01*
X144828102Y-116194774D01*
X144639744Y-116272795D01*
X144470226Y-116386063D01*
X144326063Y-116530226D01*
X144212795Y-116699744D01*
X144134774Y-116888102D01*
X144103391Y-117045874D01*
X143958102Y-117074774D01*
X143769744Y-117152795D01*
X143600226Y-117266063D01*
X143456063Y-117410226D01*
X143342795Y-117579744D01*
X143264774Y-117768102D01*
X143225000Y-117968061D01*
X143225000Y-118171939D01*
X143264774Y-118371898D01*
X143342795Y-118560256D01*
X143456063Y-118729774D01*
X143500000Y-118773711D01*
X143500001Y-122286288D01*
X143456063Y-122330226D01*
X143342795Y-122499744D01*
X143264774Y-122688102D01*
X143225000Y-122888061D01*
X143225000Y-122950198D01*
X142575199Y-123600000D01*
X133888072Y-123600000D01*
X133888072Y-121950000D01*
X133875812Y-121825518D01*
X133839502Y-121705820D01*
X133780537Y-121595506D01*
X133701185Y-121498815D01*
X133604494Y-121419463D01*
X133494180Y-121360498D01*
X133374482Y-121324188D01*
X133250000Y-121311928D01*
X131550000Y-121311928D01*
X131425518Y-121324188D01*
X131305820Y-121360498D01*
X131195506Y-121419463D01*
X131098815Y-121498815D01*
X131019463Y-121595506D01*
X130960498Y-121705820D01*
X130938487Y-121778380D01*
X130806632Y-121646525D01*
X130698210Y-121574079D01*
X130698986Y-121574003D01*
X130842247Y-121530546D01*
X130974276Y-121459974D01*
X131090001Y-121365001D01*
X131113804Y-121335997D01*
X133164802Y-119285000D01*
X137871289Y-119285000D01*
X137915226Y-119328937D01*
X138084744Y-119442205D01*
X138273102Y-119520226D01*
X138473061Y-119560000D01*
X138676939Y-119560000D01*
X138876898Y-119520226D01*
X139065256Y-119442205D01*
X139234774Y-119328937D01*
X139378937Y-119184774D01*
X139492205Y-119015256D01*
X139570226Y-118826898D01*
X139610000Y-118626939D01*
X139610000Y-118423061D01*
X139577565Y-118260000D01*
X141412678Y-118260000D01*
X141450000Y-118263676D01*
X141487322Y-118260000D01*
X141487333Y-118260000D01*
X141598986Y-118249003D01*
X141742247Y-118205546D01*
X141874276Y-118134974D01*
X141990001Y-118040001D01*
X142013804Y-118010997D01*
X143889802Y-116135000D01*
X154971289Y-116135000D01*
X155015226Y-116178937D01*
X155184744Y-116292205D01*
X155373102Y-116370226D01*
X155573061Y-116410000D01*
X155776939Y-116410000D01*
X155976898Y-116370226D01*
X156165256Y-116292205D01*
X156334774Y-116178937D01*
X156340000Y-116173711D01*
X156340000Y-129264098D01*
X156288601Y-129187174D01*
X155872826Y-128771399D01*
X155383928Y-128444727D01*
X154840692Y-128219712D01*
X154263997Y-128105000D01*
X153676003Y-128105000D01*
X153099308Y-128219712D01*
X152556072Y-128444727D01*
X152067174Y-128771399D01*
X151651399Y-129187174D01*
X151324727Y-129676072D01*
X151099712Y-130219308D01*
X150985000Y-130796003D01*
X150985000Y-131383997D01*
X151099712Y-131960692D01*
X151324727Y-132503928D01*
X151651399Y-132992826D01*
X151998573Y-133340000D01*
X107870800Y-133340000D01*
X107902826Y-133318601D01*
X108318601Y-132902826D01*
X108645273Y-132413928D01*
X108870288Y-131870692D01*
X108890508Y-131769039D01*
X124848096Y-131769039D01*
X124888754Y-131903087D01*
X125008963Y-132157420D01*
X125176481Y-132383414D01*
X125384869Y-132572385D01*
X125626119Y-132717070D01*
X125890960Y-132811909D01*
X126113000Y-132690624D01*
X126113000Y-131547000D01*
X126367000Y-131547000D01*
X126367000Y-132690624D01*
X126589040Y-132811909D01*
X126853881Y-132717070D01*
X127095131Y-132572385D01*
X127303519Y-132383414D01*
X127471037Y-132157420D01*
X127591246Y-131903087D01*
X127631904Y-131769039D01*
X127509915Y-131547000D01*
X126367000Y-131547000D01*
X126113000Y-131547000D01*
X124970085Y-131547000D01*
X124848096Y-131769039D01*
X108890508Y-131769039D01*
X108985000Y-131293997D01*
X108985000Y-131070961D01*
X124848096Y-131070961D01*
X124970085Y-131293000D01*
X126113000Y-131293000D01*
X126113000Y-130149376D01*
X126367000Y-130149376D01*
X126367000Y-131293000D01*
X127509915Y-131293000D01*
X127517790Y-131278665D01*
X145125000Y-131278665D01*
X145125000Y-131561335D01*
X145180147Y-131838574D01*
X145288320Y-132099727D01*
X145445363Y-132334759D01*
X145645241Y-132534637D01*
X145880273Y-132691680D01*
X146141426Y-132799853D01*
X146418665Y-132855000D01*
X146701335Y-132855000D01*
X146978574Y-132799853D01*
X147239727Y-132691680D01*
X147474759Y-132534637D01*
X147674637Y-132334759D01*
X147831680Y-132099727D01*
X147939853Y-131838574D01*
X147995000Y-131561335D01*
X147995000Y-131278665D01*
X147939853Y-131001426D01*
X147831680Y-130740273D01*
X147674637Y-130505241D01*
X147474759Y-130305363D01*
X147239727Y-130148320D01*
X146978574Y-130040147D01*
X146701335Y-129985000D01*
X146418665Y-129985000D01*
X146141426Y-130040147D01*
X145880273Y-130148320D01*
X145645241Y-130305363D01*
X145445363Y-130505241D01*
X145288320Y-130740273D01*
X145180147Y-131001426D01*
X145125000Y-131278665D01*
X127517790Y-131278665D01*
X127631904Y-131070961D01*
X127591246Y-130936913D01*
X127471037Y-130682580D01*
X127303519Y-130456586D01*
X127095131Y-130267615D01*
X126853881Y-130122930D01*
X126589040Y-130028091D01*
X126367000Y-130149376D01*
X126113000Y-130149376D01*
X125890960Y-130028091D01*
X125626119Y-130122930D01*
X125384869Y-130267615D01*
X125176481Y-130456586D01*
X125008963Y-130682580D01*
X124888754Y-130936913D01*
X124848096Y-131070961D01*
X108985000Y-131070961D01*
X108985000Y-130706003D01*
X108870288Y-130129308D01*
X108645273Y-129586072D01*
X108318601Y-129097174D01*
X107902826Y-128681399D01*
X107413928Y-128354727D01*
X106870692Y-128129712D01*
X106293997Y-128015000D01*
X105706003Y-128015000D01*
X105129308Y-128129712D01*
X104586072Y-128354727D01*
X104097174Y-128681399D01*
X103681399Y-129097174D01*
X103660000Y-129129200D01*
X103660000Y-124385561D01*
X122877500Y-124385561D01*
X122877500Y-124589439D01*
X122917274Y-124789398D01*
X122995295Y-124977756D01*
X123108563Y-125147274D01*
X123252726Y-125291437D01*
X123422244Y-125404705D01*
X123610602Y-125482726D01*
X123810561Y-125522500D01*
X124014439Y-125522500D01*
X124214398Y-125482726D01*
X124402756Y-125404705D01*
X124572274Y-125291437D01*
X124716437Y-125147274D01*
X124829705Y-124977756D01*
X124907726Y-124789398D01*
X124947500Y-124589439D01*
X124947500Y-124385561D01*
X124907726Y-124185602D01*
X124829705Y-123997244D01*
X124716437Y-123827726D01*
X124572274Y-123683563D01*
X124402756Y-123570295D01*
X124214398Y-123492274D01*
X124014439Y-123452500D01*
X123810561Y-123452500D01*
X123610602Y-123492274D01*
X123422244Y-123570295D01*
X123252726Y-123683563D01*
X123108563Y-123827726D01*
X122995295Y-123997244D01*
X122917274Y-124185602D01*
X122877500Y-124385561D01*
X103660000Y-124385561D01*
X103660000Y-122693740D01*
X106515000Y-122693740D01*
X106515000Y-122986260D01*
X106572068Y-123273158D01*
X106684010Y-123543411D01*
X106846525Y-123786632D01*
X107053368Y-123993475D01*
X107296589Y-124155990D01*
X107566842Y-124267932D01*
X107853740Y-124325000D01*
X108146260Y-124325000D01*
X108433158Y-124267932D01*
X108703411Y-124155990D01*
X108946632Y-123993475D01*
X109153475Y-123786632D01*
X109315990Y-123543411D01*
X109427932Y-123273158D01*
X109485000Y-122986260D01*
X109485000Y-122693740D01*
X113515000Y-122693740D01*
X113515000Y-122986260D01*
X113572068Y-123273158D01*
X113684010Y-123543411D01*
X113846525Y-123786632D01*
X114053368Y-123993475D01*
X114296589Y-124155990D01*
X114566842Y-124267932D01*
X114853740Y-124325000D01*
X115146260Y-124325000D01*
X115433158Y-124267932D01*
X115703411Y-124155990D01*
X115946632Y-123993475D01*
X116153475Y-123786632D01*
X116315990Y-123543411D01*
X116427932Y-123273158D01*
X116485000Y-122986260D01*
X116485000Y-122693740D01*
X116427932Y-122406842D01*
X116315990Y-122136589D01*
X116153475Y-121893368D01*
X115946632Y-121686525D01*
X115703411Y-121524010D01*
X115433158Y-121412068D01*
X115146260Y-121355000D01*
X114853740Y-121355000D01*
X114566842Y-121412068D01*
X114296589Y-121524010D01*
X114053368Y-121686525D01*
X113846525Y-121893368D01*
X113684010Y-122136589D01*
X113572068Y-122406842D01*
X113515000Y-122693740D01*
X109485000Y-122693740D01*
X109427932Y-122406842D01*
X109315990Y-122136589D01*
X109153475Y-121893368D01*
X108946632Y-121686525D01*
X108703411Y-121524010D01*
X108433158Y-121412068D01*
X108146260Y-121355000D01*
X107853740Y-121355000D01*
X107566842Y-121412068D01*
X107296589Y-121524010D01*
X107053368Y-121686525D01*
X106846525Y-121893368D01*
X106684010Y-122136589D01*
X106572068Y-122406842D01*
X106515000Y-122693740D01*
X103660000Y-122693740D01*
X103660000Y-112350000D01*
X104311928Y-112350000D01*
X104311928Y-114050000D01*
X104324188Y-114174482D01*
X104360498Y-114294180D01*
X104419463Y-114404494D01*
X104498815Y-114501185D01*
X104595506Y-114580537D01*
X104705820Y-114639502D01*
X104825518Y-114675812D01*
X104950000Y-114688072D01*
X106650000Y-114688072D01*
X106774482Y-114675812D01*
X106894180Y-114639502D01*
X107004494Y-114580537D01*
X107101185Y-114501185D01*
X107180537Y-114404494D01*
X107239502Y-114294180D01*
X107263966Y-114213534D01*
X107339731Y-114297588D01*
X107573080Y-114471641D01*
X107835901Y-114596825D01*
X107983110Y-114641476D01*
X108213000Y-114520155D01*
X108213000Y-113327000D01*
X108193000Y-113327000D01*
X108193000Y-113073000D01*
X108213000Y-113073000D01*
X108213000Y-111879845D01*
X107983110Y-111758524D01*
X107835901Y-111803175D01*
X107573080Y-111928359D01*
X107339731Y-112102412D01*
X107263966Y-112186466D01*
X107239502Y-112105820D01*
X107180537Y-111995506D01*
X107101185Y-111898815D01*
X107004494Y-111819463D01*
X106894180Y-111760498D01*
X106774482Y-111724188D01*
X106650000Y-111711928D01*
X104950000Y-111711928D01*
X104825518Y-111724188D01*
X104705820Y-111760498D01*
X104595506Y-111819463D01*
X104498815Y-111898815D01*
X104419463Y-111995506D01*
X104360498Y-112105820D01*
X104324188Y-112225518D01*
X104311928Y-112350000D01*
X103660000Y-112350000D01*
X103660000Y-109725000D01*
X108711928Y-109725000D01*
X108724188Y-109849482D01*
X108760498Y-109969180D01*
X108819463Y-110079494D01*
X108898815Y-110176185D01*
X108995506Y-110255537D01*
X109105820Y-110314502D01*
X109225518Y-110350812D01*
X109350000Y-110363072D01*
X109564250Y-110360000D01*
X109723000Y-110201250D01*
X109723000Y-109127000D01*
X108873750Y-109127000D01*
X108715000Y-109285750D01*
X108711928Y-109725000D01*
X103660000Y-109725000D01*
X103660000Y-108275000D01*
X108711928Y-108275000D01*
X108715000Y-108714250D01*
X108873750Y-108873000D01*
X109723000Y-108873000D01*
X109723000Y-107798750D01*
X109564250Y-107640000D01*
X109350000Y-107636928D01*
X109225518Y-107649188D01*
X109105820Y-107685498D01*
X108995506Y-107744463D01*
X108898815Y-107823815D01*
X108819463Y-107920506D01*
X108760498Y-108030820D01*
X108724188Y-108150518D01*
X108711928Y-108275000D01*
X103660000Y-108275000D01*
X103660000Y-100750000D01*
X108536928Y-100750000D01*
X108549188Y-100874482D01*
X108585498Y-100994180D01*
X108644463Y-101104494D01*
X108723815Y-101201185D01*
X108820506Y-101280537D01*
X108930820Y-101339502D01*
X109050518Y-101375812D01*
X109175000Y-101388072D01*
X109739250Y-101385000D01*
X109898000Y-101226250D01*
X109898000Y-100027000D01*
X108698750Y-100027000D01*
X108540000Y-100185750D01*
X108536928Y-100750000D01*
X103660000Y-100750000D01*
X103660000Y-99050000D01*
X108536928Y-99050000D01*
X108540000Y-99614250D01*
X108698750Y-99773000D01*
X109898000Y-99773000D01*
X109898000Y-98573750D01*
X110152000Y-98573750D01*
X110152000Y-99773000D01*
X110172000Y-99773000D01*
X110172000Y-100027000D01*
X110152000Y-100027000D01*
X110152000Y-101226250D01*
X110310750Y-101385000D01*
X110875000Y-101388072D01*
X110999482Y-101375812D01*
X111119180Y-101339502D01*
X111229494Y-101280537D01*
X111326185Y-101201185D01*
X111405537Y-101104494D01*
X111464502Y-100994180D01*
X111486513Y-100921620D01*
X111618368Y-101053475D01*
X111861589Y-101215990D01*
X112131842Y-101327932D01*
X112418740Y-101385000D01*
X112711260Y-101385000D01*
X112998158Y-101327932D01*
X113268411Y-101215990D01*
X113511632Y-101053475D01*
X113718475Y-100846632D01*
X113835000Y-100672240D01*
X113951525Y-100846632D01*
X114158368Y-101053475D01*
X114401589Y-101215990D01*
X114671842Y-101327932D01*
X114958740Y-101385000D01*
X115251260Y-101385000D01*
X115538158Y-101327932D01*
X115808411Y-101215990D01*
X116051632Y-101053475D01*
X116258475Y-100846632D01*
X116375000Y-100672240D01*
X116491525Y-100846632D01*
X116698368Y-101053475D01*
X116941589Y-101215990D01*
X117211842Y-101327932D01*
X117498740Y-101385000D01*
X117791260Y-101385000D01*
X118078158Y-101327932D01*
X118348411Y-101215990D01*
X118412495Y-101173170D01*
X129452775Y-101173170D01*
X136025000Y-107745395D01*
X142597225Y-101173170D01*
X141553410Y-100099730D01*
X139920549Y-99171551D01*
X138137984Y-98579762D01*
X136274218Y-98347106D01*
X134400875Y-98482522D01*
X132589946Y-98980808D01*
X130911024Y-99822814D01*
X130496590Y-100099730D01*
X129452775Y-101173170D01*
X118412495Y-101173170D01*
X118591632Y-101053475D01*
X118798475Y-100846632D01*
X118960990Y-100603411D01*
X119072932Y-100333158D01*
X119130000Y-100046260D01*
X119130000Y-99753740D01*
X119072932Y-99466842D01*
X118960990Y-99196589D01*
X118798475Y-98953368D01*
X118591632Y-98746525D01*
X118348411Y-98584010D01*
X118078158Y-98472068D01*
X117791260Y-98415000D01*
X117498740Y-98415000D01*
X117211842Y-98472068D01*
X116941589Y-98584010D01*
X116698368Y-98746525D01*
X116491525Y-98953368D01*
X116375000Y-99127760D01*
X116258475Y-98953368D01*
X116051632Y-98746525D01*
X115808411Y-98584010D01*
X115538158Y-98472068D01*
X115251260Y-98415000D01*
X114958740Y-98415000D01*
X114671842Y-98472068D01*
X114401589Y-98584010D01*
X114158368Y-98746525D01*
X113951525Y-98953368D01*
X113835000Y-99127760D01*
X113718475Y-98953368D01*
X113511632Y-98746525D01*
X113268411Y-98584010D01*
X112998158Y-98472068D01*
X112711260Y-98415000D01*
X112418740Y-98415000D01*
X112131842Y-98472068D01*
X111861589Y-98584010D01*
X111618368Y-98746525D01*
X111486513Y-98878380D01*
X111464502Y-98805820D01*
X111405537Y-98695506D01*
X111326185Y-98598815D01*
X111229494Y-98519463D01*
X111119180Y-98460498D01*
X110999482Y-98424188D01*
X110875000Y-98411928D01*
X110310750Y-98415000D01*
X110152000Y-98573750D01*
X109898000Y-98573750D01*
X109739250Y-98415000D01*
X109175000Y-98411928D01*
X109050518Y-98424188D01*
X108930820Y-98460498D01*
X108820506Y-98519463D01*
X108723815Y-98598815D01*
X108644463Y-98695506D01*
X108585498Y-98805820D01*
X108549188Y-98925518D01*
X108536928Y-99050000D01*
X103660000Y-99050000D01*
X103660000Y-98127000D01*
X156340001Y-98127000D01*
X156340001Y-106038914D01*
G37*
%TD.AperFunction*%
D23*
X119236200Y-103111002D02*
X119259999Y-103140001D01*
X119365970Y-103226969D01*
X121640001Y-105501001D01*
X121640000Y-108584267D01*
X121623937Y-108560226D01*
X121580000Y-108516289D01*
X121580000Y-106043520D01*
X121583676Y-106006197D01*
X121580000Y-105968875D01*
X121580000Y-105968865D01*
X121569003Y-105857212D01*
X121560728Y-105829932D01*
X121563676Y-105799999D01*
X121560000Y-105762676D01*
X121560000Y-105762668D01*
X121549003Y-105651015D01*
X121505546Y-105507754D01*
X121434974Y-105375724D01*
X121340001Y-105259999D01*
X121310997Y-105236196D01*
X121078803Y-105004002D01*
X121055000Y-104974998D01*
X120939275Y-104880025D01*
X120807246Y-104809453D01*
X120663985Y-104765996D01*
X120552332Y-104754999D01*
X120552321Y-104754999D01*
X120514999Y-104751323D01*
X120477677Y-104754999D01*
X118421555Y-104754999D01*
X118430812Y-104724482D01*
X118443072Y-104600000D01*
X118440000Y-104060750D01*
X118281250Y-103902000D01*
X117632000Y-103902000D01*
X117632000Y-103922000D01*
X117378000Y-103922000D01*
X117378000Y-103902000D01*
X117358000Y-103902000D01*
X117358000Y-103648000D01*
X117378000Y-103648000D01*
X117378000Y-103628000D01*
X117632000Y-103628000D01*
X117632000Y-103648000D01*
X118281250Y-103648000D01*
X118440000Y-103489250D01*
X118443015Y-102960000D01*
X119085198Y-102960000D01*
X119236200Y-103111002D01*
%TA.AperFunction,Conductor*%
D24*
G36*
X119236200Y-103111002D02*
G01*
X119259999Y-103140001D01*
X119365970Y-103226969D01*
X121640001Y-105501001D01*
X121640000Y-108584267D01*
X121623937Y-108560226D01*
X121580000Y-108516289D01*
X121580000Y-106043520D01*
X121583676Y-106006197D01*
X121580000Y-105968875D01*
X121580000Y-105968865D01*
X121569003Y-105857212D01*
X121560728Y-105829932D01*
X121563676Y-105799999D01*
X121560000Y-105762676D01*
X121560000Y-105762668D01*
X121549003Y-105651015D01*
X121505546Y-105507754D01*
X121434974Y-105375724D01*
X121340001Y-105259999D01*
X121310997Y-105236196D01*
X121078803Y-105004002D01*
X121055000Y-104974998D01*
X120939275Y-104880025D01*
X120807246Y-104809453D01*
X120663985Y-104765996D01*
X120552332Y-104754999D01*
X120552321Y-104754999D01*
X120514999Y-104751323D01*
X120477677Y-104754999D01*
X118421555Y-104754999D01*
X118430812Y-104724482D01*
X118443072Y-104600000D01*
X118440000Y-104060750D01*
X118281250Y-103902000D01*
X117632000Y-103902000D01*
X117632000Y-103922000D01*
X117378000Y-103922000D01*
X117378000Y-103902000D01*
X117358000Y-103902000D01*
X117358000Y-103648000D01*
X117378000Y-103648000D01*
X117378000Y-103628000D01*
X117632000Y-103628000D01*
X117632000Y-103648000D01*
X118281250Y-103648000D01*
X118440000Y-103489250D01*
X118443015Y-102960000D01*
X119085198Y-102960000D01*
X119236200Y-103111002D01*
G37*
%TD.AperFunction*%
D23*
X112756928Y-104450000D02*
X112772071Y-104603745D01*
X112816916Y-104751582D01*
X112889742Y-104887829D01*
X112987749Y-105007251D01*
X113107171Y-105105258D01*
X113243418Y-105178084D01*
X113391255Y-105222929D01*
X113545000Y-105238072D01*
X113845000Y-105238072D01*
X113998745Y-105222929D01*
X114146582Y-105178084D01*
X114282829Y-105105258D01*
X114330000Y-105066546D01*
X114377171Y-105105258D01*
X114411581Y-105123650D01*
X114424999Y-105140001D01*
X114454002Y-105163803D01*
X115316199Y-106026001D01*
X115339998Y-106055000D01*
X115368996Y-106078798D01*
X115455722Y-106149973D01*
X115549317Y-106200001D01*
X115587752Y-106220545D01*
X115731013Y-106264002D01*
X115842666Y-106274999D01*
X115842676Y-106274999D01*
X115879999Y-106278675D01*
X115917321Y-106274999D01*
X117911962Y-106274999D01*
X117894454Y-106307754D01*
X117850997Y-106451015D01*
X117840000Y-106562668D01*
X117840000Y-106562678D01*
X117836324Y-106600000D01*
X117840000Y-106637323D01*
X117840000Y-107586552D01*
X117808745Y-107577071D01*
X117655000Y-107561928D01*
X117355000Y-107561928D01*
X117201255Y-107577071D01*
X117053418Y-107621916D01*
X116917171Y-107694742D01*
X116870000Y-107733454D01*
X116822829Y-107694742D01*
X116686582Y-107621916D01*
X116538745Y-107577071D01*
X116385000Y-107561928D01*
X116085000Y-107561928D01*
X115931255Y-107577071D01*
X115783418Y-107621916D01*
X115647171Y-107694742D01*
X115600000Y-107733454D01*
X115552829Y-107694742D01*
X115416582Y-107621916D01*
X115268745Y-107577071D01*
X115115000Y-107561928D01*
X114815000Y-107561928D01*
X114661255Y-107577071D01*
X114513418Y-107621916D01*
X114377171Y-107694742D01*
X114330000Y-107733454D01*
X114282829Y-107694742D01*
X114146582Y-107621916D01*
X113998745Y-107577071D01*
X113845000Y-107561928D01*
X113545000Y-107561928D01*
X113391255Y-107577071D01*
X113243418Y-107621916D01*
X113107171Y-107694742D01*
X112987749Y-107792749D01*
X112889742Y-107912171D01*
X112816916Y-108048418D01*
X112791743Y-108131403D01*
X112738405Y-108031614D01*
X112627962Y-107897038D01*
X112510000Y-107800230D01*
X112510000Y-106787325D01*
X112513676Y-106750000D01*
X112510000Y-106712675D01*
X112510000Y-106712667D01*
X112499003Y-106601014D01*
X112455546Y-106457753D01*
X112442024Y-106432456D01*
X112477962Y-106402962D01*
X112588405Y-106268387D01*
X112670472Y-106114852D01*
X112721008Y-105948256D01*
X112738072Y-105775002D01*
X112738072Y-105249998D01*
X112721008Y-105076744D01*
X112670472Y-104910148D01*
X112588405Y-104756613D01*
X112477962Y-104622038D01*
X112451109Y-104600000D01*
X112477962Y-104577962D01*
X112585030Y-104447500D01*
X112756928Y-104447500D01*
X112756928Y-104450000D01*
%TA.AperFunction,Conductor*%
D24*
G36*
X112756928Y-104450000D02*
G01*
X112772071Y-104603745D01*
X112816916Y-104751582D01*
X112889742Y-104887829D01*
X112987749Y-105007251D01*
X113107171Y-105105258D01*
X113243418Y-105178084D01*
X113391255Y-105222929D01*
X113545000Y-105238072D01*
X113845000Y-105238072D01*
X113998745Y-105222929D01*
X114146582Y-105178084D01*
X114282829Y-105105258D01*
X114330000Y-105066546D01*
X114377171Y-105105258D01*
X114411581Y-105123650D01*
X114424999Y-105140001D01*
X114454002Y-105163803D01*
X115316199Y-106026001D01*
X115339998Y-106055000D01*
X115368996Y-106078798D01*
X115455722Y-106149973D01*
X115549317Y-106200001D01*
X115587752Y-106220545D01*
X115731013Y-106264002D01*
X115842666Y-106274999D01*
X115842676Y-106274999D01*
X115879999Y-106278675D01*
X115917321Y-106274999D01*
X117911962Y-106274999D01*
X117894454Y-106307754D01*
X117850997Y-106451015D01*
X117840000Y-106562668D01*
X117840000Y-106562678D01*
X117836324Y-106600000D01*
X117840000Y-106637323D01*
X117840000Y-107586552D01*
X117808745Y-107577071D01*
X117655000Y-107561928D01*
X117355000Y-107561928D01*
X117201255Y-107577071D01*
X117053418Y-107621916D01*
X116917171Y-107694742D01*
X116870000Y-107733454D01*
X116822829Y-107694742D01*
X116686582Y-107621916D01*
X116538745Y-107577071D01*
X116385000Y-107561928D01*
X116085000Y-107561928D01*
X115931255Y-107577071D01*
X115783418Y-107621916D01*
X115647171Y-107694742D01*
X115600000Y-107733454D01*
X115552829Y-107694742D01*
X115416582Y-107621916D01*
X115268745Y-107577071D01*
X115115000Y-107561928D01*
X114815000Y-107561928D01*
X114661255Y-107577071D01*
X114513418Y-107621916D01*
X114377171Y-107694742D01*
X114330000Y-107733454D01*
X114282829Y-107694742D01*
X114146582Y-107621916D01*
X113998745Y-107577071D01*
X113845000Y-107561928D01*
X113545000Y-107561928D01*
X113391255Y-107577071D01*
X113243418Y-107621916D01*
X113107171Y-107694742D01*
X112987749Y-107792749D01*
X112889742Y-107912171D01*
X112816916Y-108048418D01*
X112791743Y-108131403D01*
X112738405Y-108031614D01*
X112627962Y-107897038D01*
X112510000Y-107800230D01*
X112510000Y-106787325D01*
X112513676Y-106750000D01*
X112510000Y-106712675D01*
X112510000Y-106712667D01*
X112499003Y-106601014D01*
X112455546Y-106457753D01*
X112442024Y-106432456D01*
X112477962Y-106402962D01*
X112588405Y-106268387D01*
X112670472Y-106114852D01*
X112721008Y-105948256D01*
X112738072Y-105775002D01*
X112738072Y-105249998D01*
X112721008Y-105076744D01*
X112670472Y-104910148D01*
X112588405Y-104756613D01*
X112477962Y-104622038D01*
X112451109Y-104600000D01*
X112477962Y-104577962D01*
X112585030Y-104447500D01*
X112756928Y-104447500D01*
X112756928Y-104450000D01*
G37*
%TD.AperFunction*%
%TD*%
M02*
